<?xml version="1.0" encoding="UTF-8" standalone="no"?>
<!DOCTYPE svg PUBLIC "-//W3C//DTD SVG 1.1//EN"
 "http://www.w3.org/Graphics/SVG/1.1/DTD/svg11.dtd">
<!-- Generated by graphviz version 5.0.0 (20220707.1540)
 -->
<!-- Title: UmlClassDiagram Pages: 1 -->
<svg width="1084pt" height="337pt"
 viewBox="0.00 0.00 1083.66 336.80" xmlns="http://www.w3.org/2000/svg" xmlns:xlink="http://www.w3.org/1999/xlink">
<g id="graph0" class="graph" transform="scale(1 1) rotate(0) translate(4 332.8)">
<title>UmlClassDiagram</title>
<polygon fill="white" stroke="transparent" points="-4,4 -4,-332.8 1079.66,-332.8 1079.66,4 -4,4"/>
<!-- 4 -->
<g id="node1" class="node">
<title>4</title>
<polygon fill="#f2f2f2" stroke="black" points="580.78,-79.1 580.78,-137.5 1058.19,-137.5 1058.19,-79.1 580.78,-79.1"/>
<text text-anchor="middle" x="819.49" y="-120.9" font-family="Times,serif" font-size="14.00">&lt;&lt;Abstract&gt;&gt;</text>
<text text-anchor="middle" x="819.49" y="-104.1" font-family="Times,serif" font-size="14.00">OwnableUpgradeable</text>
<text text-anchor="middle" x="819.49" y="-87.3" font-family="Times,serif" font-size="14.00">lib/openzeppelin&#45;contracts&#45;upgradeable/contracts/access/OwnableUpgradeable.sol</text>
</g>
<!-- 5 -->
<g id="node2" class="node">
<title>5</title>
<polygon fill="#f2f2f2" stroke="black" points="470.92,-269.9 470.92,-328.3 918.05,-328.3 918.05,-269.9 470.92,-269.9"/>
<text text-anchor="middle" x="694.49" y="-311.7" font-family="Times,serif" font-size="14.00">&lt;&lt;Abstract&gt;&gt;</text>
<text text-anchor="middle" x="694.49" y="-294.9" font-family="Times,serif" font-size="14.00">Initializable</text>
<text text-anchor="middle" x="694.49" y="-278.1" font-family="Times,serif" font-size="14.00">lib/openzeppelin&#45;contracts&#45;upgradeable/contracts/proxy/utils/Initializable.sol</text>
</g>
<!-- 4&#45;&gt;5 -->
<g id="edge1" class="edge">
<title>4&#45;&gt;5</title>
<path fill="none" stroke="black" d="M662.05,-137.52C626.36,-147.2 595.64,-159.36 584.49,-174 568.49,-195 571.38,-210.48 584.49,-233.4 588.22,-239.93 592.9,-245.86 598.2,-251.25"/>
<polygon fill="none" stroke="black" points="591.83,-259.59 621.91,-269.87 604.81,-243.08 591.83,-259.59"/>
</g>
<!-- 11 -->
<g id="node3" class="node">
<title>11</title>
<polygon fill="#f2f2f2" stroke="black" points="593.7,-174.5 593.7,-232.9 1053.27,-232.9 1053.27,-174.5 593.7,-174.5"/>
<text text-anchor="middle" x="823.49" y="-216.3" font-family="Times,serif" font-size="14.00">&lt;&lt;Abstract&gt;&gt;</text>
<text text-anchor="middle" x="823.49" y="-199.5" font-family="Times,serif" font-size="14.00">ContextUpgradeable</text>
<text text-anchor="middle" x="823.49" y="-182.7" font-family="Times,serif" font-size="14.00">lib/openzeppelin&#45;contracts&#45;upgradeable/contracts/utils/ContextUpgradeable.sol</text>
</g>
<!-- 4&#45;&gt;11 -->
<g id="edge2" class="edge">
<title>4&#45;&gt;11</title>
<path fill="none" stroke="black" d="M820.7,-137.58C820.79,-139.66 820.88,-141.8 820.97,-143.98"/>
<polygon fill="none" stroke="black" points="810.49,-144.67 822.27,-174.2 831.47,-143.78 810.49,-144.67"/>
</g>
<!-- 11&#45;&gt;5 -->
<g id="edge3" class="edge">
<title>11&#45;&gt;5</title>
<path fill="none" stroke="black" d="M784.43,-232.98C776.17,-238.96 767.25,-245.42 758.34,-251.86"/>
<polygon fill="none" stroke="black" points="751.99,-243.5 733.85,-269.6 764.31,-260.51 751.99,-243.5"/>
</g>
<!-- 0 -->
<g id="node4" class="node">
<title>0</title>
<polygon fill="#f2f2f2" stroke="black" points="182.67,-0.5 182.67,-42.1 432.3,-42.1 432.3,-0.5 182.67,-0.5"/>
<text text-anchor="middle" x="307.49" y="-25.5" font-family="Times,serif" font-size="14.00">DelegationManager</text>
<text text-anchor="middle" x="307.49" y="-8.7" font-family="Times,serif" font-size="14.00">src/contracts/core/DelegationManager.sol</text>
</g>
<!-- 0&#45;&gt;4 -->
<g id="edge5" class="edge">
<title>0&#45;&gt;4</title>
<path fill="none" stroke="black" d="M426.88,-42.12C484.15,-51.63 554.32,-63.28 619.42,-74.09"/>
<polygon fill="none" stroke="black" points="618.08,-84.51 649.4,-79.06 621.52,-63.79 618.08,-84.51"/>
</g>
<!-- 0&#45;&gt;5 -->
<g id="edge4" class="edge">
<title>0&#45;&gt;5</title>
<path fill="none" stroke="black" d="M182.34,-30.47C112.17,-37.94 34.42,-52.08 12.49,-78.6 -4.34,-98.94 -3.91,-117.31 12.49,-138 66.07,-205.62 269.76,-247.47 440.7,-271.34"/>
<polygon fill="none" stroke="black" points="439.42,-281.76 470.55,-275.37 442.23,-260.95 439.42,-281.76"/>
</g>
<!-- 8 -->
<g id="node5" class="node">
<title>8</title>
<polygon fill="#f2f2f2" stroke="black" points="21.29,-79.1 21.29,-137.5 313.68,-137.5 313.68,-79.1 21.29,-79.1"/>
<text text-anchor="middle" x="167.49" y="-120.9" font-family="Times,serif" font-size="14.00">&lt;&lt;Abstract&gt;&gt;</text>
<text text-anchor="middle" x="167.49" y="-104.1" font-family="Times,serif" font-size="14.00">DelegationManagerStorage</text>
<text text-anchor="middle" x="167.49" y="-87.3" font-family="Times,serif" font-size="14.00">src/contracts/core/DelegationManagerStorage.sol</text>
</g>
<!-- 0&#45;&gt;8 -->
<g id="edge7" class="edge">
<title>0&#45;&gt;8</title>
<path fill="none" stroke="black" d="M274.66,-42.23C264.24,-48.55 252.27,-55.82 240.2,-63.15"/>
<polygon fill="none" stroke="black" points="234.35,-54.42 214.15,-78.97 245.24,-72.37 234.35,-54.42"/>
</g>
<!-- 9 -->
<g id="node7" class="node">
<title>9</title>
<polygon fill="#f2f2f2" stroke="black" points="331.98,-87.5 331.98,-129.1 562.99,-129.1 562.99,-87.5 331.98,-87.5"/>
<text text-anchor="middle" x="447.49" y="-112.5" font-family="Times,serif" font-size="14.00">Pausable</text>
<text text-anchor="middle" x="447.49" y="-95.7" font-family="Times,serif" font-size="14.00">src/contracts/permissions/Pausable.sol</text>
</g>
<!-- 0&#45;&gt;9 -->
<g id="edge6" class="edge">
<title>0&#45;&gt;9</title>
<path fill="none" stroke="black" d="M340.31,-42.23C354.88,-51.07 372.47,-61.76 389.16,-71.89"/>
<polygon fill="none" stroke="black" points="383.77,-80.9 414.87,-87.5 394.67,-62.95 383.77,-80.9"/>
</g>
<!-- 10 -->
<g id="node6" class="node">
<title>10</title>
<polygon fill="#f2f2f2" stroke="black" points="729.65,-0.5 729.65,-42.1 909.32,-42.1 909.32,-0.5 729.65,-0.5"/>
<text text-anchor="middle" x="819.49" y="-25.5" font-family="Times,serif" font-size="14.00">Slasher</text>
<text text-anchor="middle" x="819.49" y="-8.7" font-family="Times,serif" font-size="14.00">src/contracts/core/Slasher.sol</text>
</g>
<!-- 10&#45;&gt;4 -->
<g id="edge9" class="edge">
<title>10&#45;&gt;4</title>
<path fill="none" stroke="black" d="M819.49,-42.44C819.49,-44.49 819.49,-46.63 819.49,-48.83"/>
<polygon fill="none" stroke="black" points="808.99,-48.94 819.49,-78.94 829.99,-48.94 808.99,-48.94"/>
</g>
<!-- 10&#45;&gt;5 -->
<g id="edge8" class="edge">
<title>10&#45;&gt;5</title>
<path fill="none" stroke="black" d="M909.62,-31.02C972.19,-39.15 1047.72,-53.84 1067.49,-78.6 1080.85,-95.33 1075.92,-218.22 1062.49,-233.4 1044.76,-253.43 1000.25,-267.27 948.07,-276.83"/>
<polygon fill="none" stroke="black" points="946.3,-266.48 918.41,-281.71 949.71,-287.2 946.3,-266.48"/>
</g>
<!-- 10&#45;&gt;9 -->
<g id="edge10" class="edge">
<title>10&#45;&gt;9</title>
<path fill="none" stroke="black" d="M731.66,-42.14C684.22,-52.89 624.63,-66.42 571.49,-78.6 568.46,-79.29 565.39,-80 562.3,-80.71"/>
<polygon fill="none" stroke="black" points="559.73,-70.52 532.86,-87.49 564.45,-90.99 559.73,-70.52"/>
</g>
</g>
</svg>
