<?xml version="1.0" encoding="UTF-8" standalone="no"?>
<!DOCTYPE svg PUBLIC "-//W3C//DTD SVG 1.1//EN"
 "http://www.w3.org/Graphics/SVG/1.1/DTD/svg11.dtd">
<!-- Generated by graphviz version 5.0.0 (20220707.1540)
 -->
<!-- Title: StorageDiagram Pages: 1 -->
<svg width="1795pt" height="596pt"
 viewBox="0.00 0.00 1795.07 596.20" xmlns="http://www.w3.org/2000/svg" xmlns:xlink="http://www.w3.org/1999/xlink">
<g id="graph0" class="graph" transform="scale(1 1) rotate(0) translate(4 592.2)">
<title>StorageDiagram</title>
<polygon fill="white" stroke="transparent" points="-4,4 -4,-592.2 1791.07,-592.2 1791.07,4 -4,4"/>
<!-- 2 -->
<g id="node1" class="node">
<title>2</title>
<polygon fill="#f2f2f2" stroke="black" points="0,-0.5 0,-587.7 939.35,-587.7 939.35,-0.5 0,-0.5"/>
<text text-anchor="middle" x="469.67" y="-571.1" font-family="Courier New" font-size="14.00">DelegationManager &lt;&lt;Contract&gt;&gt;</text>
<text text-anchor="middle" x="469.67" y="-554.3" font-family="Courier New" font-size="14.00">0x83f8F8f0BB125F7870F6bfCf76853f874C330D76</text>
<polyline fill="none" stroke="black" points="0,-546.1 939.35,-546.1 "/>
<text text-anchor="middle" x="37.4" y="-529.5" font-family="Courier New" font-size="14.00">slot</text>
<polyline fill="none" stroke="black" points="0,-521.3 74.81,-521.3 "/>
<text text-anchor="middle" x="37.4" y="-504.7" font-family="Courier New" font-size="14.00">0</text>
<polyline fill="none" stroke="black" points="0,-496.5 74.81,-496.5 "/>
<text text-anchor="middle" x="37.4" y="-479.9" font-family="Courier New" font-size="14.00">1&#45;50</text>
<polyline fill="none" stroke="black" points="0,-471.7 74.81,-471.7 "/>
<text text-anchor="middle" x="37.4" y="-455.1" font-family="Courier New" font-size="14.00">51</text>
<polyline fill="none" stroke="black" points="0,-446.9 74.81,-446.9 "/>
<text text-anchor="middle" x="37.4" y="-430.3" font-family="Courier New" font-size="14.00">52&#45;100</text>
<polyline fill="none" stroke="black" points="0,-422.1 74.81,-422.1 "/>
<text text-anchor="middle" x="37.4" y="-405.5" font-family="Courier New" font-size="14.00">101</text>
<polyline fill="none" stroke="black" points="0,-397.3 74.81,-397.3 "/>
<text text-anchor="middle" x="37.4" y="-380.7" font-family="Courier New" font-size="14.00">102</text>
<polyline fill="none" stroke="black" points="0,-372.5 74.81,-372.5 "/>
<text text-anchor="middle" x="37.4" y="-355.9" font-family="Courier New" font-size="14.00">103&#45;150</text>
<polyline fill="none" stroke="black" points="0,-347.7 74.81,-347.7 "/>
<text text-anchor="middle" x="37.4" y="-331.1" font-family="Courier New" font-size="14.00">151</text>
<polyline fill="none" stroke="black" points="0,-322.9 74.81,-322.9 "/>
<text text-anchor="middle" x="37.4" y="-306.3" font-family="Courier New" font-size="14.00">152</text>
<polyline fill="none" stroke="black" points="0,-298.1 74.81,-298.1 "/>
<text text-anchor="middle" x="37.4" y="-281.5" font-family="Courier New" font-size="14.00">153</text>
<polyline fill="none" stroke="black" points="0,-273.3 74.81,-273.3 "/>
<text text-anchor="middle" x="37.4" y="-256.7" font-family="Courier New" font-size="14.00">154</text>
<polyline fill="none" stroke="black" points="0,-248.5 74.81,-248.5 "/>
<text text-anchor="middle" x="37.4" y="-231.9" font-family="Courier New" font-size="14.00">155</text>
<polyline fill="none" stroke="black" points="0,-223.7 74.81,-223.7 "/>
<text text-anchor="middle" x="37.4" y="-207.1" font-family="Courier New" font-size="14.00">156</text>
<polyline fill="none" stroke="black" points="0,-198.9 74.81,-198.9 "/>
<text text-anchor="middle" x="37.4" y="-182.3" font-family="Courier New" font-size="14.00">157</text>
<polyline fill="none" stroke="black" points="0,-174.1 74.81,-174.1 "/>
<text text-anchor="middle" x="37.4" y="-157.5" font-family="Courier New" font-size="14.00">158</text>
<polyline fill="none" stroke="black" points="0,-149.3 74.81,-149.3 "/>
<text text-anchor="middle" x="37.4" y="-132.7" font-family="Courier New" font-size="14.00">159</text>
<polyline fill="none" stroke="black" points="0,-124.5 74.81,-124.5 "/>
<text text-anchor="middle" x="37.4" y="-107.9" font-family="Courier New" font-size="14.00">160</text>
<polyline fill="none" stroke="black" points="0,-99.7 74.81,-99.7 "/>
<text text-anchor="middle" x="37.4" y="-83.1" font-family="Courier New" font-size="14.00">161</text>
<polyline fill="none" stroke="black" points="0,-74.9 74.81,-74.9 "/>
<text text-anchor="middle" x="37.4" y="-58.3" font-family="Courier New" font-size="14.00">162&#45;200</text>
<polyline fill="none" stroke="black" points="0,-50.1 74.81,-50.1 "/>
<text text-anchor="middle" x="37.4" y="-33.5" font-family="Courier New" font-size="14.00">201</text>
<polyline fill="none" stroke="black" points="0,-25.3 74.81,-25.3 "/>
<text text-anchor="middle" x="37.4" y="-8.7" font-family="Courier New" font-size="14.00">202&#45;250</text>
<polyline fill="none" stroke="black" points="74.81,-0.5 74.81,-546.1 "/>
<text text-anchor="middle" x="507.08" y="-529.5" font-family="Courier New" font-size="14.00">type: &lt;inherited contract&gt;.variable (bytes)</text>
<polyline fill="none" stroke="black" points="74.81,-521.3 939.35,-521.3 "/>
<text text-anchor="middle" x="160.02" y="-504.7" font-family="Courier New" font-size="14.00">unallocated (30)</text>
<polyline fill="none" stroke="black" points="245.23,-496.5 245.23,-521.3 "/>
<text text-anchor="middle" x="418.66" y="-504.7" font-family="Courier New" font-size="14.00">bool: Initializable._initializing (1)</text>
<polyline fill="none" stroke="black" points="592.08,-496.5 592.08,-521.3 "/>
<text text-anchor="middle" x="765.51" y="-504.7" font-family="Courier New" font-size="14.00">uint8: Initializable._initialized (1)</text>
<polyline fill="none" stroke="black" points="74.81,-496.5 939.35,-496.5 "/>
<text text-anchor="middle" x="506.64" y="-479.9" font-family="Courier New" font-size="14.00">uint256[50]: ContextUpgradeable.__gap (1600)</text>
<polyline fill="none" stroke="black" points="74.81,-471.7 939.35,-471.7 "/>
<text text-anchor="middle" x="242.52" y="-455.1" font-family="Courier New" font-size="14.00">unallocated (12)</text>
<polyline fill="none" stroke="black" points="410.23,-446.9 410.23,-471.7 "/>
<text text-anchor="middle" x="674.56" y="-455.1" font-family="Courier New" font-size="14.00">address: OwnableUpgradeable._owner (20)</text>
<polyline fill="none" stroke="black" points="74.81,-446.9 939.35,-446.9 "/>
<text text-anchor="middle" x="506.64" y="-430.3" font-family="Courier New" font-size="14.00">uint256[49]: OwnableUpgradeable.__gap (1568)</text>
<polyline fill="none" stroke="black" points="74.81,-422.1 939.35,-422.1 "/>
<text text-anchor="middle" x="230.02" y="-405.5" font-family="Courier New" font-size="14.00">unallocated (12)</text>
<polyline fill="none" stroke="black" points="385.23,-397.3 385.23,-422.1 "/>
<text text-anchor="middle" x="662.26" y="-405.5" font-family="Courier New" font-size="14.00">IPauserRegistry: Pausable.pauserRegistry (20)</text>
<polyline fill="none" stroke="black" points="74.81,-397.3 939.35,-397.3 "/>
<text text-anchor="middle" x="506.83" y="-380.7" font-family="Courier New" font-size="14.00">uint256: Pausable._paused (32)</text>
<polyline fill="none" stroke="black" points="74.81,-372.5 939.35,-372.5 "/>
<text text-anchor="middle" x="506.63" y="-355.9" font-family="Courier New" font-size="14.00">uint256[48]: Pausable.__gap (1536)</text>
<polyline fill="none" stroke="black" points="74.81,-347.7 939.35,-347.7 "/>
<text text-anchor="middle" x="507.05" y="-331.1" font-family="Courier New" font-size="14.00">bytes32: DelegationManagerStorage._DOMAIN_SEPARATOR (32)</text>
<polyline fill="none" stroke="black" points="74.81,-322.9 939.35,-322.9 "/>
<text text-anchor="middle" x="507.07" y="-306.3" font-family="Courier New" font-size="14.00">mapping(address=&gt;mapping(IStrategy=&gt;uint256)): DelegationManagerStorage.operatorShares (32)</text>
<polyline fill="none" stroke="black" points="74.81,-298.1 939.35,-298.1 "/>
<text text-anchor="middle" x="507.06" y="-281.5" font-family="Courier New" font-size="14.00">mapping(address=&gt;OperatorDetails): DelegationManagerStorage._operatorDetails (32)</text>
<polyline fill="none" stroke="black" points="74.81,-273.3 939.35,-273.3 "/>
<text text-anchor="middle" x="506.96" y="-256.7" font-family="Courier New" font-size="14.00">mapping(address=&gt;address): DelegationManagerStorage.delegatedTo (32)</text>
<polyline fill="none" stroke="black" points="74.81,-248.5 939.35,-248.5 "/>
<text text-anchor="middle" x="506.96" y="-231.9" font-family="Courier New" font-size="14.00">mapping(address=&gt;uint256): DelegationManagerStorage.stakerNonce (32)</text>
<polyline fill="none" stroke="black" points="74.81,-223.7 939.35,-223.7 "/>
<text text-anchor="middle" x="507.08" y="-207.1" font-family="Courier New" font-size="14.00">mapping(address=&gt;mapping(bytes32=&gt;bool)): DelegationManagerStorage.delegationApproverSaltIsSpent (32)</text>
<polyline fill="none" stroke="black" points="74.81,-198.9 939.35,-198.9 "/>
<text text-anchor="middle" x="506.95" y="-182.3" font-family="Courier New" font-size="14.00">uint256: DelegationManagerStorage.minWithdrawalDelayBlocks (32)</text>
<polyline fill="none" stroke="black" points="74.81,-174.1 939.35,-174.1 "/>
<text text-anchor="middle" x="506.76" y="-157.5" font-family="Courier New" font-size="14.00">mapping(bytes32=&gt;bool): DelegationManagerStorage.pendingWithdrawals (32)</text>
<polyline fill="none" stroke="black" points="74.81,-149.3 939.35,-149.3 "/>
<text text-anchor="middle" x="506.67" y="-132.7" font-family="Courier New" font-size="14.00">mapping(address=&gt;uint256): DelegationManagerStorage.cumulativeWithdrawalsQueued (32)</text>
<polyline fill="none" stroke="black" points="74.81,-124.5 939.35,-124.5 "/>
<text text-anchor="middle" x="188.02" y="-107.9" font-family="Courier New" font-size="14.00">unallocated (12)</text>
<polyline fill="none" stroke="black" points="301.23,-99.7 301.23,-124.5 "/>
<text text-anchor="middle" x="620.28" y="-107.9" font-family="Courier New" font-size="14.00">address: DelegationManagerStorage.__deprecated_stakeRegistry (20)</text>
<polyline fill="none" stroke="black" points="74.81,-99.7 939.35,-99.7 "/>
<text text-anchor="middle" x="506.97" y="-83.1" font-family="Courier New" font-size="14.00">mapping(IStrategy=&gt;uint256): DelegationManagerStorage.strategyWithdrawalDelayBlocks (32)</text>
<polyline fill="none" stroke="black" points="74.81,-74.9 939.35,-74.9 "/>
<text text-anchor="middle" x="506.84" y="-58.3" font-family="Courier New" font-size="14.00">uint256[39]: DelegationManagerStorage.__gap (1248)</text>
<polyline fill="none" stroke="black" points="74.81,-50.1 939.35,-50.1 "/>
<text text-anchor="middle" x="506.94" y="-33.5" font-family="Courier New" font-size="14.00">uint256: ReentrancyGuardUpgradeable._status (32)</text>
<polyline fill="none" stroke="black" points="74.81,-25.3 939.35,-25.3 "/>
<text text-anchor="middle" x="506.75" y="-8.7" font-family="Courier New" font-size="14.00">uint256[49]: ReentrancyGuardUpgradeable.__gap (1568)</text>
</g>
<!-- 1 -->
<g id="node2" class="node">
<title>1</title>
<polygon fill="#f2f2f2" stroke="black" points="975.35,-236.5 975.35,-335.7 1787.07,-335.7 1787.07,-236.5 975.35,-236.5"/>
<text text-anchor="middle" x="1381.21" y="-319.1" font-family="Courier New" font-size="14.00">OperatorDetails &lt;&lt;Struct&gt;&gt;</text>
<polyline fill="none" stroke="black" points="975.35,-310.9 1787.07,-310.9 "/>
<text text-anchor="middle" x="1008.55" y="-294.3" font-family="Courier New" font-size="14.00">offset</text>
<polyline fill="none" stroke="black" points="975.35,-286.1 1041.76,-286.1 "/>
<text text-anchor="middle" x="1008.55" y="-269.5" font-family="Courier New" font-size="14.00">0</text>
<polyline fill="none" stroke="black" points="975.35,-261.3 1041.76,-261.3 "/>
<text text-anchor="middle" x="1008.55" y="-244.7" font-family="Courier New" font-size="14.00">1</text>
<polyline fill="none" stroke="black" points="1041.76,-236.5 1041.76,-310.9 "/>
<text text-anchor="middle" x="1414.41" y="-294.3" font-family="Courier New" font-size="14.00">type: variable (bytes)</text>
<polyline fill="none" stroke="black" points="1041.76,-286.1 1787.07,-286.1 "/>
<text text-anchor="middle" x="1198.47" y="-269.5" font-family="Courier New" font-size="14.00">unallocated (12)</text>
<polyline fill="none" stroke="black" points="1355.18,-261.3 1355.18,-286.1 "/>
<text text-anchor="middle" x="1570.7" y="-269.5" font-family="Courier New" font-size="14.00">address: earningsReceiver (20)</text>
<polyline fill="none" stroke="black" points="1041.76,-261.3 1787.07,-261.3 "/>
<text text-anchor="middle" x="1112.77" y="-244.7" font-family="Courier New" font-size="14.00">unallocated (8)</text>
<polyline fill="none" stroke="black" points="1183.78,-236.5 1183.78,-261.3 "/>
<text text-anchor="middle" x="1343" y="-244.7" font-family="Courier New" font-size="14.00">uint32: stakerOptOutWindowBlocks (4)</text>
<polyline fill="none" stroke="black" points="1502.23,-236.5 1502.23,-261.3 "/>
<text text-anchor="middle" x="1644.65" y="-244.7" font-family="Courier New" font-size="14.00">address: delegationApprover (20)</text>
</g>
<!-- 2&#45;&gt;1 -->
<g id="edge1" class="edge">
<title>2:14&#45;&gt;1</title>
<path fill="none" stroke="black" d="M939.35,-286.1C947.81,-286.1 956.36,-286.1 964.97,-286.1"/>
<polygon fill="black" stroke="black" points="965.12,-289.6 975.12,-286.1 965.12,-282.6 965.12,-289.6"/>
</g>
</g>
</svg>
