<?xml version="1.0" encoding="UTF-8" standalone="no"?>
<!DOCTYPE svg PUBLIC "-//W3C//DTD SVG 1.1//EN"
 "http://www.w3.org/Graphics/SVG/1.1/DTD/svg11.dtd">
<!-- Generated by graphviz version 5.0.0 (20220707.1540)
 -->
<!-- Title: StorageDiagram Pages: 1 -->
<svg width="2449pt" height="914pt"
 viewBox="0.00 0.00 2448.77 913.80" xmlns="http://www.w3.org/2000/svg" xmlns:xlink="http://www.w3.org/1999/xlink">
<g id="graph0" class="graph" transform="scale(1 1) rotate(0) translate(4 909.8)">
<title>StorageDiagram</title>
<polygon fill="white" stroke="transparent" points="-4,4 -4,-909.8 2444.77,-909.8 2444.77,4 -4,4"/>
<!-- 2 -->
<g id="node1" class="node">
<title>2</title>
<polygon fill="#f2f2f2" stroke="black" points="0,-0.5 0,-905.3 1535.04,-905.3 1535.04,-0.5 0,-0.5"/>
<text text-anchor="middle" x="767.52" y="-888.7" font-family="Courier New" font-size="14.00">DelegationManager &lt;&lt;Contract&gt;&gt;</text>
<text text-anchor="middle" x="767.52" y="-871.9" font-family="Courier New" font-size="14.00">0x83f8F8f0BB125F7870F6bfCf76853f874C330D76</text>
<polyline fill="none" stroke="black" points="0,-863.7 1535.04,-863.7 "/>
<text text-anchor="middle" x="50.01" y="-847.1" font-family="Courier New" font-size="14.00">slot</text>
<text text-anchor="middle" x="50.01" y="-830.3" font-family="Courier New" font-size="14.00"> &#160;</text>
<polyline fill="none" stroke="black" points="0,-822.1 100.01,-822.1 "/>
<text text-anchor="middle" x="50.01" y="-805.5" font-family="Courier New" font-size="14.00">0</text>
<text text-anchor="middle" x="50.01" y="-788.7" font-family="Courier New" font-size="14.00"> &#160;</text>
<polyline fill="none" stroke="black" points="0,-780.5 100.01,-780.5 "/>
<text text-anchor="middle" x="50.01" y="-763.9" font-family="Courier New" font-size="14.00">1&#45;50 </text>
<polyline fill="none" stroke="black" points="0,-755.7 100.01,-755.7 "/>
<text text-anchor="middle" x="50.01" y="-739.1" font-family="Courier New" font-size="14.00">51</text>
<text text-anchor="middle" x="50.01" y="-722.3" font-family="Courier New" font-size="14.00"> &#160;</text>
<polyline fill="none" stroke="black" points="0,-714.1 100.01,-714.1 "/>
<text text-anchor="middle" x="50.01" y="-697.5" font-family="Courier New" font-size="14.00">52&#45;100 </text>
<polyline fill="none" stroke="black" points="0,-689.3 100.01,-689.3 "/>
<text text-anchor="middle" x="50.01" y="-672.7" font-family="Courier New" font-size="14.00">101</text>
<text text-anchor="middle" x="50.01" y="-655.9" font-family="Courier New" font-size="14.00"> &#160;</text>
<polyline fill="none" stroke="black" points="0,-647.7 100.01,-647.7 "/>
<text text-anchor="middle" x="50.01" y="-631.1" font-family="Courier New" font-size="14.00">102</text>
<text text-anchor="middle" x="50.01" y="-614.3" font-family="Courier New" font-size="14.00"> &#160;</text>
<polyline fill="none" stroke="black" points="0,-606.1 100.01,-606.1 "/>
<text text-anchor="middle" x="50.01" y="-589.5" font-family="Courier New" font-size="14.00">103&#45;150 </text>
<polyline fill="none" stroke="black" points="0,-581.3 100.01,-581.3 "/>
<text text-anchor="middle" x="50.01" y="-564.7" font-family="Courier New" font-size="14.00">151</text>
<text text-anchor="middle" x="50.01" y="-547.9" font-family="Courier New" font-size="14.00"> &#160;</text>
<polyline fill="none" stroke="black" points="0,-539.7 100.01,-539.7 "/>
<text text-anchor="middle" x="50.01" y="-523.1" font-family="Courier New" font-size="14.00">152 </text>
<polyline fill="none" stroke="black" points="0,-514.9 100.01,-514.9 "/>
<text text-anchor="middle" x="50.01" y="-498.3" font-family="Courier New" font-size="14.00">153 </text>
<polyline fill="none" stroke="black" points="0,-490.1 100.01,-490.1 "/>
<text text-anchor="middle" x="50.01" y="-473.5" font-family="Courier New" font-size="14.00">154 </text>
<polyline fill="none" stroke="black" points="0,-465.3 100.01,-465.3 "/>
<text text-anchor="middle" x="50.01" y="-448.7" font-family="Courier New" font-size="14.00">155 </text>
<polyline fill="none" stroke="black" points="0,-440.5 100.01,-440.5 "/>
<text text-anchor="middle" x="50.01" y="-423.9" font-family="Courier New" font-size="14.00">156 </text>
<polyline fill="none" stroke="black" points="0,-415.7 100.01,-415.7 "/>
<text text-anchor="middle" x="50.01" y="-399.1" font-family="Courier New" font-size="14.00">157</text>
<text text-anchor="middle" x="50.01" y="-382.3" font-family="Courier New" font-size="14.00"> &#160;</text>
<polyline fill="none" stroke="black" points="0,-374.1 100.01,-374.1 "/>
<text text-anchor="middle" x="50.01" y="-357.5" font-family="Courier New" font-size="14.00">158 </text>
<polyline fill="none" stroke="black" points="0,-349.3 100.01,-349.3 "/>
<text text-anchor="middle" x="50.01" y="-332.7" font-family="Courier New" font-size="14.00">159 </text>
<polyline fill="none" stroke="black" points="0,-324.5 100.01,-324.5 "/>
<text text-anchor="middle" x="50.01" y="-307.9" font-family="Courier New" font-size="14.00">160</text>
<text text-anchor="middle" x="50.01" y="-291.1" font-family="Courier New" font-size="14.00"> &#160;</text>
<polyline fill="none" stroke="black" points="0,-282.9 100.01,-282.9 "/>
<text text-anchor="middle" x="50.01" y="-266.3" font-family="Courier New" font-size="14.00">161 </text>
<polyline fill="none" stroke="black" points="0,-258.1 100.01,-258.1 "/>
<text text-anchor="middle" x="50.01" y="-241.5" font-family="Courier New" font-size="14.00">162&#45;200 </text>
<polyline fill="none" stroke="black" points="0,-233.3 100.01,-233.3 "/>
<text text-anchor="middle" x="50.01" y="-216.7" font-family="Courier New" font-size="14.00">201</text>
<text text-anchor="middle" x="50.01" y="-199.9" font-family="Courier New" font-size="14.00"> &#160;</text>
<polyline fill="none" stroke="black" points="0,-191.7 100.01,-191.7 "/>
<text text-anchor="middle" x="50.01" y="-175.1" font-family="Courier New" font-size="14.00">202&#45;250 </text>
<polyline fill="none" stroke="black" points="0,-166.9 100.01,-166.9 "/>
<text text-anchor="middle" x="50.01" y="-150.3" font-family="Courier New" font-size="14.00">0x360..bbc</text>
<text text-anchor="middle" x="50.01" y="-133.5" font-family="Courier New" font-size="14.00"> &#160;</text>
<polyline fill="none" stroke="black" points="0,-125.3 100.01,-125.3 "/>
<text text-anchor="middle" x="50.01" y="-108.7" font-family="Courier New" font-size="14.00">0x491..143</text>
<text text-anchor="middle" x="50.01" y="-91.9" font-family="Courier New" font-size="14.00"> &#160;</text>
<polyline fill="none" stroke="black" points="0,-83.7 100.01,-83.7 "/>
<text text-anchor="middle" x="50.01" y="-67.1" font-family="Courier New" font-size="14.00">0xa3f..d50</text>
<text text-anchor="middle" x="50.01" y="-50.3" font-family="Courier New" font-size="14.00"> &#160;</text>
<polyline fill="none" stroke="black" points="0,-42.1 100.01,-42.1 "/>
<text text-anchor="middle" x="50.01" y="-25.5" font-family="Courier New" font-size="14.00">0xb53..103</text>
<text text-anchor="middle" x="50.01" y="-8.7" font-family="Courier New" font-size="14.00"> </text>
<polyline fill="none" stroke="black" points="100.01,-0.5 100.01,-863.7 "/>
<text text-anchor="middle" x="385.26" y="-847.1" font-family="Courier New" font-size="14.00">value</text>
<text text-anchor="middle" x="385.26" y="-830.3" font-family="Courier New" font-size="14.00"> &#160;</text>
<polyline fill="none" stroke="black" points="100.01,-822.1 670.5,-822.1 "/>
<text text-anchor="middle" x="385.26" y="-805.5" font-family="Courier New" font-size="14.00">0x0000000000000000000000000000000000000000000000000000000000000001</text>
<text text-anchor="middle" x="385.26" y="-788.7" font-family="Courier New" font-size="14.00"> &#160;</text>
<polyline fill="none" stroke="black" points="100.01,-780.5 670.5,-780.5 "/>
<text text-anchor="middle" x="385.26" y="-763.9" font-family="Courier New" font-size="14.00"> </text>
<polyline fill="none" stroke="black" points="100.01,-755.7 670.5,-755.7 "/>
<text text-anchor="middle" x="385.26" y="-739.1" font-family="Courier New" font-size="14.00">0x00000000000000000000000028ADE60640FDBDB2609D8D8734D1B5CBEFC0C348</text>
<text text-anchor="middle" x="385.26" y="-722.3" font-family="Courier New" font-size="14.00"> &#160;</text>
<polyline fill="none" stroke="black" points="100.01,-714.1 670.5,-714.1 "/>
<text text-anchor="middle" x="385.26" y="-697.5" font-family="Courier New" font-size="14.00"> </text>
<polyline fill="none" stroke="black" points="100.01,-689.3 670.5,-689.3 "/>
<text text-anchor="middle" x="385.26" y="-672.7" font-family="Courier New" font-size="14.00">0x00000000000000000000000085EF7299F8311B25642679EDBF02B62FA2212F06</text>
<text text-anchor="middle" x="385.26" y="-655.9" font-family="Courier New" font-size="14.00"> &#160;</text>
<polyline fill="none" stroke="black" points="100.01,-647.7 670.5,-647.7 "/>
<text text-anchor="middle" x="385.26" y="-631.1" font-family="Courier New" font-size="14.00">0x0000000000000000000000000000000000000000000000000000000000000000</text>
<text text-anchor="middle" x="385.26" y="-614.3" font-family="Courier New" font-size="14.00"> &#160;</text>
<polyline fill="none" stroke="black" points="100.01,-606.1 670.5,-606.1 "/>
<text text-anchor="middle" x="385.26" y="-589.5" font-family="Courier New" font-size="14.00"> </text>
<polyline fill="none" stroke="black" points="100.01,-581.3 670.5,-581.3 "/>
<text text-anchor="middle" x="385.26" y="-564.7" font-family="Courier New" font-size="14.00">0xC1B91EDC8C554AEB8F47BBAD79933CF667B917A5D1323A3BF89DCB26034C7286</text>
<text text-anchor="middle" x="385.26" y="-547.9" font-family="Courier New" font-size="14.00"> &#160;</text>
<polyline fill="none" stroke="black" points="100.01,-539.7 670.5,-539.7 "/>
<text text-anchor="middle" x="385.26" y="-523.1" font-family="Courier New" font-size="14.00"> </text>
<polyline fill="none" stroke="black" points="100.01,-514.9 670.5,-514.9 "/>
<text text-anchor="middle" x="385.26" y="-498.3" font-family="Courier New" font-size="14.00"> </text>
<polyline fill="none" stroke="black" points="100.01,-490.1 670.5,-490.1 "/>
<text text-anchor="middle" x="385.26" y="-473.5" font-family="Courier New" font-size="14.00"> </text>
<polyline fill="none" stroke="black" points="100.01,-465.3 670.5,-465.3 "/>
<text text-anchor="middle" x="385.26" y="-448.7" font-family="Courier New" font-size="14.00"> </text>
<polyline fill="none" stroke="black" points="100.01,-440.5 670.5,-440.5 "/>
<text text-anchor="middle" x="385.26" y="-423.9" font-family="Courier New" font-size="14.00"> </text>
<polyline fill="none" stroke="black" points="100.01,-415.7 670.5,-415.7 "/>
<text text-anchor="middle" x="385.26" y="-399.1" font-family="Courier New" font-size="14.00">0x000000000000000000000000000000000000000000000000000000000000000A</text>
<text text-anchor="middle" x="385.26" y="-382.3" font-family="Courier New" font-size="14.00"> &#160;</text>
<polyline fill="none" stroke="black" points="100.01,-374.1 670.5,-374.1 "/>
<text text-anchor="middle" x="385.26" y="-357.5" font-family="Courier New" font-size="14.00"> </text>
<polyline fill="none" stroke="black" points="100.01,-349.3 670.5,-349.3 "/>
<text text-anchor="middle" x="385.26" y="-332.7" font-family="Courier New" font-size="14.00"> </text>
<polyline fill="none" stroke="black" points="100.01,-324.5 670.5,-324.5 "/>
<text text-anchor="middle" x="385.26" y="-307.9" font-family="Courier New" font-size="14.00">0x0000000000000000000000000000000000000000000000000000000000000000</text>
<text text-anchor="middle" x="385.26" y="-291.1" font-family="Courier New" font-size="14.00"> &#160;</text>
<polyline fill="none" stroke="black" points="100.01,-282.9 670.5,-282.9 "/>
<text text-anchor="middle" x="385.26" y="-266.3" font-family="Courier New" font-size="14.00"> </text>
<polyline fill="none" stroke="black" points="100.01,-258.1 670.5,-258.1 "/>
<text text-anchor="middle" x="385.26" y="-241.5" font-family="Courier New" font-size="14.00"> </text>
<polyline fill="none" stroke="black" points="100.01,-233.3 670.5,-233.3 "/>
<text text-anchor="middle" x="385.26" y="-216.7" font-family="Courier New" font-size="14.00">0x0000000000000000000000000000000000000000000000000000000000000001</text>
<text text-anchor="middle" x="385.26" y="-199.9" font-family="Courier New" font-size="14.00"> &#160;</text>
<polyline fill="none" stroke="black" points="100.01,-191.7 670.5,-191.7 "/>
<text text-anchor="middle" x="385.26" y="-175.1" font-family="Courier New" font-size="14.00"> </text>
<polyline fill="none" stroke="black" points="100.01,-166.9 670.5,-166.9 "/>
<text text-anchor="middle" x="385.26" y="-150.3" font-family="Courier New" font-size="14.00">0x00000000000000000000000083F8F8F0BB125F7870F6BFCF76853F874C330D76</text>
<text text-anchor="middle" x="385.26" y="-133.5" font-family="Courier New" font-size="14.00"> &#160;</text>
<polyline fill="none" stroke="black" points="100.01,-125.3 670.5,-125.3 "/>
<text text-anchor="middle" x="385.26" y="-108.7" font-family="Courier New" font-size="14.00">0x0000000000000000000000000000000000000000000000000000000000000000</text>
<text text-anchor="middle" x="385.26" y="-91.9" font-family="Courier New" font-size="14.00"> &#160;</text>
<polyline fill="none" stroke="black" points="100.01,-83.7 670.5,-83.7 "/>
<text text-anchor="middle" x="385.26" y="-67.1" font-family="Courier New" font-size="14.00">0x0000000000000000000000000000000000000000000000000000000000000000</text>
<text text-anchor="middle" x="385.26" y="-50.3" font-family="Courier New" font-size="14.00"> &#160;</text>
<polyline fill="none" stroke="black" points="100.01,-42.1 670.5,-42.1 "/>
<text text-anchor="middle" x="385.26" y="-25.5" font-family="Courier New" font-size="14.00">0x000000000000000000000000DB023566064246399B4AE851197A97729C93A6CF</text>
<text text-anchor="middle" x="385.26" y="-8.7" font-family="Courier New" font-size="14.00"> </text>
<polyline fill="none" stroke="black" points="670.5,-0.5 670.5,-863.7 "/>
<text text-anchor="middle" x="1102.77" y="-847.1" font-family="Courier New" font-size="14.00">type: &lt;inherited contract&gt;.variable (bytes)</text>
<text text-anchor="middle" x="1102.77" y="-830.3" font-family="Courier New" font-size="14.00">decoded data</text>
<polyline fill="none" stroke="black" points="670.5,-822.1 1535.04,-822.1 "/>
<text text-anchor="middle" x="755.71" y="-797.1" font-family="Courier New" font-size="14.00">unallocated (30)</text>
<polyline fill="none" stroke="black" points="840.93,-780.5 840.93,-822.1 "/>
<text text-anchor="middle" x="1014.35" y="-805.5" font-family="Courier New" font-size="14.00">bool: Initializable._initializing (1)</text>
<text text-anchor="middle" x="1014.35" y="-788.7" font-family="Courier New" font-size="14.00"> false &#160;</text>
<polyline fill="none" stroke="black" points="1187.78,-780.5 1187.78,-822.1 "/>
<text text-anchor="middle" x="1361.2" y="-805.5" font-family="Courier New" font-size="14.00">uint8: Initializable._initialized (1)</text>
<text text-anchor="middle" x="1361.2" y="-788.7" font-family="Courier New" font-size="14.00"> 1 </text>
<polyline fill="none" stroke="black" points="670.5,-780.5 1535.04,-780.5 "/>
<text text-anchor="middle" x="1102.33" y="-763.9" font-family="Courier New" font-size="14.00">uint256[50]: ContextUpgradeable.__gap (1600)</text>
<polyline fill="none" stroke="black" points="670.5,-755.7 1535.04,-755.7 "/>
<text text-anchor="middle" x="827.71" y="-730.7" font-family="Courier New" font-size="14.00">unallocated (12)</text>
<polyline fill="none" stroke="black" points="984.93,-714.1 984.93,-755.7 "/>
<text text-anchor="middle" x="1259.76" y="-739.1" font-family="Courier New" font-size="14.00">address: OwnableUpgradeable._owner (20)</text>
<text text-anchor="middle" x="1259.76" y="-722.3" font-family="Courier New" font-size="14.00"> 0x28Ade60640fdBDb2609D8d8734D1b5cBeFc0C348 </text>
<polyline fill="none" stroke="black" points="670.5,-714.1 1535.04,-714.1 "/>
<text text-anchor="middle" x="1102.33" y="-697.5" font-family="Courier New" font-size="14.00">uint256[49]: OwnableUpgradeable.__gap (1568)</text>
<polyline fill="none" stroke="black" points="670.5,-689.3 1535.04,-689.3 "/>
<text text-anchor="middle" x="825.71" y="-664.3" font-family="Courier New" font-size="14.00">unallocated (12)</text>
<polyline fill="none" stroke="black" points="980.93,-647.7 980.93,-689.3 "/>
<text text-anchor="middle" x="1257.96" y="-672.7" font-family="Courier New" font-size="14.00">IPauserRegistry: Pausable.pauserRegistry (20)</text>
<text text-anchor="middle" x="1257.96" y="-655.9" font-family="Courier New" font-size="14.00"> 0x85Ef7299F8311B25642679edBF02B62FA2212F06 </text>
<polyline fill="none" stroke="black" points="670.5,-647.7 1535.04,-647.7 "/>
<text text-anchor="middle" x="1102.52" y="-631.1" font-family="Courier New" font-size="14.00">uint256: Pausable._paused (32)</text>
<text text-anchor="middle" x="1102.52" y="-614.3" font-family="Courier New" font-size="14.00"> 0 </text>
<polyline fill="none" stroke="black" points="670.5,-606.1 1535.04,-606.1 "/>
<text text-anchor="middle" x="1102.33" y="-589.5" font-family="Courier New" font-size="14.00">uint256[48]: Pausable.__gap (1536)</text>
<polyline fill="none" stroke="black" points="670.5,-581.3 1535.04,-581.3 "/>
<text text-anchor="middle" x="1102.65" y="-564.7" font-family="Courier New" font-size="14.00">bytes32: DelegationManagerStorage._DOMAIN_SEPARATOR (32)</text>
<text text-anchor="middle" x="1102.65" y="-547.9" font-family="Courier New" font-size="14.00"> 0xC1B91EDC8C554AEB8F47BBAD79933CF667B917A5D1323A3BF89DCB26034C7286 </text>
<polyline fill="none" stroke="black" points="670.5,-539.7 1535.04,-539.7 "/>
<text text-anchor="middle" x="1102.77" y="-523.1" font-family="Courier New" font-size="14.00">mapping(address=&gt;mapping(IStrategy=&gt;uint256)): DelegationManagerStorage.operatorShares (32)</text>
<polyline fill="none" stroke="black" points="670.5,-514.9 1535.04,-514.9 "/>
<text text-anchor="middle" x="1102.76" y="-498.3" font-family="Courier New" font-size="14.00">mapping(address=&gt;OperatorDetails): DelegationManagerStorage._operatorDetails (32)</text>
<polyline fill="none" stroke="black" points="670.5,-490.1 1535.04,-490.1 "/>
<text text-anchor="middle" x="1102.65" y="-473.5" font-family="Courier New" font-size="14.00">mapping(address=&gt;address): DelegationManagerStorage.delegatedTo (32)</text>
<polyline fill="none" stroke="black" points="670.5,-465.3 1535.04,-465.3 "/>
<text text-anchor="middle" x="1102.65" y="-448.7" font-family="Courier New" font-size="14.00">mapping(address=&gt;uint256): DelegationManagerStorage.stakerNonce (32)</text>
<polyline fill="none" stroke="black" points="670.5,-440.5 1535.04,-440.5 "/>
<text text-anchor="middle" x="1102.77" y="-423.9" font-family="Courier New" font-size="14.00">mapping(address=&gt;mapping(bytes32=&gt;bool)): DelegationManagerStorage.delegationApproverSaltIsSpent (32)</text>
<polyline fill="none" stroke="black" points="670.5,-415.7 1535.04,-415.7 "/>
<text text-anchor="middle" x="1102.65" y="-399.1" font-family="Courier New" font-size="14.00">uint256: DelegationManagerStorage.minWithdrawalDelayBlocks (32)</text>
<text text-anchor="middle" x="1102.65" y="-382.3" font-family="Courier New" font-size="14.00"> 10 </text>
<polyline fill="none" stroke="black" points="670.5,-374.1 1535.04,-374.1 "/>
<text text-anchor="middle" x="1102.45" y="-357.5" font-family="Courier New" font-size="14.00">mapping(bytes32=&gt;bool): DelegationManagerStorage.pendingWithdrawals (32)</text>
<polyline fill="none" stroke="black" points="670.5,-349.3 1535.04,-349.3 "/>
<text text-anchor="middle" x="1102.36" y="-332.7" font-family="Courier New" font-size="14.00">mapping(address=&gt;uint256): DelegationManagerStorage.cumulativeWithdrawalsQueued (32)</text>
<polyline fill="none" stroke="black" points="670.5,-324.5 1535.04,-324.5 "/>
<text text-anchor="middle" x="783.71" y="-299.5" font-family="Courier New" font-size="14.00">unallocated (12)</text>
<polyline fill="none" stroke="black" points="896.93,-282.9 896.93,-324.5 "/>
<text text-anchor="middle" x="1215.97" y="-307.9" font-family="Courier New" font-size="14.00">address: DelegationManagerStorage.__deprecated_stakeRegistry (20)</text>
<text text-anchor="middle" x="1215.97" y="-291.1" font-family="Courier New" font-size="14.00"> 0x0000000000000000000000000000000000000000 </text>
<polyline fill="none" stroke="black" points="670.5,-282.9 1535.04,-282.9 "/>
<text text-anchor="middle" x="1102.66" y="-266.3" font-family="Courier New" font-size="14.00">mapping(IStrategy=&gt;uint256): DelegationManagerStorage.strategyWithdrawalDelayBlocks (32)</text>
<polyline fill="none" stroke="black" points="670.5,-258.1 1535.04,-258.1 "/>
<text text-anchor="middle" x="1102.54" y="-241.5" font-family="Courier New" font-size="14.00">uint256[39]: DelegationManagerStorage.__gap (1248)</text>
<polyline fill="none" stroke="black" points="670.5,-233.3 1535.04,-233.3 "/>
<text text-anchor="middle" x="1102.64" y="-216.7" font-family="Courier New" font-size="14.00">uint256: ReentrancyGuardUpgradeable._status (32)</text>
<text text-anchor="middle" x="1102.64" y="-199.9" font-family="Courier New" font-size="14.00"> 1 </text>
<polyline fill="none" stroke="black" points="670.5,-191.7 1535.04,-191.7 "/>
<text text-anchor="middle" x="1102.44" y="-175.1" font-family="Courier New" font-size="14.00">uint256[49]: ReentrancyGuardUpgradeable.__gap (1568)</text>
<polyline fill="none" stroke="black" points="670.5,-166.9 1535.04,-166.9 "/>
<text text-anchor="middle" x="1102.65" y="-150.3" font-family="Courier New" font-size="14.00">bytes32 (32)</text>
<text text-anchor="middle" x="1102.65" y="-133.5" font-family="Courier New" font-size="14.00"> 0x00000000000000000000000083F8F8F0BB125F7870F6BFCF76853F874C330D76 </text>
<polyline fill="none" stroke="black" points="670.5,-125.3 1535.04,-125.3 "/>
<text text-anchor="middle" x="1102.65" y="-108.7" font-family="Courier New" font-size="14.00">bytes32 (32)</text>
<text text-anchor="middle" x="1102.65" y="-91.9" font-family="Courier New" font-size="14.00"> 0x0000000000000000000000000000000000000000000000000000000000000000 </text>
<polyline fill="none" stroke="black" points="670.5,-83.7 1535.04,-83.7 "/>
<text text-anchor="middle" x="1102.65" y="-67.1" font-family="Courier New" font-size="14.00">bytes32 (32)</text>
<text text-anchor="middle" x="1102.65" y="-50.3" font-family="Courier New" font-size="14.00"> 0x0000000000000000000000000000000000000000000000000000000000000000 </text>
<polyline fill="none" stroke="black" points="670.5,-42.1 1535.04,-42.1 "/>
<text text-anchor="middle" x="1102.65" y="-25.5" font-family="Courier New" font-size="14.00">bytes32 (32)</text>
<text text-anchor="middle" x="1102.65" y="-8.7" font-family="Courier New" font-size="14.00"> 0x000000000000000000000000DB023566064246399B4AE851197A97729C93A6CF </text>
</g>
<!-- 1 -->
<g id="node2" class="node">
<title>1</title>
<polygon fill="#f2f2f2" stroke="black" points="1571.04,-444.9 1571.04,-560.9 2440.77,-560.9 2440.77,-444.9 1571.04,-444.9"/>
<text text-anchor="middle" x="2005.91" y="-544.3" font-family="Courier New" font-size="14.00">OperatorDetails &lt;&lt;Struct&gt;&gt;</text>
<polyline fill="none" stroke="black" points="1571.04,-536.1 2440.77,-536.1 "/>
<text text-anchor="middle" x="1604.25" y="-519.5" font-family="Courier New" font-size="14.00">offset</text>
<text text-anchor="middle" x="1604.25" y="-502.7" font-family="Courier New" font-size="14.00"> &#160;</text>
<polyline fill="none" stroke="black" points="1571.04,-494.5 1637.45,-494.5 "/>
<text text-anchor="middle" x="1604.25" y="-477.9" font-family="Courier New" font-size="14.00">0 </text>
<polyline fill="none" stroke="black" points="1571.04,-469.7 1637.45,-469.7 "/>
<text text-anchor="middle" x="1604.25" y="-453.1" font-family="Courier New" font-size="14.00">1</text>
<polyline fill="none" stroke="black" points="1637.45,-444.9 1637.45,-536.1 "/>
<text text-anchor="middle" x="1666.45" y="-519.5" font-family="Courier New" font-size="14.00">value</text>
<text text-anchor="middle" x="1666.45" y="-502.7" font-family="Courier New" font-size="14.00"> &#160;</text>
<polyline fill="none" stroke="black" points="1637.45,-494.5 1695.46,-494.5 "/>
<text text-anchor="middle" x="1666.45" y="-477.9" font-family="Courier New" font-size="14.00"> </text>
<polyline fill="none" stroke="black" points="1637.45,-469.7 1695.46,-469.7 "/>
<text text-anchor="middle" x="1666.45" y="-453.1" font-family="Courier New" font-size="14.00"> </text>
<polyline fill="none" stroke="black" points="1695.46,-444.9 1695.46,-536.1 "/>
<text text-anchor="middle" x="2068.11" y="-519.5" font-family="Courier New" font-size="14.00">type: variable (bytes)</text>
<text text-anchor="middle" x="2068.11" y="-502.7" font-family="Courier New" font-size="14.00">decoded data</text>
<polyline fill="none" stroke="black" points="1695.46,-494.5 2440.77,-494.5 "/>
<text text-anchor="middle" x="1852.17" y="-477.9" font-family="Courier New" font-size="14.00">unallocated (12)</text>
<polyline fill="none" stroke="black" points="2008.88,-469.7 2008.88,-494.5 "/>
<text text-anchor="middle" x="2224.4" y="-477.9" font-family="Courier New" font-size="14.00">address: earningsReceiver (20)</text>
<polyline fill="none" stroke="black" points="1695.46,-469.7 2440.77,-469.7 "/>
<text text-anchor="middle" x="1766.47" y="-453.1" font-family="Courier New" font-size="14.00">unallocated (8)</text>
<polyline fill="none" stroke="black" points="1837.48,-444.9 1837.48,-469.7 "/>
<text text-anchor="middle" x="1996.7" y="-453.1" font-family="Courier New" font-size="14.00">uint32: stakerOptOutWindowBlocks (4)</text>
<polyline fill="none" stroke="black" points="2155.93,-444.9 2155.93,-469.7 "/>
<text text-anchor="middle" x="2298.35" y="-453.1" font-family="Courier New" font-size="14.00">address: delegationApprover (20)</text>
</g>
<!-- 2&#45;&gt;1 -->
<g id="edge1" class="edge">
<title>2:14&#45;&gt;1</title>
<path fill="none" stroke="black" d="M1535.04,-502.9C1543.54,-502.9 1552.13,-502.9 1560.78,-502.9"/>
<polygon fill="black" stroke="black" points="1560.97,-506.4 1570.97,-502.9 1560.97,-499.4 1560.97,-506.4"/>
</g>
</g>
</svg>
