<?xml version="1.0" encoding="UTF-8" standalone="no"?>
<!DOCTYPE svg PUBLIC "-//W3C//DTD SVG 1.1//EN"
 "http://www.w3.org/Graphics/SVG/1.1/DTD/svg11.dtd">
<!-- Generated by graphviz version 5.0.0 (20220707.1540)
 -->
<!-- Title: StorageDiagram Pages: 1 -->
<svg width="1560pt" height="499pt"
 viewBox="0.00 0.00 1559.84 498.60" xmlns="http://www.w3.org/2000/svg" xmlns:xlink="http://www.w3.org/1999/xlink">
<g id="graph0" class="graph" transform="scale(1 1) rotate(0) translate(4 494.6)">
<title>StorageDiagram</title>
<polygon fill="white" stroke="transparent" points="-4,4 -4,-494.6 1555.84,-494.6 1555.84,4 -4,4"/>
<!-- 1 -->
<g id="node1" class="node">
<title>1</title>
<polygon fill="#f2f2f2" stroke="black" points="0,-0.5 0,-490.1 1551.84,-490.1 1551.84,-0.5 0,-0.5"/>
<text text-anchor="middle" x="775.92" y="-473.5" font-family="Courier New" font-size="14.00">DelegationManager &lt;&lt;Contract&gt;&gt;</text>
<text text-anchor="middle" x="775.92" y="-456.7" font-family="Courier New" font-size="14.00">0xf97e97649da958d290e84e6d571c32f4b7f475e4</text>
<polyline fill="none" stroke="black" points="0,-448.5 1551.84,-448.5 "/>
<text text-anchor="middle" x="41.61" y="-431.9" font-family="Courier New" font-size="14.00">slot</text>
<text text-anchor="middle" x="41.61" y="-415.1" font-family="Courier New" font-size="14.00"> &#160;</text>
<polyline fill="none" stroke="black" points="0,-406.9 83.21,-406.9 "/>
<text text-anchor="middle" x="41.61" y="-390.3" font-family="Courier New" font-size="14.00">0</text>
<text text-anchor="middle" x="41.61" y="-373.5" font-family="Courier New" font-size="14.00"> &#160;</text>
<polyline fill="none" stroke="black" points="0,-365.3 83.21,-365.3 "/>
<text text-anchor="middle" x="41.61" y="-348.7" font-family="Courier New" font-size="14.00">1&#45;50 </text>
<polyline fill="none" stroke="black" points="0,-340.5 83.21,-340.5 "/>
<text text-anchor="middle" x="41.61" y="-323.9" font-family="Courier New" font-size="14.00">51</text>
<text text-anchor="middle" x="41.61" y="-307.1" font-family="Courier New" font-size="14.00"> &#160;</text>
<polyline fill="none" stroke="black" points="0,-298.9 83.21,-298.9 "/>
<text text-anchor="middle" x="41.61" y="-282.3" font-family="Courier New" font-size="14.00">52&#45;100 </text>
<polyline fill="none" stroke="black" points="0,-274.1 83.21,-274.1 "/>
<text text-anchor="middle" x="41.61" y="-257.5" font-family="Courier New" font-size="14.00">101</text>
<text text-anchor="middle" x="41.61" y="-240.7" font-family="Courier New" font-size="14.00"> &#160;</text>
<polyline fill="none" stroke="black" points="0,-232.5 83.21,-232.5 "/>
<text text-anchor="middle" x="41.61" y="-215.9" font-family="Courier New" font-size="14.00">102</text>
<text text-anchor="middle" x="41.61" y="-199.1" font-family="Courier New" font-size="14.00"> &#160;</text>
<polyline fill="none" stroke="black" points="0,-190.9 83.21,-190.9 "/>
<text text-anchor="middle" x="41.61" y="-174.3" font-family="Courier New" font-size="14.00">103&#45;150 </text>
<polyline fill="none" stroke="black" points="0,-166.1 83.21,-166.1 "/>
<text text-anchor="middle" x="41.61" y="-149.5" font-family="Courier New" font-size="14.00">151</text>
<text text-anchor="middle" x="41.61" y="-132.7" font-family="Courier New" font-size="14.00"> &#160;</text>
<polyline fill="none" stroke="black" points="0,-124.5 83.21,-124.5 "/>
<text text-anchor="middle" x="41.61" y="-107.9" font-family="Courier New" font-size="14.00">152 </text>
<polyline fill="none" stroke="black" points="0,-99.7 83.21,-99.7 "/>
<text text-anchor="middle" x="41.61" y="-83.1" font-family="Courier New" font-size="14.00">153 </text>
<polyline fill="none" stroke="black" points="0,-74.9 83.21,-74.9 "/>
<text text-anchor="middle" x="41.61" y="-58.3" font-family="Courier New" font-size="14.00">154 </text>
<polyline fill="none" stroke="black" points="0,-50.1 83.21,-50.1 "/>
<text text-anchor="middle" x="41.61" y="-33.5" font-family="Courier New" font-size="14.00">155 </text>
<polyline fill="none" stroke="black" points="0,-25.3 83.21,-25.3 "/>
<text text-anchor="middle" x="41.61" y="-8.7" font-family="Courier New" font-size="14.00">156&#45;201</text>
<polyline fill="none" stroke="black" points="83.21,-0.5 83.21,-448.5 "/>
<text text-anchor="middle" x="368.46" y="-431.9" font-family="Courier New" font-size="14.00">value</text>
<text text-anchor="middle" x="368.46" y="-415.1" font-family="Courier New" font-size="14.00"> &#160;</text>
<polyline fill="none" stroke="black" points="83.21,-406.9 653.7,-406.9 "/>
<text text-anchor="middle" x="368.46" y="-390.3" font-family="Courier New" font-size="14.00">0x0000000000000000000000000000000000000000000000000000000000000001</text>
<text text-anchor="middle" x="368.46" y="-373.5" font-family="Courier New" font-size="14.00"> &#160;</text>
<polyline fill="none" stroke="black" points="83.21,-365.3 653.7,-365.3 "/>
<text text-anchor="middle" x="368.46" y="-348.7" font-family="Courier New" font-size="14.00"> </text>
<polyline fill="none" stroke="black" points="83.21,-340.5 653.7,-340.5 "/>
<text text-anchor="middle" x="368.46" y="-323.9" font-family="Courier New" font-size="14.00">0x000000000000000000000000369E6F597E22EAB55FFB173C6D9CD234BD699111</text>
<text text-anchor="middle" x="368.46" y="-307.1" font-family="Courier New" font-size="14.00"> &#160;</text>
<polyline fill="none" stroke="black" points="83.21,-298.9 653.7,-298.9 "/>
<text text-anchor="middle" x="368.46" y="-282.3" font-family="Courier New" font-size="14.00"> </text>
<polyline fill="none" stroke="black" points="83.21,-274.1 653.7,-274.1 "/>
<text text-anchor="middle" x="368.46" y="-257.5" font-family="Courier New" font-size="14.00">0x0000000000000000000000000C431C66F4DE941D089625E5B423D00707977060</text>
<text text-anchor="middle" x="368.46" y="-240.7" font-family="Courier New" font-size="14.00"> &#160;</text>
<polyline fill="none" stroke="black" points="83.21,-232.5 653.7,-232.5 "/>
<text text-anchor="middle" x="368.46" y="-215.9" font-family="Courier New" font-size="14.00">0xFFFFFFFFFFFFFFFFFFFFFFFFFFFFFFFFFFFFFFFFFFFFFFFFFFFFFFFFFFFFFFFF</text>
<text text-anchor="middle" x="368.46" y="-199.1" font-family="Courier New" font-size="14.00"> &#160;</text>
<polyline fill="none" stroke="black" points="83.21,-190.9 653.7,-190.9 "/>
<text text-anchor="middle" x="368.46" y="-174.3" font-family="Courier New" font-size="14.00"> </text>
<polyline fill="none" stroke="black" points="83.21,-166.1 653.7,-166.1 "/>
<text text-anchor="middle" x="368.46" y="-149.5" font-family="Courier New" font-size="14.00">0x9BBA7F98DD592DBD3FDBEEF9FDEBB4E19F8661950CB5DCC435FCAD7824975FE1</text>
<text text-anchor="middle" x="368.46" y="-132.7" font-family="Courier New" font-size="14.00"> &#160;</text>
<polyline fill="none" stroke="black" points="83.21,-124.5 653.7,-124.5 "/>
<text text-anchor="middle" x="368.46" y="-107.9" font-family="Courier New" font-size="14.00"> </text>
<polyline fill="none" stroke="black" points="83.21,-99.7 653.7,-99.7 "/>
<text text-anchor="middle" x="368.46" y="-83.1" font-family="Courier New" font-size="14.00"> </text>
<polyline fill="none" stroke="black" points="83.21,-74.9 653.7,-74.9 "/>
<text text-anchor="middle" x="368.46" y="-58.3" font-family="Courier New" font-size="14.00"> </text>
<polyline fill="none" stroke="black" points="83.21,-50.1 653.7,-50.1 "/>
<text text-anchor="middle" x="368.46" y="-33.5" font-family="Courier New" font-size="14.00"> </text>
<polyline fill="none" stroke="black" points="83.21,-25.3 653.7,-25.3 "/>
<text text-anchor="middle" x="368.46" y="-8.7" font-family="Courier New" font-size="14.00"> </text>
<polyline fill="none" stroke="black" points="653.7,-0.5 653.7,-448.5 "/>
<text text-anchor="middle" x="1102.77" y="-431.9" font-family="Courier New" font-size="14.00">type: &lt;inherited contract&gt;.variable (bytes)</text>
<text text-anchor="middle" x="1102.77" y="-415.1" font-family="Courier New" font-size="14.00">decoded data</text>
<polyline fill="none" stroke="black" points="653.7,-406.9 1551.84,-406.9 "/>
<text text-anchor="middle" x="744.41" y="-381.9" font-family="Courier New" font-size="14.00">unallocated (30)</text>
<polyline fill="none" stroke="black" points="835.12,-365.3 835.12,-406.9 "/>
<text text-anchor="middle" x="1014.05" y="-390.3" font-family="Courier New" font-size="14.00">bool: Initializable._initializing (1)</text>
<text text-anchor="middle" x="1014.05" y="-373.5" font-family="Courier New" font-size="14.00"> false &#160;</text>
<polyline fill="none" stroke="black" points="1192.97,-365.3 1192.97,-406.9 "/>
<text text-anchor="middle" x="1372.4" y="-390.3" font-family="Courier New" font-size="14.00">uint8: Initializable._initialized (1)</text>
<text text-anchor="middle" x="1372.4" y="-373.5" font-family="Courier New" font-size="14.00"> 1 </text>
<polyline fill="none" stroke="black" points="653.7,-365.3 1551.84,-365.3 "/>
<text text-anchor="middle" x="1102.53" y="-348.7" font-family="Courier New" font-size="14.00">uint256[50]: ContextUpgradeable.__gap (1600)</text>
<polyline fill="none" stroke="black" points="653.7,-340.5 1551.84,-340.5 "/>
<text text-anchor="middle" x="819.41" y="-315.5" font-family="Courier New" font-size="14.00">unallocated (12)</text>
<polyline fill="none" stroke="black" points="985.12,-298.9 985.12,-340.5 "/>
<text text-anchor="middle" x="1268.45" y="-323.9" font-family="Courier New" font-size="14.00">address: OwnableUpgradeable._owner (20)</text>
<text text-anchor="middle" x="1268.45" y="-307.1" font-family="Courier New" font-size="14.00"> 0x369e6F597e22EaB55fFb173C6d9cD234BD699111 </text>
<polyline fill="none" stroke="black" points="653.7,-298.9 1551.84,-298.9 "/>
<text text-anchor="middle" x="1102.53" y="-282.3" font-family="Courier New" font-size="14.00">uint256[49]: OwnableUpgradeable.__gap (1568)</text>
<polyline fill="none" stroke="black" points="653.7,-274.1 1551.84,-274.1 "/>
<text text-anchor="middle" x="816.91" y="-249.1" font-family="Courier New" font-size="14.00">unallocated (12)</text>
<polyline fill="none" stroke="black" points="980.12,-232.5 980.12,-274.1 "/>
<text text-anchor="middle" x="1265.65" y="-257.5" font-family="Courier New" font-size="14.00">IPauserRegistry: Pausable.pauserRegistry (20)</text>
<text text-anchor="middle" x="1265.65" y="-240.7" font-family="Courier New" font-size="14.00"> 0x0c431C66F4dE941d089625E5B423D00707977060 </text>
<polyline fill="none" stroke="black" points="653.7,-232.5 1551.84,-232.5 "/>
<text text-anchor="middle" x="1102.77" y="-215.9" font-family="Courier New" font-size="14.00">uint256: Pausable._paused (32)</text>
<text text-anchor="middle" x="1102.77" y="-199.1" font-family="Courier New" font-size="14.00"> 115,792,089,237,316,195,423,570,985,008,687,907,853,269,984,665,640,564,039,457,584,007,913,129,639,935 </text>
<polyline fill="none" stroke="black" points="653.7,-190.9 1551.84,-190.9 "/>
<text text-anchor="middle" x="1102.52" y="-174.3" font-family="Courier New" font-size="14.00">uint256[48]: Pausable.__gap (1536)</text>
<polyline fill="none" stroke="black" points="653.7,-166.1 1551.84,-166.1 "/>
<text text-anchor="middle" x="1102.35" y="-149.5" font-family="Courier New" font-size="14.00">bytes32: DelegationManagerStorage.DOMAIN_SEPARATOR (32)</text>
<text text-anchor="middle" x="1102.35" y="-132.7" font-family="Courier New" font-size="14.00"> 0x9BBA7F98DD592DBD3FDBEEF9FDEBB4E19F8661950CB5DCC435FCAD7824975FE1 </text>
<polyline fill="none" stroke="black" points="653.7,-124.5 1551.84,-124.5 "/>
<text text-anchor="middle" x="1102.46" y="-107.9" font-family="Courier New" font-size="14.00">mapping(address=&gt;mapping(IStrategy=&gt;uint256)): DelegationManagerStorage.operatorShares (32)</text>
<polyline fill="none" stroke="black" points="653.7,-99.7 1551.84,-99.7 "/>
<text text-anchor="middle" x="1102.46" y="-83.1" font-family="Courier New" font-size="14.00">mapping(address=&gt;IDelegationTerms): DelegationManagerStorage.delegationTerms (32)</text>
<polyline fill="none" stroke="black" points="653.7,-74.9 1551.84,-74.9 "/>
<text text-anchor="middle" x="1102.35" y="-58.3" font-family="Courier New" font-size="14.00">mapping(address=&gt;address): DelegationManagerStorage.delegatedTo (32)</text>
<polyline fill="none" stroke="black" points="653.7,-50.1 1551.84,-50.1 "/>
<text text-anchor="middle" x="1102.34" y="-33.5" font-family="Courier New" font-size="14.00">mapping(address=&gt;uint256): DelegationManagerStorage.nonces (32)</text>
<polyline fill="none" stroke="black" points="653.7,-25.3 1551.84,-25.3 "/>
<text text-anchor="middle" x="1102.74" y="-8.7" font-family="Courier New" font-size="14.00">uint256[46]: DelegationManagerStorage.__gap (1472)</text>
</g>
</g>
</svg>
