<?xml version="1.0" encoding="UTF-8" standalone="no"?>
<!DOCTYPE svg PUBLIC "-//W3C//DTD SVG 1.1//EN"
 "http://www.w3.org/Graphics/SVG/1.1/DTD/svg11.dtd">
<!-- Generated by graphviz version 5.0.0 (20220707.1540)
 -->
<!-- Title: StorageDiagram Pages: 1 -->
<svg width="1577pt" height="674pt"
 viewBox="0.00 0.00 1576.65 673.80" xmlns="http://www.w3.org/2000/svg" xmlns:xlink="http://www.w3.org/1999/xlink">
<g id="graph0" class="graph" transform="scale(1 1) rotate(0) translate(4 669.8)">
<title>StorageDiagram</title>
<polygon fill="white" stroke="transparent" points="-4,4 -4,-669.8 1572.65,-669.8 1572.65,4 -4,4"/>
<!-- 1 -->
<g id="node1" class="node">
<title>1</title>
<polygon fill="#f2f2f2" stroke="black" points="0,-0.5 0,-665.3 1568.65,-665.3 1568.65,-0.5 0,-0.5"/>
<text text-anchor="middle" x="784.32" y="-648.7" font-family="Courier New" font-size="14.00">EigenPodManager &lt;&lt;Contract&gt;&gt;</text>
<text text-anchor="middle" x="784.32" y="-631.9" font-family="Courier New" font-size="14.00">0xEB86a5c40FdE917E6feC440aBbCDc80E3862e111</text>
<polyline fill="none" stroke="black" points="0,-623.7 1568.65,-623.7 "/>
<text text-anchor="middle" x="50.01" y="-607.1" font-family="Courier New" font-size="14.00">slot</text>
<text text-anchor="middle" x="50.01" y="-590.3" font-family="Courier New" font-size="14.00"> &#160;</text>
<polyline fill="none" stroke="black" points="0,-582.1 100.01,-582.1 "/>
<text text-anchor="middle" x="50.01" y="-565.5" font-family="Courier New" font-size="14.00">0</text>
<text text-anchor="middle" x="50.01" y="-548.7" font-family="Courier New" font-size="14.00"> &#160;</text>
<polyline fill="none" stroke="black" points="0,-540.5 100.01,-540.5 "/>
<text text-anchor="middle" x="50.01" y="-523.9" font-family="Courier New" font-size="14.00">1&#45;50 </text>
<polyline fill="none" stroke="black" points="0,-515.7 100.01,-515.7 "/>
<text text-anchor="middle" x="50.01" y="-499.1" font-family="Courier New" font-size="14.00">51</text>
<text text-anchor="middle" x="50.01" y="-482.3" font-family="Courier New" font-size="14.00"> &#160;</text>
<polyline fill="none" stroke="black" points="0,-474.1 100.01,-474.1 "/>
<text text-anchor="middle" x="50.01" y="-457.5" font-family="Courier New" font-size="14.00">52&#45;100 </text>
<polyline fill="none" stroke="black" points="0,-449.3 100.01,-449.3 "/>
<text text-anchor="middle" x="50.01" y="-432.7" font-family="Courier New" font-size="14.00">101</text>
<text text-anchor="middle" x="50.01" y="-415.9" font-family="Courier New" font-size="14.00"> &#160;</text>
<polyline fill="none" stroke="black" points="0,-407.7 100.01,-407.7 "/>
<text text-anchor="middle" x="50.01" y="-391.1" font-family="Courier New" font-size="14.00">102</text>
<text text-anchor="middle" x="50.01" y="-374.3" font-family="Courier New" font-size="14.00"> &#160;</text>
<polyline fill="none" stroke="black" points="0,-366.1 100.01,-366.1 "/>
<text text-anchor="middle" x="50.01" y="-349.5" font-family="Courier New" font-size="14.00">103&#45;150 </text>
<polyline fill="none" stroke="black" points="0,-341.3 100.01,-341.3 "/>
<text text-anchor="middle" x="50.01" y="-324.7" font-family="Courier New" font-size="14.00">151</text>
<text text-anchor="middle" x="50.01" y="-307.9" font-family="Courier New" font-size="14.00"> &#160;</text>
<polyline fill="none" stroke="black" points="0,-299.7 100.01,-299.7 "/>
<text text-anchor="middle" x="50.01" y="-283.1" font-family="Courier New" font-size="14.00">152 </text>
<polyline fill="none" stroke="black" points="0,-274.9 100.01,-274.9 "/>
<text text-anchor="middle" x="50.01" y="-258.3" font-family="Courier New" font-size="14.00">153</text>
<text text-anchor="middle" x="50.01" y="-241.5" font-family="Courier New" font-size="14.00"> &#160;</text>
<polyline fill="none" stroke="black" points="0,-233.3 100.01,-233.3 "/>
<text text-anchor="middle" x="50.01" y="-216.7" font-family="Courier New" font-size="14.00">154</text>
<text text-anchor="middle" x="50.01" y="-199.9" font-family="Courier New" font-size="14.00"> &#160;</text>
<polyline fill="none" stroke="black" points="0,-191.7 100.01,-191.7 "/>
<text text-anchor="middle" x="50.01" y="-175.1" font-family="Courier New" font-size="14.00">155&#45;200 </text>
<polyline fill="none" stroke="black" points="0,-166.9 100.01,-166.9 "/>
<text text-anchor="middle" x="50.01" y="-150.3" font-family="Courier New" font-size="14.00">0x360..bbc</text>
<text text-anchor="middle" x="50.01" y="-133.5" font-family="Courier New" font-size="14.00"> &#160;</text>
<polyline fill="none" stroke="black" points="0,-125.3 100.01,-125.3 "/>
<text text-anchor="middle" x="50.01" y="-108.7" font-family="Courier New" font-size="14.00">0x491..143</text>
<text text-anchor="middle" x="50.01" y="-91.9" font-family="Courier New" font-size="14.00"> &#160;</text>
<polyline fill="none" stroke="black" points="0,-83.7 100.01,-83.7 "/>
<text text-anchor="middle" x="50.01" y="-67.1" font-family="Courier New" font-size="14.00">0xa3f..d50</text>
<text text-anchor="middle" x="50.01" y="-50.3" font-family="Courier New" font-size="14.00"> &#160;</text>
<polyline fill="none" stroke="black" points="0,-42.1 100.01,-42.1 "/>
<text text-anchor="middle" x="50.01" y="-25.5" font-family="Courier New" font-size="14.00">0xb53..103</text>
<text text-anchor="middle" x="50.01" y="-8.7" font-family="Courier New" font-size="14.00"> </text>
<polyline fill="none" stroke="black" points="100.01,-0.5 100.01,-623.7 "/>
<text text-anchor="middle" x="385.26" y="-607.1" font-family="Courier New" font-size="14.00">value</text>
<text text-anchor="middle" x="385.26" y="-590.3" font-family="Courier New" font-size="14.00"> &#160;</text>
<polyline fill="none" stroke="black" points="100.01,-582.1 670.5,-582.1 "/>
<text text-anchor="middle" x="385.26" y="-565.5" font-family="Courier New" font-size="14.00">0x0000000000000000000000000000000000000000000000000000000000000001</text>
<text text-anchor="middle" x="385.26" y="-548.7" font-family="Courier New" font-size="14.00"> &#160;</text>
<polyline fill="none" stroke="black" points="100.01,-540.5 670.5,-540.5 "/>
<text text-anchor="middle" x="385.26" y="-523.9" font-family="Courier New" font-size="14.00"> </text>
<polyline fill="none" stroke="black" points="100.01,-515.7 670.5,-515.7 "/>
<text text-anchor="middle" x="385.26" y="-499.1" font-family="Courier New" font-size="14.00">0x000000000000000000000000369E6F597E22EAB55FFB173C6D9CD234BD699111</text>
<text text-anchor="middle" x="385.26" y="-482.3" font-family="Courier New" font-size="14.00"> &#160;</text>
<polyline fill="none" stroke="black" points="100.01,-474.1 670.5,-474.1 "/>
<text text-anchor="middle" x="385.26" y="-457.5" font-family="Courier New" font-size="14.00"> </text>
<polyline fill="none" stroke="black" points="100.01,-449.3 670.5,-449.3 "/>
<text text-anchor="middle" x="385.26" y="-432.7" font-family="Courier New" font-size="14.00">0x0000000000000000000000000C431C66F4DE941D089625E5B423D00707977060</text>
<text text-anchor="middle" x="385.26" y="-415.9" font-family="Courier New" font-size="14.00"> &#160;</text>
<polyline fill="none" stroke="black" points="100.01,-407.7 670.5,-407.7 "/>
<text text-anchor="middle" x="385.26" y="-391.1" font-family="Courier New" font-size="14.00">0x000000000000000000000000000000000000000000000000000000000000001E</text>
<text text-anchor="middle" x="385.26" y="-374.3" font-family="Courier New" font-size="14.00"> &#160;</text>
<polyline fill="none" stroke="black" points="100.01,-366.1 670.5,-366.1 "/>
<text text-anchor="middle" x="385.26" y="-349.5" font-family="Courier New" font-size="14.00"> </text>
<polyline fill="none" stroke="black" points="100.01,-341.3 670.5,-341.3 "/>
<text text-anchor="middle" x="385.26" y="-324.7" font-family="Courier New" font-size="14.00">0x0000000000000000000000000000000000000000000000000000000000000000</text>
<text text-anchor="middle" x="385.26" y="-307.9" font-family="Courier New" font-size="14.00"> &#160;</text>
<polyline fill="none" stroke="black" points="100.01,-299.7 670.5,-299.7 "/>
<text text-anchor="middle" x="385.26" y="-283.1" font-family="Courier New" font-size="14.00"> </text>
<polyline fill="none" stroke="black" points="100.01,-274.9 670.5,-274.9 "/>
<text text-anchor="middle" x="385.26" y="-258.3" font-family="Courier New" font-size="14.00">0x0000000000000000000000000000000000000000000000000000000000005E2F</text>
<text text-anchor="middle" x="385.26" y="-241.5" font-family="Courier New" font-size="14.00"> &#160;</text>
<polyline fill="none" stroke="black" points="100.01,-233.3 670.5,-233.3 "/>
<text text-anchor="middle" x="385.26" y="-216.7" font-family="Courier New" font-size="14.00">0xFFFFFFFFFFFFFFFFFFFFFFFFFFFFFFFFFFFFFFFFFFFFFFFFFFFFFFFFFFFFFFFF</text>
<text text-anchor="middle" x="385.26" y="-199.9" font-family="Courier New" font-size="14.00"> &#160;</text>
<polyline fill="none" stroke="black" points="100.01,-191.7 670.5,-191.7 "/>
<text text-anchor="middle" x="385.26" y="-175.1" font-family="Courier New" font-size="14.00"> </text>
<polyline fill="none" stroke="black" points="100.01,-166.9 670.5,-166.9 "/>
<text text-anchor="middle" x="385.26" y="-150.3" font-family="Courier New" font-size="14.00">0x000000000000000000000000EB86A5C40FDE917E6FEC440ABBCDC80E3862E111</text>
<text text-anchor="middle" x="385.26" y="-133.5" font-family="Courier New" font-size="14.00"> &#160;</text>
<polyline fill="none" stroke="black" points="100.01,-125.3 670.5,-125.3 "/>
<text text-anchor="middle" x="385.26" y="-108.7" font-family="Courier New" font-size="14.00">0x0000000000000000000000000000000000000000000000000000000000000000</text>
<text text-anchor="middle" x="385.26" y="-91.9" font-family="Courier New" font-size="14.00"> &#160;</text>
<polyline fill="none" stroke="black" points="100.01,-83.7 670.5,-83.7 "/>
<text text-anchor="middle" x="385.26" y="-67.1" font-family="Courier New" font-size="14.00">0x0000000000000000000000000000000000000000000000000000000000000000</text>
<text text-anchor="middle" x="385.26" y="-50.3" font-family="Courier New" font-size="14.00"> &#160;</text>
<polyline fill="none" stroke="black" points="100.01,-42.1 670.5,-42.1 "/>
<text text-anchor="middle" x="385.26" y="-25.5" font-family="Courier New" font-size="14.00">0x0000000000000000000000008B9566ADA63B64D1E1DCF1418B43FD1433B72444</text>
<text text-anchor="middle" x="385.26" y="-8.7" font-family="Courier New" font-size="14.00"> </text>
<polyline fill="none" stroke="black" points="670.5,-0.5 670.5,-623.7 "/>
<text text-anchor="middle" x="1119.58" y="-607.1" font-family="Courier New" font-size="14.00">type: &lt;inherited contract&gt;.variable (bytes)</text>
<text text-anchor="middle" x="1119.58" y="-590.3" font-family="Courier New" font-size="14.00">decoded data</text>
<polyline fill="none" stroke="black" points="670.5,-582.1 1568.65,-582.1 "/>
<text text-anchor="middle" x="761.21" y="-557.1" font-family="Courier New" font-size="14.00">unallocated (30)</text>
<polyline fill="none" stroke="black" points="851.93,-540.5 851.93,-582.1 "/>
<text text-anchor="middle" x="1030.85" y="-565.5" font-family="Courier New" font-size="14.00">bool: Initializable._initializing (1)</text>
<text text-anchor="middle" x="1030.85" y="-548.7" font-family="Courier New" font-size="14.00"> false &#160;</text>
<polyline fill="none" stroke="black" points="1209.78,-540.5 1209.78,-582.1 "/>
<text text-anchor="middle" x="1389.2" y="-565.5" font-family="Courier New" font-size="14.00">uint8: Initializable._initialized (1)</text>
<text text-anchor="middle" x="1389.2" y="-548.7" font-family="Courier New" font-size="14.00"> 1 </text>
<polyline fill="none" stroke="black" points="670.5,-540.5 1568.65,-540.5 "/>
<text text-anchor="middle" x="1119.33" y="-523.9" font-family="Courier New" font-size="14.00">uint256[50]: ContextUpgradeable.__gap (1600)</text>
<polyline fill="none" stroke="black" points="670.5,-515.7 1568.65,-515.7 "/>
<text text-anchor="middle" x="836.21" y="-490.7" font-family="Courier New" font-size="14.00">unallocated (12)</text>
<polyline fill="none" stroke="black" points="1001.93,-474.1 1001.93,-515.7 "/>
<text text-anchor="middle" x="1285.26" y="-499.1" font-family="Courier New" font-size="14.00">address: OwnableUpgradeable._owner (20)</text>
<text text-anchor="middle" x="1285.26" y="-482.3" font-family="Courier New" font-size="14.00"> 0x369e6F597e22EaB55fFb173C6d9cD234BD699111 </text>
<polyline fill="none" stroke="black" points="670.5,-474.1 1568.65,-474.1 "/>
<text text-anchor="middle" x="1119.33" y="-457.5" font-family="Courier New" font-size="14.00">uint256[49]: OwnableUpgradeable.__gap (1568)</text>
<polyline fill="none" stroke="black" points="670.5,-449.3 1568.65,-449.3 "/>
<text text-anchor="middle" x="833.71" y="-424.3" font-family="Courier New" font-size="14.00">unallocated (12)</text>
<polyline fill="none" stroke="black" points="996.93,-407.7 996.93,-449.3 "/>
<text text-anchor="middle" x="1282.46" y="-432.7" font-family="Courier New" font-size="14.00">IPauserRegistry: Pausable.pauserRegistry (20)</text>
<text text-anchor="middle" x="1282.46" y="-415.9" font-family="Courier New" font-size="14.00"> 0x0c431C66F4dE941d089625E5B423D00707977060 </text>
<polyline fill="none" stroke="black" points="670.5,-407.7 1568.65,-407.7 "/>
<text text-anchor="middle" x="1119.52" y="-391.1" font-family="Courier New" font-size="14.00">uint256: Pausable._paused (32)</text>
<text text-anchor="middle" x="1119.52" y="-374.3" font-family="Courier New" font-size="14.00"> 30 </text>
<polyline fill="none" stroke="black" points="670.5,-366.1 1568.65,-366.1 "/>
<text text-anchor="middle" x="1119.33" y="-349.5" font-family="Courier New" font-size="14.00">uint256[48]: Pausable.__gap (1536)</text>
<polyline fill="none" stroke="black" points="670.5,-341.3 1568.65,-341.3 "/>
<text text-anchor="middle" x="836.21" y="-316.3" font-family="Courier New" font-size="14.00">unallocated (12)</text>
<polyline fill="none" stroke="black" points="1001.93,-299.7 1001.93,-341.3 "/>
<text text-anchor="middle" x="1285.26" y="-324.7" font-family="Courier New" font-size="14.00">IBeaconChainOracle: beaconChainOracle (20)</text>
<text text-anchor="middle" x="1285.26" y="-307.9" font-family="Courier New" font-size="14.00"> 0x0000000000000000000000000000000000000000 </text>
<polyline fill="none" stroke="black" points="670.5,-299.7 1568.65,-299.7 "/>
<text text-anchor="middle" x="1119.33" y="-283.1" font-family="Courier New" font-size="14.00">mapping(address=&gt;IEigenPod): ownerToPod (32)</text>
<polyline fill="none" stroke="black" points="670.5,-274.9 1568.65,-274.9 "/>
<text text-anchor="middle" x="1119.22" y="-258.3" font-family="Courier New" font-size="14.00">uint256: numPods (32)</text>
<text text-anchor="middle" x="1119.22" y="-241.5" font-family="Courier New" font-size="14.00"> 24,111 </text>
<polyline fill="none" stroke="black" points="670.5,-233.3 1568.65,-233.3 "/>
<text text-anchor="middle" x="1119.58" y="-216.7" font-family="Courier New" font-size="14.00">uint256: maxPods (32)</text>
<text text-anchor="middle" x="1119.58" y="-199.9" font-family="Courier New" font-size="14.00"> 115,792,089,237,316,195,423,570,985,008,687,907,853,269,984,665,640,564,039,457,584,007,913,129,639,935 </text>
<polyline fill="none" stroke="black" points="670.5,-191.7 1568.65,-191.7 "/>
<text text-anchor="middle" x="1119.52" y="-175.1" font-family="Courier New" font-size="14.00">uint256[46]: __gap (1472)</text>
<polyline fill="none" stroke="black" points="670.5,-166.9 1568.65,-166.9 "/>
<text text-anchor="middle" x="1119.15" y="-150.3" font-family="Courier New" font-size="14.00">bytes32 (32)</text>
<text text-anchor="middle" x="1119.15" y="-133.5" font-family="Courier New" font-size="14.00"> 0x000000000000000000000000EB86A5C40FDE917E6FEC440ABBCDC80E3862E111 </text>
<polyline fill="none" stroke="black" points="670.5,-125.3 1568.65,-125.3 "/>
<text text-anchor="middle" x="1119.15" y="-108.7" font-family="Courier New" font-size="14.00">bytes32 (32)</text>
<text text-anchor="middle" x="1119.15" y="-91.9" font-family="Courier New" font-size="14.00"> 0x0000000000000000000000000000000000000000000000000000000000000000 </text>
<polyline fill="none" stroke="black" points="670.5,-83.7 1568.65,-83.7 "/>
<text text-anchor="middle" x="1119.15" y="-67.1" font-family="Courier New" font-size="14.00">bytes32 (32)</text>
<text text-anchor="middle" x="1119.15" y="-50.3" font-family="Courier New" font-size="14.00"> 0x0000000000000000000000000000000000000000000000000000000000000000 </text>
<polyline fill="none" stroke="black" points="670.5,-42.1 1568.65,-42.1 "/>
<text text-anchor="middle" x="1119.15" y="-25.5" font-family="Courier New" font-size="14.00">bytes32 (32)</text>
<text text-anchor="middle" x="1119.15" y="-8.7" font-family="Courier New" font-size="14.00"> 0x0000000000000000000000008B9566ADA63B64D1E1DCF1418B43FD1433B72444 </text>
</g>
</g>
</svg>
