<?xml version="1.0" encoding="UTF-8" standalone="no"?>
<!DOCTYPE svg PUBLIC "-//W3C//DTD SVG 1.1//EN"
 "http://www.w3.org/Graphics/SVG/1.1/DTD/svg11.dtd">
<!-- Generated by graphviz version 5.0.0 (20220707.1540)
 -->
<!-- Title: StorageDiagram Pages: 1 -->
<svg width="1483pt" height="807pt"
 viewBox="0.00 0.00 1482.63 806.60" xmlns="http://www.w3.org/2000/svg" xmlns:xlink="http://www.w3.org/1999/xlink">
<g id="graph0" class="graph" transform="scale(1 1) rotate(0) translate(4 802.6)">
<title>StorageDiagram</title>
<polygon fill="white" stroke="transparent" points="-4,4 -4,-802.6 1478.63,-802.6 1478.63,4 -4,4"/>
<!-- 1 -->
<g id="node1" class="node">
<title>1</title>
<polygon fill="#f2f2f2" stroke="black" points="0,-0.5 0,-798.1 1474.63,-798.1 1474.63,-0.5 0,-0.5"/>
<text text-anchor="middle" x="737.31" y="-781.5" font-family="Courier New" font-size="14.00">EigenPodManager &lt;&lt;Contract&gt;&gt;</text>
<text text-anchor="middle" x="737.31" y="-764.7" font-family="Courier New" font-size="14.00">0x5265C162f7d5F3fE3175a78828ab16bf5E324a7B</text>
<polyline fill="none" stroke="black" points="0,-756.5 1474.63,-756.5 "/>
<text text-anchor="middle" x="50.01" y="-739.9" font-family="Courier New" font-size="14.00">slot</text>
<text text-anchor="middle" x="50.01" y="-723.1" font-family="Courier New" font-size="14.00"> &#160;</text>
<polyline fill="none" stroke="black" points="0,-714.9 100.01,-714.9 "/>
<text text-anchor="middle" x="50.01" y="-698.3" font-family="Courier New" font-size="14.00">0</text>
<text text-anchor="middle" x="50.01" y="-681.5" font-family="Courier New" font-size="14.00"> &#160;</text>
<polyline fill="none" stroke="black" points="0,-673.3 100.01,-673.3 "/>
<text text-anchor="middle" x="50.01" y="-656.7" font-family="Courier New" font-size="14.00">1&#45;50 </text>
<polyline fill="none" stroke="black" points="0,-648.5 100.01,-648.5 "/>
<text text-anchor="middle" x="50.01" y="-631.9" font-family="Courier New" font-size="14.00">51</text>
<text text-anchor="middle" x="50.01" y="-615.1" font-family="Courier New" font-size="14.00"> &#160;</text>
<polyline fill="none" stroke="black" points="0,-606.9 100.01,-606.9 "/>
<text text-anchor="middle" x="50.01" y="-590.3" font-family="Courier New" font-size="14.00">52&#45;100 </text>
<polyline fill="none" stroke="black" points="0,-582.1 100.01,-582.1 "/>
<text text-anchor="middle" x="50.01" y="-565.5" font-family="Courier New" font-size="14.00">101</text>
<text text-anchor="middle" x="50.01" y="-548.7" font-family="Courier New" font-size="14.00"> &#160;</text>
<polyline fill="none" stroke="black" points="0,-540.5 100.01,-540.5 "/>
<text text-anchor="middle" x="50.01" y="-523.9" font-family="Courier New" font-size="14.00">102</text>
<text text-anchor="middle" x="50.01" y="-507.1" font-family="Courier New" font-size="14.00"> &#160;</text>
<polyline fill="none" stroke="black" points="0,-498.9 100.01,-498.9 "/>
<text text-anchor="middle" x="50.01" y="-482.3" font-family="Courier New" font-size="14.00">103&#45;150 </text>
<polyline fill="none" stroke="black" points="0,-474.1 100.01,-474.1 "/>
<text text-anchor="middle" x="50.01" y="-457.5" font-family="Courier New" font-size="14.00">151</text>
<text text-anchor="middle" x="50.01" y="-440.7" font-family="Courier New" font-size="14.00"> &#160;</text>
<polyline fill="none" stroke="black" points="0,-432.5 100.01,-432.5 "/>
<text text-anchor="middle" x="50.01" y="-415.9" font-family="Courier New" font-size="14.00">152 </text>
<polyline fill="none" stroke="black" points="0,-407.7 100.01,-407.7 "/>
<text text-anchor="middle" x="50.01" y="-391.1" font-family="Courier New" font-size="14.00">153</text>
<text text-anchor="middle" x="50.01" y="-374.3" font-family="Courier New" font-size="14.00"> &#160;</text>
<polyline fill="none" stroke="black" points="0,-366.1 100.01,-366.1 "/>
<text text-anchor="middle" x="50.01" y="-349.5" font-family="Courier New" font-size="14.00">154</text>
<text text-anchor="middle" x="50.01" y="-332.7" font-family="Courier New" font-size="14.00"> &#160;</text>
<polyline fill="none" stroke="black" points="0,-324.5 100.01,-324.5 "/>
<text text-anchor="middle" x="50.01" y="-307.9" font-family="Courier New" font-size="14.00">155 </text>
<polyline fill="none" stroke="black" points="0,-299.7 100.01,-299.7 "/>
<text text-anchor="middle" x="50.01" y="-283.1" font-family="Courier New" font-size="14.00">156</text>
<text text-anchor="middle" x="50.01" y="-266.3" font-family="Courier New" font-size="14.00"> &#160;</text>
<polyline fill="none" stroke="black" points="0,-258.1 100.01,-258.1 "/>
<text text-anchor="middle" x="50.01" y="-241.5" font-family="Courier New" font-size="14.00">157&#45;200 </text>
<polyline fill="none" stroke="black" points="0,-233.3 100.01,-233.3 "/>
<text text-anchor="middle" x="50.01" y="-216.7" font-family="Courier New" font-size="14.00">201</text>
<text text-anchor="middle" x="50.01" y="-199.9" font-family="Courier New" font-size="14.00"> &#160;</text>
<polyline fill="none" stroke="black" points="0,-191.7 100.01,-191.7 "/>
<text text-anchor="middle" x="50.01" y="-175.1" font-family="Courier New" font-size="14.00">202&#45;250 </text>
<polyline fill="none" stroke="black" points="0,-166.9 100.01,-166.9 "/>
<text text-anchor="middle" x="50.01" y="-150.3" font-family="Courier New" font-size="14.00">0x360..bbc</text>
<text text-anchor="middle" x="50.01" y="-133.5" font-family="Courier New" font-size="14.00"> &#160;</text>
<polyline fill="none" stroke="black" points="0,-125.3 100.01,-125.3 "/>
<text text-anchor="middle" x="50.01" y="-108.7" font-family="Courier New" font-size="14.00">0x491..143</text>
<text text-anchor="middle" x="50.01" y="-91.9" font-family="Courier New" font-size="14.00"> &#160;</text>
<polyline fill="none" stroke="black" points="0,-83.7 100.01,-83.7 "/>
<text text-anchor="middle" x="50.01" y="-67.1" font-family="Courier New" font-size="14.00">0xa3f..d50</text>
<text text-anchor="middle" x="50.01" y="-50.3" font-family="Courier New" font-size="14.00"> &#160;</text>
<polyline fill="none" stroke="black" points="0,-42.1 100.01,-42.1 "/>
<text text-anchor="middle" x="50.01" y="-25.5" font-family="Courier New" font-size="14.00">0xb53..103</text>
<text text-anchor="middle" x="50.01" y="-8.7" font-family="Courier New" font-size="14.00"> </text>
<polyline fill="none" stroke="black" points="100.01,-0.5 100.01,-756.5 "/>
<text text-anchor="middle" x="385.26" y="-739.9" font-family="Courier New" font-size="14.00">value</text>
<text text-anchor="middle" x="385.26" y="-723.1" font-family="Courier New" font-size="14.00"> &#160;</text>
<polyline fill="none" stroke="black" points="100.01,-714.9 670.5,-714.9 "/>
<text text-anchor="middle" x="385.26" y="-698.3" font-family="Courier New" font-size="14.00">0x0000000000000000000000000000000000000000000000000000000000000001</text>
<text text-anchor="middle" x="385.26" y="-681.5" font-family="Courier New" font-size="14.00"> &#160;</text>
<polyline fill="none" stroke="black" points="100.01,-673.3 670.5,-673.3 "/>
<text text-anchor="middle" x="385.26" y="-656.7" font-family="Courier New" font-size="14.00"> </text>
<polyline fill="none" stroke="black" points="100.01,-648.5 670.5,-648.5 "/>
<text text-anchor="middle" x="385.26" y="-631.9" font-family="Courier New" font-size="14.00">0x00000000000000000000000028ADE60640FDBDB2609D8D8734D1B5CBEFC0C348</text>
<text text-anchor="middle" x="385.26" y="-615.1" font-family="Courier New" font-size="14.00"> &#160;</text>
<polyline fill="none" stroke="black" points="100.01,-606.9 670.5,-606.9 "/>
<text text-anchor="middle" x="385.26" y="-590.3" font-family="Courier New" font-size="14.00"> </text>
<polyline fill="none" stroke="black" points="100.01,-582.1 670.5,-582.1 "/>
<text text-anchor="middle" x="385.26" y="-565.5" font-family="Courier New" font-size="14.00">0x00000000000000000000000085EF7299F8311B25642679EDBF02B62FA2212F06</text>
<text text-anchor="middle" x="385.26" y="-548.7" font-family="Courier New" font-size="14.00"> &#160;</text>
<polyline fill="none" stroke="black" points="100.01,-540.5 670.5,-540.5 "/>
<text text-anchor="middle" x="385.26" y="-523.9" font-family="Courier New" font-size="14.00">0x0000000000000000000000000000000000000000000000000000000000000000</text>
<text text-anchor="middle" x="385.26" y="-507.1" font-family="Courier New" font-size="14.00"> &#160;</text>
<polyline fill="none" stroke="black" points="100.01,-498.9 670.5,-498.9 "/>
<text text-anchor="middle" x="385.26" y="-482.3" font-family="Courier New" font-size="14.00"> </text>
<polyline fill="none" stroke="black" points="100.01,-474.1 670.5,-474.1 "/>
<text text-anchor="middle" x="385.26" y="-457.5" font-family="Courier New" font-size="14.00">0x0000000000000000000000004C116BB629BFF7A8373C2378BBD919F8349B8F25</text>
<text text-anchor="middle" x="385.26" y="-440.7" font-family="Courier New" font-size="14.00"> &#160;</text>
<polyline fill="none" stroke="black" points="100.01,-432.5 670.5,-432.5 "/>
<text text-anchor="middle" x="385.26" y="-415.9" font-family="Courier New" font-size="14.00"> </text>
<polyline fill="none" stroke="black" points="100.01,-407.7 670.5,-407.7 "/>
<text text-anchor="middle" x="385.26" y="-391.1" font-family="Courier New" font-size="14.00">0x0000000000000000000000000000000000000000000000000000000000000211</text>
<text text-anchor="middle" x="385.26" y="-374.3" font-family="Courier New" font-size="14.00"> &#160;</text>
<polyline fill="none" stroke="black" points="100.01,-366.1 670.5,-366.1 "/>
<text text-anchor="middle" x="385.26" y="-349.5" font-family="Courier New" font-size="14.00">0x0000000000000000000000000000000000000000000000000000000000000000</text>
<text text-anchor="middle" x="385.26" y="-332.7" font-family="Courier New" font-size="14.00"> &#160;</text>
<polyline fill="none" stroke="black" points="100.01,-324.5 670.5,-324.5 "/>
<text text-anchor="middle" x="385.26" y="-307.9" font-family="Courier New" font-size="14.00"> </text>
<polyline fill="none" stroke="black" points="100.01,-299.7 670.5,-299.7 "/>
<text text-anchor="middle" x="385.26" y="-283.1" font-family="Courier New" font-size="14.00">0x0000000000000000000000000000000000000000000000000000000065C36AC0</text>
<text text-anchor="middle" x="385.26" y="-266.3" font-family="Courier New" font-size="14.00"> &#160;</text>
<polyline fill="none" stroke="black" points="100.01,-258.1 670.5,-258.1 "/>
<text text-anchor="middle" x="385.26" y="-241.5" font-family="Courier New" font-size="14.00"> </text>
<polyline fill="none" stroke="black" points="100.01,-233.3 670.5,-233.3 "/>
<text text-anchor="middle" x="385.26" y="-216.7" font-family="Courier New" font-size="14.00">0x0000000000000000000000000000000000000000000000000000000000000001</text>
<text text-anchor="middle" x="385.26" y="-199.9" font-family="Courier New" font-size="14.00"> &#160;</text>
<polyline fill="none" stroke="black" points="100.01,-191.7 670.5,-191.7 "/>
<text text-anchor="middle" x="385.26" y="-175.1" font-family="Courier New" font-size="14.00"> </text>
<polyline fill="none" stroke="black" points="100.01,-166.9 670.5,-166.9 "/>
<text text-anchor="middle" x="385.26" y="-150.3" font-family="Courier New" font-size="14.00">0x0000000000000000000000005265C162F7D5F3FE3175A78828AB16BF5E324A7B</text>
<text text-anchor="middle" x="385.26" y="-133.5" font-family="Courier New" font-size="14.00"> &#160;</text>
<polyline fill="none" stroke="black" points="100.01,-125.3 670.5,-125.3 "/>
<text text-anchor="middle" x="385.26" y="-108.7" font-family="Courier New" font-size="14.00">0x0000000000000000000000000000000000000000000000000000000000000000</text>
<text text-anchor="middle" x="385.26" y="-91.9" font-family="Courier New" font-size="14.00"> &#160;</text>
<polyline fill="none" stroke="black" points="100.01,-83.7 670.5,-83.7 "/>
<text text-anchor="middle" x="385.26" y="-67.1" font-family="Courier New" font-size="14.00">0x0000000000000000000000000000000000000000000000000000000000000000</text>
<text text-anchor="middle" x="385.26" y="-50.3" font-family="Courier New" font-size="14.00"> &#160;</text>
<polyline fill="none" stroke="black" points="100.01,-42.1 670.5,-42.1 "/>
<text text-anchor="middle" x="385.26" y="-25.5" font-family="Courier New" font-size="14.00">0x000000000000000000000000DB023566064246399B4AE851197A97729C93A6CF</text>
<text text-anchor="middle" x="385.26" y="-8.7" font-family="Courier New" font-size="14.00"> </text>
<polyline fill="none" stroke="black" points="670.5,-0.5 670.5,-756.5 "/>
<text text-anchor="middle" x="1072.57" y="-739.9" font-family="Courier New" font-size="14.00">type: &lt;inherited contract&gt;.variable (bytes)</text>
<text text-anchor="middle" x="1072.57" y="-723.1" font-family="Courier New" font-size="14.00">decoded data</text>
<polyline fill="none" stroke="black" points="670.5,-714.9 1474.63,-714.9 "/>
<text text-anchor="middle" x="745.71" y="-689.9" font-family="Courier New" font-size="14.00">unallocated (30)</text>
<polyline fill="none" stroke="black" points="820.93,-673.3 820.93,-714.9 "/>
<text text-anchor="middle" x="984.35" y="-698.3" font-family="Courier New" font-size="14.00">bool: Initializable._initializing (1)</text>
<text text-anchor="middle" x="984.35" y="-681.5" font-family="Courier New" font-size="14.00"> false &#160;</text>
<polyline fill="none" stroke="black" points="1147.78,-673.3 1147.78,-714.9 "/>
<text text-anchor="middle" x="1311.2" y="-698.3" font-family="Courier New" font-size="14.00">uint8: Initializable._initialized (1)</text>
<text text-anchor="middle" x="1311.2" y="-681.5" font-family="Courier New" font-size="14.00"> 1 </text>
<polyline fill="none" stroke="black" points="670.5,-673.3 1474.63,-673.3 "/>
<text text-anchor="middle" x="1072.33" y="-656.7" font-family="Courier New" font-size="14.00">uint256[50]: ContextUpgradeable.__gap (1600)</text>
<polyline fill="none" stroke="black" points="670.5,-648.5 1474.63,-648.5 "/>
<text text-anchor="middle" x="812.71" y="-623.5" font-family="Courier New" font-size="14.00">unallocated (12)</text>
<polyline fill="none" stroke="black" points="954.93,-606.9 954.93,-648.5 "/>
<text text-anchor="middle" x="1214.76" y="-631.9" font-family="Courier New" font-size="14.00">address: OwnableUpgradeable._owner (20)</text>
<text text-anchor="middle" x="1214.76" y="-615.1" font-family="Courier New" font-size="14.00"> 0x28Ade60640fdBDb2609D8d8734D1b5cBeFc0C348 </text>
<polyline fill="none" stroke="black" points="670.5,-606.9 1474.63,-606.9 "/>
<text text-anchor="middle" x="1072.33" y="-590.3" font-family="Courier New" font-size="14.00">uint256[49]: OwnableUpgradeable.__gap (1568)</text>
<polyline fill="none" stroke="black" points="670.5,-582.1 1474.63,-582.1 "/>
<text text-anchor="middle" x="810.21" y="-557.1" font-family="Courier New" font-size="14.00">unallocated (12)</text>
<polyline fill="none" stroke="black" points="949.93,-540.5 949.93,-582.1 "/>
<text text-anchor="middle" x="1211.96" y="-565.5" font-family="Courier New" font-size="14.00">IPauserRegistry: Pausable.pauserRegistry (20)</text>
<text text-anchor="middle" x="1211.96" y="-548.7" font-family="Courier New" font-size="14.00"> 0x85Ef7299F8311B25642679edBF02B62FA2212F06 </text>
<polyline fill="none" stroke="black" points="670.5,-540.5 1474.63,-540.5 "/>
<text text-anchor="middle" x="1072.52" y="-523.9" font-family="Courier New" font-size="14.00">uint256: Pausable._paused (32)</text>
<text text-anchor="middle" x="1072.52" y="-507.1" font-family="Courier New" font-size="14.00"> 0 </text>
<polyline fill="none" stroke="black" points="670.5,-498.9 1474.63,-498.9 "/>
<text text-anchor="middle" x="1072.33" y="-482.3" font-family="Courier New" font-size="14.00">uint256[48]: Pausable.__gap (1536)</text>
<polyline fill="none" stroke="black" points="670.5,-474.1 1474.63,-474.1 "/>
<text text-anchor="middle" x="768.21" y="-449.1" font-family="Courier New" font-size="14.00">unallocated (12)</text>
<polyline fill="none" stroke="black" points="865.93,-432.5 865.93,-474.1 "/>
<text text-anchor="middle" x="1169.97" y="-457.5" font-family="Courier New" font-size="14.00">IBeaconChainOracle: EigenPodManagerStorage.beaconChainOracle (20)</text>
<text text-anchor="middle" x="1169.97" y="-440.7" font-family="Courier New" font-size="14.00"> 0x4C116BB629bff7A8373c2378bBd919f8349B8f25 </text>
<polyline fill="none" stroke="black" points="670.5,-432.5 1474.63,-432.5 "/>
<text text-anchor="middle" x="1072.45" y="-415.9" font-family="Courier New" font-size="14.00">mapping(address=&gt;IEigenPod): EigenPodManagerStorage.ownerToPod (32)</text>
<polyline fill="none" stroke="black" points="670.5,-407.7 1474.63,-407.7 "/>
<text text-anchor="middle" x="1072.33" y="-391.1" font-family="Courier New" font-size="14.00">uint256: EigenPodManagerStorage.numPods (32)</text>
<text text-anchor="middle" x="1072.33" y="-374.3" font-family="Courier New" font-size="14.00"> 529 </text>
<polyline fill="none" stroke="black" points="670.5,-366.1 1474.63,-366.1 "/>
<text text-anchor="middle" x="1072.44" y="-349.5" font-family="Courier New" font-size="14.00">uint256: EigenPodManagerStorage.__deprecated_maxPods (32)</text>
<text text-anchor="middle" x="1072.44" y="-332.7" font-family="Courier New" font-size="14.00"> 0 </text>
<polyline fill="none" stroke="black" points="670.5,-324.5 1474.63,-324.5 "/>
<text text-anchor="middle" x="1072.15" y="-307.9" font-family="Courier New" font-size="14.00">mapping(address=&gt;int256): EigenPodManagerStorage.podOwnerShares (32)</text>
<polyline fill="none" stroke="black" points="670.5,-299.7 1474.63,-299.7 "/>
<text text-anchor="middle" x="791.71" y="-274.7" font-family="Courier New" font-size="14.00">unallocated (24)</text>
<polyline fill="none" stroke="black" points="912.93,-258.1 912.93,-299.7 "/>
<text text-anchor="middle" x="1193.76" y="-283.1" font-family="Courier New" font-size="14.00">uint64: EigenPodManagerStorage._denebForkTimestamp (8)</text>
<text text-anchor="middle" x="1193.76" y="-266.3" font-family="Courier New" font-size="14.00"> 1,707,305,664 </text>
<polyline fill="none" stroke="black" points="670.5,-258.1 1474.63,-258.1 "/>
<text text-anchor="middle" x="1072.14" y="-241.5" font-family="Courier New" font-size="14.00">uint256[44]: EigenPodManagerStorage.__gap (1408)</text>
<polyline fill="none" stroke="black" points="670.5,-233.3 1474.63,-233.3 "/>
<text text-anchor="middle" x="1072.14" y="-216.7" font-family="Courier New" font-size="14.00">uint256: ReentrancyGuardUpgradeable._status (32)</text>
<text text-anchor="middle" x="1072.14" y="-199.9" font-family="Courier New" font-size="14.00"> 1 </text>
<polyline fill="none" stroke="black" points="670.5,-191.7 1474.63,-191.7 "/>
<text text-anchor="middle" x="1072.44" y="-175.1" font-family="Courier New" font-size="14.00">uint256[49]: ReentrancyGuardUpgradeable.__gap (1568)</text>
<polyline fill="none" stroke="black" points="670.5,-166.9 1474.63,-166.9 "/>
<text text-anchor="middle" x="1072.15" y="-150.3" font-family="Courier New" font-size="14.00">bytes32 (32)</text>
<text text-anchor="middle" x="1072.15" y="-133.5" font-family="Courier New" font-size="14.00"> 0x0000000000000000000000005265C162F7D5F3FE3175A78828AB16BF5E324A7B </text>
<polyline fill="none" stroke="black" points="670.5,-125.3 1474.63,-125.3 "/>
<text text-anchor="middle" x="1072.15" y="-108.7" font-family="Courier New" font-size="14.00">bytes32 (32)</text>
<text text-anchor="middle" x="1072.15" y="-91.9" font-family="Courier New" font-size="14.00"> 0x0000000000000000000000000000000000000000000000000000000000000000 </text>
<polyline fill="none" stroke="black" points="670.5,-83.7 1474.63,-83.7 "/>
<text text-anchor="middle" x="1072.15" y="-67.1" font-family="Courier New" font-size="14.00">bytes32 (32)</text>
<text text-anchor="middle" x="1072.15" y="-50.3" font-family="Courier New" font-size="14.00"> 0x0000000000000000000000000000000000000000000000000000000000000000 </text>
<polyline fill="none" stroke="black" points="670.5,-42.1 1474.63,-42.1 "/>
<text text-anchor="middle" x="1072.15" y="-25.5" font-family="Courier New" font-size="14.00">bytes32 (32)</text>
<text text-anchor="middle" x="1072.15" y="-8.7" font-family="Courier New" font-size="14.00"> 0x000000000000000000000000DB023566064246399B4AE851197A97729C93A6CF </text>
</g>
</g>
</svg>
