<?xml version="1.0" encoding="UTF-8" standalone="no"?>
<!DOCTYPE svg PUBLIC "-//W3C//DTD SVG 1.1//EN"
 "http://www.w3.org/Graphics/SVG/1.1/DTD/svg11.dtd">
<!-- Generated by graphviz version 5.0.0 (20220707.1540)
 -->
<!-- Title: UmlClassDiagram Pages: 1 -->
<svg width="1433pt" height="337pt"
 viewBox="0.00 0.00 1432.82 336.80" xmlns="http://www.w3.org/2000/svg" xmlns:xlink="http://www.w3.org/1999/xlink">
<g id="graph0" class="graph" transform="scale(1 1) rotate(0) translate(4 332.8)">
<title>UmlClassDiagram</title>
<polygon fill="white" stroke="transparent" points="-4,4 -4,-332.8 1428.82,-332.8 1428.82,4 -4,4"/>
<!-- 3 -->
<g id="node1" class="node">
<title>3</title>
<polygon fill="#f2f2f2" stroke="black" points="3.7,-79.1 3.7,-137.5 481.11,-137.5 481.11,-79.1 3.7,-79.1"/>
<text text-anchor="middle" x="242.41" y="-120.9" font-family="Times,serif" font-size="14.00">&lt;&lt;Abstract&gt;&gt;</text>
<text text-anchor="middle" x="242.41" y="-104.1" font-family="Times,serif" font-size="14.00">OwnableUpgradeable</text>
<text text-anchor="middle" x="242.41" y="-87.3" font-family="Times,serif" font-size="14.00">lib/openzeppelin&#45;contracts&#45;upgradeable/contracts/access/OwnableUpgradeable.sol</text>
</g>
<!-- 2 -->
<g id="node2" class="node">
<title>2</title>
<polygon fill="#f2f2f2" stroke="black" points="156.84,-269.9 156.84,-328.3 603.97,-328.3 603.97,-269.9 156.84,-269.9"/>
<text text-anchor="middle" x="380.41" y="-311.7" font-family="Times,serif" font-size="14.00">&lt;&lt;Abstract&gt;&gt;</text>
<text text-anchor="middle" x="380.41" y="-294.9" font-family="Times,serif" font-size="14.00">Initializable</text>
<text text-anchor="middle" x="380.41" y="-278.1" font-family="Times,serif" font-size="14.00">lib/openzeppelin&#45;contracts&#45;upgradeable/contracts/proxy/utils/Initializable.sol</text>
</g>
<!-- 3&#45;&gt;2 -->
<g id="edge1" class="edge">
<title>3&#45;&gt;2</title>
<path fill="none" stroke="black" d="M89.49,-137.52C54.05,-147.26 23.43,-159.45 12.41,-174 -3.53,-195.04 -4.57,-213.18 12.41,-233.4 29.7,-253.99 74.38,-268.03 126.9,-277.61"/>
<polygon fill="none" stroke="black" points="125.46,-288.01 156.76,-282.48 128.84,-267.28 125.46,-288.01"/>
</g>
<!-- 10 -->
<g id="node4" class="node">
<title>10</title>
<polygon fill="#f2f2f2" stroke="black" points="21.62,-174.5 21.62,-232.9 481.19,-232.9 481.19,-174.5 21.62,-174.5"/>
<text text-anchor="middle" x="251.41" y="-216.3" font-family="Times,serif" font-size="14.00">&lt;&lt;Abstract&gt;&gt;</text>
<text text-anchor="middle" x="251.41" y="-199.5" font-family="Times,serif" font-size="14.00">ContextUpgradeable</text>
<text text-anchor="middle" x="251.41" y="-182.7" font-family="Times,serif" font-size="14.00">lib/openzeppelin&#45;contracts&#45;upgradeable/contracts/utils/ContextUpgradeable.sol</text>
</g>
<!-- 3&#45;&gt;10 -->
<g id="edge2" class="edge">
<title>3&#45;&gt;10</title>
<path fill="none" stroke="black" d="M245.13,-137.58C245.34,-139.75 245.56,-141.99 245.78,-144.27"/>
<polygon fill="none" stroke="black" points="235.33,-145.34 248.66,-174.2 256.24,-143.33 235.33,-145.34"/>
</g>
<!-- 4 -->
<g id="node3" class="node">
<title>4</title>
<polygon fill="#f2f2f2" stroke="black" points="537.32,-174.5 537.32,-232.9 1071.49,-232.9 1071.49,-174.5 537.32,-174.5"/>
<text text-anchor="middle" x="804.41" y="-216.3" font-family="Times,serif" font-size="14.00">&lt;&lt;Abstract&gt;&gt;</text>
<text text-anchor="middle" x="804.41" y="-199.5" font-family="Times,serif" font-size="14.00">ReentrancyGuardUpgradeable</text>
<text text-anchor="middle" x="804.41" y="-182.7" font-family="Times,serif" font-size="14.00">lib/openzeppelin&#45;contracts&#45;upgradeable/contracts/security/ReentrancyGuardUpgradeable.sol</text>
</g>
<!-- 4&#45;&gt;2 -->
<g id="edge3" class="edge">
<title>4&#45;&gt;2</title>
<path fill="none" stroke="black" d="M676.33,-232.91C632.74,-242.52 583.49,-253.36 537.87,-263.41"/>
<polygon fill="none" stroke="black" points="535.54,-253.18 508.5,-269.88 540.06,-273.68 535.54,-253.18"/>
</g>
<!-- 10&#45;&gt;2 -->
<g id="edge4" class="edge">
<title>10&#45;&gt;2</title>
<path fill="none" stroke="black" d="M290.46,-232.98C298.72,-238.96 307.64,-245.42 316.55,-251.86"/>
<polygon fill="none" stroke="black" points="310.58,-260.51 341.04,-269.6 322.9,-243.5 310.58,-260.51"/>
</g>
<!-- 6 -->
<g id="node5" class="node">
<title>6</title>
<polygon fill="#f2f2f2" stroke="black" points="575.9,-87.5 575.9,-129.1 806.92,-129.1 806.92,-87.5 575.9,-87.5"/>
<text text-anchor="middle" x="691.41" y="-112.5" font-family="Times,serif" font-size="14.00">Pausable</text>
<text text-anchor="middle" x="691.41" y="-95.7" font-family="Times,serif" font-size="14.00">src/contracts/permissions/Pausable.sol</text>
</g>
<!-- 0 -->
<g id="node6" class="node">
<title>0</title>
<polygon fill="#f2f2f2" stroke="black" points="496.91,-0.5 496.91,-42.1 741.91,-42.1 741.91,-0.5 496.91,-0.5"/>
<text text-anchor="middle" x="619.41" y="-25.5" font-family="Times,serif" font-size="14.00">EigenPodManager</text>
<text text-anchor="middle" x="619.41" y="-8.7" font-family="Times,serif" font-size="14.00">src/contracts/pods/EigenPodManager.sol</text>
</g>
<!-- 0&#45;&gt;3 -->
<g id="edge6" class="edge">
<title>0&#45;&gt;3</title>
<path fill="none" stroke="black" d="M531.49,-42.12C491.51,-51.14 443,-62.07 397.22,-72.4"/>
<polygon fill="none" stroke="black" points="394.6,-62.22 367.65,-79.06 399.22,-82.71 394.6,-62.22"/>
</g>
<!-- 0&#45;&gt;2 -->
<g id="edge5" class="edge">
<title>0&#45;&gt;2</title>
<path fill="none" stroke="black" d="M589.47,-42.36C576.71,-52.09 562.47,-64.69 552.41,-78.6 508.96,-138.64 538.72,-177.2 490.41,-233.4 484.32,-240.48 477.26,-246.98 469.71,-252.91"/>
<polygon fill="none" stroke="black" points="463.54,-244.4 444.5,-269.85 475.26,-261.83 463.54,-244.4"/>
</g>
<!-- 0&#45;&gt;4 -->
<g id="edge10" class="edge">
<title>0&#45;&gt;4</title>
<path fill="none" stroke="black" d="M593.51,-42.18C582.98,-51.88 572,-64.5 566.41,-78.6 556.67,-103.14 550.37,-117.03 566.41,-138 574.42,-148.49 592.38,-157.68 615.03,-165.58"/>
<polygon fill="none" stroke="black" points="612.29,-175.72 644.04,-174.43 618.41,-155.64 612.29,-175.72"/>
</g>
<!-- 0&#45;&gt;6 -->
<g id="edge7" class="edge">
<title>0&#45;&gt;6</title>
<path fill="none" stroke="black" d="M636.47,-42.44C642.03,-49.01 648.43,-56.56 654.86,-64.15"/>
<polygon fill="none" stroke="black" points="647.07,-71.2 674.47,-87.3 663.09,-57.62 647.07,-71.2"/>
</g>
<!-- 8 -->
<g id="node7" class="node">
<title>8</title>
<polygon fill="#f2f2f2" stroke="black" points="824.52,-79.1 824.52,-137.5 1112.29,-137.5 1112.29,-79.1 824.52,-79.1"/>
<text text-anchor="middle" x="968.41" y="-120.9" font-family="Times,serif" font-size="14.00">&lt;&lt;Abstract&gt;&gt;</text>
<text text-anchor="middle" x="968.41" y="-104.1" font-family="Times,serif" font-size="14.00">EigenPodManagerStorage</text>
<text text-anchor="middle" x="968.41" y="-87.3" font-family="Times,serif" font-size="14.00">src/contracts/pods/EigenPodManagerStorage.sol</text>
</g>
<!-- 0&#45;&gt;8 -->
<g id="edge9" class="edge">
<title>0&#45;&gt;8</title>
<path fill="none" stroke="black" d="M700.79,-42.12C737.27,-51.01 781.44,-61.76 823.28,-71.95"/>
<polygon fill="none" stroke="black" points="820.84,-82.17 852.47,-79.06 825.81,-61.76 820.84,-82.17"/>
</g>
<!-- 7 -->
<g id="node8" class="node">
<title>7</title>
<polygon fill="#f2f2f2" stroke="black" points="1130,-79.1 1130,-137.5 1424.82,-137.5 1424.82,-79.1 1130,-79.1"/>
<text text-anchor="middle" x="1277.41" y="-120.9" font-family="Times,serif" font-size="14.00">&lt;&lt;Abstract&gt;&gt;</text>
<text text-anchor="middle" x="1277.41" y="-104.1" font-family="Times,serif" font-size="14.00">EigenPodPausingConstants</text>
<text text-anchor="middle" x="1277.41" y="-87.3" font-family="Times,serif" font-size="14.00">src/contracts/pods/EigenPodPausingConstants.sol</text>
</g>
<!-- 0&#45;&gt;7 -->
<g id="edge8" class="edge">
<title>0&#45;&gt;7</title>
<path fill="none" stroke="black" d="M741.96,-33.62C836.43,-42.88 971.13,-57.25 1099.73,-75.51"/>
<polygon fill="none" stroke="black" points="1098.45,-85.93 1129.65,-79.84 1101.47,-65.15 1098.45,-85.93"/>
</g>
</g>
</svg>
