<?xml version="1.0" encoding="UTF-8" standalone="no"?>
<!DOCTYPE svg PUBLIC "-//W3C//DTD SVG 1.1//EN"
 "http://www.w3.org/Graphics/SVG/1.1/DTD/svg11.dtd">
<!-- Generated by graphviz version 5.0.0 (20220707.1540)
 -->
<!-- Title: UmlClassDiagram Pages: 1 -->
<svg width="1879pt" height="337pt"
 viewBox="0.00 0.00 1879.32 336.80" xmlns="http://www.w3.org/2000/svg" xmlns:xlink="http://www.w3.org/1999/xlink">
<g id="graph0" class="graph" transform="scale(1 1) rotate(0) translate(4 332.8)">
<title>UmlClassDiagram</title>
<polygon fill="white" stroke="transparent" points="-4,4 -4,-332.8 1875.32,-332.8 1875.32,4 -4,4"/>
<!-- 5 -->
<g id="node1" class="node">
<title>5</title>
<polygon fill="#f2f2f2" stroke="black" points="3.29,-79.1 3.29,-137.5 480.71,-137.5 480.71,-79.1 3.29,-79.1"/>
<text text-anchor="middle" x="242" y="-120.9" font-family="Times,serif" font-size="14.00">&lt;&lt;Abstract&gt;&gt;</text>
<text text-anchor="middle" x="242" y="-104.1" font-family="Times,serif" font-size="14.00">OwnableUpgradeable</text>
<text text-anchor="middle" x="242" y="-87.3" font-family="Times,serif" font-size="14.00">lib/openzeppelin&#45;contracts&#45;upgradeable/contracts/access/OwnableUpgradeable.sol</text>
</g>
<!-- 4 -->
<g id="node2" class="node">
<title>4</title>
<polygon fill="#f2f2f2" stroke="black" points="27.44,-269.9 27.44,-328.3 474.57,-328.3 474.57,-269.9 27.44,-269.9"/>
<text text-anchor="middle" x="251" y="-311.7" font-family="Times,serif" font-size="14.00">&lt;&lt;Abstract&gt;&gt;</text>
<text text-anchor="middle" x="251" y="-294.9" font-family="Times,serif" font-size="14.00">Initializable</text>
<text text-anchor="middle" x="251" y="-278.1" font-family="Times,serif" font-size="14.00">lib/openzeppelin&#45;contracts&#45;upgradeable/contracts/proxy/utils/Initializable.sol</text>
</g>
<!-- 5&#45;&gt;4 -->
<g id="edge1" class="edge">
<title>5&#45;&gt;4</title>
<path fill="none" stroke="black" d="M89.09,-137.52C53.64,-147.26 23.02,-159.45 12,-174 -3.94,-195.04 -4.04,-212.43 12,-233.4 20.03,-243.89 37.99,-253.08 60.64,-260.98"/>
<polygon fill="none" stroke="black" points="57.9,-271.12 89.66,-269.82 64.02,-251.03 57.9,-271.12"/>
</g>
<!-- 22 -->
<g id="node3" class="node">
<title>22</title>
<polygon fill="#f2f2f2" stroke="black" points="21.22,-174.5 21.22,-232.9 480.79,-232.9 480.79,-174.5 21.22,-174.5"/>
<text text-anchor="middle" x="251" y="-216.3" font-family="Times,serif" font-size="14.00">&lt;&lt;Abstract&gt;&gt;</text>
<text text-anchor="middle" x="251" y="-199.5" font-family="Times,serif" font-size="14.00">ContextUpgradeable</text>
<text text-anchor="middle" x="251" y="-182.7" font-family="Times,serif" font-size="14.00">lib/openzeppelin&#45;contracts&#45;upgradeable/contracts/utils/ContextUpgradeable.sol</text>
</g>
<!-- 5&#45;&gt;22 -->
<g id="edge2" class="edge">
<title>5&#45;&gt;22</title>
<path fill="none" stroke="black" d="M244.73,-137.58C244.94,-139.75 245.15,-141.99 245.37,-144.27"/>
<polygon fill="none" stroke="black" points="234.93,-145.34 248.25,-174.2 255.83,-143.33 234.93,-145.34"/>
</g>
<!-- 22&#45;&gt;4 -->
<g id="edge3" class="edge">
<title>22&#45;&gt;4</title>
<path fill="none" stroke="black" d="M251,-232.98C251,-235.06 251,-237.2 251,-239.38"/>
<polygon fill="none" stroke="black" points="240.5,-239.6 251,-269.6 261.5,-239.6 240.5,-239.6"/>
</g>
<!-- 20 -->
<g id="node4" class="node">
<title>20</title>
<polygon fill="#f2f2f2" stroke="black" points="1099.13,-79.1 1099.13,-137.5 1540.87,-137.5 1540.87,-79.1 1099.13,-79.1"/>
<text text-anchor="middle" x="1320" y="-120.9" font-family="Times,serif" font-size="14.00">&lt;&lt;Abstract&gt;&gt;</text>
<text text-anchor="middle" x="1320" y="-104.1" font-family="Times,serif" font-size="14.00">ERC1967Upgrade</text>
<text text-anchor="middle" x="1320" y="-87.3" font-family="Times,serif" font-size="14.00">lib/openzeppelin&#45;contracts/contracts/proxy/ERC1967/ERC1967Upgrade.sol</text>
</g>
<!-- 19 -->
<g id="node5" class="node">
<title>19</title>
<polygon fill="#f2f2f2" stroke="black" points="1558.68,-79.1 1558.68,-137.5 1871.32,-137.5 1871.32,-79.1 1558.68,-79.1"/>
<text text-anchor="middle" x="1715" y="-120.9" font-family="Times,serif" font-size="14.00">&lt;&lt;Abstract&gt;&gt;</text>
<text text-anchor="middle" x="1715" y="-104.1" font-family="Times,serif" font-size="14.00">Proxy</text>
<text text-anchor="middle" x="1715" y="-87.3" font-family="Times,serif" font-size="14.00">lib/openzeppelin&#45;contracts/contracts/proxy/Proxy.sol</text>
</g>
<!-- 2 -->
<g id="node6" class="node">
<title>2</title>
<polygon fill="#f2f2f2" stroke="black" points="1317.92,-0.5 1317.92,-42.1 1716.08,-42.1 1716.08,-0.5 1317.92,-0.5"/>
<text text-anchor="middle" x="1517" y="-25.5" font-family="Times,serif" font-size="14.00">BeaconProxy</text>
<text text-anchor="middle" x="1517" y="-8.7" font-family="Times,serif" font-size="14.00">lib/openzeppelin&#45;contracts/contracts/proxy/beacon/BeaconProxy.sol</text>
</g>
<!-- 2&#45;&gt;20 -->
<g id="edge5" class="edge">
<title>2&#45;&gt;20</title>
<path fill="none" stroke="black" d="M1470.81,-42.23C1453.58,-49.67 1433.33,-58.4 1413.36,-67.02"/>
<polygon fill="none" stroke="black" points="1409.05,-57.44 1385.67,-78.97 1417.37,-76.72 1409.05,-57.44"/>
</g>
<!-- 2&#45;&gt;19 -->
<g id="edge4" class="edge">
<title>2&#45;&gt;19</title>
<path fill="none" stroke="black" d="M1563.17,-42.12C1580.67,-49.63 1601.28,-58.48 1621.58,-67.2"/>
<polygon fill="none" stroke="black" points="1617.52,-76.88 1649.22,-79.06 1625.8,-57.58 1617.52,-76.88"/>
</g>
<!-- 17 -->
<g id="node7" class="node">
<title>17</title>
<polygon fill="#f2f2f2" stroke="black" points="537.49,-87.5 537.49,-129.1 768.51,-129.1 768.51,-87.5 537.49,-87.5"/>
<text text-anchor="middle" x="653" y="-112.5" font-family="Times,serif" font-size="14.00">Pausable</text>
<text text-anchor="middle" x="653" y="-95.7" font-family="Times,serif" font-size="14.00">src/contracts/permissions/Pausable.sol</text>
</g>
<!-- 0 -->
<g id="node8" class="node">
<title>0</title>
<polygon fill="#f2f2f2" stroke="black" points="458.5,-0.5 458.5,-42.1 703.5,-42.1 703.5,-0.5 458.5,-0.5"/>
<text text-anchor="middle" x="581" y="-25.5" font-family="Times,serif" font-size="14.00">EigenPodManager</text>
<text text-anchor="middle" x="581" y="-8.7" font-family="Times,serif" font-size="14.00">src/contracts/pods/EigenPodManager.sol</text>
</g>
<!-- 0&#45;&gt;5 -->
<g id="edge7" class="edge">
<title>0&#45;&gt;5</title>
<path fill="none" stroke="black" d="M501.95,-42.12C466.77,-50.94 424.24,-61.61 383.86,-71.73"/>
<polygon fill="none" stroke="black" points="381.16,-61.58 354.62,-79.06 386.27,-81.95 381.16,-61.58"/>
</g>
<!-- 0&#45;&gt;4 -->
<g id="edge6" class="edge">
<title>0&#45;&gt;4</title>
<path fill="none" stroke="black" d="M557.46,-42.12C547.02,-52.08 535.44,-64.92 528,-78.6 494.16,-140.84 539.5,-182.72 490,-233.4 481.98,-241.61 473.04,-248.81 463.45,-255.12"/>
<polygon fill="none" stroke="black" points="457.95,-246.17 436.74,-269.85 468.09,-264.56 457.95,-246.17"/>
</g>
<!-- 0&#45;&gt;17 -->
<g id="edge8" class="edge">
<title>0&#45;&gt;17</title>
<path fill="none" stroke="black" d="M598.06,-42.44C603.62,-49.01 610.02,-56.56 616.45,-64.15"/>
<polygon fill="none" stroke="black" points="608.66,-71.2 636.06,-87.3 624.68,-57.62 608.66,-71.2"/>
</g>
<!-- 18 -->
<g id="node9" class="node">
<title>18</title>
<polygon fill="#f2f2f2" stroke="black" points="786.59,-79.1 786.59,-137.5 1081.41,-137.5 1081.41,-79.1 786.59,-79.1"/>
<text text-anchor="middle" x="934" y="-120.9" font-family="Times,serif" font-size="14.00">&lt;&lt;Abstract&gt;&gt;</text>
<text text-anchor="middle" x="934" y="-104.1" font-family="Times,serif" font-size="14.00">EigenPodPausingConstants</text>
<text text-anchor="middle" x="934" y="-87.3" font-family="Times,serif" font-size="14.00">src/contracts/pods/EigenPodPausingConstants.sol</text>
</g>
<!-- 0&#45;&gt;18 -->
<g id="edge9" class="edge">
<title>0&#45;&gt;18</title>
<path fill="none" stroke="black" d="M663.32,-42.12C700.31,-51.03 745.1,-61.81 787.51,-72.03"/>
<polygon fill="none" stroke="black" points="785.11,-82.25 816.73,-79.06 790.02,-61.83 785.11,-82.25"/>
</g>
</g>
</svg>
