<?xml version="1.0" encoding="UTF-8" standalone="no"?>
<!DOCTYPE svg PUBLIC "-//W3C//DTD SVG 1.1//EN"
 "http://www.w3.org/Graphics/SVG/1.1/DTD/svg11.dtd">
<!-- Generated by graphviz version 5.0.0 (20220707.1540)
 -->
<!-- Title: StorageDiagram Pages: 1 -->
<svg width="1877pt" height="583pt"
 viewBox="0.00 0.00 1876.69 582.60" xmlns="http://www.w3.org/2000/svg" xmlns:xlink="http://www.w3.org/1999/xlink">
<g id="graph0" class="graph" transform="scale(1 1) rotate(0) translate(4 578.6)">
<title>StorageDiagram</title>
<polygon fill="white" stroke="transparent" points="-4,4 -4,-578.6 1872.69,-578.6 1872.69,4 -4,4"/>
<!-- 1 -->
<g id="node1" class="node">
<title>1</title>
<polygon fill="#f2f2f2" stroke="black" points="0,-0.5 0,-574.1 1868.69,-574.1 1868.69,-0.5 0,-0.5"/>
<text text-anchor="middle" x="934.34" y="-557.5" font-family="Courier New" font-size="14.00">StrategyBaseTVLLimits &lt;&lt;Contract&gt;&gt;</text>
<text text-anchor="middle" x="934.34" y="-540.7" font-family="Courier New" font-size="14.00">0xdfdA04f980bE6A64E3607c95Ca26012Ab9aA46d3</text>
<polyline fill="none" stroke="black" points="0,-532.5 1868.69,-532.5 "/>
<text text-anchor="middle" x="50.01" y="-515.9" font-family="Courier New" font-size="14.00">slot</text>
<text text-anchor="middle" x="50.01" y="-499.1" font-family="Courier New" font-size="14.00"> &#160;</text>
<polyline fill="none" stroke="black" points="0,-490.9 100.01,-490.9 "/>
<text text-anchor="middle" x="50.01" y="-474.3" font-family="Courier New" font-size="14.00">0</text>
<text text-anchor="middle" x="50.01" y="-457.5" font-family="Courier New" font-size="14.00"> &#160;</text>
<polyline fill="none" stroke="black" points="0,-449.3 100.01,-449.3 "/>
<text text-anchor="middle" x="50.01" y="-432.7" font-family="Courier New" font-size="14.00">1</text>
<text text-anchor="middle" x="50.01" y="-415.9" font-family="Courier New" font-size="14.00"> &#160;</text>
<polyline fill="none" stroke="black" points="0,-407.7 100.01,-407.7 "/>
<text text-anchor="middle" x="50.01" y="-391.1" font-family="Courier New" font-size="14.00">2&#45;49 </text>
<polyline fill="none" stroke="black" points="0,-382.9 100.01,-382.9 "/>
<text text-anchor="middle" x="50.01" y="-366.3" font-family="Courier New" font-size="14.00">50</text>
<text text-anchor="middle" x="50.01" y="-349.5" font-family="Courier New" font-size="14.00"> &#160;</text>
<polyline fill="none" stroke="black" points="0,-341.3 100.01,-341.3 "/>
<text text-anchor="middle" x="50.01" y="-324.7" font-family="Courier New" font-size="14.00">51</text>
<text text-anchor="middle" x="50.01" y="-307.9" font-family="Courier New" font-size="14.00"> &#160;</text>
<polyline fill="none" stroke="black" points="0,-299.7 100.01,-299.7 "/>
<text text-anchor="middle" x="50.01" y="-283.1" font-family="Courier New" font-size="14.00">52&#45;99 </text>
<polyline fill="none" stroke="black" points="0,-274.9 100.01,-274.9 "/>
<text text-anchor="middle" x="50.01" y="-258.3" font-family="Courier New" font-size="14.00">100</text>
<text text-anchor="middle" x="50.01" y="-241.5" font-family="Courier New" font-size="14.00"> &#160;</text>
<polyline fill="none" stroke="black" points="0,-233.3 100.01,-233.3 "/>
<text text-anchor="middle" x="50.01" y="-216.7" font-family="Courier New" font-size="14.00">101</text>
<text text-anchor="middle" x="50.01" y="-199.9" font-family="Courier New" font-size="14.00"> &#160;</text>
<polyline fill="none" stroke="black" points="0,-191.7 100.01,-191.7 "/>
<text text-anchor="middle" x="50.01" y="-175.1" font-family="Courier New" font-size="14.00">102&#45;149 </text>
<polyline fill="none" stroke="black" points="0,-166.9 100.01,-166.9 "/>
<text text-anchor="middle" x="50.01" y="-150.3" font-family="Courier New" font-size="14.00">0x360..bbc</text>
<text text-anchor="middle" x="50.01" y="-133.5" font-family="Courier New" font-size="14.00"> &#160;</text>
<polyline fill="none" stroke="black" points="0,-125.3 100.01,-125.3 "/>
<text text-anchor="middle" x="50.01" y="-108.7" font-family="Courier New" font-size="14.00">0x491..143</text>
<text text-anchor="middle" x="50.01" y="-91.9" font-family="Courier New" font-size="14.00"> &#160;</text>
<polyline fill="none" stroke="black" points="0,-83.7 100.01,-83.7 "/>
<text text-anchor="middle" x="50.01" y="-67.1" font-family="Courier New" font-size="14.00">0xa3f..d50</text>
<text text-anchor="middle" x="50.01" y="-50.3" font-family="Courier New" font-size="14.00"> &#160;</text>
<polyline fill="none" stroke="black" points="0,-42.1 100.01,-42.1 "/>
<text text-anchor="middle" x="50.01" y="-25.5" font-family="Courier New" font-size="14.00">0xb53..103</text>
<text text-anchor="middle" x="50.01" y="-8.7" font-family="Courier New" font-size="14.00"> </text>
<polyline fill="none" stroke="black" points="100.01,-0.5 100.01,-532.5 "/>
<text text-anchor="middle" x="385.26" y="-515.9" font-family="Courier New" font-size="14.00">value</text>
<text text-anchor="middle" x="385.26" y="-499.1" font-family="Courier New" font-size="14.00"> &#160;</text>
<polyline fill="none" stroke="black" points="100.01,-490.9 670.5,-490.9 "/>
<text text-anchor="middle" x="385.26" y="-474.3" font-family="Courier New" font-size="14.00">0x000000000000000000000C431C66F4DE941D089625E5B423D007079770600001</text>
<text text-anchor="middle" x="385.26" y="-457.5" font-family="Courier New" font-size="14.00"> &#160;</text>
<polyline fill="none" stroke="black" points="100.01,-449.3 670.5,-449.3 "/>
<text text-anchor="middle" x="385.26" y="-432.7" font-family="Courier New" font-size="14.00">0x0000000000000000000000000000000000000000000000000000000000000000</text>
<text text-anchor="middle" x="385.26" y="-415.9" font-family="Courier New" font-size="14.00"> &#160;</text>
<polyline fill="none" stroke="black" points="100.01,-407.7 670.5,-407.7 "/>
<text text-anchor="middle" x="385.26" y="-391.1" font-family="Courier New" font-size="14.00"> </text>
<polyline fill="none" stroke="black" points="100.01,-382.9 670.5,-382.9 "/>
<text text-anchor="middle" x="385.26" y="-366.3" font-family="Courier New" font-size="14.00">0x000000000000000000000000856C4EFB76C1D1AE02E20CEB03A2A6A08B0B8DC3</text>
<text text-anchor="middle" x="385.26" y="-349.5" font-family="Courier New" font-size="14.00"> &#160;</text>
<polyline fill="none" stroke="black" points="100.01,-341.3 670.5,-341.3 "/>
<text text-anchor="middle" x="385.26" y="-324.7" font-family="Courier New" font-size="14.00">0x0000000000000000000000000000000000000000000004658C56FEAC4DE396AC</text>
<text text-anchor="middle" x="385.26" y="-307.9" font-family="Courier New" font-size="14.00"> &#160;</text>
<polyline fill="none" stroke="black" points="100.01,-299.7 670.5,-299.7 "/>
<text text-anchor="middle" x="385.26" y="-283.1" font-family="Courier New" font-size="14.00"> </text>
<polyline fill="none" stroke="black" points="100.01,-274.9 670.5,-274.9 "/>
<text text-anchor="middle" x="385.26" y="-258.3" font-family="Courier New" font-size="14.00">0xFFFFFFFFFFFFFFFFFFFFFFFFFFFFFFFFFFFFFFFFFFFFFFFFFFFFFFFFFFFFFFFF</text>
<text text-anchor="middle" x="385.26" y="-241.5" font-family="Courier New" font-size="14.00"> &#160;</text>
<polyline fill="none" stroke="black" points="100.01,-233.3 670.5,-233.3 "/>
<text text-anchor="middle" x="385.26" y="-216.7" font-family="Courier New" font-size="14.00">0xFFFFFFFFFFFFFFFFFFFFFFFFFFFFFFFFFFFFFFFFFFFFFFFFFFFFFFFFFFFFFFFF</text>
<text text-anchor="middle" x="385.26" y="-199.9" font-family="Courier New" font-size="14.00"> &#160;</text>
<polyline fill="none" stroke="black" points="100.01,-191.7 670.5,-191.7 "/>
<text text-anchor="middle" x="385.26" y="-175.1" font-family="Courier New" font-size="14.00"> </text>
<polyline fill="none" stroke="black" points="100.01,-166.9 670.5,-166.9 "/>
<text text-anchor="middle" x="385.26" y="-150.3" font-family="Courier New" font-size="14.00">0x000000000000000000000000DFDA04F980BE6A64E3607C95CA26012AB9AA46D3</text>
<text text-anchor="middle" x="385.26" y="-133.5" font-family="Courier New" font-size="14.00"> &#160;</text>
<polyline fill="none" stroke="black" points="100.01,-125.3 670.5,-125.3 "/>
<text text-anchor="middle" x="385.26" y="-108.7" font-family="Courier New" font-size="14.00">0x0000000000000000000000000000000000000000000000000000000000000000</text>
<text text-anchor="middle" x="385.26" y="-91.9" font-family="Courier New" font-size="14.00"> &#160;</text>
<polyline fill="none" stroke="black" points="100.01,-83.7 670.5,-83.7 "/>
<text text-anchor="middle" x="385.26" y="-67.1" font-family="Courier New" font-size="14.00">0x0000000000000000000000000000000000000000000000000000000000000000</text>
<text text-anchor="middle" x="385.26" y="-50.3" font-family="Courier New" font-size="14.00"> &#160;</text>
<polyline fill="none" stroke="black" points="100.01,-42.1 670.5,-42.1 "/>
<text text-anchor="middle" x="385.26" y="-25.5" font-family="Courier New" font-size="14.00">0x0000000000000000000000008B9566ADA63B64D1E1DCF1418B43FD1433B72444</text>
<text text-anchor="middle" x="385.26" y="-8.7" font-family="Courier New" font-size="14.00"> </text>
<polyline fill="none" stroke="black" points="670.5,-0.5 670.5,-532.5 "/>
<text text-anchor="middle" x="1269.6" y="-515.9" font-family="Courier New" font-size="14.00">type: &lt;inherited contract&gt;.variable (bytes)</text>
<text text-anchor="middle" x="1269.6" y="-499.1" font-family="Courier New" font-size="14.00">decoded data</text>
<polyline fill="none" stroke="black" points="670.5,-490.9 1868.69,-490.9 "/>
<text text-anchor="middle" x="745.71" y="-465.9" font-family="Courier New" font-size="14.00">unallocated (10)</text>
<polyline fill="none" stroke="black" points="820.93,-449.3 820.93,-490.9 "/>
<text text-anchor="middle" x="1017.96" y="-474.3" font-family="Courier New" font-size="14.00">IPauserRegistry: Pausable.pauserRegistry (20)</text>
<text text-anchor="middle" x="1017.96" y="-457.5" font-family="Courier New" font-size="14.00"> 0x0c431C66F4dE941d089625E5B423D00707977060 &#160;</text>
<polyline fill="none" stroke="black" points="1214.99,-449.3 1214.99,-490.9 "/>
<text text-anchor="middle" x="1378.41" y="-474.3" font-family="Courier New" font-size="14.00">bool: Initializable._initializing (1)</text>
<text text-anchor="middle" x="1378.41" y="-457.5" font-family="Courier New" font-size="14.00"> false &#160;</text>
<polyline fill="none" stroke="black" points="1541.84,-449.3 1541.84,-490.9 "/>
<text text-anchor="middle" x="1705.26" y="-474.3" font-family="Courier New" font-size="14.00">uint8: Initializable._initialized (1)</text>
<text text-anchor="middle" x="1705.26" y="-457.5" font-family="Courier New" font-size="14.00"> 1 </text>
<polyline fill="none" stroke="black" points="670.5,-449.3 1868.69,-449.3 "/>
<text text-anchor="middle" x="1269.52" y="-432.7" font-family="Courier New" font-size="14.00">uint256: Pausable._paused (32)</text>
<text text-anchor="middle" x="1269.52" y="-415.9" font-family="Courier New" font-size="14.00"> 0 </text>
<polyline fill="none" stroke="black" points="670.5,-407.7 1868.69,-407.7 "/>
<text text-anchor="middle" x="1269.33" y="-391.1" font-family="Courier New" font-size="14.00">uint256[48]: Pausable.__gap (1536)</text>
<polyline fill="none" stroke="black" points="670.5,-382.9 1868.69,-382.9 "/>
<text text-anchor="middle" x="911.21" y="-357.9" font-family="Courier New" font-size="14.00">unallocated (12)</text>
<polyline fill="none" stroke="black" points="1151.93,-341.3 1151.93,-382.9 "/>
<text text-anchor="middle" x="1510.26" y="-366.3" font-family="Courier New" font-size="14.00">IERC20: StrategyBase.underlyingToken (20)</text>
<text text-anchor="middle" x="1510.26" y="-349.5" font-family="Courier New" font-size="14.00"> 0x856c4Efb76C1D1AE02e20CEB03A2A6a08b0b8dC3 </text>
<polyline fill="none" stroke="black" points="670.5,-341.3 1868.69,-341.3 "/>
<text text-anchor="middle" x="1269.13" y="-324.7" font-family="Courier New" font-size="14.00">uint256: StrategyBase.totalShares (32)</text>
<text text-anchor="middle" x="1269.13" y="-307.9" font-family="Courier New" font-size="14.00"> 20,762,699,632,952,547,186,348 </text>
<polyline fill="none" stroke="black" points="670.5,-299.7 1868.69,-299.7 "/>
<text text-anchor="middle" x="1269.13" y="-283.1" font-family="Courier New" font-size="14.00">uint256[48]: StrategyBase.__gap (1536)</text>
<polyline fill="none" stroke="black" points="670.5,-274.9 1868.69,-274.9 "/>
<text text-anchor="middle" x="1269.58" y="-258.3" font-family="Courier New" font-size="14.00">uint256: maxPerDeposit (32)</text>
<text text-anchor="middle" x="1269.58" y="-241.5" font-family="Courier New" font-size="14.00"> 115,792,089,237,316,195,423,570,985,008,687,907,853,269,984,665,640,564,039,457,584,007,913,129,639,935 </text>
<polyline fill="none" stroke="black" points="670.5,-233.3 1868.69,-233.3 "/>
<text text-anchor="middle" x="1269.58" y="-216.7" font-family="Courier New" font-size="14.00">uint256: maxTotalDeposits (32)</text>
<text text-anchor="middle" x="1269.58" y="-199.9" font-family="Courier New" font-size="14.00"> 115,792,089,237,316,195,423,570,985,008,687,907,853,269,984,665,640,564,039,457,584,007,913,129,639,935 </text>
<polyline fill="none" stroke="black" points="670.5,-191.7 1868.69,-191.7 "/>
<text text-anchor="middle" x="1269.52" y="-175.1" font-family="Courier New" font-size="14.00">uint256[48]: __gap (1536)</text>
<polyline fill="none" stroke="black" points="670.5,-166.9 1868.69,-166.9 "/>
<text text-anchor="middle" x="1269.15" y="-150.3" font-family="Courier New" font-size="14.00">bytes32 (32)</text>
<text text-anchor="middle" x="1269.15" y="-133.5" font-family="Courier New" font-size="14.00"> 0x000000000000000000000000DFDA04F980BE6A64E3607C95CA26012AB9AA46D3 </text>
<polyline fill="none" stroke="black" points="670.5,-125.3 1868.69,-125.3 "/>
<text text-anchor="middle" x="1269.15" y="-108.7" font-family="Courier New" font-size="14.00">bytes32 (32)</text>
<text text-anchor="middle" x="1269.15" y="-91.9" font-family="Courier New" font-size="14.00"> 0x0000000000000000000000000000000000000000000000000000000000000000 </text>
<polyline fill="none" stroke="black" points="670.5,-83.7 1868.69,-83.7 "/>
<text text-anchor="middle" x="1269.15" y="-67.1" font-family="Courier New" font-size="14.00">bytes32 (32)</text>
<text text-anchor="middle" x="1269.15" y="-50.3" font-family="Courier New" font-size="14.00"> 0x0000000000000000000000000000000000000000000000000000000000000000 </text>
<polyline fill="none" stroke="black" points="670.5,-42.1 1868.69,-42.1 "/>
<text text-anchor="middle" x="1269.15" y="-25.5" font-family="Courier New" font-size="14.00">bytes32 (32)</text>
<text text-anchor="middle" x="1269.15" y="-8.7" font-family="Courier New" font-size="14.00"> 0x0000000000000000000000008B9566ADA63B64D1E1DCF1418B43FD1433B72444 </text>
</g>
</g>
</svg>
