<?xml version="1.0" encoding="UTF-8" standalone="no"?>
<!DOCTYPE svg PUBLIC "-//W3C//DTD SVG 1.1//EN"
 "http://www.w3.org/Graphics/SVG/1.1/DTD/svg11.dtd">
<!-- Generated by graphviz version 5.0.0 (20220707.1540)
 -->
<!-- Title: StorageDiagram Pages: 1 -->
<svg width="1457pt" height="333pt"
 viewBox="0.00 0.00 1457.42 333.00" xmlns="http://www.w3.org/2000/svg" xmlns:xlink="http://www.w3.org/1999/xlink">
<g id="graph0" class="graph" transform="scale(1 1) rotate(0) translate(4 329)">
<title>StorageDiagram</title>
<polygon fill="white" stroke="transparent" points="-4,4 -4,-329 1453.42,-329 1453.42,4 -4,4"/>
<!-- 1 -->
<g id="node1" class="node">
<title>1</title>
<polygon fill="#f2f2f2" stroke="black" points="0,-0.5 0,-324.5 1449.42,-324.5 1449.42,-0.5 0,-0.5"/>
<text text-anchor="middle" x="724.71" y="-307.9" font-family="Courier New" font-size="14.00">Slasher &lt;&lt;Contract&gt;&gt;</text>
<text text-anchor="middle" x="724.71" y="-291.1" font-family="Courier New" font-size="14.00">0x99715D255E34a39bE9943b82F281CA734bcF345A</text>
<polyline fill="none" stroke="black" points="0,-282.9 1449.42,-282.9 "/>
<text text-anchor="middle" x="37.4" y="-266.3" font-family="Courier New" font-size="14.00">slot</text>
<text text-anchor="middle" x="37.4" y="-249.5" font-family="Courier New" font-size="14.00"> &#160;</text>
<polyline fill="none" stroke="black" points="0,-241.3 74.81,-241.3 "/>
<text text-anchor="middle" x="37.4" y="-224.7" font-family="Courier New" font-size="14.00">0</text>
<text text-anchor="middle" x="37.4" y="-207.9" font-family="Courier New" font-size="14.00"> &#160;</text>
<polyline fill="none" stroke="black" points="0,-199.7 74.81,-199.7 "/>
<text text-anchor="middle" x="37.4" y="-183.1" font-family="Courier New" font-size="14.00">1&#45;50 </text>
<polyline fill="none" stroke="black" points="0,-174.9 74.81,-174.9 "/>
<text text-anchor="middle" x="37.4" y="-158.3" font-family="Courier New" font-size="14.00">51</text>
<text text-anchor="middle" x="37.4" y="-141.5" font-family="Courier New" font-size="14.00"> &#160;</text>
<polyline fill="none" stroke="black" points="0,-133.3 74.81,-133.3 "/>
<text text-anchor="middle" x="37.4" y="-116.7" font-family="Courier New" font-size="14.00">52&#45;100 </text>
<polyline fill="none" stroke="black" points="0,-108.5 74.81,-108.5 "/>
<text text-anchor="middle" x="37.4" y="-91.9" font-family="Courier New" font-size="14.00">101</text>
<text text-anchor="middle" x="37.4" y="-75.1" font-family="Courier New" font-size="14.00"> &#160;</text>
<polyline fill="none" stroke="black" points="0,-66.9 74.81,-66.9 "/>
<text text-anchor="middle" x="37.4" y="-50.3" font-family="Courier New" font-size="14.00">102</text>
<text text-anchor="middle" x="37.4" y="-33.5" font-family="Courier New" font-size="14.00"> &#160;</text>
<polyline fill="none" stroke="black" points="0,-25.3 74.81,-25.3 "/>
<text text-anchor="middle" x="37.4" y="-8.7" font-family="Courier New" font-size="14.00">103&#45;150</text>
<polyline fill="none" stroke="black" points="74.81,-0.5 74.81,-282.9 "/>
<text text-anchor="middle" x="360.05" y="-266.3" font-family="Courier New" font-size="14.00">value</text>
<text text-anchor="middle" x="360.05" y="-249.5" font-family="Courier New" font-size="14.00"> &#160;</text>
<polyline fill="none" stroke="black" points="74.81,-241.3 645.3,-241.3 "/>
<text text-anchor="middle" x="360.05" y="-224.7" font-family="Courier New" font-size="14.00">0x0000000000000000000000000000000000000000000000000000000000000000</text>
<text text-anchor="middle" x="360.05" y="-207.9" font-family="Courier New" font-size="14.00"> &#160;</text>
<polyline fill="none" stroke="black" points="74.81,-199.7 645.3,-199.7 "/>
<text text-anchor="middle" x="360.05" y="-183.1" font-family="Courier New" font-size="14.00"> </text>
<polyline fill="none" stroke="black" points="74.81,-174.9 645.3,-174.9 "/>
<text text-anchor="middle" x="360.05" y="-158.3" font-family="Courier New" font-size="14.00">0x0000000000000000000000000000000000000000000000000000000000000000</text>
<text text-anchor="middle" x="360.05" y="-141.5" font-family="Courier New" font-size="14.00"> &#160;</text>
<polyline fill="none" stroke="black" points="74.81,-133.3 645.3,-133.3 "/>
<text text-anchor="middle" x="360.05" y="-116.7" font-family="Courier New" font-size="14.00"> </text>
<polyline fill="none" stroke="black" points="74.81,-108.5 645.3,-108.5 "/>
<text text-anchor="middle" x="360.05" y="-91.9" font-family="Courier New" font-size="14.00">0x0000000000000000000000000000000000000000000000000000000000000000</text>
<text text-anchor="middle" x="360.05" y="-75.1" font-family="Courier New" font-size="14.00"> &#160;</text>
<polyline fill="none" stroke="black" points="74.81,-66.9 645.3,-66.9 "/>
<text text-anchor="middle" x="360.05" y="-50.3" font-family="Courier New" font-size="14.00">0x0000000000000000000000000000000000000000000000000000000000000000</text>
<text text-anchor="middle" x="360.05" y="-33.5" font-family="Courier New" font-size="14.00"> &#160;</text>
<polyline fill="none" stroke="black" points="74.81,-25.3 645.3,-25.3 "/>
<text text-anchor="middle" x="360.05" y="-8.7" font-family="Courier New" font-size="14.00"> </text>
<polyline fill="none" stroke="black" points="645.3,-0.5 645.3,-282.9 "/>
<text text-anchor="middle" x="1047.36" y="-266.3" font-family="Courier New" font-size="14.00">type: &lt;inherited contract&gt;.variable (bytes)</text>
<text text-anchor="middle" x="1047.36" y="-249.5" font-family="Courier New" font-size="14.00">decoded data</text>
<polyline fill="none" stroke="black" points="645.3,-241.3 1449.42,-241.3 "/>
<text text-anchor="middle" x="720.51" y="-216.3" font-family="Courier New" font-size="14.00">unallocated (30)</text>
<polyline fill="none" stroke="black" points="795.72,-199.7 795.72,-241.3 "/>
<text text-anchor="middle" x="959.15" y="-224.7" font-family="Courier New" font-size="14.00">bool: Initializable._initializing (1)</text>
<text text-anchor="middle" x="959.15" y="-207.9" font-family="Courier New" font-size="14.00"> false &#160;</text>
<polyline fill="none" stroke="black" points="1122.57,-199.7 1122.57,-241.3 "/>
<text text-anchor="middle" x="1286" y="-224.7" font-family="Courier New" font-size="14.00">uint8: Initializable._initialized (1)</text>
<text text-anchor="middle" x="1286" y="-207.9" font-family="Courier New" font-size="14.00"> 0 </text>
<polyline fill="none" stroke="black" points="645.3,-199.7 1449.42,-199.7 "/>
<text text-anchor="middle" x="1047.13" y="-183.1" font-family="Courier New" font-size="14.00">uint256[50]: ContextUpgradeable.__gap (1600)</text>
<polyline fill="none" stroke="black" points="645.3,-174.9 1449.42,-174.9 "/>
<text text-anchor="middle" x="787.51" y="-149.9" font-family="Courier New" font-size="14.00">unallocated (12)</text>
<polyline fill="none" stroke="black" points="929.72,-133.3 929.72,-174.9 "/>
<text text-anchor="middle" x="1189.55" y="-158.3" font-family="Courier New" font-size="14.00">address: OwnableUpgradeable._owner (20)</text>
<text text-anchor="middle" x="1189.55" y="-141.5" font-family="Courier New" font-size="14.00"> 0x0000000000000000000000000000000000000000 </text>
<polyline fill="none" stroke="black" points="645.3,-133.3 1449.42,-133.3 "/>
<text text-anchor="middle" x="1047.13" y="-116.7" font-family="Courier New" font-size="14.00">uint256[49]: OwnableUpgradeable.__gap (1568)</text>
<polyline fill="none" stroke="black" points="645.3,-108.5 1449.42,-108.5 "/>
<text text-anchor="middle" x="785.01" y="-83.5" font-family="Courier New" font-size="14.00">unallocated (12)</text>
<polyline fill="none" stroke="black" points="924.72,-66.9 924.72,-108.5 "/>
<text text-anchor="middle" x="1186.75" y="-91.9" font-family="Courier New" font-size="14.00">IPauserRegistry: Pausable.pauserRegistry (20)</text>
<text text-anchor="middle" x="1186.75" y="-75.1" font-family="Courier New" font-size="14.00"> 0x0000000000000000000000000000000000000000 </text>
<polyline fill="none" stroke="black" points="645.3,-66.9 1449.42,-66.9 "/>
<text text-anchor="middle" x="1047.32" y="-50.3" font-family="Courier New" font-size="14.00">uint256: Pausable._paused (32)</text>
<text text-anchor="middle" x="1047.32" y="-33.5" font-family="Courier New" font-size="14.00"> 0 </text>
<polyline fill="none" stroke="black" points="645.3,-25.3 1449.42,-25.3 "/>
<text text-anchor="middle" x="1047.12" y="-8.7" font-family="Courier New" font-size="14.00">uint256[48]: Pausable.__gap (1536)</text>
</g>
</g>
</svg>
