<?xml version="1.0" encoding="UTF-8" standalone="no"?>
<!DOCTYPE svg PUBLIC "-//W3C//DTD SVG 1.1//EN"
 "http://www.w3.org/Graphics/SVG/1.1/DTD/svg11.dtd">
<!-- Generated by graphviz version 5.0.0 (20220707.1540)
 -->
<!-- Title: UmlClassDiagram Pages: 1 -->
<svg width="777pt" height="337pt"
 viewBox="0.00 0.00 776.51 336.80" xmlns="http://www.w3.org/2000/svg" xmlns:xlink="http://www.w3.org/1999/xlink">
<g id="graph0" class="graph" transform="scale(1 1) rotate(0) translate(4 332.8)">
<title>UmlClassDiagram</title>
<polygon fill="white" stroke="transparent" points="-4,4 -4,-332.8 772.51,-332.8 772.51,4 -4,4"/>
<!-- 11 -->
<g id="node1" class="node">
<title>11</title>
<polygon fill="#f2f2f2" stroke="black" points="3.29,-79.1 3.29,-137.5 480.71,-137.5 480.71,-79.1 3.29,-79.1"/>
<text text-anchor="middle" x="242" y="-120.9" font-family="Times,serif" font-size="14.00">&lt;&lt;Abstract&gt;&gt;</text>
<text text-anchor="middle" x="242" y="-104.1" font-family="Times,serif" font-size="14.00">OwnableUpgradeable</text>
<text text-anchor="middle" x="242" y="-87.3" font-family="Times,serif" font-size="14.00">lib/openzeppelin&#45;contracts&#45;upgradeable/contracts/access/OwnableUpgradeable.sol</text>
</g>
<!-- 12 -->
<g id="node2" class="node">
<title>12</title>
<polygon fill="#f2f2f2" stroke="black" points="27.44,-269.9 27.44,-328.3 474.57,-328.3 474.57,-269.9 27.44,-269.9"/>
<text text-anchor="middle" x="251" y="-311.7" font-family="Times,serif" font-size="14.00">&lt;&lt;Abstract&gt;&gt;</text>
<text text-anchor="middle" x="251" y="-294.9" font-family="Times,serif" font-size="14.00">Initializable</text>
<text text-anchor="middle" x="251" y="-278.1" font-family="Times,serif" font-size="14.00">lib/openzeppelin&#45;contracts&#45;upgradeable/contracts/proxy/utils/Initializable.sol</text>
</g>
<!-- 11&#45;&gt;12 -->
<g id="edge1" class="edge">
<title>11&#45;&gt;12</title>
<path fill="none" stroke="black" d="M89.09,-137.52C53.64,-147.26 23.02,-159.45 12,-174 -3.94,-195.04 -4.04,-212.43 12,-233.4 20.03,-243.89 37.99,-253.08 60.64,-260.98"/>
<polygon fill="none" stroke="black" points="57.9,-271.12 89.66,-269.82 64.02,-251.03 57.9,-271.12"/>
</g>
<!-- 16 -->
<g id="node3" class="node">
<title>16</title>
<polygon fill="#f2f2f2" stroke="black" points="21.22,-174.5 21.22,-232.9 480.79,-232.9 480.79,-174.5 21.22,-174.5"/>
<text text-anchor="middle" x="251" y="-216.3" font-family="Times,serif" font-size="14.00">&lt;&lt;Abstract&gt;&gt;</text>
<text text-anchor="middle" x="251" y="-199.5" font-family="Times,serif" font-size="14.00">ContextUpgradeable</text>
<text text-anchor="middle" x="251" y="-182.7" font-family="Times,serif" font-size="14.00">lib/openzeppelin&#45;contracts&#45;upgradeable/contracts/utils/ContextUpgradeable.sol</text>
</g>
<!-- 11&#45;&gt;16 -->
<g id="edge2" class="edge">
<title>11&#45;&gt;16</title>
<path fill="none" stroke="black" d="M244.73,-137.58C244.94,-139.75 245.15,-141.99 245.37,-144.27"/>
<polygon fill="none" stroke="black" points="234.93,-145.34 248.25,-174.2 255.83,-143.33 234.93,-145.34"/>
</g>
<!-- 16&#45;&gt;12 -->
<g id="edge3" class="edge">
<title>16&#45;&gt;12</title>
<path fill="none" stroke="black" d="M251,-232.98C251,-235.06 251,-237.2 251,-239.38"/>
<polygon fill="none" stroke="black" points="240.5,-239.6 251,-269.6 261.5,-239.6 240.5,-239.6"/>
</g>
<!-- 0 -->
<g id="node4" class="node">
<title>0</title>
<polygon fill="#f2f2f2" stroke="black" points="419.17,-0.5 419.17,-42.1 598.83,-42.1 598.83,-0.5 419.17,-0.5"/>
<text text-anchor="middle" x="509" y="-25.5" font-family="Times,serif" font-size="14.00">Slasher</text>
<text text-anchor="middle" x="509" y="-8.7" font-family="Times,serif" font-size="14.00">src/contracts/core/Slasher.sol</text>
</g>
<!-- 0&#45;&gt;11 -->
<g id="edge5" class="edge">
<title>0&#45;&gt;11</title>
<path fill="none" stroke="black" d="M446.74,-42.12C420.72,-50.41 389.59,-60.32 359.55,-69.88"/>
<polygon fill="none" stroke="black" points="356.1,-59.96 330.7,-79.06 362.47,-79.97 356.1,-59.96"/>
</g>
<!-- 0&#45;&gt;12 -->
<g id="edge4" class="edge">
<title>0&#45;&gt;12</title>
<path fill="none" stroke="black" d="M513.93,-42.23C522.8,-83.28 536.48,-178.01 490,-233.4 481.14,-243.96 461.73,-253.29 437.6,-261.34"/>
<polygon fill="none" stroke="black" points="434.47,-251.31 408.67,-269.88 440.42,-271.45 434.47,-251.31"/>
</g>
<!-- 10 -->
<g id="node5" class="node">
<title>10</title>
<polygon fill="#f2f2f2" stroke="black" points="537.49,-87.5 537.49,-129.1 768.51,-129.1 768.51,-87.5 537.49,-87.5"/>
<text text-anchor="middle" x="653" y="-112.5" font-family="Times,serif" font-size="14.00">Pausable</text>
<text text-anchor="middle" x="653" y="-95.7" font-family="Times,serif" font-size="14.00">src/contracts/permissions/Pausable.sol</text>
</g>
<!-- 0&#45;&gt;10 -->
<g id="edge6" class="edge">
<title>0&#45;&gt;10</title>
<path fill="none" stroke="black" d="M542.76,-42.23C557.84,-51.13 576.06,-61.89 593.32,-72.07"/>
<polygon fill="none" stroke="black" points="588.28,-81.29 619.45,-87.5 598.95,-63.2 588.28,-81.29"/>
</g>
</g>
</svg>
