<?xml version="1.0" encoding="UTF-8" standalone="no"?>
<!DOCTYPE svg PUBLIC "-//W3C//DTD SVG 1.1//EN"
 "http://www.w3.org/Graphics/SVG/1.1/DTD/svg11.dtd">
<!-- Generated by graphviz version 5.0.0 (20220707.1540)
 -->
<!-- Title: StorageDiagram Pages: 1 -->
<svg width="922pt" height="571pt"
 viewBox="0.00 0.00 922.14 571.40" xmlns="http://www.w3.org/2000/svg" xmlns:xlink="http://www.w3.org/1999/xlink">
<g id="graph0" class="graph" transform="scale(1 1) rotate(0) translate(4 567.4)">
<title>StorageDiagram</title>
<polygon fill="white" stroke="transparent" points="-4,4 -4,-567.4 918.14,-567.4 918.14,4 -4,4"/>
<!-- 1 -->
<g id="node1" class="node">
<title>1</title>
<polygon fill="#f2f2f2" stroke="black" points="0,-0.5 0,-562.9 914.14,-562.9 914.14,-0.5 0,-0.5"/>
<text text-anchor="middle" x="457.07" y="-546.3" font-family="Courier New" font-size="14.00">StrategyManager &lt;&lt;Contract&gt;&gt;</text>
<text text-anchor="middle" x="457.07" y="-529.5" font-family="Courier New" font-size="14.00">0x5d25EEf8CfEdaA47d31fE2346726dE1c21e342Fb</text>
<polyline fill="none" stroke="black" points="0,-521.3 914.14,-521.3 "/>
<text text-anchor="middle" x="37.4" y="-504.7" font-family="Courier New" font-size="14.00">slot</text>
<polyline fill="none" stroke="black" points="0,-496.5 74.81,-496.5 "/>
<text text-anchor="middle" x="37.4" y="-479.9" font-family="Courier New" font-size="14.00">0</text>
<polyline fill="none" stroke="black" points="0,-471.7 74.81,-471.7 "/>
<text text-anchor="middle" x="37.4" y="-455.1" font-family="Courier New" font-size="14.00">1&#45;50</text>
<polyline fill="none" stroke="black" points="0,-446.9 74.81,-446.9 "/>
<text text-anchor="middle" x="37.4" y="-430.3" font-family="Courier New" font-size="14.00">51</text>
<polyline fill="none" stroke="black" points="0,-422.1 74.81,-422.1 "/>
<text text-anchor="middle" x="37.4" y="-405.5" font-family="Courier New" font-size="14.00">52&#45;100</text>
<polyline fill="none" stroke="black" points="0,-397.3 74.81,-397.3 "/>
<text text-anchor="middle" x="37.4" y="-380.7" font-family="Courier New" font-size="14.00">101</text>
<polyline fill="none" stroke="black" points="0,-372.5 74.81,-372.5 "/>
<text text-anchor="middle" x="37.4" y="-355.9" font-family="Courier New" font-size="14.00">102&#45;150</text>
<polyline fill="none" stroke="black" points="0,-347.7 74.81,-347.7 "/>
<text text-anchor="middle" x="37.4" y="-331.1" font-family="Courier New" font-size="14.00">151</text>
<polyline fill="none" stroke="black" points="0,-322.9 74.81,-322.9 "/>
<text text-anchor="middle" x="37.4" y="-306.3" font-family="Courier New" font-size="14.00">152</text>
<polyline fill="none" stroke="black" points="0,-298.1 74.81,-298.1 "/>
<text text-anchor="middle" x="37.4" y="-281.5" font-family="Courier New" font-size="14.00">153&#45;200</text>
<polyline fill="none" stroke="black" points="0,-273.3 74.81,-273.3 "/>
<text text-anchor="middle" x="37.4" y="-256.7" font-family="Courier New" font-size="14.00">201</text>
<polyline fill="none" stroke="black" points="0,-248.5 74.81,-248.5 "/>
<text text-anchor="middle" x="37.4" y="-231.9" font-family="Courier New" font-size="14.00">202</text>
<polyline fill="none" stroke="black" points="0,-223.7 74.81,-223.7 "/>
<text text-anchor="middle" x="37.4" y="-207.1" font-family="Courier New" font-size="14.00">203</text>
<polyline fill="none" stroke="black" points="0,-198.9 74.81,-198.9 "/>
<text text-anchor="middle" x="37.4" y="-182.3" font-family="Courier New" font-size="14.00">204</text>
<polyline fill="none" stroke="black" points="0,-174.1 74.81,-174.1 "/>
<text text-anchor="middle" x="37.4" y="-157.5" font-family="Courier New" font-size="14.00">205</text>
<polyline fill="none" stroke="black" points="0,-149.3 74.81,-149.3 "/>
<text text-anchor="middle" x="37.4" y="-132.7" font-family="Courier New" font-size="14.00">206</text>
<polyline fill="none" stroke="black" points="0,-124.5 74.81,-124.5 "/>
<text text-anchor="middle" x="37.4" y="-107.9" font-family="Courier New" font-size="14.00">207</text>
<polyline fill="none" stroke="black" points="0,-99.7 74.81,-99.7 "/>
<text text-anchor="middle" x="37.4" y="-83.1" font-family="Courier New" font-size="14.00">208</text>
<polyline fill="none" stroke="black" points="0,-74.9 74.81,-74.9 "/>
<text text-anchor="middle" x="37.4" y="-58.3" font-family="Courier New" font-size="14.00">209</text>
<polyline fill="none" stroke="black" points="0,-50.1 74.81,-50.1 "/>
<text text-anchor="middle" x="37.4" y="-33.5" font-family="Courier New" font-size="14.00">210</text>
<polyline fill="none" stroke="black" points="0,-25.3 74.81,-25.3 "/>
<text text-anchor="middle" x="37.4" y="-8.7" font-family="Courier New" font-size="14.00">211&#45;250</text>
<polyline fill="none" stroke="black" points="74.81,-0.5 74.81,-521.3 "/>
<text text-anchor="middle" x="494.48" y="-504.7" font-family="Courier New" font-size="14.00">type: &lt;inherited contract&gt;.variable (bytes)</text>
<polyline fill="none" stroke="black" points="74.81,-496.5 914.14,-496.5 "/>
<text text-anchor="middle" x="155.52" y="-479.9" font-family="Courier New" font-size="14.00">unallocated (30)</text>
<polyline fill="none" stroke="black" points="236.23,-471.7 236.23,-496.5 "/>
<text text-anchor="middle" x="405.66" y="-479.9" font-family="Courier New" font-size="14.00">bool: Initializable._initializing (1)</text>
<polyline fill="none" stroke="black" points="575.08,-471.7 575.08,-496.5 "/>
<text text-anchor="middle" x="744.51" y="-479.9" font-family="Courier New" font-size="14.00">uint8: Initializable._initialized (1)</text>
<polyline fill="none" stroke="black" points="74.81,-471.7 914.14,-471.7 "/>
<text text-anchor="middle" x="494.14" y="-455.1" font-family="Courier New" font-size="14.00">uint256[50]: ContextUpgradeable.__gap (1600)</text>
<polyline fill="none" stroke="black" points="74.81,-446.9 914.14,-446.9 "/>
<text text-anchor="middle" x="236.02" y="-430.3" font-family="Courier New" font-size="14.00">unallocated (12)</text>
<polyline fill="none" stroke="black" points="397.23,-422.1 397.23,-446.9 "/>
<text text-anchor="middle" x="655.56" y="-430.3" font-family="Courier New" font-size="14.00">address: OwnableUpgradeable._owner (20)</text>
<polyline fill="none" stroke="black" points="74.81,-422.1 914.14,-422.1 "/>
<text text-anchor="middle" x="494.14" y="-405.5" font-family="Courier New" font-size="14.00">uint256[49]: OwnableUpgradeable.__gap (1568)</text>
<polyline fill="none" stroke="black" points="74.81,-397.3 914.14,-397.3 "/>
<text text-anchor="middle" x="494.44" y="-380.7" font-family="Courier New" font-size="14.00">uint256: ReentrancyGuardUpgradeable._status (32)</text>
<polyline fill="none" stroke="black" points="74.81,-372.5 914.14,-372.5 "/>
<text text-anchor="middle" x="494.25" y="-355.9" font-family="Courier New" font-size="14.00">uint256[49]: ReentrancyGuardUpgradeable.__gap (1568)</text>
<polyline fill="none" stroke="black" points="74.81,-347.7 914.14,-347.7 "/>
<text text-anchor="middle" x="223.52" y="-331.1" font-family="Courier New" font-size="14.00">unallocated (12)</text>
<polyline fill="none" stroke="black" points="372.23,-322.9 372.23,-347.7 "/>
<text text-anchor="middle" x="642.76" y="-331.1" font-family="Courier New" font-size="14.00">IPauserRegistry: Pausable.pauserRegistry (20)</text>
<polyline fill="none" stroke="black" points="74.81,-322.9 914.14,-322.9 "/>
<text text-anchor="middle" x="494.33" y="-306.3" font-family="Courier New" font-size="14.00">uint256: Pausable._paused (32)</text>
<polyline fill="none" stroke="black" points="74.81,-298.1 914.14,-298.1 "/>
<text text-anchor="middle" x="494.13" y="-281.5" font-family="Courier New" font-size="14.00">uint256[48]: Pausable.__gap (1536)</text>
<polyline fill="none" stroke="black" points="74.81,-273.3 914.14,-273.3 "/>
<text text-anchor="middle" x="494.45" y="-256.7" font-family="Courier New" font-size="14.00">bytes32: StrategyManagerStorage.DOMAIN_SEPARATOR (32)</text>
<polyline fill="none" stroke="black" points="74.81,-248.5 914.14,-248.5 "/>
<text text-anchor="middle" x="494.05" y="-231.9" font-family="Courier New" font-size="14.00">mapping(address=&gt;uint256): StrategyManagerStorage.nonces (32)</text>
<polyline fill="none" stroke="black" points="74.81,-223.7 914.14,-223.7 "/>
<text text-anchor="middle" x="200.52" y="-207.1" font-family="Courier New" font-size="14.00">unallocated (12)</text>
<polyline fill="none" stroke="black" points="326.23,-198.9 326.23,-223.7 "/>
<text text-anchor="middle" x="619.97" y="-207.1" font-family="Courier New" font-size="14.00">address: StrategyManagerStorage.strategyWhitelister (20)</text>
<polyline fill="none" stroke="black" points="74.81,-198.9 914.14,-198.9 "/>
<text text-anchor="middle" x="494.45" y="-182.3" font-family="Courier New" font-size="14.00">uint256: StrategyManagerStorage.withdrawalDelayBlocks (32)</text>
<polyline fill="none" stroke="black" points="74.81,-174.1 914.14,-174.1 "/>
<text text-anchor="middle" x="494.37" y="-157.5" font-family="Courier New" font-size="14.00">mapping(address=&gt;mapping(IStrategy=&gt;uint256)): StrategyManagerStorage.stakerStrategyShares (32)</text>
<polyline fill="none" stroke="black" points="74.81,-149.3 914.14,-149.3 "/>
<text text-anchor="middle" x="494.26" y="-132.7" font-family="Courier New" font-size="14.00">mapping(address=&gt;IStrategy[]): StrategyManagerStorage.stakerStrategyList (32)</text>
<polyline fill="none" stroke="black" points="74.81,-124.5 914.14,-124.5 "/>
<text text-anchor="middle" x="494.46" y="-107.9" font-family="Courier New" font-size="14.00">mapping(bytes32=&gt;bool): StrategyManagerStorage.withdrawalRootPending (32)</text>
<polyline fill="none" stroke="black" points="74.81,-99.7 914.14,-99.7 "/>
<text text-anchor="middle" x="494.36" y="-83.1" font-family="Courier New" font-size="14.00">mapping(address=&gt;uint256): StrategyManagerStorage.numWithdrawalsQueued (32)</text>
<polyline fill="none" stroke="black" points="74.81,-74.9 914.14,-74.9 "/>
<text text-anchor="middle" x="494.37" y="-58.3" font-family="Courier New" font-size="14.00">mapping(IStrategy=&gt;bool): StrategyManagerStorage.strategyIsWhitelistedForDeposit (32)</text>
<polyline fill="none" stroke="black" points="74.81,-50.1 914.14,-50.1 "/>
<text text-anchor="middle" x="494.48" y="-33.5" font-family="Courier New" font-size="14.00">mapping(address=&gt;uint256): StrategyManagerStorage.beaconChainETHSharesToDecrementOnWithdrawal (32)</text>
<polyline fill="none" stroke="black" points="74.81,-25.3 914.14,-25.3 "/>
<text text-anchor="middle" x="494.44" y="-8.7" font-family="Courier New" font-size="14.00">uint256[40]: StrategyManagerStorage.__gap (1280)</text>
</g>
</g>
</svg>
