<?xml version="1.0" encoding="UTF-8" standalone="no"?>
<!DOCTYPE svg PUBLIC "-//W3C//DTD SVG 1.1//EN"
 "http://www.w3.org/Graphics/SVG/1.1/DTD/svg11.dtd">
<!-- Generated by graphviz version 5.0.0 (20220707.1540)
 -->
<!-- Title: StorageDiagram Pages: 1 -->
<svg width="947pt" height="889pt"
 viewBox="0.00 0.00 947.35 889.00" xmlns="http://www.w3.org/2000/svg" xmlns:xlink="http://www.w3.org/1999/xlink">
<g id="graph0" class="graph" transform="scale(1 1) rotate(0) translate(4 885)">
<title>StorageDiagram</title>
<polygon fill="white" stroke="transparent" points="-4,4 -4,-885 943.35,-885 943.35,4 -4,4"/>
<!-- 1 -->
<g id="node1" class="node">
<title>1</title>
<polygon fill="#f2f2f2" stroke="black" points="0,-0.5 0,-880.5 939.35,-880.5 939.35,-0.5 0,-0.5"/>
<text text-anchor="middle" x="469.67" y="-863.9" font-family="Courier New" font-size="14.00">StrategyManager &lt;&lt;Contract&gt;&gt;</text>
<text text-anchor="middle" x="469.67" y="-847.1" font-family="Courier New" font-size="14.00">0x5d25EEf8CfEdaA47d31fE2346726dE1c21e342Fb</text>
<polyline fill="none" stroke="black" points="0,-838.9 939.35,-838.9 "/>
<text text-anchor="middle" x="50.01" y="-822.3" font-family="Courier New" font-size="14.00">slot</text>
<text text-anchor="middle" x="50.01" y="-805.5" font-family="Courier New" font-size="14.00"> &#160;</text>
<polyline fill="none" stroke="black" points="0,-797.3 100.01,-797.3 "/>
<text text-anchor="middle" x="50.01" y="-780.7" font-family="Courier New" font-size="14.00">0</text>
<text text-anchor="middle" x="50.01" y="-763.9" font-family="Courier New" font-size="14.00"> &#160;</text>
<polyline fill="none" stroke="black" points="0,-755.7 100.01,-755.7 "/>
<text text-anchor="middle" x="50.01" y="-739.1" font-family="Courier New" font-size="14.00">1&#45;50 </text>
<polyline fill="none" stroke="black" points="0,-730.9 100.01,-730.9 "/>
<text text-anchor="middle" x="50.01" y="-714.3" font-family="Courier New" font-size="14.00">51</text>
<text text-anchor="middle" x="50.01" y="-697.5" font-family="Courier New" font-size="14.00"> &#160;</text>
<polyline fill="none" stroke="black" points="0,-689.3 100.01,-689.3 "/>
<text text-anchor="middle" x="50.01" y="-672.7" font-family="Courier New" font-size="14.00">52&#45;100 </text>
<polyline fill="none" stroke="black" points="0,-664.5 100.01,-664.5 "/>
<text text-anchor="middle" x="50.01" y="-647.9" font-family="Courier New" font-size="14.00">101</text>
<text text-anchor="middle" x="50.01" y="-631.1" font-family="Courier New" font-size="14.00"> &#160;</text>
<polyline fill="none" stroke="black" points="0,-622.9 100.01,-622.9 "/>
<text text-anchor="middle" x="50.01" y="-606.3" font-family="Courier New" font-size="14.00">102&#45;150 </text>
<polyline fill="none" stroke="black" points="0,-598.1 100.01,-598.1 "/>
<text text-anchor="middle" x="50.01" y="-581.5" font-family="Courier New" font-size="14.00">151</text>
<text text-anchor="middle" x="50.01" y="-564.7" font-family="Courier New" font-size="14.00"> &#160;</text>
<polyline fill="none" stroke="black" points="0,-556.5 100.01,-556.5 "/>
<text text-anchor="middle" x="50.01" y="-539.9" font-family="Courier New" font-size="14.00">152</text>
<text text-anchor="middle" x="50.01" y="-523.1" font-family="Courier New" font-size="14.00"> &#160;</text>
<polyline fill="none" stroke="black" points="0,-514.9 100.01,-514.9 "/>
<text text-anchor="middle" x="50.01" y="-498.3" font-family="Courier New" font-size="14.00">153&#45;200 </text>
<polyline fill="none" stroke="black" points="0,-490.1 100.01,-490.1 "/>
<text text-anchor="middle" x="50.01" y="-473.5" font-family="Courier New" font-size="14.00">201</text>
<text text-anchor="middle" x="50.01" y="-456.7" font-family="Courier New" font-size="14.00"> &#160;</text>
<polyline fill="none" stroke="black" points="0,-448.5 100.01,-448.5 "/>
<text text-anchor="middle" x="50.01" y="-431.9" font-family="Courier New" font-size="14.00">202 </text>
<polyline fill="none" stroke="black" points="0,-423.7 100.01,-423.7 "/>
<text text-anchor="middle" x="50.01" y="-407.1" font-family="Courier New" font-size="14.00">203</text>
<text text-anchor="middle" x="50.01" y="-390.3" font-family="Courier New" font-size="14.00"> &#160;</text>
<polyline fill="none" stroke="black" points="0,-382.1 100.01,-382.1 "/>
<text text-anchor="middle" x="50.01" y="-365.5" font-family="Courier New" font-size="14.00">204</text>
<text text-anchor="middle" x="50.01" y="-348.7" font-family="Courier New" font-size="14.00"> &#160;</text>
<polyline fill="none" stroke="black" points="0,-340.5 100.01,-340.5 "/>
<text text-anchor="middle" x="50.01" y="-323.9" font-family="Courier New" font-size="14.00">205 </text>
<polyline fill="none" stroke="black" points="0,-315.7 100.01,-315.7 "/>
<text text-anchor="middle" x="50.01" y="-299.1" font-family="Courier New" font-size="14.00">206 </text>
<polyline fill="none" stroke="black" points="0,-290.9 100.01,-290.9 "/>
<text text-anchor="middle" x="50.01" y="-274.3" font-family="Courier New" font-size="14.00">207 </text>
<polyline fill="none" stroke="black" points="0,-266.1 100.01,-266.1 "/>
<text text-anchor="middle" x="50.01" y="-249.5" font-family="Courier New" font-size="14.00">208 </text>
<polyline fill="none" stroke="black" points="0,-241.3 100.01,-241.3 "/>
<text text-anchor="middle" x="50.01" y="-224.7" font-family="Courier New" font-size="14.00">209 </text>
<polyline fill="none" stroke="black" points="0,-216.5 100.01,-216.5 "/>
<text text-anchor="middle" x="50.01" y="-199.9" font-family="Courier New" font-size="14.00">210 </text>
<polyline fill="none" stroke="black" points="0,-191.7 100.01,-191.7 "/>
<text text-anchor="middle" x="50.01" y="-175.1" font-family="Courier New" font-size="14.00">211&#45;250 </text>
<polyline fill="none" stroke="black" points="0,-166.9 100.01,-166.9 "/>
<text text-anchor="middle" x="50.01" y="-150.3" font-family="Courier New" font-size="14.00">0x360..bbc</text>
<text text-anchor="middle" x="50.01" y="-133.5" font-family="Courier New" font-size="14.00"> &#160;</text>
<polyline fill="none" stroke="black" points="0,-125.3 100.01,-125.3 "/>
<text text-anchor="middle" x="50.01" y="-108.7" font-family="Courier New" font-size="14.00">0x491..143</text>
<text text-anchor="middle" x="50.01" y="-91.9" font-family="Courier New" font-size="14.00"> &#160;</text>
<polyline fill="none" stroke="black" points="0,-83.7 100.01,-83.7 "/>
<text text-anchor="middle" x="50.01" y="-67.1" font-family="Courier New" font-size="14.00">0xa3f..d50</text>
<text text-anchor="middle" x="50.01" y="-50.3" font-family="Courier New" font-size="14.00"> &#160;</text>
<polyline fill="none" stroke="black" points="0,-42.1 100.01,-42.1 "/>
<text text-anchor="middle" x="50.01" y="-25.5" font-family="Courier New" font-size="14.00">0xb53..103</text>
<text text-anchor="middle" x="50.01" y="-8.7" font-family="Courier New" font-size="14.00"> </text>
<polyline fill="none" stroke="black" points="100.01,-0.5 100.01,-838.9 "/>
<text text-anchor="middle" x="519.68" y="-822.3" font-family="Courier New" font-size="14.00">type: &lt;inherited contract&gt;.variable (bytes)</text>
<text text-anchor="middle" x="519.68" y="-805.5" font-family="Courier New" font-size="14.00">decoded data</text>
<polyline fill="none" stroke="black" points="100.01,-797.3 939.35,-797.3 "/>
<text text-anchor="middle" x="180.72" y="-772.3" font-family="Courier New" font-size="14.00">unallocated (30)</text>
<polyline fill="none" stroke="black" points="261.44,-755.7 261.44,-797.3 "/>
<text text-anchor="middle" x="430.86" y="-780.7" font-family="Courier New" font-size="14.00">bool: Initializable._initializing (1)</text>
<text text-anchor="middle" x="430.86" y="-763.9" font-family="Courier New" font-size="14.00"> false &#160;</text>
<polyline fill="none" stroke="black" points="600.29,-755.7 600.29,-797.3 "/>
<text text-anchor="middle" x="769.71" y="-780.7" font-family="Courier New" font-size="14.00">uint8: Initializable._initialized (1)</text>
<text text-anchor="middle" x="769.71" y="-763.9" font-family="Courier New" font-size="14.00"> 1 </text>
<polyline fill="none" stroke="black" points="100.01,-755.7 939.35,-755.7 "/>
<text text-anchor="middle" x="519.34" y="-739.1" font-family="Courier New" font-size="14.00">uint256[50]: ContextUpgradeable.__gap (1600)</text>
<polyline fill="none" stroke="black" points="100.01,-730.9 939.35,-730.9 "/>
<text text-anchor="middle" x="250.72" y="-705.9" font-family="Courier New" font-size="14.00">unallocated (12)</text>
<polyline fill="none" stroke="black" points="401.44,-689.3 401.44,-730.9 "/>
<text text-anchor="middle" x="670.27" y="-714.3" font-family="Courier New" font-size="14.00">address: OwnableUpgradeable._owner (20)</text>
<text text-anchor="middle" x="670.27" y="-697.5" font-family="Courier New" font-size="14.00"> 0x369e6F597e22EaB55fFb173C6d9cD234BD699111 </text>
<polyline fill="none" stroke="black" points="100.01,-689.3 939.35,-689.3 "/>
<text text-anchor="middle" x="519.34" y="-672.7" font-family="Courier New" font-size="14.00">uint256[49]: OwnableUpgradeable.__gap (1568)</text>
<polyline fill="none" stroke="black" points="100.01,-664.5 939.35,-664.5 "/>
<text text-anchor="middle" x="519.65" y="-647.9" font-family="Courier New" font-size="14.00">uint256: ReentrancyGuardUpgradeable._status (32)</text>
<text text-anchor="middle" x="519.65" y="-631.1" font-family="Courier New" font-size="14.00"> 1 </text>
<polyline fill="none" stroke="black" points="100.01,-622.9 939.35,-622.9 "/>
<text text-anchor="middle" x="519.45" y="-606.3" font-family="Courier New" font-size="14.00">uint256[49]: ReentrancyGuardUpgradeable.__gap (1568)</text>
<polyline fill="none" stroke="black" points="100.01,-598.1 939.35,-598.1 "/>
<text text-anchor="middle" x="248.72" y="-573.1" font-family="Courier New" font-size="14.00">unallocated (12)</text>
<polyline fill="none" stroke="black" points="397.44,-556.5 397.44,-598.1 "/>
<text text-anchor="middle" x="667.97" y="-581.5" font-family="Courier New" font-size="14.00">IPauserRegistry: Pausable.pauserRegistry (20)</text>
<text text-anchor="middle" x="667.97" y="-564.7" font-family="Courier New" font-size="14.00"> 0x0c431C66F4dE941d089625E5B423D00707977060 </text>
<polyline fill="none" stroke="black" points="100.01,-556.5 939.35,-556.5 "/>
<text text-anchor="middle" x="519.53" y="-539.9" font-family="Courier New" font-size="14.00">uint256: Pausable._paused (32)</text>
<text text-anchor="middle" x="519.53" y="-523.1" font-family="Courier New" font-size="14.00"> 1 </text>
<polyline fill="none" stroke="black" points="100.01,-514.9 939.35,-514.9 "/>
<text text-anchor="middle" x="519.34" y="-498.3" font-family="Courier New" font-size="14.00">uint256[48]: Pausable.__gap (1536)</text>
<polyline fill="none" stroke="black" points="100.01,-490.1 939.35,-490.1 "/>
<text text-anchor="middle" x="519.66" y="-473.5" font-family="Courier New" font-size="14.00">bytes32: StrategyManagerStorage.DOMAIN_SEPARATOR (32)</text>
<text text-anchor="middle" x="519.66" y="-456.7" font-family="Courier New" font-size="14.00"> 0xDABA058AB21F198A04EC80CF0D39F943660A92A99BDA5DE5016F923F7E4962EF </text>
<polyline fill="none" stroke="black" points="100.01,-448.5 939.35,-448.5 "/>
<text text-anchor="middle" x="519.26" y="-431.9" font-family="Courier New" font-size="14.00">mapping(address=&gt;uint256): StrategyManagerStorage.nonces (32)</text>
<polyline fill="none" stroke="black" points="100.01,-423.7 939.35,-423.7 "/>
<text text-anchor="middle" x="225.72" y="-398.7" font-family="Courier New" font-size="14.00">unallocated (12)</text>
<polyline fill="none" stroke="black" points="351.44,-382.1 351.44,-423.7 "/>
<text text-anchor="middle" x="645.17" y="-407.1" font-family="Courier New" font-size="14.00">address: StrategyManagerStorage.strategyWhitelister (20)</text>
<text text-anchor="middle" x="645.17" y="-390.3" font-family="Courier New" font-size="14.00"> 0xBE1685C81aA44FF9FB319dD389addd9374383e90 </text>
<polyline fill="none" stroke="black" points="100.01,-382.1 939.35,-382.1 "/>
<text text-anchor="middle" x="519.65" y="-365.5" font-family="Courier New" font-size="14.00">uint256: StrategyManagerStorage.withdrawalDelayBlocks (32)</text>
<text text-anchor="middle" x="519.65" y="-348.7" font-family="Courier New" font-size="14.00"> 50,400 </text>
<polyline fill="none" stroke="black" points="100.01,-340.5 939.35,-340.5 "/>
<text text-anchor="middle" x="519.58" y="-323.9" font-family="Courier New" font-size="14.00">mapping(address=&gt;mapping(IStrategy=&gt;uint256)): StrategyManagerStorage.stakerStrategyShares (32)</text>
<polyline fill="none" stroke="black" points="100.01,-315.7 939.35,-315.7 "/>
<text text-anchor="middle" x="519.47" y="-299.1" font-family="Courier New" font-size="14.00">mapping(address=&gt;IStrategy[]): StrategyManagerStorage.stakerStrategyList (32)</text>
<polyline fill="none" stroke="black" points="100.01,-290.9 939.35,-290.9 "/>
<text text-anchor="middle" x="519.66" y="-274.3" font-family="Courier New" font-size="14.00">mapping(bytes32=&gt;bool): StrategyManagerStorage.withdrawalRootPending (32)</text>
<polyline fill="none" stroke="black" points="100.01,-266.1 939.35,-266.1 "/>
<text text-anchor="middle" x="519.56" y="-249.5" font-family="Courier New" font-size="14.00">mapping(address=&gt;uint256): StrategyManagerStorage.numWithdrawalsQueued (32)</text>
<polyline fill="none" stroke="black" points="100.01,-241.3 939.35,-241.3 "/>
<text text-anchor="middle" x="519.57" y="-224.7" font-family="Courier New" font-size="14.00">mapping(IStrategy=&gt;bool): StrategyManagerStorage.strategyIsWhitelistedForDeposit (32)</text>
<polyline fill="none" stroke="black" points="100.01,-216.5 939.35,-216.5 "/>
<text text-anchor="middle" x="519.68" y="-199.9" font-family="Courier New" font-size="14.00">mapping(address=&gt;uint256): StrategyManagerStorage.beaconChainETHSharesToDecrementOnWithdrawal (32)</text>
<polyline fill="none" stroke="black" points="100.01,-191.7 939.35,-191.7 "/>
<text text-anchor="middle" x="519.65" y="-175.1" font-family="Courier New" font-size="14.00">uint256[40]: StrategyManagerStorage.__gap (1280)</text>
<polyline fill="none" stroke="black" points="100.01,-166.9 939.35,-166.9 "/>
<text text-anchor="middle" x="519.66" y="-150.3" font-family="Courier New" font-size="14.00">bytes32 (32)</text>
<text text-anchor="middle" x="519.66" y="-133.5" font-family="Courier New" font-size="14.00"> 0x0000000000000000000000005D25EEF8CFEDAA47D31FE2346726DE1C21E342FB </text>
<polyline fill="none" stroke="black" points="100.01,-125.3 939.35,-125.3 "/>
<text text-anchor="middle" x="519.66" y="-108.7" font-family="Courier New" font-size="14.00">bytes32 (32)</text>
<text text-anchor="middle" x="519.66" y="-91.9" font-family="Courier New" font-size="14.00"> 0x0000000000000000000000000000000000000000000000000000000000000000 </text>
<polyline fill="none" stroke="black" points="100.01,-83.7 939.35,-83.7 "/>
<text text-anchor="middle" x="519.66" y="-67.1" font-family="Courier New" font-size="14.00">bytes32 (32)</text>
<text text-anchor="middle" x="519.66" y="-50.3" font-family="Courier New" font-size="14.00"> 0x0000000000000000000000000000000000000000000000000000000000000000 </text>
<polyline fill="none" stroke="black" points="100.01,-42.1 939.35,-42.1 "/>
<text text-anchor="middle" x="519.66" y="-25.5" font-family="Courier New" font-size="14.00">bytes32 (32)</text>
<text text-anchor="middle" x="519.66" y="-8.7" font-family="Courier New" font-size="14.00"> 0x0000000000000000000000008B9566ADA63B64D1E1DCF1418B43FD1433B72444 </text>
</g>
</g>
</svg>
