<?xml version="1.0" encoding="UTF-8" standalone="no"?>
<!DOCTYPE svg PUBLIC "-//W3C//DTD SVG 1.1//EN"
 "http://www.w3.org/Graphics/SVG/1.1/DTD/svg11.dtd">
<!-- Generated by graphviz version 5.0.0 (20220707.1540)
 -->
<!-- Title: StorageDiagram Pages: 1 -->
<svg width="947pt" height="914pt"
 viewBox="0.00 0.00 947.35 913.80" xmlns="http://www.w3.org/2000/svg" xmlns:xlink="http://www.w3.org/1999/xlink">
<g id="graph0" class="graph" transform="scale(1 1) rotate(0) translate(4 909.8)">
<title>StorageDiagram</title>
<polygon fill="white" stroke="transparent" points="-4,4 -4,-909.8 943.35,-909.8 943.35,4 -4,4"/>
<!-- 1 -->
<g id="node1" class="node">
<title>1</title>
<polygon fill="#f2f2f2" stroke="black" points="0,-0.5 0,-905.3 939.35,-905.3 939.35,-0.5 0,-0.5"/>
<text text-anchor="middle" x="469.67" y="-888.7" font-family="Courier New" font-size="14.00">StrategyManager &lt;&lt;Contract&gt;&gt;</text>
<text text-anchor="middle" x="469.67" y="-871.9" font-family="Courier New" font-size="14.00">0x59f766A603C53f3AC8Be43bBe158c1519b193a18</text>
<polyline fill="none" stroke="black" points="0,-863.7 939.35,-863.7 "/>
<text text-anchor="middle" x="50.01" y="-847.1" font-family="Courier New" font-size="14.00">slot</text>
<text text-anchor="middle" x="50.01" y="-830.3" font-family="Courier New" font-size="14.00"> &#160;</text>
<polyline fill="none" stroke="black" points="0,-822.1 100.01,-822.1 "/>
<text text-anchor="middle" x="50.01" y="-805.5" font-family="Courier New" font-size="14.00">0</text>
<text text-anchor="middle" x="50.01" y="-788.7" font-family="Courier New" font-size="14.00"> &#160;</text>
<polyline fill="none" stroke="black" points="0,-780.5 100.01,-780.5 "/>
<text text-anchor="middle" x="50.01" y="-763.9" font-family="Courier New" font-size="14.00">1&#45;50 </text>
<polyline fill="none" stroke="black" points="0,-755.7 100.01,-755.7 "/>
<text text-anchor="middle" x="50.01" y="-739.1" font-family="Courier New" font-size="14.00">51</text>
<text text-anchor="middle" x="50.01" y="-722.3" font-family="Courier New" font-size="14.00"> &#160;</text>
<polyline fill="none" stroke="black" points="0,-714.1 100.01,-714.1 "/>
<text text-anchor="middle" x="50.01" y="-697.5" font-family="Courier New" font-size="14.00">52&#45;100 </text>
<polyline fill="none" stroke="black" points="0,-689.3 100.01,-689.3 "/>
<text text-anchor="middle" x="50.01" y="-672.7" font-family="Courier New" font-size="14.00">101</text>
<text text-anchor="middle" x="50.01" y="-655.9" font-family="Courier New" font-size="14.00"> &#160;</text>
<polyline fill="none" stroke="black" points="0,-647.7 100.01,-647.7 "/>
<text text-anchor="middle" x="50.01" y="-631.1" font-family="Courier New" font-size="14.00">102&#45;150 </text>
<polyline fill="none" stroke="black" points="0,-622.9 100.01,-622.9 "/>
<text text-anchor="middle" x="50.01" y="-606.3" font-family="Courier New" font-size="14.00">151</text>
<text text-anchor="middle" x="50.01" y="-589.5" font-family="Courier New" font-size="14.00"> &#160;</text>
<polyline fill="none" stroke="black" points="0,-581.3 100.01,-581.3 "/>
<text text-anchor="middle" x="50.01" y="-564.7" font-family="Courier New" font-size="14.00">152</text>
<text text-anchor="middle" x="50.01" y="-547.9" font-family="Courier New" font-size="14.00"> &#160;</text>
<polyline fill="none" stroke="black" points="0,-539.7 100.01,-539.7 "/>
<text text-anchor="middle" x="50.01" y="-523.1" font-family="Courier New" font-size="14.00">153&#45;200 </text>
<polyline fill="none" stroke="black" points="0,-514.9 100.01,-514.9 "/>
<text text-anchor="middle" x="50.01" y="-498.3" font-family="Courier New" font-size="14.00">201</text>
<text text-anchor="middle" x="50.01" y="-481.5" font-family="Courier New" font-size="14.00"> &#160;</text>
<polyline fill="none" stroke="black" points="0,-473.3 100.01,-473.3 "/>
<text text-anchor="middle" x="50.01" y="-456.7" font-family="Courier New" font-size="14.00">202 </text>
<polyline fill="none" stroke="black" points="0,-448.5 100.01,-448.5 "/>
<text text-anchor="middle" x="50.01" y="-431.9" font-family="Courier New" font-size="14.00">203</text>
<text text-anchor="middle" x="50.01" y="-415.1" font-family="Courier New" font-size="14.00"> &#160;</text>
<polyline fill="none" stroke="black" points="0,-406.9 100.01,-406.9 "/>
<text text-anchor="middle" x="50.01" y="-390.3" font-family="Courier New" font-size="14.00">204</text>
<text text-anchor="middle" x="50.01" y="-373.5" font-family="Courier New" font-size="14.00"> &#160;</text>
<polyline fill="none" stroke="black" points="0,-365.3 100.01,-365.3 "/>
<text text-anchor="middle" x="50.01" y="-348.7" font-family="Courier New" font-size="14.00">205 </text>
<polyline fill="none" stroke="black" points="0,-340.5 100.01,-340.5 "/>
<text text-anchor="middle" x="50.01" y="-323.9" font-family="Courier New" font-size="14.00">206 </text>
<polyline fill="none" stroke="black" points="0,-315.7 100.01,-315.7 "/>
<text text-anchor="middle" x="50.01" y="-299.1" font-family="Courier New" font-size="14.00">207 </text>
<polyline fill="none" stroke="black" points="0,-290.9 100.01,-290.9 "/>
<text text-anchor="middle" x="50.01" y="-274.3" font-family="Courier New" font-size="14.00">208 </text>
<polyline fill="none" stroke="black" points="0,-266.1 100.01,-266.1 "/>
<text text-anchor="middle" x="50.01" y="-249.5" font-family="Courier New" font-size="14.00">209 </text>
<polyline fill="none" stroke="black" points="0,-241.3 100.01,-241.3 "/>
<text text-anchor="middle" x="50.01" y="-224.7" font-family="Courier New" font-size="14.00">210 </text>
<polyline fill="none" stroke="black" points="0,-216.5 100.01,-216.5 "/>
<text text-anchor="middle" x="50.01" y="-199.9" font-family="Courier New" font-size="14.00">211 </text>
<polyline fill="none" stroke="black" points="0,-191.7 100.01,-191.7 "/>
<text text-anchor="middle" x="50.01" y="-175.1" font-family="Courier New" font-size="14.00">212&#45;250 </text>
<polyline fill="none" stroke="black" points="0,-166.9 100.01,-166.9 "/>
<text text-anchor="middle" x="50.01" y="-150.3" font-family="Courier New" font-size="14.00">0x360..bbc</text>
<text text-anchor="middle" x="50.01" y="-133.5" font-family="Courier New" font-size="14.00"> &#160;</text>
<polyline fill="none" stroke="black" points="0,-125.3 100.01,-125.3 "/>
<text text-anchor="middle" x="50.01" y="-108.7" font-family="Courier New" font-size="14.00">0x491..143</text>
<text text-anchor="middle" x="50.01" y="-91.9" font-family="Courier New" font-size="14.00"> &#160;</text>
<polyline fill="none" stroke="black" points="0,-83.7 100.01,-83.7 "/>
<text text-anchor="middle" x="50.01" y="-67.1" font-family="Courier New" font-size="14.00">0xa3f..d50</text>
<text text-anchor="middle" x="50.01" y="-50.3" font-family="Courier New" font-size="14.00"> &#160;</text>
<polyline fill="none" stroke="black" points="0,-42.1 100.01,-42.1 "/>
<text text-anchor="middle" x="50.01" y="-25.5" font-family="Courier New" font-size="14.00">0xb53..103</text>
<text text-anchor="middle" x="50.01" y="-8.7" font-family="Courier New" font-size="14.00"> </text>
<polyline fill="none" stroke="black" points="100.01,-0.5 100.01,-863.7 "/>
<text text-anchor="middle" x="519.68" y="-847.1" font-family="Courier New" font-size="14.00">type: &lt;inherited contract&gt;.variable (bytes)</text>
<text text-anchor="middle" x="519.68" y="-830.3" font-family="Courier New" font-size="14.00">decoded data</text>
<polyline fill="none" stroke="black" points="100.01,-822.1 939.35,-822.1 "/>
<text text-anchor="middle" x="180.72" y="-797.1" font-family="Courier New" font-size="14.00">unallocated (30)</text>
<polyline fill="none" stroke="black" points="261.44,-780.5 261.44,-822.1 "/>
<text text-anchor="middle" x="430.86" y="-805.5" font-family="Courier New" font-size="14.00">bool: Initializable._initializing (1)</text>
<text text-anchor="middle" x="430.86" y="-788.7" font-family="Courier New" font-size="14.00"> false &#160;</text>
<polyline fill="none" stroke="black" points="600.29,-780.5 600.29,-822.1 "/>
<text text-anchor="middle" x="769.71" y="-805.5" font-family="Courier New" font-size="14.00">uint8: Initializable._initialized (1)</text>
<text text-anchor="middle" x="769.71" y="-788.7" font-family="Courier New" font-size="14.00"> 1 </text>
<polyline fill="none" stroke="black" points="100.01,-780.5 939.35,-780.5 "/>
<text text-anchor="middle" x="519.34" y="-763.9" font-family="Courier New" font-size="14.00">uint256[50]: ContextUpgradeable.__gap (1600)</text>
<polyline fill="none" stroke="black" points="100.01,-755.7 939.35,-755.7 "/>
<text text-anchor="middle" x="250.72" y="-730.7" font-family="Courier New" font-size="14.00">unallocated (12)</text>
<polyline fill="none" stroke="black" points="401.44,-714.1 401.44,-755.7 "/>
<text text-anchor="middle" x="670.27" y="-739.1" font-family="Courier New" font-size="14.00">address: OwnableUpgradeable._owner (20)</text>
<text text-anchor="middle" x="670.27" y="-722.3" font-family="Courier New" font-size="14.00"> 0x28Ade60640fdBDb2609D8d8734D1b5cBeFc0C348 </text>
<polyline fill="none" stroke="black" points="100.01,-714.1 939.35,-714.1 "/>
<text text-anchor="middle" x="519.34" y="-697.5" font-family="Courier New" font-size="14.00">uint256[49]: OwnableUpgradeable.__gap (1568)</text>
<polyline fill="none" stroke="black" points="100.01,-689.3 939.35,-689.3 "/>
<text text-anchor="middle" x="519.65" y="-672.7" font-family="Courier New" font-size="14.00">uint256: ReentrancyGuardUpgradeable._status (32)</text>
<text text-anchor="middle" x="519.65" y="-655.9" font-family="Courier New" font-size="14.00"> 1 </text>
<polyline fill="none" stroke="black" points="100.01,-647.7 939.35,-647.7 "/>
<text text-anchor="middle" x="519.45" y="-631.1" font-family="Courier New" font-size="14.00">uint256[49]: ReentrancyGuardUpgradeable.__gap (1568)</text>
<polyline fill="none" stroke="black" points="100.01,-622.9 939.35,-622.9 "/>
<text text-anchor="middle" x="248.72" y="-597.9" font-family="Courier New" font-size="14.00">unallocated (12)</text>
<polyline fill="none" stroke="black" points="397.44,-581.3 397.44,-622.9 "/>
<text text-anchor="middle" x="667.97" y="-606.3" font-family="Courier New" font-size="14.00">IPauserRegistry: Pausable.pauserRegistry (20)</text>
<text text-anchor="middle" x="667.97" y="-589.5" font-family="Courier New" font-size="14.00"> 0x85Ef7299F8311B25642679edBF02B62FA2212F06 </text>
<polyline fill="none" stroke="black" points="100.01,-581.3 939.35,-581.3 "/>
<text text-anchor="middle" x="519.53" y="-564.7" font-family="Courier New" font-size="14.00">uint256: Pausable._paused (32)</text>
<text text-anchor="middle" x="519.53" y="-547.9" font-family="Courier New" font-size="14.00"> 0 </text>
<polyline fill="none" stroke="black" points="100.01,-539.7 939.35,-539.7 "/>
<text text-anchor="middle" x="519.34" y="-523.1" font-family="Courier New" font-size="14.00">uint256[48]: Pausable.__gap (1536)</text>
<polyline fill="none" stroke="black" points="100.01,-514.9 939.35,-514.9 "/>
<text text-anchor="middle" x="519.66" y="-498.3" font-family="Courier New" font-size="14.00">bytes32: StrategyManagerStorage._DOMAIN_SEPARATOR (32)</text>
<text text-anchor="middle" x="519.66" y="-481.5" font-family="Courier New" font-size="14.00"> 0xD86861B23A8272DB7DA72102DAD01B29D34AF7F333BF5B77A4571277EC41A733 </text>
<polyline fill="none" stroke="black" points="100.01,-473.3 939.35,-473.3 "/>
<text text-anchor="middle" x="519.26" y="-456.7" font-family="Courier New" font-size="14.00">mapping(address=&gt;uint256): StrategyManagerStorage.nonces (32)</text>
<polyline fill="none" stroke="black" points="100.01,-448.5 939.35,-448.5 "/>
<text text-anchor="middle" x="225.72" y="-423.5" font-family="Courier New" font-size="14.00">unallocated (12)</text>
<polyline fill="none" stroke="black" points="351.44,-406.9 351.44,-448.5 "/>
<text text-anchor="middle" x="645.17" y="-431.9" font-family="Courier New" font-size="14.00">address: StrategyManagerStorage.strategyWhitelister (20)</text>
<text text-anchor="middle" x="645.17" y="-415.1" font-family="Courier New" font-size="14.00"> 0x28Ade60640fdBDb2609D8d8734D1b5cBeFc0C348 </text>
<polyline fill="none" stroke="black" points="100.01,-406.9 939.35,-406.9 "/>
<text text-anchor="middle" x="519.65" y="-390.3" font-family="Courier New" font-size="14.00">uint256: StrategyManagerStorage.withdrawalDelayBlocks (32)</text>
<text text-anchor="middle" x="519.65" y="-373.5" font-family="Courier New" font-size="14.00"> 0 </text>
<polyline fill="none" stroke="black" points="100.01,-365.3 939.35,-365.3 "/>
<text text-anchor="middle" x="519.58" y="-348.7" font-family="Courier New" font-size="14.00">mapping(address=&gt;mapping(IStrategy=&gt;uint256)): StrategyManagerStorage.stakerStrategyShares (32)</text>
<polyline fill="none" stroke="black" points="100.01,-340.5 939.35,-340.5 "/>
<text text-anchor="middle" x="519.47" y="-323.9" font-family="Courier New" font-size="14.00">mapping(address=&gt;IStrategy[]): StrategyManagerStorage.stakerStrategyList (32)</text>
<polyline fill="none" stroke="black" points="100.01,-315.7 939.35,-315.7 "/>
<text text-anchor="middle" x="519.66" y="-299.1" font-family="Courier New" font-size="14.00">mapping(bytes32=&gt;bool): StrategyManagerStorage.withdrawalRootPending (32)</text>
<polyline fill="none" stroke="black" points="100.01,-290.9 939.35,-290.9 "/>
<text text-anchor="middle" x="519.56" y="-274.3" font-family="Courier New" font-size="14.00">mapping(address=&gt;uint256): StrategyManagerStorage.numWithdrawalsQueued (32)</text>
<polyline fill="none" stroke="black" points="100.01,-266.1 939.35,-266.1 "/>
<text text-anchor="middle" x="519.57" y="-249.5" font-family="Courier New" font-size="14.00">mapping(IStrategy=&gt;bool): StrategyManagerStorage.strategyIsWhitelistedForDeposit (32)</text>
<polyline fill="none" stroke="black" points="100.01,-241.3 939.35,-241.3 "/>
<text text-anchor="middle" x="519.68" y="-224.7" font-family="Courier New" font-size="14.00">mapping(address=&gt;uint256): StrategyManagerStorage.beaconChainETHSharesToDecrementOnWithdrawal (32)</text>
<polyline fill="none" stroke="black" points="100.01,-216.5 939.35,-216.5 "/>
<text text-anchor="middle" x="519.47" y="-199.9" font-family="Courier New" font-size="14.00">mapping(IStrategy=&gt;bool): StrategyManagerStorage.thirdPartyTransfersForbidden (32)</text>
<polyline fill="none" stroke="black" points="100.01,-191.7 939.35,-191.7 "/>
<text text-anchor="middle" x="519.65" y="-175.1" font-family="Courier New" font-size="14.00">uint256[39]: StrategyManagerStorage.__gap (1248)</text>
<polyline fill="none" stroke="black" points="100.01,-166.9 939.35,-166.9 "/>
<text text-anchor="middle" x="519.66" y="-150.3" font-family="Courier New" font-size="14.00">bytes32 (32)</text>
<text text-anchor="middle" x="519.66" y="-133.5" font-family="Courier New" font-size="14.00"> 0x00000000000000000000000059F766A603C53F3AC8BE43BBE158C1519B193A18 </text>
<polyline fill="none" stroke="black" points="100.01,-125.3 939.35,-125.3 "/>
<text text-anchor="middle" x="519.66" y="-108.7" font-family="Courier New" font-size="14.00">bytes32 (32)</text>
<text text-anchor="middle" x="519.66" y="-91.9" font-family="Courier New" font-size="14.00"> 0x0000000000000000000000000000000000000000000000000000000000000000 </text>
<polyline fill="none" stroke="black" points="100.01,-83.7 939.35,-83.7 "/>
<text text-anchor="middle" x="519.66" y="-67.1" font-family="Courier New" font-size="14.00">bytes32 (32)</text>
<text text-anchor="middle" x="519.66" y="-50.3" font-family="Courier New" font-size="14.00"> 0x0000000000000000000000000000000000000000000000000000000000000000 </text>
<polyline fill="none" stroke="black" points="100.01,-42.1 939.35,-42.1 "/>
<text text-anchor="middle" x="519.66" y="-25.5" font-family="Courier New" font-size="14.00">bytes32 (32)</text>
<text text-anchor="middle" x="519.66" y="-8.7" font-family="Courier New" font-size="14.00"> 0x000000000000000000000000DB023566064246399B4AE851197A97729C93A6CF </text>
</g>
</g>
</svg>
