<?xml version="1.0" encoding="UTF-8" standalone="no"?>
<!DOCTYPE svg PUBLIC "-//W3C//DTD SVG 1.1//EN"
 "http://www.w3.org/Graphics/SVG/1.1/DTD/svg11.dtd">
<!-- Generated by graphviz version 5.0.0 (20220707.1540)
 -->
<!-- Title: UmlClassDiagram Pages: 1 -->
<svg width="704pt" height="225pt"
 viewBox="0.00 0.00 704.07 224.60" xmlns="http://www.w3.org/2000/svg" xmlns:xlink="http://www.w3.org/1999/xlink">
<g id="graph0" class="graph" transform="scale(1 1) rotate(0) translate(4 220.6)">
<title>UmlClassDiagram</title>
<polygon fill="white" stroke="transparent" points="-4,4 -4,-220.6 700.07,-220.6 700.07,4 -4,4"/>
<!-- 8 -->
<g id="node1" class="node">
<title>8</title>
<polygon fill="#f2f2f2" stroke="black" points="0,-157.7 0,-216.1 447.13,-216.1 447.13,-157.7 0,-157.7"/>
<text text-anchor="middle" x="223.56" y="-199.5" font-family="Times,serif" font-size="14.00">&lt;&lt;Abstract&gt;&gt;</text>
<text text-anchor="middle" x="223.56" y="-182.7" font-family="Times,serif" font-size="14.00">Initializable</text>
<text text-anchor="middle" x="223.56" y="-165.9" font-family="Times,serif" font-size="14.00">lib/openzeppelin&#45;contracts&#45;upgradeable/contracts/proxy/utils/Initializable.sol</text>
</g>
<!-- 5 -->
<g id="node2" class="node">
<title>5</title>
<polygon fill="#f2f2f2" stroke="black" points="465.06,-166.1 465.06,-207.7 696.07,-207.7 696.07,-166.1 465.06,-166.1"/>
<text text-anchor="middle" x="580.56" y="-191.1" font-family="Times,serif" font-size="14.00">Pausable</text>
<text text-anchor="middle" x="580.56" y="-174.3" font-family="Times,serif" font-size="14.00">src/contracts/permissions/Pausable.sol</text>
</g>
<!-- 1 -->
<g id="node3" class="node">
<title>1</title>
<polygon fill="#f2f2f2" stroke="black" points="281.01,-79.1 281.01,-120.7 522.11,-120.7 522.11,-79.1 281.01,-79.1"/>
<text text-anchor="middle" x="401.56" y="-104.1" font-family="Times,serif" font-size="14.00">StrategyBase</text>
<text text-anchor="middle" x="401.56" y="-87.3" font-family="Times,serif" font-size="14.00">src/contracts/strategies/StrategyBase.sol</text>
</g>
<!-- 1&#45;&gt;8 -->
<g id="edge1" class="edge">
<title>1&#45;&gt;8</title>
<path fill="none" stroke="black" d="M359.83,-120.83C344.88,-127.97 327.43,-136.3 310.1,-144.58"/>
<polygon fill="none" stroke="black" points="305.44,-135.16 282.9,-157.57 314.49,-154.11 305.44,-135.16"/>
</g>
<!-- 1&#45;&gt;5 -->
<g id="edge2" class="edge">
<title>1&#45;&gt;5</title>
<path fill="none" stroke="black" d="M443.53,-120.83C463.84,-130.47 488.75,-142.3 511.74,-153.22"/>
<polygon fill="none" stroke="black" points="507.26,-162.71 538.86,-166.1 516.26,-143.74 507.26,-162.71"/>
</g>
<!-- 0 -->
<g id="node4" class="node">
<title>0</title>
<polygon fill="#f2f2f2" stroke="black" points="249.13,-0.5 249.13,-42.1 554,-42.1 554,-0.5 249.13,-0.5"/>
<text text-anchor="middle" x="401.56" y="-25.5" font-family="Times,serif" font-size="14.00">StrategyBaseTVLLimits</text>
<text text-anchor="middle" x="401.56" y="-8.7" font-family="Times,serif" font-size="14.00">src/contracts/strategies/StrategyBaseTVLLimits.sol</text>
</g>
<!-- 0&#45;&gt;1 -->
<g id="edge3" class="edge">
<title>0&#45;&gt;1</title>
<path fill="none" stroke="black" d="M401.56,-42.43C401.56,-44.45 401.56,-46.56 401.56,-48.73"/>
<polygon fill="none" stroke="black" points="391.06,-48.91 401.56,-78.91 412.06,-48.91 391.06,-48.91"/>
</g>
</g>
</svg>
