<?xml version="1.0" encoding="UTF-8" standalone="no"?>
<!DOCTYPE svg PUBLIC "-//W3C//DTD SVG 1.1//EN"
 "http://www.w3.org/Graphics/SVG/1.1/DTD/svg11.dtd">
<!-- Generated by graphviz version 5.0.0 (20220707.1540)
 -->
<!-- Title: StorageDiagram Pages: 1 -->
<svg width="1501pt" height="723pt"
 viewBox="0.00 0.00 1501.04 722.60" xmlns="http://www.w3.org/2000/svg" xmlns:xlink="http://www.w3.org/1999/xlink">
<g id="graph0" class="graph" transform="scale(1 1) rotate(0) translate(4 718.6)">
<title>StorageDiagram</title>
<polygon fill="white" stroke="transparent" points="-4,4 -4,-718.6 1497.04,-718.6 1497.04,4 -4,4"/>
<!-- 1 -->
<g id="node1" class="node">
<title>1</title>
<polygon fill="#f2f2f2" stroke="black" points="0,-0.5 0,-714.1 1493.04,-714.1 1493.04,-0.5 0,-0.5"/>
<text text-anchor="middle" x="746.52" y="-697.5" font-family="Courier New" font-size="14.00">StrategyManager &lt;&lt;Contract&gt;&gt;</text>
<text text-anchor="middle" x="746.52" y="-680.7" font-family="Courier New" font-size="14.00">0x5d25EEf8CfEdaA47d31fE2346726dE1c21e342Fb</text>
<polyline fill="none" stroke="black" points="0,-672.5 1493.04,-672.5 "/>
<text text-anchor="middle" x="41.61" y="-655.9" font-family="Courier New" font-size="14.00">slot</text>
<text text-anchor="middle" x="41.61" y="-639.1" font-family="Courier New" font-size="14.00"> &#160;</text>
<polyline fill="none" stroke="black" points="0,-630.9 83.21,-630.9 "/>
<text text-anchor="middle" x="41.61" y="-614.3" font-family="Courier New" font-size="14.00">0</text>
<text text-anchor="middle" x="41.61" y="-597.5" font-family="Courier New" font-size="14.00"> &#160;</text>
<polyline fill="none" stroke="black" points="0,-589.3 83.21,-589.3 "/>
<text text-anchor="middle" x="41.61" y="-572.7" font-family="Courier New" font-size="14.00">1&#45;50 </text>
<polyline fill="none" stroke="black" points="0,-564.5 83.21,-564.5 "/>
<text text-anchor="middle" x="41.61" y="-547.9" font-family="Courier New" font-size="14.00">51</text>
<text text-anchor="middle" x="41.61" y="-531.1" font-family="Courier New" font-size="14.00"> &#160;</text>
<polyline fill="none" stroke="black" points="0,-522.9 83.21,-522.9 "/>
<text text-anchor="middle" x="41.61" y="-506.3" font-family="Courier New" font-size="14.00">52&#45;100 </text>
<polyline fill="none" stroke="black" points="0,-498.1 83.21,-498.1 "/>
<text text-anchor="middle" x="41.61" y="-481.5" font-family="Courier New" font-size="14.00">101</text>
<text text-anchor="middle" x="41.61" y="-464.7" font-family="Courier New" font-size="14.00"> &#160;</text>
<polyline fill="none" stroke="black" points="0,-456.5 83.21,-456.5 "/>
<text text-anchor="middle" x="41.61" y="-439.9" font-family="Courier New" font-size="14.00">102&#45;150 </text>
<polyline fill="none" stroke="black" points="0,-431.7 83.21,-431.7 "/>
<text text-anchor="middle" x="41.61" y="-415.1" font-family="Courier New" font-size="14.00">151</text>
<text text-anchor="middle" x="41.61" y="-398.3" font-family="Courier New" font-size="14.00"> &#160;</text>
<polyline fill="none" stroke="black" points="0,-390.1 83.21,-390.1 "/>
<text text-anchor="middle" x="41.61" y="-373.5" font-family="Courier New" font-size="14.00">152</text>
<text text-anchor="middle" x="41.61" y="-356.7" font-family="Courier New" font-size="14.00"> &#160;</text>
<polyline fill="none" stroke="black" points="0,-348.5 83.21,-348.5 "/>
<text text-anchor="middle" x="41.61" y="-331.9" font-family="Courier New" font-size="14.00">153&#45;200 </text>
<polyline fill="none" stroke="black" points="0,-323.7 83.21,-323.7 "/>
<text text-anchor="middle" x="41.61" y="-307.1" font-family="Courier New" font-size="14.00">201</text>
<text text-anchor="middle" x="41.61" y="-290.3" font-family="Courier New" font-size="14.00"> &#160;</text>
<polyline fill="none" stroke="black" points="0,-282.1 83.21,-282.1 "/>
<text text-anchor="middle" x="41.61" y="-265.5" font-family="Courier New" font-size="14.00">202 </text>
<polyline fill="none" stroke="black" points="0,-257.3 83.21,-257.3 "/>
<text text-anchor="middle" x="41.61" y="-240.7" font-family="Courier New" font-size="14.00">203</text>
<text text-anchor="middle" x="41.61" y="-223.9" font-family="Courier New" font-size="14.00"> &#160;</text>
<polyline fill="none" stroke="black" points="0,-215.7 83.21,-215.7 "/>
<text text-anchor="middle" x="41.61" y="-199.1" font-family="Courier New" font-size="14.00">204</text>
<text text-anchor="middle" x="41.61" y="-182.3" font-family="Courier New" font-size="14.00"> &#160;</text>
<polyline fill="none" stroke="black" points="0,-174.1 83.21,-174.1 "/>
<text text-anchor="middle" x="41.61" y="-157.5" font-family="Courier New" font-size="14.00">205 </text>
<polyline fill="none" stroke="black" points="0,-149.3 83.21,-149.3 "/>
<text text-anchor="middle" x="41.61" y="-132.7" font-family="Courier New" font-size="14.00">206 </text>
<polyline fill="none" stroke="black" points="0,-124.5 83.21,-124.5 "/>
<text text-anchor="middle" x="41.61" y="-107.9" font-family="Courier New" font-size="14.00">207 </text>
<polyline fill="none" stroke="black" points="0,-99.7 83.21,-99.7 "/>
<text text-anchor="middle" x="41.61" y="-83.1" font-family="Courier New" font-size="14.00">208 </text>
<polyline fill="none" stroke="black" points="0,-74.9 83.21,-74.9 "/>
<text text-anchor="middle" x="41.61" y="-58.3" font-family="Courier New" font-size="14.00">209 </text>
<polyline fill="none" stroke="black" points="0,-50.1 83.21,-50.1 "/>
<text text-anchor="middle" x="41.61" y="-33.5" font-family="Courier New" font-size="14.00">210 </text>
<polyline fill="none" stroke="black" points="0,-25.3 83.21,-25.3 "/>
<text text-anchor="middle" x="41.61" y="-8.7" font-family="Courier New" font-size="14.00">211&#45;250</text>
<polyline fill="none" stroke="black" points="83.21,-0.5 83.21,-672.5 "/>
<text text-anchor="middle" x="368.46" y="-655.9" font-family="Courier New" font-size="14.00">value</text>
<text text-anchor="middle" x="368.46" y="-639.1" font-family="Courier New" font-size="14.00"> &#160;</text>
<polyline fill="none" stroke="black" points="83.21,-630.9 653.7,-630.9 "/>
<text text-anchor="middle" x="368.46" y="-614.3" font-family="Courier New" font-size="14.00">0x0000000000000000000000000000000000000000000000000000000000000001</text>
<text text-anchor="middle" x="368.46" y="-597.5" font-family="Courier New" font-size="14.00"> &#160;</text>
<polyline fill="none" stroke="black" points="83.21,-589.3 653.7,-589.3 "/>
<text text-anchor="middle" x="368.46" y="-572.7" font-family="Courier New" font-size="14.00"> </text>
<polyline fill="none" stroke="black" points="83.21,-564.5 653.7,-564.5 "/>
<text text-anchor="middle" x="368.46" y="-547.9" font-family="Courier New" font-size="14.00">0x000000000000000000000000369E6F597E22EAB55FFB173C6D9CD234BD699111</text>
<text text-anchor="middle" x="368.46" y="-531.1" font-family="Courier New" font-size="14.00"> &#160;</text>
<polyline fill="none" stroke="black" points="83.21,-522.9 653.7,-522.9 "/>
<text text-anchor="middle" x="368.46" y="-506.3" font-family="Courier New" font-size="14.00"> </text>
<polyline fill="none" stroke="black" points="83.21,-498.1 653.7,-498.1 "/>
<text text-anchor="middle" x="368.46" y="-481.5" font-family="Courier New" font-size="14.00">0x0000000000000000000000000000000000000000000000000000000000000001</text>
<text text-anchor="middle" x="368.46" y="-464.7" font-family="Courier New" font-size="14.00"> &#160;</text>
<polyline fill="none" stroke="black" points="83.21,-456.5 653.7,-456.5 "/>
<text text-anchor="middle" x="368.46" y="-439.9" font-family="Courier New" font-size="14.00"> </text>
<polyline fill="none" stroke="black" points="83.21,-431.7 653.7,-431.7 "/>
<text text-anchor="middle" x="368.46" y="-415.1" font-family="Courier New" font-size="14.00">0x0000000000000000000000000C431C66F4DE941D089625E5B423D00707977060</text>
<text text-anchor="middle" x="368.46" y="-398.3" font-family="Courier New" font-size="14.00"> &#160;</text>
<polyline fill="none" stroke="black" points="83.21,-390.1 653.7,-390.1 "/>
<text text-anchor="middle" x="368.46" y="-373.5" font-family="Courier New" font-size="14.00">0x0000000000000000000000000000000000000000000000000000000000000001</text>
<text text-anchor="middle" x="368.46" y="-356.7" font-family="Courier New" font-size="14.00"> &#160;</text>
<polyline fill="none" stroke="black" points="83.21,-348.5 653.7,-348.5 "/>
<text text-anchor="middle" x="368.46" y="-331.9" font-family="Courier New" font-size="14.00"> </text>
<polyline fill="none" stroke="black" points="83.21,-323.7 653.7,-323.7 "/>
<text text-anchor="middle" x="368.46" y="-307.1" font-family="Courier New" font-size="14.00">0xDABA058AB21F198A04EC80CF0D39F943660A92A99BDA5DE5016F923F7E4962EF</text>
<text text-anchor="middle" x="368.46" y="-290.3" font-family="Courier New" font-size="14.00"> &#160;</text>
<polyline fill="none" stroke="black" points="83.21,-282.1 653.7,-282.1 "/>
<text text-anchor="middle" x="368.46" y="-265.5" font-family="Courier New" font-size="14.00"> </text>
<polyline fill="none" stroke="black" points="83.21,-257.3 653.7,-257.3 "/>
<text text-anchor="middle" x="368.46" y="-240.7" font-family="Courier New" font-size="14.00">0x000000000000000000000000BE1685C81AA44FF9FB319DD389ADDD9374383E90</text>
<text text-anchor="middle" x="368.46" y="-223.9" font-family="Courier New" font-size="14.00"> &#160;</text>
<polyline fill="none" stroke="black" points="83.21,-215.7 653.7,-215.7 "/>
<text text-anchor="middle" x="368.46" y="-199.1" font-family="Courier New" font-size="14.00">0x000000000000000000000000000000000000000000000000000000000000C4E0</text>
<text text-anchor="middle" x="368.46" y="-182.3" font-family="Courier New" font-size="14.00"> &#160;</text>
<polyline fill="none" stroke="black" points="83.21,-174.1 653.7,-174.1 "/>
<text text-anchor="middle" x="368.46" y="-157.5" font-family="Courier New" font-size="14.00"> </text>
<polyline fill="none" stroke="black" points="83.21,-149.3 653.7,-149.3 "/>
<text text-anchor="middle" x="368.46" y="-132.7" font-family="Courier New" font-size="14.00"> </text>
<polyline fill="none" stroke="black" points="83.21,-124.5 653.7,-124.5 "/>
<text text-anchor="middle" x="368.46" y="-107.9" font-family="Courier New" font-size="14.00"> </text>
<polyline fill="none" stroke="black" points="83.21,-99.7 653.7,-99.7 "/>
<text text-anchor="middle" x="368.46" y="-83.1" font-family="Courier New" font-size="14.00"> </text>
<polyline fill="none" stroke="black" points="83.21,-74.9 653.7,-74.9 "/>
<text text-anchor="middle" x="368.46" y="-58.3" font-family="Courier New" font-size="14.00"> </text>
<polyline fill="none" stroke="black" points="83.21,-50.1 653.7,-50.1 "/>
<text text-anchor="middle" x="368.46" y="-33.5" font-family="Courier New" font-size="14.00"> </text>
<polyline fill="none" stroke="black" points="83.21,-25.3 653.7,-25.3 "/>
<text text-anchor="middle" x="368.46" y="-8.7" font-family="Courier New" font-size="14.00"> </text>
<polyline fill="none" stroke="black" points="653.7,-0.5 653.7,-672.5 "/>
<text text-anchor="middle" x="1073.37" y="-655.9" font-family="Courier New" font-size="14.00">type: &lt;inherited contract&gt;.variable (bytes)</text>
<text text-anchor="middle" x="1073.37" y="-639.1" font-family="Courier New" font-size="14.00">decoded data</text>
<polyline fill="none" stroke="black" points="653.7,-630.9 1493.04,-630.9 "/>
<text text-anchor="middle" x="734.41" y="-605.9" font-family="Courier New" font-size="14.00">unallocated (30)</text>
<polyline fill="none" stroke="black" points="815.12,-589.3 815.12,-630.9 "/>
<text text-anchor="middle" x="984.55" y="-614.3" font-family="Courier New" font-size="14.00">bool: Initializable._initializing (1)</text>
<text text-anchor="middle" x="984.55" y="-597.5" font-family="Courier New" font-size="14.00"> false &#160;</text>
<polyline fill="none" stroke="black" points="1153.97,-589.3 1153.97,-630.9 "/>
<text text-anchor="middle" x="1323.4" y="-614.3" font-family="Courier New" font-size="14.00">uint8: Initializable._initialized (1)</text>
<text text-anchor="middle" x="1323.4" y="-597.5" font-family="Courier New" font-size="14.00"> 1 </text>
<polyline fill="none" stroke="black" points="653.7,-589.3 1493.04,-589.3 "/>
<text text-anchor="middle" x="1073.03" y="-572.7" font-family="Courier New" font-size="14.00">uint256[50]: ContextUpgradeable.__gap (1600)</text>
<polyline fill="none" stroke="black" points="653.7,-564.5 1493.04,-564.5 "/>
<text text-anchor="middle" x="804.41" y="-539.5" font-family="Courier New" font-size="14.00">unallocated (12)</text>
<polyline fill="none" stroke="black" points="955.12,-522.9 955.12,-564.5 "/>
<text text-anchor="middle" x="1223.95" y="-547.9" font-family="Courier New" font-size="14.00">address: OwnableUpgradeable._owner (20)</text>
<text text-anchor="middle" x="1223.95" y="-531.1" font-family="Courier New" font-size="14.00"> 0x369e6F597e22EaB55fFb173C6d9cD234BD699111 </text>
<polyline fill="none" stroke="black" points="653.7,-522.9 1493.04,-522.9 "/>
<text text-anchor="middle" x="1073.03" y="-506.3" font-family="Courier New" font-size="14.00">uint256[49]: OwnableUpgradeable.__gap (1568)</text>
<polyline fill="none" stroke="black" points="653.7,-498.1 1493.04,-498.1 "/>
<text text-anchor="middle" x="1073.33" y="-481.5" font-family="Courier New" font-size="14.00">uint256: ReentrancyGuardUpgradeable._status (32)</text>
<text text-anchor="middle" x="1073.33" y="-464.7" font-family="Courier New" font-size="14.00"> 1 </text>
<polyline fill="none" stroke="black" points="653.7,-456.5 1493.04,-456.5 "/>
<text text-anchor="middle" x="1073.14" y="-439.9" font-family="Courier New" font-size="14.00">uint256[49]: ReentrancyGuardUpgradeable.__gap (1568)</text>
<polyline fill="none" stroke="black" points="653.7,-431.7 1493.04,-431.7 "/>
<text text-anchor="middle" x="802.41" y="-406.7" font-family="Courier New" font-size="14.00">unallocated (12)</text>
<polyline fill="none" stroke="black" points="951.12,-390.1 951.12,-431.7 "/>
<text text-anchor="middle" x="1221.65" y="-415.1" font-family="Courier New" font-size="14.00">IPauserRegistry: Pausable.pauserRegistry (20)</text>
<text text-anchor="middle" x="1221.65" y="-398.3" font-family="Courier New" font-size="14.00"> 0x0c431C66F4dE941d089625E5B423D00707977060 </text>
<polyline fill="none" stroke="black" points="653.7,-390.1 1493.04,-390.1 "/>
<text text-anchor="middle" x="1073.22" y="-373.5" font-family="Courier New" font-size="14.00">uint256: Pausable._paused (32)</text>
<text text-anchor="middle" x="1073.22" y="-356.7" font-family="Courier New" font-size="14.00"> 1 </text>
<polyline fill="none" stroke="black" points="653.7,-348.5 1493.04,-348.5 "/>
<text text-anchor="middle" x="1073.02" y="-331.9" font-family="Courier New" font-size="14.00">uint256[48]: Pausable.__gap (1536)</text>
<polyline fill="none" stroke="black" points="653.7,-323.7 1493.04,-323.7 "/>
<text text-anchor="middle" x="1073.35" y="-307.1" font-family="Courier New" font-size="14.00">bytes32: StrategyManagerStorage.DOMAIN_SEPARATOR (32)</text>
<text text-anchor="middle" x="1073.35" y="-290.3" font-family="Courier New" font-size="14.00"> 0xDABA058AB21F198A04EC80CF0D39F943660A92A99BDA5DE5016F923F7E4962EF </text>
<polyline fill="none" stroke="black" points="653.7,-282.1 1493.04,-282.1 "/>
<text text-anchor="middle" x="1072.94" y="-265.5" font-family="Courier New" font-size="14.00">mapping(address=&gt;uint256): StrategyManagerStorage.nonces (32)</text>
<polyline fill="none" stroke="black" points="653.7,-257.3 1493.04,-257.3 "/>
<text text-anchor="middle" x="779.41" y="-232.3" font-family="Courier New" font-size="14.00">unallocated (12)</text>
<polyline fill="none" stroke="black" points="905.12,-215.7 905.12,-257.3 "/>
<text text-anchor="middle" x="1198.86" y="-240.7" font-family="Courier New" font-size="14.00">address: StrategyManagerStorage.strategyWhitelister (20)</text>
<text text-anchor="middle" x="1198.86" y="-223.9" font-family="Courier New" font-size="14.00"> 0xBE1685C81aA44FF9FB319dD389addd9374383e90 </text>
<polyline fill="none" stroke="black" points="653.7,-215.7 1493.04,-215.7 "/>
<text text-anchor="middle" x="1073.34" y="-199.1" font-family="Courier New" font-size="14.00">uint256: StrategyManagerStorage.withdrawalDelayBlocks (32)</text>
<text text-anchor="middle" x="1073.34" y="-182.3" font-family="Courier New" font-size="14.00"> 50,400 </text>
<polyline fill="none" stroke="black" points="653.7,-174.1 1493.04,-174.1 "/>
<text text-anchor="middle" x="1073.27" y="-157.5" font-family="Courier New" font-size="14.00">mapping(address=&gt;mapping(IStrategy=&gt;uint256)): StrategyManagerStorage.stakerStrategyShares (32)</text>
<polyline fill="none" stroke="black" points="653.7,-149.3 1493.04,-149.3 "/>
<text text-anchor="middle" x="1073.15" y="-132.7" font-family="Courier New" font-size="14.00">mapping(address=&gt;IStrategy[]): StrategyManagerStorage.stakerStrategyList (32)</text>
<polyline fill="none" stroke="black" points="653.7,-124.5 1493.04,-124.5 "/>
<text text-anchor="middle" x="1073.35" y="-107.9" font-family="Courier New" font-size="14.00">mapping(bytes32=&gt;bool): StrategyManagerStorage.withdrawalRootPending (32)</text>
<polyline fill="none" stroke="black" points="653.7,-99.7 1493.04,-99.7 "/>
<text text-anchor="middle" x="1073.25" y="-83.1" font-family="Courier New" font-size="14.00">mapping(address=&gt;uint256): StrategyManagerStorage.numWithdrawalsQueued (32)</text>
<polyline fill="none" stroke="black" points="653.7,-74.9 1493.04,-74.9 "/>
<text text-anchor="middle" x="1073.26" y="-58.3" font-family="Courier New" font-size="14.00">mapping(IStrategy=&gt;bool): StrategyManagerStorage.strategyIsWhitelistedForDeposit (32)</text>
<polyline fill="none" stroke="black" points="653.7,-50.1 1493.04,-50.1 "/>
<text text-anchor="middle" x="1073.37" y="-33.5" font-family="Courier New" font-size="14.00">mapping(address=&gt;uint256): StrategyManagerStorage.beaconChainETHSharesToDecrementOnWithdrawal (32)</text>
<polyline fill="none" stroke="black" points="653.7,-25.3 1493.04,-25.3 "/>
<text text-anchor="middle" x="1073.33" y="-8.7" font-family="Courier New" font-size="14.00">uint256[40]: StrategyManagerStorage.__gap (1280)</text>
</g>
</g>
</svg>
