<?xml version="1.0" encoding="us-ascii" standalone="no"?><svg xmlns="http://www.w3.org/2000/svg" xmlns:xlink="http://www.w3.org/1999/xlink" contentStyleType="text/css" height="1240px" preserveAspectRatio="none" style="width:1118px;height:1240px;background:#FFFFFF;" version="1.1" viewBox="0 0 1118 1240" width="1118px" zoomAndPan="magnify"><defs/><g><text fill="#000000" font-family="sans-serif" font-size="14" font-weight="bold" lengthAdjust="spacing" textLength="576" x="270.25" y="28.5352">0x20ec32b903a8cc73327e677fa4915074555e4eb1181dd10451349552a3737e57</text><text fill="#000000" font-family="sans-serif" font-size="14" lengthAdjust="spacing" textLength="386" x="365.25" y="1228.2168">holesky, block 1377205, Fri, 19 Apr 2024 11:39:48 GMT</text><rect fill="#FFFFFF" height="618.0059" style="stroke:#181818;stroke-width:1.0;" width="10" x="299" y="308.082"/><rect fill="#FFFFFF" height="29.3105" style="stroke:#181818;stroke-width:1.0;" width="10" x="568" y="383.3242"/><rect fill="#FFFFFF" height="29.3105" style="stroke:#181818;stroke-width:1.0;" width="10" x="568" y="472.5664"/><rect fill="#FFFFFF" height="238.416" style="stroke:#181818;stroke-width:1.0;" width="10" x="710.5" y="623.0508"/><rect fill="#FFFFFF" height="29.3105" style="stroke:#181818;stroke-width:1.0;" width="10" x="877.5" y="682.9824"/><rect fill="#FFFFFF" height="75.2422" style="stroke:#181818;stroke-width:1.0;" width="10" x="1035.5" y="772.2246"/><line style="stroke:#181818;stroke-width:0.5;stroke-dasharray:5.0,5.0;" x1="116" x2="116" y1="118.9766" y2="1137.1934"/><line style="stroke:#181818;stroke-width:0.5;stroke-dasharray:5.0,5.0;" x1="303.5" x2="303.5" y1="118.9766" y2="1137.1934"/><line style="stroke:#181818;stroke-width:0.5;stroke-dasharray:5.0,5.0;" x1="572.5" x2="572.5" y1="118.9766" y2="1137.1934"/><line style="stroke:#181818;stroke-width:0.5;stroke-dasharray:5.0,5.0;" x1="715.5" x2="715.5" y1="118.9766" y2="1137.1934"/><line style="stroke:#181818;stroke-width:0.5;stroke-dasharray:5.0,5.0;" x1="882.5" x2="882.5" y1="118.9766" y2="1137.1934"/><line style="stroke:#181818;stroke-width:0.5;stroke-dasharray:5.0,5.0;" x1="1040.5" x2="1040.5" y1="118.9766" y2="1137.1934"/><text fill="#000000" font-family="sans-serif" font-size="14" lengthAdjust="spacing" textLength="94" x="66" y="116.0234">0x3c6b..5cb4</text><ellipse cx="116" cy="50.9883" fill="#E2E2F0" rx="8" ry="8" style="stroke:#181818;stroke-width:0.5;"/><path d="M116,58.9883 L116,85.9883 M103,66.9883 L129,66.9883 M116,85.9883 L103,100.9883 M116,85.9883 L129,100.9883 " fill="none" style="stroke:#181818;stroke-width:0.5;"/><text fill="#000000" font-family="sans-serif" font-size="14" lengthAdjust="spacing" textLength="94" x="66" y="1149.7285">0x3c6b..5cb4</text><ellipse cx="116" cy="1161.1816" fill="#E2E2F0" rx="8" ry="8" style="stroke:#181818;stroke-width:0.5;"/><path d="M116,1169.1816 L116,1196.1816 M103,1177.1816 L129,1177.1816 M116,1196.1816 L103,1211.1816 M116,1196.1816 L129,1211.1816 " fill="none" style="stroke:#181818;stroke-width:0.5;"/><rect fill="#E2E2F0" height="46.9766" rx="2.5" ry="2.5" style="stroke:#181818;stroke-width:0.5;" width="131" x="238.5" y="71"/><text fill="#000000" font-family="sans-serif" font-size="14" font-style="italic" lengthAdjust="spacing" textLength="117" x="245.5" y="91.5352">&#171;NodeDelegator&#187;</text><text fill="#000000" font-family="sans-serif" font-size="14" lengthAdjust="spacing" textLength="97" x="255.5" y="108.0234">0x326e..42b4</text><rect fill="#E2E2F0" height="46.9766" rx="2.5" ry="2.5" style="stroke:#181818;stroke-width:0.5;" width="131" x="238.5" y="1136.1934"/><text fill="#000000" font-family="sans-serif" font-size="14" font-style="italic" lengthAdjust="spacing" textLength="117" x="245.5" y="1156.7285">&#171;NodeDelegator&#187;</text><text fill="#000000" font-family="sans-serif" font-size="14" lengthAdjust="spacing" textLength="97" x="255.5" y="1173.2168">0x326e..42b4</text><rect fill="#E2E2F0" height="46.9766" rx="2.5" ry="2.5" style="stroke:#181818;stroke-width:0.5;" width="103" x="521.5" y="71"/><text fill="#000000" font-family="sans-serif" font-size="14" font-style="italic" lengthAdjust="spacing" textLength="85" x="530.5" y="91.5352">&#171;LRTConfig&#187;</text><text fill="#000000" font-family="sans-serif" font-size="14" lengthAdjust="spacing" textLength="89" x="528.5" y="108.0234">0xc1b4..cfe7</text><rect fill="#E2E2F0" height="46.9766" rx="2.5" ry="2.5" style="stroke:#181818;stroke-width:0.5;" width="103" x="521.5" y="1136.1934"/><text fill="#000000" font-family="sans-serif" font-size="14" font-style="italic" lengthAdjust="spacing" textLength="85" x="530.5" y="1156.7285">&#171;LRTConfig&#187;</text><text fill="#000000" font-family="sans-serif" font-size="14" lengthAdjust="spacing" textLength="89" x="528.5" y="1173.2168">0xc1b4..cfe7</text><rect fill="#E2E2F0" height="46.9766" rx="2.5" ry="2.5" style="stroke:#181818;stroke-width:0.5;" width="162" x="634.5" y="71"/><text fill="#000000" font-family="sans-serif" font-size="14" font-style="italic" lengthAdjust="spacing" textLength="148" x="641.5" y="91.5352">&#171;DelegationManager&#187;</text><text fill="#000000" font-family="sans-serif" font-size="14" lengthAdjust="spacing" textLength="96" x="667.5" y="108.0234">0xa441..48e7</text><rect fill="#E2E2F0" height="46.9766" rx="2.5" ry="2.5" style="stroke:#181818;stroke-width:0.5;" width="162" x="634.5" y="1136.1934"/><text fill="#000000" font-family="sans-serif" font-size="14" font-style="italic" lengthAdjust="spacing" textLength="148" x="641.5" y="1156.7285">&#171;DelegationManager&#187;</text><text fill="#000000" font-family="sans-serif" font-size="14" lengthAdjust="spacing" textLength="96" x="667.5" y="1173.2168">0xa441..48e7</text><rect fill="#E2E2F0" height="46.9766" rx="2.5" ry="2.5" style="stroke:#181818;stroke-width:0.5;" width="152" x="806.5" y="71"/><text fill="#000000" font-family="sans-serif" font-size="14" font-style="italic" lengthAdjust="spacing" textLength="138" x="813.5" y="91.5352">&#171;EigenPodManager&#187;</text><text fill="#000000" font-family="sans-serif" font-size="14" lengthAdjust="spacing" textLength="97" x="834" y="108.0234">0x3077..e315</text><rect fill="#E2E2F0" height="46.9766" rx="2.5" ry="2.5" style="stroke:#181818;stroke-width:0.5;" width="152" x="806.5" y="1136.1934"/><text fill="#000000" font-family="sans-serif" font-size="14" font-style="italic" lengthAdjust="spacing" textLength="138" x="813.5" y="1156.7285">&#171;EigenPodManager&#187;</text><text fill="#000000" font-family="sans-serif" font-size="14" lengthAdjust="spacing" textLength="97" x="834" y="1173.2168">0x3077..e315</text><rect fill="#E2E2F0" height="46.9766" rx="2.5" ry="2.5" style="stroke:#181818;stroke-width:0.5;" width="144" x="968.5" y="71"/><text fill="#000000" font-family="sans-serif" font-size="14" font-style="italic" lengthAdjust="spacing" textLength="130" x="975.5" y="91.5352">&#171;StrategyManager&#187;</text><text fill="#000000" font-family="sans-serif" font-size="14" lengthAdjust="spacing" textLength="94" x="993.5" y="108.0234">0xdfb5..d5b6</text><rect fill="#E2E2F0" height="46.9766" rx="2.5" ry="2.5" style="stroke:#181818;stroke-width:0.5;" width="144" x="968.5" y="1136.1934"/><text fill="#000000" font-family="sans-serif" font-size="14" font-style="italic" lengthAdjust="spacing" textLength="130" x="975.5" y="1156.7285">&#171;StrategyManager&#187;</text><text fill="#000000" font-family="sans-serif" font-size="14" lengthAdjust="spacing" textLength="94" x="993.5" y="1173.2168">0xdfb5..d5b6</text><rect fill="#FFFFFF" height="618.0059" style="stroke:#181818;stroke-width:1.0;" width="10" x="299" y="308.082"/><rect fill="#FFFFFF" height="29.3105" style="stroke:#181818;stroke-width:1.0;" width="10" x="568" y="383.3242"/><rect fill="#FFFFFF" height="29.3105" style="stroke:#181818;stroke-width:1.0;" width="10" x="568" y="472.5664"/><rect fill="#FFFFFF" height="238.416" style="stroke:#181818;stroke-width:1.0;" width="10" x="710.5" y="623.0508"/><rect fill="#FFFFFF" height="29.3105" style="stroke:#181818;stroke-width:1.0;" width="10" x="877.5" y="682.9824"/><rect fill="#FFFFFF" height="75.2422" style="stroke:#181818;stroke-width:1.0;" width="10" x="1035.5" y="772.2246"/><path d="M5,133.9766 L5,250.9766 L227,250.9766 L227,143.9766 L217,133.9766 L5,133.9766 " fill="#FEFFDD" style="stroke:#181818;stroke-width:0.5;"/><path d="M217,133.9766 L217,143.9766 L227,143.9766 L217,133.9766 " fill="#FEFFDD" style="stroke:#181818;stroke-width:0.5;"/><text fill="#000000" font-family="sans-serif" font-size="13" lengthAdjust="spacing" textLength="64" x="11" y="151.5449">Nonce: 39</text><text fill="#000000" font-family="sans-serif" font-size="13" lengthAdjust="spacing" textLength="183" x="11" y="166.8555">Gas Price: 3.579324946 Gwei</text><text fill="#000000" font-family="sans-serif" font-size="13" lengthAdjust="spacing" textLength="161" x="11" y="182.166">Max Fee: 6.4201565 Gwei</text><text fill="#000000" font-family="sans-serif" font-size="13" lengthAdjust="spacing" textLength="201" x="11" y="197.4766">Max Priority: 1.582066822 Gwei</text><text fill="#000000" font-family="sans-serif" font-size="13" lengthAdjust="spacing" textLength="119" x="11" y="212.7871">Gas Limit: 134,923</text><text fill="#000000" font-family="sans-serif" font-size="13" lengthAdjust="spacing" textLength="118" x="11" y="228.0977">Gas Used: 130,515</text><text fill="#000000" font-family="sans-serif" font-size="13" lengthAdjust="spacing" textLength="86" x="11" y="243.4082">Tx Fee: 0 ETH</text><polygon fill="#181818" points="287,304.082,297,308.082,287,312.082,291,308.082" style="stroke:#181818;stroke-width:1.0;"/><line style="stroke:#181818;stroke-width:1.0;" x1="116" x2="293" y1="308.082" y2="308.082"/><text fill="#000000" font-family="sans-serif" font-size="13" lengthAdjust="spacing" textLength="73" x="123" y="272.7188">delegateTo(</text><text fill="#000000" font-family="sans-serif" font-size="13" lengthAdjust="spacing" textLength="156" x="131" y="288.0293">operator: 0x37d5..C3D8)</text><text fill="#000000" font-family="sans-serif" font-size="13" lengthAdjust="spacing" textLength="78" x="123" y="303.3398">130,515 gas</text><polygon fill="#181818" points="556,379.3242,566,383.3242,556,387.3242,560,383.3242" style="stroke:#181818;stroke-width:1.0;"/><line style="stroke:#181818;stroke-width:1.0;" x1="309" x2="562" y1="383.3242" y2="383.3242"/><text fill="#000000" font-family="sans-serif" font-size="13" lengthAdjust="spacing" textLength="53" x="316" y="332.6504">hasRole(</text><text fill="#000000" font-family="sans-serif" font-size="13" lengthAdjust="spacing" textLength="181" x="324" y="347.9609">role: 0xaf290d86..30c3a02c,</text><text fill="#000000" font-family="sans-serif" font-size="13" lengthAdjust="spacing" textLength="150" x="324" y="363.2715">account: 0x3C6B..5CB4)</text><text fill="#000000" font-family="sans-serif" font-size="13" lengthAdjust="spacing" textLength="62" x="316" y="378.582">9,758 gas</text><polygon fill="#181818" points="320,408.6348,310,412.6348,320,416.6348,316,412.6348" style="stroke:#181818;stroke-width:1.0;"/><line style="stroke:#181818;stroke-width:1.0;stroke-dasharray:2.0,2.0;" x1="314" x2="572" y1="412.6348" y2="412.6348"/><text fill="#000000" font-family="sans-serif" font-size="13" lengthAdjust="spacing" textLength="25" x="326" y="407.8926">true</text><polygon fill="#181818" points="556,468.5664,566,472.5664,556,476.5664,560,472.5664" style="stroke:#181818;stroke-width:1.0;"/><line style="stroke:#181818;stroke-width:1.0;" x1="309" x2="562" y1="472.5664" y2="472.5664"/><text fill="#000000" font-family="sans-serif" font-size="13" lengthAdjust="spacing" textLength="78" x="316" y="437.2031">getContract(</text><text fill="#000000" font-family="sans-serif" font-size="13" lengthAdjust="spacing" textLength="232" x="324" y="452.5137">contractKey: 0xe6f126e6..199de5b5)</text><text fill="#000000" font-family="sans-serif" font-size="13" lengthAdjust="spacing" textLength="62" x="316" y="467.8242">3,134 gas</text><polygon fill="#181818" points="320,497.877,310,501.877,320,505.877,316,501.877" style="stroke:#181818;stroke-width:1.0;"/><line style="stroke:#181818;stroke-width:1.0;stroke-dasharray:2.0,2.0;" x1="314" x2="572" y1="501.877" y2="501.877"/><text fill="#000000" font-family="sans-serif" font-size="13" lengthAdjust="spacing" textLength="88" x="326" y="497.1348">0xA441..48e7</text><polygon fill="#181818" points="698.5,619.0508,708.5,623.0508,698.5,627.0508,702.5,623.0508" style="stroke:#181818;stroke-width:1.0;"/><line style="stroke:#181818;stroke-width:1.0;" x1="309" x2="704.5" y1="623.0508" y2="623.0508"/><text fill="#000000" font-family="sans-serif" font-size="13" lengthAdjust="spacing" textLength="73" x="316" y="526.4453">delegateTo(</text><text fill="#000000" font-family="sans-serif" font-size="13" lengthAdjust="spacing" textLength="156" x="324" y="541.7559">operator: 0x37d5..C3D8,</text><text fill="#000000" font-family="sans-serif" font-size="13" lengthAdjust="spacing" textLength="190" x="324" y="557.0664">approverSignatureAndExpiry: [</text><text fill="#000000" font-family="sans-serif" font-size="13" lengthAdjust="spacing" textLength="87" x="332" y="572.377">signature: 0x,</text><text fill="#000000" font-family="sans-serif" font-size="13" lengthAdjust="spacing" textLength="63" x="332" y="587.6875">expiry: 0],</text><text fill="#000000" font-family="sans-serif" font-size="13" lengthAdjust="spacing" textLength="242" x="324" y="602.998">approverSalt: 0x00000000..00000000)</text><text fill="#000000" font-family="sans-serif" font-size="13" lengthAdjust="spacing" textLength="70" x="316" y="618.3086">79,812 gas</text><polygon fill="#181818" points="865.5,678.9824,875.5,682.9824,865.5,686.9824,869.5,682.9824" style="stroke:#181818;stroke-width:1.0;"/><line style="stroke:#181818;stroke-width:1.0;" x1="720.5" x2="871.5" y1="682.9824" y2="682.9824"/><text fill="#000000" font-family="sans-serif" font-size="13" lengthAdjust="spacing" textLength="109" x="727.5" y="647.6191">podOwnerShares(</text><text fill="#000000" font-family="sans-serif" font-size="13" lengthAdjust="spacing" textLength="90" x="735.5" y="662.9297">0x326E..42B4)</text><text fill="#000000" font-family="sans-serif" font-size="13" lengthAdjust="spacing" textLength="62" x="727.5" y="678.2402">9,933 gas</text><polygon fill="#181818" points="731.5,708.293,721.5,712.293,731.5,716.293,727.5,712.293" style="stroke:#181818;stroke-width:1.0;"/><line style="stroke:#181818;stroke-width:1.0;stroke-dasharray:2.0,2.0;" x1="725.5" x2="881.5" y1="712.293" y2="712.293"/><text fill="#000000" font-family="sans-serif" font-size="13" lengthAdjust="spacing" textLength="8" x="737.5" y="707.5508">0</text><polygon fill="#181818" points="1023.5,768.2246,1033.5,772.2246,1023.5,776.2246,1027.5,772.2246" style="stroke:#181818;stroke-width:1.0;"/><line style="stroke:#181818;stroke-width:1.0;" x1="720.5" x2="1029.5" y1="772.2246" y2="772.2246"/><text fill="#000000" font-family="sans-serif" font-size="13" lengthAdjust="spacing" textLength="80" x="727.5" y="736.8613">getDeposits(</text><text fill="#000000" font-family="sans-serif" font-size="13" lengthAdjust="spacing" textLength="137" x="735.5" y="752.1719">staker: 0x326E..42B4)</text><text fill="#000000" font-family="sans-serif" font-size="13" lengthAdjust="spacing" textLength="70" x="727.5" y="767.4824">16,100 gas</text><polygon fill="#181818" points="731.5,843.4668,721.5,847.4668,731.5,851.4668,727.5,847.4668" style="stroke:#181818;stroke-width:1.0;"/><line style="stroke:#181818;stroke-width:1.0;stroke-dasharray:2.0,2.0;" x1="725.5" x2="1039.5" y1="847.4668" y2="847.4668"/><text fill="#000000" font-family="sans-serif" font-size="13" lengthAdjust="spacing" textLength="4" x="737.5" y="796.793">[</text><text fill="#000000" font-family="sans-serif" font-size="13" lengthAdjust="spacing" textLength="114" x="745.5" y="812.1035">0: 0x7D70..63d3],</text><text fill="#000000" font-family="sans-serif" font-size="13" lengthAdjust="spacing" textLength="4" x="737.5" y="827.4141">[</text><text fill="#000000" font-family="sans-serif" font-size="13" lengthAdjust="spacing" textLength="184" x="745.5" y="842.7246">0: 501,938,038,686,208,529]</text><polygon fill="#181818" points="320,857.4668,310,861.4668,320,865.4668,316,861.4668" style="stroke:#181818;stroke-width:1.0;"/><line style="stroke:#181818;stroke-width:1.0;stroke-dasharray:2.0,2.0;" x1="314" x2="714.5" y1="861.4668" y2="861.4668"/><path d="M720,874.4668 L720,914.4668 L811,914.4668 L811,884.4668 L801,874.4668 L720,874.4668 " fill="#FEFFDD" style="stroke:#181818;stroke-width:0.5;"/><path d="M801,874.4668 L801,884.4668 L811,884.4668 L801,874.4668 " fill="#FEFFDD" style="stroke:#181818;stroke-width:0.5;"/><text fill="#000000" font-family="sans-serif" font-size="13" lengthAdjust="spacing" textLength="4" x="726" y="892.0352">&#160;</text><text fill="#000000" font-family="sans-serif" font-size="13" lengthAdjust="spacing" textLength="70" x="726" y="907.3457">53,779 gas</text><polygon fill="#181818" points="127,922.0879,117,926.0879,127,930.0879,123,926.0879" style="stroke:#181818;stroke-width:1.0;"/><line style="stroke:#181818;stroke-width:1.0;stroke-dasharray:2.0,2.0;" x1="121" x2="303" y1="926.0879" y2="926.0879"/><path d="M309,939.0879 L309,979.0879 L400,979.0879 L400,949.0879 L390,939.0879 L309,939.0879 " fill="#FEFFDD" style="stroke:#181818;stroke-width:0.5;"/><path d="M390,939.0879 L390,949.0879 L400,949.0879 L390,939.0879 " fill="#FEFFDD" style="stroke:#181818;stroke-width:0.5;"/><text fill="#000000" font-family="sans-serif" font-size="13" lengthAdjust="spacing" textLength="4" x="315" y="956.6563">&#160;</text><text fill="#000000" font-family="sans-serif" font-size="13" lengthAdjust="spacing" textLength="70" x="315" y="971.9668">37,811 gas</text><path d="M594,989.709 L594,1121.709 L836,1121.709 L836,999.709 L826,989.709 L594,989.709 " fill="#00FFFF" style="stroke:#181818;stroke-width:0.5;"/><path d="M826,989.709 L826,999.709 L836,999.709 L826,989.709 " fill="#00FFFF" style="stroke:#181818;stroke-width:0.5;"/><text fill="#000000" font-family="sans-serif" font-size="13" lengthAdjust="spacing" textLength="106" x="600" y="1007.2773">StakerDelegated:</text><text fill="#000000" font-family="sans-serif" font-size="13" lengthAdjust="spacing" textLength="137" x="608" y="1022.5879">staker: 0x326E..42B4,</text><text fill="#000000" font-family="sans-serif" font-size="13" lengthAdjust="spacing" textLength="152" x="608" y="1037.8984">operator: 0x37d5..C3D8</text><text fill="#000000" font-family="sans-serif" font-size="13" lengthAdjust="spacing" textLength="160" x="600" y="1053.209">OperatorSharesIncreased:</text><text fill="#000000" font-family="sans-serif" font-size="13" lengthAdjust="spacing" textLength="156" x="608" y="1068.5195">operator: 0x37d5..C3D8,</text><text fill="#000000" font-family="sans-serif" font-size="13" lengthAdjust="spacing" textLength="137" x="608" y="1083.8301">staker: 0x326E..42B4,</text><text fill="#000000" font-family="sans-serif" font-size="13" lengthAdjust="spacing" textLength="153" x="608" y="1099.1406">strategy: 0x7D70..63d3,</text><text fill="#000000" font-family="sans-serif" font-size="13" lengthAdjust="spacing" textLength="213" x="608" y="1114.4512">shares: 501,938,038,686,208,529</text><!--SRC=[ZLHRRzGu67tthx3Obrqf6_aInya8LIfjwQwM0gB34-N1SRwPHXsIuBWm_VVxsRcq0nt4I2Fbs3xdV3VRDtu7bEq50oj5LJ9f2ckrb493hlN6P2LNJ6TAASYWuhpWTSrPfhZCIgM4aLfgK9eGQthVT2szxNOmt3qajDfrzevogRLWAg6lNPDGNjBJtb71H4OvNybobHNqycfDZFMTeo_ONjgyIbDbg-m5DGCDC01AUkDyOvlUj3wU4pcaQIRcSmW3e2zVlkrgE8STR0rAdfpyIBIyojBKRa17Oe018F7DX_LPrswQxSyaasKStOg95600I9gSCFChqvejFECecTPf2fAhCLI40I3vejb2-xwhZrBhJQNIj5PL7ga11e3KQ- -CX-t38vMqdGVQVGEtL8syxLeBAofBSedqzww9A5Mwb28hivnUVeU6N9azVGsuasD16LUvUbn7JkSQ_x2YF5M5O7bU235k1yatpPV6uvxCabB8kFHnW3gii4HnHTQJDACNwty8j3KDOHAoDFRlawLvArgFrOHrz-TDIsdNWmjTHFfUwXfBSIRFYxzksacTRiqGHgVvXfn5XYp3WDfpVrVqrWmVS3QZiCEF86esecHraQUfP5OQ9cmIjesrtNthe-rP_WhdyUnLXhPbebLnQ3hh4mV-thNKktiu4i0MFCuNzitw68ITm7_m49mWtt3aOIoyB6jGbK97cM1fV-t8zgVBT1uuprFwcsKTC-zx5qRekjcs1kNXjAqlzdtZCCHFuG2bmxmLwCcu1jCHzlbGnUnY4TdqIzFv2rFJPL9mSPZR739PRbWOZ-d2h6ZVrU- -jwXxQnmCCPVu4bo4bs3gK2db3sCnqPTw7OZFLogsvnpwRcZyg3nuSmTZZPuwy3pXZ1rQp2ApHQmK2rHzhZ7hNDOoL6PULunZd4N2y9yNUI9OaIXHVfxvurLspVRMqsxpf94thPA9rcMqV_xmusN2wT5OOXuFFtaTblJ_C5_l3RcEUKxl65vTydpg2JasEEJTj3osvT_MEZ33g7Har7xXCKmFss7ruawKFrgznyVbVm00]--></g></svg>