<?xml version="1.0" encoding="us-ascii" standalone="no"?><svg xmlns="http://www.w3.org/2000/svg" xmlns:xlink="http://www.w3.org/1999/xlink" contentStyleType="text/css" height="1347px" preserveAspectRatio="none" style="width:1122px;height:1347px;background:#FFFFFF;" version="1.1" viewBox="0 0 1122 1347" width="1122px" zoomAndPan="magnify"><defs/><g><text fill="#000000" font-family="sans-serif" font-size="14" font-weight="bold" lengthAdjust="spacing" textLength="571" x="274.75" y="28.5352">0x29b4158349ae1315fb9c0d57f688d3b094b989c35d89b10f0f915e008c62a007</text><text fill="#000000" font-family="sans-serif" font-size="14" lengthAdjust="spacing" textLength="389" x="365.75" y="1335.3906">holesky, block 1381013, Sat, 20 Apr 2024 01:43:24 GMT</text><rect fill="#FFFFFF" height="648.627" style="stroke:#181818;stroke-width:1.0;" width="10" x="303" y="308.082"/><rect fill="#FFFFFF" height="29.3105" style="stroke:#181818;stroke-width:1.0;" width="10" x="572" y="383.3242"/><rect fill="#FFFFFF" height="29.3105" style="stroke:#181818;stroke-width:1.0;" width="10" x="572" y="472.5664"/><rect fill="#FFFFFF" height="269.0371" style="stroke:#181818;stroke-width:1.0;" width="10" x="714.5" y="623.0508"/><rect fill="#FFFFFF" height="29.3105" style="stroke:#181818;stroke-width:1.0;" width="10" x="881.5" y="682.9824"/><rect fill="#FFFFFF" height="105.8633" style="stroke:#181818;stroke-width:1.0;" width="10" x="1039.5" y="772.2246"/><line style="stroke:#181818;stroke-width:0.5;stroke-dasharray:5.0,5.0;" x1="120" x2="120" y1="118.9766" y2="1244.3672"/><line style="stroke:#181818;stroke-width:0.5;stroke-dasharray:5.0,5.0;" x1="307.5" x2="307.5" y1="118.9766" y2="1244.3672"/><line style="stroke:#181818;stroke-width:0.5;stroke-dasharray:5.0,5.0;" x1="576.5" x2="576.5" y1="118.9766" y2="1244.3672"/><line style="stroke:#181818;stroke-width:0.5;stroke-dasharray:5.0,5.0;" x1="719.5" x2="719.5" y1="118.9766" y2="1244.3672"/><line style="stroke:#181818;stroke-width:0.5;stroke-dasharray:5.0,5.0;" x1="886.5" x2="886.5" y1="118.9766" y2="1244.3672"/><line style="stroke:#181818;stroke-width:0.5;stroke-dasharray:5.0,5.0;" x1="1044.5" x2="1044.5" y1="118.9766" y2="1244.3672"/><text fill="#000000" font-family="sans-serif" font-size="14" lengthAdjust="spacing" textLength="94" x="70" y="116.0234">0x3c6b..5cb4</text><ellipse cx="120" cy="50.9883" fill="#E2E2F0" rx="8" ry="8" style="stroke:#181818;stroke-width:0.5;"/><path d="M120,58.9883 L120,85.9883 M107,66.9883 L133,66.9883 M120,85.9883 L107,100.9883 M120,85.9883 L133,100.9883 " fill="none" style="stroke:#181818;stroke-width:0.5;"/><text fill="#000000" font-family="sans-serif" font-size="14" lengthAdjust="spacing" textLength="94" x="70" y="1256.9023">0x3c6b..5cb4</text><ellipse cx="120" cy="1268.3555" fill="#E2E2F0" rx="8" ry="8" style="stroke:#181818;stroke-width:0.5;"/><path d="M120,1276.3555 L120,1303.3555 M107,1284.3555 L133,1284.3555 M120,1303.3555 L107,1318.3555 M120,1303.3555 L133,1318.3555 " fill="none" style="stroke:#181818;stroke-width:0.5;"/><rect fill="#E2E2F0" height="46.9766" rx="2.5" ry="2.5" style="stroke:#181818;stroke-width:0.5;" width="131" x="242.5" y="71"/><text fill="#000000" font-family="sans-serif" font-size="14" font-style="italic" lengthAdjust="spacing" textLength="117" x="249.5" y="91.5352">&#171;NodeDelegator&#187;</text><text fill="#000000" font-family="sans-serif" font-size="14" lengthAdjust="spacing" textLength="97" x="259.5" y="108.0234">0x326e..42b4</text><rect fill="#E2E2F0" height="46.9766" rx="2.5" ry="2.5" style="stroke:#181818;stroke-width:0.5;" width="131" x="242.5" y="1243.3672"/><text fill="#000000" font-family="sans-serif" font-size="14" font-style="italic" lengthAdjust="spacing" textLength="117" x="249.5" y="1263.9023">&#171;NodeDelegator&#187;</text><text fill="#000000" font-family="sans-serif" font-size="14" lengthAdjust="spacing" textLength="97" x="259.5" y="1280.3906">0x326e..42b4</text><rect fill="#E2E2F0" height="46.9766" rx="2.5" ry="2.5" style="stroke:#181818;stroke-width:0.5;" width="103" x="525.5" y="71"/><text fill="#000000" font-family="sans-serif" font-size="14" font-style="italic" lengthAdjust="spacing" textLength="85" x="534.5" y="91.5352">&#171;LRTConfig&#187;</text><text fill="#000000" font-family="sans-serif" font-size="14" lengthAdjust="spacing" textLength="89" x="532.5" y="108.0234">0xc1b4..cfe7</text><rect fill="#E2E2F0" height="46.9766" rx="2.5" ry="2.5" style="stroke:#181818;stroke-width:0.5;" width="103" x="525.5" y="1243.3672"/><text fill="#000000" font-family="sans-serif" font-size="14" font-style="italic" lengthAdjust="spacing" textLength="85" x="534.5" y="1263.9023">&#171;LRTConfig&#187;</text><text fill="#000000" font-family="sans-serif" font-size="14" lengthAdjust="spacing" textLength="89" x="532.5" y="1280.3906">0xc1b4..cfe7</text><rect fill="#E2E2F0" height="46.9766" rx="2.5" ry="2.5" style="stroke:#181818;stroke-width:0.5;" width="162" x="638.5" y="71"/><text fill="#000000" font-family="sans-serif" font-size="14" font-style="italic" lengthAdjust="spacing" textLength="148" x="645.5" y="91.5352">&#171;DelegationManager&#187;</text><text fill="#000000" font-family="sans-serif" font-size="14" lengthAdjust="spacing" textLength="96" x="671.5" y="108.0234">0xa441..48e7</text><rect fill="#E2E2F0" height="46.9766" rx="2.5" ry="2.5" style="stroke:#181818;stroke-width:0.5;" width="162" x="638.5" y="1243.3672"/><text fill="#000000" font-family="sans-serif" font-size="14" font-style="italic" lengthAdjust="spacing" textLength="148" x="645.5" y="1263.9023">&#171;DelegationManager&#187;</text><text fill="#000000" font-family="sans-serif" font-size="14" lengthAdjust="spacing" textLength="96" x="671.5" y="1280.3906">0xa441..48e7</text><rect fill="#E2E2F0" height="46.9766" rx="2.5" ry="2.5" style="stroke:#181818;stroke-width:0.5;" width="152" x="810.5" y="71"/><text fill="#000000" font-family="sans-serif" font-size="14" font-style="italic" lengthAdjust="spacing" textLength="138" x="817.5" y="91.5352">&#171;EigenPodManager&#187;</text><text fill="#000000" font-family="sans-serif" font-size="14" lengthAdjust="spacing" textLength="97" x="838" y="108.0234">0x3077..e315</text><rect fill="#E2E2F0" height="46.9766" rx="2.5" ry="2.5" style="stroke:#181818;stroke-width:0.5;" width="152" x="810.5" y="1243.3672"/><text fill="#000000" font-family="sans-serif" font-size="14" font-style="italic" lengthAdjust="spacing" textLength="138" x="817.5" y="1263.9023">&#171;EigenPodManager&#187;</text><text fill="#000000" font-family="sans-serif" font-size="14" lengthAdjust="spacing" textLength="97" x="838" y="1280.3906">0x3077..e315</text><rect fill="#E2E2F0" height="46.9766" rx="2.5" ry="2.5" style="stroke:#181818;stroke-width:0.5;" width="144" x="972.5" y="71"/><text fill="#000000" font-family="sans-serif" font-size="14" font-style="italic" lengthAdjust="spacing" textLength="130" x="979.5" y="91.5352">&#171;StrategyManager&#187;</text><text fill="#000000" font-family="sans-serif" font-size="14" lengthAdjust="spacing" textLength="94" x="997.5" y="108.0234">0xdfb5..d5b6</text><rect fill="#E2E2F0" height="46.9766" rx="2.5" ry="2.5" style="stroke:#181818;stroke-width:0.5;" width="144" x="972.5" y="1243.3672"/><text fill="#000000" font-family="sans-serif" font-size="14" font-style="italic" lengthAdjust="spacing" textLength="130" x="979.5" y="1263.9023">&#171;StrategyManager&#187;</text><text fill="#000000" font-family="sans-serif" font-size="14" lengthAdjust="spacing" textLength="94" x="997.5" y="1280.3906">0xdfb5..d5b6</text><rect fill="#FFFFFF" height="648.627" style="stroke:#181818;stroke-width:1.0;" width="10" x="303" y="308.082"/><rect fill="#FFFFFF" height="29.3105" style="stroke:#181818;stroke-width:1.0;" width="10" x="572" y="383.3242"/><rect fill="#FFFFFF" height="29.3105" style="stroke:#181818;stroke-width:1.0;" width="10" x="572" y="472.5664"/><rect fill="#FFFFFF" height="269.0371" style="stroke:#181818;stroke-width:1.0;" width="10" x="714.5" y="623.0508"/><rect fill="#FFFFFF" height="29.3105" style="stroke:#181818;stroke-width:1.0;" width="10" x="881.5" y="682.9824"/><rect fill="#FFFFFF" height="105.8633" style="stroke:#181818;stroke-width:1.0;" width="10" x="1039.5" y="772.2246"/><path d="M5,133.9766 L5,250.9766 L235,250.9766 L235,143.9766 L225,133.9766 L5,133.9766 " fill="#FEFFDD" style="stroke:#181818;stroke-width:0.5;"/><path d="M225,133.9766 L225,143.9766 L235,143.9766 L225,133.9766 " fill="#FEFFDD" style="stroke:#181818;stroke-width:0.5;"/><text fill="#000000" font-family="sans-serif" font-size="13" lengthAdjust="spacing" textLength="64" x="11" y="151.5449">Nonce: 48</text><text fill="#000000" font-family="sans-serif" font-size="13" lengthAdjust="spacing" textLength="191" x="11" y="166.8555">Gas Price: 27.449469135 Gwei</text><text fill="#000000" font-family="sans-serif" font-size="13" lengthAdjust="spacing" textLength="185" x="11" y="182.166">Max Fee: 32.785831524 Gwei</text><text fill="#000000" font-family="sans-serif" font-size="13" lengthAdjust="spacing" textLength="209" x="11" y="197.4766">Max Priority: 25.528697008 Gwei</text><text fill="#000000" font-family="sans-serif" font-size="13" lengthAdjust="spacing" textLength="119" x="11" y="212.7871">Gas Limit: 166,692</text><text fill="#000000" font-family="sans-serif" font-size="13" lengthAdjust="spacing" textLength="118" x="11" y="228.0977">Gas Used: 160,516</text><text fill="#000000" font-family="sans-serif" font-size="13" lengthAdjust="spacing" textLength="114" x="11" y="243.4082">Tx Fee: 0.004 ETH</text><polygon fill="#181818" points="291,304.082,301,308.082,291,312.082,295,308.082" style="stroke:#181818;stroke-width:1.0;"/><line style="stroke:#181818;stroke-width:1.0;" x1="120" x2="297" y1="308.082" y2="308.082"/><text fill="#000000" font-family="sans-serif" font-size="13" lengthAdjust="spacing" textLength="73" x="127" y="272.7188">delegateTo(</text><text fill="#000000" font-family="sans-serif" font-size="13" lengthAdjust="spacing" textLength="156" x="135" y="288.0293">operator: 0x37d5..C3D8)</text><text fill="#000000" font-family="sans-serif" font-size="13" lengthAdjust="spacing" textLength="78" x="127" y="303.3398">160,516 gas</text><polygon fill="#181818" points="560,379.3242,570,383.3242,560,387.3242,564,383.3242" style="stroke:#181818;stroke-width:1.0;"/><line style="stroke:#181818;stroke-width:1.0;" x1="313" x2="566" y1="383.3242" y2="383.3242"/><text fill="#000000" font-family="sans-serif" font-size="13" lengthAdjust="spacing" textLength="53" x="320" y="332.6504">hasRole(</text><text fill="#000000" font-family="sans-serif" font-size="13" lengthAdjust="spacing" textLength="181" x="328" y="347.9609">role: 0xaf290d86..30c3a02c,</text><text fill="#000000" font-family="sans-serif" font-size="13" lengthAdjust="spacing" textLength="150" x="328" y="363.2715">account: 0x3C6B..5CB4)</text><text fill="#000000" font-family="sans-serif" font-size="13" lengthAdjust="spacing" textLength="62" x="320" y="378.582">9,758 gas</text><polygon fill="#181818" points="324,408.6348,314,412.6348,324,416.6348,320,412.6348" style="stroke:#181818;stroke-width:1.0;"/><line style="stroke:#181818;stroke-width:1.0;stroke-dasharray:2.0,2.0;" x1="318" x2="576" y1="412.6348" y2="412.6348"/><text fill="#000000" font-family="sans-serif" font-size="13" lengthAdjust="spacing" textLength="25" x="330" y="407.8926">true</text><polygon fill="#181818" points="560,468.5664,570,472.5664,560,476.5664,564,472.5664" style="stroke:#181818;stroke-width:1.0;"/><line style="stroke:#181818;stroke-width:1.0;" x1="313" x2="566" y1="472.5664" y2="472.5664"/><text fill="#000000" font-family="sans-serif" font-size="13" lengthAdjust="spacing" textLength="78" x="320" y="437.2031">getContract(</text><text fill="#000000" font-family="sans-serif" font-size="13" lengthAdjust="spacing" textLength="232" x="328" y="452.5137">contractKey: 0xe6f126e6..199de5b5)</text><text fill="#000000" font-family="sans-serif" font-size="13" lengthAdjust="spacing" textLength="62" x="320" y="467.8242">3,134 gas</text><polygon fill="#181818" points="324,497.877,314,501.877,324,505.877,320,501.877" style="stroke:#181818;stroke-width:1.0;"/><line style="stroke:#181818;stroke-width:1.0;stroke-dasharray:2.0,2.0;" x1="318" x2="576" y1="501.877" y2="501.877"/><text fill="#000000" font-family="sans-serif" font-size="13" lengthAdjust="spacing" textLength="88" x="330" y="497.1348">0xA441..48e7</text><polygon fill="#181818" points="702.5,619.0508,712.5,623.0508,702.5,627.0508,706.5,623.0508" style="stroke:#181818;stroke-width:1.0;"/><line style="stroke:#181818;stroke-width:1.0;" x1="313" x2="708.5" y1="623.0508" y2="623.0508"/><text fill="#000000" font-family="sans-serif" font-size="13" lengthAdjust="spacing" textLength="73" x="320" y="526.4453">delegateTo(</text><text fill="#000000" font-family="sans-serif" font-size="13" lengthAdjust="spacing" textLength="156" x="328" y="541.7559">operator: 0x37d5..C3D8,</text><text fill="#000000" font-family="sans-serif" font-size="13" lengthAdjust="spacing" textLength="190" x="328" y="557.0664">approverSignatureAndExpiry: [</text><text fill="#000000" font-family="sans-serif" font-size="13" lengthAdjust="spacing" textLength="87" x="336" y="572.377">signature: 0x,</text><text fill="#000000" font-family="sans-serif" font-size="13" lengthAdjust="spacing" textLength="63" x="336" y="587.6875">expiry: 0],</text><text fill="#000000" font-family="sans-serif" font-size="13" lengthAdjust="spacing" textLength="242" x="328" y="602.998">approverSalt: 0x00000000..00000000)</text><text fill="#000000" font-family="sans-serif" font-size="13" lengthAdjust="spacing" textLength="78" x="320" y="618.3086">109,813 gas</text><polygon fill="#181818" points="869.5,678.9824,879.5,682.9824,869.5,686.9824,873.5,682.9824" style="stroke:#181818;stroke-width:1.0;"/><line style="stroke:#181818;stroke-width:1.0;" x1="724.5" x2="875.5" y1="682.9824" y2="682.9824"/><text fill="#000000" font-family="sans-serif" font-size="13" lengthAdjust="spacing" textLength="109" x="731.5" y="647.6191">podOwnerShares(</text><text fill="#000000" font-family="sans-serif" font-size="13" lengthAdjust="spacing" textLength="90" x="739.5" y="662.9297">0x326E..42B4)</text><text fill="#000000" font-family="sans-serif" font-size="13" lengthAdjust="spacing" textLength="62" x="731.5" y="678.2402">9,933 gas</text><polygon fill="#181818" points="735.5,708.293,725.5,712.293,735.5,716.293,731.5,712.293" style="stroke:#181818;stroke-width:1.0;"/><line style="stroke:#181818;stroke-width:1.0;stroke-dasharray:2.0,2.0;" x1="729.5" x2="885.5" y1="712.293" y2="712.293"/><text fill="#000000" font-family="sans-serif" font-size="13" lengthAdjust="spacing" textLength="8" x="741.5" y="707.5508">0</text><polygon fill="#181818" points="1027.5,768.2246,1037.5,772.2246,1027.5,776.2246,1031.5,772.2246" style="stroke:#181818;stroke-width:1.0;"/><line style="stroke:#181818;stroke-width:1.0;" x1="724.5" x2="1033.5" y1="772.2246" y2="772.2246"/><text fill="#000000" font-family="sans-serif" font-size="13" lengthAdjust="spacing" textLength="80" x="731.5" y="736.8613">getDeposits(</text><text fill="#000000" font-family="sans-serif" font-size="13" lengthAdjust="spacing" textLength="137" x="739.5" y="752.1719">staker: 0x326E..42B4)</text><text fill="#000000" font-family="sans-serif" font-size="13" lengthAdjust="spacing" textLength="70" x="731.5" y="767.4824">21,240 gas</text><polygon fill="#181818" points="735.5,874.0879,725.5,878.0879,735.5,882.0879,731.5,878.0879" style="stroke:#181818;stroke-width:1.0;"/><line style="stroke:#181818;stroke-width:1.0;stroke-dasharray:2.0,2.0;" x1="729.5" x2="1043.5" y1="878.0879" y2="878.0879"/><text fill="#000000" font-family="sans-serif" font-size="13" lengthAdjust="spacing" textLength="4" x="741.5" y="796.793">[</text><text fill="#000000" font-family="sans-serif" font-size="13" lengthAdjust="spacing" textLength="102" x="749.5" y="812.1035">0: 0xaccc..F8e5,</text><text fill="#000000" font-family="sans-serif" font-size="13" lengthAdjust="spacing" textLength="114" x="749.5" y="827.4141">1: 0x7D70..63d3],</text><text fill="#000000" font-family="sans-serif" font-size="13" lengthAdjust="spacing" textLength="4" x="741.5" y="842.7246">[</text><text fill="#000000" font-family="sans-serif" font-size="13" lengthAdjust="spacing" textLength="200" x="749.5" y="858.0352">0: 2,,000,000,000,000,000,000,</text><text fill="#000000" font-family="sans-serif" font-size="13" lengthAdjust="spacing" textLength="184" x="749.5" y="873.3457">1: 699,887,283,037,236,796]</text><polygon fill="#181818" points="324,888.0879,314,892.0879,324,896.0879,320,892.0879" style="stroke:#181818;stroke-width:1.0;"/><line style="stroke:#181818;stroke-width:1.0;stroke-dasharray:2.0,2.0;" x1="318" x2="718.5" y1="892.0879" y2="892.0879"/><path d="M724,905.0879 L724,945.0879 L815,945.0879 L815,915.0879 L805,905.0879 L724,905.0879 " fill="#FEFFDD" style="stroke:#181818;stroke-width:0.5;"/><path d="M805,905.0879 L805,915.0879 L815,915.0879 L805,905.0879 " fill="#FEFFDD" style="stroke:#181818;stroke-width:0.5;"/><text fill="#000000" font-family="sans-serif" font-size="13" lengthAdjust="spacing" textLength="4" x="730" y="922.6563">&#160;</text><text fill="#000000" font-family="sans-serif" font-size="13" lengthAdjust="spacing" textLength="70" x="730" y="937.9668">78,640 gas</text><polygon fill="#181818" points="131,952.709,121,956.709,131,960.709,127,956.709" style="stroke:#181818;stroke-width:1.0;"/><line style="stroke:#181818;stroke-width:1.0;stroke-dasharray:2.0,2.0;" x1="125" x2="307" y1="956.709" y2="956.709"/><path d="M313,969.709 L313,1009.709 L404,1009.709 L404,979.709 L394,969.709 L313,969.709 " fill="#FEFFDD" style="stroke:#181818;stroke-width:0.5;"/><path d="M394,969.709 L394,979.709 L404,979.709 L394,969.709 " fill="#FEFFDD" style="stroke:#181818;stroke-width:0.5;"/><text fill="#000000" font-family="sans-serif" font-size="13" lengthAdjust="spacing" textLength="4" x="319" y="987.2773">&#160;</text><text fill="#000000" font-family="sans-serif" font-size="13" lengthAdjust="spacing" textLength="70" x="319" y="1002.5879">37,811 gas</text><path d="M590,1020.3301 L590,1229.3301 L848,1229.3301 L848,1030.3301 L838,1020.3301 L590,1020.3301 " fill="#00FFFF" style="stroke:#181818;stroke-width:0.5;"/><path d="M838,1020.3301 L838,1030.3301 L848,1030.3301 L838,1020.3301 " fill="#00FFFF" style="stroke:#181818;stroke-width:0.5;"/><text fill="#000000" font-family="sans-serif" font-size="13" lengthAdjust="spacing" textLength="106" x="596" y="1037.8984">StakerDelegated:</text><text fill="#000000" font-family="sans-serif" font-size="13" lengthAdjust="spacing" textLength="137" x="604" y="1053.209">staker: 0x326E..42B4,</text><text fill="#000000" font-family="sans-serif" font-size="13" lengthAdjust="spacing" textLength="152" x="604" y="1068.5195">operator: 0x37d5..C3D8</text><text fill="#000000" font-family="sans-serif" font-size="13" lengthAdjust="spacing" textLength="160" x="596" y="1083.8301">OperatorSharesIncreased:</text><text fill="#000000" font-family="sans-serif" font-size="13" lengthAdjust="spacing" textLength="156" x="604" y="1099.1406">operator: 0x37d5..C3D8,</text><text fill="#000000" font-family="sans-serif" font-size="13" lengthAdjust="spacing" textLength="137" x="604" y="1114.4512">staker: 0x326E..42B4,</text><text fill="#000000" font-family="sans-serif" font-size="13" lengthAdjust="spacing" textLength="145" x="604" y="1129.7617">strategy: 0xaccc..F8e5,</text><text fill="#000000" font-family="sans-serif" font-size="13" lengthAdjust="spacing" textLength="229" x="604" y="1145.0723">shares: 2,,000,000,000,000,000,000</text><text fill="#000000" font-family="sans-serif" font-size="13" lengthAdjust="spacing" textLength="160" x="596" y="1160.3828">OperatorSharesIncreased:</text><text fill="#000000" font-family="sans-serif" font-size="13" lengthAdjust="spacing" textLength="156" x="604" y="1175.6934">operator: 0x37d5..C3D8,</text><text fill="#000000" font-family="sans-serif" font-size="13" lengthAdjust="spacing" textLength="137" x="604" y="1191.0039">staker: 0x326E..42B4,</text><text fill="#000000" font-family="sans-serif" font-size="13" lengthAdjust="spacing" textLength="153" x="604" y="1206.3145">strategy: 0x7D70..63d3,</text><text fill="#000000" font-family="sans-serif" font-size="13" lengthAdjust="spacing" textLength="213" x="604" y="1221.625">shares: 699,887,283,037,236,796</text><!--SRC=[jLHDRzms4BtpLn3ffGLOWXGfYbm41XpRSOl4IH1lJtKE54N9WhUIAj79-jztg2zxNQ_HInTOY4FolJTyCsIemyvZjazCBdcgXJJMSy7JCZUE5MbMAgqBaJCZSwED4scXJSvPoKh3Ky-OTYgnZ6K8ETk5kctmRRlpmzq3mVckTNUO2yqP5mHVsq1mml1fryCdaPZnZHGR65nURP5reUtn6xONJkMKfYwNRx0TS0nZW55d-r2xkhDD6FSbobCgasKVX370Rzz-QWj_xdU-ia1vSl8Sw7WkANMbpqPW36C0m8zVjsTjKzRLlq5MIWvgUWR5C0O0cfNWv5UsiPL_GL6mBAFKWwjJgX360C0NTUMRBsrn55gKUKffaUPgXCOm1W2z3hqDldfuXAAc3Hwttts_keO-jOtp6omrkWJubxwEKP9HAOrKXeiKN_xmDRgoU_pUmv98QAQX3NWQwx8i0Qxjw_00q9IcYLOcWyfFwv7tO_rN7JQOAqMKISQfFmPVn1b6KgxGTgPdb369BxQ_8TyKEEQBq5hXNq_MAcvmCTdgj-tFDmt6RUVxM4wWs8ki04_EnBd-vQQP5N1bXzX3zNV0h3HexGhWNWgzmRTs-0fDEXBtC8YajamCAxIYL30dB4iSYSlMkVQ-2QFicNe7ZNdsJeAi8Lcg3qKNVjJxSDytEFJt_aW2bG_GQ5105yOat1nyy0zHoQkI0mvouSOKFirJK1I42_cw8jkVhcrweBoqwt-qTJfvr_Mnbwxhgh50xq-RucBVrJsa-6VSWF6mB4KucURyl8LzEsInkz54DlyeNKQnXimGpSNXuPQSqNhNOd_CLsU3kxRu_AC1ublR-s4ypFWcNCGtOIwH4Syu5_Xgs07vShd6-fpxhXtgC34FmTxvoQId2WadYMI74Wl98Z5QnSOESyvH-bxxT7I6nxdiF0Chb2X4j6lPcn02nhpudv7AW6Cw8uaMX0du2aKoexujgjDJqDVLRS1j-QJ-DqscYPgJVddpuns4fikWC7pS_EHrMKtxoVvzRz7rwCxy3iAjHoyRHj2nVaEVv-cfcBythlTsc9YETEWh6iFyC3xpFAwCzA_v-_zbybZffvaSgUFZw_WF]--></g></svg>