<?xml version="1.0" encoding="us-ascii" standalone="no"?><svg xmlns="http://www.w3.org/2000/svg" xmlns:xlink="http://www.w3.org/1999/xlink" contentStyleType="text/css" height="2892px" preserveAspectRatio="none" style="width:1163px;height:2892px;background:#FFFFFF;" version="1.1" viewBox="0 0 1163 2892" width="1163px" zoomAndPan="magnify"><defs/><g><text fill="#000000" font-family="sans-serif" font-size="14" font-weight="bold" lengthAdjust="spacing" textLength="575" x="293" y="28.5352">0x2d45c7bf6e4a73803b77146007aee777d1e667dac8bd933d3920a51bdc3e0329</text><text fill="#000000" font-family="sans-serif" font-size="14" lengthAdjust="spacing" textLength="389" x="386" y="2880.9238">holesky, block 1381017, Sat, 20 Apr 2024 01:44:12 GMT</text><rect fill="#FFFFFF" height="1842.0176" style="stroke:#181818;stroke-width:1.0;" width="10" x="236.5" y="292.7715"/><rect fill="#FFFFFF" height="29.3105" style="stroke:#181818;stroke-width:1.0;" width="10" x="505.5" y="368.0137"/><rect fill="#FFFFFF" height="29.3105" style="stroke:#181818;stroke-width:1.0;" width="10" x="505.5" y="457.2559"/><rect fill="#FFFFFF" height="29.3105" style="stroke:#181818;stroke-width:1.0;" width="10" x="505.5" y="546.498"/><rect fill="#FFFFFF" height="90.5527" style="stroke:#181818;stroke-width:1.0;" width="10" x="505.5" y="620.4297"/><rect fill="#FFFFFF" height="29.3105" style="stroke:#181818;stroke-width:1.0;" width="10" x="505.5" y="770.9141"/><rect fill="#FFFFFF" height="29.3105" style="stroke:#181818;stroke-width:1.0;" width="10" x="505.5" y="964.709"/><rect fill="#FFFFFF" height="29.3105" style="stroke:#181818;stroke-width:1.0;" width="10" x="505.5" y="1158.5039"/><rect fill="#FFFFFF" height="29.3105" style="stroke:#181818;stroke-width:1.0;" width="10" x="505.5" y="1352.2988"/><rect fill="#FFFFFF" height="29.3105" style="stroke:#181818;stroke-width:1.0;" width="10" x="639" y="875.4668"/><rect fill="#FFFFFF" height="29.3105" style="stroke:#181818;stroke-width:1.0;" width="10" x="639" y="1069.2617"/><rect fill="#FFFFFF" height="29.3105" style="stroke:#181818;stroke-width:1.0;" width="10" x="639" y="1263.0566"/><rect fill="#FFFFFF" height="29.3105" style="stroke:#181818;stroke-width:1.0;" width="10" x="639" y="1456.8516"/><rect fill="#FFFFFF" height="105.8633" style="stroke:#181818;stroke-width:1.0;" width="10" x="639" y="1695.2676"/><rect fill="#FFFFFF" height="14" style="stroke:#181818;stroke-width:1.0;" width="10" x="639" y="1891.6836"/><rect fill="#FFFFFF" height="14" style="stroke:#181818;stroke-width:1.0;" width="10" x="639" y="1996.2363"/><rect fill="#FFFFFF" height="524.0742" style="stroke:#181818;stroke-width:1.0;" width="10" x="909" y="1546.0938"/><rect fill="#FFFFFF" height="29.3105" style="stroke:#181818;stroke-width:1.0;" width="10" x="1076" y="1606.0254"/><line style="stroke:#181818;stroke-width:0.5;stroke-dasharray:5.0,5.0;" x1="116" x2="116" y1="118.9766" y2="2789.9004"/><line style="stroke:#181818;stroke-width:0.5;stroke-dasharray:5.0,5.0;" x1="241" x2="241" y1="118.9766" y2="2789.9004"/><line style="stroke:#181818;stroke-width:0.5;stroke-dasharray:5.0,5.0;" x1="510" x2="510" y1="118.9766" y2="2789.9004"/><line style="stroke:#181818;stroke-width:0.5;stroke-dasharray:5.0,5.0;" x1="644" x2="644" y1="118.9766" y2="2789.9004"/><line style="stroke:#181818;stroke-width:0.5;stroke-dasharray:5.0,5.0;" x1="914" x2="914" y1="118.9766" y2="2789.9004"/><line style="stroke:#181818;stroke-width:0.5;stroke-dasharray:5.0,5.0;" x1="1081" x2="1081" y1="118.9766" y2="2789.9004"/><text fill="#000000" font-family="sans-serif" font-size="14" lengthAdjust="spacing" textLength="94" x="66" y="116.0234">0x3c6b..5cb4</text><ellipse cx="116" cy="50.9883" fill="#E2E2F0" rx="8" ry="8" style="stroke:#181818;stroke-width:0.5;"/><path d="M116,58.9883 L116,85.9883 M103,66.9883 L129,66.9883 M116,85.9883 L103,100.9883 M116,85.9883 L129,100.9883 " fill="none" style="stroke:#181818;stroke-width:0.5;"/><text fill="#000000" font-family="sans-serif" font-size="14" lengthAdjust="spacing" textLength="94" x="66" y="2802.4355">0x3c6b..5cb4</text><ellipse cx="116" cy="2813.8887" fill="#E2E2F0" rx="8" ry="8" style="stroke:#181818;stroke-width:0.5;"/><path d="M116,2821.8887 L116,2848.8887 M103,2829.8887 L129,2829.8887 M116,2848.8887 L103,2863.8887 M116,2848.8887 L129,2863.8887 " fill="none" style="stroke:#181818;stroke-width:0.5;"/><rect fill="#E2E2F0" height="46.9766" rx="2.5" ry="2.5" style="stroke:#181818;stroke-width:0.5;" width="131" x="176" y="71"/><text fill="#000000" font-family="sans-serif" font-size="14" font-style="italic" lengthAdjust="spacing" textLength="117" x="183" y="91.5352">&#171;NodeDelegator&#187;</text><text fill="#000000" font-family="sans-serif" font-size="14" lengthAdjust="spacing" textLength="97" x="193" y="108.0234">0x326e..42b4</text><rect fill="#E2E2F0" height="46.9766" rx="2.5" ry="2.5" style="stroke:#181818;stroke-width:0.5;" width="131" x="176" y="2788.9004"/><text fill="#000000" font-family="sans-serif" font-size="14" font-style="italic" lengthAdjust="spacing" textLength="117" x="183" y="2809.4355">&#171;NodeDelegator&#187;</text><text fill="#000000" font-family="sans-serif" font-size="14" lengthAdjust="spacing" textLength="97" x="193" y="2825.9238">0x326e..42b4</text><rect fill="#E2E2F0" height="46.9766" rx="2.5" ry="2.5" style="stroke:#181818;stroke-width:0.5;" width="103" x="459" y="71"/><text fill="#000000" font-family="sans-serif" font-size="14" font-style="italic" lengthAdjust="spacing" textLength="85" x="468" y="91.5352">&#171;LRTConfig&#187;</text><text fill="#000000" font-family="sans-serif" font-size="14" lengthAdjust="spacing" textLength="89" x="466" y="108.0234">0xc1b4..cfe7</text><rect fill="#E2E2F0" height="46.9766" rx="2.5" ry="2.5" style="stroke:#181818;stroke-width:0.5;" width="103" x="459" y="2788.9004"/><text fill="#000000" font-family="sans-serif" font-size="14" font-style="italic" lengthAdjust="spacing" textLength="85" x="468" y="2809.4355">&#171;LRTConfig&#187;</text><text fill="#000000" font-family="sans-serif" font-size="14" lengthAdjust="spacing" textLength="89" x="466" y="2825.9238">0xc1b4..cfe7</text><rect fill="#E2E2F0" height="46.9766" rx="2.5" ry="2.5" style="stroke:#181818;stroke-width:0.5;" width="144" x="572" y="71"/><text fill="#000000" font-family="sans-serif" font-size="14" font-style="italic" lengthAdjust="spacing" textLength="130" x="579" y="91.5352">&#171;StrategyManager&#187;</text><text fill="#000000" font-family="sans-serif" font-size="14" lengthAdjust="spacing" textLength="94" x="597" y="108.0234">0xdfb5..d5b6</text><rect fill="#E2E2F0" height="46.9766" rx="2.5" ry="2.5" style="stroke:#181818;stroke-width:0.5;" width="144" x="572" y="2788.9004"/><text fill="#000000" font-family="sans-serif" font-size="14" font-style="italic" lengthAdjust="spacing" textLength="130" x="579" y="2809.4355">&#171;StrategyManager&#187;</text><text fill="#000000" font-family="sans-serif" font-size="14" lengthAdjust="spacing" textLength="94" x="597" y="2825.9238">0xdfb5..d5b6</text><rect fill="#E2E2F0" height="46.9766" rx="2.5" ry="2.5" style="stroke:#181818;stroke-width:0.5;" width="162" x="833" y="71"/><text fill="#000000" font-family="sans-serif" font-size="14" font-style="italic" lengthAdjust="spacing" textLength="148" x="840" y="91.5352">&#171;DelegationManager&#187;</text><text fill="#000000" font-family="sans-serif" font-size="14" lengthAdjust="spacing" textLength="96" x="866" y="108.0234">0xa441..48e7</text><rect fill="#E2E2F0" height="46.9766" rx="2.5" ry="2.5" style="stroke:#181818;stroke-width:0.5;" width="162" x="833" y="2788.9004"/><text fill="#000000" font-family="sans-serif" font-size="14" font-style="italic" lengthAdjust="spacing" textLength="148" x="840" y="2809.4355">&#171;DelegationManager&#187;</text><text fill="#000000" font-family="sans-serif" font-size="14" lengthAdjust="spacing" textLength="96" x="866" y="2825.9238">0xa441..48e7</text><rect fill="#E2E2F0" height="46.9766" rx="2.5" ry="2.5" style="stroke:#181818;stroke-width:0.5;" width="152" x="1005" y="71"/><text fill="#000000" font-family="sans-serif" font-size="14" font-style="italic" lengthAdjust="spacing" textLength="138" x="1012" y="91.5352">&#171;EigenPodManager&#187;</text><text fill="#000000" font-family="sans-serif" font-size="14" lengthAdjust="spacing" textLength="97" x="1032.5" y="108.0234">0x3077..e315</text><rect fill="#E2E2F0" height="46.9766" rx="2.5" ry="2.5" style="stroke:#181818;stroke-width:0.5;" width="152" x="1005" y="2788.9004"/><text fill="#000000" font-family="sans-serif" font-size="14" font-style="italic" lengthAdjust="spacing" textLength="138" x="1012" y="2809.4355">&#171;EigenPodManager&#187;</text><text fill="#000000" font-family="sans-serif" font-size="14" lengthAdjust="spacing" textLength="97" x="1032.5" y="2825.9238">0x3077..e315</text><rect fill="#FFFFFF" height="1842.0176" style="stroke:#181818;stroke-width:1.0;" width="10" x="236.5" y="292.7715"/><rect fill="#FFFFFF" height="29.3105" style="stroke:#181818;stroke-width:1.0;" width="10" x="505.5" y="368.0137"/><rect fill="#FFFFFF" height="29.3105" style="stroke:#181818;stroke-width:1.0;" width="10" x="505.5" y="457.2559"/><rect fill="#FFFFFF" height="29.3105" style="stroke:#181818;stroke-width:1.0;" width="10" x="505.5" y="546.498"/><rect fill="#FFFFFF" height="90.5527" style="stroke:#181818;stroke-width:1.0;" width="10" x="505.5" y="620.4297"/><rect fill="#FFFFFF" height="29.3105" style="stroke:#181818;stroke-width:1.0;" width="10" x="505.5" y="770.9141"/><rect fill="#FFFFFF" height="29.3105" style="stroke:#181818;stroke-width:1.0;" width="10" x="505.5" y="964.709"/><rect fill="#FFFFFF" height="29.3105" style="stroke:#181818;stroke-width:1.0;" width="10" x="505.5" y="1158.5039"/><rect fill="#FFFFFF" height="29.3105" style="stroke:#181818;stroke-width:1.0;" width="10" x="505.5" y="1352.2988"/><rect fill="#FFFFFF" height="29.3105" style="stroke:#181818;stroke-width:1.0;" width="10" x="639" y="875.4668"/><rect fill="#FFFFFF" height="29.3105" style="stroke:#181818;stroke-width:1.0;" width="10" x="639" y="1069.2617"/><rect fill="#FFFFFF" height="29.3105" style="stroke:#181818;stroke-width:1.0;" width="10" x="639" y="1263.0566"/><rect fill="#FFFFFF" height="29.3105" style="stroke:#181818;stroke-width:1.0;" width="10" x="639" y="1456.8516"/><rect fill="#FFFFFF" height="105.8633" style="stroke:#181818;stroke-width:1.0;" width="10" x="639" y="1695.2676"/><rect fill="#FFFFFF" height="14" style="stroke:#181818;stroke-width:1.0;" width="10" x="639" y="1891.6836"/><rect fill="#FFFFFF" height="14" style="stroke:#181818;stroke-width:1.0;" width="10" x="639" y="1996.2363"/><rect fill="#FFFFFF" height="524.0742" style="stroke:#181818;stroke-width:1.0;" width="10" x="909" y="1546.0938"/><rect fill="#FFFFFF" height="29.3105" style="stroke:#181818;stroke-width:1.0;" width="10" x="1076" y="1606.0254"/><path d="M5,133.9766 L5,250.9766 L227,250.9766 L227,143.9766 L217,133.9766 L5,133.9766 " fill="#FEFFDD" style="stroke:#181818;stroke-width:0.5;"/><path d="M217,133.9766 L217,143.9766 L227,143.9766 L217,133.9766 " fill="#FEFFDD" style="stroke:#181818;stroke-width:0.5;"/><text fill="#000000" font-family="sans-serif" font-size="13" lengthAdjust="spacing" textLength="64" x="11" y="151.5449">Nonce: 49</text><text fill="#000000" font-family="sans-serif" font-size="13" lengthAdjust="spacing" textLength="183" x="11" y="166.8555">Gas Price: 9.593923961 Gwei</text><text fill="#000000" font-family="sans-serif" font-size="13" lengthAdjust="spacing" textLength="177" x="11" y="182.166">Max Fee: 12.60694338 Gwei</text><text fill="#000000" font-family="sans-serif" font-size="13" lengthAdjust="spacing" textLength="201" x="11" y="197.4766">Max Priority: 7.768853702 Gwei</text><text fill="#000000" font-family="sans-serif" font-size="13" lengthAdjust="spacing" textLength="119" x="11" y="212.7871">Gas Limit: 298,946</text><text fill="#000000" font-family="sans-serif" font-size="13" lengthAdjust="spacing" textLength="118" x="11" y="228.0977">Gas Used: 256,095</text><text fill="#000000" font-family="sans-serif" font-size="13" lengthAdjust="spacing" textLength="114" x="11" y="243.4082">Tx Fee: 0.002 ETH</text><polygon fill="#181818" points="224.5,288.7715,234.5,292.7715,224.5,296.7715,228.5,292.7715" style="stroke:#181818;stroke-width:1.0;"/><line style="stroke:#181818;stroke-width:1.0;" x1="116" x2="230.5" y1="292.7715" y2="292.7715"/><text fill="#000000" font-family="sans-serif" font-size="13" lengthAdjust="spacing" textLength="77" x="123" y="272.7188">undelegate()</text><text fill="#000000" font-family="sans-serif" font-size="13" lengthAdjust="spacing" textLength="78" x="123" y="288.0293">256,095 gas</text><polygon fill="#181818" points="493.5,364.0137,503.5,368.0137,493.5,372.0137,497.5,368.0137" style="stroke:#181818;stroke-width:1.0;"/><line style="stroke:#181818;stroke-width:1.0;" x1="246.5" x2="499.5" y1="368.0137" y2="368.0137"/><text fill="#000000" font-family="sans-serif" font-size="13" lengthAdjust="spacing" textLength="53" x="253.5" y="317.3398">hasRole(</text><text fill="#000000" font-family="sans-serif" font-size="13" lengthAdjust="spacing" textLength="181" x="261.5" y="332.6504">role: 0xaf290d86..30c3a02c,</text><text fill="#000000" font-family="sans-serif" font-size="13" lengthAdjust="spacing" textLength="150" x="261.5" y="347.9609">account: 0x3C6B..5CB4)</text><text fill="#000000" font-family="sans-serif" font-size="13" lengthAdjust="spacing" textLength="62" x="253.5" y="363.2715">9,758 gas</text><polygon fill="#181818" points="257.5,393.3242,247.5,397.3242,257.5,401.3242,253.5,397.3242" style="stroke:#181818;stroke-width:1.0;"/><line style="stroke:#181818;stroke-width:1.0;stroke-dasharray:2.0,2.0;" x1="251.5" x2="509.5" y1="397.3242" y2="397.3242"/><text fill="#000000" font-family="sans-serif" font-size="13" lengthAdjust="spacing" textLength="25" x="263.5" y="392.582">true</text><polygon fill="#181818" points="493.5,453.2559,503.5,457.2559,493.5,461.2559,497.5,457.2559" style="stroke:#181818;stroke-width:1.0;"/><line style="stroke:#181818;stroke-width:1.0;" x1="246.5" x2="499.5" y1="457.2559" y2="457.2559"/><text fill="#000000" font-family="sans-serif" font-size="13" lengthAdjust="spacing" textLength="78" x="253.5" y="421.8926">getContract(</text><text fill="#000000" font-family="sans-serif" font-size="13" lengthAdjust="spacing" textLength="232" x="261.5" y="437.2031">contractKey: 0xe6f126e6..199de5b5)</text><text fill="#000000" font-family="sans-serif" font-size="13" lengthAdjust="spacing" textLength="62" x="253.5" y="452.5137">3,134 gas</text><polygon fill="#181818" points="257.5,482.5664,247.5,486.5664,257.5,490.5664,253.5,486.5664" style="stroke:#181818;stroke-width:1.0;"/><line style="stroke:#181818;stroke-width:1.0;stroke-dasharray:2.0,2.0;" x1="251.5" x2="509.5" y1="486.5664" y2="486.5664"/><text fill="#000000" font-family="sans-serif" font-size="13" lengthAdjust="spacing" textLength="88" x="263.5" y="481.8242">0xA441..48e7</text><polygon fill="#181818" points="493.5,542.498,503.5,546.498,493.5,550.498,497.5,546.498" style="stroke:#181818;stroke-width:1.0;"/><line style="stroke:#181818;stroke-width:1.0;" x1="246.5" x2="499.5" y1="546.498" y2="546.498"/><text fill="#000000" font-family="sans-serif" font-size="13" lengthAdjust="spacing" textLength="78" x="253.5" y="511.1348">getContract(</text><text fill="#000000" font-family="sans-serif" font-size="13" lengthAdjust="spacing" textLength="232" x="261.5" y="526.4453">contractKey: 0x6bc2c477..ab5a19ec)</text><text fill="#000000" font-family="sans-serif" font-size="13" lengthAdjust="spacing" textLength="62" x="253.5" y="541.7559">3,134 gas</text><polygon fill="#181818" points="257.5,571.8086,247.5,575.8086,257.5,579.8086,253.5,575.8086" style="stroke:#181818;stroke-width:1.0;"/><line style="stroke:#181818;stroke-width:1.0;stroke-dasharray:2.0,2.0;" x1="251.5" x2="509.5" y1="575.8086" y2="575.8086"/><text fill="#000000" font-family="sans-serif" font-size="13" lengthAdjust="spacing" textLength="86" x="263.5" y="571.0664">0xdfB5..D5b6</text><polygon fill="#181818" points="493.5,616.4297,503.5,620.4297,493.5,624.4297,497.5,620.4297" style="stroke:#181818;stroke-width:1.0;"/><line style="stroke:#181818;stroke-width:1.0;" x1="246.5" x2="499.5" y1="620.4297" y2="620.4297"/><text fill="#000000" font-family="sans-serif" font-size="13" lengthAdjust="spacing" textLength="150" x="253.5" y="600.377">getSupportedAssetList()</text><text fill="#000000" font-family="sans-serif" font-size="13" lengthAdjust="spacing" textLength="70" x="253.5" y="615.6875">12,400 gas</text><polygon fill="#181818" points="257.5,706.9824,247.5,710.9824,257.5,714.9824,253.5,710.9824" style="stroke:#181818;stroke-width:1.0;"/><line style="stroke:#181818;stroke-width:1.0;stroke-dasharray:2.0,2.0;" x1="251.5" x2="509.5" y1="710.9824" y2="710.9824"/><text fill="#000000" font-family="sans-serif" font-size="13" lengthAdjust="spacing" textLength="4" x="263.5" y="644.998">[</text><text fill="#000000" font-family="sans-serif" font-size="13" lengthAdjust="spacing" textLength="106" x="271.5" y="660.3086">0: 0x3F1c..5034,</text><text fill="#000000" font-family="sans-serif" font-size="13" lengthAdjust="spacing" textLength="107" x="271.5" y="675.6191">1: 0x7322..64F1,</text><text fill="#000000" font-family="sans-serif" font-size="13" lengthAdjust="spacing" textLength="108" x="271.5" y="690.9297">2: 0x9437..3848,</text><text fill="#000000" font-family="sans-serif" font-size="13" lengthAdjust="spacing" textLength="106" x="271.5" y="706.2402">3: 0xe3C0..67FF]</text><polygon fill="#181818" points="493.5,766.9141,503.5,770.9141,493.5,774.9141,497.5,770.9141" style="stroke:#181818;stroke-width:1.0;"/><line style="stroke:#181818;stroke-width:1.0;" x1="246.5" x2="499.5" y1="770.9141" y2="770.9141"/><text fill="#000000" font-family="sans-serif" font-size="13" lengthAdjust="spacing" textLength="88" x="253.5" y="735.5508">assetStrategy(</text><text fill="#000000" font-family="sans-serif" font-size="13" lengthAdjust="spacing" textLength="134" x="261.5" y="750.8613">token: 0x3F1c..5034)</text><text fill="#000000" font-family="sans-serif" font-size="13" lengthAdjust="spacing" textLength="62" x="253.5" y="766.1719">3,176 gas</text><polygon fill="#181818" points="257.5,796.2246,247.5,800.2246,257.5,804.2246,253.5,800.2246" style="stroke:#181818;stroke-width:1.0;"/><line style="stroke:#181818;stroke-width:1.0;stroke-dasharray:2.0,2.0;" x1="251.5" x2="509.5" y1="800.2246" y2="800.2246"/><text fill="#000000" font-family="sans-serif" font-size="13" lengthAdjust="spacing" textLength="149" x="263.5" y="795.4824">strategy: 0x7D70..63d3</text><polygon fill="#181818" points="627,871.4668,637,875.4668,627,879.4668,631,875.4668" style="stroke:#181818;stroke-width:1.0;"/><line style="stroke:#181818;stroke-width:1.0;" x1="246.5" x2="633" y1="875.4668" y2="875.4668"/><text fill="#000000" font-family="sans-serif" font-size="13" lengthAdjust="spacing" textLength="135" x="253.5" y="824.793">stakerStrategyShares(</text><text fill="#000000" font-family="sans-serif" font-size="13" lengthAdjust="spacing" textLength="90" x="261.5" y="840.1035">0x326E..42B4,</text><text fill="#000000" font-family="sans-serif" font-size="13" lengthAdjust="spacing" textLength="94" x="261.5" y="855.4141">0x7D70..63d3)</text><text fill="#000000" font-family="sans-serif" font-size="13" lengthAdjust="spacing" textLength="70" x="253.5" y="870.7246">10,109 gas</text><polygon fill="#181818" points="257.5,900.7773,247.5,904.7773,257.5,908.7773,253.5,904.7773" style="stroke:#181818;stroke-width:1.0;"/><line style="stroke:#181818;stroke-width:1.0;stroke-dasharray:2.0,2.0;" x1="251.5" x2="643" y1="904.7773" y2="904.7773"/><text fill="#000000" font-family="sans-serif" font-size="13" lengthAdjust="spacing" textLength="164" x="263.5" y="900.0352">699,887,283,037,236,796</text><polygon fill="#181818" points="493.5,960.709,503.5,964.709,493.5,968.709,497.5,964.709" style="stroke:#181818;stroke-width:1.0;"/><line style="stroke:#181818;stroke-width:1.0;" x1="246.5" x2="499.5" y1="964.709" y2="964.709"/><text fill="#000000" font-family="sans-serif" font-size="13" lengthAdjust="spacing" textLength="88" x="253.5" y="929.3457">assetStrategy(</text><text fill="#000000" font-family="sans-serif" font-size="13" lengthAdjust="spacing" textLength="135" x="261.5" y="944.6563">token: 0x7322..64F1)</text><text fill="#000000" font-family="sans-serif" font-size="13" lengthAdjust="spacing" textLength="62" x="253.5" y="959.9668">3,176 gas</text><polygon fill="#181818" points="257.5,990.0195,247.5,994.0195,257.5,998.0195,253.5,994.0195" style="stroke:#181818;stroke-width:1.0;"/><line style="stroke:#181818;stroke-width:1.0;stroke-dasharray:2.0,2.0;" x1="251.5" x2="509.5" y1="994.0195" y2="994.0195"/><text fill="#000000" font-family="sans-serif" font-size="13" lengthAdjust="spacing" textLength="143" x="263.5" y="989.2773">strategy: 0x3A8f..c4E0</text><polygon fill="#181818" points="627,1065.2617,637,1069.2617,627,1073.2617,631,1069.2617" style="stroke:#181818;stroke-width:1.0;"/><line style="stroke:#181818;stroke-width:1.0;" x1="246.5" x2="633" y1="1069.2617" y2="1069.2617"/><text fill="#000000" font-family="sans-serif" font-size="13" lengthAdjust="spacing" textLength="135" x="253.5" y="1018.5879">stakerStrategyShares(</text><text fill="#000000" font-family="sans-serif" font-size="13" lengthAdjust="spacing" textLength="90" x="261.5" y="1033.8984">0x326E..42B4,</text><text fill="#000000" font-family="sans-serif" font-size="13" lengthAdjust="spacing" textLength="88" x="261.5" y="1049.209">0x3A8f..c4E0)</text><text fill="#000000" font-family="sans-serif" font-size="13" lengthAdjust="spacing" textLength="62" x="253.5" y="1064.5195">3,609 gas</text><polygon fill="#181818" points="257.5,1094.5723,247.5,1098.5723,257.5,1102.5723,253.5,1098.5723" style="stroke:#181818;stroke-width:1.0;"/><line style="stroke:#181818;stroke-width:1.0;stroke-dasharray:2.0,2.0;" x1="251.5" x2="643" y1="1098.5723" y2="1098.5723"/><text fill="#000000" font-family="sans-serif" font-size="13" lengthAdjust="spacing" textLength="8" x="263.5" y="1093.8301">0</text><polygon fill="#181818" points="493.5,1154.5039,503.5,1158.5039,493.5,1162.5039,497.5,1158.5039" style="stroke:#181818;stroke-width:1.0;"/><line style="stroke:#181818;stroke-width:1.0;" x1="246.5" x2="499.5" y1="1158.5039" y2="1158.5039"/><text fill="#000000" font-family="sans-serif" font-size="13" lengthAdjust="spacing" textLength="88" x="253.5" y="1123.1406">assetStrategy(</text><text fill="#000000" font-family="sans-serif" font-size="13" lengthAdjust="spacing" textLength="136" x="261.5" y="1138.4512">token: 0x9437..3848)</text><text fill="#000000" font-family="sans-serif" font-size="13" lengthAdjust="spacing" textLength="62" x="253.5" y="1153.7617">3,176 gas</text><polygon fill="#181818" points="257.5,1183.8145,247.5,1187.8145,257.5,1191.8145,253.5,1187.8145" style="stroke:#181818;stroke-width:1.0;"/><line style="stroke:#181818;stroke-width:1.0;stroke-dasharray:2.0,2.0;" x1="251.5" x2="509.5" y1="1187.8145" y2="1187.8145"/><text fill="#000000" font-family="sans-serif" font-size="13" lengthAdjust="spacing" textLength="147" x="263.5" y="1183.0723">strategy: 0x0000..0000</text><polygon fill="#181818" points="627,1259.0566,637,1263.0566,627,1267.0566,631,1263.0566" style="stroke:#181818;stroke-width:1.0;"/><line style="stroke:#181818;stroke-width:1.0;" x1="246.5" x2="633" y1="1263.0566" y2="1263.0566"/><text fill="#000000" font-family="sans-serif" font-size="13" lengthAdjust="spacing" textLength="135" x="253.5" y="1212.3828">stakerStrategyShares(</text><text fill="#000000" font-family="sans-serif" font-size="13" lengthAdjust="spacing" textLength="90" x="261.5" y="1227.6934">0x326E..42B4,</text><text fill="#000000" font-family="sans-serif" font-size="13" lengthAdjust="spacing" textLength="92" x="261.5" y="1243.0039">0x0000..0000)</text><text fill="#000000" font-family="sans-serif" font-size="13" lengthAdjust="spacing" textLength="62" x="253.5" y="1258.3145">3,609 gas</text><polygon fill="#181818" points="257.5,1288.3672,247.5,1292.3672,257.5,1296.3672,253.5,1292.3672" style="stroke:#181818;stroke-width:1.0;"/><line style="stroke:#181818;stroke-width:1.0;stroke-dasharray:2.0,2.0;" x1="251.5" x2="643" y1="1292.3672" y2="1292.3672"/><text fill="#000000" font-family="sans-serif" font-size="13" lengthAdjust="spacing" textLength="8" x="263.5" y="1287.625">0</text><polygon fill="#181818" points="493.5,1348.2988,503.5,1352.2988,493.5,1356.2988,497.5,1352.2988" style="stroke:#181818;stroke-width:1.0;"/><line style="stroke:#181818;stroke-width:1.0;" x1="246.5" x2="499.5" y1="1352.2988" y2="1352.2988"/><text fill="#000000" font-family="sans-serif" font-size="13" lengthAdjust="spacing" textLength="88" x="253.5" y="1316.9355">assetStrategy(</text><text fill="#000000" font-family="sans-serif" font-size="13" lengthAdjust="spacing" textLength="134" x="261.5" y="1332.2461">token: 0xe3C0..67FF)</text><text fill="#000000" font-family="sans-serif" font-size="13" lengthAdjust="spacing" textLength="62" x="253.5" y="1347.5566">3,176 gas</text><polygon fill="#181818" points="257.5,1377.6094,247.5,1381.6094,257.5,1385.6094,253.5,1381.6094" style="stroke:#181818;stroke-width:1.0;"/><line style="stroke:#181818;stroke-width:1.0;stroke-dasharray:2.0,2.0;" x1="251.5" x2="509.5" y1="1381.6094" y2="1381.6094"/><text fill="#000000" font-family="sans-serif" font-size="13" lengthAdjust="spacing" textLength="141" x="263.5" y="1376.8672">strategy: 0xaccc..F8e5</text><polygon fill="#181818" points="627,1452.8516,637,1456.8516,627,1460.8516,631,1456.8516" style="stroke:#181818;stroke-width:1.0;"/><line style="stroke:#181818;stroke-width:1.0;" x1="246.5" x2="633" y1="1456.8516" y2="1456.8516"/><text fill="#000000" font-family="sans-serif" font-size="13" lengthAdjust="spacing" textLength="135" x="253.5" y="1406.1777">stakerStrategyShares(</text><text fill="#000000" font-family="sans-serif" font-size="13" lengthAdjust="spacing" textLength="90" x="261.5" y="1421.4883">0x326E..42B4,</text><text fill="#000000" font-family="sans-serif" font-size="13" lengthAdjust="spacing" textLength="86" x="261.5" y="1436.7988">0xaccc..F8e5)</text><text fill="#000000" font-family="sans-serif" font-size="13" lengthAdjust="spacing" textLength="62" x="253.5" y="1452.1094">3,609 gas</text><polygon fill="#181818" points="257.5,1482.1621,247.5,1486.1621,257.5,1490.1621,253.5,1486.1621" style="stroke:#181818;stroke-width:1.0;"/><line style="stroke:#181818;stroke-width:1.0;stroke-dasharray:2.0,2.0;" x1="251.5" x2="643" y1="1486.1621" y2="1486.1621"/><text fill="#000000" font-family="sans-serif" font-size="13" lengthAdjust="spacing" textLength="180" x="263.5" y="1481.4199">2,,000,000,000,000,000,000</text><polygon fill="#181818" points="897,1542.0938,907,1546.0938,897,1550.0938,901,1546.0938" style="stroke:#181818;stroke-width:1.0;"/><line style="stroke:#181818;stroke-width:1.0;" x1="246.5" x2="903" y1="1546.0938" y2="1546.0938"/><text fill="#000000" font-family="sans-serif" font-size="13" lengthAdjust="spacing" textLength="73" x="253.5" y="1510.7305">undelegate(</text><text fill="#000000" font-family="sans-serif" font-size="13" lengthAdjust="spacing" textLength="137" x="261.5" y="1526.041">staker: 0x326E..42B4)</text><text fill="#000000" font-family="sans-serif" font-size="13" lengthAdjust="spacing" textLength="78" x="253.5" y="1541.3516">149,051 gas</text><polygon fill="#181818" points="1064,1602.0254,1074,1606.0254,1064,1610.0254,1068,1606.0254" style="stroke:#181818;stroke-width:1.0;"/><line style="stroke:#181818;stroke-width:1.0;" x1="919" x2="1070" y1="1606.0254" y2="1606.0254"/><text fill="#000000" font-family="sans-serif" font-size="13" lengthAdjust="spacing" textLength="109" x="926" y="1570.6621">podOwnerShares(</text><text fill="#000000" font-family="sans-serif" font-size="13" lengthAdjust="spacing" textLength="90" x="934" y="1585.9727">0x326E..42B4)</text><text fill="#000000" font-family="sans-serif" font-size="13" lengthAdjust="spacing" textLength="62" x="926" y="1601.2832">9,933 gas</text><polygon fill="#181818" points="930,1631.3359,920,1635.3359,930,1639.3359,926,1635.3359" style="stroke:#181818;stroke-width:1.0;"/><line style="stroke:#181818;stroke-width:1.0;stroke-dasharray:2.0,2.0;" x1="924" x2="1080" y1="1635.3359" y2="1635.3359"/><text fill="#000000" font-family="sans-serif" font-size="13" lengthAdjust="spacing" textLength="8" x="936" y="1630.5938">0</text><polygon fill="#181818" points="660,1691.2676,650,1695.2676,660,1699.2676,656,1695.2676" style="stroke:#181818;stroke-width:1.0;"/><line style="stroke:#181818;stroke-width:1.0;" x1="654" x2="908" y1="1695.2676" y2="1695.2676"/><text fill="#000000" font-family="sans-serif" font-size="13" lengthAdjust="spacing" textLength="80" x="666" y="1659.9043">getDeposits(</text><text fill="#000000" font-family="sans-serif" font-size="13" lengthAdjust="spacing" textLength="137" x="674" y="1675.2148">staker: 0x326E..42B4)</text><text fill="#000000" font-family="sans-serif" font-size="13" lengthAdjust="spacing" textLength="70" x="666" y="1690.5254">10,740 gas</text><polygon fill="#181818" points="897,1797.1309,907,1801.1309,897,1805.1309,901,1801.1309" style="stroke:#181818;stroke-width:1.0;"/><line style="stroke:#181818;stroke-width:1.0;stroke-dasharray:2.0,2.0;" x1="644" x2="903" y1="1801.1309" y2="1801.1309"/><text fill="#000000" font-family="sans-serif" font-size="13" lengthAdjust="spacing" textLength="4" x="651" y="1719.8359">[</text><text fill="#000000" font-family="sans-serif" font-size="13" lengthAdjust="spacing" textLength="102" x="659" y="1735.1465">0: 0xaccc..F8e5,</text><text fill="#000000" font-family="sans-serif" font-size="13" lengthAdjust="spacing" textLength="114" x="659" y="1750.457">1: 0x7D70..63d3],</text><text fill="#000000" font-family="sans-serif" font-size="13" lengthAdjust="spacing" textLength="4" x="651" y="1765.7676">[</text><text fill="#000000" font-family="sans-serif" font-size="13" lengthAdjust="spacing" textLength="200" x="659" y="1781.0781">0: 2,,000,000,000,000,000,000,</text><text fill="#000000" font-family="sans-serif" font-size="13" lengthAdjust="spacing" textLength="184" x="659" y="1796.3887">1: 699,887,283,037,236,796]</text><polygon fill="#181818" points="660,1887.6836,650,1891.6836,660,1895.6836,656,1891.6836" style="stroke:#181818;stroke-width:1.0;"/><line style="stroke:#181818;stroke-width:1.0;" x1="654" x2="908" y1="1891.6836" y2="1891.6836"/><text fill="#000000" font-family="sans-serif" font-size="13" lengthAdjust="spacing" textLength="91" x="666" y="1825.6992">removeShares(</text><text fill="#000000" font-family="sans-serif" font-size="13" lengthAdjust="spacing" textLength="137" x="674" y="1841.0098">staker: 0x326E..42B4,</text><text fill="#000000" font-family="sans-serif" font-size="13" lengthAdjust="spacing" textLength="145" x="674" y="1856.3203">strategy: 0xaccc..F8e5,</text><text fill="#000000" font-family="sans-serif" font-size="13" lengthAdjust="spacing" textLength="233" x="674" y="1871.6309">shares: 2,,000,000,000,000,000,000)</text><text fill="#000000" font-family="sans-serif" font-size="13" lengthAdjust="spacing" textLength="70" x="666" y="1886.9414">15,767 gas</text><polygon fill="#181818" points="897,1901.6836,907,1905.6836,897,1909.6836,901,1905.6836" style="stroke:#181818;stroke-width:1.0;"/><line style="stroke:#181818;stroke-width:1.0;stroke-dasharray:2.0,2.0;" x1="644" x2="903" y1="1905.6836" y2="1905.6836"/><polygon fill="#181818" points="660,1992.2363,650,1996.2363,660,2000.2363,656,1996.2363" style="stroke:#181818;stroke-width:1.0;"/><line style="stroke:#181818;stroke-width:1.0;" x1="654" x2="908" y1="1996.2363" y2="1996.2363"/><text fill="#000000" font-family="sans-serif" font-size="13" lengthAdjust="spacing" textLength="91" x="666" y="1930.252">removeShares(</text><text fill="#000000" font-family="sans-serif" font-size="13" lengthAdjust="spacing" textLength="137" x="674" y="1945.5625">staker: 0x326E..42B4,</text><text fill="#000000" font-family="sans-serif" font-size="13" lengthAdjust="spacing" textLength="153" x="674" y="1960.873">strategy: 0x7D70..63d3,</text><text fill="#000000" font-family="sans-serif" font-size="13" lengthAdjust="spacing" textLength="217" x="674" y="1976.1836">shares: 699,887,283,037,236,796)</text><text fill="#000000" font-family="sans-serif" font-size="13" lengthAdjust="spacing" textLength="62" x="666" y="1991.4941">7,367 gas</text><polygon fill="#181818" points="897,2006.2363,907,2010.2363,897,2014.2363,901,2010.2363" style="stroke:#181818;stroke-width:1.0;"/><line style="stroke:#181818;stroke-width:1.0;stroke-dasharray:2.0,2.0;" x1="644" x2="903" y1="2010.2363" y2="2010.2363"/><polygon fill="#181818" points="257.5,2066.168,247.5,2070.168,257.5,2074.168,253.5,2070.168" style="stroke:#181818;stroke-width:1.0;"/><line style="stroke:#181818;stroke-width:1.0;stroke-dasharray:2.0,2.0;" x1="251.5" x2="913" y1="2070.168" y2="2070.168"/><text fill="#000000" font-family="sans-serif" font-size="13" lengthAdjust="spacing" textLength="116" x="263.5" y="2034.8047">withdrawalRoots: [</text><text fill="#000000" font-family="sans-serif" font-size="13" lengthAdjust="spacing" textLength="170" x="271.5" y="2050.1152">0: 0x4db8c402..9b7484ab,</text><text fill="#000000" font-family="sans-serif" font-size="13" lengthAdjust="spacing" textLength="166" x="271.5" y="2065.4258">1: 0x22abfba8..dd9570ba]</text><path d="M919,2083.168 L919,2123.168 L1018,2123.168 L1018,2093.168 L1008,2083.168 L919,2083.168 " fill="#FEFFDD" style="stroke:#181818;stroke-width:0.5;"/><path d="M1008,2083.168 L1008,2093.168 L1018,2093.168 L1008,2083.168 " fill="#FEFFDD" style="stroke:#181818;stroke-width:0.5;"/><text fill="#000000" font-family="sans-serif" font-size="13" lengthAdjust="spacing" textLength="4" x="925" y="2100.7363">&#160;</text><text fill="#000000" font-family="sans-serif" font-size="13" lengthAdjust="spacing" textLength="78" x="925" y="2116.0469">105,244 gas</text><polygon fill="#181818" points="127,2130.7891,117,2134.7891,127,2138.7891,123,2134.7891" style="stroke:#181818;stroke-width:1.0;"/><line style="stroke:#181818;stroke-width:1.0;stroke-dasharray:2.0,2.0;" x1="121" x2="240.5" y1="2134.7891" y2="2134.7891"/><path d="M246,2147.7891 L246,2187.7891 L337,2187.7891 L337,2157.7891 L327,2147.7891 L246,2147.7891 " fill="#FEFFDD" style="stroke:#181818;stroke-width:0.5;"/><path d="M327,2147.7891 L327,2157.7891 L337,2157.7891 L327,2147.7891 " fill="#FEFFDD" style="stroke:#181818;stroke-width:0.5;"/><text fill="#000000" font-family="sans-serif" font-size="13" lengthAdjust="spacing" textLength="4" x="252" y="2165.3574">&#160;</text><text fill="#000000" font-family="sans-serif" font-size="13" lengthAdjust="spacing" textLength="70" x="252" y="2180.668">44,978 gas</text><path d="M770,2198.4102 L770,2774.4102 L1058,2774.4102 L1058,2208.4102 L1048,2198.4102 L770,2198.4102 " fill="#00FFFF" style="stroke:#181818;stroke-width:0.5;"/><path d="M1048,2198.4102 L1048,2208.4102 L1058,2208.4102 L1048,2198.4102 " fill="#00FFFF" style="stroke:#181818;stroke-width:0.5;"/><text fill="#000000" font-family="sans-serif" font-size="13" lengthAdjust="spacing" textLength="121" x="776" y="2215.9785">StakerUndelegated:</text><text fill="#000000" font-family="sans-serif" font-size="13" lengthAdjust="spacing" textLength="137" x="784" y="2231.2891">staker: 0x326E..42B4,</text><text fill="#000000" font-family="sans-serif" font-size="13" lengthAdjust="spacing" textLength="152" x="784" y="2246.5996">operator: 0x37d5..C3D8</text><text fill="#000000" font-family="sans-serif" font-size="13" lengthAdjust="spacing" textLength="165" x="776" y="2261.9102">OperatorSharesDecreased:</text><text fill="#000000" font-family="sans-serif" font-size="13" lengthAdjust="spacing" textLength="156" x="784" y="2277.2207">operator: 0x37d5..C3D8,</text><text fill="#000000" font-family="sans-serif" font-size="13" lengthAdjust="spacing" textLength="137" x="784" y="2292.5313">staker: 0x326E..42B4,</text><text fill="#000000" font-family="sans-serif" font-size="13" lengthAdjust="spacing" textLength="145" x="784" y="2307.8418">strategy: 0xaccc..F8e5,</text><text fill="#000000" font-family="sans-serif" font-size="13" lengthAdjust="spacing" textLength="229" x="784" y="2323.1523">shares: 2,,000,000,000,000,000,000</text><text fill="#000000" font-family="sans-serif" font-size="13" lengthAdjust="spacing" textLength="121" x="776" y="2338.4629">WithdrawalQueued:</text><text fill="#000000" font-family="sans-serif" font-size="13" lengthAdjust="spacing" textLength="259" x="784" y="2353.7734">withdrawalRoot: 0x4db8c402..9b7484ab,</text><text fill="#000000" font-family="sans-serif" font-size="13" lengthAdjust="spacing" textLength="80" x="784" y="2369.084">withdrawal: [</text><text fill="#000000" font-family="sans-serif" font-size="13" lengthAdjust="spacing" textLength="137" x="792" y="2384.3945">staker: 0x326E..42B4,</text><text fill="#000000" font-family="sans-serif" font-size="13" lengthAdjust="spacing" textLength="180" x="792" y="2399.7051">delegatedTo: 0x37d5..C3D8,</text><text fill="#000000" font-family="sans-serif" font-size="13" lengthAdjust="spacing" textLength="167" x="792" y="2415.0156">withdrawer: 0x326E..42B4,</text><text fill="#000000" font-family="sans-serif" font-size="13" lengthAdjust="spacing" textLength="58" x="792" y="2430.3262">nonce: 6,</text><text fill="#000000" font-family="sans-serif" font-size="13" lengthAdjust="spacing" textLength="139" x="792" y="2445.6367">startBlock: 1,381,017,</text><text fill="#000000" font-family="sans-serif" font-size="13" lengthAdjust="spacing" textLength="74" x="792" y="2460.9473">strategies: [</text><text fill="#000000" font-family="sans-serif" font-size="13" lengthAdjust="spacing" textLength="106" x="800" y="2476.2578">0: 0xaccc..F8e5],</text><text fill="#000000" font-family="sans-serif" font-size="13" lengthAdjust="spacing" textLength="53" x="792" y="2491.5684">shares: [</text><text fill="#000000" font-family="sans-serif" font-size="13" lengthAdjust="spacing" textLength="204" x="800" y="2506.8789">0: 2,,000,000,000,000,000,000]]</text><text fill="#000000" font-family="sans-serif" font-size="13" lengthAdjust="spacing" textLength="165" x="776" y="2522.1895">OperatorSharesDecreased:</text><text fill="#000000" font-family="sans-serif" font-size="13" lengthAdjust="spacing" textLength="156" x="784" y="2537.5">operator: 0x37d5..C3D8,</text><text fill="#000000" font-family="sans-serif" font-size="13" lengthAdjust="spacing" textLength="137" x="784" y="2552.8105">staker: 0x326E..42B4,</text><text fill="#000000" font-family="sans-serif" font-size="13" lengthAdjust="spacing" textLength="153" x="784" y="2568.1211">strategy: 0x7D70..63d3,</text><text fill="#000000" font-family="sans-serif" font-size="13" lengthAdjust="spacing" textLength="213" x="784" y="2583.4316">shares: 699,887,283,037,236,796</text><text fill="#000000" font-family="sans-serif" font-size="13" lengthAdjust="spacing" textLength="121" x="776" y="2598.7422">WithdrawalQueued:</text><text fill="#000000" font-family="sans-serif" font-size="13" lengthAdjust="spacing" textLength="255" x="784" y="2614.0527">withdrawalRoot: 0x22abfba8..dd9570ba,</text><text fill="#000000" font-family="sans-serif" font-size="13" lengthAdjust="spacing" textLength="80" x="784" y="2629.3633">withdrawal: [</text><text fill="#000000" font-family="sans-serif" font-size="13" lengthAdjust="spacing" textLength="137" x="792" y="2644.6738">staker: 0x326E..42B4,</text><text fill="#000000" font-family="sans-serif" font-size="13" lengthAdjust="spacing" textLength="180" x="792" y="2659.9844">delegatedTo: 0x37d5..C3D8,</text><text fill="#000000" font-family="sans-serif" font-size="13" lengthAdjust="spacing" textLength="167" x="792" y="2675.2949">withdrawer: 0x326E..42B4,</text><text fill="#000000" font-family="sans-serif" font-size="13" lengthAdjust="spacing" textLength="58" x="792" y="2690.6055">nonce: 7,</text><text fill="#000000" font-family="sans-serif" font-size="13" lengthAdjust="spacing" textLength="139" x="792" y="2705.916">startBlock: 1,381,017,</text><text fill="#000000" font-family="sans-serif" font-size="13" lengthAdjust="spacing" textLength="74" x="792" y="2721.2266">strategies: [</text><text fill="#000000" font-family="sans-serif" font-size="13" lengthAdjust="spacing" textLength="114" x="800" y="2736.5371">0: 0x7D70..63d3],</text><text fill="#000000" font-family="sans-serif" font-size="13" lengthAdjust="spacing" textLength="53" x="792" y="2751.8477">shares: [</text><text fill="#000000" font-family="sans-serif" font-size="13" lengthAdjust="spacing" textLength="188" x="800" y="2767.1582">0: 699,887,283,037,236,796]]</text><!--SRC=[nLVVRzis47xNNq5qBnt02PH8aQ9H14ZYE0EMj5sIOW-B7oYATeIaaYVHJVBVzwYVTcCvIP5Y1cpvIDxTTzyTZvJDx9r1v25CMQH5ik26AK5ZGXCX0iO94SeO8KGQ6Cv5gdISf9BIbCgGg2X8KaqDeQ7qFArMDYjoT5FScUhs4QFahj2tAA1nG0A1qQMo68K47QvAU8GCaM32s2G8qUdvbQUqBKhqZZnGpHFVZtJ2tY5L8ISw0NahLTfCPokLstfTo8tlix1R1w8Jq8SF7ulKJCsTMIemUN3mew8E4kRxUc54hUX49u3YsSNLSP4likLJfNIHHBwVHWclbPpe152wjAMoPlbuhdArD3lyASO201gt_fpe151jGG9feygK2E7xXWPH4oM8JW3basnfyiz5EgXwUM4DAhwPicVD-rZasamGazufg7ykCoT9FvAGFofvW4xlJUQTgmSqCp0JX3udN39Aus46j8eoiuyJ97p1upYYWeJDj3DwbdtDx0I5CiQIyNheIsLI68au9ZBohbhZn2UWTtBrfsVo53cmdjUdzu-3FeKJjCxJXXhp_lVhlBM3bgfoPP9zW_5-iTSd7YnqkPoW6rLTG1s-lyuHAk4FU7zGYr2IDEQ-JuccYeGQkscbTR7EhLj1Z_aHrDxn4GEt4eietdRQsVTAOzTbZcovDYC0biP2BK5jQ5k3qAtmbtbqdWnV1A07M08fKnCb4NYaEA1ilqVoSDYNqyzvveaEDNDLfP981TBebtfE5qUm1wPGzkEUBzUhLL5QanvMbR5dMMLT1eCGCqBss__NOILr5cQ1XYmGokhy16vCq33qVSvcGJqMkZ4eKuY2nYoknsZDApqci4xCPlCHaCe1wpPjJP0jRas-xRYXHF3zaAlMIWrmAfnZQ8nRVhj6CO75wjQKdUFB6rMQgdPVjx8JrygEce0tZJdo20w8t4RIcUsGS2bn70iSnXGJ2a_AiP3yzHGCFB-U0deOBw2niXFo1XGCnceW_3a6oEjZ7UhdzR4I-FY- -ts3M0TZlopMOL-yFbPeaB0jPh69tY3MmTZBOWqn1bvsVRV0TAVgrjdXF3RO9bjGtAPY4fCesFRT6V7wCzgTIksHEq6h8lrqdqEWkmEiZmou6lrmJhNgG-usZGySGk-ScbLHPRRQYvjWmSX-oePEEf2zqKdxtZA7mMxjECsTvaYBcO_4KvglS1FPe6fNGBYPs5LgpLIjlW-TeoJ2WelzbBmfo871BP0Z1052WUcp0DldVMPlqbBTgxkBeh1WTKWcIvDOCmBjMIQ2nKmbGrB3K2MBHCLmHKrb94YYvirjiCoMDnOLYuqDueeemY5hpllE__RguIfsdJE6fMWkGXitp9xGtzH_Q-LTriHzwVTUEl56s8JnOcLATpUlPqGAbufZEeszJ-rmau-fqQLHLMDfjmRUusEaghoN59NtJv-5lzTctK3Opin8GhRMGV907eU8KC_MLV4qii7KRkMykTfpt3afxP5xuu9RF8PtBknUkjgfcehC1TqWUj8UvktAbfgDLUCipUU_BcCRMynxTeUzC5rFzyZ_aIxny-dQxDnZwHhhqlFXdUix]--></g></svg>