<?xml version="1.0" encoding="us-ascii" standalone="no"?><svg xmlns="http://www.w3.org/2000/svg" xmlns:xlink="http://www.w3.org/1999/xlink" contentStyleType="text/css" height="1258px" preserveAspectRatio="none" style="width:1163px;height:1258px;background:#FFFFFF;" version="1.1" viewBox="0 0 1163 1258" width="1163px" zoomAndPan="magnify"><defs/><g><text fill="#000000" font-family="sans-serif" font-size="14" font-weight="bold" lengthAdjust="spacing" textLength="569" x="296.25" y="28.5352">0x318133d4bd263a58598bdd6fb9e09ac7e58c263a0bb23d2fedf6a7e17f09d583</text><text fill="#000000" font-family="sans-serif" font-size="14" lengthAdjust="spacing" textLength="395" x="383.25" y="1246.1484">holesky, block 1370721, Thu, 18 Apr 2024 11:48:36 GMT</text><rect fill="#FFFFFF" height="559.3848" style="stroke:#181818;stroke-width:1.0;" width="10" x="415" y="323.3926"/><rect fill="#FFFFFF" height="29.3105" style="stroke:#181818;stroke-width:1.0;" width="10" x="684" y="398.6348"/><rect fill="#FFFFFF" height="29.3105" style="stroke:#181818;stroke-width:1.0;" width="10" x="684" y="487.877"/><rect fill="#FFFFFF" height="149.1738" style="stroke:#181818;stroke-width:1.0;" width="10" x="826.5" y="668.9824"/><rect fill="#FFFFFF" height="14" style="stroke:#181818;stroke-width:1.0;" width="10" x="1080.5" y="759.5352"/><line style="stroke:#181818;stroke-width:0.5;stroke-dasharray:5.0,5.0;" x1="120" x2="120" y1="118.9766" y2="1155.125"/><line style="stroke:#181818;stroke-width:0.5;stroke-dasharray:5.0,5.0;" x1="419.5" x2="419.5" y1="118.9766" y2="1155.125"/><line style="stroke:#181818;stroke-width:0.5;stroke-dasharray:5.0,5.0;" x1="688.5" x2="688.5" y1="118.9766" y2="1155.125"/><line style="stroke:#181818;stroke-width:0.5;stroke-dasharray:5.0,5.0;" x1="831.5" x2="831.5" y1="118.9766" y2="1155.125"/><line style="stroke:#181818;stroke-width:0.5;stroke-dasharray:5.0,5.0;" x1="1085.5" x2="1085.5" y1="118.9766" y2="1155.125"/><text fill="#000000" font-family="sans-serif" font-size="14" lengthAdjust="spacing" textLength="94" x="70" y="116.0234">0x3c6b..5cb4</text><ellipse cx="120" cy="50.9883" fill="#E2E2F0" rx="8" ry="8" style="stroke:#181818;stroke-width:0.5;"/><path d="M120,58.9883 L120,85.9883 M107,66.9883 L133,66.9883 M120,85.9883 L107,100.9883 M120,85.9883 L133,100.9883 " fill="none" style="stroke:#181818;stroke-width:0.5;"/><text fill="#000000" font-family="sans-serif" font-size="14" lengthAdjust="spacing" textLength="94" x="70" y="1167.6602">0x3c6b..5cb4</text><ellipse cx="120" cy="1179.1133" fill="#E2E2F0" rx="8" ry="8" style="stroke:#181818;stroke-width:0.5;"/><path d="M120,1187.1133 L120,1214.1133 M107,1195.1133 L133,1195.1133 M120,1214.1133 L107,1229.1133 M120,1214.1133 L133,1229.1133 " fill="none" style="stroke:#181818;stroke-width:0.5;"/><rect fill="#E2E2F0" height="46.9766" rx="2.5" ry="2.5" style="stroke:#181818;stroke-width:0.5;" width="131" x="354.5" y="71"/><text fill="#000000" font-family="sans-serif" font-size="14" font-style="italic" lengthAdjust="spacing" textLength="117" x="361.5" y="91.5352">&#171;NodeDelegator&#187;</text><text fill="#000000" font-family="sans-serif" font-size="14" lengthAdjust="spacing" textLength="97" x="371.5" y="108.0234">0x326e..42b4</text><rect fill="#E2E2F0" height="46.9766" rx="2.5" ry="2.5" style="stroke:#181818;stroke-width:0.5;" width="131" x="354.5" y="1154.125"/><text fill="#000000" font-family="sans-serif" font-size="14" font-style="italic" lengthAdjust="spacing" textLength="117" x="361.5" y="1174.6602">&#171;NodeDelegator&#187;</text><text fill="#000000" font-family="sans-serif" font-size="14" lengthAdjust="spacing" textLength="97" x="371.5" y="1191.1484">0x326e..42b4</text><rect fill="#E2E2F0" height="46.9766" rx="2.5" ry="2.5" style="stroke:#181818;stroke-width:0.5;" width="103" x="637.5" y="71"/><text fill="#000000" font-family="sans-serif" font-size="14" font-style="italic" lengthAdjust="spacing" textLength="85" x="646.5" y="91.5352">&#171;LRTConfig&#187;</text><text fill="#000000" font-family="sans-serif" font-size="14" lengthAdjust="spacing" textLength="89" x="644.5" y="108.0234">0xc1b4..cfe7</text><rect fill="#E2E2F0" height="46.9766" rx="2.5" ry="2.5" style="stroke:#181818;stroke-width:0.5;" width="103" x="637.5" y="1154.125"/><text fill="#000000" font-family="sans-serif" font-size="14" font-style="italic" lengthAdjust="spacing" textLength="85" x="646.5" y="1174.6602">&#171;LRTConfig&#187;</text><text fill="#000000" font-family="sans-serif" font-size="14" lengthAdjust="spacing" textLength="89" x="644.5" y="1191.1484">0xc1b4..cfe7</text><rect fill="#E2E2F0" height="46.9766" rx="2.5" ry="2.5" style="stroke:#181818;stroke-width:0.5;" width="162" x="750.5" y="71"/><text fill="#000000" font-family="sans-serif" font-size="14" font-style="italic" lengthAdjust="spacing" textLength="148" x="757.5" y="91.5352">&#171;DelegationManager&#187;</text><text fill="#000000" font-family="sans-serif" font-size="14" lengthAdjust="spacing" textLength="96" x="783.5" y="108.0234">0xa441..48e7</text><rect fill="#E2E2F0" height="46.9766" rx="2.5" ry="2.5" style="stroke:#181818;stroke-width:0.5;" width="162" x="750.5" y="1154.125"/><text fill="#000000" font-family="sans-serif" font-size="14" font-style="italic" lengthAdjust="spacing" textLength="148" x="757.5" y="1174.6602">&#171;DelegationManager&#187;</text><text fill="#000000" font-family="sans-serif" font-size="14" lengthAdjust="spacing" textLength="96" x="783.5" y="1191.1484">0xa441..48e7</text><rect fill="#E2E2F0" height="46.9766" rx="2.5" ry="2.5" style="stroke:#181818;stroke-width:0.5;" width="144" x="1013.5" y="71"/><text fill="#000000" font-family="sans-serif" font-size="14" font-style="italic" lengthAdjust="spacing" textLength="130" x="1020.5" y="91.5352">&#171;StrategyManager&#187;</text><text fill="#000000" font-family="sans-serif" font-size="14" lengthAdjust="spacing" textLength="94" x="1038.5" y="108.0234">0xdfb5..d5b6</text><rect fill="#E2E2F0" height="46.9766" rx="2.5" ry="2.5" style="stroke:#181818;stroke-width:0.5;" width="144" x="1013.5" y="1154.125"/><text fill="#000000" font-family="sans-serif" font-size="14" font-style="italic" lengthAdjust="spacing" textLength="130" x="1020.5" y="1174.6602">&#171;StrategyManager&#187;</text><text fill="#000000" font-family="sans-serif" font-size="14" lengthAdjust="spacing" textLength="94" x="1038.5" y="1191.1484">0xdfb5..d5b6</text><rect fill="#FFFFFF" height="559.3848" style="stroke:#181818;stroke-width:1.0;" width="10" x="415" y="323.3926"/><rect fill="#FFFFFF" height="29.3105" style="stroke:#181818;stroke-width:1.0;" width="10" x="684" y="398.6348"/><rect fill="#FFFFFF" height="29.3105" style="stroke:#181818;stroke-width:1.0;" width="10" x="684" y="487.877"/><rect fill="#FFFFFF" height="149.1738" style="stroke:#181818;stroke-width:1.0;" width="10" x="826.5" y="668.9824"/><rect fill="#FFFFFF" height="14" style="stroke:#181818;stroke-width:1.0;" width="10" x="1080.5" y="759.5352"/><path d="M5,133.9766 L5,250.9766 L235,250.9766 L235,143.9766 L225,133.9766 L5,133.9766 " fill="#FEFFDD" style="stroke:#181818;stroke-width:0.5;"/><path d="M225,133.9766 L225,143.9766 L235,143.9766 L225,133.9766 " fill="#FEFFDD" style="stroke:#181818;stroke-width:0.5;"/><text fill="#000000" font-family="sans-serif" font-size="13" lengthAdjust="spacing" textLength="64" x="11" y="151.5449">Nonce: 33</text><text fill="#000000" font-family="sans-serif" font-size="13" lengthAdjust="spacing" textLength="191" x="11" y="166.8555">Gas Price: 44.513153945 Gwei</text><text fill="#000000" font-family="sans-serif" font-size="13" lengthAdjust="spacing" textLength="185" x="11" y="182.166">Max Fee: 47.697591211 Gwei</text><text fill="#000000" font-family="sans-serif" font-size="13" lengthAdjust="spacing" textLength="209" x="11" y="197.4766">Max Priority: 42.859501533 Gwei</text><text fill="#000000" font-family="sans-serif" font-size="13" lengthAdjust="spacing" textLength="119" x="11" y="212.7871">Gas Limit: 142,865</text><text fill="#000000" font-family="sans-serif" font-size="13" lengthAdjust="spacing" textLength="118" x="11" y="228.0977">Gas Used: 140,582</text><text fill="#000000" font-family="sans-serif" font-size="13" lengthAdjust="spacing" textLength="114" x="11" y="243.4082">Tx Fee: 0.006 ETH</text><polygon fill="#181818" points="403,319.3926,413,323.3926,403,327.3926,407,323.3926" style="stroke:#181818;stroke-width:1.0;"/><line style="stroke:#181818;stroke-width:1.0;" x1="120" x2="409" y1="323.3926" y2="323.3926"/><text fill="#000000" font-family="sans-serif" font-size="13" lengthAdjust="spacing" textLength="168" x="127" y="272.7188">requestInternalWithdrawal(</text><text fill="#000000" font-family="sans-serif" font-size="13" lengthAdjust="spacing" textLength="204" x="135" y="288.0293">strategyAddress: 0x7D70..63d3,</text><text fill="#000000" font-family="sans-serif" font-size="13" lengthAdjust="spacing" textLength="268" x="135" y="303.3398">strategyShares: 100,000,000,000,000,000)</text><text fill="#000000" font-family="sans-serif" font-size="13" lengthAdjust="spacing" textLength="78" x="127" y="318.6504">140,582 gas</text><polygon fill="#181818" points="672,394.6348,682,398.6348,672,402.6348,676,398.6348" style="stroke:#181818;stroke-width:1.0;"/><line style="stroke:#181818;stroke-width:1.0;" x1="425" x2="678" y1="398.6348" y2="398.6348"/><text fill="#000000" font-family="sans-serif" font-size="13" lengthAdjust="spacing" textLength="53" x="432" y="347.9609">hasRole(</text><text fill="#000000" font-family="sans-serif" font-size="13" lengthAdjust="spacing" textLength="184" x="440" y="363.2715">role: 0x97667070..4fa9b929,</text><text fill="#000000" font-family="sans-serif" font-size="13" lengthAdjust="spacing" textLength="150" x="440" y="378.582">account: 0x3C6B..5CB4)</text><text fill="#000000" font-family="sans-serif" font-size="13" lengthAdjust="spacing" textLength="62" x="432" y="393.8926">9,758 gas</text><polygon fill="#181818" points="436,423.9453,426,427.9453,436,431.9453,432,427.9453" style="stroke:#181818;stroke-width:1.0;"/><line style="stroke:#181818;stroke-width:1.0;stroke-dasharray:2.0,2.0;" x1="430" x2="688" y1="427.9453" y2="427.9453"/><text fill="#000000" font-family="sans-serif" font-size="13" lengthAdjust="spacing" textLength="25" x="442" y="423.2031">true</text><polygon fill="#181818" points="672,483.877,682,487.877,672,491.877,676,487.877" style="stroke:#181818;stroke-width:1.0;"/><line style="stroke:#181818;stroke-width:1.0;" x1="425" x2="678" y1="487.877" y2="487.877"/><text fill="#000000" font-family="sans-serif" font-size="13" lengthAdjust="spacing" textLength="78" x="432" y="452.5137">getContract(</text><text fill="#000000" font-family="sans-serif" font-size="13" lengthAdjust="spacing" textLength="232" x="440" y="467.8242">contractKey: 0xe6f126e6..199de5b5)</text><text fill="#000000" font-family="sans-serif" font-size="13" lengthAdjust="spacing" textLength="62" x="432" y="483.1348">3,134 gas</text><polygon fill="#181818" points="436,513.1875,426,517.1875,436,521.1875,432,517.1875" style="stroke:#181818;stroke-width:1.0;"/><line style="stroke:#181818;stroke-width:1.0;stroke-dasharray:2.0,2.0;" x1="430" x2="688" y1="517.1875" y2="517.1875"/><text fill="#000000" font-family="sans-serif" font-size="13" lengthAdjust="spacing" textLength="88" x="442" y="512.4453">0xA441..48e7</text><polygon fill="#181818" points="814.5,664.9824,824.5,668.9824,814.5,672.9824,818.5,668.9824" style="stroke:#181818;stroke-width:1.0;"/><line style="stroke:#181818;stroke-width:1.0;" x1="425" x2="820.5" y1="668.9824" y2="668.9824"/><text fill="#000000" font-family="sans-serif" font-size="13" lengthAdjust="spacing" textLength="118" x="432" y="541.7559">queueWithdrawals(</text><text fill="#000000" font-family="sans-serif" font-size="13" lengthAdjust="spacing" textLength="172" x="440" y="557.0664">queuedWithdrawalParams: [</text><text fill="#000000" font-family="sans-serif" font-size="13" lengthAdjust="spacing" textLength="20" x="448" y="572.377">0: [</text><text fill="#000000" font-family="sans-serif" font-size="13" lengthAdjust="spacing" textLength="74" x="456" y="587.6875">strategies: [</text><text fill="#000000" font-family="sans-serif" font-size="13" lengthAdjust="spacing" textLength="114" x="464" y="602.998">0: 0x7D70..63d3],</text><text fill="#000000" font-family="sans-serif" font-size="13" lengthAdjust="spacing" textLength="53" x="456" y="618.3086">shares: [</text><text fill="#000000" font-family="sans-serif" font-size="13" lengthAdjust="spacing" textLength="188" x="464" y="633.6191">0: 100,000,000,000,000,000],</text><text fill="#000000" font-family="sans-serif" font-size="13" lengthAdjust="spacing" textLength="175" x="456" y="648.9297">withdrawer: 0x326E..42B4]])</text><text fill="#000000" font-family="sans-serif" font-size="13" lengthAdjust="spacing" textLength="70" x="432" y="664.2402">65,726 gas</text><polygon fill="#181818" points="1068.5,755.5352,1078.5,759.5352,1068.5,763.5352,1072.5,759.5352" style="stroke:#181818;stroke-width:1.0;"/><line style="stroke:#181818;stroke-width:1.0;" x1="836.5" x2="1074.5" y1="759.5352" y2="759.5352"/><text fill="#000000" font-family="sans-serif" font-size="13" lengthAdjust="spacing" textLength="91" x="843.5" y="693.5508">removeShares(</text><text fill="#000000" font-family="sans-serif" font-size="13" lengthAdjust="spacing" textLength="137" x="851.5" y="708.8613">staker: 0x326E..42B4,</text><text fill="#000000" font-family="sans-serif" font-size="13" lengthAdjust="spacing" textLength="153" x="851.5" y="724.1719">strategy: 0x7D70..63d3,</text><text fill="#000000" font-family="sans-serif" font-size="13" lengthAdjust="spacing" textLength="217" x="851.5" y="739.4824">shares: 100,000,000,000,000,000)</text><text fill="#000000" font-family="sans-serif" font-size="13" lengthAdjust="spacing" textLength="70" x="843.5" y="754.793">13,382 gas</text><polygon fill="#181818" points="847.5,769.5352,837.5,773.5352,847.5,777.5352,843.5,773.5352" style="stroke:#181818;stroke-width:1.0;"/><line style="stroke:#181818;stroke-width:1.0;stroke-dasharray:2.0,2.0;" x1="841.5" x2="1084.5" y1="773.5352" y2="773.5352"/><polygon fill="#181818" points="436,814.1563,426,818.1563,436,822.1563,432,818.1563" style="stroke:#181818;stroke-width:1.0;"/><line style="stroke:#181818;stroke-width:1.0;stroke-dasharray:2.0,2.0;" x1="430" x2="830.5" y1="818.1563" y2="818.1563"/><text fill="#000000" font-family="sans-serif" font-size="13" lengthAdjust="spacing" textLength="4" x="442" y="798.1035">[</text><text fill="#000000" font-family="sans-serif" font-size="13" lengthAdjust="spacing" textLength="167" x="450" y="813.4141">0: 0x36e5744a..f5738d28]</text><path d="M836,831.1563 L836,871.1563 L927,871.1563 L927,841.1563 L917,831.1563 L836,831.1563 " fill="#FEFFDD" style="stroke:#181818;stroke-width:0.5;"/><path d="M917,831.1563 L917,841.1563 L927,841.1563 L917,831.1563 " fill="#FEFFDD" style="stroke:#181818;stroke-width:0.5;"/><text fill="#000000" font-family="sans-serif" font-size="13" lengthAdjust="spacing" textLength="4" x="842" y="848.7246">&#160;</text><text fill="#000000" font-family="sans-serif" font-size="13" lengthAdjust="spacing" textLength="70" x="842" y="864.0352">52,344 gas</text><polygon fill="#181818" points="131,878.7773,121,882.7773,131,886.7773,127,882.7773" style="stroke:#181818;stroke-width:1.0;"/><line style="stroke:#181818;stroke-width:1.0;stroke-dasharray:2.0,2.0;" x1="125" x2="419" y1="882.7773" y2="882.7773"/><path d="M425,895.7773 L425,935.7773 L516,935.7773 L516,905.7773 L506,895.7773 L425,895.7773 " fill="#FEFFDD" style="stroke:#181818;stroke-width:0.5;"/><path d="M506,895.7773 L506,905.7773 L516,905.7773 L506,895.7773 " fill="#FEFFDD" style="stroke:#181818;stroke-width:0.5;"/><text fill="#000000" font-family="sans-serif" font-size="13" lengthAdjust="spacing" textLength="4" x="431" y="913.3457">&#160;</text><text fill="#000000" font-family="sans-serif" font-size="13" lengthAdjust="spacing" textLength="70" x="431" y="928.6563">61,964 gas</text><path d="M689,946.3984 L689,1139.3984 L974,1139.3984 L974,956.3984 L964,946.3984 L689,946.3984 " fill="#00FFFF" style="stroke:#181818;stroke-width:0.5;"/><path d="M964,946.3984 L964,956.3984 L974,956.3984 L964,946.3984 " fill="#00FFFF" style="stroke:#181818;stroke-width:0.5;"/><text fill="#000000" font-family="sans-serif" font-size="13" lengthAdjust="spacing" textLength="121" x="695" y="963.9668">WithdrawalQueued:</text><text fill="#000000" font-family="sans-serif" font-size="13" lengthAdjust="spacing" textLength="256" x="703" y="979.2773">withdrawalRoot: 0x36e5744a..f5738d28,</text><text fill="#000000" font-family="sans-serif" font-size="13" lengthAdjust="spacing" textLength="80" x="703" y="994.5879">withdrawal: [</text><text fill="#000000" font-family="sans-serif" font-size="13" lengthAdjust="spacing" textLength="137" x="711" y="1009.8984">staker: 0x326E..42B4,</text><text fill="#000000" font-family="sans-serif" font-size="13" lengthAdjust="spacing" textLength="177" x="711" y="1025.209">delegatedTo: 0x0000..0000,</text><text fill="#000000" font-family="sans-serif" font-size="13" lengthAdjust="spacing" textLength="167" x="711" y="1040.5195">withdrawer: 0x326E..42B4,</text><text fill="#000000" font-family="sans-serif" font-size="13" lengthAdjust="spacing" textLength="58" x="711" y="1055.8301">nonce: 3,</text><text fill="#000000" font-family="sans-serif" font-size="13" lengthAdjust="spacing" textLength="139" x="711" y="1071.1406">startBlock: 1,370,721,</text><text fill="#000000" font-family="sans-serif" font-size="13" lengthAdjust="spacing" textLength="74" x="711" y="1086.4512">strategies: [</text><text fill="#000000" font-family="sans-serif" font-size="13" lengthAdjust="spacing" textLength="114" x="719" y="1101.7617">0: 0x7D70..63d3],</text><text fill="#000000" font-family="sans-serif" font-size="13" lengthAdjust="spacing" textLength="53" x="711" y="1117.0723">shares: [</text><text fill="#000000" font-family="sans-serif" font-size="13" lengthAdjust="spacing" textLength="188" x="719" y="1132.3828">0: 100,000,000,000,000,000]]</text><!--SRC=[XLN9Rjiw5DtpAuY-JGlm4Q8uI3AA04dQfaMReY_rGnUD5vH8sK8SAQNe37_VIursXdPXMPTtEhpdaFALtreStNEMCiwDo4sik9QfpDBS65NccOqoNIHMfaNmH7aUSnENrfHA9vObPPGPcNA42dtZgwR6csPhswi7WlDjKrnXnfCeYHd1oysEO9RYunk7uoWMcB65I1TSuRFp9TA5Rnn-1K0AbLCgYroymhh5mGm6HZVQ-QgeRdJjkxXOMKf5FCQ16GpyzktNnjXtTclN6aeU7JrEB5WkA2rActI9mGm697wvM9usTLcjdoPf8HXqIuUaO0O3aePEiFDpNUkrVQQZAND9gP6vwfA36Gn8_kwTzdRzCAUYkl4MDxVMJLj7Nvkwi0lCEJg3z6-k2fOGL3BE9C-4n6TtjaBd-Xv_iC6LK9KbCcCnOxCByXfN-GVmnnJubH4ayzuVwdwfhYk_m4p495MoM_g_jIQiH4IcCLeEvICQHGg_Ntv4jZOuu4LeekdVeucA1NRsryws_bFjhQlrzaVbDyRfExrzVLbZt0wRFpR6sRQ5mlV9koIYL773oNx4zus6240IHIHw-djpMGyOyLgtGKhLBUHDGD0a3a0tyht06zrUW5OxB0vU0e0iKGhq2Y14gRCyYxCEY2wAPbVx4C5FrGdey_H4GDkC938zR3hMHyxwdQknTplx0e2rzQ0ts6FXEn35O7os3w6JLIM3F4Kfop9ZPIwX8oUCYpztZEwF9xKUT1vLky10oyxETBHT-sxHpAlVjDFNCFMVmObnDBrDn5IstLliGlOvN94fVY3mCFO5EkUqkm6BTTtaO_K-dFWJiLh199GaIQmEHp7k44q75BOzdhUWnsiuMRsQ1WdggyV53vJtd2Z_BaPE-6CjZY16aiR_RYBTtBYoCX52KrhAXAScJbVzPU2gzSRZfjpZxxAMCU6Y5y9OyJ1uFeKmAaOorGVltI_JZFxHltOQpSJ_rmbXWMO2zFQYQVppACb1772CUeKyCzdEO_eBqvfb4zmmCfXkUFRkbpZllVLm5PAnYVCduJC3T13uq93mfK5F58fUa2Swq2Rwgp1Nyutt6m00]--></g></svg>