<?xml version="1.0" encoding="us-ascii" standalone="no"?><svg xmlns="http://www.w3.org/2000/svg" xmlns:xlink="http://www.w3.org/1999/xlink" contentStyleType="text/css" height="2071px" preserveAspectRatio="none" style="width:1075px;height:2071px;background:#FFFFFF;" version="1.1" viewBox="0 0 1075 2071" width="1075px" zoomAndPan="magnify"><defs/><g><text fill="#000000" font-family="sans-serif" font-size="14" font-weight="bold" lengthAdjust="spacing" textLength="570" x="251.5" y="28.5352">0x63486f6520742ebac0aa3994409937804fa077f5926f9538a584239d5ac83b4b</text><text fill="#000000" font-family="sans-serif" font-size="14" lengthAdjust="spacing" textLength="394" x="339.5" y="2059.3965">holesky, block 1387554, Sun, 21 Apr 2024 01:51:00 GMT</text><rect fill="#FFFFFF" height="1541.0488" style="stroke:#181818;stroke-width:1.0;" width="10" x="240.5" y="292.7715"/><rect fill="#FFFFFF" height="29.3105" style="stroke:#181818;stroke-width:1.0;" width="10" x="509.5" y="368.0137"/><rect fill="#FFFFFF" height="29.3105" style="stroke:#181818;stroke-width:1.0;" width="10" x="509.5" y="457.2559"/><rect fill="#FFFFFF" height="29.3105" style="stroke:#181818;stroke-width:1.0;" width="10" x="509.5" y="546.498"/><rect fill="#FFFFFF" height="90.5527" style="stroke:#181818;stroke-width:1.0;" width="10" x="509.5" y="620.4297"/><rect fill="#FFFFFF" height="29.3105" style="stroke:#181818;stroke-width:1.0;" width="10" x="509.5" y="770.9141"/><rect fill="#FFFFFF" height="29.3105" style="stroke:#181818;stroke-width:1.0;" width="10" x="509.5" y="964.709"/><rect fill="#FFFFFF" height="29.3105" style="stroke:#181818;stroke-width:1.0;" width="10" x="509.5" y="1158.5039"/><rect fill="#FFFFFF" height="29.3105" style="stroke:#181818;stroke-width:1.0;" width="10" x="509.5" y="1352.2988"/><rect fill="#FFFFFF" height="29.3105" style="stroke:#181818;stroke-width:1.0;" width="10" x="643" y="875.4668"/><rect fill="#FFFFFF" height="29.3105" style="stroke:#181818;stroke-width:1.0;" width="10" x="643" y="1069.2617"/><rect fill="#FFFFFF" height="29.3105" style="stroke:#181818;stroke-width:1.0;" width="10" x="643" y="1263.0566"/><rect fill="#FFFFFF" height="29.3105" style="stroke:#181818;stroke-width:1.0;" width="10" x="643" y="1456.8516"/><rect fill="#FFFFFF" height="44.6211" style="stroke:#181818;stroke-width:1.0;" width="10" x="643" y="1695.2676"/><rect fill="#FFFFFF" height="223.1055" style="stroke:#181818;stroke-width:1.0;" width="10" x="821" y="1546.0938"/><rect fill="#FFFFFF" height="29.3105" style="stroke:#181818;stroke-width:1.0;" width="10" x="988" y="1606.0254"/><line style="stroke:#181818;stroke-width:0.5;stroke-dasharray:5.0,5.0;" x1="120" x2="120" y1="118.9766" y2="1968.373"/><line style="stroke:#181818;stroke-width:0.5;stroke-dasharray:5.0,5.0;" x1="245" x2="245" y1="118.9766" y2="1968.373"/><line style="stroke:#181818;stroke-width:0.5;stroke-dasharray:5.0,5.0;" x1="514" x2="514" y1="118.9766" y2="1968.373"/><line style="stroke:#181818;stroke-width:0.5;stroke-dasharray:5.0,5.0;" x1="648" x2="648" y1="118.9766" y2="1968.373"/><line style="stroke:#181818;stroke-width:0.5;stroke-dasharray:5.0,5.0;" x1="826" x2="826" y1="118.9766" y2="1968.373"/><line style="stroke:#181818;stroke-width:0.5;stroke-dasharray:5.0,5.0;" x1="993" x2="993" y1="118.9766" y2="1968.373"/><text fill="#000000" font-family="sans-serif" font-size="14" lengthAdjust="spacing" textLength="94" x="70" y="116.0234">0x3c6b..5cb4</text><ellipse cx="120" cy="50.9883" fill="#E2E2F0" rx="8" ry="8" style="stroke:#181818;stroke-width:0.5;"/><path d="M120,58.9883 L120,85.9883 M107,66.9883 L133,66.9883 M120,85.9883 L107,100.9883 M120,85.9883 L133,100.9883 " fill="none" style="stroke:#181818;stroke-width:0.5;"/><text fill="#000000" font-family="sans-serif" font-size="14" lengthAdjust="spacing" textLength="94" x="70" y="1980.9082">0x3c6b..5cb4</text><ellipse cx="120" cy="1992.3613" fill="#E2E2F0" rx="8" ry="8" style="stroke:#181818;stroke-width:0.5;"/><path d="M120,2000.3613 L120,2027.3613 M107,2008.3613 L133,2008.3613 M120,2027.3613 L107,2042.3613 M120,2027.3613 L133,2042.3613 " fill="none" style="stroke:#181818;stroke-width:0.5;"/><rect fill="#E2E2F0" height="46.9766" rx="2.5" ry="2.5" style="stroke:#181818;stroke-width:0.5;" width="131" x="180" y="71"/><text fill="#000000" font-family="sans-serif" font-size="14" font-style="italic" lengthAdjust="spacing" textLength="117" x="187" y="91.5352">&#171;NodeDelegator&#187;</text><text fill="#000000" font-family="sans-serif" font-size="14" lengthAdjust="spacing" textLength="96" x="197.5" y="108.0234">0x94b5..25cd</text><rect fill="#E2E2F0" height="46.9766" rx="2.5" ry="2.5" style="stroke:#181818;stroke-width:0.5;" width="131" x="180" y="1967.373"/><text fill="#000000" font-family="sans-serif" font-size="14" font-style="italic" lengthAdjust="spacing" textLength="117" x="187" y="1987.9082">&#171;NodeDelegator&#187;</text><text fill="#000000" font-family="sans-serif" font-size="14" lengthAdjust="spacing" textLength="96" x="197.5" y="2004.3965">0x94b5..25cd</text><rect fill="#E2E2F0" height="46.9766" rx="2.5" ry="2.5" style="stroke:#181818;stroke-width:0.5;" width="103" x="463" y="71"/><text fill="#000000" font-family="sans-serif" font-size="14" font-style="italic" lengthAdjust="spacing" textLength="85" x="472" y="91.5352">&#171;LRTConfig&#187;</text><text fill="#000000" font-family="sans-serif" font-size="14" lengthAdjust="spacing" textLength="89" x="470" y="108.0234">0xc1b4..cfe7</text><rect fill="#E2E2F0" height="46.9766" rx="2.5" ry="2.5" style="stroke:#181818;stroke-width:0.5;" width="103" x="463" y="1967.373"/><text fill="#000000" font-family="sans-serif" font-size="14" font-style="italic" lengthAdjust="spacing" textLength="85" x="472" y="1987.9082">&#171;LRTConfig&#187;</text><text fill="#000000" font-family="sans-serif" font-size="14" lengthAdjust="spacing" textLength="89" x="470" y="2004.3965">0xc1b4..cfe7</text><rect fill="#E2E2F0" height="46.9766" rx="2.5" ry="2.5" style="stroke:#181818;stroke-width:0.5;" width="144" x="576" y="71"/><text fill="#000000" font-family="sans-serif" font-size="14" font-style="italic" lengthAdjust="spacing" textLength="130" x="583" y="91.5352">&#171;StrategyManager&#187;</text><text fill="#000000" font-family="sans-serif" font-size="14" lengthAdjust="spacing" textLength="94" x="601" y="108.0234">0xdfb5..d5b6</text><rect fill="#E2E2F0" height="46.9766" rx="2.5" ry="2.5" style="stroke:#181818;stroke-width:0.5;" width="144" x="576" y="1967.373"/><text fill="#000000" font-family="sans-serif" font-size="14" font-style="italic" lengthAdjust="spacing" textLength="130" x="583" y="1987.9082">&#171;StrategyManager&#187;</text><text fill="#000000" font-family="sans-serif" font-size="14" lengthAdjust="spacing" textLength="94" x="601" y="2004.3965">0xdfb5..d5b6</text><rect fill="#E2E2F0" height="46.9766" rx="2.5" ry="2.5" style="stroke:#181818;stroke-width:0.5;" width="162" x="745" y="71"/><text fill="#000000" font-family="sans-serif" font-size="14" font-style="italic" lengthAdjust="spacing" textLength="148" x="752" y="91.5352">&#171;DelegationManager&#187;</text><text fill="#000000" font-family="sans-serif" font-size="14" lengthAdjust="spacing" textLength="96" x="778" y="108.0234">0xa441..48e7</text><rect fill="#E2E2F0" height="46.9766" rx="2.5" ry="2.5" style="stroke:#181818;stroke-width:0.5;" width="162" x="745" y="1967.373"/><text fill="#000000" font-family="sans-serif" font-size="14" font-style="italic" lengthAdjust="spacing" textLength="148" x="752" y="1987.9082">&#171;DelegationManager&#187;</text><text fill="#000000" font-family="sans-serif" font-size="14" lengthAdjust="spacing" textLength="96" x="778" y="2004.3965">0xa441..48e7</text><rect fill="#E2E2F0" height="46.9766" rx="2.5" ry="2.5" style="stroke:#181818;stroke-width:0.5;" width="152" x="917" y="71"/><text fill="#000000" font-family="sans-serif" font-size="14" font-style="italic" lengthAdjust="spacing" textLength="138" x="924" y="91.5352">&#171;EigenPodManager&#187;</text><text fill="#000000" font-family="sans-serif" font-size="14" lengthAdjust="spacing" textLength="97" x="944.5" y="108.0234">0x3077..e315</text><rect fill="#E2E2F0" height="46.9766" rx="2.5" ry="2.5" style="stroke:#181818;stroke-width:0.5;" width="152" x="917" y="1967.373"/><text fill="#000000" font-family="sans-serif" font-size="14" font-style="italic" lengthAdjust="spacing" textLength="138" x="924" y="1987.9082">&#171;EigenPodManager&#187;</text><text fill="#000000" font-family="sans-serif" font-size="14" lengthAdjust="spacing" textLength="97" x="944.5" y="2004.3965">0x3077..e315</text><rect fill="#FFFFFF" height="1541.0488" style="stroke:#181818;stroke-width:1.0;" width="10" x="240.5" y="292.7715"/><rect fill="#FFFFFF" height="29.3105" style="stroke:#181818;stroke-width:1.0;" width="10" x="509.5" y="368.0137"/><rect fill="#FFFFFF" height="29.3105" style="stroke:#181818;stroke-width:1.0;" width="10" x="509.5" y="457.2559"/><rect fill="#FFFFFF" height="29.3105" style="stroke:#181818;stroke-width:1.0;" width="10" x="509.5" y="546.498"/><rect fill="#FFFFFF" height="90.5527" style="stroke:#181818;stroke-width:1.0;" width="10" x="509.5" y="620.4297"/><rect fill="#FFFFFF" height="29.3105" style="stroke:#181818;stroke-width:1.0;" width="10" x="509.5" y="770.9141"/><rect fill="#FFFFFF" height="29.3105" style="stroke:#181818;stroke-width:1.0;" width="10" x="509.5" y="964.709"/><rect fill="#FFFFFF" height="29.3105" style="stroke:#181818;stroke-width:1.0;" width="10" x="509.5" y="1158.5039"/><rect fill="#FFFFFF" height="29.3105" style="stroke:#181818;stroke-width:1.0;" width="10" x="509.5" y="1352.2988"/><rect fill="#FFFFFF" height="29.3105" style="stroke:#181818;stroke-width:1.0;" width="10" x="643" y="875.4668"/><rect fill="#FFFFFF" height="29.3105" style="stroke:#181818;stroke-width:1.0;" width="10" x="643" y="1069.2617"/><rect fill="#FFFFFF" height="29.3105" style="stroke:#181818;stroke-width:1.0;" width="10" x="643" y="1263.0566"/><rect fill="#FFFFFF" height="29.3105" style="stroke:#181818;stroke-width:1.0;" width="10" x="643" y="1456.8516"/><rect fill="#FFFFFF" height="44.6211" style="stroke:#181818;stroke-width:1.0;" width="10" x="643" y="1695.2676"/><rect fill="#FFFFFF" height="223.1055" style="stroke:#181818;stroke-width:1.0;" width="10" x="821" y="1546.0938"/><rect fill="#FFFFFF" height="29.3105" style="stroke:#181818;stroke-width:1.0;" width="10" x="988" y="1606.0254"/><path d="M5,133.9766 L5,250.9766 L235,250.9766 L235,143.9766 L225,133.9766 L5,133.9766 " fill="#FEFFDD" style="stroke:#181818;stroke-width:0.5;"/><path d="M225,133.9766 L225,143.9766 L235,143.9766 L225,133.9766 " fill="#FEFFDD" style="stroke:#181818;stroke-width:0.5;"/><text fill="#000000" font-family="sans-serif" font-size="13" lengthAdjust="spacing" textLength="64" x="11" y="151.5449">Nonce: 55</text><text fill="#000000" font-family="sans-serif" font-size="13" lengthAdjust="spacing" textLength="191" x="11" y="166.8555">Gas Price: 51.596941632 Gwei</text><text fill="#000000" font-family="sans-serif" font-size="13" lengthAdjust="spacing" textLength="185" x="11" y="182.166">Max Fee: 54.604639332 Gwei</text><text fill="#000000" font-family="sans-serif" font-size="13" lengthAdjust="spacing" textLength="209" x="11" y="197.4766">Max Priority: 49.766549654 Gwei</text><text fill="#000000" font-family="sans-serif" font-size="13" lengthAdjust="spacing" textLength="119" x="11" y="212.7871">Gas Limit: 160,843</text><text fill="#000000" font-family="sans-serif" font-size="13" lengthAdjust="spacing" textLength="118" x="11" y="228.0977">Gas Used: 151,230</text><text fill="#000000" font-family="sans-serif" font-size="13" lengthAdjust="spacing" textLength="114" x="11" y="243.4082">Tx Fee: 0.008 ETH</text><polygon fill="#181818" points="228.5,288.7715,238.5,292.7715,228.5,296.7715,232.5,292.7715" style="stroke:#181818;stroke-width:1.0;"/><line style="stroke:#181818;stroke-width:1.0;" x1="120" x2="234.5" y1="292.7715" y2="292.7715"/><text fill="#000000" font-family="sans-serif" font-size="13" lengthAdjust="spacing" textLength="77" x="127" y="272.7188">undelegate()</text><text fill="#000000" font-family="sans-serif" font-size="13" lengthAdjust="spacing" textLength="78" x="127" y="288.0293">151,230 gas</text><polygon fill="#181818" points="497.5,364.0137,507.5,368.0137,497.5,372.0137,501.5,368.0137" style="stroke:#181818;stroke-width:1.0;"/><line style="stroke:#181818;stroke-width:1.0;" x1="250.5" x2="503.5" y1="368.0137" y2="368.0137"/><text fill="#000000" font-family="sans-serif" font-size="13" lengthAdjust="spacing" textLength="53" x="257.5" y="317.3398">hasRole(</text><text fill="#000000" font-family="sans-serif" font-size="13" lengthAdjust="spacing" textLength="181" x="265.5" y="332.6504">role: 0xaf290d86..30c3a02c,</text><text fill="#000000" font-family="sans-serif" font-size="13" lengthAdjust="spacing" textLength="150" x="265.5" y="347.9609">account: 0x3C6B..5CB4)</text><text fill="#000000" font-family="sans-serif" font-size="13" lengthAdjust="spacing" textLength="62" x="257.5" y="363.2715">9,758 gas</text><polygon fill="#181818" points="261.5,393.3242,251.5,397.3242,261.5,401.3242,257.5,397.3242" style="stroke:#181818;stroke-width:1.0;"/><line style="stroke:#181818;stroke-width:1.0;stroke-dasharray:2.0,2.0;" x1="255.5" x2="513.5" y1="397.3242" y2="397.3242"/><text fill="#000000" font-family="sans-serif" font-size="13" lengthAdjust="spacing" textLength="25" x="267.5" y="392.582">true</text><polygon fill="#181818" points="497.5,453.2559,507.5,457.2559,497.5,461.2559,501.5,457.2559" style="stroke:#181818;stroke-width:1.0;"/><line style="stroke:#181818;stroke-width:1.0;" x1="250.5" x2="503.5" y1="457.2559" y2="457.2559"/><text fill="#000000" font-family="sans-serif" font-size="13" lengthAdjust="spacing" textLength="78" x="257.5" y="421.8926">getContract(</text><text fill="#000000" font-family="sans-serif" font-size="13" lengthAdjust="spacing" textLength="232" x="265.5" y="437.2031">contractKey: 0xe6f126e6..199de5b5)</text><text fill="#000000" font-family="sans-serif" font-size="13" lengthAdjust="spacing" textLength="62" x="257.5" y="452.5137">3,134 gas</text><polygon fill="#181818" points="261.5,482.5664,251.5,486.5664,261.5,490.5664,257.5,486.5664" style="stroke:#181818;stroke-width:1.0;"/><line style="stroke:#181818;stroke-width:1.0;stroke-dasharray:2.0,2.0;" x1="255.5" x2="513.5" y1="486.5664" y2="486.5664"/><text fill="#000000" font-family="sans-serif" font-size="13" lengthAdjust="spacing" textLength="88" x="267.5" y="481.8242">0xA441..48e7</text><polygon fill="#181818" points="497.5,542.498,507.5,546.498,497.5,550.498,501.5,546.498" style="stroke:#181818;stroke-width:1.0;"/><line style="stroke:#181818;stroke-width:1.0;" x1="250.5" x2="503.5" y1="546.498" y2="546.498"/><text fill="#000000" font-family="sans-serif" font-size="13" lengthAdjust="spacing" textLength="78" x="257.5" y="511.1348">getContract(</text><text fill="#000000" font-family="sans-serif" font-size="13" lengthAdjust="spacing" textLength="232" x="265.5" y="526.4453">contractKey: 0x6bc2c477..ab5a19ec)</text><text fill="#000000" font-family="sans-serif" font-size="13" lengthAdjust="spacing" textLength="62" x="257.5" y="541.7559">3,134 gas</text><polygon fill="#181818" points="261.5,571.8086,251.5,575.8086,261.5,579.8086,257.5,575.8086" style="stroke:#181818;stroke-width:1.0;"/><line style="stroke:#181818;stroke-width:1.0;stroke-dasharray:2.0,2.0;" x1="255.5" x2="513.5" y1="575.8086" y2="575.8086"/><text fill="#000000" font-family="sans-serif" font-size="13" lengthAdjust="spacing" textLength="86" x="267.5" y="571.0664">0xdfB5..D5b6</text><polygon fill="#181818" points="497.5,616.4297,507.5,620.4297,497.5,624.4297,501.5,620.4297" style="stroke:#181818;stroke-width:1.0;"/><line style="stroke:#181818;stroke-width:1.0;" x1="250.5" x2="503.5" y1="620.4297" y2="620.4297"/><text fill="#000000" font-family="sans-serif" font-size="13" lengthAdjust="spacing" textLength="150" x="257.5" y="600.377">getSupportedAssetList()</text><text fill="#000000" font-family="sans-serif" font-size="13" lengthAdjust="spacing" textLength="70" x="257.5" y="615.6875">12,400 gas</text><polygon fill="#181818" points="261.5,706.9824,251.5,710.9824,261.5,714.9824,257.5,710.9824" style="stroke:#181818;stroke-width:1.0;"/><line style="stroke:#181818;stroke-width:1.0;stroke-dasharray:2.0,2.0;" x1="255.5" x2="513.5" y1="710.9824" y2="710.9824"/><text fill="#000000" font-family="sans-serif" font-size="13" lengthAdjust="spacing" textLength="4" x="267.5" y="644.998">[</text><text fill="#000000" font-family="sans-serif" font-size="13" lengthAdjust="spacing" textLength="106" x="275.5" y="660.3086">0: 0x3F1c..5034,</text><text fill="#000000" font-family="sans-serif" font-size="13" lengthAdjust="spacing" textLength="107" x="275.5" y="675.6191">1: 0x7322..64F1,</text><text fill="#000000" font-family="sans-serif" font-size="13" lengthAdjust="spacing" textLength="108" x="275.5" y="690.9297">2: 0x9437..3848,</text><text fill="#000000" font-family="sans-serif" font-size="13" lengthAdjust="spacing" textLength="106" x="275.5" y="706.2402">3: 0xe3C0..67FF]</text><polygon fill="#181818" points="497.5,766.9141,507.5,770.9141,497.5,774.9141,501.5,770.9141" style="stroke:#181818;stroke-width:1.0;"/><line style="stroke:#181818;stroke-width:1.0;" x1="250.5" x2="503.5" y1="770.9141" y2="770.9141"/><text fill="#000000" font-family="sans-serif" font-size="13" lengthAdjust="spacing" textLength="88" x="257.5" y="735.5508">assetStrategy(</text><text fill="#000000" font-family="sans-serif" font-size="13" lengthAdjust="spacing" textLength="134" x="265.5" y="750.8613">token: 0x3F1c..5034)</text><text fill="#000000" font-family="sans-serif" font-size="13" lengthAdjust="spacing" textLength="62" x="257.5" y="766.1719">3,176 gas</text><polygon fill="#181818" points="261.5,796.2246,251.5,800.2246,261.5,804.2246,257.5,800.2246" style="stroke:#181818;stroke-width:1.0;"/><line style="stroke:#181818;stroke-width:1.0;stroke-dasharray:2.0,2.0;" x1="255.5" x2="513.5" y1="800.2246" y2="800.2246"/><text fill="#000000" font-family="sans-serif" font-size="13" lengthAdjust="spacing" textLength="149" x="267.5" y="795.4824">strategy: 0x7D70..63d3</text><polygon fill="#181818" points="631,871.4668,641,875.4668,631,879.4668,635,875.4668" style="stroke:#181818;stroke-width:1.0;"/><line style="stroke:#181818;stroke-width:1.0;" x1="250.5" x2="637" y1="875.4668" y2="875.4668"/><text fill="#000000" font-family="sans-serif" font-size="13" lengthAdjust="spacing" textLength="135" x="257.5" y="824.793">stakerStrategyShares(</text><text fill="#000000" font-family="sans-serif" font-size="13" lengthAdjust="spacing" textLength="94" x="265.5" y="840.1035">0x94B5..25CD,</text><text fill="#000000" font-family="sans-serif" font-size="13" lengthAdjust="spacing" textLength="94" x="265.5" y="855.4141">0x7D70..63d3)</text><text fill="#000000" font-family="sans-serif" font-size="13" lengthAdjust="spacing" textLength="70" x="257.5" y="870.7246">10,109 gas</text><polygon fill="#181818" points="261.5,900.7773,251.5,904.7773,261.5,908.7773,257.5,904.7773" style="stroke:#181818;stroke-width:1.0;"/><line style="stroke:#181818;stroke-width:1.0;stroke-dasharray:2.0,2.0;" x1="255.5" x2="647" y1="904.7773" y2="904.7773"/><text fill="#000000" font-family="sans-serif" font-size="13" lengthAdjust="spacing" textLength="8" x="267.5" y="900.0352">0</text><polygon fill="#181818" points="497.5,960.709,507.5,964.709,497.5,968.709,501.5,964.709" style="stroke:#181818;stroke-width:1.0;"/><line style="stroke:#181818;stroke-width:1.0;" x1="250.5" x2="503.5" y1="964.709" y2="964.709"/><text fill="#000000" font-family="sans-serif" font-size="13" lengthAdjust="spacing" textLength="88" x="257.5" y="929.3457">assetStrategy(</text><text fill="#000000" font-family="sans-serif" font-size="13" lengthAdjust="spacing" textLength="135" x="265.5" y="944.6563">token: 0x7322..64F1)</text><text fill="#000000" font-family="sans-serif" font-size="13" lengthAdjust="spacing" textLength="62" x="257.5" y="959.9668">3,176 gas</text><polygon fill="#181818" points="261.5,990.0195,251.5,994.0195,261.5,998.0195,257.5,994.0195" style="stroke:#181818;stroke-width:1.0;"/><line style="stroke:#181818;stroke-width:1.0;stroke-dasharray:2.0,2.0;" x1="255.5" x2="513.5" y1="994.0195" y2="994.0195"/><text fill="#000000" font-family="sans-serif" font-size="13" lengthAdjust="spacing" textLength="143" x="267.5" y="989.2773">strategy: 0x3A8f..c4E0</text><polygon fill="#181818" points="631,1065.2617,641,1069.2617,631,1073.2617,635,1069.2617" style="stroke:#181818;stroke-width:1.0;"/><line style="stroke:#181818;stroke-width:1.0;" x1="250.5" x2="637" y1="1069.2617" y2="1069.2617"/><text fill="#000000" font-family="sans-serif" font-size="13" lengthAdjust="spacing" textLength="135" x="257.5" y="1018.5879">stakerStrategyShares(</text><text fill="#000000" font-family="sans-serif" font-size="13" lengthAdjust="spacing" textLength="94" x="265.5" y="1033.8984">0x94B5..25CD,</text><text fill="#000000" font-family="sans-serif" font-size="13" lengthAdjust="spacing" textLength="88" x="265.5" y="1049.209">0x3A8f..c4E0)</text><text fill="#000000" font-family="sans-serif" font-size="13" lengthAdjust="spacing" textLength="62" x="257.5" y="1064.5195">3,609 gas</text><polygon fill="#181818" points="261.5,1094.5723,251.5,1098.5723,261.5,1102.5723,257.5,1098.5723" style="stroke:#181818;stroke-width:1.0;"/><line style="stroke:#181818;stroke-width:1.0;stroke-dasharray:2.0,2.0;" x1="255.5" x2="647" y1="1098.5723" y2="1098.5723"/><text fill="#000000" font-family="sans-serif" font-size="13" lengthAdjust="spacing" textLength="8" x="267.5" y="1093.8301">0</text><polygon fill="#181818" points="497.5,1154.5039,507.5,1158.5039,497.5,1162.5039,501.5,1158.5039" style="stroke:#181818;stroke-width:1.0;"/><line style="stroke:#181818;stroke-width:1.0;" x1="250.5" x2="503.5" y1="1158.5039" y2="1158.5039"/><text fill="#000000" font-family="sans-serif" font-size="13" lengthAdjust="spacing" textLength="88" x="257.5" y="1123.1406">assetStrategy(</text><text fill="#000000" font-family="sans-serif" font-size="13" lengthAdjust="spacing" textLength="136" x="265.5" y="1138.4512">token: 0x9437..3848)</text><text fill="#000000" font-family="sans-serif" font-size="13" lengthAdjust="spacing" textLength="62" x="257.5" y="1153.7617">3,176 gas</text><polygon fill="#181818" points="261.5,1183.8145,251.5,1187.8145,261.5,1191.8145,257.5,1187.8145" style="stroke:#181818;stroke-width:1.0;"/><line style="stroke:#181818;stroke-width:1.0;stroke-dasharray:2.0,2.0;" x1="255.5" x2="513.5" y1="1187.8145" y2="1187.8145"/><text fill="#000000" font-family="sans-serif" font-size="13" lengthAdjust="spacing" textLength="147" x="267.5" y="1183.0723">strategy: 0x0000..0000</text><polygon fill="#181818" points="631,1259.0566,641,1263.0566,631,1267.0566,635,1263.0566" style="stroke:#181818;stroke-width:1.0;"/><line style="stroke:#181818;stroke-width:1.0;" x1="250.5" x2="637" y1="1263.0566" y2="1263.0566"/><text fill="#000000" font-family="sans-serif" font-size="13" lengthAdjust="spacing" textLength="135" x="257.5" y="1212.3828">stakerStrategyShares(</text><text fill="#000000" font-family="sans-serif" font-size="13" lengthAdjust="spacing" textLength="94" x="265.5" y="1227.6934">0x94B5..25CD,</text><text fill="#000000" font-family="sans-serif" font-size="13" lengthAdjust="spacing" textLength="92" x="265.5" y="1243.0039">0x0000..0000)</text><text fill="#000000" font-family="sans-serif" font-size="13" lengthAdjust="spacing" textLength="62" x="257.5" y="1258.3145">3,609 gas</text><polygon fill="#181818" points="261.5,1288.3672,251.5,1292.3672,261.5,1296.3672,257.5,1292.3672" style="stroke:#181818;stroke-width:1.0;"/><line style="stroke:#181818;stroke-width:1.0;stroke-dasharray:2.0,2.0;" x1="255.5" x2="647" y1="1292.3672" y2="1292.3672"/><text fill="#000000" font-family="sans-serif" font-size="13" lengthAdjust="spacing" textLength="8" x="267.5" y="1287.625">0</text><polygon fill="#181818" points="497.5,1348.2988,507.5,1352.2988,497.5,1356.2988,501.5,1352.2988" style="stroke:#181818;stroke-width:1.0;"/><line style="stroke:#181818;stroke-width:1.0;" x1="250.5" x2="503.5" y1="1352.2988" y2="1352.2988"/><text fill="#000000" font-family="sans-serif" font-size="13" lengthAdjust="spacing" textLength="88" x="257.5" y="1316.9355">assetStrategy(</text><text fill="#000000" font-family="sans-serif" font-size="13" lengthAdjust="spacing" textLength="134" x="265.5" y="1332.2461">token: 0xe3C0..67FF)</text><text fill="#000000" font-family="sans-serif" font-size="13" lengthAdjust="spacing" textLength="62" x="257.5" y="1347.5566">3,176 gas</text><polygon fill="#181818" points="261.5,1377.6094,251.5,1381.6094,261.5,1385.6094,257.5,1381.6094" style="stroke:#181818;stroke-width:1.0;"/><line style="stroke:#181818;stroke-width:1.0;stroke-dasharray:2.0,2.0;" x1="255.5" x2="513.5" y1="1381.6094" y2="1381.6094"/><text fill="#000000" font-family="sans-serif" font-size="13" lengthAdjust="spacing" textLength="141" x="267.5" y="1376.8672">strategy: 0xaccc..F8e5</text><polygon fill="#181818" points="631,1452.8516,641,1456.8516,631,1460.8516,635,1456.8516" style="stroke:#181818;stroke-width:1.0;"/><line style="stroke:#181818;stroke-width:1.0;" x1="250.5" x2="637" y1="1456.8516" y2="1456.8516"/><text fill="#000000" font-family="sans-serif" font-size="13" lengthAdjust="spacing" textLength="135" x="257.5" y="1406.1777">stakerStrategyShares(</text><text fill="#000000" font-family="sans-serif" font-size="13" lengthAdjust="spacing" textLength="94" x="265.5" y="1421.4883">0x94B5..25CD,</text><text fill="#000000" font-family="sans-serif" font-size="13" lengthAdjust="spacing" textLength="86" x="265.5" y="1436.7988">0xaccc..F8e5)</text><text fill="#000000" font-family="sans-serif" font-size="13" lengthAdjust="spacing" textLength="62" x="257.5" y="1452.1094">3,609 gas</text><polygon fill="#181818" points="261.5,1482.1621,251.5,1486.1621,261.5,1490.1621,257.5,1486.1621" style="stroke:#181818;stroke-width:1.0;"/><line style="stroke:#181818;stroke-width:1.0;stroke-dasharray:2.0,2.0;" x1="255.5" x2="647" y1="1486.1621" y2="1486.1621"/><text fill="#000000" font-family="sans-serif" font-size="13" lengthAdjust="spacing" textLength="8" x="267.5" y="1481.4199">0</text><polygon fill="#181818" points="809,1542.0938,819,1546.0938,809,1550.0938,813,1546.0938" style="stroke:#181818;stroke-width:1.0;"/><line style="stroke:#181818;stroke-width:1.0;" x1="250.5" x2="815" y1="1546.0938" y2="1546.0938"/><text fill="#000000" font-family="sans-serif" font-size="13" lengthAdjust="spacing" textLength="73" x="257.5" y="1510.7305">undelegate(</text><text fill="#000000" font-family="sans-serif" font-size="13" lengthAdjust="spacing" textLength="141" x="265.5" y="1526.041">staker: 0x94B5..25CD)</text><text fill="#000000" font-family="sans-serif" font-size="13" lengthAdjust="spacing" textLength="70" x="257.5" y="1541.3516">38,251 gas</text><polygon fill="#181818" points="976,1602.0254,986,1606.0254,976,1610.0254,980,1606.0254" style="stroke:#181818;stroke-width:1.0;"/><line style="stroke:#181818;stroke-width:1.0;" x1="831" x2="982" y1="1606.0254" y2="1606.0254"/><text fill="#000000" font-family="sans-serif" font-size="13" lengthAdjust="spacing" textLength="109" x="838" y="1570.6621">podOwnerShares(</text><text fill="#000000" font-family="sans-serif" font-size="13" lengthAdjust="spacing" textLength="94" x="846" y="1585.9727">0x94B5..25CD)</text><text fill="#000000" font-family="sans-serif" font-size="13" lengthAdjust="spacing" textLength="62" x="838" y="1601.2832">9,933 gas</text><polygon fill="#181818" points="842,1631.3359,832,1635.3359,842,1639.3359,838,1635.3359" style="stroke:#181818;stroke-width:1.0;"/><line style="stroke:#181818;stroke-width:1.0;stroke-dasharray:2.0,2.0;" x1="836" x2="992" y1="1635.3359" y2="1635.3359"/><text fill="#000000" font-family="sans-serif" font-size="13" lengthAdjust="spacing" textLength="8" x="848" y="1630.5938">0</text><polygon fill="#181818" points="664,1691.2676,654,1695.2676,664,1699.2676,660,1695.2676" style="stroke:#181818;stroke-width:1.0;"/><line style="stroke:#181818;stroke-width:1.0;" x1="658" x2="820" y1="1695.2676" y2="1695.2676"/><text fill="#000000" font-family="sans-serif" font-size="13" lengthAdjust="spacing" textLength="80" x="670" y="1659.9043">getDeposits(</text><text fill="#000000" font-family="sans-serif" font-size="13" lengthAdjust="spacing" textLength="141" x="678" y="1675.2148">staker: 0x94B5..25CD)</text><text fill="#000000" font-family="sans-serif" font-size="13" lengthAdjust="spacing" textLength="62" x="670" y="1690.5254">4,350 gas</text><polygon fill="#181818" points="809,1735.8887,819,1739.8887,809,1743.8887,813,1739.8887" style="stroke:#181818;stroke-width:1.0;"/><line style="stroke:#181818;stroke-width:1.0;stroke-dasharray:2.0,2.0;" x1="648" x2="815" y1="1739.8887" y2="1739.8887"/><text fill="#000000" font-family="sans-serif" font-size="13" lengthAdjust="spacing" textLength="8" x="655" y="1719.8359">],</text><text fill="#000000" font-family="sans-serif" font-size="13" lengthAdjust="spacing" textLength="4" x="655" y="1735.1465">]</text><polygon fill="#181818" points="261.5,1765.1992,251.5,1769.1992,261.5,1773.1992,257.5,1769.1992" style="stroke:#181818;stroke-width:1.0;"/><line style="stroke:#181818;stroke-width:1.0;stroke-dasharray:2.0,2.0;" x1="255.5" x2="825" y1="1769.1992" y2="1769.1992"/><text fill="#000000" font-family="sans-serif" font-size="13" lengthAdjust="spacing" textLength="116" x="267.5" y="1764.457">withdrawalRoots: ]</text><path d="M831,1782.1992 L831,1822.1992 L922,1822.1992 L922,1792.1992 L912,1782.1992 L831,1782.1992 " fill="#FEFFDD" style="stroke:#181818;stroke-width:0.5;"/><path d="M912,1782.1992 L912,1792.1992 L922,1792.1992 L912,1782.1992 " fill="#FEFFDD" style="stroke:#181818;stroke-width:0.5;"/><text fill="#000000" font-family="sans-serif" font-size="13" lengthAdjust="spacing" textLength="4" x="837" y="1799.7676">&#160;</text><text fill="#000000" font-family="sans-serif" font-size="13" lengthAdjust="spacing" textLength="70" x="837" y="1815.0781">23,968 gas</text><polygon fill="#181818" points="131,1829.8203,121,1833.8203,131,1837.8203,127,1833.8203" style="stroke:#181818;stroke-width:1.0;"/><line style="stroke:#181818;stroke-width:1.0;stroke-dasharray:2.0,2.0;" x1="125" x2="244.5" y1="1833.8203" y2="1833.8203"/><path d="M250,1846.8203 L250,1886.8203 L341,1886.8203 L341,1856.8203 L331,1846.8203 L250,1846.8203 " fill="#FEFFDD" style="stroke:#181818;stroke-width:0.5;"/><path d="M331,1846.8203 L331,1856.8203 L341,1856.8203 L331,1846.8203 " fill="#FEFFDD" style="stroke:#181818;stroke-width:0.5;"/><text fill="#000000" font-family="sans-serif" font-size="13" lengthAdjust="spacing" textLength="4" x="256" y="1864.3887">&#160;</text><text fill="#000000" font-family="sans-serif" font-size="13" lengthAdjust="spacing" textLength="70" x="256" y="1879.6992">50,913 gas</text><path d="M735,1897.4414 L735,1952.4414 L916,1952.4414 L916,1907.4414 L906,1897.4414 L735,1897.4414 " fill="#00FFFF" style="stroke:#181818;stroke-width:0.5;"/><path d="M906,1897.4414 L906,1907.4414 L916,1907.4414 L906,1897.4414 " fill="#00FFFF" style="stroke:#181818;stroke-width:0.5;"/><text fill="#000000" font-family="sans-serif" font-size="13" lengthAdjust="spacing" textLength="121" x="741" y="1915.0098">StakerUndelegated:</text><text fill="#000000" font-family="sans-serif" font-size="13" lengthAdjust="spacing" textLength="141" x="749" y="1930.3203">staker: 0x94B5..25CD,</text><text fill="#000000" font-family="sans-serif" font-size="13" lengthAdjust="spacing" textLength="152" x="749" y="1945.6309">operator: 0x37d5..C3D8</text><!--SRC=[jLPDR-Cs4BthLn3RonPG2NvB51O14ZjEWIRRHPmzDJbG56KBIKLNeZVEloz9MrQyJOncaJLWmpFal3TlXkB8DUx10BGHbEMY5foWZ15JAesKeb8oXgIaMOvOhL2MrLmIKKjESyLpHgYikD8vBLcP95gjN6DRiBGFfhz_Ia7vOFKzm3JFE6SfcA_R510CJbST88WmW731SO4GkBYwIPHsjWCVq8PgKKB8TSa-0DM3O0O392lLkKOtAzMwi4-oaaD8kAxYlc060tpwzDbMPceUp49vo9EJxmCrBXc4kZPP30ncC7pWvVNDnBPri_XlK5K7jegN8WO5CnW-QEuwvSpYwKgrQc5Uu5ECOGXPlkCBPZ1yw2v9NxHNWwalEeI6OhwjXZU3uOFFcuLflzXg34rQwmomtqothrhosRRQ583pvCA7V-cQQ678fP0C2qh0nQDfaYkr0JCJbXWKY0agwVCb7sUxnZqLW4cO2S6PzD_jUi2zRFvkN06mG6dEQ7HzxKtbFHodXABaPWUF848vEB_vFJ5j1KA-IRBly6yd-ouMODrMs-gOZx_UjZiSi51zE2dDD-_VRqxslVS8GpiBi5JzjJ-A7szR03h_nxDlL4qagd818KMQAaHq6fQLrdRTkh23JiIPFtwJC-PfPPhn_91qm4ywuzPT2rotDgyai33E7oT_FBIBIUYTyOTv2an6r9W8utF1KbQ6bzmpqXHJTfmHRKxt9-h7c4MfYMRXOAcIAooD_h_CLNtc7uEfF_clCy_NgvNjdAbE-zwuowPtiOCaPGWTn_yhv8fY5sPO-ouWoc9_SF1bb1081PlXw2F19ndrAcZEykYZiQvqWlo-R3QxUoL95H8RdjjO86VlJNj8l2r99ewdtEzGOeBJB13JYXxm3dT5uJUhUzCDnFEbwamVwOEGitYRJQRfrZ62XUAX52DvcCa0ks_EsyME5NsxM7gQr_uMPUVe7SIEO34HyHEqZYVbxLgH_q0OVjz1wmZsqxIEJy3RjVghq3y0izpmTz0wWls8rc5I7Wo30BnDeJXW30HvIZW-P1WmaltOzS3352t0obP_FhPUpiiouWZme_0GSmWVituEFbRAtuLJix9zu_fZQREKSdIyBdU-ddU3yTYuPTMfH_LmRQth2t2t7VnTirWwOEjdTRjj2Ksbs8wmNVXtcyU9Uzjob4gy5VliNM8lxXVrprebywZYwxuZLP6yB2trVhioNNWBYpT6LlcL2Ptcu_3_5m00]--></g></svg>