<?xml version="1.0" encoding="us-ascii" standalone="no"?><svg xmlns="http://www.w3.org/2000/svg" xmlns:xlink="http://www.w3.org/1999/xlink" contentStyleType="text/css" height="3185px" preserveAspectRatio="none" style="width:1795px;height:3185px;background:#FFFFFF;" version="1.1" viewBox="0 0 1795 3185" width="1795px" zoomAndPan="magnify"><defs/><g><text fill="#000000" font-family="sans-serif" font-size="14" font-weight="bold" lengthAdjust="spacing" textLength="555" x="618.5" y="28.5352">0x67e302c97bdc73e40bbf6fca3d85affa25a11b9fc201945cdfcd291951c21552</text><text fill="#000000" font-family="sans-serif" font-size="14" lengthAdjust="spacing" textLength="395" x="698.5" y="3174.0293">holesky, block 1370735, Thu, 18 Apr 2024 11:51:36 GMT</text><rect fill="#FFFFFF" height="2303.5391" style="stroke:#181818;stroke-width:1.0;" width="10" x="343" y="445.877"/><rect fill="#FFFFFF" height="29.3105" style="stroke:#181818;stroke-width:1.0;" width="10" x="612" y="521.1191"/><rect fill="#FFFFFF" height="29.3105" style="stroke:#181818;stroke-width:1.0;" width="10" x="612" y="928.709"/><rect fill="#FFFFFF" height="29.3105" style="stroke:#181818;stroke-width:1.0;" width="10" x="612" y="2415.7578"/><rect fill="#FFFFFF" height="29.3105" style="stroke:#181818;stroke-width:1.0;" width="10" x="763.5" y="595.0508"/><rect fill="#FFFFFF" height="518.1426" style="stroke:#181818;stroke-width:1.0;" width="10" x="763.5" y="1413.4043"/><rect fill="#FFFFFF" height="133.8633" style="stroke:#181818;stroke-width:1.0;" width="10" x="1031.5" y="684.293"/><rect fill="#FFFFFF" height="133.8633" style="stroke:#181818;stroke-width:1.0;" width="10" x="1031.5" y="1473.3359"/><rect fill="#FFFFFF" height="133.8633" style="stroke:#181818;stroke-width:1.0;" width="10" x="1031.5" y="1733.0625"/><rect fill="#FFFFFF" height="133.8633" style="stroke:#181818;stroke-width:1.0;" width="10" x="1031.5" y="2171.3418"/><rect fill="#FFFFFF" height="133.8633" style="stroke:#181818;stroke-width:1.0;" width="10" x="1031.5" y="2520.3105"/><rect fill="#FFFFFF" height="29.3105" style="stroke:#181818;stroke-width:1.0;" width="10" x="1294.5" y="759.5352"/><rect fill="#FFFFFF" height="29.3105" style="stroke:#181818;stroke-width:1.0;" width="10" x="1294.5" y="1548.5781"/><rect fill="#FFFFFF" height="29.3105" style="stroke:#181818;stroke-width:1.0;" width="10" x="1294.5" y="1808.3047"/><rect fill="#FFFFFF" height="29.3105" style="stroke:#181818;stroke-width:1.0;" width="10" x="1294.5" y="2246.584"/><rect fill="#FFFFFF" height="29.3105" style="stroke:#181818;stroke-width:1.0;" width="10" x="1294.5" y="2595.5527"/><rect fill="#FFFFFF" height="843.8008" style="stroke:#181818;stroke-width:1.0;" width="10" x="1441.5" y="1216.9883"/><rect fill="#FFFFFF" height="673.3164" style="stroke:#181818;stroke-width:1.0;" width="10" x="1695.5" y="1322.8516"/><line style="stroke:#181818;stroke-width:0.5;stroke-dasharray:5.0,5.0;" x1="107" x2="107" y1="118.9766" y2="3083.0059"/><line style="stroke:#181818;stroke-width:0.5;stroke-dasharray:5.0,5.0;" x1="347.5" x2="347.5" y1="118.9766" y2="3083.0059"/><line style="stroke:#181818;stroke-width:0.5;stroke-dasharray:5.0,5.0;" x1="616.5" x2="616.5" y1="118.9766" y2="3083.0059"/><line style="stroke:#181818;stroke-width:0.5;stroke-dasharray:5.0,5.0;" x1="768.5" x2="768.5" y1="118.9766" y2="3083.0059"/><line style="stroke:#181818;stroke-width:0.5;stroke-dasharray:5.0,5.0;" x1="1036.5" x2="1036.5" y1="118.9766" y2="3083.0059"/><line style="stroke:#181818;stroke-width:0.5;stroke-dasharray:5.0,5.0;" x1="1299.5" x2="1299.5" y1="118.9766" y2="3083.0059"/><line style="stroke:#181818;stroke-width:0.5;stroke-dasharray:5.0,5.0;" x1="1446.5" x2="1446.5" y1="118.9766" y2="3083.0059"/><line style="stroke:#181818;stroke-width:0.5;stroke-dasharray:5.0,5.0;" x1="1700.5" x2="1700.5" y1="118.9766" y2="3083.0059"/><text fill="#000000" font-family="sans-serif" font-size="14" lengthAdjust="spacing" textLength="94" x="57" y="116.0234">0x3c6b..5cb4</text><ellipse cx="107" cy="50.9883" fill="#E2E2F0" rx="8" ry="8" style="stroke:#181818;stroke-width:0.5;"/><path d="M107,58.9883 L107,85.9883 M94,66.9883 L120,66.9883 M107,85.9883 L94,100.9883 M107,85.9883 L120,100.9883 " fill="none" style="stroke:#181818;stroke-width:0.5;"/><text fill="#000000" font-family="sans-serif" font-size="14" lengthAdjust="spacing" textLength="94" x="57" y="3095.541">0x3c6b..5cb4</text><ellipse cx="107" cy="3106.9941" fill="#E2E2F0" rx="8" ry="8" style="stroke:#181818;stroke-width:0.5;"/><path d="M107,3114.9941 L107,3141.9941 M94,3122.9941 L120,3122.9941 M107,3141.9941 L94,3156.9941 M107,3141.9941 L120,3156.9941 " fill="none" style="stroke:#181818;stroke-width:0.5;"/><rect fill="#E2E2F0" height="46.9766" rx="2.5" ry="2.5" style="stroke:#181818;stroke-width:0.5;" width="131" x="282.5" y="71"/><text fill="#000000" font-family="sans-serif" font-size="14" font-style="italic" lengthAdjust="spacing" textLength="117" x="289.5" y="91.5352">&#171;NodeDelegator&#187;</text><text fill="#000000" font-family="sans-serif" font-size="14" lengthAdjust="spacing" textLength="97" x="299.5" y="108.0234">0x326e..42b4</text><rect fill="#E2E2F0" height="46.9766" rx="2.5" ry="2.5" style="stroke:#181818;stroke-width:0.5;" width="131" x="282.5" y="3082.0059"/><text fill="#000000" font-family="sans-serif" font-size="14" font-style="italic" lengthAdjust="spacing" textLength="117" x="289.5" y="3102.541">&#171;NodeDelegator&#187;</text><text fill="#000000" font-family="sans-serif" font-size="14" lengthAdjust="spacing" textLength="97" x="299.5" y="3119.0293">0x326e..42b4</text><rect fill="#E2E2F0" height="46.9766" rx="2.5" ry="2.5" style="stroke:#181818;stroke-width:0.5;" width="103" x="565.5" y="71"/><text fill="#000000" font-family="sans-serif" font-size="14" font-style="italic" lengthAdjust="spacing" textLength="85" x="574.5" y="91.5352">&#171;LRTConfig&#187;</text><text fill="#000000" font-family="sans-serif" font-size="14" lengthAdjust="spacing" textLength="89" x="572.5" y="108.0234">0xc1b4..cfe7</text><rect fill="#E2E2F0" height="46.9766" rx="2.5" ry="2.5" style="stroke:#181818;stroke-width:0.5;" width="103" x="565.5" y="3082.0059"/><text fill="#000000" font-family="sans-serif" font-size="14" font-style="italic" lengthAdjust="spacing" textLength="85" x="574.5" y="3102.541">&#171;LRTConfig&#187;</text><text fill="#000000" font-family="sans-serif" font-size="14" lengthAdjust="spacing" textLength="89" x="572.5" y="3119.0293">0xc1b4..cfe7</text><rect fill="#E2E2F0" height="46.9766" rx="2.5" ry="2.5" style="stroke:#181818;stroke-width:0.5;" width="180" x="678.5" y="71"/><text fill="#000000" font-family="sans-serif" font-size="14" font-style="italic" lengthAdjust="spacing" textLength="166" x="685.5" y="91.5352">&#171;StrategyBaseTVLLimits&#187;</text><text fill="#000000" font-family="sans-serif" font-size="14" lengthAdjust="spacing" textLength="98" x="719.5" y="108.0234">0x7d70..63d3</text><rect fill="#E2E2F0" height="46.9766" rx="2.5" ry="2.5" style="stroke:#181818;stroke-width:0.5;" width="180" x="678.5" y="3082.0059"/><text fill="#000000" font-family="sans-serif" font-size="14" font-style="italic" lengthAdjust="spacing" textLength="166" x="685.5" y="3102.541">&#171;StrategyBaseTVLLimits&#187;</text><text fill="#000000" font-family="sans-serif" font-size="14" lengthAdjust="spacing" textLength="98" x="719.5" y="3119.0293">0x7d70..63d3</text><rect fill="#E2E2F0" height="46.9766" rx="2.5" ry="2.5" style="stroke:#181818;stroke-width:0.5;" width="106" x="983.5" y="71"/><text fill="#000000" font-family="sans-serif" font-size="14" font-style="italic" lengthAdjust="spacing" textLength="43" x="1015" y="91.5352">&#171;Lido&#187;</text><text fill="#000000" font-family="sans-serif" font-size="14" lengthAdjust="spacing" textLength="92" x="990.5" y="108.0234">0x3f1c..5034</text><rect fill="#E2E2F0" height="46.9766" rx="2.5" ry="2.5" style="stroke:#181818;stroke-width:0.5;" width="106" x="983.5" y="3082.0059"/><text fill="#000000" font-family="sans-serif" font-size="14" font-style="italic" lengthAdjust="spacing" textLength="43" x="1015" y="3102.541">&#171;Lido&#187;</text><text fill="#000000" font-family="sans-serif" font-size="14" lengthAdjust="spacing" textLength="92" x="990.5" y="3119.0293">0x3f1c..5034</text><rect fill="#E2E2F0" height="46.9766" rx="2.5" ry="2.5" style="stroke:#181818;stroke-width:0.5;" width="112" x="1243.5" y="71"/><text fill="#000000" font-family="sans-serif" font-size="14" font-style="italic" lengthAdjust="spacing" textLength="58" x="1270.5" y="91.5352">&#171;Kernel&#187;</text><text fill="#000000" font-family="sans-serif" font-size="14" lengthAdjust="spacing" textLength="98" x="1250.5" y="108.0234">0x3b03..1644</text><rect fill="#E2E2F0" height="46.9766" rx="2.5" ry="2.5" style="stroke:#181818;stroke-width:0.5;" width="112" x="1243.5" y="3082.0059"/><text fill="#000000" font-family="sans-serif" font-size="14" font-style="italic" lengthAdjust="spacing" textLength="58" x="1270.5" y="3102.541">&#171;Kernel&#187;</text><text fill="#000000" font-family="sans-serif" font-size="14" lengthAdjust="spacing" textLength="98" x="1250.5" y="3119.0293">0x3b03..1644</text><rect fill="#E2E2F0" height="46.9766" rx="2.5" ry="2.5" style="stroke:#181818;stroke-width:0.5;" width="162" x="1365.5" y="71"/><text fill="#000000" font-family="sans-serif" font-size="14" font-style="italic" lengthAdjust="spacing" textLength="148" x="1372.5" y="91.5352">&#171;DelegationManager&#187;</text><text fill="#000000" font-family="sans-serif" font-size="14" lengthAdjust="spacing" textLength="96" x="1398.5" y="108.0234">0xa441..48e7</text><rect fill="#E2E2F0" height="46.9766" rx="2.5" ry="2.5" style="stroke:#181818;stroke-width:0.5;" width="162" x="1365.5" y="3082.0059"/><text fill="#000000" font-family="sans-serif" font-size="14" font-style="italic" lengthAdjust="spacing" textLength="148" x="1372.5" y="3102.541">&#171;DelegationManager&#187;</text><text fill="#000000" font-family="sans-serif" font-size="14" lengthAdjust="spacing" textLength="96" x="1398.5" y="3119.0293">0xa441..48e7</text><rect fill="#E2E2F0" height="46.9766" rx="2.5" ry="2.5" style="stroke:#181818;stroke-width:0.5;" width="144" x="1628.5" y="71"/><text fill="#000000" font-family="sans-serif" font-size="14" font-style="italic" lengthAdjust="spacing" textLength="130" x="1635.5" y="91.5352">&#171;StrategyManager&#187;</text><text fill="#000000" font-family="sans-serif" font-size="14" lengthAdjust="spacing" textLength="94" x="1653.5" y="108.0234">0xdfb5..d5b6</text><rect fill="#E2E2F0" height="46.9766" rx="2.5" ry="2.5" style="stroke:#181818;stroke-width:0.5;" width="144" x="1628.5" y="3082.0059"/><text fill="#000000" font-family="sans-serif" font-size="14" font-style="italic" lengthAdjust="spacing" textLength="130" x="1635.5" y="3102.541">&#171;StrategyManager&#187;</text><text fill="#000000" font-family="sans-serif" font-size="14" lengthAdjust="spacing" textLength="94" x="1653.5" y="3119.0293">0xdfb5..d5b6</text><rect fill="#FFFFFF" height="2303.5391" style="stroke:#181818;stroke-width:1.0;" width="10" x="343" y="445.877"/><rect fill="#FFFFFF" height="29.3105" style="stroke:#181818;stroke-width:1.0;" width="10" x="612" y="521.1191"/><rect fill="#FFFFFF" height="29.3105" style="stroke:#181818;stroke-width:1.0;" width="10" x="612" y="928.709"/><rect fill="#FFFFFF" height="29.3105" style="stroke:#181818;stroke-width:1.0;" width="10" x="612" y="2415.7578"/><rect fill="#FFFFFF" height="29.3105" style="stroke:#181818;stroke-width:1.0;" width="10" x="763.5" y="595.0508"/><rect fill="#FFFFFF" height="518.1426" style="stroke:#181818;stroke-width:1.0;" width="10" x="763.5" y="1413.4043"/><rect fill="#FFFFFF" height="133.8633" style="stroke:#181818;stroke-width:1.0;" width="10" x="1031.5" y="684.293"/><rect fill="#FFFFFF" height="133.8633" style="stroke:#181818;stroke-width:1.0;" width="10" x="1031.5" y="1473.3359"/><rect fill="#FFFFFF" height="133.8633" style="stroke:#181818;stroke-width:1.0;" width="10" x="1031.5" y="1733.0625"/><rect fill="#FFFFFF" height="133.8633" style="stroke:#181818;stroke-width:1.0;" width="10" x="1031.5" y="2171.3418"/><rect fill="#FFFFFF" height="133.8633" style="stroke:#181818;stroke-width:1.0;" width="10" x="1031.5" y="2520.3105"/><rect fill="#FFFFFF" height="29.3105" style="stroke:#181818;stroke-width:1.0;" width="10" x="1294.5" y="759.5352"/><rect fill="#FFFFFF" height="29.3105" style="stroke:#181818;stroke-width:1.0;" width="10" x="1294.5" y="1548.5781"/><rect fill="#FFFFFF" height="29.3105" style="stroke:#181818;stroke-width:1.0;" width="10" x="1294.5" y="1808.3047"/><rect fill="#FFFFFF" height="29.3105" style="stroke:#181818;stroke-width:1.0;" width="10" x="1294.5" y="2246.584"/><rect fill="#FFFFFF" height="29.3105" style="stroke:#181818;stroke-width:1.0;" width="10" x="1294.5" y="2595.5527"/><rect fill="#FFFFFF" height="843.8008" style="stroke:#181818;stroke-width:1.0;" width="10" x="1441.5" y="1216.9883"/><rect fill="#FFFFFF" height="673.3164" style="stroke:#181818;stroke-width:1.0;" width="10" x="1695.5" y="1322.8516"/><path d="M5,133.9766 L5,250.9766 L209,250.9766 L209,143.9766 L199,133.9766 L5,133.9766 " fill="#FEFFDD" style="stroke:#181818;stroke-width:0.5;"/><path d="M199,133.9766 L199,143.9766 L209,143.9766 L199,133.9766 " fill="#FEFFDD" style="stroke:#181818;stroke-width:0.5;"/><text fill="#000000" font-family="sans-serif" font-size="13" lengthAdjust="spacing" textLength="64" x="11" y="151.5449">Nonce: 34</text><text fill="#000000" font-family="sans-serif" font-size="13" lengthAdjust="spacing" textLength="183" x="11" y="166.8555">Gas Price: 3.776392369 Gwei</text><text fill="#000000" font-family="sans-serif" font-size="13" lengthAdjust="spacing" textLength="177" x="11" y="182.166">Max Fee: 9.007134516 Gwei</text><text fill="#000000" font-family="sans-serif" font-size="13" lengthAdjust="spacing" textLength="145" x="11" y="197.4766">Max Priority: 1.75 Gwei</text><text fill="#000000" font-family="sans-serif" font-size="13" lengthAdjust="spacing" textLength="119" x="11" y="212.7871">Gas Limit: 240,851</text><text fill="#000000" font-family="sans-serif" font-size="13" lengthAdjust="spacing" textLength="118" x="11" y="228.0977">Gas Used: 215,204</text><text fill="#000000" font-family="sans-serif" font-size="13" lengthAdjust="spacing" textLength="114" x="11" y="243.4082">Tx Fee: 0.001 ETH</text><polygon fill="#181818" points="331,441.877,341,445.877,331,449.877,335,445.877" style="stroke:#181818;stroke-width:1.0;"/><line style="stroke:#181818;stroke-width:1.0;" x1="107" x2="337" y1="445.877" y2="445.877"/><text fill="#000000" font-family="sans-serif" font-size="13" lengthAdjust="spacing" textLength="155" x="114" y="272.7188">claimInternalWithdrawal(</text><text fill="#000000" font-family="sans-serif" font-size="13" lengthAdjust="spacing" textLength="80" x="122" y="288.0293">withdrawal: [</text><text fill="#000000" font-family="sans-serif" font-size="13" lengthAdjust="spacing" textLength="137" x="130" y="303.3398">staker: 0x326E..42B4,</text><text fill="#000000" font-family="sans-serif" font-size="13" lengthAdjust="spacing" textLength="177" x="130" y="318.6504">delegatedTo: 0x0000..0000,</text><text fill="#000000" font-family="sans-serif" font-size="13" lengthAdjust="spacing" textLength="167" x="130" y="333.9609">withdrawer: 0x326E..42B4,</text><text fill="#000000" font-family="sans-serif" font-size="13" lengthAdjust="spacing" textLength="58" x="130" y="349.2715">nonce: 3,</text><text fill="#000000" font-family="sans-serif" font-size="13" lengthAdjust="spacing" textLength="139" x="130" y="364.582">startBlock: 1,370,721,</text><text fill="#000000" font-family="sans-serif" font-size="13" lengthAdjust="spacing" textLength="74" x="130" y="379.8926">strategies: [</text><text fill="#000000" font-family="sans-serif" font-size="13" lengthAdjust="spacing" textLength="114" x="138" y="395.2031">0: 0x7D70..63d3],</text><text fill="#000000" font-family="sans-serif" font-size="13" lengthAdjust="spacing" textLength="53" x="130" y="410.5137">shares: [</text><text fill="#000000" font-family="sans-serif" font-size="13" lengthAdjust="spacing" textLength="192" x="138" y="425.8242">0: 100,000,000,000,000,000]])</text><text fill="#000000" font-family="sans-serif" font-size="13" lengthAdjust="spacing" textLength="78" x="114" y="441.1348">215,204 gas</text><polygon fill="#181818" points="600,517.1191,610,521.1191,600,525.1191,604,521.1191" style="stroke:#181818;stroke-width:1.0;"/><line style="stroke:#181818;stroke-width:1.0;" x1="353" x2="606" y1="521.1191" y2="521.1191"/><text fill="#000000" font-family="sans-serif" font-size="13" lengthAdjust="spacing" textLength="53" x="360" y="470.4453">hasRole(</text><text fill="#000000" font-family="sans-serif" font-size="13" lengthAdjust="spacing" textLength="184" x="368" y="485.7559">role: 0x97667070..4fa9b929,</text><text fill="#000000" font-family="sans-serif" font-size="13" lengthAdjust="spacing" textLength="150" x="368" y="501.0664">account: 0x3C6B..5CB4)</text><text fill="#000000" font-family="sans-serif" font-size="13" lengthAdjust="spacing" textLength="62" x="360" y="516.377">9,758 gas</text><polygon fill="#181818" points="364,546.4297,354,550.4297,364,554.4297,360,550.4297" style="stroke:#181818;stroke-width:1.0;"/><line style="stroke:#181818;stroke-width:1.0;stroke-dasharray:2.0,2.0;" x1="358" x2="616" y1="550.4297" y2="550.4297"/><text fill="#000000" font-family="sans-serif" font-size="13" lengthAdjust="spacing" textLength="25" x="370" y="545.6875">true</text><polygon fill="#181818" points="751.5,591.0508,761.5,595.0508,751.5,599.0508,755.5,595.0508" style="stroke:#181818;stroke-width:1.0;"/><line style="stroke:#181818;stroke-width:1.0;" x1="353" x2="757.5" y1="595.0508" y2="595.0508"/><text fill="#000000" font-family="sans-serif" font-size="13" lengthAdjust="spacing" textLength="114" x="360" y="574.998">underlyingToken()</text><text fill="#000000" font-family="sans-serif" font-size="13" lengthAdjust="spacing" textLength="62" x="360" y="590.3086">9,754 gas</text><polygon fill="#181818" points="364,620.3613,354,624.3613,364,628.3613,360,624.3613" style="stroke:#181818;stroke-width:1.0;"/><line style="stroke:#181818;stroke-width:1.0;stroke-dasharray:2.0,2.0;" x1="358" x2="767.5" y1="624.3613" y2="624.3613"/><text fill="#000000" font-family="sans-serif" font-size="13" lengthAdjust="spacing" textLength="86" x="370" y="619.6191">0x3F1c..5034</text><polygon fill="#181818" points="1019.5,680.293,1029.5,684.293,1019.5,688.293,1023.5,684.293" style="stroke:#181818;stroke-width:1.0;"/><line style="stroke:#181818;stroke-width:1.0;" x1="353" x2="1025.5" y1="684.293" y2="684.293"/><text fill="#000000" font-family="sans-serif" font-size="13" lengthAdjust="spacing" textLength="67" x="360" y="648.9297">balanceOf(</text><text fill="#000000" font-family="sans-serif" font-size="13" lengthAdjust="spacing" textLength="155" x="368" y="664.2402">_account: 0x326E..42B4)</text><text fill="#000000" font-family="sans-serif" font-size="13" lengthAdjust="spacing" textLength="70" x="360" y="679.5508">34,100 gas</text><polygon fill="#181818" points="1282.5,755.5352,1292.5,759.5352,1282.5,763.5352,1286.5,759.5352" style="stroke:#181818;stroke-width:1.0;"/><line style="stroke:#181818;stroke-width:1.0;" x1="1041.5" x2="1288.5" y1="759.5352" y2="759.5352"/><text fill="#000000" font-family="sans-serif" font-size="13" lengthAdjust="spacing" textLength="49" x="1048.5" y="708.8613">getApp(</text><text fill="#000000" font-family="sans-serif" font-size="13" lengthAdjust="spacing" textLength="226" x="1056.5" y="724.1719">_namespace: 0xf1f3eb40..6f35ac0f,</text><text fill="#000000" font-family="sans-serif" font-size="13" lengthAdjust="spacing" textLength="197" x="1056.5" y="739.4824">_appId: 0x3ca7c3e3..68cef320)</text><text fill="#000000" font-family="sans-serif" font-size="13" lengthAdjust="spacing" textLength="62" x="1048.5" y="754.793">8,397 gas</text><polygon fill="#181818" points="1052.5,784.8457,1042.5,788.8457,1052.5,792.8457,1048.5,788.8457" style="stroke:#181818;stroke-width:1.0;"/><line style="stroke:#181818;stroke-width:1.0;stroke-dasharray:2.0,2.0;" x1="1046.5" x2="1298.5" y1="788.8457" y2="788.8457"/><text fill="#000000" font-family="sans-serif" font-size="13" lengthAdjust="spacing" textLength="87" x="1058.5" y="784.1035">0x5903..c52b</text><polygon fill="#181818" points="364,814.1563,354,818.1563,364,822.1563,360,818.1563" style="stroke:#181818;stroke-width:1.0;"/><line style="stroke:#181818;stroke-width:1.0;stroke-dasharray:2.0,2.0;" x1="358" x2="1035.5" y1="818.1563" y2="818.1563"/><text fill="#000000" font-family="sans-serif" font-size="13" lengthAdjust="spacing" textLength="8" x="370" y="813.4141">3</text><path d="M1041,831.1563 L1041,871.1563 L1132,871.1563 L1132,841.1563 L1122,831.1563 L1041,831.1563 " fill="#FEFFDD" style="stroke:#181818;stroke-width:0.5;"/><path d="M1122,831.1563 L1122,841.1563 L1132,841.1563 L1122,831.1563 " fill="#FEFFDD" style="stroke:#181818;stroke-width:0.5;"/><text fill="#000000" font-family="sans-serif" font-size="13" lengthAdjust="spacing" textLength="4" x="1047" y="848.7246">&#160;</text><text fill="#000000" font-family="sans-serif" font-size="13" lengthAdjust="spacing" textLength="70" x="1047" y="864.0352">25,703 gas</text><polygon fill="#181818" points="600,924.709,610,928.709,600,932.709,604,928.709" style="stroke:#181818;stroke-width:1.0;"/><line style="stroke:#181818;stroke-width:1.0;" x1="353" x2="606" y1="928.709" y2="928.709"/><text fill="#000000" font-family="sans-serif" font-size="13" lengthAdjust="spacing" textLength="78" x="360" y="893.3457">getContract(</text><text fill="#000000" font-family="sans-serif" font-size="13" lengthAdjust="spacing" textLength="232" x="368" y="908.6563">contractKey: 0xe6f126e6..199de5b5)</text><text fill="#000000" font-family="sans-serif" font-size="13" lengthAdjust="spacing" textLength="62" x="360" y="923.9668">3,134 gas</text><polygon fill="#181818" points="364,954.0195,354,958.0195,364,962.0195,360,958.0195" style="stroke:#181818;stroke-width:1.0;"/><line style="stroke:#181818;stroke-width:1.0;stroke-dasharray:2.0,2.0;" x1="358" x2="616" y1="958.0195" y2="958.0195"/><text fill="#000000" font-family="sans-serif" font-size="13" lengthAdjust="spacing" textLength="88" x="370" y="953.2773">0xA441..48e7</text><polygon fill="#181818" points="1429.5,1212.9883,1439.5,1216.9883,1429.5,1220.9883,1433.5,1216.9883" style="stroke:#181818;stroke-width:1.0;"/><line style="stroke:#181818;stroke-width:1.0;" x1="353" x2="1435.5" y1="1216.9883" y2="1216.9883"/><text fill="#000000" font-family="sans-serif" font-size="13" lengthAdjust="spacing" textLength="179" x="360" y="982.5879">completeQueuedWithdrawal(</text><text fill="#000000" font-family="sans-serif" font-size="13" lengthAdjust="spacing" textLength="80" x="368" y="997.8984">withdrawal: [</text><text fill="#000000" font-family="sans-serif" font-size="13" lengthAdjust="spacing" textLength="137" x="376" y="1013.209">staker: 0x326E..42B4,</text><text fill="#000000" font-family="sans-serif" font-size="13" lengthAdjust="spacing" textLength="177" x="376" y="1028.5195">delegatedTo: 0x0000..0000,</text><text fill="#000000" font-family="sans-serif" font-size="13" lengthAdjust="spacing" textLength="167" x="376" y="1043.8301">withdrawer: 0x326E..42B4,</text><text fill="#000000" font-family="sans-serif" font-size="13" lengthAdjust="spacing" textLength="58" x="376" y="1059.1406">nonce: 3,</text><text fill="#000000" font-family="sans-serif" font-size="13" lengthAdjust="spacing" textLength="139" x="376" y="1074.4512">startBlock: 1,370,721,</text><text fill="#000000" font-family="sans-serif" font-size="13" lengthAdjust="spacing" textLength="74" x="376" y="1089.7617">strategies: [</text><text fill="#000000" font-family="sans-serif" font-size="13" lengthAdjust="spacing" textLength="114" x="384" y="1105.0723">0: 0x7D70..63d3],</text><text fill="#000000" font-family="sans-serif" font-size="13" lengthAdjust="spacing" textLength="53" x="376" y="1120.3828">shares: [</text><text fill="#000000" font-family="sans-serif" font-size="13" lengthAdjust="spacing" textLength="192" x="384" y="1135.6934">0: 100,000,000,000,000,000]],</text><text fill="#000000" font-family="sans-serif" font-size="13" lengthAdjust="spacing" textLength="55" x="368" y="1151.0039">tokens: [</text><text fill="#000000" font-family="sans-serif" font-size="13" lengthAdjust="spacing" textLength="110" x="376" y="1166.3145">0: 0x3F1c..5034],</text><text fill="#000000" font-family="sans-serif" font-size="13" lengthAdjust="spacing" textLength="165" x="368" y="1181.625">middlewareTimesIndex: 0,</text><text fill="#000000" font-family="sans-serif" font-size="13" lengthAdjust="spacing" textLength="143" x="368" y="1196.9355">receiveAsTokens: true)</text><text fill="#000000" font-family="sans-serif" font-size="13" lengthAdjust="spacing" textLength="70" x="360" y="1212.2461">83,520 gas</text><polygon fill="#181818" points="1683.5,1318.8516,1693.5,1322.8516,1683.5,1326.8516,1687.5,1322.8516" style="stroke:#181818;stroke-width:1.0;"/><line style="stroke:#181818;stroke-width:1.0;" x1="1451.5" x2="1689.5" y1="1322.8516" y2="1322.8516"/><text fill="#000000" font-family="sans-serif" font-size="13" lengthAdjust="spacing" textLength="164" x="1458.5" y="1241.5566">withdrawSharesAsTokens(</text><text fill="#000000" font-family="sans-serif" font-size="13" lengthAdjust="spacing" textLength="153" x="1466.5" y="1256.8672">recipient: 0x326E..42B4,</text><text fill="#000000" font-family="sans-serif" font-size="13" lengthAdjust="spacing" textLength="153" x="1466.5" y="1272.1777">strategy: 0x7D70..63d3,</text><text fill="#000000" font-family="sans-serif" font-size="13" lengthAdjust="spacing" textLength="217" x="1466.5" y="1287.4883">shares: 100,000,000,000,000,000,</text><text fill="#000000" font-family="sans-serif" font-size="13" lengthAdjust="spacing" textLength="134" x="1466.5" y="1302.7988">token: 0x3F1c..5034)</text><text fill="#000000" font-family="sans-serif" font-size="13" lengthAdjust="spacing" textLength="70" x="1458.5" y="1318.1094">48,494 gas</text><polygon fill="#181818" points="784.5,1409.4043,774.5,1413.4043,784.5,1417.4043,780.5,1413.4043" style="stroke:#181818;stroke-width:1.0;"/><line style="stroke:#181818;stroke-width:1.0;" x1="778.5" x2="1694.5" y1="1413.4043" y2="1413.4043"/><text fill="#000000" font-family="sans-serif" font-size="13" lengthAdjust="spacing" textLength="61" x="790.5" y="1347.4199">withdraw(</text><text fill="#000000" font-family="sans-serif" font-size="13" lengthAdjust="spacing" textLength="153" x="798.5" y="1362.7305">recipient: 0x326E..42B4,</text><text fill="#000000" font-family="sans-serif" font-size="13" lengthAdjust="spacing" textLength="134" x="798.5" y="1378.041">token: 0x3F1c..5034,</text><text fill="#000000" font-family="sans-serif" font-size="13" lengthAdjust="spacing" textLength="265" x="798.5" y="1393.3516">amountShares: 100,000,000,000,000,000)</text><text fill="#000000" font-family="sans-serif" font-size="13" lengthAdjust="spacing" textLength="70" x="790.5" y="1408.6621">40,054 gas</text><polygon fill="#181818" points="1019.5,1469.3359,1029.5,1473.3359,1019.5,1477.3359,1023.5,1473.3359" style="stroke:#181818;stroke-width:1.0;"/><line style="stroke:#181818;stroke-width:1.0;" x1="773.5" x2="1025.5" y1="1473.3359" y2="1473.3359"/><text fill="#000000" font-family="sans-serif" font-size="13" lengthAdjust="spacing" textLength="67" x="780.5" y="1437.9727">balanceOf(</text><text fill="#000000" font-family="sans-serif" font-size="13" lengthAdjust="spacing" textLength="159" x="788.5" y="1453.2832">_account: 0x7D70..63d3)</text><text fill="#000000" font-family="sans-serif" font-size="13" lengthAdjust="spacing" textLength="62" x="780.5" y="1468.5938">8,600 gas</text><polygon fill="#181818" points="1282.5,1544.5781,1292.5,1548.5781,1282.5,1552.5781,1286.5,1548.5781" style="stroke:#181818;stroke-width:1.0;"/><line style="stroke:#181818;stroke-width:1.0;" x1="1041.5" x2="1288.5" y1="1548.5781" y2="1548.5781"/><text fill="#000000" font-family="sans-serif" font-size="13" lengthAdjust="spacing" textLength="49" x="1048.5" y="1497.9043">getApp(</text><text fill="#000000" font-family="sans-serif" font-size="13" lengthAdjust="spacing" textLength="226" x="1056.5" y="1513.2148">_namespace: 0xf1f3eb40..6f35ac0f,</text><text fill="#000000" font-family="sans-serif" font-size="13" lengthAdjust="spacing" textLength="197" x="1056.5" y="1528.5254">_appId: 0x3ca7c3e3..68cef320)</text><text fill="#000000" font-family="sans-serif" font-size="13" lengthAdjust="spacing" textLength="62" x="1048.5" y="1543.8359">1,897 gas</text><polygon fill="#181818" points="1052.5,1573.8887,1042.5,1577.8887,1052.5,1581.8887,1048.5,1577.8887" style="stroke:#181818;stroke-width:1.0;"/><line style="stroke:#181818;stroke-width:1.0;stroke-dasharray:2.0,2.0;" x1="1046.5" x2="1298.5" y1="1577.8887" y2="1577.8887"/><text fill="#000000" font-family="sans-serif" font-size="13" lengthAdjust="spacing" textLength="87" x="1058.5" y="1573.1465">0x5903..c52b</text><polygon fill="#181818" points="784.5,1603.1992,774.5,1607.1992,784.5,1611.1992,780.5,1607.1992" style="stroke:#181818;stroke-width:1.0;"/><line style="stroke:#181818;stroke-width:1.0;stroke-dasharray:2.0,2.0;" x1="778.5" x2="1035.5" y1="1607.1992" y2="1607.1992"/><text fill="#000000" font-family="sans-serif" font-size="13" lengthAdjust="spacing" textLength="216" x="790.5" y="1602.457">83,996,,542,048,756,848,005,222</text><path d="M1041,1620.1992 L1041,1660.1992 L1124,1660.1992 L1124,1630.1992 L1114,1620.1992 L1041,1620.1992 " fill="#FEFFDD" style="stroke:#181818;stroke-width:0.5;"/><path d="M1114,1620.1992 L1114,1630.1992 L1124,1630.1992 L1114,1620.1992 " fill="#FEFFDD" style="stroke:#181818;stroke-width:0.5;"/><text fill="#000000" font-family="sans-serif" font-size="13" lengthAdjust="spacing" textLength="4" x="1047" y="1637.7676">&#160;</text><text fill="#000000" font-family="sans-serif" font-size="13" lengthAdjust="spacing" textLength="62" x="1047" y="1653.0781">6,703 gas</text><polygon fill="#181818" points="1019.5,1729.0625,1029.5,1733.0625,1019.5,1737.0625,1023.5,1733.0625" style="stroke:#181818;stroke-width:1.0;"/><line style="stroke:#181818;stroke-width:1.0;" x1="773.5" x2="1025.5" y1="1733.0625" y2="1733.0625"/><text fill="#000000" font-family="sans-serif" font-size="13" lengthAdjust="spacing" textLength="53" x="780.5" y="1682.3887">transfer(</text><text fill="#000000" font-family="sans-serif" font-size="13" lengthAdjust="spacing" textLength="160" x="788.5" y="1697.6992">_recipient: 0x326E..42B4,</text><text fill="#000000" font-family="sans-serif" font-size="13" lengthAdjust="spacing" textLength="231" x="788.5" y="1713.0098">_amount: 100,031,677,373,941,741)</text><text fill="#000000" font-family="sans-serif" font-size="13" lengthAdjust="spacing" textLength="70" x="780.5" y="1728.3203">20,215 gas</text><polygon fill="#181818" points="1282.5,1804.3047,1292.5,1808.3047,1282.5,1812.3047,1286.5,1808.3047" style="stroke:#181818;stroke-width:1.0;"/><line style="stroke:#181818;stroke-width:1.0;" x1="1041.5" x2="1288.5" y1="1808.3047" y2="1808.3047"/><text fill="#000000" font-family="sans-serif" font-size="13" lengthAdjust="spacing" textLength="49" x="1048.5" y="1757.6309">getApp(</text><text fill="#000000" font-family="sans-serif" font-size="13" lengthAdjust="spacing" textLength="226" x="1056.5" y="1772.9414">_namespace: 0xf1f3eb40..6f35ac0f,</text><text fill="#000000" font-family="sans-serif" font-size="13" lengthAdjust="spacing" textLength="197" x="1056.5" y="1788.252">_appId: 0x3ca7c3e3..68cef320)</text><text fill="#000000" font-family="sans-serif" font-size="13" lengthAdjust="spacing" textLength="62" x="1048.5" y="1803.5625">1,897 gas</text><polygon fill="#181818" points="1052.5,1833.6152,1042.5,1837.6152,1052.5,1841.6152,1048.5,1837.6152" style="stroke:#181818;stroke-width:1.0;"/><line style="stroke:#181818;stroke-width:1.0;stroke-dasharray:2.0,2.0;" x1="1046.5" x2="1298.5" y1="1837.6152" y2="1837.6152"/><text fill="#000000" font-family="sans-serif" font-size="13" lengthAdjust="spacing" textLength="87" x="1058.5" y="1832.873">0x5903..c52b</text><polygon fill="#181818" points="784.5,1862.9258,774.5,1866.9258,784.5,1870.9258,780.5,1866.9258" style="stroke:#181818;stroke-width:1.0;"/><line style="stroke:#181818;stroke-width:1.0;stroke-dasharray:2.0,2.0;" x1="778.5" x2="1035.5" y1="1866.9258" y2="1866.9258"/><text fill="#000000" font-family="sans-serif" font-size="13" lengthAdjust="spacing" textLength="25" x="790.5" y="1862.1836">true</text><path d="M1041,1879.9258 L1041,1919.9258 L1132,1919.9258 L1132,1889.9258 L1122,1879.9258 L1041,1879.9258 " fill="#FEFFDD" style="stroke:#181818;stroke-width:0.5;"/><path d="M1122,1879.9258 L1122,1889.9258 L1132,1889.9258 L1122,1879.9258 " fill="#FEFFDD" style="stroke:#181818;stroke-width:0.5;"/><text fill="#000000" font-family="sans-serif" font-size="13" lengthAdjust="spacing" textLength="4" x="1047" y="1897.4941">&#160;</text><text fill="#000000" font-family="sans-serif" font-size="13" lengthAdjust="spacing" textLength="70" x="1047" y="1912.8047">18,318 gas</text><polygon fill="#181818" points="1683.5,1927.5469,1693.5,1931.5469,1683.5,1935.5469,1687.5,1931.5469" style="stroke:#181818;stroke-width:1.0;"/><line style="stroke:#181818;stroke-width:1.0;stroke-dasharray:2.0,2.0;" x1="768.5" x2="1689.5" y1="1931.5469" y2="1931.5469"/><path d="M773,1944.5469 L773,1984.5469 L864,1984.5469 L864,1954.5469 L854,1944.5469 L773,1944.5469 " fill="#FEFFDD" style="stroke:#181818;stroke-width:0.5;"/><path d="M854,1944.5469 L854,1954.5469 L864,1954.5469 L854,1944.5469 " fill="#FEFFDD" style="stroke:#181818;stroke-width:0.5;"/><text fill="#000000" font-family="sans-serif" font-size="13" lengthAdjust="spacing" textLength="4" x="779" y="1962.1152">&#160;</text><text fill="#000000" font-family="sans-serif" font-size="13" lengthAdjust="spacing" textLength="70" x="779" y="1977.4258">11,239 gas</text><polygon fill="#181818" points="1462.5,1992.168,1452.5,1996.168,1462.5,2000.168,1458.5,1996.168" style="stroke:#181818;stroke-width:1.0;"/><line style="stroke:#181818;stroke-width:1.0;stroke-dasharray:2.0,2.0;" x1="1456.5" x2="1699.5" y1="1996.168" y2="1996.168"/><path d="M1705,2009.168 L1705,2049.168 L1788,2049.168 L1788,2019.168 L1778,2009.168 L1705,2009.168 " fill="#FEFFDD" style="stroke:#181818;stroke-width:0.5;"/><path d="M1778,2009.168 L1778,2019.168 L1788,2019.168 L1778,2009.168 " fill="#FEFFDD" style="stroke:#181818;stroke-width:0.5;"/><text fill="#000000" font-family="sans-serif" font-size="13" lengthAdjust="spacing" textLength="4" x="1711" y="2026.7363">&#160;</text><text fill="#000000" font-family="sans-serif" font-size="13" lengthAdjust="spacing" textLength="62" x="1711" y="2042.0469">8,440 gas</text><polygon fill="#181818" points="364,2056.7891,354,2060.7891,364,2064.7891,360,2060.7891" style="stroke:#181818;stroke-width:1.0;"/><line style="stroke:#181818;stroke-width:1.0;stroke-dasharray:2.0,2.0;" x1="358" x2="1445.5" y1="2060.7891" y2="2060.7891"/><path d="M1451,2073.7891 L1451,2113.7891 L1542,2113.7891 L1542,2083.7891 L1532,2073.7891 L1451,2073.7891 " fill="#FEFFDD" style="stroke:#181818;stroke-width:0.5;"/><path d="M1532,2073.7891 L1532,2083.7891 L1542,2083.7891 L1532,2073.7891 " fill="#FEFFDD" style="stroke:#181818;stroke-width:0.5;"/><text fill="#000000" font-family="sans-serif" font-size="13" lengthAdjust="spacing" textLength="4" x="1457" y="2091.3574">&#160;</text><text fill="#000000" font-family="sans-serif" font-size="13" lengthAdjust="spacing" textLength="70" x="1457" y="2106.668">35,026 gas</text><polygon fill="#181818" points="1019.5,2167.3418,1029.5,2171.3418,1019.5,2175.3418,1023.5,2171.3418" style="stroke:#181818;stroke-width:1.0;"/><line style="stroke:#181818;stroke-width:1.0;" x1="353" x2="1025.5" y1="2171.3418" y2="2171.3418"/><text fill="#000000" font-family="sans-serif" font-size="13" lengthAdjust="spacing" textLength="67" x="360" y="2135.9785">balanceOf(</text><text fill="#000000" font-family="sans-serif" font-size="13" lengthAdjust="spacing" textLength="155" x="368" y="2151.2891">_account: 0x326E..42B4)</text><text fill="#000000" font-family="sans-serif" font-size="13" lengthAdjust="spacing" textLength="62" x="360" y="2166.5996">6,600 gas</text><polygon fill="#181818" points="1282.5,2242.584,1292.5,2246.584,1282.5,2250.584,1286.5,2246.584" style="stroke:#181818;stroke-width:1.0;"/><line style="stroke:#181818;stroke-width:1.0;" x1="1041.5" x2="1288.5" y1="2246.584" y2="2246.584"/><text fill="#000000" font-family="sans-serif" font-size="13" lengthAdjust="spacing" textLength="49" x="1048.5" y="2195.9102">getApp(</text><text fill="#000000" font-family="sans-serif" font-size="13" lengthAdjust="spacing" textLength="226" x="1056.5" y="2211.2207">_namespace: 0xf1f3eb40..6f35ac0f,</text><text fill="#000000" font-family="sans-serif" font-size="13" lengthAdjust="spacing" textLength="197" x="1056.5" y="2226.5313">_appId: 0x3ca7c3e3..68cef320)</text><text fill="#000000" font-family="sans-serif" font-size="13" lengthAdjust="spacing" textLength="62" x="1048.5" y="2241.8418">1,897 gas</text><polygon fill="#181818" points="1052.5,2271.8945,1042.5,2275.8945,1052.5,2279.8945,1048.5,2275.8945" style="stroke:#181818;stroke-width:1.0;"/><line style="stroke:#181818;stroke-width:1.0;stroke-dasharray:2.0,2.0;" x1="1046.5" x2="1298.5" y1="2275.8945" y2="2275.8945"/><text fill="#000000" font-family="sans-serif" font-size="13" lengthAdjust="spacing" textLength="87" x="1058.5" y="2271.1523">0x5903..c52b</text><polygon fill="#181818" points="364,2301.2051,354,2305.2051,364,2309.2051,360,2305.2051" style="stroke:#181818;stroke-width:1.0;"/><line style="stroke:#181818;stroke-width:1.0;stroke-dasharray:2.0,2.0;" x1="358" x2="1035.5" y1="2305.2051" y2="2305.2051"/><text fill="#000000" font-family="sans-serif" font-size="13" lengthAdjust="spacing" textLength="164" x="370" y="2300.4629">100,031,677,373,941,743</text><path d="M1041,2318.2051 L1041,2358.2051 L1124,2358.2051 L1124,2328.2051 L1114,2318.2051 L1041,2318.2051 " fill="#FEFFDD" style="stroke:#181818;stroke-width:0.5;"/><path d="M1114,2318.2051 L1114,2328.2051 L1124,2328.2051 L1114,2318.2051 " fill="#FEFFDD" style="stroke:#181818;stroke-width:0.5;"/><text fill="#000000" font-family="sans-serif" font-size="13" lengthAdjust="spacing" textLength="4" x="1047" y="2335.7734">&#160;</text><text fill="#000000" font-family="sans-serif" font-size="13" lengthAdjust="spacing" textLength="62" x="1047" y="2351.084">4,703 gas</text><polygon fill="#181818" points="600,2411.7578,610,2415.7578,600,2419.7578,604,2415.7578" style="stroke:#181818;stroke-width:1.0;"/><line style="stroke:#181818;stroke-width:1.0;" x1="353" x2="606" y1="2415.7578" y2="2415.7578"/><text fill="#000000" font-family="sans-serif" font-size="13" lengthAdjust="spacing" textLength="78" x="360" y="2380.3945">getContract(</text><text fill="#000000" font-family="sans-serif" font-size="13" lengthAdjust="spacing" textLength="228" x="368" y="2395.7051">contractKey: 0x7a8fe1ba..6fa88b85)</text><text fill="#000000" font-family="sans-serif" font-size="13" lengthAdjust="spacing" textLength="62" x="360" y="2411.0156">3,134 gas</text><polygon fill="#181818" points="364,2441.0684,354,2445.0684,364,2449.0684,360,2445.0684" style="stroke:#181818;stroke-width:1.0;"/><line style="stroke:#181818;stroke-width:1.0;stroke-dasharray:2.0,2.0;" x1="358" x2="616" y1="2445.0684" y2="2445.0684"/><text fill="#000000" font-family="sans-serif" font-size="13" lengthAdjust="spacing" textLength="88" x="370" y="2440.3262">0x7C0c..041d</text><polygon fill="#181818" points="1019.5,2516.3105,1029.5,2520.3105,1019.5,2524.3105,1023.5,2520.3105" style="stroke:#181818;stroke-width:1.0;"/><line style="stroke:#181818;stroke-width:1.0;" x1="353" x2="1025.5" y1="2520.3105" y2="2520.3105"/><text fill="#000000" font-family="sans-serif" font-size="13" lengthAdjust="spacing" textLength="53" x="360" y="2469.6367">transfer(</text><text fill="#000000" font-family="sans-serif" font-size="13" lengthAdjust="spacing" textLength="162" x="368" y="2484.9473">_recipient: 0x7C0c..041d,</text><text fill="#000000" font-family="sans-serif" font-size="13" lengthAdjust="spacing" textLength="231" x="368" y="2500.2578">_amount: 100,031,677,373,941,740)</text><text fill="#000000" font-family="sans-serif" font-size="13" lengthAdjust="spacing" textLength="70" x="360" y="2515.5684">17,415 gas</text><polygon fill="#181818" points="1282.5,2591.5527,1292.5,2595.5527,1282.5,2599.5527,1286.5,2595.5527" style="stroke:#181818;stroke-width:1.0;"/><line style="stroke:#181818;stroke-width:1.0;" x1="1041.5" x2="1288.5" y1="2595.5527" y2="2595.5527"/><text fill="#000000" font-family="sans-serif" font-size="13" lengthAdjust="spacing" textLength="49" x="1048.5" y="2544.8789">getApp(</text><text fill="#000000" font-family="sans-serif" font-size="13" lengthAdjust="spacing" textLength="226" x="1056.5" y="2560.1895">_namespace: 0xf1f3eb40..6f35ac0f,</text><text fill="#000000" font-family="sans-serif" font-size="13" lengthAdjust="spacing" textLength="197" x="1056.5" y="2575.5">_appId: 0x3ca7c3e3..68cef320)</text><text fill="#000000" font-family="sans-serif" font-size="13" lengthAdjust="spacing" textLength="62" x="1048.5" y="2590.8105">1,897 gas</text><polygon fill="#181818" points="1052.5,2620.8633,1042.5,2624.8633,1052.5,2628.8633,1048.5,2624.8633" style="stroke:#181818;stroke-width:1.0;"/><line style="stroke:#181818;stroke-width:1.0;stroke-dasharray:2.0,2.0;" x1="1046.5" x2="1298.5" y1="2624.8633" y2="2624.8633"/><text fill="#000000" font-family="sans-serif" font-size="13" lengthAdjust="spacing" textLength="87" x="1058.5" y="2620.1211">0x5903..c52b</text><polygon fill="#181818" points="364,2650.1738,354,2654.1738,364,2658.1738,360,2654.1738" style="stroke:#181818;stroke-width:1.0;"/><line style="stroke:#181818;stroke-width:1.0;stroke-dasharray:2.0,2.0;" x1="358" x2="1035.5" y1="2654.1738" y2="2654.1738"/><text fill="#000000" font-family="sans-serif" font-size="13" lengthAdjust="spacing" textLength="25" x="370" y="2649.4316">true</text><path d="M1041,2667.1738 L1041,2707.1738 L1132,2707.1738 L1132,2677.1738 L1122,2667.1738 L1041,2667.1738 " fill="#FEFFDD" style="stroke:#181818;stroke-width:0.5;"/><path d="M1122,2667.1738 L1122,2677.1738 L1132,2677.1738 L1122,2667.1738 " fill="#FEFFDD" style="stroke:#181818;stroke-width:0.5;"/><text fill="#000000" font-family="sans-serif" font-size="13" lengthAdjust="spacing" textLength="4" x="1047" y="2684.7422">&#160;</text><text fill="#000000" font-family="sans-serif" font-size="13" lengthAdjust="spacing" textLength="70" x="1047" y="2700.0527">15,518 gas</text><polygon fill="#181818" points="118,2745.416,108,2749.416,118,2753.416,114,2749.416" style="stroke:#181818;stroke-width:1.0;"/><line style="stroke:#181818;stroke-width:1.0;stroke-dasharray:2.0,2.0;" x1="112" x2="347" y1="2749.416" y2="2749.416"/><text fill="#000000" font-family="sans-serif" font-size="13" lengthAdjust="spacing" textLength="131" x="124" y="2729.3633">asset: 0x3F1c..5034,</text><text fill="#000000" font-family="sans-serif" font-size="13" lengthAdjust="spacing" textLength="212" x="124" y="2744.6738">assets: 100,031,677,373,941,740</text><path d="M353,2762.416 L353,2802.416 L444,2802.416 L444,2772.416 L434,2762.416 L353,2762.416 " fill="#FEFFDD" style="stroke:#181818;stroke-width:0.5;"/><path d="M434,2762.416 L434,2772.416 L444,2772.416 L434,2762.416 " fill="#FEFFDD" style="stroke:#181818;stroke-width:0.5;"/><text fill="#000000" font-family="sans-serif" font-size="13" lengthAdjust="spacing" textLength="4" x="359" y="2779.9844">&#160;</text><text fill="#000000" font-family="sans-serif" font-size="13" lengthAdjust="spacing" textLength="70" x="359" y="2795.2949">47,789 gas</text><path d="M902,2813.0371 L902,3067.0371 L1170,3067.0371 L1170,2823.0371 L1160,2813.0371 L902,2813.0371 " fill="#00FFFF" style="stroke:#181818;stroke-width:0.5;"/><path d="M1160,2813.0371 L1160,2823.0371 L1170,2823.0371 L1160,2813.0371 " fill="#00FFFF" style="stroke:#181818;stroke-width:0.5;"/><text fill="#000000" font-family="sans-serif" font-size="13" lengthAdjust="spacing" textLength="56" x="908" y="2830.6055">Transfer:</text><text fill="#000000" font-family="sans-serif" font-size="13" lengthAdjust="spacing" textLength="132" x="916" y="2845.916">from: 0x7D70..63d3,</text><text fill="#000000" font-family="sans-serif" font-size="13" lengthAdjust="spacing" textLength="111" x="916" y="2861.2266">to: 0x326E..42B4,</text><text fill="#000000" font-family="sans-serif" font-size="13" lengthAdjust="spacing" textLength="205" x="916" y="2876.5371">value: 100,031,677,373,941,741</text><text fill="#000000" font-family="sans-serif" font-size="13" lengthAdjust="spacing" textLength="97" x="908" y="2891.8477">TransferShares:</text><text fill="#000000" font-family="sans-serif" font-size="13" lengthAdjust="spacing" textLength="132" x="916" y="2907.1582">from: 0x7D70..63d3,</text><text fill="#000000" font-family="sans-serif" font-size="13" lengthAdjust="spacing" textLength="111" x="916" y="2922.4688">to: 0x326E..42B4,</text><text fill="#000000" font-family="sans-serif" font-size="13" lengthAdjust="spacing" textLength="239" x="916" y="2937.7793">sharesValue: 99,122,271,799,422,587</text><text fill="#000000" font-family="sans-serif" font-size="13" lengthAdjust="spacing" textLength="56" x="908" y="2953.0898">Transfer:</text><text fill="#000000" font-family="sans-serif" font-size="13" lengthAdjust="spacing" textLength="128" x="916" y="2968.4004">from: 0x326E..42B4,</text><text fill="#000000" font-family="sans-serif" font-size="13" lengthAdjust="spacing" textLength="113" x="916" y="2983.7109">to: 0x7C0c..041d,</text><text fill="#000000" font-family="sans-serif" font-size="13" lengthAdjust="spacing" textLength="205" x="916" y="2999.0215">value: 100,031,677,373,941,740</text><text fill="#000000" font-family="sans-serif" font-size="13" lengthAdjust="spacing" textLength="97" x="908" y="3014.332">TransferShares:</text><text fill="#000000" font-family="sans-serif" font-size="13" lengthAdjust="spacing" textLength="128" x="916" y="3029.6426">from: 0x326E..42B4,</text><text fill="#000000" font-family="sans-serif" font-size="13" lengthAdjust="spacing" textLength="113" x="916" y="3044.9531">to: 0x7C0c..041d,</text><text fill="#000000" font-family="sans-serif" font-size="13" lengthAdjust="spacing" textLength="239" x="916" y="3060.2637">sharesValue: 99,122,271,799,422,586</text><path d="M1306,2813.0371 L1306,2853.0371 L1587,2853.0371 L1587,2823.0371 L1577,2813.0371 L1306,2813.0371 " fill="#00FFFF" style="stroke:#181818;stroke-width:0.5;"/><path d="M1577,2813.0371 L1577,2823.0371 L1587,2823.0371 L1577,2813.0371 " fill="#00FFFF" style="stroke:#181818;stroke-width:0.5;"/><text fill="#000000" font-family="sans-serif" font-size="13" lengthAdjust="spacing" textLength="141" x="1312" y="2830.6055">WithdrawalCompleted:</text><text fill="#000000" font-family="sans-serif" font-size="13" lengthAdjust="spacing" textLength="252" x="1320" y="2845.916">withdrawalRoot: 0x36e5744a..f5738d28</text><!--SRC=[vLTPRzms47xNho3IbnHWLPwY90G1REUeaQDjiaqVcY2WA6ejM2jj9QsFVz-XJkzwTvsq3qLQ0xOr9EVWD_FDI6tU5XQHcq1PJfY9L98QnQqWIP85cT4y3QNECisafZI9CiC8ZOGqQMPI5j58KiEebCppZ5wtULMYYwgmpUKjHabHcKj4kIAAIumM5nkCQ8XErZLYX0b4QInfp0Fqyit2qwQjQlI8t70J9BulJI8U8TqW9pe1UMjTjxd9rxfiktCiiBuls7WEH2UW9q_ULgbzPWkxr63owTDTHKCJuViciwfJTA8JGF7rkyLPLMRvyhwIIXNn_O2dl5DoeXD0wNrRwzOkRqzrOnSVNh_ELtdRt3V0CshWMeGFuOBe1ESrJwizvnF2VPy6OZWFeXFW_2jRbxQuhw65e018EDpBYKu0ZG4CICuRNUgbtGDAcYNIzrEP19so4vrmvtwpgbTMhKNLbQsdx7XlgzBO677XlGJrN-gyatob0Xun7aJevRNDlJVw1hsmi1FvX2ZAXQJ1l0DQLPstjp6YlfBzkhFMGHeZ9WWE9UsMVcji2YjKOaQ4jnYi4h1AqVF5JvujK-IYzBofVdvuEjL8Z4oXyzLvsGAKklWzRo_IMb_hul774g7hIOpH7su1eQRLbxO61wxgdhkgEnMutqfxR6swgDm-WH_VTt-7_T7Q0VLom0rFZkhsrF46GC307AmOdVQwHEIscU92Y3YhwjbOd9_6inUwtZr78IPo__VJf-y_bWEIQAaRnyJy2ZnDS7aJjm33aIunkj3DEw1wXraD3owII0K1q1sY4PcEaeX5NK3Qc6fJjXq2Py4fyE3iL83R22iPRZiTxNkrRJTrYTfwOxS26AaNeqsPshgupSlbehgqvUF1uCujnlEZGGZXnKZ5BSCZ9MEKw493MdxEkhjzlXlzb3zmnWK6J7Sm6unu4y6TvO6yCLhQzcIzxisMUcMRjJOTS1dDk4s4IsF6fJOamxtlzVeyxJmRhGotq1E2qDYCCm8HX9X7QYU0mTTyNHcvJc8aIyOrtZEupfSNBQgoEpU7If1O4TxPt9zsk08qIQX5qtRtC8FmojwwE6sGKT0Be7T5KMfb8XrI6BX-FC_avcJgNrkUnpu6fArMwyAszjUDtTZq_yxQJgTrXJzhT7RdykxFhF8qBUmrc5xaK77dm9eREDVjrTRO_CgUD8l1aAERAooE9TifxJ4HtZHP83lZe8WdoDvtbnWjFXwyvElSxbAeYs30vtORaNvhWEC013C0sxU6y4M8HRHJS6EatZJRjfh96Fw30U_nsFUubMiIxu_7x6A3XuCzQdgl-C9-D2FMTOFWtsr758T_fnr1iKLHWB4K31D8dP813k4_8J2K63lIh8AfL-q73cghR39RzpSybjNFVVg6n76A0wM0oH2Pe5W9wcOamJ0clq5ykn5w64GAKuJsKtXGs3ayamGEKynuTEJmt11SGGf1ZfoTMpkC28a92-xDdQyUoi4tIeBzTNTiKej_DgYL3ZDB4-rkfyCm2RzuKAip0esF29eUIDKHsiswNqAx3a-5nN-ITXBBRThffh7jlSdIhJO74ThrC7tYG84ehCAUgtS_sKR8ljD_RhIt678LUmXbTRNQcSEU6tWx_HBMhdIniGURvMHqc8PVPRgV-Xzw1r64AMEOAR0BpmAUPQZs1hrjfRTyfzeU2feS2VfXqmy77Tpv9lqHpUcONgRwTCnljMV3ssxg8fdVRjzLLLyZWPLA2A1l9XKFKnRE3lu2]--></g></svg>