<?xml version="1.0" encoding="us-ascii" standalone="no"?><svg xmlns="http://www.w3.org/2000/svg" xmlns:xlink="http://www.w3.org/1999/xlink" contentStyleType="text/css" height="1707px" preserveAspectRatio="none" style="width:1795px;height:1707px;background:#FFFFFF;" version="1.1" viewBox="0 0 1795 1707" width="1795px" zoomAndPan="magnify"><defs/><g><text fill="#000000" font-family="sans-serif" font-size="14" font-weight="bold" lengthAdjust="spacing" textLength="575" x="608.75" y="28.5352">0x79995230480dc31a1abd0812f57f969d2d0b2dd2d4b9291d2dbc33c967f496a2</text><text fill="#000000" font-family="sans-serif" font-size="14" lengthAdjust="spacing" textLength="411" x="690.75" y="1695.3574">mainnet, block 19561455, Mon, 01 Apr 2024 14:04:35 GMT</text><rect fill="#FFFFFF" height="1045.5957" style="stroke:#181818;stroke-width:1.0;" width="10" x="425.5" y="373.7891"/><rect fill="#FFFFFF" height="653.3164" style="stroke:#181818;stroke-width:1.0;" width="10" x="430.5" y="687.4473"/><rect fill="#FFFFFF" height="29.3105" style="stroke:#181818;stroke-width:1.0;" width="10" x="694.5" y="449.0313"/><rect fill="#FFFFFF" height="29.3105" style="stroke:#181818;stroke-width:1.0;" width="10" x="694.5" y="747.3789"/><rect fill="#FFFFFF" height="29.3105" style="stroke:#181818;stroke-width:1.0;" width="10" x="827.5" y="538.2734"/><rect fill="#FFFFFF" height="727.248" style="stroke:#181818;stroke-width:1.0;" width="10" x="827.5" y="627.5156"/><rect fill="#FFFFFF" height="393.5898" style="stroke:#181818;stroke-width:1.0;" width="10" x="978" y="882.5527"/><rect fill="#FFFFFF" height="223.1055" style="stroke:#181818;stroke-width:1.0;" width="10" x="1279" y="988.416"/><rect fill="#FFFFFF" height="29.3105" style="stroke:#181818;stroke-width:1.0;" width="10" x="1426.5" y="1033.0371"/><rect fill="#FFFFFF" height="14" style="stroke:#181818;stroke-width:1.0;" width="10" x="1618" y="1183.5215"/><line style="stroke:#181818;stroke-width:0.5;stroke-dasharray:5.0,5.0;" x1="110" x2="110" y1="123.4414" y2="1599.8691"/><line style="stroke:#181818;stroke-width:0.5;stroke-dasharray:5.0,5.0;" x1="430" x2="430" y1="123.4414" y2="1599.8691"/><line style="stroke:#181818;stroke-width:0.5;stroke-dasharray:5.0,5.0;" x1="699" x2="699" y1="123.4414" y2="1599.8691"/><line style="stroke:#181818;stroke-width:0.5;stroke-dasharray:5.0,5.0;" x1="832" x2="832" y1="123.4414" y2="1599.8691"/><line style="stroke:#181818;stroke-width:0.5;stroke-dasharray:5.0,5.0;" x1="983" x2="983" y1="123.4414" y2="1599.8691"/><line style="stroke:#181818;stroke-width:0.5;stroke-dasharray:5.0,5.0;" x1="1284" x2="1284" y1="123.4414" y2="1599.8691"/><line style="stroke:#181818;stroke-width:0.5;stroke-dasharray:5.0,5.0;" x1="1431" x2="1431" y1="123.4414" y2="1599.8691"/><line style="stroke:#181818;stroke-width:0.5;stroke-dasharray:5.0,5.0;" x1="1623" x2="1623" y1="123.4414" y2="1599.8691"/><text fill="#000000" font-family="sans-serif" font-size="14" lengthAdjust="spacing" textLength="93" x="61" y="120.4883">0x5de0..3f91</text><ellipse cx="110.5" cy="55.4531" fill="#E2E2F0" rx="8" ry="8" style="stroke:#181818;stroke-width:0.5;"/><path d="M110.5,63.4531 L110.5,90.4531 M97.5,71.4531 L123.5,71.4531 M110.5,90.4531 L97.5,105.4531 M110.5,90.4531 L123.5,105.4531 " fill="none" style="stroke:#181818;stroke-width:0.5;"/><text fill="#000000" font-family="sans-serif" font-size="14" lengthAdjust="spacing" textLength="93" x="61" y="1612.4043">0x5de0..3f91</text><ellipse cx="110.5" cy="1623.8574" fill="#E2E2F0" rx="8" ry="8" style="stroke:#181818;stroke-width:0.5;"/><path d="M110.5,1631.8574 L110.5,1658.8574 M97.5,1639.8574 L123.5,1639.8574 M110.5,1658.8574 L97.5,1673.8574 M110.5,1658.8574 L123.5,1673.8574 " fill="none" style="stroke:#181818;stroke-width:0.5;"/><rect fill="#E2E2F0" height="63.4648" rx="2.5" ry="2.5" style="stroke:#181818;stroke-width:0.5;" width="131" x="365" y="58.9766"/><text fill="#000000" font-family="sans-serif" font-size="14" font-style="italic" lengthAdjust="spacing" textLength="103" x="379" y="79.5117">&#171;Prime Staked&#187;</text><text fill="#000000" font-family="sans-serif" font-size="14" font-style="italic" lengthAdjust="spacing" textLength="117" x="372" y="96">&#171;NodeDelegator&#187;</text><text fill="#000000" font-family="sans-serif" font-size="14" lengthAdjust="spacing" textLength="98" x="381.5" y="112.4883">0x1816..0087</text><rect fill="#E2E2F0" height="63.4648" rx="2.5" ry="2.5" style="stroke:#181818;stroke-width:0.5;" width="131" x="365" y="1598.8691"/><text fill="#000000" font-family="sans-serif" font-size="14" font-style="italic" lengthAdjust="spacing" textLength="103" x="379" y="1619.4043">&#171;Prime Staked&#187;</text><text fill="#000000" font-family="sans-serif" font-size="14" font-style="italic" lengthAdjust="spacing" textLength="117" x="372" y="1635.8926">&#171;NodeDelegator&#187;</text><text fill="#000000" font-family="sans-serif" font-size="14" lengthAdjust="spacing" textLength="98" x="381.5" y="1652.3809">0x1816..0087</text><rect fill="#E2E2F0" height="63.4648" rx="2.5" ry="2.5" style="stroke:#181818;stroke-width:0.5;" width="117" x="641" y="58.9766"/><text fill="#000000" font-family="sans-serif" font-size="14" font-style="italic" lengthAdjust="spacing" textLength="103" x="648" y="79.5117">&#171;Prime Staked&#187;</text><text fill="#000000" font-family="sans-serif" font-size="14" font-style="italic" lengthAdjust="spacing" textLength="85" x="657" y="96">&#171;LRTConfig&#187;</text><text fill="#000000" font-family="sans-serif" font-size="14" lengthAdjust="spacing" textLength="90" x="654.5" y="112.4883">0xf879..46bf</text><rect fill="#E2E2F0" height="63.4648" rx="2.5" ry="2.5" style="stroke:#181818;stroke-width:0.5;" width="117" x="641" y="1598.8691"/><text fill="#000000" font-family="sans-serif" font-size="14" font-style="italic" lengthAdjust="spacing" textLength="103" x="648" y="1619.4043">&#171;Prime Staked&#187;</text><text fill="#000000" font-family="sans-serif" font-size="14" font-style="italic" lengthAdjust="spacing" textLength="85" x="657" y="1635.8926">&#171;LRTConfig&#187;</text><text fill="#000000" font-family="sans-serif" font-size="14" lengthAdjust="spacing" textLength="90" x="654.5" y="1652.3809">0xf879..46bf</text><rect fill="#E2E2F0" height="79.9531" rx="2.5" ry="2.5" style="stroke:#181818;stroke-width:0.5;" width="129" x="768" y="42.4883"/><text fill="#000000" font-family="sans-serif" font-size="14" font-style="italic" lengthAdjust="spacing" textLength="115" x="775" y="63.0234">&#171;Wrapped Ether&#187;</text><text fill="#000000" font-family="sans-serif" font-size="14" font-style="italic" lengthAdjust="spacing" textLength="63" x="801" y="79.5117">&#171;(WETH)&#187;</text><text fill="#000000" font-family="sans-serif" font-size="14" font-style="italic" lengthAdjust="spacing" textLength="62" x="801.5" y="96">&#171;WETH9&#187;</text><text fill="#000000" font-family="sans-serif" font-size="14" lengthAdjust="spacing" textLength="91" x="787" y="112.4883">0xc02a..6cc2</text><rect fill="#E2E2F0" height="79.9531" rx="2.5" ry="2.5" style="stroke:#181818;stroke-width:0.5;" width="129" x="768" y="1598.8691"/><text fill="#000000" font-family="sans-serif" font-size="14" font-style="italic" lengthAdjust="spacing" textLength="115" x="775" y="1619.4043">&#171;Wrapped Ether&#187;</text><text fill="#000000" font-family="sans-serif" font-size="14" font-style="italic" lengthAdjust="spacing" textLength="63" x="801" y="1635.8926">&#171;(WETH)&#187;</text><text fill="#000000" font-family="sans-serif" font-size="14" font-style="italic" lengthAdjust="spacing" textLength="62" x="801.5" y="1652.3809">&#171;WETH9&#187;</text><text fill="#000000" font-family="sans-serif" font-size="14" lengthAdjust="spacing" textLength="91" x="787" y="1668.8691">0xc02a..6cc2</text><rect fill="#E2E2F0" height="63.4648" rx="2.5" ry="2.5" style="stroke:#181818;stroke-width:0.5;" width="152" x="907" y="58.9766"/><text fill="#000000" font-family="sans-serif" font-size="14" font-style="italic" lengthAdjust="spacing" textLength="88" x="939" y="79.5117">&#171;EigenLayer&#187;</text><text fill="#000000" font-family="sans-serif" font-size="14" font-style="italic" lengthAdjust="spacing" textLength="138" x="914" y="96">&#171;EigenPodManager&#187;</text><text fill="#000000" font-family="sans-serif" font-size="14" lengthAdjust="spacing" textLength="96" x="935" y="112.4883">0x91e6..a338</text><rect fill="#E2E2F0" height="63.4648" rx="2.5" ry="2.5" style="stroke:#181818;stroke-width:0.5;" width="152" x="907" y="1598.8691"/><text fill="#000000" font-family="sans-serif" font-size="14" font-style="italic" lengthAdjust="spacing" textLength="88" x="939" y="1619.4043">&#171;EigenLayer&#187;</text><text fill="#000000" font-family="sans-serif" font-size="14" font-style="italic" lengthAdjust="spacing" textLength="138" x="914" y="1635.8926">&#171;EigenPodManager&#187;</text><text fill="#000000" font-family="sans-serif" font-size="14" lengthAdjust="spacing" textLength="96" x="935" y="1652.3809">0x91e6..a338</text><rect fill="#E2E2F0" height="63.4648" rx="2.5" ry="2.5" style="stroke:#181818;stroke-width:0.5;" width="110" x="1229" y="58.9766"/><text fill="#000000" font-family="sans-serif" font-size="14" font-style="italic" lengthAdjust="spacing" textLength="88" x="1240" y="79.5117">&#171;EigenLayer&#187;</text><text fill="#000000" font-family="sans-serif" font-size="14" font-style="italic" lengthAdjust="spacing" textLength="78" x="1245" y="96">&#171;EigenPod&#187;</text><text fill="#000000" font-family="sans-serif" font-size="14" lengthAdjust="spacing" textLength="96" x="1236" y="112.4883">0x4279..e35e</text><rect fill="#E2E2F0" height="63.4648" rx="2.5" ry="2.5" style="stroke:#181818;stroke-width:0.5;" width="110" x="1229" y="1598.8691"/><text fill="#000000" font-family="sans-serif" font-size="14" font-style="italic" lengthAdjust="spacing" textLength="88" x="1240" y="1619.4043">&#171;EigenLayer&#187;</text><text fill="#000000" font-family="sans-serif" font-size="14" font-style="italic" lengthAdjust="spacing" textLength="78" x="1245" y="1635.8926">&#171;EigenPod&#187;</text><text fill="#000000" font-family="sans-serif" font-size="14" lengthAdjust="spacing" textLength="96" x="1236" y="1652.3809">0x4279..e35e</text><rect fill="#E2E2F0" height="46.9766" rx="2.5" ry="2.5" style="stroke:#181818;stroke-width:0.5;" width="165" x="1349" y="75.4648"/><text fill="#000000" font-family="sans-serif" font-size="14" font-style="italic" lengthAdjust="spacing" textLength="151" x="1356" y="96">&#171;UpgradeableBeacon&#187;</text><text fill="#000000" font-family="sans-serif" font-size="14" lengthAdjust="spacing" textLength="96" x="1383.5" y="112.4883">0x5a2a..9073</text><rect fill="#E2E2F0" height="46.9766" rx="2.5" ry="2.5" style="stroke:#181818;stroke-width:0.5;" width="165" x="1349" y="1598.8691"/><text fill="#000000" font-family="sans-serif" font-size="14" font-style="italic" lengthAdjust="spacing" textLength="151" x="1356" y="1619.4043">&#171;UpgradeableBeacon&#187;</text><text fill="#000000" font-family="sans-serif" font-size="14" lengthAdjust="spacing" textLength="96" x="1383.5" y="1635.8926">0x5a2a..9073</text><rect fill="#E2E2F0" height="63.4648" rx="2.5" ry="2.5" style="stroke:#181818;stroke-width:0.5;" width="196" x="1525" y="58.9766"/><text fill="#000000" font-family="sans-serif" font-size="14" font-style="italic" lengthAdjust="spacing" textLength="182" x="1532" y="79.5117">&#171;Beacon Deposit Contract&#187;</text><text fill="#000000" font-family="sans-serif" font-size="14" font-style="italic" lengthAdjust="spacing" textLength="125" x="1560.5" y="96">&#171;DepositContract&#187;</text><text fill="#000000" font-family="sans-serif" font-size="14" lengthAdjust="spacing" textLength="93" x="1576.5" y="112.4883">0x0000..05fa</text><rect fill="#E2E2F0" height="63.4648" rx="2.5" ry="2.5" style="stroke:#181818;stroke-width:0.5;" width="196" x="1525" y="1598.8691"/><text fill="#000000" font-family="sans-serif" font-size="14" font-style="italic" lengthAdjust="spacing" textLength="182" x="1532" y="1619.4043">&#171;Beacon Deposit Contract&#187;</text><text fill="#000000" font-family="sans-serif" font-size="14" font-style="italic" lengthAdjust="spacing" textLength="125" x="1560.5" y="1635.8926">&#171;DepositContract&#187;</text><text fill="#000000" font-family="sans-serif" font-size="14" lengthAdjust="spacing" textLength="93" x="1576.5" y="1652.3809">0x0000..05fa</text><rect fill="#FFFFFF" height="1045.5957" style="stroke:#181818;stroke-width:1.0;" width="10" x="425.5" y="373.7891"/><rect fill="#FFFFFF" height="653.3164" style="stroke:#181818;stroke-width:1.0;" width="10" x="430.5" y="687.4473"/><rect fill="#FFFFFF" height="29.3105" style="stroke:#181818;stroke-width:1.0;" width="10" x="694.5" y="449.0313"/><rect fill="#FFFFFF" height="29.3105" style="stroke:#181818;stroke-width:1.0;" width="10" x="694.5" y="747.3789"/><rect fill="#FFFFFF" height="29.3105" style="stroke:#181818;stroke-width:1.0;" width="10" x="827.5" y="538.2734"/><rect fill="#FFFFFF" height="727.248" style="stroke:#181818;stroke-width:1.0;" width="10" x="827.5" y="627.5156"/><rect fill="#FFFFFF" height="393.5898" style="stroke:#181818;stroke-width:1.0;" width="10" x="978" y="882.5527"/><rect fill="#FFFFFF" height="223.1055" style="stroke:#181818;stroke-width:1.0;" width="10" x="1279" y="988.416"/><rect fill="#FFFFFF" height="29.3105" style="stroke:#181818;stroke-width:1.0;" width="10" x="1426.5" y="1033.0371"/><rect fill="#FFFFFF" height="14" style="stroke:#181818;stroke-width:1.0;" width="10" x="1618" y="1183.5215"/><path d="M5,138.4414 L5,255.4414 L217,255.4414 L217,148.4414 L207,138.4414 L5,138.4414 " fill="#FEFFDD" style="stroke:#181818;stroke-width:0.5;"/><path d="M207,138.4414 L207,148.4414 L217,148.4414 L207,138.4414 " fill="#FEFFDD" style="stroke:#181818;stroke-width:0.5;"/><text fill="#000000" font-family="sans-serif" font-size="13" lengthAdjust="spacing" textLength="72" x="11" y="156.0098">Nonce: 185</text><text fill="#000000" font-family="sans-serif" font-size="13" lengthAdjust="spacing" textLength="191" x="11" y="171.3203">Gas Price: 33.266530924 Gwei</text><text fill="#000000" font-family="sans-serif" font-size="13" lengthAdjust="spacing" textLength="185" x="11" y="186.6309">Max Fee: 77.990389994 Gwei</text><text fill="#000000" font-family="sans-serif" font-size="13" lengthAdjust="spacing" textLength="137" x="11" y="201.9414">Max Priority: 3.0 Gwei</text><text fill="#000000" font-family="sans-serif" font-size="13" lengthAdjust="spacing" textLength="119" x="11" y="217.252">Gas Limit: 192,798</text><text fill="#000000" font-family="sans-serif" font-size="13" lengthAdjust="spacing" textLength="118" x="11" y="232.5625">Gas Used: 184,686</text><text fill="#000000" font-family="sans-serif" font-size="13" lengthAdjust="spacing" textLength="114" x="11" y="247.873">Tx Fee: 0.006 ETH</text><polygon fill="#181818" points="413.5,369.7891,423.5,373.7891,413.5,377.7891,417.5,373.7891" style="stroke:#181818;stroke-width:1.0;"/><line style="stroke:#181818;stroke-width:1.0;" x1="110.5" x2="419.5" y1="373.7891" y2="373.7891"/><text fill="#000000" font-family="sans-serif" font-size="13" lengthAdjust="spacing" textLength="58" x="117.5" y="277.1836">stakeEth(</text><text fill="#000000" font-family="sans-serif" font-size="13" lengthAdjust="spacing" textLength="74" x="125.5" y="292.4941">validators: [</text><text fill="#000000" font-family="sans-serif" font-size="13" lengthAdjust="spacing" textLength="20" x="133.5" y="307.8047">0: [</text><text fill="#000000" font-family="sans-serif" font-size="13" lengthAdjust="spacing" textLength="206" x="141.5" y="323.1152">pubkey: 0xb8d135d9..6352fdda,</text><text fill="#000000" font-family="sans-serif" font-size="13" lengthAdjust="spacing" textLength="223" x="141.5" y="338.4258">signature: 0x814422d4..34598387,</text><text fill="#000000" font-family="sans-serif" font-size="13" lengthAdjust="spacing" textLength="272" x="141.5" y="353.7363">depositDataRoot: 0x27d7ad5f..5881da15]])</text><text fill="#000000" font-family="sans-serif" font-size="13" lengthAdjust="spacing" textLength="78" x="117.5" y="369.0469">184,686 gas</text><polygon fill="#181818" points="682.5,445.0313,692.5,449.0313,682.5,453.0313,686.5,449.0313" style="stroke:#181818;stroke-width:1.0;"/><line style="stroke:#181818;stroke-width:1.0;" x1="435.5" x2="688.5" y1="449.0313" y2="449.0313"/><text fill="#000000" font-family="sans-serif" font-size="13" lengthAdjust="spacing" textLength="53" x="442.5" y="398.3574">hasRole(</text><text fill="#000000" font-family="sans-serif" font-size="13" lengthAdjust="spacing" textLength="184" x="450.5" y="413.668">role: 0x97667070..4fa9b929,</text><text fill="#000000" font-family="sans-serif" font-size="13" lengthAdjust="spacing" textLength="148" x="450.5" y="428.9785">account: 0x5De0..3f91)</text><text fill="#000000" font-family="sans-serif" font-size="13" lengthAdjust="spacing" textLength="62" x="442.5" y="444.2891">9,758 gas</text><polygon fill="#181818" points="446.5,474.3418,436.5,478.3418,446.5,482.3418,442.5,478.3418" style="stroke:#181818;stroke-width:1.0;"/><line style="stroke:#181818;stroke-width:1.0;stroke-dasharray:2.0,2.0;" x1="440.5" x2="698.5" y1="478.3418" y2="478.3418"/><text fill="#000000" font-family="sans-serif" font-size="13" lengthAdjust="spacing" textLength="25" x="452.5" y="473.5996">true</text><polygon fill="#181818" points="815.5,534.2734,825.5,538.2734,815.5,542.2734,819.5,538.2734" style="stroke:#181818;stroke-width:1.0;"/><line style="stroke:#181818;stroke-width:1.0;" x1="435.5" x2="821.5" y1="538.2734" y2="538.2734"/><text fill="#000000" font-family="sans-serif" font-size="13" lengthAdjust="spacing" textLength="67" x="442.5" y="502.9102">balanceOf(</text><text fill="#000000" font-family="sans-serif" font-size="13" lengthAdjust="spacing" textLength="92" x="450.5" y="518.2207">0x1816..0087)</text><text fill="#000000" font-family="sans-serif" font-size="13" lengthAdjust="spacing" textLength="62" x="442.5" y="533.5313">2,534 gas</text><polygon fill="#181818" points="446.5,563.584,436.5,567.584,446.5,571.584,442.5,567.584" style="stroke:#181818;stroke-width:1.0;"/><line style="stroke:#181818;stroke-width:1.0;stroke-dasharray:2.0,2.0;" x1="440.5" x2="831.5" y1="567.584" y2="567.584"/><text fill="#000000" font-family="sans-serif" font-size="13" lengthAdjust="spacing" textLength="188" x="452.5" y="562.8418">52,,011,000,000,000,000,000</text><polygon fill="#181818" points="815.5,623.5156,825.5,627.5156,815.5,631.5156,819.5,627.5156" style="stroke:#181818;stroke-width:1.0;"/><line style="stroke:#181818;stroke-width:1.0;" x1="435.5" x2="821.5" y1="627.5156" y2="627.5156"/><text fill="#000000" font-family="sans-serif" font-size="13" lengthAdjust="spacing" textLength="61" x="442.5" y="592.1523">withdraw(</text><text fill="#000000" font-family="sans-serif" font-size="13" lengthAdjust="spacing" textLength="225" x="450.5" y="607.4629">wad: 32,,000,000,000,000,000,000)</text><text fill="#000000" font-family="sans-serif" font-size="13" lengthAdjust="spacing" textLength="70" x="442.5" y="622.7734">12,591 gas</text><polygon fill="#181818" points="451.5,683.4473,441.5,687.4473,451.5,691.4473,447.5,687.4473" style="stroke:#181818;stroke-width:1.0;"/><line style="stroke:#181818;stroke-width:1.0;" x1="445.5" x2="826.5" y1="687.4473" y2="687.4473"/><text fill="#000000" font-family="sans-serif" font-size="13" lengthAdjust="spacing" textLength="58" x="457.5" y="652.084">fallback()</text><text fill="#000000" font-family="sans-serif" font-size="13" lengthAdjust="spacing" textLength="50" x="457.5" y="667.3945">651 gas</text><text fill="#000000" font-family="sans-serif" font-size="13" lengthAdjust="spacing" textLength="45" x="457.5" y="682.7051">32 ETH</text><polygon fill="#181818" points="682.5,743.3789,692.5,747.3789,682.5,751.3789,686.5,747.3789" style="stroke:#181818;stroke-width:1.0;"/><line style="stroke:#181818;stroke-width:1.0;" x1="440.5" x2="688.5" y1="747.3789" y2="747.3789"/><text fill="#000000" font-family="sans-serif" font-size="13" lengthAdjust="spacing" textLength="78" x="447.5" y="712.0156">getContract(</text><text fill="#000000" font-family="sans-serif" font-size="13" lengthAdjust="spacing" textLength="227" x="455.5" y="727.3262">contractKey: 0xfa35f8e3..e793c5e7)</text><text fill="#000000" font-family="sans-serif" font-size="13" lengthAdjust="spacing" textLength="62" x="447.5" y="742.6367">3,134 gas</text><polygon fill="#181818" points="451.5,772.6895,441.5,776.6895,451.5,780.6895,447.5,776.6895" style="stroke:#181818;stroke-width:1.0;"/><line style="stroke:#181818;stroke-width:1.0;stroke-dasharray:2.0,2.0;" x1="445.5" x2="698.5" y1="776.6895" y2="776.6895"/><text fill="#000000" font-family="sans-serif" font-size="13" lengthAdjust="spacing" textLength="88" x="457.5" y="771.9473">0x91E6..A338</text><polygon fill="#181818" points="966,878.5527,976,882.5527,966,886.5527,970,882.5527" style="stroke:#181818;stroke-width:1.0;"/><line style="stroke:#181818;stroke-width:1.0;" x1="440.5" x2="972" y1="882.5527" y2="882.5527"/><text fill="#000000" font-family="sans-serif" font-size="13" lengthAdjust="spacing" textLength="38" x="447.5" y="801.2578">stake(</text><text fill="#000000" font-family="sans-serif" font-size="13" lengthAdjust="spacing" textLength="206" x="455.5" y="816.5684">pubkey: 0xb8d135d9..6352fdda,</text><text fill="#000000" font-family="sans-serif" font-size="13" lengthAdjust="spacing" textLength="223" x="455.5" y="831.8789">signature: 0x814422d4..34598387,</text><text fill="#000000" font-family="sans-serif" font-size="13" lengthAdjust="spacing" textLength="264" x="455.5" y="847.1895">depositDataRoot: 0x27d7ad5f..5881da15)</text><text fill="#000000" font-family="sans-serif" font-size="13" lengthAdjust="spacing" textLength="70" x="447.5" y="862.5">69,109 gas</text><text fill="#000000" font-family="sans-serif" font-size="13" lengthAdjust="spacing" textLength="45" x="447.5" y="877.8105">32 ETH</text><polygon fill="#181818" points="1267,984.416,1277,988.416,1267,992.416,1271,988.416" style="stroke:#181818;stroke-width:1.0;"/><line style="stroke:#181818;stroke-width:1.0;" x1="988" x2="1273" y1="988.416" y2="988.416"/><text fill="#000000" font-family="sans-serif" font-size="13" lengthAdjust="spacing" textLength="38" x="995" y="907.1211">stake(</text><text fill="#000000" font-family="sans-serif" font-size="13" lengthAdjust="spacing" textLength="206" x="1003" y="922.4316">pubkey: 0xb8d135d9..6352fdda,</text><text fill="#000000" font-family="sans-serif" font-size="13" lengthAdjust="spacing" textLength="223" x="1003" y="937.7422">signature: 0x814422d4..34598387,</text><text fill="#000000" font-family="sans-serif" font-size="13" lengthAdjust="spacing" textLength="264" x="1003" y="953.0527">depositDataRoot: 0x27d7ad5f..5881da15)</text><text fill="#000000" font-family="sans-serif" font-size="13" lengthAdjust="spacing" textLength="70" x="995" y="968.3633">48,755 gas</text><text fill="#000000" font-family="sans-serif" font-size="13" lengthAdjust="spacing" textLength="45" x="995" y="983.6738">32 ETH</text><polygon fill="#181818" points="1414.5,1029.0371,1424.5,1033.0371,1414.5,1037.0371,1418.5,1033.0371" style="stroke:#181818;stroke-width:1.0;"/><line style="stroke:#181818;stroke-width:1.0;" x1="1289" x2="1420.5" y1="1033.0371" y2="1033.0371"/><text fill="#000000" font-family="sans-serif" font-size="13" lengthAdjust="spacing" textLength="107" x="1296" y="1012.9844">implementation()</text><text fill="#000000" font-family="sans-serif" font-size="13" lengthAdjust="spacing" textLength="62" x="1296" y="1028.2949">2,308 gas</text><polygon fill="#181818" points="1300,1058.3477,1290,1062.3477,1300,1066.3477,1296,1062.3477" style="stroke:#181818;stroke-width:1.0;"/><line style="stroke:#181818;stroke-width:1.0;stroke-dasharray:2.0,2.0;" x1="1294" x2="1430.5" y1="1062.3477" y2="1062.3477"/><text fill="#000000" font-family="sans-serif" font-size="13" lengthAdjust="spacing" textLength="88" x="1306" y="1057.6055">0x5c86..9dA7</text><polygon fill="#181818" points="1606,1179.5215,1616,1183.5215,1606,1187.5215,1610,1183.5215" style="stroke:#181818;stroke-width:1.0;"/><line style="stroke:#181818;stroke-width:1.0;" x1="1289" x2="1612" y1="1183.5215" y2="1183.5215"/><text fill="#000000" font-family="sans-serif" font-size="13" lengthAdjust="spacing" textLength="51" x="1296" y="1086.916">deposit(</text><text fill="#000000" font-family="sans-serif" font-size="13" lengthAdjust="spacing" textLength="206" x="1304" y="1102.2266">pubkey: 0xb8d135d9..6352fdda,</text><text fill="#000000" font-family="sans-serif" font-size="13" lengthAdjust="spacing" textLength="302" x="1304" y="1117.5371">withdrawal_credentials: 0x01000000..6a2fe35e,</text><text fill="#000000" font-family="sans-serif" font-size="13" lengthAdjust="spacing" textLength="223" x="1304" y="1132.8477">signature: 0x814422d4..34598387,</text><text fill="#000000" font-family="sans-serif" font-size="13" lengthAdjust="spacing" textLength="273" x="1304" y="1148.1582">deposit_data_root: 0x27d7ad5f..5881da15)</text><text fill="#000000" font-family="sans-serif" font-size="13" lengthAdjust="spacing" textLength="70" x="1296" y="1163.4688">25,350 gas</text><text fill="#000000" font-family="sans-serif" font-size="13" lengthAdjust="spacing" textLength="45" x="1296" y="1178.7793">32 ETH</text><polygon fill="#181818" points="1300,1193.5215,1290,1197.5215,1300,1201.5215,1296,1197.5215" style="stroke:#181818;stroke-width:1.0;"/><line style="stroke:#181818;stroke-width:1.0;stroke-dasharray:2.0,2.0;" x1="1294" x2="1622" y1="1197.5215" y2="1197.5215"/><polygon fill="#181818" points="999,1207.5215,989,1211.5215,999,1215.5215,995,1211.5215" style="stroke:#181818;stroke-width:1.0;"/><line style="stroke:#181818;stroke-width:1.0;stroke-dasharray:2.0,2.0;" x1="993" x2="1283" y1="1211.5215" y2="1211.5215"/><path d="M1289,1224.5215 L1289,1264.5215 L1380,1264.5215 L1380,1234.5215 L1370,1224.5215 L1289,1224.5215 " fill="#FEFFDD" style="stroke:#181818;stroke-width:0.5;"/><path d="M1370,1224.5215 L1370,1234.5215 L1380,1234.5215 L1370,1224.5215 " fill="#FEFFDD" style="stroke:#181818;stroke-width:0.5;"/><text fill="#000000" font-family="sans-serif" font-size="13" lengthAdjust="spacing" textLength="4" x="1295" y="1242.0898">&#160;</text><text fill="#000000" font-family="sans-serif" font-size="13" lengthAdjust="spacing" textLength="70" x="1295" y="1257.4004">21,097 gas</text><polygon fill="#181818" points="451.5,1272.1426,441.5,1276.1426,451.5,1280.1426,447.5,1276.1426" style="stroke:#181818;stroke-width:1.0;"/><line style="stroke:#181818;stroke-width:1.0;stroke-dasharray:2.0,2.0;" x1="445.5" x2="982" y1="1276.1426" y2="1276.1426"/><path d="M988,1289.1426 L988,1329.1426 L1079,1329.1426 L1079,1299.1426 L1069,1289.1426 L988,1289.1426 " fill="#FEFFDD" style="stroke:#181818;stroke-width:0.5;"/><path d="M1069,1289.1426 L1069,1299.1426 L1079,1299.1426 L1069,1289.1426 " fill="#FEFFDD" style="stroke:#181818;stroke-width:0.5;"/><text fill="#000000" font-family="sans-serif" font-size="13" lengthAdjust="spacing" textLength="4" x="994" y="1306.7109">&#160;</text><text fill="#000000" font-family="sans-serif" font-size="13" lengthAdjust="spacing" textLength="70" x="994" y="1322.0215">20,354 gas</text><polygon fill="#181818" points="815.5,1336.7637,825.5,1340.7637,815.5,1344.7637,819.5,1340.7637" style="stroke:#181818;stroke-width:1.0;"/><line style="stroke:#181818;stroke-width:1.0;stroke-dasharray:2.0,2.0;" x1="435.5" x2="821.5" y1="1340.7637" y2="1340.7637"/><polygon fill="#181818" points="446.5,1350.7637,436.5,1354.7637,446.5,1358.7637,442.5,1354.7637" style="stroke:#181818;stroke-width:1.0;"/><line style="stroke:#181818;stroke-width:1.0;stroke-dasharray:2.0,2.0;" x1="440.5" x2="831.5" y1="1354.7637" y2="1354.7637"/><path d="M837,1367.7637 L837,1407.7637 L928,1407.7637 L928,1377.7637 L918,1367.7637 L837,1367.7637 " fill="#FEFFDD" style="stroke:#181818;stroke-width:0.5;"/><path d="M918,1367.7637 L918,1377.7637 L928,1377.7637 L918,1367.7637 " fill="#FEFFDD" style="stroke:#181818;stroke-width:0.5;"/><text fill="#000000" font-family="sans-serif" font-size="13" lengthAdjust="spacing" textLength="4" x="843" y="1385.332">&#160;</text><text fill="#000000" font-family="sans-serif" font-size="13" lengthAdjust="spacing" textLength="70" x="843" y="1400.6426">11,940 gas</text><polygon fill="#181818" points="121.5,1415.3848,111.5,1419.3848,121.5,1423.3848,117.5,1419.3848" style="stroke:#181818;stroke-width:1.0;"/><line style="stroke:#181818;stroke-width:1.0;stroke-dasharray:2.0,2.0;" x1="115.5" x2="429.5" y1="1419.3848" y2="1419.3848"/><path d="M435,1432.3848 L435,1472.3848 L526,1472.3848 L526,1442.3848 L516,1432.3848 L435,1432.3848 " fill="#FEFFDD" style="stroke:#181818;stroke-width:0.5;"/><path d="M516,1432.3848 L516,1442.3848 L526,1442.3848 L516,1432.3848 " fill="#FEFFDD" style="stroke:#181818;stroke-width:0.5;"/><text fill="#000000" font-family="sans-serif" font-size="13" lengthAdjust="spacing" textLength="4" x="441" y="1449.9531">&#160;</text><text fill="#000000" font-family="sans-serif" font-size="13" lengthAdjust="spacing" textLength="70" x="441" y="1465.2637">87,560 gas</text><path d="M294,1483.0059 L294,1538.0059 L567,1538.0059 L567,1493.0059 L557,1483.0059 L294,1483.0059 " fill="#00FFFF" style="stroke:#181818;stroke-width:0.5;"/><path d="M557,1483.0059 L557,1493.0059 L567,1493.0059 L557,1483.0059 " fill="#00FFFF" style="stroke:#181818;stroke-width:0.5;"/><text fill="#000000" font-family="sans-serif" font-size="13" lengthAdjust="spacing" textLength="71" x="300" y="1500.5742">ETHStaked:</text><text fill="#000000" font-family="sans-serif" font-size="13" lengthAdjust="spacing" textLength="223" x="308" y="1515.8848">valPubKey: 0xb8d135d9..6352fdda,</text><text fill="#000000" font-family="sans-serif" font-size="13" lengthAdjust="spacing" textLength="244" x="308" y="1531.1953">amount: 32,,000,000,000,000,000,000</text><path d="M707,1483.0059 L707,1538.0059 L957,1538.0059 L957,1493.0059 L947,1483.0059 L707,1483.0059 " fill="#00FFFF" style="stroke:#181818;stroke-width:0.5;"/><path d="M947,1483.0059 L947,1493.0059 L957,1493.0059 L947,1483.0059 " fill="#00FFFF" style="stroke:#181818;stroke-width:0.5;"/><text fill="#000000" font-family="sans-serif" font-size="13" lengthAdjust="spacing" textLength="73" x="713" y="1500.5742">Withdrawal:</text><text fill="#000000" font-family="sans-serif" font-size="13" lengthAdjust="spacing" textLength="119" x="721" y="1515.8848">src: 0x1816..0087,</text><text fill="#000000" font-family="sans-serif" font-size="13" lengthAdjust="spacing" textLength="221" x="721" y="1531.1953">wad: 32,,000,000,000,000,000,000</text><path d="M1168,1483.0059 L1168,1523.0059 L1399,1523.0059 L1399,1493.0059 L1389,1483.0059 L1168,1483.0059 " fill="#00FFFF" style="stroke:#181818;stroke-width:0.5;"/><path d="M1389,1483.0059 L1389,1493.0059 L1399,1493.0059 L1389,1483.0059 " fill="#00FFFF" style="stroke:#181818;stroke-width:0.5;"/><text fill="#000000" font-family="sans-serif" font-size="13" lengthAdjust="spacing" textLength="103" x="1174" y="1500.5742">EigenPodStaked:</text><text fill="#000000" font-family="sans-serif" font-size="13" lengthAdjust="spacing" textLength="202" x="1182" y="1515.8848">pubkey: 0xb8d135d9..6352fdda</text><path d="M1457,1483.0059 L1457,1584.0059 L1788,1584.0059 L1788,1493.0059 L1778,1483.0059 L1457,1483.0059 " fill="#00FFFF" style="stroke:#181818;stroke-width:0.5;"/><path d="M1778,1483.0059 L1778,1493.0059 L1788,1493.0059 L1778,1483.0059 " fill="#00FFFF" style="stroke:#181818;stroke-width:0.5;"/><text fill="#000000" font-family="sans-serif" font-size="13" lengthAdjust="spacing" textLength="87" x="1463" y="1500.5742">DepositEvent:</text><text fill="#000000" font-family="sans-serif" font-size="13" lengthAdjust="spacing" textLength="206" x="1471" y="1515.8848">pubkey: 0xb8d135d9..6352fdda,</text><text fill="#000000" font-family="sans-serif" font-size="13" lengthAdjust="spacing" textLength="302" x="1471" y="1531.1953">withdrawal_credentials: 0x01000000..6a2fe35e,</text><text fill="#000000" font-family="sans-serif" font-size="13" lengthAdjust="spacing" textLength="204" x="1471" y="1546.5059">amount: 0x0040597307000000,</text><text fill="#000000" font-family="sans-serif" font-size="13" lengthAdjust="spacing" textLength="223" x="1471" y="1561.8164">signature: 0x814422d4..34598387,</text><text fill="#000000" font-family="sans-serif" font-size="13" lengthAdjust="spacing" textLength="183" x="1471" y="1577.127">index: 0xc05f150000000000</text><!--SRC=[nLPjRwD64FxEhrXTl-GaIdTP5bWhYfGswLMwv1gbEUL3Sue6Td5GCBWO9xv_VpEBmNRYlDod8bbcOEQPjsTcwSgkieol4gsr2YMFKcvoAK10PdWgma8bXOwr2GtFGeD_KQP3BV0cowNCTPmKaOuXzBmSvbtPr6m6PLtRpcTPrUJtJ6WLYqWfdvqtjS-uOCVpbeKyZ9Y89ZoQICK-dLzva7TDopxmbJAM1u4ijFZ0OC58985vSsYxCY_dK7Ua9r8H1m7dQUBqI2I17HvUjENCidywkBVcwEZmy4jZx8cjx1JGnT7HKw0YJNGGH75ME20IITW3T7PvzKTJ5-NqEKZEGmY2ECz31q8Y2GXotS9yRWqxxUviIoW7rwTNVtsaExhHpx6qi9WPI9awB199GApJSchhC_ZU0pdfeZ7dKCFKxiai2YapAvLrG2IIy2BGSmG5b9RcYUoRWI89YF1rFct1MCWg-xk5lAcV6tEyi4Eg06TC8Wbet5km4pjl5cN7iAXTYmIWMDRFDeyyhsuwove7suvayBuqTMuds7JbVK9eR1I9KWPX72l9DRBhqwCjlNDOiJyjlagIG6ikKwJvrYkqQzgo-uwc0UyV4znPEIixHDUXd-ZKFVgwi8RyHNwSnjxL6fKZ_sA6NVHiRHZ5wNaZONyz6aavOGiY4LBWuAPcx06gqX0P5nFsBprWZ8ztZCsNsRt5cFWgIusGoc0JOwd2mXZm1wL5EQsXMxOKnIeLKHJYREBSH4gdCar6FTFNymGwk6oQZhJ3n2HWL144Aas50Q6-VVjuKw-JOrDOq3IM3u1b7pBmnld2j8OHcR0xM5msbNLPjNX3y3g9uuGdsFge04thmWK3UTuiQnU0EXb67DrgFr7fhjC1tsijPbYphbtQdG26yPgm32f0AlnTk12sjm92XxwIqIxqO3b0gz3tkH0-KlFfxmMFZsLtPrfuT0uV0LaX2UEvFVseh1W5ic5_5EEUs25B0LMLGNv_WEQnShOtjGmTqTxRcQaTPyX5cg-5ppsp2f2gIAt4zP1ecIjBzPA-U5glfwsWxNIA5Jx6XRJZUTXIQwexdsyI-JqaVXU1gL3Q5rplhzKGd3VkKenuM8V_MyHHYjHN-oCUWlF6fOqH3-jtmihPlB8pMtT0P-w1uxhaJyPeKD_qJkKfzawRusG7TzZCao7qzzLYc0IeRlFM6eocX6f11bmuI1no_3GeoCtF5kyMzoFSjg-LBrI-L7n_-OQCXjJ7VtUMjENqhcDDiKK1XCCbe1DNmVtA6uQZCaVVqOxoVgFDti1D87mTyLSyR3R0JOtbK76ll7K0ZXFt2_ot10zpxhzE9fuxLIwMsUSNMuOgCEjNy2iRQ-ia-urj78-BgdTyFRQUF2_QVBApUydNMwln1KSZBzSPhZzDDcc-HiiNCCSlZnvp_Obn-e2CVGlHPV8pFD-gCdq1HLpfHE9fw2vw-zOGe4fP6xkYrpb6BHGVhqr-Fm00]--></g></svg>