<?xml version="1.0" encoding="us-ascii" standalone="no"?><svg xmlns="http://www.w3.org/2000/svg" xmlns:xlink="http://www.w3.org/1999/xlink" contentStyleType="text/css" height="2273px" preserveAspectRatio="none" style="width:1138px;height:2273px;background:#FFFFFF;" version="1.1" viewBox="0 0 1138 2273" width="1138px" zoomAndPan="magnify"><defs/><g><text fill="#000000" font-family="sans-serif" font-size="14" font-weight="bold" lengthAdjust="spacing" textLength="566" x="285" y="28.5352">0x7b71e3e7868d36af184b38fd7f6f7db351f402f0024118eb2ce2732bcdd46d11</text><text fill="#000000" font-family="sans-serif" font-size="14" lengthAdjust="spacing" textLength="386" x="375" y="2261.0547">holesky, block 1377258, Fri, 19 Apr 2024 11:53:00 GMT</text><rect fill="#FFFFFF" height="1482.4277" style="stroke:#181818;stroke-width:1.0;" width="10" x="227.5" y="292.7715"/><rect fill="#FFFFFF" height="29.3105" style="stroke:#181818;stroke-width:1.0;" width="10" x="496.5" y="368.0137"/><rect fill="#FFFFFF" height="29.3105" style="stroke:#181818;stroke-width:1.0;" width="10" x="496.5" y="457.2559"/><rect fill="#FFFFFF" height="29.3105" style="stroke:#181818;stroke-width:1.0;" width="10" x="496.5" y="546.498"/><rect fill="#FFFFFF" height="75.2422" style="stroke:#181818;stroke-width:1.0;" width="10" x="496.5" y="620.4297"/><rect fill="#FFFFFF" height="29.3105" style="stroke:#181818;stroke-width:1.0;" width="10" x="496.5" y="755.6035"/><rect fill="#FFFFFF" height="29.3105" style="stroke:#181818;stroke-width:1.0;" width="10" x="496.5" y="949.3984"/><rect fill="#FFFFFF" height="29.3105" style="stroke:#181818;stroke-width:1.0;" width="10" x="496.5" y="1143.1934"/><rect fill="#FFFFFF" height="29.3105" style="stroke:#181818;stroke-width:1.0;" width="10" x="630" y="860.1563"/><rect fill="#FFFFFF" height="29.3105" style="stroke:#181818;stroke-width:1.0;" width="10" x="630" y="1053.9512"/><rect fill="#FFFFFF" height="29.3105" style="stroke:#181818;stroke-width:1.0;" width="10" x="630" y="1247.7461"/><rect fill="#FFFFFF" height="75.2422" style="stroke:#181818;stroke-width:1.0;" width="10" x="630" y="1486.1621"/><rect fill="#FFFFFF" height="14" style="stroke:#181818;stroke-width:1.0;" width="10" x="630" y="1651.957"/><rect fill="#FFFFFF" height="373.5898" style="stroke:#181818;stroke-width:1.0;" width="10" x="884" y="1336.9883"/><rect fill="#FFFFFF" height="29.3105" style="stroke:#181818;stroke-width:1.0;" width="10" x="1051" y="1396.9199"/><line style="stroke:#181818;stroke-width:0.5;stroke-dasharray:5.0,5.0;" x1="107" x2="107" y1="118.9766" y2="2170.0313"/><line style="stroke:#181818;stroke-width:0.5;stroke-dasharray:5.0,5.0;" x1="232" x2="232" y1="118.9766" y2="2170.0313"/><line style="stroke:#181818;stroke-width:0.5;stroke-dasharray:5.0,5.0;" x1="501" x2="501" y1="118.9766" y2="2170.0313"/><line style="stroke:#181818;stroke-width:0.5;stroke-dasharray:5.0,5.0;" x1="635" x2="635" y1="118.9766" y2="2170.0313"/><line style="stroke:#181818;stroke-width:0.5;stroke-dasharray:5.0,5.0;" x1="889" x2="889" y1="118.9766" y2="2170.0313"/><line style="stroke:#181818;stroke-width:0.5;stroke-dasharray:5.0,5.0;" x1="1056" x2="1056" y1="118.9766" y2="2170.0313"/><text fill="#000000" font-family="sans-serif" font-size="14" lengthAdjust="spacing" textLength="94" x="57" y="116.0234">0x3c6b..5cb4</text><ellipse cx="107" cy="50.9883" fill="#E2E2F0" rx="8" ry="8" style="stroke:#181818;stroke-width:0.5;"/><path d="M107,58.9883 L107,85.9883 M94,66.9883 L120,66.9883 M107,85.9883 L94,100.9883 M107,85.9883 L120,100.9883 " fill="none" style="stroke:#181818;stroke-width:0.5;"/><text fill="#000000" font-family="sans-serif" font-size="14" lengthAdjust="spacing" textLength="94" x="57" y="2182.5664">0x3c6b..5cb4</text><ellipse cx="107" cy="2194.0195" fill="#E2E2F0" rx="8" ry="8" style="stroke:#181818;stroke-width:0.5;"/><path d="M107,2202.0195 L107,2229.0195 M94,2210.0195 L120,2210.0195 M107,2229.0195 L94,2244.0195 M107,2229.0195 L120,2244.0195 " fill="none" style="stroke:#181818;stroke-width:0.5;"/><rect fill="#E2E2F0" height="46.9766" rx="2.5" ry="2.5" style="stroke:#181818;stroke-width:0.5;" width="131" x="167" y="71"/><text fill="#000000" font-family="sans-serif" font-size="14" font-style="italic" lengthAdjust="spacing" textLength="117" x="174" y="91.5352">&#171;NodeDelegator&#187;</text><text fill="#000000" font-family="sans-serif" font-size="14" lengthAdjust="spacing" textLength="97" x="184" y="108.0234">0x326e..42b4</text><rect fill="#E2E2F0" height="46.9766" rx="2.5" ry="2.5" style="stroke:#181818;stroke-width:0.5;" width="131" x="167" y="2169.0313"/><text fill="#000000" font-family="sans-serif" font-size="14" font-style="italic" lengthAdjust="spacing" textLength="117" x="174" y="2189.5664">&#171;NodeDelegator&#187;</text><text fill="#000000" font-family="sans-serif" font-size="14" lengthAdjust="spacing" textLength="97" x="184" y="2206.0547">0x326e..42b4</text><rect fill="#E2E2F0" height="46.9766" rx="2.5" ry="2.5" style="stroke:#181818;stroke-width:0.5;" width="103" x="450" y="71"/><text fill="#000000" font-family="sans-serif" font-size="14" font-style="italic" lengthAdjust="spacing" textLength="85" x="459" y="91.5352">&#171;LRTConfig&#187;</text><text fill="#000000" font-family="sans-serif" font-size="14" lengthAdjust="spacing" textLength="89" x="457" y="108.0234">0xc1b4..cfe7</text><rect fill="#E2E2F0" height="46.9766" rx="2.5" ry="2.5" style="stroke:#181818;stroke-width:0.5;" width="103" x="450" y="2169.0313"/><text fill="#000000" font-family="sans-serif" font-size="14" font-style="italic" lengthAdjust="spacing" textLength="85" x="459" y="2189.5664">&#171;LRTConfig&#187;</text><text fill="#000000" font-family="sans-serif" font-size="14" lengthAdjust="spacing" textLength="89" x="457" y="2206.0547">0xc1b4..cfe7</text><rect fill="#E2E2F0" height="46.9766" rx="2.5" ry="2.5" style="stroke:#181818;stroke-width:0.5;" width="144" x="563" y="71"/><text fill="#000000" font-family="sans-serif" font-size="14" font-style="italic" lengthAdjust="spacing" textLength="130" x="570" y="91.5352">&#171;StrategyManager&#187;</text><text fill="#000000" font-family="sans-serif" font-size="14" lengthAdjust="spacing" textLength="94" x="588" y="108.0234">0xdfb5..d5b6</text><rect fill="#E2E2F0" height="46.9766" rx="2.5" ry="2.5" style="stroke:#181818;stroke-width:0.5;" width="144" x="563" y="2169.0313"/><text fill="#000000" font-family="sans-serif" font-size="14" font-style="italic" lengthAdjust="spacing" textLength="130" x="570" y="2189.5664">&#171;StrategyManager&#187;</text><text fill="#000000" font-family="sans-serif" font-size="14" lengthAdjust="spacing" textLength="94" x="588" y="2206.0547">0xdfb5..d5b6</text><rect fill="#E2E2F0" height="46.9766" rx="2.5" ry="2.5" style="stroke:#181818;stroke-width:0.5;" width="162" x="808" y="71"/><text fill="#000000" font-family="sans-serif" font-size="14" font-style="italic" lengthAdjust="spacing" textLength="148" x="815" y="91.5352">&#171;DelegationManager&#187;</text><text fill="#000000" font-family="sans-serif" font-size="14" lengthAdjust="spacing" textLength="96" x="841" y="108.0234">0xa441..48e7</text><rect fill="#E2E2F0" height="46.9766" rx="2.5" ry="2.5" style="stroke:#181818;stroke-width:0.5;" width="162" x="808" y="2169.0313"/><text fill="#000000" font-family="sans-serif" font-size="14" font-style="italic" lengthAdjust="spacing" textLength="148" x="815" y="2189.5664">&#171;DelegationManager&#187;</text><text fill="#000000" font-family="sans-serif" font-size="14" lengthAdjust="spacing" textLength="96" x="841" y="2206.0547">0xa441..48e7</text><rect fill="#E2E2F0" height="46.9766" rx="2.5" ry="2.5" style="stroke:#181818;stroke-width:0.5;" width="152" x="980" y="71"/><text fill="#000000" font-family="sans-serif" font-size="14" font-style="italic" lengthAdjust="spacing" textLength="138" x="987" y="91.5352">&#171;EigenPodManager&#187;</text><text fill="#000000" font-family="sans-serif" font-size="14" lengthAdjust="spacing" textLength="97" x="1007.5" y="108.0234">0x3077..e315</text><rect fill="#E2E2F0" height="46.9766" rx="2.5" ry="2.5" style="stroke:#181818;stroke-width:0.5;" width="152" x="980" y="2169.0313"/><text fill="#000000" font-family="sans-serif" font-size="14" font-style="italic" lengthAdjust="spacing" textLength="138" x="987" y="2189.5664">&#171;EigenPodManager&#187;</text><text fill="#000000" font-family="sans-serif" font-size="14" lengthAdjust="spacing" textLength="97" x="1007.5" y="2206.0547">0x3077..e315</text><rect fill="#FFFFFF" height="1482.4277" style="stroke:#181818;stroke-width:1.0;" width="10" x="227.5" y="292.7715"/><rect fill="#FFFFFF" height="29.3105" style="stroke:#181818;stroke-width:1.0;" width="10" x="496.5" y="368.0137"/><rect fill="#FFFFFF" height="29.3105" style="stroke:#181818;stroke-width:1.0;" width="10" x="496.5" y="457.2559"/><rect fill="#FFFFFF" height="29.3105" style="stroke:#181818;stroke-width:1.0;" width="10" x="496.5" y="546.498"/><rect fill="#FFFFFF" height="75.2422" style="stroke:#181818;stroke-width:1.0;" width="10" x="496.5" y="620.4297"/><rect fill="#FFFFFF" height="29.3105" style="stroke:#181818;stroke-width:1.0;" width="10" x="496.5" y="755.6035"/><rect fill="#FFFFFF" height="29.3105" style="stroke:#181818;stroke-width:1.0;" width="10" x="496.5" y="949.3984"/><rect fill="#FFFFFF" height="29.3105" style="stroke:#181818;stroke-width:1.0;" width="10" x="496.5" y="1143.1934"/><rect fill="#FFFFFF" height="29.3105" style="stroke:#181818;stroke-width:1.0;" width="10" x="630" y="860.1563"/><rect fill="#FFFFFF" height="29.3105" style="stroke:#181818;stroke-width:1.0;" width="10" x="630" y="1053.9512"/><rect fill="#FFFFFF" height="29.3105" style="stroke:#181818;stroke-width:1.0;" width="10" x="630" y="1247.7461"/><rect fill="#FFFFFF" height="75.2422" style="stroke:#181818;stroke-width:1.0;" width="10" x="630" y="1486.1621"/><rect fill="#FFFFFF" height="14" style="stroke:#181818;stroke-width:1.0;" width="10" x="630" y="1651.957"/><rect fill="#FFFFFF" height="373.5898" style="stroke:#181818;stroke-width:1.0;" width="10" x="884" y="1336.9883"/><rect fill="#FFFFFF" height="29.3105" style="stroke:#181818;stroke-width:1.0;" width="10" x="1051" y="1396.9199"/><path d="M5,133.9766 L5,250.9766 L209,250.9766 L209,143.9766 L199,133.9766 L5,133.9766 " fill="#FEFFDD" style="stroke:#181818;stroke-width:0.5;"/><path d="M199,133.9766 L199,143.9766 L209,143.9766 L199,133.9766 " fill="#FEFFDD" style="stroke:#181818;stroke-width:0.5;"/><text fill="#000000" font-family="sans-serif" font-size="13" lengthAdjust="spacing" textLength="64" x="11" y="151.5449">Nonce: 41</text><text fill="#000000" font-family="sans-serif" font-size="13" lengthAdjust="spacing" textLength="183" x="11" y="166.8555">Gas Price: 3.832512978 Gwei</text><text fill="#000000" font-family="sans-serif" font-size="13" lengthAdjust="spacing" textLength="177" x="11" y="182.166">Max Fee: 8.757134516 Gwei</text><text fill="#000000" font-family="sans-serif" font-size="13" lengthAdjust="spacing" textLength="137" x="11" y="197.4766">Max Priority: 1.5 Gwei</text><text fill="#000000" font-family="sans-serif" font-size="13" lengthAdjust="spacing" textLength="119" x="11" y="212.7871">Gas Limit: 228,553</text><text fill="#000000" font-family="sans-serif" font-size="13" lengthAdjust="spacing" textLength="118" x="11" y="228.0977">Gas Used: 203,482</text><text fill="#000000" font-family="sans-serif" font-size="13" lengthAdjust="spacing" textLength="114" x="11" y="243.4082">Tx Fee: 0.001 ETH</text><polygon fill="#181818" points="215.5,288.7715,225.5,292.7715,215.5,296.7715,219.5,292.7715" style="stroke:#181818;stroke-width:1.0;"/><line style="stroke:#181818;stroke-width:1.0;" x1="107" x2="221.5" y1="292.7715" y2="292.7715"/><text fill="#000000" font-family="sans-serif" font-size="13" lengthAdjust="spacing" textLength="77" x="114" y="272.7188">undelegate()</text><text fill="#000000" font-family="sans-serif" font-size="13" lengthAdjust="spacing" textLength="78" x="114" y="288.0293">203,482 gas</text><polygon fill="#181818" points="484.5,364.0137,494.5,368.0137,484.5,372.0137,488.5,368.0137" style="stroke:#181818;stroke-width:1.0;"/><line style="stroke:#181818;stroke-width:1.0;" x1="237.5" x2="490.5" y1="368.0137" y2="368.0137"/><text fill="#000000" font-family="sans-serif" font-size="13" lengthAdjust="spacing" textLength="53" x="244.5" y="317.3398">hasRole(</text><text fill="#000000" font-family="sans-serif" font-size="13" lengthAdjust="spacing" textLength="181" x="252.5" y="332.6504">role: 0xaf290d86..30c3a02c,</text><text fill="#000000" font-family="sans-serif" font-size="13" lengthAdjust="spacing" textLength="150" x="252.5" y="347.9609">account: 0x3C6B..5CB4)</text><text fill="#000000" font-family="sans-serif" font-size="13" lengthAdjust="spacing" textLength="62" x="244.5" y="363.2715">9,758 gas</text><polygon fill="#181818" points="248.5,393.3242,238.5,397.3242,248.5,401.3242,244.5,397.3242" style="stroke:#181818;stroke-width:1.0;"/><line style="stroke:#181818;stroke-width:1.0;stroke-dasharray:2.0,2.0;" x1="242.5" x2="500.5" y1="397.3242" y2="397.3242"/><text fill="#000000" font-family="sans-serif" font-size="13" lengthAdjust="spacing" textLength="25" x="254.5" y="392.582">true</text><polygon fill="#181818" points="484.5,453.2559,494.5,457.2559,484.5,461.2559,488.5,457.2559" style="stroke:#181818;stroke-width:1.0;"/><line style="stroke:#181818;stroke-width:1.0;" x1="237.5" x2="490.5" y1="457.2559" y2="457.2559"/><text fill="#000000" font-family="sans-serif" font-size="13" lengthAdjust="spacing" textLength="78" x="244.5" y="421.8926">getContract(</text><text fill="#000000" font-family="sans-serif" font-size="13" lengthAdjust="spacing" textLength="232" x="252.5" y="437.2031">contractKey: 0xe6f126e6..199de5b5)</text><text fill="#000000" font-family="sans-serif" font-size="13" lengthAdjust="spacing" textLength="62" x="244.5" y="452.5137">3,134 gas</text><polygon fill="#181818" points="248.5,482.5664,238.5,486.5664,248.5,490.5664,244.5,486.5664" style="stroke:#181818;stroke-width:1.0;"/><line style="stroke:#181818;stroke-width:1.0;stroke-dasharray:2.0,2.0;" x1="242.5" x2="500.5" y1="486.5664" y2="486.5664"/><text fill="#000000" font-family="sans-serif" font-size="13" lengthAdjust="spacing" textLength="88" x="254.5" y="481.8242">0xA441..48e7</text><polygon fill="#181818" points="484.5,542.498,494.5,546.498,484.5,550.498,488.5,546.498" style="stroke:#181818;stroke-width:1.0;"/><line style="stroke:#181818;stroke-width:1.0;" x1="237.5" x2="490.5" y1="546.498" y2="546.498"/><text fill="#000000" font-family="sans-serif" font-size="13" lengthAdjust="spacing" textLength="78" x="244.5" y="511.1348">getContract(</text><text fill="#000000" font-family="sans-serif" font-size="13" lengthAdjust="spacing" textLength="232" x="252.5" y="526.4453">contractKey: 0x6bc2c477..ab5a19ec)</text><text fill="#000000" font-family="sans-serif" font-size="13" lengthAdjust="spacing" textLength="62" x="244.5" y="541.7559">3,134 gas</text><polygon fill="#181818" points="248.5,571.8086,238.5,575.8086,248.5,579.8086,244.5,575.8086" style="stroke:#181818;stroke-width:1.0;"/><line style="stroke:#181818;stroke-width:1.0;stroke-dasharray:2.0,2.0;" x1="242.5" x2="500.5" y1="575.8086" y2="575.8086"/><text fill="#000000" font-family="sans-serif" font-size="13" lengthAdjust="spacing" textLength="86" x="254.5" y="571.0664">0xdfB5..D5b6</text><polygon fill="#181818" points="484.5,616.4297,494.5,620.4297,484.5,624.4297,488.5,620.4297" style="stroke:#181818;stroke-width:1.0;"/><line style="stroke:#181818;stroke-width:1.0;" x1="237.5" x2="490.5" y1="620.4297" y2="620.4297"/><text fill="#000000" font-family="sans-serif" font-size="13" lengthAdjust="spacing" textLength="150" x="244.5" y="600.377">getSupportedAssetList()</text><text fill="#000000" font-family="sans-serif" font-size="13" lengthAdjust="spacing" textLength="70" x="244.5" y="615.6875">10,144 gas</text><polygon fill="#181818" points="248.5,691.6719,238.5,695.6719,248.5,699.6719,244.5,695.6719" style="stroke:#181818;stroke-width:1.0;"/><line style="stroke:#181818;stroke-width:1.0;stroke-dasharray:2.0,2.0;" x1="242.5" x2="500.5" y1="695.6719" y2="695.6719"/><text fill="#000000" font-family="sans-serif" font-size="13" lengthAdjust="spacing" textLength="4" x="254.5" y="644.998">[</text><text fill="#000000" font-family="sans-serif" font-size="13" lengthAdjust="spacing" textLength="106" x="262.5" y="660.3086">0: 0x3F1c..5034,</text><text fill="#000000" font-family="sans-serif" font-size="13" lengthAdjust="spacing" textLength="107" x="262.5" y="675.6191">1: 0x7322..64F1,</text><text fill="#000000" font-family="sans-serif" font-size="13" lengthAdjust="spacing" textLength="108" x="262.5" y="690.9297">2: 0x9437..3848]</text><polygon fill="#181818" points="484.5,751.6035,494.5,755.6035,484.5,759.6035,488.5,755.6035" style="stroke:#181818;stroke-width:1.0;"/><line style="stroke:#181818;stroke-width:1.0;" x1="237.5" x2="490.5" y1="755.6035" y2="755.6035"/><text fill="#000000" font-family="sans-serif" font-size="13" lengthAdjust="spacing" textLength="88" x="244.5" y="720.2402">assetStrategy(</text><text fill="#000000" font-family="sans-serif" font-size="13" lengthAdjust="spacing" textLength="134" x="252.5" y="735.5508">token: 0x3F1c..5034)</text><text fill="#000000" font-family="sans-serif" font-size="13" lengthAdjust="spacing" textLength="62" x="244.5" y="750.8613">3,176 gas</text><polygon fill="#181818" points="248.5,780.9141,238.5,784.9141,248.5,788.9141,244.5,784.9141" style="stroke:#181818;stroke-width:1.0;"/><line style="stroke:#181818;stroke-width:1.0;stroke-dasharray:2.0,2.0;" x1="242.5" x2="500.5" y1="784.9141" y2="784.9141"/><text fill="#000000" font-family="sans-serif" font-size="13" lengthAdjust="spacing" textLength="149" x="254.5" y="780.1719">strategy: 0x7D70..63d3</text><polygon fill="#181818" points="618,856.1563,628,860.1563,618,864.1563,622,860.1563" style="stroke:#181818;stroke-width:1.0;"/><line style="stroke:#181818;stroke-width:1.0;" x1="237.5" x2="624" y1="860.1563" y2="860.1563"/><text fill="#000000" font-family="sans-serif" font-size="13" lengthAdjust="spacing" textLength="135" x="244.5" y="809.4824">stakerStrategyShares(</text><text fill="#000000" font-family="sans-serif" font-size="13" lengthAdjust="spacing" textLength="90" x="252.5" y="824.793">0x326E..42B4,</text><text fill="#000000" font-family="sans-serif" font-size="13" lengthAdjust="spacing" textLength="94" x="252.5" y="840.1035">0x7D70..63d3)</text><text fill="#000000" font-family="sans-serif" font-size="13" lengthAdjust="spacing" textLength="70" x="244.5" y="855.4141">10,109 gas</text><polygon fill="#181818" points="248.5,885.4668,238.5,889.4668,248.5,893.4668,244.5,889.4668" style="stroke:#181818;stroke-width:1.0;"/><line style="stroke:#181818;stroke-width:1.0;stroke-dasharray:2.0,2.0;" x1="242.5" x2="634" y1="889.4668" y2="889.4668"/><text fill="#000000" font-family="sans-serif" font-size="13" lengthAdjust="spacing" textLength="164" x="254.5" y="884.7246">501,938,038,686,208,529</text><polygon fill="#181818" points="484.5,945.3984,494.5,949.3984,484.5,953.3984,488.5,949.3984" style="stroke:#181818;stroke-width:1.0;"/><line style="stroke:#181818;stroke-width:1.0;" x1="237.5" x2="490.5" y1="949.3984" y2="949.3984"/><text fill="#000000" font-family="sans-serif" font-size="13" lengthAdjust="spacing" textLength="88" x="244.5" y="914.0352">assetStrategy(</text><text fill="#000000" font-family="sans-serif" font-size="13" lengthAdjust="spacing" textLength="135" x="252.5" y="929.3457">token: 0x7322..64F1)</text><text fill="#000000" font-family="sans-serif" font-size="13" lengthAdjust="spacing" textLength="62" x="244.5" y="944.6563">3,176 gas</text><polygon fill="#181818" points="248.5,974.709,238.5,978.709,248.5,982.709,244.5,978.709" style="stroke:#181818;stroke-width:1.0;"/><line style="stroke:#181818;stroke-width:1.0;stroke-dasharray:2.0,2.0;" x1="242.5" x2="500.5" y1="978.709" y2="978.709"/><text fill="#000000" font-family="sans-serif" font-size="13" lengthAdjust="spacing" textLength="143" x="254.5" y="973.9668">strategy: 0x3A8f..c4E0</text><polygon fill="#181818" points="618,1049.9512,628,1053.9512,618,1057.9512,622,1053.9512" style="stroke:#181818;stroke-width:1.0;"/><line style="stroke:#181818;stroke-width:1.0;" x1="237.5" x2="624" y1="1053.9512" y2="1053.9512"/><text fill="#000000" font-family="sans-serif" font-size="13" lengthAdjust="spacing" textLength="135" x="244.5" y="1003.2773">stakerStrategyShares(</text><text fill="#000000" font-family="sans-serif" font-size="13" lengthAdjust="spacing" textLength="90" x="252.5" y="1018.5879">0x326E..42B4,</text><text fill="#000000" font-family="sans-serif" font-size="13" lengthAdjust="spacing" textLength="88" x="252.5" y="1033.8984">0x3A8f..c4E0)</text><text fill="#000000" font-family="sans-serif" font-size="13" lengthAdjust="spacing" textLength="62" x="244.5" y="1049.209">3,609 gas</text><polygon fill="#181818" points="248.5,1079.2617,238.5,1083.2617,248.5,1087.2617,244.5,1083.2617" style="stroke:#181818;stroke-width:1.0;"/><line style="stroke:#181818;stroke-width:1.0;stroke-dasharray:2.0,2.0;" x1="242.5" x2="634" y1="1083.2617" y2="1083.2617"/><text fill="#000000" font-family="sans-serif" font-size="13" lengthAdjust="spacing" textLength="8" x="254.5" y="1078.5195">0</text><polygon fill="#181818" points="484.5,1139.1934,494.5,1143.1934,484.5,1147.1934,488.5,1143.1934" style="stroke:#181818;stroke-width:1.0;"/><line style="stroke:#181818;stroke-width:1.0;" x1="237.5" x2="490.5" y1="1143.1934" y2="1143.1934"/><text fill="#000000" font-family="sans-serif" font-size="13" lengthAdjust="spacing" textLength="88" x="244.5" y="1107.8301">assetStrategy(</text><text fill="#000000" font-family="sans-serif" font-size="13" lengthAdjust="spacing" textLength="136" x="252.5" y="1123.1406">token: 0x9437..3848)</text><text fill="#000000" font-family="sans-serif" font-size="13" lengthAdjust="spacing" textLength="62" x="244.5" y="1138.4512">3,176 gas</text><polygon fill="#181818" points="248.5,1168.5039,238.5,1172.5039,248.5,1176.5039,244.5,1172.5039" style="stroke:#181818;stroke-width:1.0;"/><line style="stroke:#181818;stroke-width:1.0;stroke-dasharray:2.0,2.0;" x1="242.5" x2="500.5" y1="1172.5039" y2="1172.5039"/><text fill="#000000" font-family="sans-serif" font-size="13" lengthAdjust="spacing" textLength="147" x="254.5" y="1167.7617">strategy: 0x0000..0000</text><polygon fill="#181818" points="618,1243.7461,628,1247.7461,618,1251.7461,622,1247.7461" style="stroke:#181818;stroke-width:1.0;"/><line style="stroke:#181818;stroke-width:1.0;" x1="237.5" x2="624" y1="1247.7461" y2="1247.7461"/><text fill="#000000" font-family="sans-serif" font-size="13" lengthAdjust="spacing" textLength="135" x="244.5" y="1197.0723">stakerStrategyShares(</text><text fill="#000000" font-family="sans-serif" font-size="13" lengthAdjust="spacing" textLength="90" x="252.5" y="1212.3828">0x326E..42B4,</text><text fill="#000000" font-family="sans-serif" font-size="13" lengthAdjust="spacing" textLength="92" x="252.5" y="1227.6934">0x0000..0000)</text><text fill="#000000" font-family="sans-serif" font-size="13" lengthAdjust="spacing" textLength="62" x="244.5" y="1243.0039">3,609 gas</text><polygon fill="#181818" points="248.5,1273.0566,238.5,1277.0566,248.5,1281.0566,244.5,1277.0566" style="stroke:#181818;stroke-width:1.0;"/><line style="stroke:#181818;stroke-width:1.0;stroke-dasharray:2.0,2.0;" x1="242.5" x2="634" y1="1277.0566" y2="1277.0566"/><text fill="#000000" font-family="sans-serif" font-size="13" lengthAdjust="spacing" textLength="8" x="254.5" y="1272.3145">0</text><polygon fill="#181818" points="872,1332.9883,882,1336.9883,872,1340.9883,876,1336.9883" style="stroke:#181818;stroke-width:1.0;"/><line style="stroke:#181818;stroke-width:1.0;" x1="237.5" x2="878" y1="1336.9883" y2="1336.9883"/><text fill="#000000" font-family="sans-serif" font-size="13" lengthAdjust="spacing" textLength="73" x="244.5" y="1301.625">undelegate(</text><text fill="#000000" font-family="sans-serif" font-size="13" lengthAdjust="spacing" textLength="137" x="252.5" y="1316.9355">staker: 0x326E..42B4)</text><text fill="#000000" font-family="sans-serif" font-size="13" lengthAdjust="spacing" textLength="70" x="244.5" y="1332.2461">97,590 gas</text><polygon fill="#181818" points="1039,1392.9199,1049,1396.9199,1039,1400.9199,1043,1396.9199" style="stroke:#181818;stroke-width:1.0;"/><line style="stroke:#181818;stroke-width:1.0;" x1="894" x2="1045" y1="1396.9199" y2="1396.9199"/><text fill="#000000" font-family="sans-serif" font-size="13" lengthAdjust="spacing" textLength="109" x="901" y="1361.5566">podOwnerShares(</text><text fill="#000000" font-family="sans-serif" font-size="13" lengthAdjust="spacing" textLength="90" x="909" y="1376.8672">0x326E..42B4)</text><text fill="#000000" font-family="sans-serif" font-size="13" lengthAdjust="spacing" textLength="62" x="901" y="1392.1777">9,933 gas</text><polygon fill="#181818" points="905,1422.2305,895,1426.2305,905,1430.2305,901,1426.2305" style="stroke:#181818;stroke-width:1.0;"/><line style="stroke:#181818;stroke-width:1.0;stroke-dasharray:2.0,2.0;" x1="899" x2="1055" y1="1426.2305" y2="1426.2305"/><text fill="#000000" font-family="sans-serif" font-size="13" lengthAdjust="spacing" textLength="8" x="911" y="1421.4883">0</text><polygon fill="#181818" points="651,1482.1621,641,1486.1621,651,1490.1621,647,1486.1621" style="stroke:#181818;stroke-width:1.0;"/><line style="stroke:#181818;stroke-width:1.0;" x1="645" x2="883" y1="1486.1621" y2="1486.1621"/><text fill="#000000" font-family="sans-serif" font-size="13" lengthAdjust="spacing" textLength="80" x="657" y="1450.7988">getDeposits(</text><text fill="#000000" font-family="sans-serif" font-size="13" lengthAdjust="spacing" textLength="137" x="665" y="1466.1094">staker: 0x326E..42B4)</text><text fill="#000000" font-family="sans-serif" font-size="13" lengthAdjust="spacing" textLength="62" x="657" y="1481.4199">7,600 gas</text><polygon fill="#181818" points="872,1557.4043,882,1561.4043,872,1565.4043,876,1561.4043" style="stroke:#181818;stroke-width:1.0;"/><line style="stroke:#181818;stroke-width:1.0;stroke-dasharray:2.0,2.0;" x1="635" x2="878" y1="1561.4043" y2="1561.4043"/><text fill="#000000" font-family="sans-serif" font-size="13" lengthAdjust="spacing" textLength="4" x="642" y="1510.7305">[</text><text fill="#000000" font-family="sans-serif" font-size="13" lengthAdjust="spacing" textLength="114" x="650" y="1526.041">0: 0x7D70..63d3],</text><text fill="#000000" font-family="sans-serif" font-size="13" lengthAdjust="spacing" textLength="4" x="642" y="1541.3516">[</text><text fill="#000000" font-family="sans-serif" font-size="13" lengthAdjust="spacing" textLength="184" x="650" y="1556.6621">0: 501,938,038,686,208,529]</text><polygon fill="#181818" points="651,1647.957,641,1651.957,651,1655.957,647,1651.957" style="stroke:#181818;stroke-width:1.0;"/><line style="stroke:#181818;stroke-width:1.0;" x1="645" x2="883" y1="1651.957" y2="1651.957"/><text fill="#000000" font-family="sans-serif" font-size="13" lengthAdjust="spacing" textLength="91" x="657" y="1585.9727">removeShares(</text><text fill="#000000" font-family="sans-serif" font-size="13" lengthAdjust="spacing" textLength="137" x="665" y="1601.2832">staker: 0x326E..42B4,</text><text fill="#000000" font-family="sans-serif" font-size="13" lengthAdjust="spacing" textLength="153" x="665" y="1616.5938">strategy: 0x7D70..63d3,</text><text fill="#000000" font-family="sans-serif" font-size="13" lengthAdjust="spacing" textLength="217" x="665" y="1631.9043">shares: 501,938,038,686,208,529)</text><text fill="#000000" font-family="sans-serif" font-size="13" lengthAdjust="spacing" textLength="70" x="657" y="1647.2148">12,967 gas</text><polygon fill="#181818" points="872,1661.957,882,1665.957,872,1669.957,876,1665.957" style="stroke:#181818;stroke-width:1.0;"/><line style="stroke:#181818;stroke-width:1.0;stroke-dasharray:2.0,2.0;" x1="635" x2="878" y1="1665.957" y2="1665.957"/><polygon fill="#181818" points="248.5,1706.5781,238.5,1710.5781,248.5,1714.5781,244.5,1710.5781" style="stroke:#181818;stroke-width:1.0;"/><line style="stroke:#181818;stroke-width:1.0;stroke-dasharray:2.0,2.0;" x1="242.5" x2="888" y1="1710.5781" y2="1710.5781"/><text fill="#000000" font-family="sans-serif" font-size="13" lengthAdjust="spacing" textLength="116" x="254.5" y="1690.5254">withdrawalRoots: [</text><text fill="#000000" font-family="sans-serif" font-size="13" lengthAdjust="spacing" textLength="167" x="262.5" y="1705.8359">0: 0xe6998412..526c9eac]</text><path d="M894,1723.5781 L894,1763.5781 L985,1763.5781 L985,1733.5781 L975,1723.5781 L894,1723.5781 " fill="#FEFFDD" style="stroke:#181818;stroke-width:0.5;"/><path d="M975,1723.5781 L975,1733.5781 L985,1733.5781 L975,1723.5781 " fill="#FEFFDD" style="stroke:#181818;stroke-width:0.5;"/><text fill="#000000" font-family="sans-serif" font-size="13" lengthAdjust="spacing" textLength="4" x="900" y="1741.1465">&#160;</text><text fill="#000000" font-family="sans-serif" font-size="13" lengthAdjust="spacing" textLength="70" x="900" y="1756.457">67,090 gas</text><polygon fill="#181818" points="118,1771.1992,108,1775.1992,118,1779.1992,114,1775.1992" style="stroke:#181818;stroke-width:1.0;"/><line style="stroke:#181818;stroke-width:1.0;stroke-dasharray:2.0,2.0;" x1="112" x2="231.5" y1="1775.1992" y2="1775.1992"/><path d="M237,1788.1992 L237,1828.1992 L328,1828.1992 L328,1798.1992 L318,1788.1992 L237,1788.1992 " fill="#FEFFDD" style="stroke:#181818;stroke-width:0.5;"/><path d="M318,1788.1992 L318,1798.1992 L328,1798.1992 L318,1788.1992 " fill="#FEFFDD" style="stroke:#181818;stroke-width:0.5;"/><text fill="#000000" font-family="sans-serif" font-size="13" lengthAdjust="spacing" textLength="4" x="243" y="1805.7676">&#160;</text><text fill="#000000" font-family="sans-serif" font-size="13" lengthAdjust="spacing" textLength="70" x="243" y="1821.0781">52,867 gas</text><path d="M746,1838.8203 L746,2154.8203 L1031,2154.8203 L1031,1848.8203 L1021,1838.8203 L746,1838.8203 " fill="#00FFFF" style="stroke:#181818;stroke-width:0.5;"/><path d="M1021,1838.8203 L1021,1848.8203 L1031,1848.8203 L1021,1838.8203 " fill="#00FFFF" style="stroke:#181818;stroke-width:0.5;"/><text fill="#000000" font-family="sans-serif" font-size="13" lengthAdjust="spacing" textLength="121" x="752" y="1856.3887">StakerUndelegated:</text><text fill="#000000" font-family="sans-serif" font-size="13" lengthAdjust="spacing" textLength="137" x="760" y="1871.6992">staker: 0x326E..42B4,</text><text fill="#000000" font-family="sans-serif" font-size="13" lengthAdjust="spacing" textLength="152" x="760" y="1887.0098">operator: 0x37d5..C3D8</text><text fill="#000000" font-family="sans-serif" font-size="13" lengthAdjust="spacing" textLength="165" x="752" y="1902.3203">OperatorSharesDecreased:</text><text fill="#000000" font-family="sans-serif" font-size="13" lengthAdjust="spacing" textLength="156" x="760" y="1917.6309">operator: 0x37d5..C3D8,</text><text fill="#000000" font-family="sans-serif" font-size="13" lengthAdjust="spacing" textLength="137" x="760" y="1932.9414">staker: 0x326E..42B4,</text><text fill="#000000" font-family="sans-serif" font-size="13" lengthAdjust="spacing" textLength="153" x="760" y="1948.252">strategy: 0x7D70..63d3,</text><text fill="#000000" font-family="sans-serif" font-size="13" lengthAdjust="spacing" textLength="213" x="760" y="1963.5625">shares: 501,938,038,686,208,529</text><text fill="#000000" font-family="sans-serif" font-size="13" lengthAdjust="spacing" textLength="121" x="752" y="1978.873">WithdrawalQueued:</text><text fill="#000000" font-family="sans-serif" font-size="13" lengthAdjust="spacing" textLength="256" x="760" y="1994.1836">withdrawalRoot: 0xe6998412..526c9eac,</text><text fill="#000000" font-family="sans-serif" font-size="13" lengthAdjust="spacing" textLength="80" x="760" y="2009.4941">withdrawal: [</text><text fill="#000000" font-family="sans-serif" font-size="13" lengthAdjust="spacing" textLength="137" x="768" y="2024.8047">staker: 0x326E..42B4,</text><text fill="#000000" font-family="sans-serif" font-size="13" lengthAdjust="spacing" textLength="180" x="768" y="2040.1152">delegatedTo: 0x37d5..C3D8,</text><text fill="#000000" font-family="sans-serif" font-size="13" lengthAdjust="spacing" textLength="167" x="768" y="2055.4258">withdrawer: 0x326E..42B4,</text><text fill="#000000" font-family="sans-serif" font-size="13" lengthAdjust="spacing" textLength="58" x="768" y="2070.7363">nonce: 5,</text><text fill="#000000" font-family="sans-serif" font-size="13" lengthAdjust="spacing" textLength="139" x="768" y="2086.0469">startBlock: 1,377,258,</text><text fill="#000000" font-family="sans-serif" font-size="13" lengthAdjust="spacing" textLength="74" x="768" y="2101.3574">strategies: [</text><text fill="#000000" font-family="sans-serif" font-size="13" lengthAdjust="spacing" textLength="114" x="776" y="2116.668">0: 0x7D70..63d3],</text><text fill="#000000" font-family="sans-serif" font-size="13" lengthAdjust="spacing" textLength="53" x="768" y="2131.9785">shares: [</text><text fill="#000000" font-family="sans-serif" font-size="13" lengthAdjust="spacing" textLength="188" x="776" y="2147.2891">0: 501,938,038,686,208,529]]</text><!--SRC=[hLPTJzmu57tFhx3QbwwKZVmHnqvK8G43hBJGTe6g3miFZkCC4JIPJJm5_dslypdJJeQbwaZCS6tVUyuzlhwsBUo3GVX9f88OPeICPCOYbHCPfapccSYZN6GfuoGFCSqnfY4XqgHK6oeOJNMMXL56YETfjR95LQAxwi4qzyy-IXygVOy84u9owQFJkl0HYT7XgaOKmY124iuIZD7PnRMdjArgz0O_CHsbGS1r6hv1ga7ET0RoLggsXIvMghJjEXgP80Zfi0vCPw3txpzKcLcO1xDK4FBWu4T7JT8m27HkHEleJ6U0u_dbzN5LviNoPwSiJtaGP3oDMYTdEWEShcojh5a-NwXIBSqEF1M618ZA7i-PpW3NdYI8DklCi111O1ZXNPPWEWESJugbAJzLsUJgbPKrgFfcwb4rxqDLQfEWa7XduFwfBfp50iae9pGM4fqzciAxK4_erC2C30GNX8MSHDCCU5LrOPyJH0BU3RjWvyNNmYQ8KkbppjgXput9O0GpFvJKk-w3uW1ZWawk__9CcI57qlF6RVtpODow1AtBh9F4lFlZfkpZeALgN7aKts1yNEoD6muHXZrCq9rgBg7-tjsK2DNm3w0_gPp6E9DH432icS9K-svQQLsjI-jMiEFe26hk-2W4sDWNN6w33l6zsjXrNI9RhyqCWQMnK4DG4zgs97Hl_6sU7PA9SW9-m8N4SMPuoW6H-I3vVaJyT3YMqQyXHwccEdJLf5AkI6pq_qNEyYEe_GMK-pporNgrgcfhiiEcCVQyQApRGO9z4huG_r_75RUxS4eqx09cORi_n8r1Yw5148Mdf1sZRYmE6MJ1P2XlPmWfHs8ucAqOjhetvJP8bxw8zjDh-YWjcON0G8PbR0jtQ0O9B5RtfXw0h-vKRPeMlcrN9wvT7NN9RGRhXSBnDfCXxC24O-B7JFeO_Y8P-HJ3mQFnwoMOD7sz1EnGvj0ymnFy6oIOWhL4efSKmA_FTQgLr-UAuHC4xlitv3e5-vLSXqjZgqMwm1s5P0lHzJ3XynXl8mmnlF46Shstlr0IjAgoZuybfBCxZROnnepzq8rxzudrPl19AUWG2xEgci8s-sWBq0NlrsLg5zC1kWMDX_6PKt8xGwmsN-72tCXv5pE_czZL2BgfrdqMsvrlwiUHs9_PyFjOsBkiLe_guRAgB8ITKZPH7CkGmEdbDDAnKVgsk_JhOdbdKPLl5CfD6GaVzqKmG6mldYxUcv9JN_OCDzuHesXlrNzhvLsrudmUIp1Bl1d5OBnQcTgzmDePaS4LSimMqllO3tUQBuokZMgwIBiz_3qOCvlYlRWdtfTHvN_MPjtXRok_Mt1_Qnri3jZp_10QfRgkVavh2hNRkUnURzmVG6fxv1xLy1BpuLdjktTrFzNgKBYCEqOx3actijTbOzNSaRcTtclV0G00]--></g></svg>