<?xml version="1.0" encoding="us-ascii" standalone="no"?><svg xmlns="http://www.w3.org/2000/svg" xmlns:xlink="http://www.w3.org/1999/xlink" contentStyleType="text/css" height="2408px" preserveAspectRatio="none" style="width:2067px;height:2408px;background:#FFFFFF;" version="1.1" viewBox="0 0 2067 2408" width="2067px" zoomAndPan="magnify"><defs/><g><text fill="#000000" font-family="sans-serif" font-size="14" font-weight="bold" lengthAdjust="spacing" textLength="578" x="743.5" y="28.5352">0x7d1e4958d23c06af4169652077189425124da327c26d183f189cbd65723d3181</text><text fill="#000000" font-family="sans-serif" font-size="14" lengthAdjust="spacing" textLength="408" x="828.5" y="2396.6055">mainnet, block 19180791, Thu, 08 Feb 2024 03:32:47 GMT</text><rect fill="#FFFFFF" height="1700.9121" style="stroke:#181818;stroke-width:1.0;" width="10" x="334.5" y="389.0996"/><rect fill="#FFFFFF" height="29.3105" style="stroke:#181818;stroke-width:1.0;" width="10" x="583.5" y="464.3418"/><rect fill="#FFFFFF" height="29.3105" style="stroke:#181818;stroke-width:1.0;" width="10" x="583.5" y="553.584"/><rect fill="#FFFFFF" height="29.3105" style="stroke:#181818;stroke-width:1.0;" width="10" x="583.5" y="836.6211"/><rect fill="#FFFFFF" height="29.3105" style="stroke:#181818;stroke-width:1.0;" width="10" x="583.5" y="1119.6582"/><rect fill="#FFFFFF" height="29.3105" style="stroke:#181818;stroke-width:1.0;" width="10" x="583.5" y="1713.043"/><rect fill="#FFFFFF" height="29.3105" style="stroke:#181818;stroke-width:1.0;" width="10" x="768.5" y="642.8262"/><rect fill="#FFFFFF" height="29.3105" style="stroke:#181818;stroke-width:1.0;" width="10" x="768.5" y="747.3789"/><rect fill="#FFFFFF" height="29.3105" style="stroke:#181818;stroke-width:1.0;" width="10" x="1036.5" y="925.8633"/><rect fill="#FFFFFF" height="29.3105" style="stroke:#181818;stroke-width:1.0;" width="10" x="1036.5" y="1030.416"/><rect fill="#FFFFFF" height="133.8633" style="stroke:#181818;stroke-width:1.0;" width="10" x="1329.5" y="1208.9004"/><rect fill="#FFFFFF" height="133.8633" style="stroke:#181818;stroke-width:1.0;" width="10" x="1329.5" y="1468.627"/><rect fill="#FFFFFF" height="29.3105" style="stroke:#181818;stroke-width:1.0;" width="10" x="1592.5" y="1284.1426"/><rect fill="#FFFFFF" height="29.3105" style="stroke:#181818;stroke-width:1.0;" width="10" x="1592.5" y="1543.8691"/><rect fill="#FFFFFF" height="29.3105" style="stroke:#181818;stroke-width:1.0;" width="10" x="1748.5" y="1802.2852"/><rect fill="#FFFFFF" height="118.5527" style="stroke:#181818;stroke-width:1.0;" width="10" x="1748.5" y="1906.8379"/><rect fill="#FFFFFF" height="29.3105" style="stroke:#181818;stroke-width:1.0;" width="10" x="1971.5" y="1966.7695"/><line style="stroke:#181818;stroke-width:0.5;stroke-dasharray:5.0,5.0;" x1="110" x2="110" y1="123.4414" y2="2301.1172"/><line style="stroke:#181818;stroke-width:0.5;stroke-dasharray:5.0,5.0;" x1="339" x2="339" y1="123.4414" y2="2301.1172"/><line style="stroke:#181818;stroke-width:0.5;stroke-dasharray:5.0,5.0;" x1="588" x2="588" y1="123.4414" y2="2301.1172"/><line style="stroke:#181818;stroke-width:0.5;stroke-dasharray:5.0,5.0;" x1="773" x2="773" y1="123.4414" y2="2301.1172"/><line style="stroke:#181818;stroke-width:0.5;stroke-dasharray:5.0,5.0;" x1="1041" x2="1041" y1="123.4414" y2="2301.1172"/><line style="stroke:#181818;stroke-width:0.5;stroke-dasharray:5.0,5.0;" x1="1334" x2="1334" y1="123.4414" y2="2301.1172"/><line style="stroke:#181818;stroke-width:0.5;stroke-dasharray:5.0,5.0;" x1="1597" x2="1597" y1="123.4414" y2="2301.1172"/><line style="stroke:#181818;stroke-width:0.5;stroke-dasharray:5.0,5.0;" x1="1753" x2="1753" y1="123.4414" y2="2301.1172"/><line style="stroke:#181818;stroke-width:0.5;stroke-dasharray:5.0,5.0;" x1="1976" x2="1976" y1="123.4414" y2="2301.1172"/><text fill="#000000" font-family="sans-serif" font-size="14" lengthAdjust="spacing" textLength="93" x="61" y="120.4883">0x5de0..3f91</text><ellipse cx="110.5" cy="55.4531" fill="#E2E2F0" rx="8" ry="8" style="stroke:#181818;stroke-width:0.5;"/><path d="M110.5,63.4531 L110.5,90.4531 M97.5,71.4531 L123.5,71.4531 M110.5,90.4531 L97.5,105.4531 M110.5,90.4531 L123.5,105.4531 " fill="none" style="stroke:#181818;stroke-width:0.5;"/><text fill="#000000" font-family="sans-serif" font-size="14" lengthAdjust="spacing" textLength="93" x="61" y="2313.6523">0x5de0..3f91</text><ellipse cx="110.5" cy="2325.1055" fill="#E2E2F0" rx="8" ry="8" style="stroke:#181818;stroke-width:0.5;"/><path d="M110.5,2333.1055 L110.5,2360.1055 M97.5,2341.1055 L123.5,2341.1055 M110.5,2360.1055 L97.5,2375.1055 M110.5,2360.1055 L123.5,2375.1055 " fill="none" style="stroke:#181818;stroke-width:0.5;"/><rect fill="#E2E2F0" height="46.9766" rx="2.5" ry="2.5" style="stroke:#181818;stroke-width:0.5;" width="239" x="220" y="75.4648"/><text fill="#000000" font-family="sans-serif" font-size="14" font-style="italic" lengthAdjust="spacing" textLength="225" x="227" y="96">&#171;TransparentUpgradeableProxy&#187;</text><text fill="#000000" font-family="sans-serif" font-size="14" lengthAdjust="spacing" textLength="97" x="291" y="112.4883">0xa479..8d32</text><rect fill="#E2E2F0" height="46.9766" rx="2.5" ry="2.5" style="stroke:#181818;stroke-width:0.5;" width="239" x="220" y="2300.1172"/><text fill="#000000" font-family="sans-serif" font-size="14" font-style="italic" lengthAdjust="spacing" textLength="225" x="227" y="2320.6523">&#171;TransparentUpgradeableProxy&#187;</text><text fill="#000000" font-family="sans-serif" font-size="14" lengthAdjust="spacing" textLength="97" x="291" y="2337.1406">0xa479..8d32</text><rect fill="#E2E2F0" height="46.9766" rx="2.5" ry="2.5" style="stroke:#181818;stroke-width:0.5;" width="239" x="469" y="75.4648"/><text fill="#000000" font-family="sans-serif" font-size="14" font-style="italic" lengthAdjust="spacing" textLength="225" x="476" y="96">&#171;TransparentUpgradeableProxy&#187;</text><text fill="#000000" font-family="sans-serif" font-size="14" lengthAdjust="spacing" textLength="90" x="543.5" y="112.4883">0xf879..46bf</text><rect fill="#E2E2F0" height="46.9766" rx="2.5" ry="2.5" style="stroke:#181818;stroke-width:0.5;" width="239" x="469" y="2300.1172"/><text fill="#000000" font-family="sans-serif" font-size="14" font-style="italic" lengthAdjust="spacing" textLength="225" x="476" y="2320.6523">&#171;TransparentUpgradeableProxy&#187;</text><text fill="#000000" font-family="sans-serif" font-size="14" lengthAdjust="spacing" textLength="90" x="543.5" y="2337.1406">0xf879..46bf</text><rect fill="#E2E2F0" height="79.9531" rx="2.5" ry="2.5" style="stroke:#181818;stroke-width:0.5;" width="111" x="718" y="42.4883"/><text fill="#000000" font-family="sans-serif" font-size="14" font-style="italic" lengthAdjust="spacing" textLength="97" x="725" y="63.0234">&#171;Origin Ether&#187;</text><text fill="#000000" font-family="sans-serif" font-size="14" font-style="italic" lengthAdjust="spacing" textLength="62" x="742.5" y="79.5117">&#171;(OETH)&#187;</text><text fill="#000000" font-family="sans-serif" font-size="14" font-style="italic" lengthAdjust="spacing" textLength="91" x="728" y="96">&#171;OETHProxy&#187;</text><text fill="#000000" font-family="sans-serif" font-size="14" lengthAdjust="spacing" textLength="94" x="726.5" y="112.4883">0x856c..8dc3</text><rect fill="#E2E2F0" height="79.9531" rx="2.5" ry="2.5" style="stroke:#181818;stroke-width:0.5;" width="111" x="718" y="2300.1172"/><text fill="#000000" font-family="sans-serif" font-size="14" font-style="italic" lengthAdjust="spacing" textLength="97" x="725" y="2320.6523">&#171;Origin Ether&#187;</text><text fill="#000000" font-family="sans-serif" font-size="14" font-style="italic" lengthAdjust="spacing" textLength="62" x="742.5" y="2337.1406">&#171;(OETH)&#187;</text><text fill="#000000" font-family="sans-serif" font-size="14" font-style="italic" lengthAdjust="spacing" textLength="91" x="728" y="2353.6289">&#171;OETHProxy&#187;</text><text fill="#000000" font-family="sans-serif" font-size="14" lengthAdjust="spacing" textLength="94" x="726.5" y="2370.1172">0x856c..8dc3</text><rect fill="#E2E2F0" height="79.9531" rx="2.5" ry="2.5" style="stroke:#181818;stroke-width:0.5;" width="239" x="922" y="42.4883"/><text fill="#000000" font-family="sans-serif" font-size="14" font-style="italic" lengthAdjust="spacing" textLength="54" x="1014.5" y="63.0234">&#171;mETH&#187;</text><text fill="#000000" font-family="sans-serif" font-size="14" font-style="italic" lengthAdjust="spacing" textLength="64" x="1009.5" y="79.5117">&#171;(mETH)&#187;</text><text fill="#000000" font-family="sans-serif" font-size="14" font-style="italic" lengthAdjust="spacing" textLength="225" x="929" y="96">&#171;TransparentUpgradeableProxy&#187;</text><text fill="#000000" font-family="sans-serif" font-size="14" lengthAdjust="spacing" textLength="88" x="997.5" y="112.4883">0xd5f7..adfa</text><rect fill="#E2E2F0" height="79.9531" rx="2.5" ry="2.5" style="stroke:#181818;stroke-width:0.5;" width="239" x="922" y="2300.1172"/><text fill="#000000" font-family="sans-serif" font-size="14" font-style="italic" lengthAdjust="spacing" textLength="54" x="1014.5" y="2320.6523">&#171;mETH&#187;</text><text fill="#000000" font-family="sans-serif" font-size="14" font-style="italic" lengthAdjust="spacing" textLength="64" x="1009.5" y="2337.1406">&#171;(mETH)&#187;</text><text fill="#000000" font-family="sans-serif" font-size="14" font-style="italic" lengthAdjust="spacing" textLength="225" x="929" y="2353.6289">&#171;TransparentUpgradeableProxy&#187;</text><text fill="#000000" font-family="sans-serif" font-size="14" lengthAdjust="spacing" textLength="88" x="997.5" y="2370.1172">0xd5f7..adfa</text><rect fill="#E2E2F0" height="79.9531" rx="2.5" ry="2.5" style="stroke:#181818;stroke-width:0.5;" width="185" x="1242" y="42.4883"/><text fill="#000000" font-family="sans-serif" font-size="14" font-style="italic" lengthAdjust="spacing" textLength="171" x="1249" y="63.0234">&#171;Liquid staked Ether 2.0&#187;</text><text fill="#000000" font-family="sans-serif" font-size="14" font-style="italic" lengthAdjust="spacing" textLength="63" x="1303" y="79.5117">&#171;(stETH)&#187;</text><text fill="#000000" font-family="sans-serif" font-size="14" font-style="italic" lengthAdjust="spacing" textLength="169" x="1250" y="96">&#171;AppProxyUpgradeable&#187;</text><text fill="#000000" font-family="sans-serif" font-size="14" lengthAdjust="spacing" textLength="90" x="1289.5" y="112.4883">0xae7a..fe84</text><rect fill="#E2E2F0" height="79.9531" rx="2.5" ry="2.5" style="stroke:#181818;stroke-width:0.5;" width="185" x="1242" y="2300.1172"/><text fill="#000000" font-family="sans-serif" font-size="14" font-style="italic" lengthAdjust="spacing" textLength="171" x="1249" y="2320.6523">&#171;Liquid staked Ether 2.0&#187;</text><text fill="#000000" font-family="sans-serif" font-size="14" font-style="italic" lengthAdjust="spacing" textLength="63" x="1303" y="2337.1406">&#171;(stETH)&#187;</text><text fill="#000000" font-family="sans-serif" font-size="14" font-style="italic" lengthAdjust="spacing" textLength="169" x="1250" y="2353.6289">&#171;AppProxyUpgradeable&#187;</text><text fill="#000000" font-family="sans-serif" font-size="14" lengthAdjust="spacing" textLength="90" x="1289.5" y="2370.1172">0xae7a..fe84</text><rect fill="#E2E2F0" height="63.4648" rx="2.5" ry="2.5" style="stroke:#181818;stroke-width:0.5;" width="139" x="1528" y="58.9766"/><text fill="#000000" font-family="sans-serif" font-size="14" font-style="italic" lengthAdjust="spacing" textLength="125" x="1535" y="79.5117">&#171;Lido: Deployer 2&#187;</text><text fill="#000000" font-family="sans-serif" font-size="14" font-style="italic" lengthAdjust="spacing" textLength="97" x="1549" y="96">&#171;KernelProxy&#187;</text><text fill="#000000" font-family="sans-serif" font-size="14" lengthAdjust="spacing" textLength="88" x="1553.5" y="112.4883">0xb8ff..88dc</text><rect fill="#E2E2F0" height="63.4648" rx="2.5" ry="2.5" style="stroke:#181818;stroke-width:0.5;" width="139" x="1528" y="2300.1172"/><text fill="#000000" font-family="sans-serif" font-size="14" font-style="italic" lengthAdjust="spacing" textLength="125" x="1535" y="2320.6523">&#171;Lido: Deployer 2&#187;</text><text fill="#000000" font-family="sans-serif" font-size="14" font-style="italic" lengthAdjust="spacing" textLength="97" x="1549" y="2337.1406">&#171;KernelProxy&#187;</text><text fill="#000000" font-family="sans-serif" font-size="14" lengthAdjust="spacing" textLength="88" x="1553.5" y="2353.6289">0xb8ff..88dc</text><rect fill="#E2E2F0" height="79.9531" rx="2.5" ry="2.5" style="stroke:#181818;stroke-width:0.5;" width="153" x="1677" y="42.4883"/><text fill="#000000" font-family="sans-serif" font-size="14" font-style="italic" lengthAdjust="spacing" textLength="125" x="1691" y="63.0234">&#171;Rocket Pool ETH&#187;</text><text fill="#000000" font-family="sans-serif" font-size="14" font-style="italic" lengthAdjust="spacing" textLength="57" x="1725" y="79.5117">&#171;(rETH)&#187;</text><text fill="#000000" font-family="sans-serif" font-size="14" font-style="italic" lengthAdjust="spacing" textLength="139" x="1684" y="96">&#171;RocketTokenRETH&#187;</text><text fill="#000000" font-family="sans-serif" font-size="14" lengthAdjust="spacing" textLength="96" x="1705.5" y="112.4883">0xae78..6393</text><rect fill="#E2E2F0" height="79.9531" rx="2.5" ry="2.5" style="stroke:#181818;stroke-width:0.5;" width="153" x="1677" y="2300.1172"/><text fill="#000000" font-family="sans-serif" font-size="14" font-style="italic" lengthAdjust="spacing" textLength="125" x="1691" y="2320.6523">&#171;Rocket Pool ETH&#187;</text><text fill="#000000" font-family="sans-serif" font-size="14" font-style="italic" lengthAdjust="spacing" textLength="57" x="1725" y="2337.1406">&#171;(rETH)&#187;</text><text fill="#000000" font-family="sans-serif" font-size="14" font-style="italic" lengthAdjust="spacing" textLength="139" x="1684" y="2353.6289">&#171;RocketTokenRETH&#187;</text><text fill="#000000" font-family="sans-serif" font-size="14" lengthAdjust="spacing" textLength="96" x="1705.5" y="2370.1172">0xae78..6393</text><rect fill="#E2E2F0" height="63.4648" rx="2.5" ry="2.5" style="stroke:#181818;stroke-width:0.5;" width="169" x="1892" y="58.9766"/><text fill="#000000" font-family="sans-serif" font-size="14" font-style="italic" lengthAdjust="spacing" textLength="155" x="1899" y="79.5117">&#171;Rocket Pool: Storage&#187;</text><text fill="#000000" font-family="sans-serif" font-size="14" font-style="italic" lengthAdjust="spacing" textLength="113" x="1920" y="96">&#171;RocketStorage&#187;</text><text fill="#000000" font-family="sans-serif" font-size="14" lengthAdjust="spacing" textLength="89" x="1932" y="112.4883">0x1d8f..fa46</text><rect fill="#E2E2F0" height="63.4648" rx="2.5" ry="2.5" style="stroke:#181818;stroke-width:0.5;" width="169" x="1892" y="2300.1172"/><text fill="#000000" font-family="sans-serif" font-size="14" font-style="italic" lengthAdjust="spacing" textLength="155" x="1899" y="2320.6523">&#171;Rocket Pool: Storage&#187;</text><text fill="#000000" font-family="sans-serif" font-size="14" font-style="italic" lengthAdjust="spacing" textLength="113" x="1920" y="2337.1406">&#171;RocketStorage&#187;</text><text fill="#000000" font-family="sans-serif" font-size="14" lengthAdjust="spacing" textLength="89" x="1932" y="2353.6289">0x1d8f..fa46</text><rect fill="#FFFFFF" height="1700.9121" style="stroke:#181818;stroke-width:1.0;" width="10" x="334.5" y="389.0996"/><rect fill="#FFFFFF" height="29.3105" style="stroke:#181818;stroke-width:1.0;" width="10" x="583.5" y="464.3418"/><rect fill="#FFFFFF" height="29.3105" style="stroke:#181818;stroke-width:1.0;" width="10" x="583.5" y="553.584"/><rect fill="#FFFFFF" height="29.3105" style="stroke:#181818;stroke-width:1.0;" width="10" x="583.5" y="836.6211"/><rect fill="#FFFFFF" height="29.3105" style="stroke:#181818;stroke-width:1.0;" width="10" x="583.5" y="1119.6582"/><rect fill="#FFFFFF" height="29.3105" style="stroke:#181818;stroke-width:1.0;" width="10" x="583.5" y="1713.043"/><rect fill="#FFFFFF" height="29.3105" style="stroke:#181818;stroke-width:1.0;" width="10" x="768.5" y="642.8262"/><rect fill="#FFFFFF" height="29.3105" style="stroke:#181818;stroke-width:1.0;" width="10" x="768.5" y="747.3789"/><rect fill="#FFFFFF" height="29.3105" style="stroke:#181818;stroke-width:1.0;" width="10" x="1036.5" y="925.8633"/><rect fill="#FFFFFF" height="29.3105" style="stroke:#181818;stroke-width:1.0;" width="10" x="1036.5" y="1030.416"/><rect fill="#FFFFFF" height="133.8633" style="stroke:#181818;stroke-width:1.0;" width="10" x="1329.5" y="1208.9004"/><rect fill="#FFFFFF" height="133.8633" style="stroke:#181818;stroke-width:1.0;" width="10" x="1329.5" y="1468.627"/><rect fill="#FFFFFF" height="29.3105" style="stroke:#181818;stroke-width:1.0;" width="10" x="1592.5" y="1284.1426"/><rect fill="#FFFFFF" height="29.3105" style="stroke:#181818;stroke-width:1.0;" width="10" x="1592.5" y="1543.8691"/><rect fill="#FFFFFF" height="29.3105" style="stroke:#181818;stroke-width:1.0;" width="10" x="1748.5" y="1802.2852"/><rect fill="#FFFFFF" height="118.5527" style="stroke:#181818;stroke-width:1.0;" width="10" x="1748.5" y="1906.8379"/><rect fill="#FFFFFF" height="29.3105" style="stroke:#181818;stroke-width:1.0;" width="10" x="1971.5" y="1966.7695"/><path d="M5,138.4414 L5,255.4414 L217,255.4414 L217,148.4414 L207,138.4414 L5,138.4414 " fill="#FEFFDD" style="stroke:#181818;stroke-width:0.5;"/><path d="M207,138.4414 L207,148.4414 L217,148.4414 L207,138.4414 " fill="#FEFFDD" style="stroke:#181818;stroke-width:0.5;"/><text fill="#000000" font-family="sans-serif" font-size="13" lengthAdjust="spacing" textLength="64" x="11" y="156.0098">Nonce: 15</text><text fill="#000000" font-family="sans-serif" font-size="13" lengthAdjust="spacing" textLength="191" x="11" y="171.3203">Gas Price: 30.578867825 Gwei</text><text fill="#000000" font-family="sans-serif" font-size="13" lengthAdjust="spacing" textLength="121" x="11" y="186.6309">Max Fee: 60.0 Gwei</text><text fill="#000000" font-family="sans-serif" font-size="13" lengthAdjust="spacing" textLength="137" x="11" y="201.9414">Max Priority: 1.0 Gwei</text><text fill="#000000" font-family="sans-serif" font-size="13" lengthAdjust="spacing" textLength="119" x="11" y="217.252">Gas Limit: 225,772</text><text fill="#000000" font-family="sans-serif" font-size="13" lengthAdjust="spacing" textLength="118" x="11" y="232.5625">Gas Used: 208,173</text><text fill="#000000" font-family="sans-serif" font-size="13" lengthAdjust="spacing" textLength="114" x="11" y="247.873">Tx Fee: 0.006 ETH</text><polygon fill="#181818" points="322.5,385.0996,332.5,389.0996,322.5,393.0996,326.5,389.0996" style="stroke:#181818;stroke-width:1.0;"/><line style="stroke:#181818;stroke-width:1.0;" x1="110.5" x2="328.5" y1="389.0996" y2="389.0996"/><text fill="#000000" font-family="sans-serif" font-size="13" lengthAdjust="spacing" textLength="205" x="117.5" y="277.1836">transferAssetsToNodeDelegator(</text><text fill="#000000" font-family="sans-serif" font-size="13" lengthAdjust="spacing" textLength="78" x="125.5" y="292.4941">ndcIndex: 0,</text><text fill="#000000" font-family="sans-serif" font-size="13" lengthAdjust="spacing" textLength="52" x="125.5" y="307.8047">assets: [</text><text fill="#000000" font-family="sans-serif" font-size="13" lengthAdjust="spacing" textLength="108" x="133.5" y="323.1152">0: 0x856c..8dC3,</text><text fill="#000000" font-family="sans-serif" font-size="13" lengthAdjust="spacing" textLength="106" x="133.5" y="338.4258">1: 0xd5F7..ADfa,</text><text fill="#000000" font-family="sans-serif" font-size="13" lengthAdjust="spacing" textLength="101" x="133.5" y="353.7363">2: 0xae7a..fE84,</text><text fill="#000000" font-family="sans-serif" font-size="13" lengthAdjust="spacing" textLength="110" x="133.5" y="369.0469">3: 0xae78..6393])</text><text fill="#000000" font-family="sans-serif" font-size="13" lengthAdjust="spacing" textLength="78" x="117.5" y="384.3574">208,173 gas</text><polygon fill="#181818" points="571.5,460.3418,581.5,464.3418,571.5,468.3418,575.5,464.3418" style="stroke:#181818;stroke-width:1.0;"/><line style="stroke:#181818;stroke-width:1.0;" x1="344.5" x2="577.5" y1="464.3418" y2="464.3418"/><text fill="#000000" font-family="sans-serif" font-size="13" lengthAdjust="spacing" textLength="53" x="351.5" y="413.668">hasRole(</text><text fill="#000000" font-family="sans-serif" font-size="13" lengthAdjust="spacing" textLength="184" x="359.5" y="428.9785">role: 0x97667070..4fa9b929,</text><text fill="#000000" font-family="sans-serif" font-size="13" lengthAdjust="spacing" textLength="148" x="359.5" y="444.2891">account: 0x5De0..3f91)</text><text fill="#000000" font-family="sans-serif" font-size="13" lengthAdjust="spacing" textLength="62" x="351.5" y="459.5996">9,758 gas</text><polygon fill="#181818" points="355.5,489.6523,345.5,493.6523,355.5,497.6523,351.5,493.6523" style="stroke:#181818;stroke-width:1.0;"/><line style="stroke:#181818;stroke-width:1.0;stroke-dasharray:2.0,2.0;" x1="349.5" x2="587.5" y1="493.6523" y2="493.6523"/><text fill="#000000" font-family="sans-serif" font-size="13" lengthAdjust="spacing" textLength="25" x="361.5" y="488.9102">true</text><polygon fill="#181818" points="571.5,549.584,581.5,553.584,571.5,557.584,575.5,553.584" style="stroke:#181818;stroke-width:1.0;"/><line style="stroke:#181818;stroke-width:1.0;" x1="344.5" x2="577.5" y1="553.584" y2="553.584"/><text fill="#000000" font-family="sans-serif" font-size="13" lengthAdjust="spacing" textLength="114" x="351.5" y="518.2207">isSupportedAsset(</text><text fill="#000000" font-family="sans-serif" font-size="13" lengthAdjust="spacing" textLength="136" x="359.5" y="533.5313">token: 0x856c..8dC3)</text><text fill="#000000" font-family="sans-serif" font-size="13" lengthAdjust="spacing" textLength="62" x="351.5" y="548.8418">3,184 gas</text><polygon fill="#181818" points="355.5,578.8945,345.5,582.8945,355.5,586.8945,351.5,582.8945" style="stroke:#181818;stroke-width:1.0;"/><line style="stroke:#181818;stroke-width:1.0;stroke-dasharray:2.0,2.0;" x1="349.5" x2="587.5" y1="582.8945" y2="582.8945"/><text fill="#000000" font-family="sans-serif" font-size="13" lengthAdjust="spacing" textLength="108" x="361.5" y="578.1523">isSupported: true</text><polygon fill="#181818" points="756.5,638.8262,766.5,642.8262,756.5,646.8262,760.5,642.8262" style="stroke:#181818;stroke-width:1.0;"/><line style="stroke:#181818;stroke-width:1.0;" x1="344.5" x2="762.5" y1="642.8262" y2="642.8262"/><text fill="#000000" font-family="sans-serif" font-size="13" lengthAdjust="spacing" textLength="67" x="351.5" y="607.4629">balanceOf(</text><text fill="#000000" font-family="sans-serif" font-size="13" lengthAdjust="spacing" textLength="158" x="359.5" y="622.7734">_account: 0xA479..8d32)</text><text fill="#000000" font-family="sans-serif" font-size="13" lengthAdjust="spacing" textLength="70" x="351.5" y="638.084">12,584 gas</text><polygon fill="#181818" points="355.5,668.1367,345.5,672.1367,355.5,676.1367,351.5,672.1367" style="stroke:#181818;stroke-width:1.0;"/><line style="stroke:#181818;stroke-width:1.0;stroke-dasharray:2.0,2.0;" x1="349.5" x2="772.5" y1="672.1367" y2="672.1367"/><text fill="#000000" font-family="sans-serif" font-size="13" lengthAdjust="spacing" textLength="180" x="361.5" y="667.3945">2,,721,322,872,839,895,843</text><polygon fill="#181818" points="756.5,743.3789,766.5,747.3789,756.5,751.3789,760.5,747.3789" style="stroke:#181818;stroke-width:1.0;"/><line style="stroke:#181818;stroke-width:1.0;" x1="344.5" x2="762.5" y1="747.3789" y2="747.3789"/><text fill="#000000" font-family="sans-serif" font-size="13" lengthAdjust="spacing" textLength="53" x="351.5" y="696.7051">transfer(</text><text fill="#000000" font-family="sans-serif" font-size="13" lengthAdjust="spacing" textLength="116" x="359.5" y="712.0156">_to: 0x8bBB..4aE2,</text><text fill="#000000" font-family="sans-serif" font-size="13" lengthAdjust="spacing" textLength="232" x="359.5" y="727.3262">_value: 2,,721,322,872,839,895,843)</text><text fill="#000000" font-family="sans-serif" font-size="13" lengthAdjust="spacing" textLength="70" x="351.5" y="742.6367">23,945 gas</text><polygon fill="#181818" points="355.5,772.6895,345.5,776.6895,355.5,780.6895,351.5,776.6895" style="stroke:#181818;stroke-width:1.0;"/><line style="stroke:#181818;stroke-width:1.0;stroke-dasharray:2.0,2.0;" x1="349.5" x2="772.5" y1="776.6895" y2="776.6895"/><text fill="#000000" font-family="sans-serif" font-size="13" lengthAdjust="spacing" textLength="25" x="361.5" y="771.9473">true</text><polygon fill="#181818" points="571.5,832.6211,581.5,836.6211,571.5,840.6211,575.5,836.6211" style="stroke:#181818;stroke-width:1.0;"/><line style="stroke:#181818;stroke-width:1.0;" x1="344.5" x2="577.5" y1="836.6211" y2="836.6211"/><text fill="#000000" font-family="sans-serif" font-size="13" lengthAdjust="spacing" textLength="114" x="351.5" y="801.2578">isSupportedAsset(</text><text fill="#000000" font-family="sans-serif" font-size="13" lengthAdjust="spacing" textLength="134" x="359.5" y="816.5684">token: 0xd5F7..ADfa)</text><text fill="#000000" font-family="sans-serif" font-size="13" lengthAdjust="spacing" textLength="62" x="351.5" y="831.8789">3,184 gas</text><polygon fill="#181818" points="355.5,861.9316,345.5,865.9316,355.5,869.9316,351.5,865.9316" style="stroke:#181818;stroke-width:1.0;"/><line style="stroke:#181818;stroke-width:1.0;stroke-dasharray:2.0,2.0;" x1="349.5" x2="587.5" y1="865.9316" y2="865.9316"/><text fill="#000000" font-family="sans-serif" font-size="13" lengthAdjust="spacing" textLength="108" x="361.5" y="861.1895">isSupported: true</text><polygon fill="#181818" points="1024.5,921.8633,1034.5,925.8633,1024.5,929.8633,1028.5,925.8633" style="stroke:#181818;stroke-width:1.0;"/><line style="stroke:#181818;stroke-width:1.0;" x1="344.5" x2="1030.5" y1="925.8633" y2="925.8633"/><text fill="#000000" font-family="sans-serif" font-size="13" lengthAdjust="spacing" textLength="67" x="351.5" y="890.5">balanceOf(</text><text fill="#000000" font-family="sans-serif" font-size="13" lengthAdjust="spacing" textLength="158" x="359.5" y="905.8105">_account: 0xA479..8d32)</text><text fill="#000000" font-family="sans-serif" font-size="13" lengthAdjust="spacing" textLength="62" x="351.5" y="921.1211">9,656 gas</text><polygon fill="#181818" points="355.5,951.1738,345.5,955.1738,355.5,959.1738,351.5,955.1738" style="stroke:#181818;stroke-width:1.0;"/><line style="stroke:#181818;stroke-width:1.0;stroke-dasharray:2.0,2.0;" x1="349.5" x2="1040.5" y1="955.1738" y2="955.1738"/><text fill="#000000" font-family="sans-serif" font-size="13" lengthAdjust="spacing" textLength="196" x="361.5" y="950.4316">139,,881,548,310,805,216,648</text><polygon fill="#181818" points="1024.5,1026.416,1034.5,1030.416,1024.5,1034.416,1028.5,1030.416" style="stroke:#181818;stroke-width:1.0;"/><line style="stroke:#181818;stroke-width:1.0;" x1="344.5" x2="1030.5" y1="1030.416" y2="1030.416"/><text fill="#000000" font-family="sans-serif" font-size="13" lengthAdjust="spacing" textLength="53" x="351.5" y="979.7422">transfer(</text><text fill="#000000" font-family="sans-serif" font-size="13" lengthAdjust="spacing" textLength="116" x="359.5" y="995.0527">_to: 0x8bBB..4aE2,</text><text fill="#000000" font-family="sans-serif" font-size="13" lengthAdjust="spacing" textLength="248" x="359.5" y="1010.3633">_value: 139,,881,548,310,805,216,648)</text><text fill="#000000" font-family="sans-serif" font-size="13" lengthAdjust="spacing" textLength="70" x="351.5" y="1025.6738">11,251 gas</text><polygon fill="#181818" points="355.5,1055.7266,345.5,1059.7266,355.5,1063.7266,351.5,1059.7266" style="stroke:#181818;stroke-width:1.0;"/><line style="stroke:#181818;stroke-width:1.0;stroke-dasharray:2.0,2.0;" x1="349.5" x2="1040.5" y1="1059.7266" y2="1059.7266"/><text fill="#000000" font-family="sans-serif" font-size="13" lengthAdjust="spacing" textLength="25" x="361.5" y="1054.9844">true</text><polygon fill="#181818" points="571.5,1115.6582,581.5,1119.6582,571.5,1123.6582,575.5,1119.6582" style="stroke:#181818;stroke-width:1.0;"/><line style="stroke:#181818;stroke-width:1.0;" x1="344.5" x2="577.5" y1="1119.6582" y2="1119.6582"/><text fill="#000000" font-family="sans-serif" font-size="13" lengthAdjust="spacing" textLength="114" x="351.5" y="1084.2949">isSupportedAsset(</text><text fill="#000000" font-family="sans-serif" font-size="13" lengthAdjust="spacing" textLength="129" x="359.5" y="1099.6055">token: 0xae7a..fE84)</text><text fill="#000000" font-family="sans-serif" font-size="13" lengthAdjust="spacing" textLength="62" x="351.5" y="1114.916">3,184 gas</text><polygon fill="#181818" points="355.5,1144.9688,345.5,1148.9688,355.5,1152.9688,351.5,1148.9688" style="stroke:#181818;stroke-width:1.0;"/><line style="stroke:#181818;stroke-width:1.0;stroke-dasharray:2.0,2.0;" x1="349.5" x2="587.5" y1="1148.9688" y2="1148.9688"/><text fill="#000000" font-family="sans-serif" font-size="13" lengthAdjust="spacing" textLength="108" x="361.5" y="1144.2266">isSupported: true</text><polygon fill="#181818" points="1317.5,1204.9004,1327.5,1208.9004,1317.5,1212.9004,1321.5,1208.9004" style="stroke:#181818;stroke-width:1.0;"/><line style="stroke:#181818;stroke-width:1.0;" x1="344.5" x2="1323.5" y1="1208.9004" y2="1208.9004"/><text fill="#000000" font-family="sans-serif" font-size="13" lengthAdjust="spacing" textLength="67" x="351.5" y="1173.5371">balanceOf(</text><text fill="#000000" font-family="sans-serif" font-size="13" lengthAdjust="spacing" textLength="158" x="359.5" y="1188.8477">_account: 0xA479..8d32)</text><text fill="#000000" font-family="sans-serif" font-size="13" lengthAdjust="spacing" textLength="70" x="351.5" y="1204.1582">33,968 gas</text><polygon fill="#181818" points="1580.5,1280.1426,1590.5,1284.1426,1580.5,1288.1426,1584.5,1284.1426" style="stroke:#181818;stroke-width:1.0;"/><line style="stroke:#181818;stroke-width:1.0;" x1="1339.5" x2="1586.5" y1="1284.1426" y2="1284.1426"/><text fill="#000000" font-family="sans-serif" font-size="13" lengthAdjust="spacing" textLength="49" x="1346.5" y="1233.4688">getApp(</text><text fill="#000000" font-family="sans-serif" font-size="13" lengthAdjust="spacing" textLength="226" x="1354.5" y="1248.7793">_namespace: 0xf1f3eb40..6f35ac0f,</text><text fill="#000000" font-family="sans-serif" font-size="13" lengthAdjust="spacing" textLength="197" x="1354.5" y="1264.0898">_appId: 0x3ca7c3e3..68cef320)</text><text fill="#000000" font-family="sans-serif" font-size="13" lengthAdjust="spacing" textLength="62" x="1346.5" y="1279.4004">8,263 gas</text><polygon fill="#181818" points="1350.5,1309.4531,1340.5,1313.4531,1350.5,1317.4531,1346.5,1313.4531" style="stroke:#181818;stroke-width:1.0;"/><line style="stroke:#181818;stroke-width:1.0;stroke-dasharray:2.0,2.0;" x1="1344.5" x2="1596.5" y1="1313.4531" y2="1313.4531"/><text fill="#000000" font-family="sans-serif" font-size="13" lengthAdjust="spacing" textLength="87" x="1356.5" y="1308.7109">0x1714..17eb</text><polygon fill="#181818" points="355.5,1338.7637,345.5,1342.7637,355.5,1346.7637,351.5,1342.7637" style="stroke:#181818;stroke-width:1.0;"/><line style="stroke:#181818;stroke-width:1.0;stroke-dasharray:2.0,2.0;" x1="349.5" x2="1333.5" y1="1342.7637" y2="1342.7637"/><text fill="#000000" font-family="sans-serif" font-size="13" lengthAdjust="spacing" textLength="188" x="361.5" y="1338.0215">14,,380,120,308,640,823,961</text><path d="M1339,1355.7637 L1339,1395.7637 L1430,1395.7637 L1430,1365.7637 L1420,1355.7637 L1339,1355.7637 " fill="#FEFFDD" style="stroke:#181818;stroke-width:0.5;"/><path d="M1420,1355.7637 L1420,1365.7637 L1430,1365.7637 L1420,1355.7637 " fill="#FEFFDD" style="stroke:#181818;stroke-width:0.5;"/><text fill="#000000" font-family="sans-serif" font-size="13" lengthAdjust="spacing" textLength="4" x="1345" y="1373.332">&#160;</text><text fill="#000000" font-family="sans-serif" font-size="13" lengthAdjust="spacing" textLength="70" x="1345" y="1388.6426">25,705 gas</text><polygon fill="#181818" points="1317.5,1464.627,1327.5,1468.627,1317.5,1472.627,1321.5,1468.627" style="stroke:#181818;stroke-width:1.0;"/><line style="stroke:#181818;stroke-width:1.0;" x1="344.5" x2="1323.5" y1="1468.627" y2="1468.627"/><text fill="#000000" font-family="sans-serif" font-size="13" lengthAdjust="spacing" textLength="53" x="351.5" y="1417.9531">transfer(</text><text fill="#000000" font-family="sans-serif" font-size="13" lengthAdjust="spacing" textLength="116" x="359.5" y="1433.2637">_to: 0x8bBB..4aE2,</text><text fill="#000000" font-family="sans-serif" font-size="13" lengthAdjust="spacing" textLength="240" x="359.5" y="1448.5742">_value: 14,,380,120,308,640,823,961)</text><text fill="#000000" font-family="sans-serif" font-size="13" lengthAdjust="spacing" textLength="70" x="351.5" y="1463.8848">22,083 gas</text><polygon fill="#181818" points="1580.5,1539.8691,1590.5,1543.8691,1580.5,1547.8691,1584.5,1543.8691" style="stroke:#181818;stroke-width:1.0;"/><line style="stroke:#181818;stroke-width:1.0;" x1="1339.5" x2="1586.5" y1="1543.8691" y2="1543.8691"/><text fill="#000000" font-family="sans-serif" font-size="13" lengthAdjust="spacing" textLength="49" x="1346.5" y="1493.1953">getApp(</text><text fill="#000000" font-family="sans-serif" font-size="13" lengthAdjust="spacing" textLength="226" x="1354.5" y="1508.5059">_namespace: 0xf1f3eb40..6f35ac0f,</text><text fill="#000000" font-family="sans-serif" font-size="13" lengthAdjust="spacing" textLength="197" x="1354.5" y="1523.8164">_appId: 0x3ca7c3e3..68cef320)</text><text fill="#000000" font-family="sans-serif" font-size="13" lengthAdjust="spacing" textLength="62" x="1346.5" y="1539.127">1,763 gas</text><polygon fill="#181818" points="1350.5,1569.1797,1340.5,1573.1797,1350.5,1577.1797,1346.5,1573.1797" style="stroke:#181818;stroke-width:1.0;"/><line style="stroke:#181818;stroke-width:1.0;stroke-dasharray:2.0,2.0;" x1="1344.5" x2="1596.5" y1="1573.1797" y2="1573.1797"/><text fill="#000000" font-family="sans-serif" font-size="13" lengthAdjust="spacing" textLength="87" x="1356.5" y="1568.4375">0x1714..17eb</text><polygon fill="#181818" points="355.5,1598.4902,345.5,1602.4902,355.5,1606.4902,351.5,1602.4902" style="stroke:#181818;stroke-width:1.0;"/><line style="stroke:#181818;stroke-width:1.0;stroke-dasharray:2.0,2.0;" x1="349.5" x2="1333.5" y1="1602.4902" y2="1602.4902"/><text fill="#000000" font-family="sans-serif" font-size="13" lengthAdjust="spacing" textLength="25" x="361.5" y="1597.748">true</text><path d="M1339,1615.4902 L1339,1655.4902 L1430,1655.4902 L1430,1625.4902 L1420,1615.4902 L1339,1615.4902 " fill="#FEFFDD" style="stroke:#181818;stroke-width:0.5;"/><path d="M1420,1615.4902 L1420,1625.4902 L1430,1625.4902 L1420,1615.4902 " fill="#FEFFDD" style="stroke:#181818;stroke-width:0.5;"/><text fill="#000000" font-family="sans-serif" font-size="13" lengthAdjust="spacing" textLength="4" x="1345" y="1633.0586">&#160;</text><text fill="#000000" font-family="sans-serif" font-size="13" lengthAdjust="spacing" textLength="70" x="1345" y="1648.3691">20,320 gas</text><polygon fill="#181818" points="571.5,1709.043,581.5,1713.043,571.5,1717.043,575.5,1713.043" style="stroke:#181818;stroke-width:1.0;"/><line style="stroke:#181818;stroke-width:1.0;" x1="344.5" x2="577.5" y1="1713.043" y2="1713.043"/><text fill="#000000" font-family="sans-serif" font-size="13" lengthAdjust="spacing" textLength="114" x="351.5" y="1677.6797">isSupportedAsset(</text><text fill="#000000" font-family="sans-serif" font-size="13" lengthAdjust="spacing" textLength="134" x="359.5" y="1692.9902">token: 0xae78..6393)</text><text fill="#000000" font-family="sans-serif" font-size="13" lengthAdjust="spacing" textLength="62" x="351.5" y="1708.3008">3,184 gas</text><polygon fill="#181818" points="355.5,1738.3535,345.5,1742.3535,355.5,1746.3535,351.5,1742.3535" style="stroke:#181818;stroke-width:1.0;"/><line style="stroke:#181818;stroke-width:1.0;stroke-dasharray:2.0,2.0;" x1="349.5" x2="587.5" y1="1742.3535" y2="1742.3535"/><text fill="#000000" font-family="sans-serif" font-size="13" lengthAdjust="spacing" textLength="108" x="361.5" y="1737.6113">isSupported: true</text><polygon fill="#181818" points="1736.5,1798.2852,1746.5,1802.2852,1736.5,1806.2852,1740.5,1802.2852" style="stroke:#181818;stroke-width:1.0;"/><line style="stroke:#181818;stroke-width:1.0;" x1="344.5" x2="1742.5" y1="1802.2852" y2="1802.2852"/><text fill="#000000" font-family="sans-serif" font-size="13" lengthAdjust="spacing" textLength="67" x="351.5" y="1766.9219">balanceOf(</text><text fill="#000000" font-family="sans-serif" font-size="13" lengthAdjust="spacing" textLength="151" x="359.5" y="1782.2324">account: 0xA479..8d32)</text><text fill="#000000" font-family="sans-serif" font-size="13" lengthAdjust="spacing" textLength="62" x="351.5" y="1797.543">2,486 gas</text><polygon fill="#181818" points="355.5,1827.5957,345.5,1831.5957,355.5,1835.5957,351.5,1831.5957" style="stroke:#181818;stroke-width:1.0;"/><line style="stroke:#181818;stroke-width:1.0;stroke-dasharray:2.0,2.0;" x1="349.5" x2="1752.5" y1="1831.5957" y2="1831.5957"/><text fill="#000000" font-family="sans-serif" font-size="13" lengthAdjust="spacing" textLength="180" x="361.5" y="1826.8535">8,,153,612,892,322,113,880</text><polygon fill="#181818" points="1736.5,1902.8379,1746.5,1906.8379,1736.5,1910.8379,1740.5,1906.8379" style="stroke:#181818;stroke-width:1.0;"/><line style="stroke:#181818;stroke-width:1.0;" x1="344.5" x2="1742.5" y1="1906.8379" y2="1906.8379"/><text fill="#000000" font-family="sans-serif" font-size="13" lengthAdjust="spacing" textLength="53" x="351.5" y="1856.1641">transfer(</text><text fill="#000000" font-family="sans-serif" font-size="13" lengthAdjust="spacing" textLength="151" x="359.5" y="1871.4746">recipient: 0x8bBB..4aE2,</text><text fill="#000000" font-family="sans-serif" font-size="13" lengthAdjust="spacing" textLength="240" x="359.5" y="1886.7852">amount: 8,,153,612,892,322,113,880)</text><text fill="#000000" font-family="sans-serif" font-size="13" lengthAdjust="spacing" textLength="70" x="351.5" y="1902.0957">18,725 gas</text><polygon fill="#181818" points="1959.5,1962.7695,1969.5,1966.7695,1959.5,1970.7695,1963.5,1966.7695" style="stroke:#181818;stroke-width:1.0;"/><line style="stroke:#181818;stroke-width:1.0;" x1="1758.5" x2="1965.5" y1="1966.7695" y2="1966.7695"/><text fill="#000000" font-family="sans-serif" font-size="13" lengthAdjust="spacing" textLength="50" x="1765.5" y="1931.4063">getUint(</text><text fill="#000000" font-family="sans-serif" font-size="13" lengthAdjust="spacing" textLength="186" x="1773.5" y="1946.7168">_key: 0xbc96982d..0032acfc)</text><text fill="#000000" font-family="sans-serif" font-size="13" lengthAdjust="spacing" textLength="62" x="1765.5" y="1962.0273">2,473 gas</text><polygon fill="#181818" points="1769.5,1992.0801,1759.5,1996.0801,1769.5,2000.0801,1765.5,1996.0801" style="stroke:#181818;stroke-width:1.0;"/><line style="stroke:#181818;stroke-width:1.0;stroke-dasharray:2.0,2.0;" x1="1763.5" x2="1975.5" y1="1996.0801" y2="1996.0801"/><text fill="#000000" font-family="sans-serif" font-size="13" lengthAdjust="spacing" textLength="21" x="1775.5" y="1991.3379">r: 0</text><polygon fill="#181818" points="355.5,2021.3906,345.5,2025.3906,355.5,2029.3906,351.5,2025.3906" style="stroke:#181818;stroke-width:1.0;"/><line style="stroke:#181818;stroke-width:1.0;stroke-dasharray:2.0,2.0;" x1="349.5" x2="1752.5" y1="2025.3906" y2="2025.3906"/><text fill="#000000" font-family="sans-serif" font-size="13" lengthAdjust="spacing" textLength="25" x="361.5" y="2020.6484">true</text><path d="M1758,2038.3906 L1758,2078.3906 L1849,2078.3906 L1849,2048.3906 L1839,2038.3906 L1758,2038.3906 " fill="#FEFFDD" style="stroke:#181818;stroke-width:0.5;"/><path d="M1839,2038.3906 L1839,2048.3906 L1849,2048.3906 L1839,2038.3906 " fill="#FEFFDD" style="stroke:#181818;stroke-width:0.5;"/><text fill="#000000" font-family="sans-serif" font-size="13" lengthAdjust="spacing" textLength="4" x="1764" y="2055.959">&#160;</text><text fill="#000000" font-family="sans-serif" font-size="13" lengthAdjust="spacing" textLength="70" x="1764" y="2071.2695">16,252 gas</text><polygon fill="#181818" points="121.5,2086.0117,111.5,2090.0117,121.5,2094.0117,117.5,2090.0117" style="stroke:#181818;stroke-width:1.0;"/><line style="stroke:#181818;stroke-width:1.0;stroke-dasharray:2.0,2.0;" x1="115.5" x2="338.5" y1="2090.0117" y2="2090.0117"/><path d="M344,2103.0117 L344,2143.0117 L435,2143.0117 L435,2113.0117 L425,2103.0117 L344,2103.0117 " fill="#FEFFDD" style="stroke:#181818;stroke-width:0.5;"/><path d="M425,2103.0117 L425,2113.0117 L435,2113.0117 L425,2103.0117 " fill="#FEFFDD" style="stroke:#181818;stroke-width:0.5;"/><text fill="#000000" font-family="sans-serif" font-size="13" lengthAdjust="spacing" textLength="4" x="350" y="2120.5801">&#160;</text><text fill="#000000" font-family="sans-serif" font-size="13" lengthAdjust="spacing" textLength="70" x="350" y="2135.8906">50,981 gas</text><path d="M648,2153.6328 L648,2224.6328 L898,2224.6328 L898,2163.6328 L888,2153.6328 L648,2153.6328 " fill="#00FFFF" style="stroke:#181818;stroke-width:0.5;"/><path d="M888,2153.6328 L888,2163.6328 L898,2163.6328 L888,2153.6328 " fill="#00FFFF" style="stroke:#181818;stroke-width:0.5;"/><text fill="#000000" font-family="sans-serif" font-size="13" lengthAdjust="spacing" textLength="56" x="654" y="2171.2012">Transfer:</text><text fill="#000000" font-family="sans-serif" font-size="13" lengthAdjust="spacing" textLength="131" x="662" y="2186.5117">from: 0xA479..8d32,</text><text fill="#000000" font-family="sans-serif" font-size="13" lengthAdjust="spacing" textLength="109" x="662" y="2201.8223">to: 0x8bBB..4aE2,</text><text fill="#000000" font-family="sans-serif" font-size="13" lengthAdjust="spacing" textLength="221" x="662" y="2217.1328">value: 2,,721,322,872,839,895,843</text><path d="M908,2153.6328 L908,2224.6328 L1174,2224.6328 L1174,2163.6328 L1164,2153.6328 L908,2153.6328 " fill="#00FFFF" style="stroke:#181818;stroke-width:0.5;"/><path d="M1164,2153.6328 L1164,2163.6328 L1174,2163.6328 L1164,2153.6328 " fill="#00FFFF" style="stroke:#181818;stroke-width:0.5;"/><text fill="#000000" font-family="sans-serif" font-size="13" lengthAdjust="spacing" textLength="56" x="914" y="2171.2012">Transfer:</text><text fill="#000000" font-family="sans-serif" font-size="13" lengthAdjust="spacing" textLength="131" x="922" y="2186.5117">from: 0xA479..8d32,</text><text fill="#000000" font-family="sans-serif" font-size="13" lengthAdjust="spacing" textLength="109" x="922" y="2201.8223">to: 0x8bBB..4aE2,</text><text fill="#000000" font-family="sans-serif" font-size="13" lengthAdjust="spacing" textLength="237" x="922" y="2217.1328">value: 139,,881,548,310,805,216,648</text><path d="M1184,2153.6328 L1184,2285.6328 L1484,2285.6328 L1484,2163.6328 L1474,2153.6328 L1184,2153.6328 " fill="#00FFFF" style="stroke:#181818;stroke-width:0.5;"/><path d="M1474,2153.6328 L1474,2163.6328 L1484,2163.6328 L1474,2153.6328 " fill="#00FFFF" style="stroke:#181818;stroke-width:0.5;"/><text fill="#000000" font-family="sans-serif" font-size="13" lengthAdjust="spacing" textLength="56" x="1190" y="2171.2012">Transfer:</text><text fill="#000000" font-family="sans-serif" font-size="13" lengthAdjust="spacing" textLength="131" x="1198" y="2186.5117">from: 0xA479..8d32,</text><text fill="#000000" font-family="sans-serif" font-size="13" lengthAdjust="spacing" textLength="109" x="1198" y="2201.8223">to: 0x8bBB..4aE2,</text><text fill="#000000" font-family="sans-serif" font-size="13" lengthAdjust="spacing" textLength="229" x="1198" y="2217.1328">value: 14,,380,120,308,640,823,961</text><text fill="#000000" font-family="sans-serif" font-size="13" lengthAdjust="spacing" textLength="97" x="1190" y="2232.4434">TransferShares:</text><text fill="#000000" font-family="sans-serif" font-size="13" lengthAdjust="spacing" textLength="131" x="1198" y="2247.7539">from: 0xA479..8d32,</text><text fill="#000000" font-family="sans-serif" font-size="13" lengthAdjust="spacing" textLength="109" x="1198" y="2263.0645">to: 0x8bBB..4aE2,</text><text fill="#000000" font-family="sans-serif" font-size="13" lengthAdjust="spacing" textLength="271" x="1198" y="2278.375">sharesValue: 12,,436,455,921,361,564,531</text><path d="M1628,2153.6328 L1628,2224.6328 L1878,2224.6328 L1878,2163.6328 L1868,2153.6328 L1628,2153.6328 " fill="#00FFFF" style="stroke:#181818;stroke-width:0.5;"/><path d="M1868,2153.6328 L1868,2163.6328 L1878,2163.6328 L1868,2153.6328 " fill="#00FFFF" style="stroke:#181818;stroke-width:0.5;"/><text fill="#000000" font-family="sans-serif" font-size="13" lengthAdjust="spacing" textLength="56" x="1634" y="2171.2012">Transfer:</text><text fill="#000000" font-family="sans-serif" font-size="13" lengthAdjust="spacing" textLength="131" x="1642" y="2186.5117">from: 0xA479..8d32,</text><text fill="#000000" font-family="sans-serif" font-size="13" lengthAdjust="spacing" textLength="109" x="1642" y="2201.8223">to: 0x8bBB..4aE2,</text><text fill="#000000" font-family="sans-serif" font-size="13" lengthAdjust="spacing" textLength="221" x="1642" y="2217.1328">value: 8,,153,612,892,322,113,880</text><!--SRC=[nLVRRjms47tNLn3fImAmAY_YHO9XmAaTDyZ5HhBfIrqON8co1UzA6qdhsd_V8INAzZgxZGq3VLX0CwBEcJaSpd3xgbzOH6vKGMsI2bqmdXDfoeJAL0f6bA8wJPYWB2aCPofdig2Qb-3DvuKKYl62KqsZA3Uhlcfgj3HLNTiUe_cYoQyGJQacAgKOpIxN616DtjavOeGbYF2CionHwFZJB39vtxJe5RaHXILnpCkKlaAcGyvq1efMfkshl5gPkdVhJABIEDO5PtwTCvs1zlPchQaxM6th_jlgeZM5DVE5FMsRczlz_KsOKZkOHCvB3-DCPpmLHWkPksXoxc6SwGo0EMchYwf6H_sbRVVtz_PUdnpD_dZZdjp35hX2b2gEJL4Q3-TCPm3S4ZxoCCi0ywGuZLKcZakhaq4rC9q1m1-hx-kgG5rlhcmnX8jOJ3nNrmUoWzNA8zzZUamorsK9Oe00diIPpl0aHPEXGxjQDBSEtq5-i6rj5zlZrN4iUSf3lDeP0FK5gilswBHf5YXeqeOmXvUpvihMN_pBJLnQQ0YnD8dqkCvqnaFS37s5eZGNzWvoSaHHtVGMDTUGHgZHw7DJvpP3L4J707hQLixY91PAQwaq4-Zu7rj5dymDd09u9KbCxbomlcch_XO0Wjl1VAoMLPyXnWHMYddNjyuMu24QKyMZsOW6O4GwBI9R5yY55qNJyVbrVpeY6UfToPIsFUWwstUpvdDJs4Exi1S6qdjzLYDK5_dxkh0tW8gTRVpA3Ftb38G8-AUQ_vtZmKkTjn3le7GF3aipUfdpZdLtf9FHoqVlkBj_lpchntpGXUbSEwYk3GWSWewc0mwPX5EQeKlJVMaMriVSmeD3JPMKYYZe8abfqddAqY65F6_MTUzMYCFGOu0snKheXwG1Fsfjlsvhq6jjjmHGTL_NgrNJzhRmQlf8UbTu3oK28eufdBITHFVGiiUieQjaQ6uM1ahjfFHqv_TIEvZQ8Z1IXiKcPG09b0nZnIZcZ66juCTJh5E1TSAtS8VY6QZxnkSvV_iMv3P7p4jzVcqMQzYBxTXkkpbE4x4xk6SBVrU5Bo5ywBy_BNoAfP0F6GD6OAGW1jQQOf5ep2d1cWZCgCGoqLl8dw3yBdHN61J3JDyTuBErlplhBw5z654_hJs7kf8R1pg0HDF00-Gmbp9qONiOR0DiRPOMncdkMqb9Isxd2JGBMN9XSb8EAflLwdtX5l3Sg9nR3WjqRalE24IWCPCRRInmXPnX0YcQn35LTZvLH88nrmHJHZ27NYWJs3PtIYGTXWtS92vxr9JtD85Z16E1ZCVeXx8zfMgsH-0EBCD4y_zJM8hLSuJrDRL3GKYMaKSAFg7Sno7sGkNkRpYRvRwjsXbEj7oq9nuY46gCgU1OmZJGAVFTc58EtO5iONvGCQs5MrDb1-gDkZ7B8QRj36xJD0m1iIN4wK870OHBc2-RRrKzw7n-PMyTzJnFPQfP4SCjXpEJb_cG_UQ58Q24x5luU7SXZ5b3f1Aw8lDmumURYwSRr5aj24xrq4BlNGMdY_ylvllQHBDHoIn2g6oRvSFjmv4hemrTmVUVq_FU1UytT4S-_Kru0VATu-d7z5CBU0dw7Rqm07-zX3yztTFWE__DdoC9A9nmYHCXSEgKbf2kJB3WT7kAGxc-G8exZkL4_Yy0]--></g></svg>