<?xml version="1.0" encoding="us-ascii" standalone="no"?><svg xmlns="http://www.w3.org/2000/svg" xmlns:xlink="http://www.w3.org/1999/xlink" contentStyleType="text/css" height="1798px" preserveAspectRatio="none" style="width:1584px;height:1798px;background:#FFFFFF;" version="1.1" viewBox="0 0 1584 1798" width="1584px" zoomAndPan="magnify"><defs/><g><text fill="#000000" font-family="sans-serif" font-size="14" font-weight="bold" lengthAdjust="spacing" textLength="573" x="504" y="28.5352">0xbb9c26b621ce45ae734188fbd37d659a5b4cf8449a627e1c25646d95db471197</text><text fill="#000000" font-family="sans-serif" font-size="14" lengthAdjust="spacing" textLength="399" x="591" y="1786.9551">mainnet, block 19192080, Fri, 09 Feb 2024 17:32:59 GMT</text><rect fill="#FFFFFF" height="1165.459" style="stroke:#181818;stroke-width:1.0;" width="10" x="298.5" y="344.3457"/><rect fill="#FFFFFF" height="29.3105" style="stroke:#181818;stroke-width:1.0;" width="10" x="567.5" y="419.5879"/><rect fill="#FFFFFF" height="29.3105" style="stroke:#181818;stroke-width:1.0;" width="10" x="567.5" y="508.8301"/><rect fill="#FFFFFF" height="29.3105" style="stroke:#181818;stroke-width:1.0;" width="10" x="567.5" y="598.0723"/><rect fill="#FFFFFF" height="29.3105" style="stroke:#181818;stroke-width:1.0;" width="10" x="567.5" y="776.5566"/><rect fill="#FFFFFF" height="29.3105" style="stroke:#181818;stroke-width:1.0;" width="10" x="701.5" y="687.3145"/><rect fill="#FFFFFF" height="29.3105" style="stroke:#181818;stroke-width:1.0;" width="10" x="701.5" y="1126.8359"/><rect fill="#FFFFFF" height="548.7637" style="stroke:#181818;stroke-width:1.0;" width="10" x="978.5" y="896.4199"/><rect fill="#FFFFFF" height="29.3105" style="stroke:#181818;stroke-width:1.0;" width="10" x="1150.5" y="956.3516"/><rect fill="#FFFFFF" height="14" style="stroke:#181818;stroke-width:1.0;" width="10" x="1295.5" y="1401.873"/><rect fill="#FFFFFF" height="29.3105" style="stroke:#181818;stroke-width:1.0;" width="10" x="1476.5" y="1231.3887"/><line style="stroke:#181818;stroke-width:0.5;stroke-dasharray:5.0,5.0;" x1="110" x2="110" y1="139.9297" y2="1674.9785"/><line style="stroke:#181818;stroke-width:0.5;stroke-dasharray:5.0,5.0;" x1="303" x2="303" y1="139.9297" y2="1674.9785"/><line style="stroke:#181818;stroke-width:0.5;stroke-dasharray:5.0,5.0;" x1="572" x2="572" y1="139.9297" y2="1674.9785"/><line style="stroke:#181818;stroke-width:0.5;stroke-dasharray:5.0,5.0;" x1="706" x2="706" y1="139.9297" y2="1674.9785"/><line style="stroke:#181818;stroke-width:0.5;stroke-dasharray:5.0,5.0;" x1="983.5" x2="983.5" y1="139.9297" y2="1674.9785"/><line style="stroke:#181818;stroke-width:0.5;stroke-dasharray:5.0,5.0;" x1="1155.5" x2="1155.5" y1="139.9297" y2="1674.9785"/><line style="stroke:#181818;stroke-width:0.5;stroke-dasharray:5.0,5.0;" x1="1300.5" x2="1300.5" y1="139.9297" y2="1674.9785"/><line style="stroke:#181818;stroke-width:0.5;stroke-dasharray:5.0,5.0;" x1="1481.5" x2="1481.5" y1="139.9297" y2="1674.9785"/><text fill="#000000" font-family="sans-serif" font-size="14" lengthAdjust="spacing" textLength="93" x="61" y="136.9766">0x5de0..3f91</text><ellipse cx="110.5" cy="71.9414" fill="#E2E2F0" rx="8" ry="8" style="stroke:#181818;stroke-width:0.5;"/><path d="M110.5,79.9414 L110.5,106.9414 M97.5,87.9414 L123.5,87.9414 M110.5,106.9414 L97.5,121.9414 M110.5,106.9414 L123.5,121.9414 " fill="none" style="stroke:#181818;stroke-width:0.5;"/><text fill="#000000" font-family="sans-serif" font-size="14" lengthAdjust="spacing" textLength="93" x="61" y="1687.5137">0x5de0..3f91</text><ellipse cx="110.5" cy="1698.9668" fill="#E2E2F0" rx="8" ry="8" style="stroke:#181818;stroke-width:0.5;"/><path d="M110.5,1706.9668 L110.5,1733.9668 M97.5,1714.9668 L123.5,1714.9668 M110.5,1733.9668 L97.5,1748.9668 M110.5,1733.9668 L123.5,1748.9668 " fill="none" style="stroke:#181818;stroke-width:0.5;"/><rect fill="#E2E2F0" height="63.4648" rx="2.5" ry="2.5" style="stroke:#181818;stroke-width:0.5;" width="131" x="238" y="75.4648"/><text fill="#000000" font-family="sans-serif" font-size="14" font-style="italic" lengthAdjust="spacing" textLength="103" x="252" y="96">&#171;Prime Staked&#187;</text><text fill="#000000" font-family="sans-serif" font-size="14" font-style="italic" lengthAdjust="spacing" textLength="117" x="245" y="112.4883">&#171;NodeDelegator&#187;</text><text fill="#000000" font-family="sans-serif" font-size="14" lengthAdjust="spacing" textLength="96" x="255.5" y="128.9766">0x8bbb..4ae2</text><rect fill="#E2E2F0" height="63.4648" rx="2.5" ry="2.5" style="stroke:#181818;stroke-width:0.5;" width="131" x="238" y="1673.9785"/><text fill="#000000" font-family="sans-serif" font-size="14" font-style="italic" lengthAdjust="spacing" textLength="103" x="252" y="1694.5137">&#171;Prime Staked&#187;</text><text fill="#000000" font-family="sans-serif" font-size="14" font-style="italic" lengthAdjust="spacing" textLength="117" x="245" y="1711.002">&#171;NodeDelegator&#187;</text><text fill="#000000" font-family="sans-serif" font-size="14" lengthAdjust="spacing" textLength="96" x="255.5" y="1727.4902">0x8bbb..4ae2</text><rect fill="#E2E2F0" height="63.4648" rx="2.5" ry="2.5" style="stroke:#181818;stroke-width:0.5;" width="117" x="514" y="75.4648"/><text fill="#000000" font-family="sans-serif" font-size="14" font-style="italic" lengthAdjust="spacing" textLength="103" x="521" y="96">&#171;Prime Staked&#187;</text><text fill="#000000" font-family="sans-serif" font-size="14" font-style="italic" lengthAdjust="spacing" textLength="85" x="530" y="112.4883">&#171;LRTConfig&#187;</text><text fill="#000000" font-family="sans-serif" font-size="14" lengthAdjust="spacing" textLength="90" x="527.5" y="128.9766">0xf879..46bf</text><rect fill="#E2E2F0" height="63.4648" rx="2.5" ry="2.5" style="stroke:#181818;stroke-width:0.5;" width="117" x="514" y="1673.9785"/><text fill="#000000" font-family="sans-serif" font-size="14" font-style="italic" lengthAdjust="spacing" textLength="103" x="521" y="1694.5137">&#171;Prime Staked&#187;</text><text fill="#000000" font-family="sans-serif" font-size="14" font-style="italic" lengthAdjust="spacing" textLength="85" x="530" y="1711.002">&#171;LRTConfig&#187;</text><text fill="#000000" font-family="sans-serif" font-size="14" lengthAdjust="spacing" textLength="90" x="527.5" y="1727.4902">0xf879..46bf</text><rect fill="#E2E2F0" height="96.4414" rx="2.5" ry="2.5" style="stroke:#181818;stroke-width:0.5;" width="111" x="651" y="42.4883"/><text fill="#000000" font-family="sans-serif" font-size="14" font-style="italic" lengthAdjust="spacing" textLength="57" x="678" y="63.0234">&#171;Origin&#187;</text><text fill="#000000" font-family="sans-serif" font-size="14" font-style="italic" lengthAdjust="spacing" textLength="97" x="658" y="79.5117">&#171;Origin Ether&#187;</text><text fill="#000000" font-family="sans-serif" font-size="14" font-style="italic" lengthAdjust="spacing" textLength="62" x="675.5" y="96">&#171;(OETH)&#187;</text><text fill="#000000" font-family="sans-serif" font-size="14" font-style="italic" lengthAdjust="spacing" textLength="52" x="680.5" y="112.4883">&#171;OETH&#187;</text><text fill="#000000" font-family="sans-serif" font-size="14" lengthAdjust="spacing" textLength="94" x="659.5" y="128.9766">0x856c..8dc3</text><rect fill="#E2E2F0" height="96.4414" rx="2.5" ry="2.5" style="stroke:#181818;stroke-width:0.5;" width="111" x="651" y="1673.9785"/><text fill="#000000" font-family="sans-serif" font-size="14" font-style="italic" lengthAdjust="spacing" textLength="57" x="678" y="1694.5137">&#171;Origin&#187;</text><text fill="#000000" font-family="sans-serif" font-size="14" font-style="italic" lengthAdjust="spacing" textLength="97" x="658" y="1711.002">&#171;Origin Ether&#187;</text><text fill="#000000" font-family="sans-serif" font-size="14" font-style="italic" lengthAdjust="spacing" textLength="62" x="675.5" y="1727.4902">&#171;(OETH)&#187;</text><text fill="#000000" font-family="sans-serif" font-size="14" font-style="italic" lengthAdjust="spacing" textLength="52" x="680.5" y="1743.9785">&#171;OETH&#187;</text><text fill="#000000" font-family="sans-serif" font-size="14" lengthAdjust="spacing" textLength="94" x="659.5" y="1760.4668">0x856c..8dc3</text><rect fill="#E2E2F0" height="63.4648" rx="2.5" ry="2.5" style="stroke:#181818;stroke-width:0.5;" width="144" x="911.5" y="75.4648"/><text fill="#000000" font-family="sans-serif" font-size="14" font-style="italic" lengthAdjust="spacing" textLength="88" x="939.5" y="96">&#171;EigenLayer&#187;</text><text fill="#000000" font-family="sans-serif" font-size="14" font-style="italic" lengthAdjust="spacing" textLength="130" x="918.5" y="112.4883">&#171;StrategyManager&#187;</text><text fill="#000000" font-family="sans-serif" font-size="14" lengthAdjust="spacing" textLength="97" x="935" y="128.9766">0x8586..075a</text><rect fill="#E2E2F0" height="63.4648" rx="2.5" ry="2.5" style="stroke:#181818;stroke-width:0.5;" width="144" x="911.5" y="1673.9785"/><text fill="#000000" font-family="sans-serif" font-size="14" font-style="italic" lengthAdjust="spacing" textLength="88" x="939.5" y="1694.5137">&#171;EigenLayer&#187;</text><text fill="#000000" font-family="sans-serif" font-size="14" font-style="italic" lengthAdjust="spacing" textLength="130" x="918.5" y="1711.002">&#171;StrategyManager&#187;</text><text fill="#000000" font-family="sans-serif" font-size="14" lengthAdjust="spacing" textLength="97" x="935" y="1727.4902">0x8586..075a</text><rect fill="#E2E2F0" height="46.9766" rx="2.5" ry="2.5" style="stroke:#181818;stroke-width:0.5;" width="108" x="1101.5" y="91.9531"/><text fill="#000000" font-family="sans-serif" font-size="14" font-style="italic" lengthAdjust="spacing" textLength="64" x="1123.5" y="112.4883">&#171;Slasher&#187;</text><text fill="#000000" font-family="sans-serif" font-size="14" lengthAdjust="spacing" textLength="94" x="1108.5" y="128.9766">0xd921..c3cd</text><rect fill="#E2E2F0" height="46.9766" rx="2.5" ry="2.5" style="stroke:#181818;stroke-width:0.5;" width="108" x="1101.5" y="1673.9785"/><text fill="#000000" font-family="sans-serif" font-size="14" font-style="italic" lengthAdjust="spacing" textLength="64" x="1123.5" y="1694.5137">&#171;Slasher&#187;</text><text fill="#000000" font-family="sans-serif" font-size="14" lengthAdjust="spacing" textLength="94" x="1108.5" y="1711.002">0xd921..c3cd</text><rect fill="#E2E2F0" height="46.9766" rx="2.5" ry="2.5" style="stroke:#181818;stroke-width:0.5;" width="162" x="1219.5" y="91.9531"/><text fill="#000000" font-family="sans-serif" font-size="14" font-style="italic" lengthAdjust="spacing" textLength="148" x="1226.5" y="112.4883">&#171;DelegationManager&#187;</text><text fill="#000000" font-family="sans-serif" font-size="14" lengthAdjust="spacing" textLength="93" x="1254" y="128.9766">0x3905..f37a</text><rect fill="#E2E2F0" height="46.9766" rx="2.5" ry="2.5" style="stroke:#181818;stroke-width:0.5;" width="162" x="1219.5" y="1673.9785"/><text fill="#000000" font-family="sans-serif" font-size="14" font-style="italic" lengthAdjust="spacing" textLength="148" x="1226.5" y="1694.5137">&#171;DelegationManager&#187;</text><text fill="#000000" font-family="sans-serif" font-size="14" lengthAdjust="spacing" textLength="93" x="1254" y="1711.002">0x3905..f37a</text><rect fill="#E2E2F0" height="63.4648" rx="2.5" ry="2.5" style="stroke:#181818;stroke-width:0.5;" width="180" x="1391.5" y="75.4648"/><text fill="#000000" font-family="sans-serif" font-size="14" font-style="italic" lengthAdjust="spacing" textLength="88" x="1437.5" y="96">&#171;EigenLayer&#187;</text><text fill="#000000" font-family="sans-serif" font-size="14" font-style="italic" lengthAdjust="spacing" textLength="166" x="1398.5" y="112.4883">&#171;StrategyBaseTVLLimits&#187;</text><text fill="#000000" font-family="sans-serif" font-size="14" lengthAdjust="spacing" textLength="95" x="1434" y="128.9766">0xa4c6..d059</text><rect fill="#E2E2F0" height="63.4648" rx="2.5" ry="2.5" style="stroke:#181818;stroke-width:0.5;" width="180" x="1391.5" y="1673.9785"/><text fill="#000000" font-family="sans-serif" font-size="14" font-style="italic" lengthAdjust="spacing" textLength="88" x="1437.5" y="1694.5137">&#171;EigenLayer&#187;</text><text fill="#000000" font-family="sans-serif" font-size="14" font-style="italic" lengthAdjust="spacing" textLength="166" x="1398.5" y="1711.002">&#171;StrategyBaseTVLLimits&#187;</text><text fill="#000000" font-family="sans-serif" font-size="14" lengthAdjust="spacing" textLength="95" x="1434" y="1727.4902">0xa4c6..d059</text><rect fill="#FFFFFF" height="1165.459" style="stroke:#181818;stroke-width:1.0;" width="10" x="298.5" y="344.3457"/><rect fill="#FFFFFF" height="29.3105" style="stroke:#181818;stroke-width:1.0;" width="10" x="567.5" y="419.5879"/><rect fill="#FFFFFF" height="29.3105" style="stroke:#181818;stroke-width:1.0;" width="10" x="567.5" y="508.8301"/><rect fill="#FFFFFF" height="29.3105" style="stroke:#181818;stroke-width:1.0;" width="10" x="567.5" y="598.0723"/><rect fill="#FFFFFF" height="29.3105" style="stroke:#181818;stroke-width:1.0;" width="10" x="567.5" y="776.5566"/><rect fill="#FFFFFF" height="29.3105" style="stroke:#181818;stroke-width:1.0;" width="10" x="701.5" y="687.3145"/><rect fill="#FFFFFF" height="29.3105" style="stroke:#181818;stroke-width:1.0;" width="10" x="701.5" y="1126.8359"/><rect fill="#FFFFFF" height="548.7637" style="stroke:#181818;stroke-width:1.0;" width="10" x="978.5" y="896.4199"/><rect fill="#FFFFFF" height="29.3105" style="stroke:#181818;stroke-width:1.0;" width="10" x="1150.5" y="956.3516"/><rect fill="#FFFFFF" height="14" style="stroke:#181818;stroke-width:1.0;" width="10" x="1295.5" y="1401.873"/><rect fill="#FFFFFF" height="29.3105" style="stroke:#181818;stroke-width:1.0;" width="10" x="1476.5" y="1231.3887"/><path d="M5,154.9297 L5,271.9297 L217,271.9297 L217,164.9297 L207,154.9297 L5,154.9297 " fill="#FEFFDD" style="stroke:#181818;stroke-width:0.5;"/><path d="M207,154.9297 L207,164.9297 L217,164.9297 L207,154.9297 " fill="#FEFFDD" style="stroke:#181818;stroke-width:0.5;"/><text fill="#000000" font-family="sans-serif" font-size="13" lengthAdjust="spacing" textLength="64" x="11" y="172.498">Nonce: 45</text><text fill="#000000" font-family="sans-serif" font-size="13" lengthAdjust="spacing" textLength="191" x="11" y="187.8086">Gas Price: 73.318719556 Gwei</text><text fill="#000000" font-family="sans-serif" font-size="13" lengthAdjust="spacing" textLength="129" x="11" y="203.1191">Max Fee: 100.0 Gwei</text><text fill="#000000" font-family="sans-serif" font-size="13" lengthAdjust="spacing" textLength="137" x="11" y="218.4297">Max Priority: 3.0 Gwei</text><text fill="#000000" font-family="sans-serif" font-size="13" lengthAdjust="spacing" textLength="119" x="11" y="233.7402">Gas Limit: 202,790</text><text fill="#000000" font-family="sans-serif" font-size="13" lengthAdjust="spacing" textLength="118" x="11" y="249.0508">Gas Used: 189,257</text><text fill="#000000" font-family="sans-serif" font-size="13" lengthAdjust="spacing" textLength="114" x="11" y="264.3613">Tx Fee: 0.014 ETH</text><polygon fill="#181818" points="286.5,340.3457,296.5,344.3457,286.5,348.3457,290.5,344.3457" style="stroke:#181818;stroke-width:1.0;"/><line style="stroke:#181818;stroke-width:1.0;" x1="110.5" x2="292.5" y1="344.3457" y2="344.3457"/><text fill="#000000" font-family="sans-serif" font-size="13" lengthAdjust="spacing" textLength="169" x="117.5" y="293.6719">depositAssetsIntoStrategy(</text><text fill="#000000" font-family="sans-serif" font-size="13" lengthAdjust="spacing" textLength="52" x="125.5" y="308.9824">assets: [</text><text fill="#000000" font-family="sans-serif" font-size="13" lengthAdjust="spacing" textLength="112" x="133.5" y="324.293">0: 0x856c..8dC3])</text><text fill="#000000" font-family="sans-serif" font-size="13" lengthAdjust="spacing" textLength="78" x="117.5" y="339.6035">189,257 gas</text><polygon fill="#181818" points="555.5,415.5879,565.5,419.5879,555.5,423.5879,559.5,419.5879" style="stroke:#181818;stroke-width:1.0;"/><line style="stroke:#181818;stroke-width:1.0;" x1="308.5" x2="561.5" y1="419.5879" y2="419.5879"/><text fill="#000000" font-family="sans-serif" font-size="13" lengthAdjust="spacing" textLength="53" x="315.5" y="368.9141">hasRole(</text><text fill="#000000" font-family="sans-serif" font-size="13" lengthAdjust="spacing" textLength="184" x="323.5" y="384.2246">role: 0x97667070..4fa9b929,</text><text fill="#000000" font-family="sans-serif" font-size="13" lengthAdjust="spacing" textLength="148" x="323.5" y="399.5352">account: 0x5De0..3f91)</text><text fill="#000000" font-family="sans-serif" font-size="13" lengthAdjust="spacing" textLength="62" x="315.5" y="414.8457">9,758 gas</text><polygon fill="#181818" points="319.5,444.8984,309.5,448.8984,319.5,452.8984,315.5,448.8984" style="stroke:#181818;stroke-width:1.0;"/><line style="stroke:#181818;stroke-width:1.0;stroke-dasharray:2.0,2.0;" x1="313.5" x2="571.5" y1="448.8984" y2="448.8984"/><text fill="#000000" font-family="sans-serif" font-size="13" lengthAdjust="spacing" textLength="25" x="325.5" y="444.1563">true</text><polygon fill="#181818" points="555.5,504.8301,565.5,508.8301,555.5,512.8301,559.5,508.8301" style="stroke:#181818;stroke-width:1.0;"/><line style="stroke:#181818;stroke-width:1.0;" x1="308.5" x2="561.5" y1="508.8301" y2="508.8301"/><text fill="#000000" font-family="sans-serif" font-size="13" lengthAdjust="spacing" textLength="114" x="315.5" y="473.4668">isSupportedAsset(</text><text fill="#000000" font-family="sans-serif" font-size="13" lengthAdjust="spacing" textLength="136" x="323.5" y="488.7773">token: 0x856c..8dC3)</text><text fill="#000000" font-family="sans-serif" font-size="13" lengthAdjust="spacing" textLength="62" x="315.5" y="504.0879">3,184 gas</text><polygon fill="#181818" points="319.5,534.1406,309.5,538.1406,319.5,542.1406,315.5,538.1406" style="stroke:#181818;stroke-width:1.0;"/><line style="stroke:#181818;stroke-width:1.0;stroke-dasharray:2.0,2.0;" x1="313.5" x2="571.5" y1="538.1406" y2="538.1406"/><text fill="#000000" font-family="sans-serif" font-size="13" lengthAdjust="spacing" textLength="108" x="325.5" y="533.3984">isSupported: true</text><polygon fill="#181818" points="555.5,594.0723,565.5,598.0723,555.5,602.0723,559.5,598.0723" style="stroke:#181818;stroke-width:1.0;"/><line style="stroke:#181818;stroke-width:1.0;" x1="308.5" x2="561.5" y1="598.0723" y2="598.0723"/><text fill="#000000" font-family="sans-serif" font-size="13" lengthAdjust="spacing" textLength="88" x="315.5" y="562.709">assetStrategy(</text><text fill="#000000" font-family="sans-serif" font-size="13" lengthAdjust="spacing" textLength="136" x="323.5" y="578.0195">token: 0x856c..8dC3)</text><text fill="#000000" font-family="sans-serif" font-size="13" lengthAdjust="spacing" textLength="62" x="315.5" y="593.3301">3,176 gas</text><polygon fill="#181818" points="319.5,623.3828,309.5,627.3828,319.5,631.3828,315.5,627.3828" style="stroke:#181818;stroke-width:1.0;"/><line style="stroke:#181818;stroke-width:1.0;stroke-dasharray:2.0,2.0;" x1="313.5" x2="571.5" y1="627.3828" y2="627.3828"/><text fill="#000000" font-family="sans-serif" font-size="13" lengthAdjust="spacing" textLength="147" x="325.5" y="622.6406">strategy: 0xa4C6..d059</text><polygon fill="#181818" points="689.5,683.3145,699.5,687.3145,689.5,691.3145,693.5,687.3145" style="stroke:#181818;stroke-width:1.0;"/><line style="stroke:#181818;stroke-width:1.0;" x1="308.5" x2="695.5" y1="687.3145" y2="687.3145"/><text fill="#000000" font-family="sans-serif" font-size="13" lengthAdjust="spacing" textLength="67" x="315.5" y="651.9512">balanceOf(</text><text fill="#000000" font-family="sans-serif" font-size="13" lengthAdjust="spacing" textLength="153" x="323.5" y="667.2617">_account: 0x8bBB..4aE2)</text><text fill="#000000" font-family="sans-serif" font-size="13" lengthAdjust="spacing" textLength="70" x="315.5" y="682.5723">12,584 gas</text><polygon fill="#181818" points="319.5,712.625,309.5,716.625,319.5,720.625,315.5,716.625" style="stroke:#181818;stroke-width:1.0;"/><line style="stroke:#181818;stroke-width:1.0;stroke-dasharray:2.0,2.0;" x1="313.5" x2="705.5" y1="716.625" y2="716.625"/><text fill="#000000" font-family="sans-serif" font-size="13" lengthAdjust="spacing" textLength="188" x="325.5" y="711.8828">23,,699,785,528,337,030,262</text><polygon fill="#181818" points="555.5,772.5566,565.5,776.5566,555.5,780.5566,559.5,776.5566" style="stroke:#181818;stroke-width:1.0;"/><line style="stroke:#181818;stroke-width:1.0;" x1="308.5" x2="561.5" y1="776.5566" y2="776.5566"/><text fill="#000000" font-family="sans-serif" font-size="13" lengthAdjust="spacing" textLength="78" x="315.5" y="741.1934">getContract(</text><text fill="#000000" font-family="sans-serif" font-size="13" lengthAdjust="spacing" textLength="232" x="323.5" y="756.5039">contractKey: 0x6bc2c477..ab5a19ec)</text><text fill="#000000" font-family="sans-serif" font-size="13" lengthAdjust="spacing" textLength="62" x="315.5" y="771.8145">3,134 gas</text><polygon fill="#181818" points="319.5,801.8672,309.5,805.8672,319.5,809.8672,315.5,805.8672" style="stroke:#181818;stroke-width:1.0;"/><line style="stroke:#181818;stroke-width:1.0;stroke-dasharray:2.0,2.0;" x1="313.5" x2="571.5" y1="805.8672" y2="805.8672"/><text fill="#000000" font-family="sans-serif" font-size="13" lengthAdjust="spacing" textLength="89" x="325.5" y="801.125">0x8586..075A</text><polygon fill="#181818" points="966.5,892.4199,976.5,896.4199,966.5,900.4199,970.5,896.4199" style="stroke:#181818;stroke-width:1.0;"/><line style="stroke:#181818;stroke-width:1.0;" x1="308.5" x2="972.5" y1="896.4199" y2="896.4199"/><text fill="#000000" font-family="sans-serif" font-size="13" lengthAdjust="spacing" textLength="127" x="315.5" y="830.4355">depositIntoStrategy(</text><text fill="#000000" font-family="sans-serif" font-size="13" lengthAdjust="spacing" textLength="151" x="323.5" y="845.7461">strategy: 0xa4C6..d059,</text><text fill="#000000" font-family="sans-serif" font-size="13" lengthAdjust="spacing" textLength="136" x="323.5" y="861.0566">token: 0x856c..8dC3,</text><text fill="#000000" font-family="sans-serif" font-size="13" lengthAdjust="spacing" textLength="248" x="323.5" y="876.3672">amount: 23,,699,785,528,337,030,262)</text><text fill="#000000" font-family="sans-serif" font-size="13" lengthAdjust="spacing" textLength="78" x="315.5" y="891.6777">111,496 gas</text><polygon fill="#181818" points="1138.5,952.3516,1148.5,956.3516,1138.5,960.3516,1142.5,956.3516" style="stroke:#181818;stroke-width:1.0;"/><line style="stroke:#181818;stroke-width:1.0;" x1="988.5" x2="1144.5" y1="956.3516" y2="956.3516"/><text fill="#000000" font-family="sans-serif" font-size="13" lengthAdjust="spacing" textLength="57" x="995.5" y="920.9883">isFrozen(</text><text fill="#000000" font-family="sans-serif" font-size="13" lengthAdjust="spacing" textLength="135" x="1003.5" y="936.2988">staker: 0x8bBB..4aE2)</text><text fill="#000000" font-family="sans-serif" font-size="13" lengthAdjust="spacing" textLength="70" x="995.5" y="951.6094">22,795 gas</text><polygon fill="#181818" points="999.5,981.6621,989.5,985.6621,999.5,989.6621,995.5,985.6621" style="stroke:#181818;stroke-width:1.0;"/><line style="stroke:#181818;stroke-width:1.0;stroke-dasharray:2.0,2.0;" x1="993.5" x2="1154.5" y1="985.6621" y2="985.6621"/><text fill="#000000" font-family="sans-serif" font-size="13" lengthAdjust="spacing" textLength="30" x="1005.5" y="980.9199">false</text><path d="M1160,998.6621 L1160,1038.6621 L1251,1038.6621 L1251,1008.6621 L1241,998.6621 L1160,998.6621 " fill="#FEFFDD" style="stroke:#181818;stroke-width:0.5;"/><path d="M1241,998.6621 L1241,1008.6621 L1251,1008.6621 L1241,998.6621 " fill="#FEFFDD" style="stroke:#181818;stroke-width:0.5;"/><text fill="#000000" font-family="sans-serif" font-size="13" lengthAdjust="spacing" textLength="4" x="1166" y="1016.2305">&#160;</text><text fill="#000000" font-family="sans-serif" font-size="13" lengthAdjust="spacing" textLength="70" x="1166" y="1031.541">12,867 gas</text><polygon fill="#181818" points="722.5,1122.8359,712.5,1126.8359,722.5,1130.8359,718.5,1126.8359" style="stroke:#181818;stroke-width:1.0;"/><line style="stroke:#181818;stroke-width:1.0;" x1="716.5" x2="977.5" y1="1126.8359" y2="1126.8359"/><text fill="#000000" font-family="sans-serif" font-size="13" lengthAdjust="spacing" textLength="85" x="728.5" y="1060.8516">transferFrom(</text><text fill="#000000" font-family="sans-serif" font-size="13" lengthAdjust="spacing" textLength="133" x="736.5" y="1076.1621">_from: 0x8bBB..4aE2,</text><text fill="#000000" font-family="sans-serif" font-size="13" lengthAdjust="spacing" textLength="120" x="736.5" y="1091.4727">_to: 0xa4C6..d059,</text><text fill="#000000" font-family="sans-serif" font-size="13" lengthAdjust="spacing" textLength="240" x="736.5" y="1106.7832">_value: 23,,699,785,528,337,030,262)</text><text fill="#000000" font-family="sans-serif" font-size="13" lengthAdjust="spacing" textLength="70" x="728.5" y="1122.0938">29,453 gas</text><polygon fill="#181818" points="966.5,1152.1465,976.5,1156.1465,966.5,1160.1465,970.5,1156.1465" style="stroke:#181818;stroke-width:1.0;"/><line style="stroke:#181818;stroke-width:1.0;stroke-dasharray:2.0,2.0;" x1="706.5" x2="972.5" y1="1156.1465" y2="1156.1465"/><text fill="#000000" font-family="sans-serif" font-size="13" lengthAdjust="spacing" textLength="25" x="713.5" y="1151.4043">true</text><polygon fill="#181818" points="1464.5,1227.3887,1474.5,1231.3887,1464.5,1235.3887,1468.5,1231.3887" style="stroke:#181818;stroke-width:1.0;"/><line style="stroke:#181818;stroke-width:1.0;" x1="988.5" x2="1470.5" y1="1231.3887" y2="1231.3887"/><text fill="#000000" font-family="sans-serif" font-size="13" lengthAdjust="spacing" textLength="51" x="995.5" y="1180.7148">deposit(</text><text fill="#000000" font-family="sans-serif" font-size="13" lengthAdjust="spacing" textLength="136" x="1003.5" y="1196.0254">token: 0x856c..8dC3,</text><text fill="#000000" font-family="sans-serif" font-size="13" lengthAdjust="spacing" textLength="248" x="1003.5" y="1211.3359">amount: 23,,699,785,528,337,030,262)</text><text fill="#000000" font-family="sans-serif" font-size="13" lengthAdjust="spacing" textLength="70" x="995.5" y="1226.6465">27,076 gas</text><polygon fill="#181818" points="999.5,1256.6992,989.5,1260.6992,999.5,1264.6992,995.5,1260.6992" style="stroke:#181818;stroke-width:1.0;"/><line style="stroke:#181818;stroke-width:1.0;stroke-dasharray:2.0,2.0;" x1="993.5" x2="1480.5" y1="1260.6992" y2="1260.6992"/><text fill="#000000" font-family="sans-serif" font-size="13" lengthAdjust="spacing" textLength="262" x="1005.5" y="1255.957">newShares: 23,,560,011,996,927,428,005</text><path d="M1486,1273.6992 L1486,1313.6992 L1577,1313.6992 L1577,1283.6992 L1567,1273.6992 L1486,1273.6992 " fill="#FEFFDD" style="stroke:#181818;stroke-width:0.5;"/><path d="M1567,1273.6992 L1567,1283.6992 L1577,1283.6992 L1567,1273.6992 " fill="#FEFFDD" style="stroke:#181818;stroke-width:0.5;"/><text fill="#000000" font-family="sans-serif" font-size="13" lengthAdjust="spacing" textLength="4" x="1492" y="1291.2676">&#160;</text><text fill="#000000" font-family="sans-serif" font-size="13" lengthAdjust="spacing" textLength="70" x="1492" y="1306.5781">22,908 gas</text><polygon fill="#181818" points="1283.5,1397.873,1293.5,1401.873,1283.5,1405.873,1287.5,1401.873" style="stroke:#181818;stroke-width:1.0;"/><line style="stroke:#181818;stroke-width:1.0;" x1="988.5" x2="1289.5" y1="1401.873" y2="1401.873"/><text fill="#000000" font-family="sans-serif" font-size="13" lengthAdjust="spacing" textLength="160" x="995.5" y="1335.8887">increaseDelegatedShares(</text><text fill="#000000" font-family="sans-serif" font-size="13" lengthAdjust="spacing" textLength="135" x="1003.5" y="1351.1992">staker: 0x8bBB..4aE2,</text><text fill="#000000" font-family="sans-serif" font-size="13" lengthAdjust="spacing" textLength="151" x="1003.5" y="1366.5098">strategy: 0xa4C6..d059,</text><text fill="#000000" font-family="sans-serif" font-size="13" lengthAdjust="spacing" textLength="241" x="1003.5" y="1381.8203">shares: 23,,560,011,996,927,428,005)</text><text fill="#000000" font-family="sans-serif" font-size="13" lengthAdjust="spacing" textLength="62" x="995.5" y="1397.1309">1,590 gas</text><polygon fill="#181818" points="999.5,1411.873,989.5,1415.873,999.5,1419.873,995.5,1415.873" style="stroke:#181818;stroke-width:1.0;"/><line style="stroke:#181818;stroke-width:1.0;stroke-dasharray:2.0,2.0;" x1="993.5" x2="1299.5" y1="1415.873" y2="1415.873"/><polygon fill="#181818" points="319.5,1441.1836,309.5,1445.1836,319.5,1449.1836,315.5,1445.1836" style="stroke:#181818;stroke-width:1.0;"/><line style="stroke:#181818;stroke-width:1.0;stroke-dasharray:2.0,2.0;" x1="313.5" x2="982.5" y1="1445.1836" y2="1445.1836"/><text fill="#000000" font-family="sans-serif" font-size="13" lengthAdjust="spacing" textLength="237" x="325.5" y="1440.4414">shares: 23,,560,011,996,927,428,005</text><path d="M988,1458.1836 L988,1498.1836 L1079,1498.1836 L1079,1468.1836 L1069,1458.1836 L988,1458.1836 " fill="#FEFFDD" style="stroke:#181818;stroke-width:0.5;"/><path d="M1069,1458.1836 L1069,1468.1836 L1079,1468.1836 L1069,1458.1836 " fill="#FEFFDD" style="stroke:#181818;stroke-width:0.5;"/><text fill="#000000" font-family="sans-serif" font-size="13" lengthAdjust="spacing" textLength="4" x="994" y="1475.752">&#160;</text><text fill="#000000" font-family="sans-serif" font-size="13" lengthAdjust="spacing" textLength="70" x="994" y="1491.0625">30,582 gas</text><polygon fill="#181818" points="121.5,1505.8047,111.5,1509.8047,121.5,1513.8047,117.5,1509.8047" style="stroke:#181818;stroke-width:1.0;"/><line style="stroke:#181818;stroke-width:1.0;stroke-dasharray:2.0,2.0;" x1="115.5" x2="302.5" y1="1509.8047" y2="1509.8047"/><path d="M308,1522.8047 L308,1562.8047 L399,1562.8047 L399,1532.8047 L389,1522.8047 L308,1522.8047 " fill="#FEFFDD" style="stroke:#181818;stroke-width:0.5;"/><path d="M389,1522.8047 L389,1532.8047 L399,1532.8047 L389,1522.8047 " fill="#FEFFDD" style="stroke:#181818;stroke-width:0.5;"/><text fill="#000000" font-family="sans-serif" font-size="13" lengthAdjust="spacing" textLength="4" x="314" y="1540.373">&#160;</text><text fill="#000000" font-family="sans-serif" font-size="13" lengthAdjust="spacing" textLength="70" x="314" y="1555.6836">45,925 gas</text><path d="M142,1573.4258 L142,1644.4258 L464,1644.4258 L464,1583.4258 L454,1573.4258 L142,1573.4258 " fill="#00FFFF" style="stroke:#181818;stroke-width:0.5;"/><path d="M454,1573.4258 L454,1583.4258 L464,1583.4258 L454,1573.4258 " fill="#00FFFF" style="stroke:#181818;stroke-width:0.5;"/><text fill="#000000" font-family="sans-serif" font-size="13" lengthAdjust="spacing" textLength="164" x="148" y="1590.9941">AssetDepositIntoStrategy:</text><text fill="#000000" font-family="sans-serif" font-size="13" lengthAdjust="spacing" textLength="133" x="156" y="1606.3047">asset: 0x856c..8dC3,</text><text fill="#000000" font-family="sans-serif" font-size="13" lengthAdjust="spacing" textLength="151" x="156" y="1621.6152">strategy: 0xa4C6..d059,</text><text fill="#000000" font-family="sans-serif" font-size="13" lengthAdjust="spacing" textLength="293" x="156" y="1636.9258">depositAmount: 23,,699,785,528,337,030,262</text><path d="M577,1573.4258 L577,1644.4258 L835,1644.4258 L835,1583.4258 L825,1573.4258 L577,1573.4258 " fill="#00FFFF" style="stroke:#181818;stroke-width:0.5;"/><path d="M825,1573.4258 L825,1583.4258 L835,1583.4258 L825,1573.4258 " fill="#00FFFF" style="stroke:#181818;stroke-width:0.5;"/><text fill="#000000" font-family="sans-serif" font-size="13" lengthAdjust="spacing" textLength="56" x="583" y="1590.9941">Transfer:</text><text fill="#000000" font-family="sans-serif" font-size="13" lengthAdjust="spacing" textLength="126" x="591" y="1606.3047">from: 0x8bBB..4aE2,</text><text fill="#000000" font-family="sans-serif" font-size="13" lengthAdjust="spacing" textLength="113" x="591" y="1621.6152">to: 0xa4C6..d059,</text><text fill="#000000" font-family="sans-serif" font-size="13" lengthAdjust="spacing" textLength="229" x="591" y="1636.9258">value: 23,,699,785,528,337,030,262</text><path d="M850,1573.4258 L850,1659.4258 L1116,1659.4258 L1116,1583.4258 L1106,1573.4258 L850,1573.4258 " fill="#00FFFF" style="stroke:#181818;stroke-width:0.5;"/><path d="M1106,1573.4258 L1106,1583.4258 L1116,1583.4258 L1106,1573.4258 " fill="#00FFFF" style="stroke:#181818;stroke-width:0.5;"/><text fill="#000000" font-family="sans-serif" font-size="13" lengthAdjust="spacing" textLength="53" x="856" y="1590.9941">Deposit:</text><text fill="#000000" font-family="sans-serif" font-size="13" lengthAdjust="spacing" textLength="156" x="864" y="1606.3047">depositor: 0x8bBB..4aE2,</text><text fill="#000000" font-family="sans-serif" font-size="13" lengthAdjust="spacing" textLength="136" x="864" y="1621.6152">token: 0x856c..8dC3,</text><text fill="#000000" font-family="sans-serif" font-size="13" lengthAdjust="spacing" textLength="151" x="864" y="1636.9258">strategy: 0xa4C6..d059,</text><text fill="#000000" font-family="sans-serif" font-size="13" lengthAdjust="spacing" textLength="237" x="864" y="1652.2363">shares: 23,,560,011,996,927,428,005</text><!--SRC=[fLRRRjms47tNLn39YmEmAdKXAGg6WVZQe7OSnDk-r8L1KTHQy9hQIbp7xjTtg9ltlYtwfj6APywSEJDSMzgPHkGrouGAMSR2GEcOIisZE4YI8iiZdZCg9CrYLIHnB2GBkGvKI5dCSa7pBEP18BZdAJctPMNGiooDqHQZR5Qf9nI8G8Ga8HXTrYL6HA1BdQ6GX34AU1g5AHNewcRYIMMh6dqWhpJNnFUZGWGVa6oG2rs0lBciRQdAkJJMVPTaMURxiTHX-vqBNO2EZx_LvRD6TrO-wVpavFZuQvNhSptJKmafJaxMWOg42m1YMT42kT05Mu2klq_EAbEKqqsGX3Bb-qckeeuDX2u0aDkwd9R67U-Uq8LzrBMBZsul9hzyQd-1XssO2VDzmgdiCHFc0i2yAAVQNCkt3kVErjBgwTkDD7AgjrIOYp3mVHMfl0LoeGi0w6uccyTjHo91gEyN4Uzokz05SAHN4bgzCv-C5H3F2HNjOHUwO2VnKzdeoU_Nr-LpQHk0yqnbDQfUT3sst_jQ6QLJ55Fl2Y2XCoxYaHy52Gy4fGnT_T2bToDVmM3mKq28JzxVmO6gBkrRYgBXjSDfKwREZfWBqhxwhT4v74y43Ydt9ZqSW0KnWZPvskJ8yVEyqPe_dOpsIr6kvrLJsizDestpnTXggFBetY2GmxrEqHykG8W0ykYTi-ZFJ_Ucpuocid53KRx0uH7U6sqEEGUdfkXHDj-hcMuprF3WK0LdZ1CEinGNKcGY5BWbe5IrCDPzGS-7IOEq0dEQh2OTyBrQsqLjaAqNUWU1ihbRpETLRNNU5juoiTMJDgi5Gg881qcyFz4IMhelQolcYhmxKtAsFsNJexYpCZxhxRkITvZf56Lo9i6DjqMRys59qYGxFNLBwI9qdGmnNIzr01doXX76J83u2SKqJ70KSKmYWaEsgzTJRM490LtLgQpwu5VTacUP2bNCkU_BZCf0QDK941tGV6dTV5uhkrixexCtFBrTExoZ7vqBdpl5zfJl10m270kshc37nnlt8P0SLffpucLT_QrDpmnMTxtHcD1DErs57H06FGevQtItY61jFrfK5KjPskOch9lIPIBl9W5HJ5Fe6kWyTpufu6cLIwl5WwssAFVm8cSBVKWX6EgOHlijrWtG4iTX7uyTFVh_hGeXM9-n8Sz0nEWVTu-oraq7HXd113ei1CC2piS0IWXTq_oTRDitGP8DpOVB2PflLAtXCkdlA9rt-NPw0H-mRtEOhhCffeAibZvG6aeVryn_hlzz_62C2IoKiCqquAvzFDv2zoQcWDgPVEa-7IVxe_nh8RrsMPzlpdNgzLVLcY6ydNB1ByFDTzWmIvVepsY9tF2lgICtwIV8aTaoEvxpx2QBmtEpCtjlgIvxhqhwNbXLRsEmEJLxHVet3XZv_GC0]--></g></svg>