<?xml version="1.0" encoding="us-ascii" standalone="no"?><svg xmlns="http://www.w3.org/2000/svg" xmlns:xlink="http://www.w3.org/1999/xlink" contentStyleType="text/css" height="3201px" preserveAspectRatio="none" style="width:1826px;height:3201px;background:#FFFFFF;" version="1.1" viewBox="0 0 1826 3201" width="1826px" zoomAndPan="magnify"><defs/><g><text fill="#000000" font-family="sans-serif" font-size="14" font-weight="bold" lengthAdjust="spacing" textLength="570" x="626.5" y="28.5352">0xc49e8ca9c043f1ca4457146215691afd5ca647229d8218bb38765aed377d80dd</text><text fill="#000000" font-family="sans-serif" font-size="14" lengthAdjust="spacing" textLength="386" x="718.5" y="3189.3398">holesky, block 1331970, Fri, 12 Apr 2024 12:51:12 GMT</text><rect fill="#FFFFFF" height="2303.5391" style="stroke:#181818;stroke-width:1.0;" width="10" x="344" y="461.1875"/><rect fill="#FFFFFF" height="29.3105" style="stroke:#181818;stroke-width:1.0;" width="10" x="613" y="536.4297"/><rect fill="#FFFFFF" height="29.3105" style="stroke:#181818;stroke-width:1.0;" width="10" x="613" y="625.6719"/><rect fill="#FFFFFF" height="29.3105" style="stroke:#181818;stroke-width:1.0;" width="10" x="613" y="959.3301"/><rect fill="#FFFFFF" height="29.3105" style="stroke:#181818;stroke-width:1.0;" width="10" x="613" y="2446.3789"/><rect fill="#FFFFFF" height="133.8633" style="stroke:#181818;stroke-width:1.0;" width="10" x="752" y="714.9141"/><rect fill="#FFFFFF" height="133.8633" style="stroke:#181818;stroke-width:1.0;" width="10" x="752" y="1503.957"/><rect fill="#FFFFFF" height="133.8633" style="stroke:#181818;stroke-width:1.0;" width="10" x="752" y="1763.6836"/><rect fill="#FFFFFF" height="133.8633" style="stroke:#181818;stroke-width:1.0;" width="10" x="752" y="2201.9629"/><rect fill="#FFFFFF" height="133.8633" style="stroke:#181818;stroke-width:1.0;" width="10" x="752" y="2550.9316"/><rect fill="#FFFFFF" height="29.3105" style="stroke:#181818;stroke-width:1.0;" width="10" x="1015" y="790.1563"/><rect fill="#FFFFFF" height="29.3105" style="stroke:#181818;stroke-width:1.0;" width="10" x="1015" y="1579.1992"/><rect fill="#FFFFFF" height="29.3105" style="stroke:#181818;stroke-width:1.0;" width="10" x="1015" y="1838.9258"/><rect fill="#FFFFFF" height="29.3105" style="stroke:#181818;stroke-width:1.0;" width="10" x="1015" y="2277.2051"/><rect fill="#FFFFFF" height="29.3105" style="stroke:#181818;stroke-width:1.0;" width="10" x="1015" y="2626.1738"/><rect fill="#FFFFFF" height="843.8008" style="stroke:#181818;stroke-width:1.0;" width="10" x="1162" y="1247.6094"/><rect fill="#FFFFFF" height="673.3164" style="stroke:#181818;stroke-width:1.0;" width="10" x="1416" y="1353.4727"/><rect fill="#FFFFFF" height="518.1426" style="stroke:#181818;stroke-width:1.0;" width="10" x="1718" y="1444.0254"/><line style="stroke:#181818;stroke-width:0.5;stroke-dasharray:5.0,5.0;" x1="108" x2="108" y1="118.9766" y2="3098.3164"/><line style="stroke:#181818;stroke-width:0.5;stroke-dasharray:5.0,5.0;" x1="348.5" x2="348.5" y1="118.9766" y2="3098.3164"/><line style="stroke:#181818;stroke-width:0.5;stroke-dasharray:5.0,5.0;" x1="617.5" x2="617.5" y1="118.9766" y2="3098.3164"/><line style="stroke:#181818;stroke-width:0.5;stroke-dasharray:5.0,5.0;" x1="757" x2="757" y1="118.9766" y2="3098.3164"/><line style="stroke:#181818;stroke-width:0.5;stroke-dasharray:5.0,5.0;" x1="1020" x2="1020" y1="118.9766" y2="3098.3164"/><line style="stroke:#181818;stroke-width:0.5;stroke-dasharray:5.0,5.0;" x1="1167" x2="1167" y1="118.9766" y2="3098.3164"/><line style="stroke:#181818;stroke-width:0.5;stroke-dasharray:5.0,5.0;" x1="1421" x2="1421" y1="118.9766" y2="3098.3164"/><line style="stroke:#181818;stroke-width:0.5;stroke-dasharray:5.0,5.0;" x1="1723" x2="1723" y1="118.9766" y2="3098.3164"/><text fill="#000000" font-family="sans-serif" font-size="14" lengthAdjust="spacing" textLength="94" x="58" y="116.0234">0x3c6b..5cb4</text><ellipse cx="108" cy="50.9883" fill="#E2E2F0" rx="8" ry="8" style="stroke:#181818;stroke-width:0.5;"/><path d="M108,58.9883 L108,85.9883 M95,66.9883 L121,66.9883 M108,85.9883 L95,100.9883 M108,85.9883 L121,100.9883 " fill="none" style="stroke:#181818;stroke-width:0.5;"/><text fill="#000000" font-family="sans-serif" font-size="14" lengthAdjust="spacing" textLength="94" x="58" y="3110.8516">0x3c6b..5cb4</text><ellipse cx="108" cy="3122.3047" fill="#E2E2F0" rx="8" ry="8" style="stroke:#181818;stroke-width:0.5;"/><path d="M108,3130.3047 L108,3157.3047 M95,3138.3047 L121,3138.3047 M108,3157.3047 L95,3172.3047 M108,3157.3047 L121,3172.3047 " fill="none" style="stroke:#181818;stroke-width:0.5;"/><rect fill="#E2E2F0" height="46.9766" rx="2.5" ry="2.5" style="stroke:#181818;stroke-width:0.5;" width="131" x="283.5" y="71"/><text fill="#000000" font-family="sans-serif" font-size="14" font-style="italic" lengthAdjust="spacing" textLength="117" x="290.5" y="91.5352">&#171;NodeDelegator&#187;</text><text fill="#000000" font-family="sans-serif" font-size="14" lengthAdjust="spacing" textLength="97" x="300.5" y="108.0234">0x326e..42b4</text><rect fill="#E2E2F0" height="46.9766" rx="2.5" ry="2.5" style="stroke:#181818;stroke-width:0.5;" width="131" x="283.5" y="3097.3164"/><text fill="#000000" font-family="sans-serif" font-size="14" font-style="italic" lengthAdjust="spacing" textLength="117" x="290.5" y="3117.8516">&#171;NodeDelegator&#187;</text><text fill="#000000" font-family="sans-serif" font-size="14" lengthAdjust="spacing" textLength="97" x="300.5" y="3134.3398">0x326e..42b4</text><rect fill="#E2E2F0" height="46.9766" rx="2.5" ry="2.5" style="stroke:#181818;stroke-width:0.5;" width="103" x="566.5" y="71"/><text fill="#000000" font-family="sans-serif" font-size="14" font-style="italic" lengthAdjust="spacing" textLength="85" x="575.5" y="91.5352">&#171;LRTConfig&#187;</text><text fill="#000000" font-family="sans-serif" font-size="14" lengthAdjust="spacing" textLength="89" x="573.5" y="108.0234">0xc1b4..cfe7</text><rect fill="#E2E2F0" height="46.9766" rx="2.5" ry="2.5" style="stroke:#181818;stroke-width:0.5;" width="103" x="566.5" y="3097.3164"/><text fill="#000000" font-family="sans-serif" font-size="14" font-style="italic" lengthAdjust="spacing" textLength="85" x="575.5" y="3117.8516">&#171;LRTConfig&#187;</text><text fill="#000000" font-family="sans-serif" font-size="14" lengthAdjust="spacing" textLength="89" x="573.5" y="3134.3398">0xc1b4..cfe7</text><rect fill="#E2E2F0" height="46.9766" rx="2.5" ry="2.5" style="stroke:#181818;stroke-width:0.5;" width="106" x="704" y="71"/><text fill="#000000" font-family="sans-serif" font-size="14" font-style="italic" lengthAdjust="spacing" textLength="43" x="735.5" y="91.5352">&#171;Lido&#187;</text><text fill="#000000" font-family="sans-serif" font-size="14" lengthAdjust="spacing" textLength="92" x="711" y="108.0234">0x3f1c..5034</text><rect fill="#E2E2F0" height="46.9766" rx="2.5" ry="2.5" style="stroke:#181818;stroke-width:0.5;" width="106" x="704" y="3097.3164"/><text fill="#000000" font-family="sans-serif" font-size="14" font-style="italic" lengthAdjust="spacing" textLength="43" x="735.5" y="3117.8516">&#171;Lido&#187;</text><text fill="#000000" font-family="sans-serif" font-size="14" lengthAdjust="spacing" textLength="92" x="711" y="3134.3398">0x3f1c..5034</text><rect fill="#E2E2F0" height="46.9766" rx="2.5" ry="2.5" style="stroke:#181818;stroke-width:0.5;" width="112" x="964" y="71"/><text fill="#000000" font-family="sans-serif" font-size="14" font-style="italic" lengthAdjust="spacing" textLength="58" x="991" y="91.5352">&#171;Kernel&#187;</text><text fill="#000000" font-family="sans-serif" font-size="14" lengthAdjust="spacing" textLength="98" x="971" y="108.0234">0x3b03..1644</text><rect fill="#E2E2F0" height="46.9766" rx="2.5" ry="2.5" style="stroke:#181818;stroke-width:0.5;" width="112" x="964" y="3097.3164"/><text fill="#000000" font-family="sans-serif" font-size="14" font-style="italic" lengthAdjust="spacing" textLength="58" x="991" y="3117.8516">&#171;Kernel&#187;</text><text fill="#000000" font-family="sans-serif" font-size="14" lengthAdjust="spacing" textLength="98" x="971" y="3134.3398">0x3b03..1644</text><rect fill="#E2E2F0" height="46.9766" rx="2.5" ry="2.5" style="stroke:#181818;stroke-width:0.5;" width="162" x="1086" y="71"/><text fill="#000000" font-family="sans-serif" font-size="14" font-style="italic" lengthAdjust="spacing" textLength="148" x="1093" y="91.5352">&#171;DelegationManager&#187;</text><text fill="#000000" font-family="sans-serif" font-size="14" lengthAdjust="spacing" textLength="96" x="1119" y="108.0234">0xa441..48e7</text><rect fill="#E2E2F0" height="46.9766" rx="2.5" ry="2.5" style="stroke:#181818;stroke-width:0.5;" width="162" x="1086" y="3097.3164"/><text fill="#000000" font-family="sans-serif" font-size="14" font-style="italic" lengthAdjust="spacing" textLength="148" x="1093" y="3117.8516">&#171;DelegationManager&#187;</text><text fill="#000000" font-family="sans-serif" font-size="14" lengthAdjust="spacing" textLength="96" x="1119" y="3134.3398">0xa441..48e7</text><rect fill="#E2E2F0" height="46.9766" rx="2.5" ry="2.5" style="stroke:#181818;stroke-width:0.5;" width="144" x="1349" y="71"/><text fill="#000000" font-family="sans-serif" font-size="14" font-style="italic" lengthAdjust="spacing" textLength="130" x="1356" y="91.5352">&#171;StrategyManager&#187;</text><text fill="#000000" font-family="sans-serif" font-size="14" lengthAdjust="spacing" textLength="94" x="1374" y="108.0234">0xdfb5..d5b6</text><rect fill="#E2E2F0" height="46.9766" rx="2.5" ry="2.5" style="stroke:#181818;stroke-width:0.5;" width="144" x="1349" y="3097.3164"/><text fill="#000000" font-family="sans-serif" font-size="14" font-style="italic" lengthAdjust="spacing" textLength="130" x="1356" y="3117.8516">&#171;StrategyManager&#187;</text><text fill="#000000" font-family="sans-serif" font-size="14" lengthAdjust="spacing" textLength="94" x="1374" y="3134.3398">0xdfb5..d5b6</text><rect fill="#E2E2F0" height="46.9766" rx="2.5" ry="2.5" style="stroke:#181818;stroke-width:0.5;" width="180" x="1633" y="71"/><text fill="#000000" font-family="sans-serif" font-size="14" font-style="italic" lengthAdjust="spacing" textLength="166" x="1640" y="91.5352">&#171;StrategyBaseTVLLimits&#187;</text><text fill="#000000" font-family="sans-serif" font-size="14" lengthAdjust="spacing" textLength="98" x="1674" y="108.0234">0x7d70..63d3</text><rect fill="#E2E2F0" height="46.9766" rx="2.5" ry="2.5" style="stroke:#181818;stroke-width:0.5;" width="180" x="1633" y="3097.3164"/><text fill="#000000" font-family="sans-serif" font-size="14" font-style="italic" lengthAdjust="spacing" textLength="166" x="1640" y="3117.8516">&#171;StrategyBaseTVLLimits&#187;</text><text fill="#000000" font-family="sans-serif" font-size="14" lengthAdjust="spacing" textLength="98" x="1674" y="3134.3398">0x7d70..63d3</text><rect fill="#FFFFFF" height="2303.5391" style="stroke:#181818;stroke-width:1.0;" width="10" x="344" y="461.1875"/><rect fill="#FFFFFF" height="29.3105" style="stroke:#181818;stroke-width:1.0;" width="10" x="613" y="536.4297"/><rect fill="#FFFFFF" height="29.3105" style="stroke:#181818;stroke-width:1.0;" width="10" x="613" y="625.6719"/><rect fill="#FFFFFF" height="29.3105" style="stroke:#181818;stroke-width:1.0;" width="10" x="613" y="959.3301"/><rect fill="#FFFFFF" height="29.3105" style="stroke:#181818;stroke-width:1.0;" width="10" x="613" y="2446.3789"/><rect fill="#FFFFFF" height="133.8633" style="stroke:#181818;stroke-width:1.0;" width="10" x="752" y="714.9141"/><rect fill="#FFFFFF" height="133.8633" style="stroke:#181818;stroke-width:1.0;" width="10" x="752" y="1503.957"/><rect fill="#FFFFFF" height="133.8633" style="stroke:#181818;stroke-width:1.0;" width="10" x="752" y="1763.6836"/><rect fill="#FFFFFF" height="133.8633" style="stroke:#181818;stroke-width:1.0;" width="10" x="752" y="2201.9629"/><rect fill="#FFFFFF" height="133.8633" style="stroke:#181818;stroke-width:1.0;" width="10" x="752" y="2550.9316"/><rect fill="#FFFFFF" height="29.3105" style="stroke:#181818;stroke-width:1.0;" width="10" x="1015" y="790.1563"/><rect fill="#FFFFFF" height="29.3105" style="stroke:#181818;stroke-width:1.0;" width="10" x="1015" y="1579.1992"/><rect fill="#FFFFFF" height="29.3105" style="stroke:#181818;stroke-width:1.0;" width="10" x="1015" y="1838.9258"/><rect fill="#FFFFFF" height="29.3105" style="stroke:#181818;stroke-width:1.0;" width="10" x="1015" y="2277.2051"/><rect fill="#FFFFFF" height="29.3105" style="stroke:#181818;stroke-width:1.0;" width="10" x="1015" y="2626.1738"/><rect fill="#FFFFFF" height="843.8008" style="stroke:#181818;stroke-width:1.0;" width="10" x="1162" y="1247.6094"/><rect fill="#FFFFFF" height="673.3164" style="stroke:#181818;stroke-width:1.0;" width="10" x="1416" y="1353.4727"/><rect fill="#FFFFFF" height="518.1426" style="stroke:#181818;stroke-width:1.0;" width="10" x="1718" y="1444.0254"/><path d="M5,133.9766 L5,250.9766 L211,250.9766 L211,143.9766 L201,133.9766 L5,133.9766 " fill="#FEFFDD" style="stroke:#181818;stroke-width:0.5;"/><path d="M201,133.9766 L201,143.9766 L211,143.9766 L201,133.9766 " fill="#FEFFDD" style="stroke:#181818;stroke-width:0.5;"/><text fill="#000000" font-family="sans-serif" font-size="13" lengthAdjust="spacing" textLength="64" x="11" y="151.5449">Nonce: 29</text><text fill="#000000" font-family="sans-serif" font-size="13" lengthAdjust="spacing" textLength="183" x="11" y="166.8555">Gas Price: 6.938287151 Gwei</text><text fill="#000000" font-family="sans-serif" font-size="13" lengthAdjust="spacing" textLength="185" x="11" y="182.166">Max Fee: 11.257134516 Gwei</text><text fill="#000000" font-family="sans-serif" font-size="13" lengthAdjust="spacing" textLength="137" x="11" y="197.4766">Max Priority: 4.0 Gwei</text><text fill="#000000" font-family="sans-serif" font-size="13" lengthAdjust="spacing" textLength="119" x="11" y="212.7871">Gas Limit: 242,996</text><text fill="#000000" font-family="sans-serif" font-size="13" lengthAdjust="spacing" textLength="118" x="11" y="228.0977">Gas Used: 217,354</text><text fill="#000000" font-family="sans-serif" font-size="13" lengthAdjust="spacing" textLength="114" x="11" y="243.4082">Tx Fee: 0.002 ETH</text><polygon fill="#181818" points="332,457.1875,342,461.1875,332,465.1875,336,461.1875" style="stroke:#181818;stroke-width:1.0;"/><line style="stroke:#181818;stroke-width:1.0;" x1="108" x2="338" y1="461.1875" y2="461.1875"/><text fill="#000000" font-family="sans-serif" font-size="13" lengthAdjust="spacing" textLength="155" x="115" y="272.7188">claimInternalWithdrawal(</text><text fill="#000000" font-family="sans-serif" font-size="13" lengthAdjust="spacing" textLength="131" x="123" y="288.0293">asset: 0x3F1c..5034,</text><text fill="#000000" font-family="sans-serif" font-size="13" lengthAdjust="spacing" textLength="80" x="123" y="303.3398">withdrawal: [</text><text fill="#000000" font-family="sans-serif" font-size="13" lengthAdjust="spacing" textLength="137" x="131" y="318.6504">staker: 0x326E..42B4,</text><text fill="#000000" font-family="sans-serif" font-size="13" lengthAdjust="spacing" textLength="177" x="131" y="333.9609">delegatedTo: 0x0000..0000,</text><text fill="#000000" font-family="sans-serif" font-size="13" lengthAdjust="spacing" textLength="167" x="131" y="349.2715">withdrawer: 0x326E..42B4,</text><text fill="#000000" font-family="sans-serif" font-size="13" lengthAdjust="spacing" textLength="58" x="131" y="364.582">nonce: 2,</text><text fill="#000000" font-family="sans-serif" font-size="13" lengthAdjust="spacing" textLength="139" x="131" y="379.8926">startBlock: 1,331,917,</text><text fill="#000000" font-family="sans-serif" font-size="13" lengthAdjust="spacing" textLength="74" x="131" y="395.2031">strategies: [</text><text fill="#000000" font-family="sans-serif" font-size="13" lengthAdjust="spacing" textLength="114" x="139" y="410.5137">0: 0x7D70..63d3],</text><text fill="#000000" font-family="sans-serif" font-size="13" lengthAdjust="spacing" textLength="53" x="131" y="425.8242">shares: [</text><text fill="#000000" font-family="sans-serif" font-size="13" lengthAdjust="spacing" textLength="192" x="139" y="441.1348">0: 100,000,000,000,000,000]])</text><text fill="#000000" font-family="sans-serif" font-size="13" lengthAdjust="spacing" textLength="78" x="115" y="456.4453">217,354 gas</text><polygon fill="#181818" points="601,532.4297,611,536.4297,601,540.4297,605,536.4297" style="stroke:#181818;stroke-width:1.0;"/><line style="stroke:#181818;stroke-width:1.0;" x1="354" x2="607" y1="536.4297" y2="536.4297"/><text fill="#000000" font-family="sans-serif" font-size="13" lengthAdjust="spacing" textLength="53" x="361" y="485.7559">hasRole(</text><text fill="#000000" font-family="sans-serif" font-size="13" lengthAdjust="spacing" textLength="184" x="369" y="501.0664">role: 0x97667070..4fa9b929,</text><text fill="#000000" font-family="sans-serif" font-size="13" lengthAdjust="spacing" textLength="150" x="369" y="516.377">account: 0x3C6B..5CB4)</text><text fill="#000000" font-family="sans-serif" font-size="13" lengthAdjust="spacing" textLength="62" x="361" y="531.6875">9,758 gas</text><polygon fill="#181818" points="365,561.7402,355,565.7402,365,569.7402,361,565.7402" style="stroke:#181818;stroke-width:1.0;"/><line style="stroke:#181818;stroke-width:1.0;stroke-dasharray:2.0,2.0;" x1="359" x2="617" y1="565.7402" y2="565.7402"/><text fill="#000000" font-family="sans-serif" font-size="13" lengthAdjust="spacing" textLength="25" x="371" y="560.998">true</text><polygon fill="#181818" points="601,621.6719,611,625.6719,601,629.6719,605,625.6719" style="stroke:#181818;stroke-width:1.0;"/><line style="stroke:#181818;stroke-width:1.0;" x1="354" x2="607" y1="625.6719" y2="625.6719"/><text fill="#000000" font-family="sans-serif" font-size="13" lengthAdjust="spacing" textLength="114" x="361" y="590.3086">isSupportedAsset(</text><text fill="#000000" font-family="sans-serif" font-size="13" lengthAdjust="spacing" textLength="134" x="369" y="605.6191">token: 0x3F1c..5034)</text><text fill="#000000" font-family="sans-serif" font-size="13" lengthAdjust="spacing" textLength="62" x="361" y="620.9297">3,184 gas</text><polygon fill="#181818" points="365,650.9824,355,654.9824,365,658.9824,361,654.9824" style="stroke:#181818;stroke-width:1.0;"/><line style="stroke:#181818;stroke-width:1.0;stroke-dasharray:2.0,2.0;" x1="359" x2="617" y1="654.9824" y2="654.9824"/><text fill="#000000" font-family="sans-serif" font-size="13" lengthAdjust="spacing" textLength="108" x="371" y="650.2402">isSupported: true</text><polygon fill="#181818" points="740,710.9141,750,714.9141,740,718.9141,744,714.9141" style="stroke:#181818;stroke-width:1.0;"/><line style="stroke:#181818;stroke-width:1.0;" x1="354" x2="746" y1="714.9141" y2="714.9141"/><text fill="#000000" font-family="sans-serif" font-size="13" lengthAdjust="spacing" textLength="67" x="361" y="679.5508">balanceOf(</text><text fill="#000000" font-family="sans-serif" font-size="13" lengthAdjust="spacing" textLength="155" x="369" y="694.8613">_account: 0x326E..42B4)</text><text fill="#000000" font-family="sans-serif" font-size="13" lengthAdjust="spacing" textLength="70" x="361" y="710.1719">34,100 gas</text><polygon fill="#181818" points="1003,786.1563,1013,790.1563,1003,794.1563,1007,790.1563" style="stroke:#181818;stroke-width:1.0;"/><line style="stroke:#181818;stroke-width:1.0;" x1="762" x2="1009" y1="790.1563" y2="790.1563"/><text fill="#000000" font-family="sans-serif" font-size="13" lengthAdjust="spacing" textLength="49" x="769" y="739.4824">getApp(</text><text fill="#000000" font-family="sans-serif" font-size="13" lengthAdjust="spacing" textLength="226" x="777" y="754.793">_namespace: 0xf1f3eb40..6f35ac0f,</text><text fill="#000000" font-family="sans-serif" font-size="13" lengthAdjust="spacing" textLength="197" x="777" y="770.1035">_appId: 0x3ca7c3e3..68cef320)</text><text fill="#000000" font-family="sans-serif" font-size="13" lengthAdjust="spacing" textLength="62" x="769" y="785.4141">8,397 gas</text><polygon fill="#181818" points="773,815.4668,763,819.4668,773,823.4668,769,819.4668" style="stroke:#181818;stroke-width:1.0;"/><line style="stroke:#181818;stroke-width:1.0;stroke-dasharray:2.0,2.0;" x1="767" x2="1019" y1="819.4668" y2="819.4668"/><text fill="#000000" font-family="sans-serif" font-size="13" lengthAdjust="spacing" textLength="87" x="779" y="814.7246">0x5903..c52b</text><polygon fill="#181818" points="365,844.7773,355,848.7773,365,852.7773,361,848.7773" style="stroke:#181818;stroke-width:1.0;"/><line style="stroke:#181818;stroke-width:1.0;stroke-dasharray:2.0,2.0;" x1="359" x2="756" y1="848.7773" y2="848.7773"/><text fill="#000000" font-family="sans-serif" font-size="13" lengthAdjust="spacing" textLength="8" x="371" y="844.0352">2</text><path d="M762,861.7773 L762,901.7773 L853,901.7773 L853,871.7773 L843,861.7773 L762,861.7773 " fill="#FEFFDD" style="stroke:#181818;stroke-width:0.5;"/><path d="M843,861.7773 L843,871.7773 L853,871.7773 L843,861.7773 " fill="#FEFFDD" style="stroke:#181818;stroke-width:0.5;"/><text fill="#000000" font-family="sans-serif" font-size="13" lengthAdjust="spacing" textLength="4" x="768" y="879.3457">&#160;</text><text fill="#000000" font-family="sans-serif" font-size="13" lengthAdjust="spacing" textLength="70" x="768" y="894.6563">25,703 gas</text><polygon fill="#181818" points="601,955.3301,611,959.3301,601,963.3301,605,959.3301" style="stroke:#181818;stroke-width:1.0;"/><line style="stroke:#181818;stroke-width:1.0;" x1="354" x2="607" y1="959.3301" y2="959.3301"/><text fill="#000000" font-family="sans-serif" font-size="13" lengthAdjust="spacing" textLength="78" x="361" y="923.9668">getContract(</text><text fill="#000000" font-family="sans-serif" font-size="13" lengthAdjust="spacing" textLength="232" x="369" y="939.2773">contractKey: 0xe6f126e6..199de5b5)</text><text fill="#000000" font-family="sans-serif" font-size="13" lengthAdjust="spacing" textLength="62" x="361" y="954.5879">3,134 gas</text><polygon fill="#181818" points="365,984.6406,355,988.6406,365,992.6406,361,988.6406" style="stroke:#181818;stroke-width:1.0;"/><line style="stroke:#181818;stroke-width:1.0;stroke-dasharray:2.0,2.0;" x1="359" x2="617" y1="988.6406" y2="988.6406"/><text fill="#000000" font-family="sans-serif" font-size="13" lengthAdjust="spacing" textLength="88" x="371" y="983.8984">0xA441..48e7</text><polygon fill="#181818" points="1150,1243.6094,1160,1247.6094,1150,1251.6094,1154,1247.6094" style="stroke:#181818;stroke-width:1.0;"/><line style="stroke:#181818;stroke-width:1.0;" x1="354" x2="1156" y1="1247.6094" y2="1247.6094"/><text fill="#000000" font-family="sans-serif" font-size="13" lengthAdjust="spacing" textLength="179" x="361" y="1013.209">completeQueuedWithdrawal(</text><text fill="#000000" font-family="sans-serif" font-size="13" lengthAdjust="spacing" textLength="80" x="369" y="1028.5195">withdrawal: [</text><text fill="#000000" font-family="sans-serif" font-size="13" lengthAdjust="spacing" textLength="137" x="377" y="1043.8301">staker: 0x326E..42B4,</text><text fill="#000000" font-family="sans-serif" font-size="13" lengthAdjust="spacing" textLength="177" x="377" y="1059.1406">delegatedTo: 0x0000..0000,</text><text fill="#000000" font-family="sans-serif" font-size="13" lengthAdjust="spacing" textLength="167" x="377" y="1074.4512">withdrawer: 0x326E..42B4,</text><text fill="#000000" font-family="sans-serif" font-size="13" lengthAdjust="spacing" textLength="58" x="377" y="1089.7617">nonce: 2,</text><text fill="#000000" font-family="sans-serif" font-size="13" lengthAdjust="spacing" textLength="139" x="377" y="1105.0723">startBlock: 1,331,917,</text><text fill="#000000" font-family="sans-serif" font-size="13" lengthAdjust="spacing" textLength="74" x="377" y="1120.3828">strategies: [</text><text fill="#000000" font-family="sans-serif" font-size="13" lengthAdjust="spacing" textLength="114" x="385" y="1135.6934">0: 0x7D70..63d3],</text><text fill="#000000" font-family="sans-serif" font-size="13" lengthAdjust="spacing" textLength="53" x="377" y="1151.0039">shares: [</text><text fill="#000000" font-family="sans-serif" font-size="13" lengthAdjust="spacing" textLength="192" x="385" y="1166.3145">0: 100,000,000,000,000,000]],</text><text fill="#000000" font-family="sans-serif" font-size="13" lengthAdjust="spacing" textLength="55" x="369" y="1181.625">tokens: [</text><text fill="#000000" font-family="sans-serif" font-size="13" lengthAdjust="spacing" textLength="110" x="377" y="1196.9355">0: 0x3F1c..5034],</text><text fill="#000000" font-family="sans-serif" font-size="13" lengthAdjust="spacing" textLength="165" x="369" y="1212.2461">middlewareTimesIndex: 0,</text><text fill="#000000" font-family="sans-serif" font-size="13" lengthAdjust="spacing" textLength="143" x="369" y="1227.5566">receiveAsTokens: true)</text><text fill="#000000" font-family="sans-serif" font-size="13" lengthAdjust="spacing" textLength="70" x="361" y="1242.8672">94,520 gas</text><polygon fill="#181818" points="1404,1349.4727,1414,1353.4727,1404,1357.4727,1408,1353.4727" style="stroke:#181818;stroke-width:1.0;"/><line style="stroke:#181818;stroke-width:1.0;" x1="1172" x2="1410" y1="1353.4727" y2="1353.4727"/><text fill="#000000" font-family="sans-serif" font-size="13" lengthAdjust="spacing" textLength="164" x="1179" y="1272.1777">withdrawSharesAsTokens(</text><text fill="#000000" font-family="sans-serif" font-size="13" lengthAdjust="spacing" textLength="153" x="1187" y="1287.4883">recipient: 0x326E..42B4,</text><text fill="#000000" font-family="sans-serif" font-size="13" lengthAdjust="spacing" textLength="153" x="1187" y="1302.7988">strategy: 0x7D70..63d3,</text><text fill="#000000" font-family="sans-serif" font-size="13" lengthAdjust="spacing" textLength="217" x="1187" y="1318.1094">shares: 100,000,000,000,000,000,</text><text fill="#000000" font-family="sans-serif" font-size="13" lengthAdjust="spacing" textLength="134" x="1187" y="1333.4199">token: 0x3F1c..5034)</text><text fill="#000000" font-family="sans-serif" font-size="13" lengthAdjust="spacing" textLength="70" x="1179" y="1348.7305">59,494 gas</text><polygon fill="#181818" points="1706,1440.0254,1716,1444.0254,1706,1448.0254,1710,1444.0254" style="stroke:#181818;stroke-width:1.0;"/><line style="stroke:#181818;stroke-width:1.0;" x1="1426" x2="1712" y1="1444.0254" y2="1444.0254"/><text fill="#000000" font-family="sans-serif" font-size="13" lengthAdjust="spacing" textLength="61" x="1433" y="1378.041">withdraw(</text><text fill="#000000" font-family="sans-serif" font-size="13" lengthAdjust="spacing" textLength="153" x="1441" y="1393.3516">recipient: 0x326E..42B4,</text><text fill="#000000" font-family="sans-serif" font-size="13" lengthAdjust="spacing" textLength="134" x="1441" y="1408.6621">token: 0x3F1c..5034,</text><text fill="#000000" font-family="sans-serif" font-size="13" lengthAdjust="spacing" textLength="265" x="1441" y="1423.9727">amountShares: 100,000,000,000,000,000)</text><text fill="#000000" font-family="sans-serif" font-size="13" lengthAdjust="spacing" textLength="70" x="1433" y="1439.2832">48,554 gas</text><polygon fill="#181818" points="773,1499.957,763,1503.957,773,1507.957,769,1503.957" style="stroke:#181818;stroke-width:1.0;"/><line style="stroke:#181818;stroke-width:1.0;" x1="767" x2="1717" y1="1503.957" y2="1503.957"/><text fill="#000000" font-family="sans-serif" font-size="13" lengthAdjust="spacing" textLength="67" x="779" y="1468.5938">balanceOf(</text><text fill="#000000" font-family="sans-serif" font-size="13" lengthAdjust="spacing" textLength="159" x="787" y="1483.9043">_account: 0x7D70..63d3)</text><text fill="#000000" font-family="sans-serif" font-size="13" lengthAdjust="spacing" textLength="62" x="779" y="1499.2148">8,600 gas</text><polygon fill="#181818" points="1003,1575.1992,1013,1579.1992,1003,1583.1992,1007,1579.1992" style="stroke:#181818;stroke-width:1.0;"/><line style="stroke:#181818;stroke-width:1.0;" x1="762" x2="1009" y1="1579.1992" y2="1579.1992"/><text fill="#000000" font-family="sans-serif" font-size="13" lengthAdjust="spacing" textLength="49" x="769" y="1528.5254">getApp(</text><text fill="#000000" font-family="sans-serif" font-size="13" lengthAdjust="spacing" textLength="226" x="777" y="1543.8359">_namespace: 0xf1f3eb40..6f35ac0f,</text><text fill="#000000" font-family="sans-serif" font-size="13" lengthAdjust="spacing" textLength="197" x="777" y="1559.1465">_appId: 0x3ca7c3e3..68cef320)</text><text fill="#000000" font-family="sans-serif" font-size="13" lengthAdjust="spacing" textLength="62" x="769" y="1574.457">1,897 gas</text><polygon fill="#181818" points="773,1604.5098,763,1608.5098,773,1612.5098,769,1608.5098" style="stroke:#181818;stroke-width:1.0;"/><line style="stroke:#181818;stroke-width:1.0;stroke-dasharray:2.0,2.0;" x1="767" x2="1019" y1="1608.5098" y2="1608.5098"/><text fill="#000000" font-family="sans-serif" font-size="13" lengthAdjust="spacing" textLength="87" x="779" y="1603.7676">0x5903..c52b</text><polygon fill="#181818" points="1706,1633.8203,1716,1637.8203,1706,1641.8203,1710,1637.8203" style="stroke:#181818;stroke-width:1.0;"/><line style="stroke:#181818;stroke-width:1.0;stroke-dasharray:2.0,2.0;" x1="757" x2="1712" y1="1637.8203" y2="1637.8203"/><text fill="#000000" font-family="sans-serif" font-size="13" lengthAdjust="spacing" textLength="216" x="764" y="1633.0781">76,497,,878,525,711,679,478,894</text><path d="M762,1650.8203 L762,1690.8203 L845,1690.8203 L845,1660.8203 L835,1650.8203 L762,1650.8203 " fill="#FEFFDD" style="stroke:#181818;stroke-width:0.5;"/><path d="M835,1650.8203 L835,1660.8203 L845,1660.8203 L835,1650.8203 " fill="#FEFFDD" style="stroke:#181818;stroke-width:0.5;"/><text fill="#000000" font-family="sans-serif" font-size="13" lengthAdjust="spacing" textLength="4" x="768" y="1668.3887">&#160;</text><text fill="#000000" font-family="sans-serif" font-size="13" lengthAdjust="spacing" textLength="62" x="768" y="1683.6992">6,703 gas</text><polygon fill="#181818" points="773,1759.6836,763,1763.6836,773,1767.6836,769,1763.6836" style="stroke:#181818;stroke-width:1.0;"/><line style="stroke:#181818;stroke-width:1.0;" x1="767" x2="1717" y1="1763.6836" y2="1763.6836"/><text fill="#000000" font-family="sans-serif" font-size="13" lengthAdjust="spacing" textLength="53" x="779" y="1713.0098">transfer(</text><text fill="#000000" font-family="sans-serif" font-size="13" lengthAdjust="spacing" textLength="160" x="787" y="1728.3203">_recipient: 0x326E..42B4,</text><text fill="#000000" font-family="sans-serif" font-size="13" lengthAdjust="spacing" textLength="231" x="787" y="1743.6309">_amount: 100,009,327,704,393,266)</text><text fill="#000000" font-family="sans-serif" font-size="13" lengthAdjust="spacing" textLength="70" x="779" y="1758.9414">20,215 gas</text><polygon fill="#181818" points="1003,1834.9258,1013,1838.9258,1003,1842.9258,1007,1838.9258" style="stroke:#181818;stroke-width:1.0;"/><line style="stroke:#181818;stroke-width:1.0;" x1="762" x2="1009" y1="1838.9258" y2="1838.9258"/><text fill="#000000" font-family="sans-serif" font-size="13" lengthAdjust="spacing" textLength="49" x="769" y="1788.252">getApp(</text><text fill="#000000" font-family="sans-serif" font-size="13" lengthAdjust="spacing" textLength="226" x="777" y="1803.5625">_namespace: 0xf1f3eb40..6f35ac0f,</text><text fill="#000000" font-family="sans-serif" font-size="13" lengthAdjust="spacing" textLength="197" x="777" y="1818.873">_appId: 0x3ca7c3e3..68cef320)</text><text fill="#000000" font-family="sans-serif" font-size="13" lengthAdjust="spacing" textLength="62" x="769" y="1834.1836">1,897 gas</text><polygon fill="#181818" points="773,1864.2363,763,1868.2363,773,1872.2363,769,1868.2363" style="stroke:#181818;stroke-width:1.0;"/><line style="stroke:#181818;stroke-width:1.0;stroke-dasharray:2.0,2.0;" x1="767" x2="1019" y1="1868.2363" y2="1868.2363"/><text fill="#000000" font-family="sans-serif" font-size="13" lengthAdjust="spacing" textLength="87" x="779" y="1863.4941">0x5903..c52b</text><polygon fill="#181818" points="1706,1893.5469,1716,1897.5469,1706,1901.5469,1710,1897.5469" style="stroke:#181818;stroke-width:1.0;"/><line style="stroke:#181818;stroke-width:1.0;stroke-dasharray:2.0,2.0;" x1="757" x2="1712" y1="1897.5469" y2="1897.5469"/><text fill="#000000" font-family="sans-serif" font-size="13" lengthAdjust="spacing" textLength="25" x="764" y="1892.8047">true</text><path d="M762,1910.5469 L762,1950.5469 L853,1950.5469 L853,1920.5469 L843,1910.5469 L762,1910.5469 " fill="#FEFFDD" style="stroke:#181818;stroke-width:0.5;"/><path d="M843,1910.5469 L843,1920.5469 L853,1920.5469 L843,1910.5469 " fill="#FEFFDD" style="stroke:#181818;stroke-width:0.5;"/><text fill="#000000" font-family="sans-serif" font-size="13" lengthAdjust="spacing" textLength="4" x="768" y="1928.1152">&#160;</text><text fill="#000000" font-family="sans-serif" font-size="13" lengthAdjust="spacing" textLength="70" x="768" y="1943.4258">18,318 gas</text><polygon fill="#181818" points="1437,1958.168,1427,1962.168,1437,1966.168,1433,1962.168" style="stroke:#181818;stroke-width:1.0;"/><line style="stroke:#181818;stroke-width:1.0;stroke-dasharray:2.0,2.0;" x1="1431" x2="1722" y1="1962.168" y2="1962.168"/><path d="M1728,1975.168 L1728,2015.168 L1819,2015.168 L1819,1985.168 L1809,1975.168 L1728,1975.168 " fill="#FEFFDD" style="stroke:#181818;stroke-width:0.5;"/><path d="M1809,1975.168 L1809,1985.168 L1819,1985.168 L1809,1975.168 " fill="#FEFFDD" style="stroke:#181818;stroke-width:0.5;"/><text fill="#000000" font-family="sans-serif" font-size="13" lengthAdjust="spacing" textLength="4" x="1734" y="1992.7363">&#160;</text><text fill="#000000" font-family="sans-serif" font-size="13" lengthAdjust="spacing" textLength="70" x="1734" y="2008.0469">19,739 gas</text><polygon fill="#181818" points="1183,2022.7891,1173,2026.7891,1183,2030.7891,1179,2026.7891" style="stroke:#181818;stroke-width:1.0;"/><line style="stroke:#181818;stroke-width:1.0;stroke-dasharray:2.0,2.0;" x1="1177" x2="1420" y1="2026.7891" y2="2026.7891"/><path d="M1426,2039.7891 L1426,2079.7891 L1517,2079.7891 L1517,2049.7891 L1507,2039.7891 L1426,2039.7891 " fill="#FEFFDD" style="stroke:#181818;stroke-width:0.5;"/><path d="M1507,2039.7891 L1507,2049.7891 L1517,2049.7891 L1507,2039.7891 " fill="#FEFFDD" style="stroke:#181818;stroke-width:0.5;"/><text fill="#000000" font-family="sans-serif" font-size="13" lengthAdjust="spacing" textLength="4" x="1432" y="2057.3574">&#160;</text><text fill="#000000" font-family="sans-serif" font-size="13" lengthAdjust="spacing" textLength="70" x="1432" y="2072.668">10,940 gas</text><polygon fill="#181818" points="365,2087.4102,355,2091.4102,365,2095.4102,361,2091.4102" style="stroke:#181818;stroke-width:1.0;"/><line style="stroke:#181818;stroke-width:1.0;stroke-dasharray:2.0,2.0;" x1="359" x2="1166" y1="2091.4102" y2="2091.4102"/><path d="M1172,2104.4102 L1172,2144.4102 L1263,2144.4102 L1263,2114.4102 L1253,2104.4102 L1172,2104.4102 " fill="#FEFFDD" style="stroke:#181818;stroke-width:0.5;"/><path d="M1253,2104.4102 L1253,2114.4102 L1263,2114.4102 L1253,2104.4102 " fill="#FEFFDD" style="stroke:#181818;stroke-width:0.5;"/><text fill="#000000" font-family="sans-serif" font-size="13" lengthAdjust="spacing" textLength="4" x="1178" y="2121.9785">&#160;</text><text fill="#000000" font-family="sans-serif" font-size="13" lengthAdjust="spacing" textLength="70" x="1178" y="2137.2891">35,026 gas</text><polygon fill="#181818" points="740,2197.9629,750,2201.9629,740,2205.9629,744,2201.9629" style="stroke:#181818;stroke-width:1.0;"/><line style="stroke:#181818;stroke-width:1.0;" x1="354" x2="746" y1="2201.9629" y2="2201.9629"/><text fill="#000000" font-family="sans-serif" font-size="13" lengthAdjust="spacing" textLength="67" x="361" y="2166.5996">balanceOf(</text><text fill="#000000" font-family="sans-serif" font-size="13" lengthAdjust="spacing" textLength="155" x="369" y="2181.9102">_account: 0x326E..42B4)</text><text fill="#000000" font-family="sans-serif" font-size="13" lengthAdjust="spacing" textLength="62" x="361" y="2197.2207">6,600 gas</text><polygon fill="#181818" points="1003,2273.2051,1013,2277.2051,1003,2281.2051,1007,2277.2051" style="stroke:#181818;stroke-width:1.0;"/><line style="stroke:#181818;stroke-width:1.0;" x1="762" x2="1009" y1="2277.2051" y2="2277.2051"/><text fill="#000000" font-family="sans-serif" font-size="13" lengthAdjust="spacing" textLength="49" x="769" y="2226.5313">getApp(</text><text fill="#000000" font-family="sans-serif" font-size="13" lengthAdjust="spacing" textLength="226" x="777" y="2241.8418">_namespace: 0xf1f3eb40..6f35ac0f,</text><text fill="#000000" font-family="sans-serif" font-size="13" lengthAdjust="spacing" textLength="197" x="777" y="2257.1523">_appId: 0x3ca7c3e3..68cef320)</text><text fill="#000000" font-family="sans-serif" font-size="13" lengthAdjust="spacing" textLength="62" x="769" y="2272.4629">1,897 gas</text><polygon fill="#181818" points="773,2302.5156,763,2306.5156,773,2310.5156,769,2306.5156" style="stroke:#181818;stroke-width:1.0;"/><line style="stroke:#181818;stroke-width:1.0;stroke-dasharray:2.0,2.0;" x1="767" x2="1019" y1="2306.5156" y2="2306.5156"/><text fill="#000000" font-family="sans-serif" font-size="13" lengthAdjust="spacing" textLength="87" x="779" y="2301.7734">0x5903..c52b</text><polygon fill="#181818" points="365,2331.8262,355,2335.8262,365,2339.8262,361,2335.8262" style="stroke:#181818;stroke-width:1.0;"/><line style="stroke:#181818;stroke-width:1.0;stroke-dasharray:2.0,2.0;" x1="359" x2="756" y1="2335.8262" y2="2335.8262"/><text fill="#000000" font-family="sans-serif" font-size="13" lengthAdjust="spacing" textLength="164" x="371" y="2331.084">100,009,327,704,393,267</text><path d="M762,2348.8262 L762,2388.8262 L845,2388.8262 L845,2358.8262 L835,2348.8262 L762,2348.8262 " fill="#FEFFDD" style="stroke:#181818;stroke-width:0.5;"/><path d="M835,2348.8262 L835,2358.8262 L845,2358.8262 L835,2348.8262 " fill="#FEFFDD" style="stroke:#181818;stroke-width:0.5;"/><text fill="#000000" font-family="sans-serif" font-size="13" lengthAdjust="spacing" textLength="4" x="768" y="2366.3945">&#160;</text><text fill="#000000" font-family="sans-serif" font-size="13" lengthAdjust="spacing" textLength="62" x="768" y="2381.7051">4,703 gas</text><polygon fill="#181818" points="601,2442.3789,611,2446.3789,601,2450.3789,605,2446.3789" style="stroke:#181818;stroke-width:1.0;"/><line style="stroke:#181818;stroke-width:1.0;" x1="354" x2="607" y1="2446.3789" y2="2446.3789"/><text fill="#000000" font-family="sans-serif" font-size="13" lengthAdjust="spacing" textLength="78" x="361" y="2411.0156">getContract(</text><text fill="#000000" font-family="sans-serif" font-size="13" lengthAdjust="spacing" textLength="228" x="369" y="2426.3262">contractKey: 0x7a8fe1ba..6fa88b85)</text><text fill="#000000" font-family="sans-serif" font-size="13" lengthAdjust="spacing" textLength="62" x="361" y="2441.6367">3,134 gas</text><polygon fill="#181818" points="365,2471.6895,355,2475.6895,365,2479.6895,361,2475.6895" style="stroke:#181818;stroke-width:1.0;"/><line style="stroke:#181818;stroke-width:1.0;stroke-dasharray:2.0,2.0;" x1="359" x2="617" y1="2475.6895" y2="2475.6895"/><text fill="#000000" font-family="sans-serif" font-size="13" lengthAdjust="spacing" textLength="88" x="371" y="2470.9473">0x7C0c..041d</text><polygon fill="#181818" points="740,2546.9316,750,2550.9316,740,2554.9316,744,2550.9316" style="stroke:#181818;stroke-width:1.0;"/><line style="stroke:#181818;stroke-width:1.0;" x1="354" x2="746" y1="2550.9316" y2="2550.9316"/><text fill="#000000" font-family="sans-serif" font-size="13" lengthAdjust="spacing" textLength="53" x="361" y="2500.2578">transfer(</text><text fill="#000000" font-family="sans-serif" font-size="13" lengthAdjust="spacing" textLength="162" x="369" y="2515.5684">_recipient: 0x7C0c..041d,</text><text fill="#000000" font-family="sans-serif" font-size="13" lengthAdjust="spacing" textLength="231" x="369" y="2530.8789">_amount: 100,009,327,704,393,265)</text><text fill="#000000" font-family="sans-serif" font-size="13" lengthAdjust="spacing" textLength="70" x="361" y="2546.1895">17,415 gas</text><polygon fill="#181818" points="1003,2622.1738,1013,2626.1738,1003,2630.1738,1007,2626.1738" style="stroke:#181818;stroke-width:1.0;"/><line style="stroke:#181818;stroke-width:1.0;" x1="762" x2="1009" y1="2626.1738" y2="2626.1738"/><text fill="#000000" font-family="sans-serif" font-size="13" lengthAdjust="spacing" textLength="49" x="769" y="2575.5">getApp(</text><text fill="#000000" font-family="sans-serif" font-size="13" lengthAdjust="spacing" textLength="226" x="777" y="2590.8105">_namespace: 0xf1f3eb40..6f35ac0f,</text><text fill="#000000" font-family="sans-serif" font-size="13" lengthAdjust="spacing" textLength="197" x="777" y="2606.1211">_appId: 0x3ca7c3e3..68cef320)</text><text fill="#000000" font-family="sans-serif" font-size="13" lengthAdjust="spacing" textLength="62" x="769" y="2621.4316">1,897 gas</text><polygon fill="#181818" points="773,2651.4844,763,2655.4844,773,2659.4844,769,2655.4844" style="stroke:#181818;stroke-width:1.0;"/><line style="stroke:#181818;stroke-width:1.0;stroke-dasharray:2.0,2.0;" x1="767" x2="1019" y1="2655.4844" y2="2655.4844"/><text fill="#000000" font-family="sans-serif" font-size="13" lengthAdjust="spacing" textLength="87" x="779" y="2650.7422">0x5903..c52b</text><polygon fill="#181818" points="365,2680.7949,355,2684.7949,365,2688.7949,361,2684.7949" style="stroke:#181818;stroke-width:1.0;"/><line style="stroke:#181818;stroke-width:1.0;stroke-dasharray:2.0,2.0;" x1="359" x2="756" y1="2684.7949" y2="2684.7949"/><text fill="#000000" font-family="sans-serif" font-size="13" lengthAdjust="spacing" textLength="25" x="371" y="2680.0527">true</text><path d="M762,2697.7949 L762,2737.7949 L853,2737.7949 L853,2707.7949 L843,2697.7949 L762,2697.7949 " fill="#FEFFDD" style="stroke:#181818;stroke-width:0.5;"/><path d="M843,2697.7949 L843,2707.7949 L853,2707.7949 L843,2697.7949 " fill="#FEFFDD" style="stroke:#181818;stroke-width:0.5;"/><text fill="#000000" font-family="sans-serif" font-size="13" lengthAdjust="spacing" textLength="4" x="768" y="2715.3633">&#160;</text><text fill="#000000" font-family="sans-serif" font-size="13" lengthAdjust="spacing" textLength="70" x="768" y="2730.6738">15,518 gas</text><polygon fill="#181818" points="119,2760.7266,109,2764.7266,119,2768.7266,115,2764.7266" style="stroke:#181818;stroke-width:1.0;"/><line style="stroke:#181818;stroke-width:1.0;stroke-dasharray:2.0,2.0;" x1="113" x2="348" y1="2764.7266" y2="2764.7266"/><text fill="#000000" font-family="sans-serif" font-size="13" lengthAdjust="spacing" textLength="212" x="125" y="2759.9844">assets: 100,009,327,704,393,265</text><path d="M354,2777.7266 L354,2817.7266 L445,2817.7266 L445,2787.7266 L435,2777.7266 L354,2777.7266 " fill="#FEFFDD" style="stroke:#181818;stroke-width:0.5;"/><path d="M435,2777.7266 L435,2787.7266 L445,2787.7266 L435,2777.7266 " fill="#FEFFDD" style="stroke:#181818;stroke-width:0.5;"/><text fill="#000000" font-family="sans-serif" font-size="13" lengthAdjust="spacing" textLength="4" x="360" y="2795.2949">&#160;</text><text fill="#000000" font-family="sans-serif" font-size="13" lengthAdjust="spacing" textLength="70" x="360" y="2810.6055">45,509 gas</text><path d="M623,2828.3477 L623,3082.3477 L891,3082.3477 L891,2838.3477 L881,2828.3477 L623,2828.3477 " fill="#00FFFF" style="stroke:#181818;stroke-width:0.5;"/><path d="M881,2828.3477 L881,2838.3477 L891,2838.3477 L881,2828.3477 " fill="#00FFFF" style="stroke:#181818;stroke-width:0.5;"/><text fill="#000000" font-family="sans-serif" font-size="13" lengthAdjust="spacing" textLength="56" x="629" y="2845.916">Transfer:</text><text fill="#000000" font-family="sans-serif" font-size="13" lengthAdjust="spacing" textLength="132" x="637" y="2861.2266">from: 0x7D70..63d3,</text><text fill="#000000" font-family="sans-serif" font-size="13" lengthAdjust="spacing" textLength="111" x="637" y="2876.5371">to: 0x326E..42B4,</text><text fill="#000000" font-family="sans-serif" font-size="13" lengthAdjust="spacing" textLength="205" x="637" y="2891.8477">value: 100,009,327,704,393,266</text><text fill="#000000" font-family="sans-serif" font-size="13" lengthAdjust="spacing" textLength="97" x="629" y="2907.1582">TransferShares:</text><text fill="#000000" font-family="sans-serif" font-size="13" lengthAdjust="spacing" textLength="132" x="637" y="2922.4688">from: 0x7D70..63d3,</text><text fill="#000000" font-family="sans-serif" font-size="13" lengthAdjust="spacing" textLength="111" x="637" y="2937.7793">to: 0x326E..42B4,</text><text fill="#000000" font-family="sans-serif" font-size="13" lengthAdjust="spacing" textLength="239" x="637" y="2953.0898">sharesValue: 99,122,271,799,422,587</text><text fill="#000000" font-family="sans-serif" font-size="13" lengthAdjust="spacing" textLength="56" x="629" y="2968.4004">Transfer:</text><text fill="#000000" font-family="sans-serif" font-size="13" lengthAdjust="spacing" textLength="128" x="637" y="2983.7109">from: 0x326E..42B4,</text><text fill="#000000" font-family="sans-serif" font-size="13" lengthAdjust="spacing" textLength="113" x="637" y="2999.0215">to: 0x7C0c..041d,</text><text fill="#000000" font-family="sans-serif" font-size="13" lengthAdjust="spacing" textLength="205" x="637" y="3014.332">value: 100,009,327,704,393,265</text><text fill="#000000" font-family="sans-serif" font-size="13" lengthAdjust="spacing" textLength="97" x="629" y="3029.6426">TransferShares:</text><text fill="#000000" font-family="sans-serif" font-size="13" lengthAdjust="spacing" textLength="128" x="637" y="3044.9531">from: 0x326E..42B4,</text><text fill="#000000" font-family="sans-serif" font-size="13" lengthAdjust="spacing" textLength="113" x="637" y="3060.2637">to: 0x7C0c..041d,</text><text fill="#000000" font-family="sans-serif" font-size="13" lengthAdjust="spacing" textLength="239" x="637" y="3075.5742">sharesValue: 99,122,271,799,422,586</text><path d="M1029,2828.3477 L1029,2868.3477 L1304,2868.3477 L1304,2838.3477 L1294,2828.3477 L1029,2828.3477 " fill="#00FFFF" style="stroke:#181818;stroke-width:0.5;"/><path d="M1294,2828.3477 L1294,2838.3477 L1304,2838.3477 L1294,2828.3477 " fill="#00FFFF" style="stroke:#181818;stroke-width:0.5;"/><text fill="#000000" font-family="sans-serif" font-size="13" lengthAdjust="spacing" textLength="141" x="1035" y="2845.916">WithdrawalCompleted:</text><text fill="#000000" font-family="sans-serif" font-size="13" lengthAdjust="spacing" textLength="246" x="1043" y="2861.2266">withdrawalRoot: 0x57fb500d..efaa71ae</text><!--SRC=[vLTRRzis57xNho2wbmxWD5BYHJIA0abwMT7BjiJh7jQYe2ZA4M9BcYJdykztg9jjnNRIxM7e5i213dbk_3wUSwGcQvOMaLl3b8sCLeQmCAL6CyObPIAWN2YgquGRBPWC0fL40OtYE8oauDecePH9H9B4yumkcwp8qMMnjFNL7KRniZ1NY8OXLP9WzAhACA81EYah5920mVECqncil7u_zxHfYWez8RUX4R7lSnEp9qZNo8bEG5wfgoOpMQdpfjKBXFLz5Wnw83e1FNlseKZi2xkq2mqkdp-V6XeQCzytgPMjeHET08RlpkTdHPvcY_j63XF8YeHzD12Tu8oofDYZ7vFGzwbWlJw8JW3zjxRAxVA-1I1EuJnHdvOJdG0M_La0s_Swrmkxvqn96dFVJtWiMcCdEW6CBvfADtPnTz1K9fBulWYJi3LreXEsJ4zrRUSVtxtBLbbJWmClBngBYcjRZUnu7uhSs1aAbFSQdFnIPKuIlWgZ89AKK_JwncRUUtsBNbdOeTGFu7w5Z5EnsGApeigQknbYFkcMdRSsCFXc0LPAj4k_rJQ15Ifno9atxxqIdv00lPp_vDayGIvBpnllpm_FnpioGsQfizMRl04kzFBthBbCAdsZbqy_vGX0g2s40mvV3PnZjtupgitG7su1eRhHLxPgTGFnqjt6qquNeQGZpIRpmkqJ-FDzzx_V7xmTCCzxFF4Og6fENJq1TXWg2Yiu-x3NqfJPUimB8UAyoXS3jPy7tKjTJVKev4Jk_pv__lvJtYEC5hfs5PfTGwGHHc-iES1sAACPkjJrERI05iiA7bmcIWeXYSk6fLh5Ab1jGjgOOfrtO9-9Km3xx9H1M8KbZtQ33lwzoZRhAaTDjRO74iZgYtLP5XM0V-AuR3DfYYkRxx8AWK9C8tOyq9QtsVseGoEOeLWlDN3sSzg6-x9zj95S5v5X07m2QE_46zkAyzotZ1bQsEQaB3ktkLxPkjIcHJMbQMXZvZXEGwuDIN4NkopV96raewK9BNGY4HcRXW61328SAZb9e8yrd9dSSkNwb-51FAm5NTbNsUAoGKMwTNAu9XnB4hO-zrC2Hu3E2XVLT6oONdXhxroULgGKx0HqJAKIosFUSHC-m0svFHcxvaxaeNj2fHUhScaR- -lQhcqoAVN_NKdZiHGs5cItAZgTLPOaIti3hkSPtBWtUM9lGQ_TgwonsRKzgUUz8rSLhcePvi7aQWz4UECy0tQ6yJGR8Rje3p5uVDf7oShCJakepQ37vsuNaMwhX-C01FXmB-0ACpMvS4EctZXH8VrXH6xIVp3XFH6x1hXoJUBYUCwG6uimdxRX8Grl7DcFx4SRnDfk8FxTTaHnz7VQaHJ0biGuaW2Dwp-KOY61Gf0ZnOuqAp7sglt0mTtAwzHMtGcFiVgbesyWJk4maE2SGOCDSI246w04molqDuXlE-aEWqXXYj1kHFS64-LDaO0opFDG7L7UD0HG9bWnSaHvqzjXHd1C0d5ly7prL1RVQ1NiltZo277idqrggQFKqbYxq-aeYgD7JsfvHg3p4KQJ0rGTgRkDxMFgpgK4evJz9-kEOxvRT-tdIdqGYwclyHC8hWBu8brPRd_I3U1yf_zSQs_UipBp44ghOZKPkPwRRPFM26lNUhcs1_lYwBGVV5_bkXlm7xi0Ic4Q13YG54juPl3C8xatwLqldUUjU_LGqln8qW-xVZXfiVND-YFQq36-DtLqR5vWp_eNsyHbidcHFI-AjcIuX9vAIEBxDjLQKcqt0Vu2]--></g></svg>