<?xml version="1.0" encoding="us-ascii" standalone="no"?><svg xmlns="http://www.w3.org/2000/svg" xmlns:xlink="http://www.w3.org/1999/xlink" contentStyleType="text/css" height="976px" preserveAspectRatio="none" style="width:826px;height:976px;background:#FFFFFF;" version="1.1" viewBox="0 0 826 976" width="826px" zoomAndPan="magnify"><defs/><g><text fill="#000000" font-family="sans-serif" font-size="14" font-weight="bold" lengthAdjust="spacing" textLength="556" x="133.5" y="28.5352">0xcd80037a9de62266685baf6fd2628f7ceb56c2afc212f57d7fc8f605e6b901d1</text><text fill="#000000" font-family="sans-serif" font-size="14" lengthAdjust="spacing" textLength="402" x="210.5" y="964.4648">mainnet, block 19145739, Sat, 03 Feb 2024 05:26:11 GMT</text><rect fill="#FFFFFF" height="312.3477" style="stroke:#181818;stroke-width:1.0;" width="10" x="359" y="359.6563"/><rect fill="#FFFFFF" height="29.3105" style="stroke:#181818;stroke-width:1.0;" width="10" x="577" y="434.8984"/><rect fill="#FFFFFF" height="29.3105" style="stroke:#181818;stroke-width:1.0;" width="10" x="577" y="524.1406"/><rect fill="#FFFFFF" height="29.3105" style="stroke:#181818;stroke-width:1.0;" width="10" x="701" y="628.6934"/><line style="stroke:#181818;stroke-width:0.5;stroke-dasharray:5.0,5.0;" x1="116" x2="116" y1="139.9297" y2="852.4883"/><line style="stroke:#181818;stroke-width:0.5;stroke-dasharray:5.0,5.0;" x1="363.5" x2="363.5" y1="139.9297" y2="852.4883"/><line style="stroke:#181818;stroke-width:0.5;stroke-dasharray:5.0,5.0;" x1="581.5" x2="581.5" y1="139.9297" y2="852.4883"/><line style="stroke:#181818;stroke-width:0.5;stroke-dasharray:5.0,5.0;" x1="705.5" x2="705.5" y1="139.9297" y2="852.4883"/><text fill="#000000" font-family="sans-serif" font-size="14" lengthAdjust="spacing" textLength="94" x="66" y="136.9766">0x7fbd..5168</text><ellipse cx="116" cy="71.9414" fill="#E2E2F0" rx="8" ry="8" style="stroke:#181818;stroke-width:0.5;"/><path d="M116,79.9414 L116,106.9414 M103,87.9414 L129,87.9414 M116,106.9414 L103,121.9414 M116,106.9414 L129,121.9414 " fill="none" style="stroke:#181818;stroke-width:0.5;"/><text fill="#000000" font-family="sans-serif" font-size="14" lengthAdjust="spacing" textLength="94" x="66" y="865.0234">0x7fbd..5168</text><ellipse cx="116" cy="876.4766" fill="#E2E2F0" rx="8" ry="8" style="stroke:#181818;stroke-width:0.5;"/><path d="M116,884.4766 L116,911.4766 M103,892.4766 L129,892.4766 M116,911.4766 L103,926.4766 M116,911.4766 L129,926.4766 " fill="none" style="stroke:#181818;stroke-width:0.5;"/><rect fill="#E2E2F0" height="63.4648" rx="2.5" ry="2.5" style="stroke:#181818;stroke-width:0.5;" width="135" x="296.5" y="75.4648"/><text fill="#000000" font-family="sans-serif" font-size="14" font-style="italic" lengthAdjust="spacing" textLength="103" x="312.5" y="96">&#171;Prime Staked&#187;</text><text fill="#000000" font-family="sans-serif" font-size="14" font-style="italic" lengthAdjust="spacing" textLength="121" x="303.5" y="112.4883">&#171;LRTDepositPool&#187;</text><text fill="#000000" font-family="sans-serif" font-size="14" lengthAdjust="spacing" textLength="97" x="315.5" y="128.9766">0xa479..8d32</text><rect fill="#E2E2F0" height="63.4648" rx="2.5" ry="2.5" style="stroke:#181818;stroke-width:0.5;" width="135" x="296.5" y="851.4883"/><text fill="#000000" font-family="sans-serif" font-size="14" font-style="italic" lengthAdjust="spacing" textLength="103" x="312.5" y="872.0234">&#171;Prime Staked&#187;</text><text fill="#000000" font-family="sans-serif" font-size="14" font-style="italic" lengthAdjust="spacing" textLength="121" x="303.5" y="888.5117">&#171;LRTDepositPool&#187;</text><text fill="#000000" font-family="sans-serif" font-size="14" lengthAdjust="spacing" textLength="97" x="315.5" y="905">0xa479..8d32</text><rect fill="#E2E2F0" height="63.4648" rx="2.5" ry="2.5" style="stroke:#181818;stroke-width:0.5;" width="117" x="523.5" y="75.4648"/><text fill="#000000" font-family="sans-serif" font-size="14" font-style="italic" lengthAdjust="spacing" textLength="103" x="530.5" y="96">&#171;Prime Staked&#187;</text><text fill="#000000" font-family="sans-serif" font-size="14" font-style="italic" lengthAdjust="spacing" textLength="85" x="539.5" y="112.4883">&#171;LRTConfig&#187;</text><text fill="#000000" font-family="sans-serif" font-size="14" lengthAdjust="spacing" textLength="90" x="537" y="128.9766">0xf879..46bf</text><rect fill="#E2E2F0" height="63.4648" rx="2.5" ry="2.5" style="stroke:#181818;stroke-width:0.5;" width="117" x="523.5" y="851.4883"/><text fill="#000000" font-family="sans-serif" font-size="14" font-style="italic" lengthAdjust="spacing" textLength="103" x="530.5" y="872.0234">&#171;Prime Staked&#187;</text><text fill="#000000" font-family="sans-serif" font-size="14" font-style="italic" lengthAdjust="spacing" textLength="85" x="539.5" y="888.5117">&#171;LRTConfig&#187;</text><text fill="#000000" font-family="sans-serif" font-size="14" lengthAdjust="spacing" textLength="90" x="537" y="905">0xf879..46bf</text><rect fill="#E2E2F0" height="96.4414" rx="2.5" ry="2.5" style="stroke:#181818;stroke-width:0.5;" width="111" x="650.5" y="42.4883"/><text fill="#000000" font-family="sans-serif" font-size="14" font-style="italic" lengthAdjust="spacing" textLength="57" x="677.5" y="63.0234">&#171;Origin&#187;</text><text fill="#000000" font-family="sans-serif" font-size="14" font-style="italic" lengthAdjust="spacing" textLength="97" x="657.5" y="79.5117">&#171;Origin Ether&#187;</text><text fill="#000000" font-family="sans-serif" font-size="14" font-style="italic" lengthAdjust="spacing" textLength="62" x="675" y="96">&#171;(OETH)&#187;</text><text fill="#000000" font-family="sans-serif" font-size="14" font-style="italic" lengthAdjust="spacing" textLength="52" x="680" y="112.4883">&#171;OETH&#187;</text><text fill="#000000" font-family="sans-serif" font-size="14" lengthAdjust="spacing" textLength="94" x="659" y="128.9766">0x856c..8dc3</text><rect fill="#E2E2F0" height="96.4414" rx="2.5" ry="2.5" style="stroke:#181818;stroke-width:0.5;" width="111" x="650.5" y="851.4883"/><text fill="#000000" font-family="sans-serif" font-size="14" font-style="italic" lengthAdjust="spacing" textLength="57" x="677.5" y="872.0234">&#171;Origin&#187;</text><text fill="#000000" font-family="sans-serif" font-size="14" font-style="italic" lengthAdjust="spacing" textLength="97" x="657.5" y="888.5117">&#171;Origin Ether&#187;</text><text fill="#000000" font-family="sans-serif" font-size="14" font-style="italic" lengthAdjust="spacing" textLength="62" x="675" y="905">&#171;(OETH)&#187;</text><text fill="#000000" font-family="sans-serif" font-size="14" font-style="italic" lengthAdjust="spacing" textLength="52" x="680" y="921.4883">&#171;OETH&#187;</text><text fill="#000000" font-family="sans-serif" font-size="14" lengthAdjust="spacing" textLength="94" x="659" y="937.9766">0x856c..8dc3</text><rect fill="#FFFFFF" height="312.3477" style="stroke:#181818;stroke-width:1.0;" width="10" x="359" y="359.6563"/><rect fill="#FFFFFF" height="29.3105" style="stroke:#181818;stroke-width:1.0;" width="10" x="577" y="434.8984"/><rect fill="#FFFFFF" height="29.3105" style="stroke:#181818;stroke-width:1.0;" width="10" x="577" y="524.1406"/><rect fill="#FFFFFF" height="29.3105" style="stroke:#181818;stroke-width:1.0;" width="10" x="701" y="628.6934"/><path d="M5,154.9297 L5,271.9297 L227,271.9297 L227,164.9297 L217,154.9297 L5,154.9297 " fill="#FEFFDD" style="stroke:#181818;stroke-width:0.5;"/><path d="M217,154.9297 L217,164.9297 L227,164.9297 L217,154.9297 " fill="#FEFFDD" style="stroke:#181818;stroke-width:0.5;"/><text fill="#000000" font-family="sans-serif" font-size="13" lengthAdjust="spacing" textLength="64" x="11" y="172.498">Nonce: 61</text><text fill="#000000" font-family="sans-serif" font-size="13" lengthAdjust="spacing" textLength="191" x="11" y="187.8086">Gas Price: 14.168176962 Gwei</text><text fill="#000000" font-family="sans-serif" font-size="13" lengthAdjust="spacing" textLength="185" x="11" y="203.1191">Max Fee: 19.498835632 Gwei</text><text fill="#000000" font-family="sans-serif" font-size="13" lengthAdjust="spacing" textLength="201" x="11" y="218.4297">Max Priority: 0.042936702 Gwei</text><text fill="#000000" font-family="sans-serif" font-size="13" lengthAdjust="spacing" textLength="119" x="11" y="233.7402">Gas Limit: 203,344</text><text fill="#000000" font-family="sans-serif" font-size="13" lengthAdjust="spacing" textLength="118" x="11" y="249.0508">Gas Used: 124,155</text><text fill="#000000" font-family="sans-serif" font-size="13" lengthAdjust="spacing" textLength="114" x="11" y="264.3613">Tx Fee: 0.002 ETH</text><polygon fill="#181818" points="347,355.6563,357,359.6563,347,363.6563,351,359.6563" style="stroke:#181818;stroke-width:1.0;"/><line style="stroke:#181818;stroke-width:1.0;" x1="116" x2="353" y1="359.6563" y2="359.6563"/><text fill="#000000" font-family="sans-serif" font-size="13" lengthAdjust="spacing" textLength="198" x="123" y="293.6719">transferAssetToNodeDelegator(</text><text fill="#000000" font-family="sans-serif" font-size="13" lengthAdjust="spacing" textLength="78" x="131" y="308.9824">ndcIndex: 0,</text><text fill="#000000" font-family="sans-serif" font-size="13" lengthAdjust="spacing" textLength="133" x="131" y="324.293">asset: 0x856c..8dC3,</text><text fill="#000000" font-family="sans-serif" font-size="13" lengthAdjust="spacing" textLength="216" x="131" y="339.6035">amount: 20,000,000,000,000,000)</text><text fill="#000000" font-family="sans-serif" font-size="13" lengthAdjust="spacing" textLength="78" x="123" y="354.9141">124,155 gas</text><polygon fill="#181818" points="565,430.8984,575,434.8984,565,438.8984,569,434.8984" style="stroke:#181818;stroke-width:1.0;"/><line style="stroke:#181818;stroke-width:1.0;" x1="369" x2="571" y1="434.8984" y2="434.8984"/><text fill="#000000" font-family="sans-serif" font-size="13" lengthAdjust="spacing" textLength="53" x="376" y="384.2246">hasRole(</text><text fill="#000000" font-family="sans-serif" font-size="13" lengthAdjust="spacing" textLength="181" x="384" y="399.5352">role: 0xaf290d86..30c3a02c,</text><text fill="#000000" font-family="sans-serif" font-size="13" lengthAdjust="spacing" textLength="147" x="384" y="414.8457">account: 0x7fbd..5168)</text><text fill="#000000" font-family="sans-serif" font-size="13" lengthAdjust="spacing" textLength="62" x="376" y="430.1563">9,758 gas</text><polygon fill="#181818" points="380,460.209,370,464.209,380,468.209,376,464.209" style="stroke:#181818;stroke-width:1.0;"/><line style="stroke:#181818;stroke-width:1.0;stroke-dasharray:2.0,2.0;" x1="374" x2="581" y1="464.209" y2="464.209"/><text fill="#000000" font-family="sans-serif" font-size="13" lengthAdjust="spacing" textLength="25" x="386" y="459.4668">true</text><polygon fill="#181818" points="565,520.1406,575,524.1406,565,528.1406,569,524.1406" style="stroke:#181818;stroke-width:1.0;"/><line style="stroke:#181818;stroke-width:1.0;" x1="369" x2="571" y1="524.1406" y2="524.1406"/><text fill="#000000" font-family="sans-serif" font-size="13" lengthAdjust="spacing" textLength="114" x="376" y="488.7773">isSupportedAsset(</text><text fill="#000000" font-family="sans-serif" font-size="13" lengthAdjust="spacing" textLength="136" x="384" y="504.0879">token: 0x856c..8dC3)</text><text fill="#000000" font-family="sans-serif" font-size="13" lengthAdjust="spacing" textLength="62" x="376" y="519.3984">3,184 gas</text><polygon fill="#181818" points="380,549.4512,370,553.4512,380,557.4512,376,553.4512" style="stroke:#181818;stroke-width:1.0;"/><line style="stroke:#181818;stroke-width:1.0;stroke-dasharray:2.0,2.0;" x1="374" x2="581" y1="553.4512" y2="553.4512"/><text fill="#000000" font-family="sans-serif" font-size="13" lengthAdjust="spacing" textLength="108" x="386" y="548.709">isSupported: true</text><polygon fill="#181818" points="689,624.6934,699,628.6934,689,632.6934,693,628.6934" style="stroke:#181818;stroke-width:1.0;"/><line style="stroke:#181818;stroke-width:1.0;" x1="369" x2="695" y1="628.6934" y2="628.6934"/><text fill="#000000" font-family="sans-serif" font-size="13" lengthAdjust="spacing" textLength="53" x="376" y="578.0195">transfer(</text><text fill="#000000" font-family="sans-serif" font-size="13" lengthAdjust="spacing" textLength="116" x="384" y="593.3301">_to: 0x8bBB..4aE2,</text><text fill="#000000" font-family="sans-serif" font-size="13" lengthAdjust="spacing" textLength="208" x="384" y="608.6406">_value: 20,000,000,000,000,000)</text><text fill="#000000" font-family="sans-serif" font-size="13" lengthAdjust="spacing" textLength="70" x="376" y="623.9512">71,617 gas</text><polygon fill="#181818" points="380,654.0039,370,658.0039,380,662.0039,376,658.0039" style="stroke:#181818;stroke-width:1.0;"/><line style="stroke:#181818;stroke-width:1.0;stroke-dasharray:2.0,2.0;" x1="374" x2="705" y1="658.0039" y2="658.0039"/><text fill="#000000" font-family="sans-serif" font-size="13" lengthAdjust="spacing" textLength="25" x="386" y="653.2617">true</text><polygon fill="#181818" points="127,668.0039,117,672.0039,127,676.0039,123,672.0039" style="stroke:#181818;stroke-width:1.0;"/><line style="stroke:#181818;stroke-width:1.0;stroke-dasharray:2.0,2.0;" x1="121" x2="363" y1="672.0039" y2="672.0039"/><path d="M369,685.0039 L369,725.0039 L460,725.0039 L460,695.0039 L450,685.0039 L369,685.0039 " fill="#FEFFDD" style="stroke:#181818;stroke-width:0.5;"/><path d="M450,685.0039 L450,695.0039 L460,695.0039 L450,685.0039 " fill="#FEFFDD" style="stroke:#181818;stroke-width:0.5;"/><text fill="#000000" font-family="sans-serif" font-size="13" lengthAdjust="spacing" textLength="4" x="375" y="702.5723">&#160;</text><text fill="#000000" font-family="sans-serif" font-size="13" lengthAdjust="spacing" textLength="70" x="375" y="717.8828">39,596 gas</text><path d="M593,735.625 L593,836.625 L819,836.625 L819,745.625 L809,735.625 L593,735.625 " fill="#00FFFF" style="stroke:#181818;stroke-width:0.5;"/><path d="M809,735.625 L809,745.625 L819,745.625 L809,735.625 " fill="#00FFFF" style="stroke:#181818;stroke-width:0.5;"/><text fill="#000000" font-family="sans-serif" font-size="13" lengthAdjust="spacing" textLength="168" x="599" y="753.1934">AccountRebasingDisabled:</text><text fill="#000000" font-family="sans-serif" font-size="13" lengthAdjust="spacing" textLength="142" x="607" y="768.5039">account: 0x8bBB..4aE2</text><text fill="#000000" font-family="sans-serif" font-size="13" lengthAdjust="spacing" textLength="56" x="599" y="783.8145">Transfer:</text><text fill="#000000" font-family="sans-serif" font-size="13" lengthAdjust="spacing" textLength="131" x="607" y="799.125">from: 0xA479..8d32,</text><text fill="#000000" font-family="sans-serif" font-size="13" lengthAdjust="spacing" textLength="109" x="607" y="814.4355">to: 0x8bBB..4aE2,</text><text fill="#000000" font-family="sans-serif" font-size="13" lengthAdjust="spacing" textLength="197" x="607" y="829.7461">value: 20,000,000,000,000,000</text><!--SRC=[VLJ9Rjim5BppAuZqaW2gG58IjI0maArfWMn8t5k0W28V7I8swKfqwlvzINc9dRGv6E2yHyxCMonl_1GmMKfL4PALebR06UESLqKhDDUASLRfKa9RSCc4bemoNPIgrBBId1J0svfGHH6IOkwDitWcZBNW4znEdNp1jAPvKMPrWXz4298CVuCMCy9oJ8g6yOPIV7azHa9wr-43iYnrgzAqeBmwmAB74KQ0qLnqtaWp5zR7Uo8lwpIjLCQ6Un56W8-Fxpep0_pWnGkeqUZu-Ef-V0vprnj_vznqD7hFfAl8bFDM3qmHHl1lfZDdjPby9Ab2Vw8TcGqa4KOGI6uxCp4sFb-Ty8L_XYxYmzkByVUZ8HCEWHDPvm6xL-YsTQCRPoKqc5Dq6NY3euXedeOSBNdD6Rxy3GPTYsNeR4pLQLvNLLRmR2SLthdE-3yD9Yd9MPtnagpJaVRAp8nlmbYo9Clp8VIp1nNOM9xGea3ZDNju7Tu5jmYimj4kGjiHVHrjnz1WtmdRQ-XE-XxysDqu1USmXOa8Spvyj1XR9NzO1Sj0caGiuiK0jgqyorRncLlOmLn2o8VVqQDTUyGJqSSrCgyYD75Z16qN8xZRZBR1pwA_TrCOZ7JX47M5PZLH5K_JZCXC42PN-bAk3EpkPf2jaxAezaKt_AW3l-XiwC42_cF0z0-B-Tnr7jJGeS69TozWzriGXBA4LlddGZjipKVLpJA-3MLGU_9kq6fFJyFwYmisbFlqAgOB-AJT9KquBVVzR1Js2b-VLqiTLl_POwTtDYHKLYT5pGUgdTNV_dU-Y5yBWKvM_R-7LlJ6JivDBzffg1FjZUQj2ZHU5nblwCxDOlfa-xL8KEppky93xDEotxRzBm00]--></g></svg>