<?xml version="1.0" encoding="us-ascii" standalone="no"?><svg xmlns="http://www.w3.org/2000/svg" xmlns:xlink="http://www.w3.org/1999/xlink" contentStyleType="text/css" height="1258px" preserveAspectRatio="none" style="width:1159px;height:1258px;background:#FFFFFF;" version="1.1" viewBox="0 0 1159 1258" width="1159px" zoomAndPan="magnify"><defs/><g><text fill="#000000" font-family="sans-serif" font-size="14" font-weight="bold" lengthAdjust="spacing" textLength="567" x="295.25" y="28.5352">0xe4e876f1b377626923252157000e1e57aa699744b16087aff4aa95f8a49a88f5</text><text fill="#000000" font-family="sans-serif" font-size="14" lengthAdjust="spacing" textLength="386" x="385.75" y="1246.1484">holesky, block 1331917, Fri, 12 Apr 2024 12:39:12 GMT</text><rect fill="#FFFFFF" height="559.3848" style="stroke:#181818;stroke-width:1.0;" width="10" x="411" y="323.3926"/><rect fill="#FFFFFF" height="29.3105" style="stroke:#181818;stroke-width:1.0;" width="10" x="680" y="398.6348"/><rect fill="#FFFFFF" height="29.3105" style="stroke:#181818;stroke-width:1.0;" width="10" x="680" y="487.877"/><rect fill="#FFFFFF" height="149.1738" style="stroke:#181818;stroke-width:1.0;" width="10" x="822.5" y="668.9824"/><rect fill="#FFFFFF" height="14" style="stroke:#181818;stroke-width:1.0;" width="10" x="1076.5" y="759.5352"/><line style="stroke:#181818;stroke-width:0.5;stroke-dasharray:5.0,5.0;" x1="116" x2="116" y1="118.9766" y2="1155.125"/><line style="stroke:#181818;stroke-width:0.5;stroke-dasharray:5.0,5.0;" x1="415.5" x2="415.5" y1="118.9766" y2="1155.125"/><line style="stroke:#181818;stroke-width:0.5;stroke-dasharray:5.0,5.0;" x1="684.5" x2="684.5" y1="118.9766" y2="1155.125"/><line style="stroke:#181818;stroke-width:0.5;stroke-dasharray:5.0,5.0;" x1="827.5" x2="827.5" y1="118.9766" y2="1155.125"/><line style="stroke:#181818;stroke-width:0.5;stroke-dasharray:5.0,5.0;" x1="1081.5" x2="1081.5" y1="118.9766" y2="1155.125"/><text fill="#000000" font-family="sans-serif" font-size="14" lengthAdjust="spacing" textLength="94" x="66" y="116.0234">0x3c6b..5cb4</text><ellipse cx="116" cy="50.9883" fill="#E2E2F0" rx="8" ry="8" style="stroke:#181818;stroke-width:0.5;"/><path d="M116,58.9883 L116,85.9883 M103,66.9883 L129,66.9883 M116,85.9883 L103,100.9883 M116,85.9883 L129,100.9883 " fill="none" style="stroke:#181818;stroke-width:0.5;"/><text fill="#000000" font-family="sans-serif" font-size="14" lengthAdjust="spacing" textLength="94" x="66" y="1167.6602">0x3c6b..5cb4</text><ellipse cx="116" cy="1179.1133" fill="#E2E2F0" rx="8" ry="8" style="stroke:#181818;stroke-width:0.5;"/><path d="M116,1187.1133 L116,1214.1133 M103,1195.1133 L129,1195.1133 M116,1214.1133 L103,1229.1133 M116,1214.1133 L129,1229.1133 " fill="none" style="stroke:#181818;stroke-width:0.5;"/><rect fill="#E2E2F0" height="46.9766" rx="2.5" ry="2.5" style="stroke:#181818;stroke-width:0.5;" width="131" x="350.5" y="71"/><text fill="#000000" font-family="sans-serif" font-size="14" font-style="italic" lengthAdjust="spacing" textLength="117" x="357.5" y="91.5352">&#171;NodeDelegator&#187;</text><text fill="#000000" font-family="sans-serif" font-size="14" lengthAdjust="spacing" textLength="97" x="367.5" y="108.0234">0x326e..42b4</text><rect fill="#E2E2F0" height="46.9766" rx="2.5" ry="2.5" style="stroke:#181818;stroke-width:0.5;" width="131" x="350.5" y="1154.125"/><text fill="#000000" font-family="sans-serif" font-size="14" font-style="italic" lengthAdjust="spacing" textLength="117" x="357.5" y="1174.6602">&#171;NodeDelegator&#187;</text><text fill="#000000" font-family="sans-serif" font-size="14" lengthAdjust="spacing" textLength="97" x="367.5" y="1191.1484">0x326e..42b4</text><rect fill="#E2E2F0" height="46.9766" rx="2.5" ry="2.5" style="stroke:#181818;stroke-width:0.5;" width="103" x="633.5" y="71"/><text fill="#000000" font-family="sans-serif" font-size="14" font-style="italic" lengthAdjust="spacing" textLength="85" x="642.5" y="91.5352">&#171;LRTConfig&#187;</text><text fill="#000000" font-family="sans-serif" font-size="14" lengthAdjust="spacing" textLength="89" x="640.5" y="108.0234">0xc1b4..cfe7</text><rect fill="#E2E2F0" height="46.9766" rx="2.5" ry="2.5" style="stroke:#181818;stroke-width:0.5;" width="103" x="633.5" y="1154.125"/><text fill="#000000" font-family="sans-serif" font-size="14" font-style="italic" lengthAdjust="spacing" textLength="85" x="642.5" y="1174.6602">&#171;LRTConfig&#187;</text><text fill="#000000" font-family="sans-serif" font-size="14" lengthAdjust="spacing" textLength="89" x="640.5" y="1191.1484">0xc1b4..cfe7</text><rect fill="#E2E2F0" height="46.9766" rx="2.5" ry="2.5" style="stroke:#181818;stroke-width:0.5;" width="162" x="746.5" y="71"/><text fill="#000000" font-family="sans-serif" font-size="14" font-style="italic" lengthAdjust="spacing" textLength="148" x="753.5" y="91.5352">&#171;DelegationManager&#187;</text><text fill="#000000" font-family="sans-serif" font-size="14" lengthAdjust="spacing" textLength="96" x="779.5" y="108.0234">0xa441..48e7</text><rect fill="#E2E2F0" height="46.9766" rx="2.5" ry="2.5" style="stroke:#181818;stroke-width:0.5;" width="162" x="746.5" y="1154.125"/><text fill="#000000" font-family="sans-serif" font-size="14" font-style="italic" lengthAdjust="spacing" textLength="148" x="753.5" y="1174.6602">&#171;DelegationManager&#187;</text><text fill="#000000" font-family="sans-serif" font-size="14" lengthAdjust="spacing" textLength="96" x="779.5" y="1191.1484">0xa441..48e7</text><rect fill="#E2E2F0" height="46.9766" rx="2.5" ry="2.5" style="stroke:#181818;stroke-width:0.5;" width="144" x="1009.5" y="71"/><text fill="#000000" font-family="sans-serif" font-size="14" font-style="italic" lengthAdjust="spacing" textLength="130" x="1016.5" y="91.5352">&#171;StrategyManager&#187;</text><text fill="#000000" font-family="sans-serif" font-size="14" lengthAdjust="spacing" textLength="94" x="1034.5" y="108.0234">0xdfb5..d5b6</text><rect fill="#E2E2F0" height="46.9766" rx="2.5" ry="2.5" style="stroke:#181818;stroke-width:0.5;" width="144" x="1009.5" y="1154.125"/><text fill="#000000" font-family="sans-serif" font-size="14" font-style="italic" lengthAdjust="spacing" textLength="130" x="1016.5" y="1174.6602">&#171;StrategyManager&#187;</text><text fill="#000000" font-family="sans-serif" font-size="14" lengthAdjust="spacing" textLength="94" x="1034.5" y="1191.1484">0xdfb5..d5b6</text><rect fill="#FFFFFF" height="559.3848" style="stroke:#181818;stroke-width:1.0;" width="10" x="411" y="323.3926"/><rect fill="#FFFFFF" height="29.3105" style="stroke:#181818;stroke-width:1.0;" width="10" x="680" y="398.6348"/><rect fill="#FFFFFF" height="29.3105" style="stroke:#181818;stroke-width:1.0;" width="10" x="680" y="487.877"/><rect fill="#FFFFFF" height="149.1738" style="stroke:#181818;stroke-width:1.0;" width="10" x="822.5" y="668.9824"/><rect fill="#FFFFFF" height="14" style="stroke:#181818;stroke-width:1.0;" width="10" x="1076.5" y="759.5352"/><path d="M5,133.9766 L5,250.9766 L227,250.9766 L227,143.9766 L217,133.9766 L5,133.9766 " fill="#FEFFDD" style="stroke:#181818;stroke-width:0.5;"/><path d="M217,133.9766 L217,143.9766 L227,143.9766 L217,133.9766 " fill="#FEFFDD" style="stroke:#181818;stroke-width:0.5;"/><text fill="#000000" font-family="sans-serif" font-size="13" lengthAdjust="spacing" textLength="64" x="11" y="151.5449">Nonce: 28</text><text fill="#000000" font-family="sans-serif" font-size="13" lengthAdjust="spacing" textLength="175" x="11" y="166.8555">Gas Price: 5.67288225 Gwei</text><text fill="#000000" font-family="sans-serif" font-size="13" lengthAdjust="spacing" textLength="185" x="11" y="182.166">Max Fee: 12.014037116 Gwei</text><text fill="#000000" font-family="sans-serif" font-size="13" lengthAdjust="spacing" textLength="201" x="11" y="197.4766">Max Priority: 2.337857761 Gwei</text><text fill="#000000" font-family="sans-serif" font-size="13" lengthAdjust="spacing" textLength="119" x="11" y="212.7871">Gas Limit: 142,871</text><text fill="#000000" font-family="sans-serif" font-size="13" lengthAdjust="spacing" textLength="118" x="11" y="228.0977">Gas Used: 140,588</text><text fill="#000000" font-family="sans-serif" font-size="13" lengthAdjust="spacing" textLength="114" x="11" y="243.4082">Tx Fee: 0.001 ETH</text><polygon fill="#181818" points="399,319.3926,409,323.3926,399,327.3926,403,323.3926" style="stroke:#181818;stroke-width:1.0;"/><line style="stroke:#181818;stroke-width:1.0;" x1="116" x2="405" y1="323.3926" y2="323.3926"/><text fill="#000000" font-family="sans-serif" font-size="13" lengthAdjust="spacing" textLength="168" x="123" y="272.7188">requestInternalWithdrawal(</text><text fill="#000000" font-family="sans-serif" font-size="13" lengthAdjust="spacing" textLength="204" x="131" y="288.0293">strategyAddress: 0x7D70..63d3,</text><text fill="#000000" font-family="sans-serif" font-size="13" lengthAdjust="spacing" textLength="268" x="131" y="303.3398">strategyShares: 100,000,000,000,000,000)</text><text fill="#000000" font-family="sans-serif" font-size="13" lengthAdjust="spacing" textLength="78" x="123" y="318.6504">140,588 gas</text><polygon fill="#181818" points="668,394.6348,678,398.6348,668,402.6348,672,398.6348" style="stroke:#181818;stroke-width:1.0;"/><line style="stroke:#181818;stroke-width:1.0;" x1="421" x2="674" y1="398.6348" y2="398.6348"/><text fill="#000000" font-family="sans-serif" font-size="13" lengthAdjust="spacing" textLength="53" x="428" y="347.9609">hasRole(</text><text fill="#000000" font-family="sans-serif" font-size="13" lengthAdjust="spacing" textLength="184" x="436" y="363.2715">role: 0x97667070..4fa9b929,</text><text fill="#000000" font-family="sans-serif" font-size="13" lengthAdjust="spacing" textLength="150" x="436" y="378.582">account: 0x3C6B..5CB4)</text><text fill="#000000" font-family="sans-serif" font-size="13" lengthAdjust="spacing" textLength="62" x="428" y="393.8926">9,758 gas</text><polygon fill="#181818" points="432,423.9453,422,427.9453,432,431.9453,428,427.9453" style="stroke:#181818;stroke-width:1.0;"/><line style="stroke:#181818;stroke-width:1.0;stroke-dasharray:2.0,2.0;" x1="426" x2="684" y1="427.9453" y2="427.9453"/><text fill="#000000" font-family="sans-serif" font-size="13" lengthAdjust="spacing" textLength="25" x="438" y="423.2031">true</text><polygon fill="#181818" points="668,483.877,678,487.877,668,491.877,672,487.877" style="stroke:#181818;stroke-width:1.0;"/><line style="stroke:#181818;stroke-width:1.0;" x1="421" x2="674" y1="487.877" y2="487.877"/><text fill="#000000" font-family="sans-serif" font-size="13" lengthAdjust="spacing" textLength="78" x="428" y="452.5137">getContract(</text><text fill="#000000" font-family="sans-serif" font-size="13" lengthAdjust="spacing" textLength="232" x="436" y="467.8242">contractKey: 0xe6f126e6..199de5b5)</text><text fill="#000000" font-family="sans-serif" font-size="13" lengthAdjust="spacing" textLength="62" x="428" y="483.1348">3,134 gas</text><polygon fill="#181818" points="432,513.1875,422,517.1875,432,521.1875,428,517.1875" style="stroke:#181818;stroke-width:1.0;"/><line style="stroke:#181818;stroke-width:1.0;stroke-dasharray:2.0,2.0;" x1="426" x2="684" y1="517.1875" y2="517.1875"/><text fill="#000000" font-family="sans-serif" font-size="13" lengthAdjust="spacing" textLength="88" x="438" y="512.4453">0xA441..48e7</text><polygon fill="#181818" points="810.5,664.9824,820.5,668.9824,810.5,672.9824,814.5,668.9824" style="stroke:#181818;stroke-width:1.0;"/><line style="stroke:#181818;stroke-width:1.0;" x1="421" x2="816.5" y1="668.9824" y2="668.9824"/><text fill="#000000" font-family="sans-serif" font-size="13" lengthAdjust="spacing" textLength="118" x="428" y="541.7559">queueWithdrawals(</text><text fill="#000000" font-family="sans-serif" font-size="13" lengthAdjust="spacing" textLength="172" x="436" y="557.0664">queuedWithdrawalParams: [</text><text fill="#000000" font-family="sans-serif" font-size="13" lengthAdjust="spacing" textLength="20" x="444" y="572.377">0: [</text><text fill="#000000" font-family="sans-serif" font-size="13" lengthAdjust="spacing" textLength="74" x="452" y="587.6875">strategies: [</text><text fill="#000000" font-family="sans-serif" font-size="13" lengthAdjust="spacing" textLength="114" x="460" y="602.998">0: 0x7D70..63d3],</text><text fill="#000000" font-family="sans-serif" font-size="13" lengthAdjust="spacing" textLength="53" x="452" y="618.3086">shares: [</text><text fill="#000000" font-family="sans-serif" font-size="13" lengthAdjust="spacing" textLength="188" x="460" y="633.6191">0: 100,000,000,000,000,000],</text><text fill="#000000" font-family="sans-serif" font-size="13" lengthAdjust="spacing" textLength="175" x="452" y="648.9297">withdrawer: 0x326E..42B4]])</text><text fill="#000000" font-family="sans-serif" font-size="13" lengthAdjust="spacing" textLength="70" x="428" y="664.2402">65,726 gas</text><polygon fill="#181818" points="1064.5,755.5352,1074.5,759.5352,1064.5,763.5352,1068.5,759.5352" style="stroke:#181818;stroke-width:1.0;"/><line style="stroke:#181818;stroke-width:1.0;" x1="832.5" x2="1070.5" y1="759.5352" y2="759.5352"/><text fill="#000000" font-family="sans-serif" font-size="13" lengthAdjust="spacing" textLength="91" x="839.5" y="693.5508">removeShares(</text><text fill="#000000" font-family="sans-serif" font-size="13" lengthAdjust="spacing" textLength="137" x="847.5" y="708.8613">staker: 0x326E..42B4,</text><text fill="#000000" font-family="sans-serif" font-size="13" lengthAdjust="spacing" textLength="153" x="847.5" y="724.1719">strategy: 0x7D70..63d3,</text><text fill="#000000" font-family="sans-serif" font-size="13" lengthAdjust="spacing" textLength="217" x="847.5" y="739.4824">shares: 100,000,000,000,000,000)</text><text fill="#000000" font-family="sans-serif" font-size="13" lengthAdjust="spacing" textLength="70" x="839.5" y="754.793">13,382 gas</text><polygon fill="#181818" points="843.5,769.5352,833.5,773.5352,843.5,777.5352,839.5,773.5352" style="stroke:#181818;stroke-width:1.0;"/><line style="stroke:#181818;stroke-width:1.0;stroke-dasharray:2.0,2.0;" x1="837.5" x2="1080.5" y1="773.5352" y2="773.5352"/><polygon fill="#181818" points="432,814.1563,422,818.1563,432,822.1563,428,818.1563" style="stroke:#181818;stroke-width:1.0;"/><line style="stroke:#181818;stroke-width:1.0;stroke-dasharray:2.0,2.0;" x1="426" x2="826.5" y1="818.1563" y2="818.1563"/><text fill="#000000" font-family="sans-serif" font-size="13" lengthAdjust="spacing" textLength="4" x="438" y="798.1035">[</text><text fill="#000000" font-family="sans-serif" font-size="13" lengthAdjust="spacing" textLength="161" x="446" y="813.4141">0: 0x57fb500d..efaa71ae]</text><path d="M832,831.1563 L832,871.1563 L923,871.1563 L923,841.1563 L913,831.1563 L832,831.1563 " fill="#FEFFDD" style="stroke:#181818;stroke-width:0.5;"/><path d="M913,831.1563 L913,841.1563 L923,841.1563 L913,831.1563 " fill="#FEFFDD" style="stroke:#181818;stroke-width:0.5;"/><text fill="#000000" font-family="sans-serif" font-size="13" lengthAdjust="spacing" textLength="4" x="838" y="848.7246">&#160;</text><text fill="#000000" font-family="sans-serif" font-size="13" lengthAdjust="spacing" textLength="70" x="838" y="864.0352">52,344 gas</text><polygon fill="#181818" points="127,878.7773,117,882.7773,127,886.7773,123,882.7773" style="stroke:#181818;stroke-width:1.0;"/><line style="stroke:#181818;stroke-width:1.0;stroke-dasharray:2.0,2.0;" x1="121" x2="415" y1="882.7773" y2="882.7773"/><path d="M421,895.7773 L421,935.7773 L512,935.7773 L512,905.7773 L502,895.7773 L421,895.7773 " fill="#FEFFDD" style="stroke:#181818;stroke-width:0.5;"/><path d="M502,895.7773 L502,905.7773 L512,905.7773 L502,895.7773 " fill="#FEFFDD" style="stroke:#181818;stroke-width:0.5;"/><text fill="#000000" font-family="sans-serif" font-size="13" lengthAdjust="spacing" textLength="4" x="427" y="913.3457">&#160;</text><text fill="#000000" font-family="sans-serif" font-size="13" lengthAdjust="spacing" textLength="70" x="427" y="928.6563">61,970 gas</text><path d="M688,946.3984 L688,1139.3984 L967,1139.3984 L967,956.3984 L957,946.3984 L688,946.3984 " fill="#00FFFF" style="stroke:#181818;stroke-width:0.5;"/><path d="M957,946.3984 L957,956.3984 L967,956.3984 L957,946.3984 " fill="#00FFFF" style="stroke:#181818;stroke-width:0.5;"/><text fill="#000000" font-family="sans-serif" font-size="13" lengthAdjust="spacing" textLength="121" x="694" y="963.9668">WithdrawalQueued:</text><text fill="#000000" font-family="sans-serif" font-size="13" lengthAdjust="spacing" textLength="250" x="702" y="979.2773">withdrawalRoot: 0x57fb500d..efaa71ae,</text><text fill="#000000" font-family="sans-serif" font-size="13" lengthAdjust="spacing" textLength="80" x="702" y="994.5879">withdrawal: [</text><text fill="#000000" font-family="sans-serif" font-size="13" lengthAdjust="spacing" textLength="137" x="710" y="1009.8984">staker: 0x326E..42B4,</text><text fill="#000000" font-family="sans-serif" font-size="13" lengthAdjust="spacing" textLength="177" x="710" y="1025.209">delegatedTo: 0x0000..0000,</text><text fill="#000000" font-family="sans-serif" font-size="13" lengthAdjust="spacing" textLength="167" x="710" y="1040.5195">withdrawer: 0x326E..42B4,</text><text fill="#000000" font-family="sans-serif" font-size="13" lengthAdjust="spacing" textLength="58" x="710" y="1055.8301">nonce: 2,</text><text fill="#000000" font-family="sans-serif" font-size="13" lengthAdjust="spacing" textLength="139" x="710" y="1071.1406">startBlock: 1,331,917,</text><text fill="#000000" font-family="sans-serif" font-size="13" lengthAdjust="spacing" textLength="74" x="710" y="1086.4512">strategies: [</text><text fill="#000000" font-family="sans-serif" font-size="13" lengthAdjust="spacing" textLength="114" x="718" y="1101.7617">0: 0x7D70..63d3],</text><text fill="#000000" font-family="sans-serif" font-size="13" lengthAdjust="spacing" textLength="53" x="710" y="1117.0723">shares: [</text><text fill="#000000" font-family="sans-serif" font-size="13" lengthAdjust="spacing" textLength="188" x="718" y="1132.3828">0: 100,000,000,000,000,000]]</text><!--SRC=[XLLDRziu4BtpLn3Toox04YJ53yae0YHfcrsqARgfYnuQ7oY9ieKuKahHZVFlEvGbsSv7Ux2iuSoR6Svxf48TrWwphPCkDRhYUMAC5ZeJYL22AyCOSzmfOwtECYDbpZLBZQqgQMscgjJApAPffH0gx5sesmQlshNhRXu8pjTjSODval2C6uBV-vfWBl3fdSU22GdlioIRmSh5vHpP8hGUlsBRfD0vfQh8vIjiEnpDQ61qPtseY_hEDg6F4zfHAiKO1sOqy9itdzhIlNLhjxIGykJaCR3WkQIqg9pfWT6C1W0_NitFswQgbqz1LaeErT815Cre06Ye13k_j8rTkcSgbbMkA2rLhdjmDAC1u2_1s-2M3tieQjhWSFlJ-Mdhw5FR56w6HOek0FxPrz5IL1kHfa8eV77lQdHfj_Yz0mSNb7794iEvthi0rVewF40QcYGcLK0ptxbZqe_rRHq0AmL93U-NldQkZ2kCg3H5yo4xeunn_6x-Bt9DYMEp24qSlJwPU9XXxtviN1V-QuBpZLr_gyEgzFRUhl- -RZ3kXfsVbgLtNGU9j-QjOPJgf4p8OSINbOK8w8Gnmfx-_hbkXXxnqdPHH_LFm4sDe4aPqDr8zWolR7S5GkrxyV0I6yYCreR59cHbipmJMT-8BOfsquGOaPphCn3d-Pc4iXanwb7HCJ_oBcnyWuFVk1SQMBe0OeCz5g5leXYC3-uXLd9m5W6dAULPLZgLAwYO49x8trTaszD9gaULHydECD2oSNiwkhvylrZkLpzRRszXwj-Z4sCslKt4rAuxMEn33ZbSa2b-8F0uzWKwzx3xeHVd-yaB_IuUzpEvMC0aj296wEDHZ3j4q-c4RO-7BUhn5exLJas31EtDu-H7odjEb7yMOqAIL1ntDZOnaZJ-znFfvwOCX31MKkegQmstRh6x2NozN0NSLWVyNJTAa4JkX31cF0xUdq8O5IUPONtmmUKopUWl-sDZqPxu_tiXpD2U0Bk-QjlmV9VaA0uuHZk5F3FPtbFkRajNpjleXf71TEDpvtw9yvst6Uv1CXRnuIn-Ou0E0byP4Zypw8b2qGloH4VQH7yKvc9_u_q2]--></g></svg>