<?xml version="1.0" encoding="us-ascii" standalone="no"?><svg xmlns="http://www.w3.org/2000/svg" xmlns:xlink="http://www.w3.org/1999/xlink" contentStyleType="text/css" height="359px" preserveAspectRatio="none" style="width:735px;height:359px;background:#FFFFFF;" version="1.1" viewBox="0 0 735 359" width="735px" zoomAndPan="magnify"><defs/><g><text fill="#000000" font-family="sans-serif" font-size="14" font-weight="bold" lengthAdjust="spacing" textLength="575" x="79" y="28.5352">0x79995230480dc31a1abd0812f57f969d2d0b2dd2d4b9291d2dbc33c967f496a2</text><text fill="#000000" font-family="sans-serif" font-size="14" lengthAdjust="spacing" textLength="411" x="161" y="347.3281">mainnet, block 19561455, Mon, 01 Apr 2024 14:04:35 GMT</text><line style="stroke:#181818;stroke-width:0.5;stroke-dasharray:5.0,5.0;" x1="72" x2="72" y1="139.9297" y2="341.793"/><line style="stroke:#181818;stroke-width:0.5;stroke-dasharray:5.0,5.0;" x1="226" x2="226" y1="139.9297" y2="341.793"/><line style="stroke:#181818;stroke-width:0.5;stroke-dasharray:5.0,5.0;" x1="378" x2="378" y1="139.9297" y2="341.793"/><line style="stroke:#181818;stroke-width:0.5;stroke-dasharray:5.0,5.0;" x1="522" x2="522" y1="139.9297" y2="341.793"/><line style="stroke:#181818;stroke-width:0.5;stroke-dasharray:5.0,5.0;" x1="659" x2="659" y1="139.9297" y2="341.793"/><rect fill="#E2E2F0" height="96.4414" rx="2.5" ry="2.5" style="stroke:#181818;stroke-width:0.5;" width="135" x="5" y="42.4883"/><text fill="#000000" font-family="sans-serif" font-size="14" font-style="italic" lengthAdjust="spacing" textLength="121" x="12" y="63.0234">&#171;wrapped-token&#187;</text><text fill="#000000" font-family="sans-serif" font-size="14" font-style="italic" lengthAdjust="spacing" textLength="115" x="15" y="79.5117">&#171;Wrapped Ether&#187;</text><text fill="#000000" font-family="sans-serif" font-size="14" font-style="italic" lengthAdjust="spacing" textLength="63" x="41" y="96">&#171;(WETH)&#187;</text><text fill="#000000" font-family="sans-serif" font-size="14" font-style="italic" lengthAdjust="spacing" textLength="62" x="41.5" y="112.4883">&#171;WETH9&#187;</text><text fill="#000000" font-family="sans-serif" font-size="14" lengthAdjust="spacing" textLength="97" x="24" y="128.9766">0xC02a..6Cc2</text><rect fill="#E2E2F0" height="46.9766" rx="2.5" ry="2.5" style="stroke:#181818;stroke-width:0.5;" width="131" x="161" y="91.9531"/><text fill="#000000" font-family="sans-serif" font-size="14" font-style="italic" lengthAdjust="spacing" textLength="117" x="168" y="112.4883">&#171;NodeDelegator&#187;</text><text fill="#000000" font-family="sans-serif" font-size="14" lengthAdjust="spacing" textLength="98" x="177.5" y="128.9766">0x1816..0087</text><rect fill="#E2E2F0" height="46.9766" rx="2.5" ry="2.5" style="stroke:#181818;stroke-width:0.5;" width="152" x="302" y="91.9531"/><text fill="#000000" font-family="sans-serif" font-size="14" font-style="italic" lengthAdjust="spacing" textLength="138" x="309" y="112.4883">&#171;EigenPodManager&#187;</text><text fill="#000000" font-family="sans-serif" font-size="14" lengthAdjust="spacing" textLength="98" x="329" y="128.9766">0x91E6..A338</text><rect fill="#E2E2F0" height="46.9766" rx="2.5" ry="2.5" style="stroke:#181818;stroke-width:0.5;" width="116" x="464" y="91.9531"/><text fill="#000000" font-family="sans-serif" font-size="14" font-style="italic" lengthAdjust="spacing" textLength="102" x="471" y="112.4883">&#171;BeaconProxy&#187;</text><text fill="#000000" font-family="sans-serif" font-size="14" lengthAdjust="spacing" textLength="96" x="474" y="128.9766">0x4279..e35e</text><rect fill="#E2E2F0" height="63.4648" rx="2.5" ry="2.5" style="stroke:#181818;stroke-width:0.5;" width="139" x="590" y="75.4648"/><text fill="#000000" font-family="sans-serif" font-size="14" font-style="italic" lengthAdjust="spacing" textLength="117" x="601" y="96">&#171;smart-contract&#187;</text><text fill="#000000" font-family="sans-serif" font-size="14" font-style="italic" lengthAdjust="spacing" textLength="125" x="597" y="112.4883">&#171;DepositContract&#187;</text><text fill="#000000" font-family="sans-serif" font-size="14" lengthAdjust="spacing" textLength="96" x="611.5" y="128.9766">0x0000..05Fa</text><polygon fill="#181818" points="214.5,167.2402,224.5,171.2402,214.5,175.2402,218.5,171.2402" style="stroke:#181818;stroke-width:1.0;"/><line style="stroke:#181818;stroke-width:1.0;" x1="72.5" x2="220.5" y1="171.2402" y2="171.2402"/><text fill="#000000" font-family="sans-serif" font-size="13" lengthAdjust="spacing" textLength="57" x="79.5" y="166.498">32.0 ETH</text><line style="stroke:#181818;stroke-width:2.0;" x1="79.5" x2="89.5" y1="195.5508" y2="205.5508"/><line style="stroke:#181818;stroke-width:2.0;" x1="79.5" x2="89.5" y1="205.5508" y2="195.5508"/><line style="stroke:#181818;stroke-width:1.0;" x1="84.5" x2="225.5" y1="200.5508" y2="200.5508"/><text fill="#000000" font-family="sans-serif" font-size="13" lengthAdjust="spacing" textLength="130" x="89.5" y="195.8086">Withdraw 32.0 WETH</text><polygon fill="#181818" points="366,225.8613,376,229.8613,366,233.8613,370,229.8613" style="stroke:#181818;stroke-width:1.0;"/><line style="stroke:#181818;stroke-width:1.0;" x1="226.5" x2="372" y1="229.8613" y2="229.8613"/><text fill="#000000" font-family="sans-serif" font-size="13" lengthAdjust="spacing" textLength="57" x="233.5" y="225.1191">32.0 ETH</text><polygon fill="#181818" points="510,255.1719,520,259.1719,510,263.1719,514,259.1719" style="stroke:#181818;stroke-width:1.0;"/><line style="stroke:#181818;stroke-width:1.0;" x1="378" x2="516" y1="259.1719" y2="259.1719"/><text fill="#000000" font-family="sans-serif" font-size="13" lengthAdjust="spacing" textLength="57" x="385" y="254.4297">32.0 ETH</text><polygon fill="#181818" points="647.5,284.4824,657.5,288.4824,647.5,292.4824,651.5,288.4824" style="stroke:#181818;stroke-width:1.0;"/><line style="stroke:#181818;stroke-width:1.0;" x1="522" x2="653.5" y1="288.4824" y2="288.4824"/><text fill="#000000" font-family="sans-serif" font-size="13" lengthAdjust="spacing" textLength="57" x="529" y="283.7402">32.0 ETH</text><path d="M29,301.4824 L29,326.4824 L115,326.4824 L115,311.4824 L105,301.4824 L29,301.4824 " fill="#00FFFF" style="stroke:#181818;stroke-width:0.5;"/><path d="M105,301.4824 L105,311.4824 L115,311.4824 L105,301.4824 " fill="#00FFFF" style="stroke:#181818;stroke-width:0.5;"/><text fill="#000000" font-family="sans-serif" font-size="13" lengthAdjust="spacing" textLength="65" x="35" y="319.0508">-32.0 ETH</text><path d="M178,301.4824 L178,326.4824 L275,326.4824 L275,311.4824 L265,301.4824 L178,301.4824 " fill="#00FFFF" style="stroke:#181818;stroke-width:0.5;"/><path d="M265,301.4824 L265,311.4824 L275,311.4824 L265,301.4824 " fill="#00FFFF" style="stroke:#181818;stroke-width:0.5;"/><text fill="#000000" font-family="sans-serif" font-size="13" lengthAdjust="spacing" textLength="76" x="184" y="319.0508">-32.0 WETH</text><path d="M615,301.4824 L615,326.4824 L703,326.4824 L703,311.4824 L693,301.4824 L615,301.4824 " fill="#00FFFF" style="stroke:#181818;stroke-width:0.5;"/><path d="M693,301.4824 L693,311.4824 L703,311.4824 L693,301.4824 " fill="#00FFFF" style="stroke:#181818;stroke-width:0.5;"/><text fill="#000000" font-family="sans-serif" font-size="13" lengthAdjust="spacing" textLength="67" x="621" y="319.0508">+32.0 ETH</text><!--SRC=[VL7BRjim4BppAnRkfKKjbQIUD0m1gUCs5nSv1D1vHLAs48TKPRPn_xwK33Dkd5GNSNPd5ZExhdDx3JDwB8GG6KzeMb8b4uOC6qLBnjkiQ4Kk55UquSh_qaPmmVoZaKaYHLwqgSYHpyYkKnfQQrrZZuH8x5rd3JnXPunsSsZsLZu24rdEqYoRmyQQEL06D_q0dF8KMBgWwIB9uFlcWVGuk4vsFHetkbjHZd6ShoIV0Hv0UfXBoM6vV1wmxxMAd7tKfggMo_fKWBNRwM4iVApN3tUVffP_YAfwFPoLB8zZIijY6Zx24VZXFwpIjtglj-ZiS2qKREs5DqbIJaB1T8uUUE6wssfpRzK63Mxr6zAK5oAETPBfIJh24NZfLutIcll17lzSowZ_lDNi6qwo4TAiHIyxF7bcv9LkGEd6jBUwjuVEhKB97-MyjwWACHS02Oyf-DsG43qwXXqleExSJWtuVEBL_nAh4FjoK5Y5xv-pNVP3Njy_XxZi4sAiqs1_w-7bs1_mvoyaKI1fes2a4V85NkZ1sYMzVfyVh9xuRvE2t_-HmZLEfC_NHly2]--></g></svg>