<?xml version="1.0" encoding="us-ascii" standalone="no"?><svg xmlns="http://www.w3.org/2000/svg" xmlns:xlink="http://www.w3.org/1999/xlink" contentStyleType="text/css" height="681px" preserveAspectRatio="none" style="width:1569px;height:681px;background:#FFFFFF;" version="1.1" viewBox="0 0 1569 681" width="1569px" zoomAndPan="magnify"><defs/><g><rect fill="none" height="215.7949" style="stroke:#000000;stroke-width:1.5;" width="626" x="10" y="102.9531"/><rect fill="none" height="215.7949" style="stroke:#000000;stroke-width:1.5;" width="1260" x="303" y="332.748"/><line style="stroke:#181818;stroke-width:0.5;stroke-dasharray:5.0,5.0;" x1="140.5" x2="140.5" y1="85.9531" y2="646.7852"/><line style="stroke:#181818;stroke-width:0.5;stroke-dasharray:5.0,5.0;" x1="433.5" x2="433.5" y1="85.9531" y2="646.7852"/><line style="stroke:#181818;stroke-width:0.5;stroke-dasharray:5.0,5.0;" x1="709" x2="709" y1="85.9531" y2="646.7852"/><line style="stroke:#181818;stroke-width:0.5;stroke-dasharray:5.0,5.0;" x1="954" x2="954" y1="85.9531" y2="646.7852"/><line style="stroke:#181818;stroke-width:0.5;stroke-dasharray:5.0,5.0;" x1="1204" x2="1204" y1="85.9531" y2="646.7852"/><line style="stroke:#181818;stroke-width:0.5;stroke-dasharray:5.0,5.0;" x1="1442.5" x2="1442.5" y1="85.9531" y2="646.7852"/><rect fill="#E2E2F0" height="63.4648" rx="2.5" ry="2.5" style="stroke:#181818;stroke-width:0.5;" width="135" x="73.5" y="21.4883"/><text fill="#000000" font-family="sans-serif" font-size="14" font-style="italic" lengthAdjust="spacing" textLength="103" x="89.5" y="42.0234">&#171;Prime Staked&#187;</text><text fill="#000000" font-family="sans-serif" font-size="14" font-style="italic" lengthAdjust="spacing" textLength="121" x="80.5" y="58.5117">&#171;LRTDepositPool&#187;</text><text fill="#000000" font-family="sans-serif" font-size="14" lengthAdjust="spacing" textLength="99" x="91.5" y="75">0xA479..8d32</text><rect fill="#E2E2F0" height="63.4648" rx="2.5" ry="2.5" style="stroke:#181818;stroke-width:0.5;" width="131" x="368.5" y="21.4883"/><text fill="#000000" font-family="sans-serif" font-size="14" font-style="italic" lengthAdjust="spacing" textLength="103" x="382.5" y="42.0234">&#171;Prime Staked&#187;</text><text fill="#000000" font-family="sans-serif" font-size="14" font-style="italic" lengthAdjust="spacing" textLength="117" x="375.5" y="58.5117">&#171;NodeDelegator&#187;</text><text fill="#000000" font-family="sans-serif" font-size="14" lengthAdjust="spacing" textLength="94" x="387" y="75">0x8bBB..4aE2</text><rect fill="#E2E2F0" height="79.9531" rx="2.5" ry="2.5" style="stroke:#181818;stroke-width:0.5;" width="180" x="619" y="5"/><text fill="#000000" font-family="sans-serif" font-size="14" font-style="italic" lengthAdjust="spacing" textLength="88" x="665" y="25.5352">&#171;EigenLayer&#187;</text><text fill="#000000" font-family="sans-serif" font-size="14" font-style="italic" lengthAdjust="spacing" textLength="62" x="678" y="42.0234">&#171;(OETH)&#187;</text><text fill="#000000" font-family="sans-serif" font-size="14" font-style="italic" lengthAdjust="spacing" textLength="166" x="626" y="58.5117">&#171;StrategyBaseTVLLimits&#187;</text><text fill="#000000" font-family="sans-serif" font-size="14" lengthAdjust="spacing" textLength="98" x="660" y="75">0xa4C6..d059</text><rect fill="#E2E2F0" height="79.9531" rx="2.5" ry="2.5" style="stroke:#181818;stroke-width:0.5;" width="180" x="864" y="5"/><text fill="#000000" font-family="sans-serif" font-size="14" font-style="italic" lengthAdjust="spacing" textLength="88" x="910" y="25.5352">&#171;EigenLayer&#187;</text><text fill="#000000" font-family="sans-serif" font-size="14" font-style="italic" lengthAdjust="spacing" textLength="64" x="922" y="42.0234">&#171;(mETH)&#187;</text><text fill="#000000" font-family="sans-serif" font-size="14" font-style="italic" lengthAdjust="spacing" textLength="166" x="871" y="58.5117">&#171;StrategyBaseTVLLimits&#187;</text><text fill="#000000" font-family="sans-serif" font-size="14" lengthAdjust="spacing" textLength="97" x="905.5" y="75">0x298a..6dd2</text><rect fill="#E2E2F0" height="79.9531" rx="2.5" ry="2.5" style="stroke:#181818;stroke-width:0.5;" width="180" x="1114" y="5"/><text fill="#000000" font-family="sans-serif" font-size="14" font-style="italic" lengthAdjust="spacing" textLength="88" x="1160" y="25.5352">&#171;EigenLayer&#187;</text><text fill="#000000" font-family="sans-serif" font-size="14" font-style="italic" lengthAdjust="spacing" textLength="63" x="1172.5" y="42.0234">&#171;(stETH)&#187;</text><text fill="#000000" font-family="sans-serif" font-size="14" font-style="italic" lengthAdjust="spacing" textLength="166" x="1121" y="58.5117">&#171;StrategyBaseTVLLimits&#187;</text><text fill="#000000" font-family="sans-serif" font-size="14" lengthAdjust="spacing" textLength="97" x="1155.5" y="75">0x93c4..564D</text><rect fill="#E2E2F0" height="79.9531" rx="2.5" ry="2.5" style="stroke:#181818;stroke-width:0.5;" width="180" x="1352.5" y="5"/><text fill="#000000" font-family="sans-serif" font-size="14" font-style="italic" lengthAdjust="spacing" textLength="88" x="1398.5" y="25.5352">&#171;EigenLayer&#187;</text><text fill="#000000" font-family="sans-serif" font-size="14" font-style="italic" lengthAdjust="spacing" textLength="57" x="1414" y="42.0234">&#171;(rETH)&#187;</text><text fill="#000000" font-family="sans-serif" font-size="14" font-style="italic" lengthAdjust="spacing" textLength="166" x="1359.5" y="58.5117">&#171;StrategyBaseTVLLimits&#187;</text><text fill="#000000" font-family="sans-serif" font-size="14" lengthAdjust="spacing" textLength="97" x="1394" y="75">0x1BeE..dCD2</text><path d="M10,102.9531 L631,102.9531 L631,110.2637 L621,120.2637 L10,120.2637 L10,102.9531 " fill="#EEEEEE" style="stroke:#000000;stroke-width:1.5;"/><rect fill="none" height="215.7949" style="stroke:#000000;stroke-width:1.5;" width="626" x="10" y="102.9531"/><text fill="#000000" font-family="sans-serif" font-size="13" font-weight="bold" lengthAdjust="spacing" textLength="576" x="25" y="116.5215">0x7d1e4958d23c06af4169652077189425124da327c26d183f189cbd65723d3181</text><polygon fill="#181818" points="422,137.5742,432,141.5742,422,145.5742,426,141.5742" style="stroke:#181818;stroke-width:1.0;"/><line style="stroke:#181818;stroke-width:1.0;" x1="141" x2="428" y1="141.5742" y2="141.5742"/><text fill="#000000" font-family="sans-serif" font-size="13" lengthAdjust="spacing" textLength="251" x="148" y="136.832">Transfer 2.721322872839895843 OETH</text><polygon fill="#181818" points="422,166.8848,432,170.8848,422,174.8848,426,170.8848" style="stroke:#181818;stroke-width:1.0;"/><line style="stroke:#181818;stroke-width:1.0;" x1="141" x2="428" y1="170.8848" y2="170.8848"/><text fill="#000000" font-family="sans-serif" font-size="13" lengthAdjust="spacing" textLength="269" x="148" y="166.1426">Transfer 139.881548310805216648 mETH</text><polygon fill="#181818" points="422,196.1953,432,200.1953,422,204.1953,426,200.1953" style="stroke:#181818;stroke-width:1.0;"/><line style="stroke:#181818;stroke-width:1.0;" x1="141" x2="428" y1="200.1953" y2="200.1953"/><text fill="#000000" font-family="sans-serif" font-size="13" lengthAdjust="spacing" textLength="261" x="148" y="195.4531">Transfer 14.380120308640823961 stETH</text><polygon fill="#181818" points="422,225.5059,432,229.5059,422,233.5059,426,229.5059" style="stroke:#181818;stroke-width:1.0;"/><line style="stroke:#181818;stroke-width:1.0;" x1="141" x2="428" y1="229.5059" y2="229.5059"/><text fill="#000000" font-family="sans-serif" font-size="13" lengthAdjust="spacing" textLength="238" x="148" y="224.7637">Transfer 8.15361289232211388 rETH</text><path d="M20,242.5059 L20,313.5059 L262,313.5059 L262,252.5059 L252,242.5059 L20,242.5059 " fill="#00FFFF" style="stroke:#181818;stroke-width:0.5;"/><path d="M252,242.5059 L252,252.5059 L262,252.5059 L252,242.5059 " fill="#00FFFF" style="stroke:#181818;stroke-width:0.5;"/><text fill="#000000" font-family="sans-serif" font-size="13" lengthAdjust="spacing" textLength="203" x="26" y="260.0742">-2.721322872839895843 OETH</text><text fill="#000000" font-family="sans-serif" font-size="13" lengthAdjust="spacing" textLength="221" x="26" y="275.3848">-139.881548310805216648 mETH</text><text fill="#000000" font-family="sans-serif" font-size="13" lengthAdjust="spacing" textLength="213" x="26" y="290.6953">-14.380120308640823961 stETH</text><text fill="#000000" font-family="sans-serif" font-size="13" lengthAdjust="spacing" textLength="190" x="26" y="306.0059">-8.15361289232211388 rETH</text><path d="M312,242.5059 L312,313.5059 L556,313.5059 L556,252.5059 L546,242.5059 L312,242.5059 " fill="#00FFFF" style="stroke:#181818;stroke-width:0.5;"/><path d="M546,242.5059 L546,252.5059 L556,252.5059 L546,242.5059 " fill="#00FFFF" style="stroke:#181818;stroke-width:0.5;"/><text fill="#000000" font-family="sans-serif" font-size="13" lengthAdjust="spacing" textLength="205" x="318" y="260.0742">+2.721322872839895843 OETH</text><text fill="#000000" font-family="sans-serif" font-size="13" lengthAdjust="spacing" textLength="223" x="318" y="275.3848">+139.881548310805216648 mETH</text><text fill="#000000" font-family="sans-serif" font-size="13" lengthAdjust="spacing" textLength="215" x="318" y="290.6953">+14.380120308640823961 stETH</text><text fill="#000000" font-family="sans-serif" font-size="13" lengthAdjust="spacing" textLength="192" x="318" y="306.0059">+8.15361289232211388 rETH</text><path d="M303,332.748 L909,332.748 L909,340.0586 L899,350.0586 L303,350.0586 L303,332.748 " fill="#EEEEEE" style="stroke:#000000;stroke-width:1.5;"/><rect fill="none" height="215.7949" style="stroke:#000000;stroke-width:1.5;" width="1260" x="303" y="332.748"/><text fill="#000000" font-family="sans-serif" font-size="13" font-weight="bold" lengthAdjust="spacing" textLength="561" x="318" y="346.3164">0x741d167a0d5065efce9a61621d61ee71b7d8b8e748f81f803d90490ebc4f7f6b</text><polygon fill="#181818" points="697,367.3691,707,371.3691,697,375.3691,701,371.3691" style="stroke:#181818;stroke-width:1.0;"/><line style="stroke:#181818;stroke-width:1.0;" x1="434" x2="703" y1="371.3691" y2="371.3691"/><text fill="#000000" font-family="sans-serif" font-size="13" lengthAdjust="spacing" textLength="251" x="441" y="366.627">Transfer 2.721322872839895843 OETH</text><polygon fill="#181818" points="942,396.6797,952,400.6797,942,404.6797,946,400.6797" style="stroke:#181818;stroke-width:1.0;"/><line style="stroke:#181818;stroke-width:1.0;" x1="434" x2="948" y1="400.6797" y2="400.6797"/><text fill="#000000" font-family="sans-serif" font-size="13" lengthAdjust="spacing" textLength="269" x="441" y="395.9375">Transfer 139.924278635035225753 mETH</text><polygon fill="#181818" points="1192,425.9902,1202,429.9902,1192,433.9902,1196,429.9902" style="stroke:#181818;stroke-width:1.0;"/><line style="stroke:#181818;stroke-width:1.0;" x1="434" x2="1198" y1="429.9902" y2="429.9902"/><text fill="#000000" font-family="sans-serif" font-size="13" lengthAdjust="spacing" textLength="261" x="441" y="425.248">Transfer 14.380120308640823961 stETH</text><polygon fill="#181818" points="1430.5,455.3008,1440.5,459.3008,1430.5,463.3008,1434.5,459.3008" style="stroke:#181818;stroke-width:1.0;"/><line style="stroke:#181818;stroke-width:1.0;" x1="434" x2="1436.5" y1="459.3008" y2="459.3008"/><text fill="#000000" font-family="sans-serif" font-size="13" lengthAdjust="spacing" textLength="246" x="441" y="454.5586">Transfer 8.155902611902874664 rETH</text><path d="M313,472.3008 L313,543.3008 L555,543.3008 L555,482.3008 L545,472.3008 L313,472.3008 " fill="#00FFFF" style="stroke:#181818;stroke-width:0.5;"/><path d="M545,472.3008 L545,482.3008 L555,482.3008 L545,472.3008 " fill="#00FFFF" style="stroke:#181818;stroke-width:0.5;"/><text fill="#000000" font-family="sans-serif" font-size="13" lengthAdjust="spacing" textLength="203" x="319" y="489.8691">-2.721322872839895843 OETH</text><text fill="#000000" font-family="sans-serif" font-size="13" lengthAdjust="spacing" textLength="221" x="319" y="505.1797">-139.924278635035225753 mETH</text><text fill="#000000" font-family="sans-serif" font-size="13" lengthAdjust="spacing" textLength="213" x="319" y="520.4902">-14.380120308640823961 stETH</text><text fill="#000000" font-family="sans-serif" font-size="13" lengthAdjust="spacing" textLength="198" x="319" y="535.8008">-8.155902611902874664 rETH</text><path d="M596,472.3008 L596,497.3008 L822,497.3008 L822,482.3008 L812,472.3008 L596,472.3008 " fill="#00FFFF" style="stroke:#181818;stroke-width:0.5;"/><path d="M812,472.3008 L812,482.3008 L822,482.3008 L812,472.3008 " fill="#00FFFF" style="stroke:#181818;stroke-width:0.5;"/><text fill="#000000" font-family="sans-serif" font-size="13" lengthAdjust="spacing" textLength="205" x="602" y="489.8691">+2.721322872839895843 OETH</text><path d="M832,472.3008 L832,497.3008 L1076,497.3008 L1076,482.3008 L1066,472.3008 L832,472.3008 " fill="#00FFFF" style="stroke:#181818;stroke-width:0.5;"/><path d="M1066,472.3008 L1066,482.3008 L1076,482.3008 L1066,472.3008 " fill="#00FFFF" style="stroke:#181818;stroke-width:0.5;"/><text fill="#000000" font-family="sans-serif" font-size="13" lengthAdjust="spacing" textLength="223" x="838" y="489.8691">+139.924278635035225753 mETH</text><path d="M1086,472.3008 L1086,497.3008 L1322,497.3008 L1322,482.3008 L1312,472.3008 L1086,472.3008 " fill="#00FFFF" style="stroke:#181818;stroke-width:0.5;"/><path d="M1312,472.3008 L1312,482.3008 L1322,482.3008 L1312,472.3008 " fill="#00FFFF" style="stroke:#181818;stroke-width:0.5;"/><text fill="#000000" font-family="sans-serif" font-size="13" lengthAdjust="spacing" textLength="215" x="1092" y="489.8691">+14.380120308640823961 stETH</text><path d="M1332,472.3008 L1332,497.3008 L1553,497.3008 L1553,482.3008 L1543,472.3008 L1332,472.3008 " fill="#00FFFF" style="stroke:#181818;stroke-width:0.5;"/><path d="M1543,472.3008 L1543,482.3008 L1553,482.3008 L1543,472.3008 " fill="#00FFFF" style="stroke:#181818;stroke-width:0.5;"/><text fill="#000000" font-family="sans-serif" font-size="13" lengthAdjust="spacing" textLength="200" x="1338" y="489.8691">+8.155902611902874664 rETH</text><path d="M20,560.543 L20,631.543 L262,631.543 L262,570.543 L252,560.543 L20,560.543 " fill="#00FFFF" style="stroke:#181818;stroke-width:0.5;"/><path d="M252,560.543 L252,570.543 L262,570.543 L252,560.543 " fill="#00FFFF" style="stroke:#181818;stroke-width:0.5;"/><text fill="#000000" font-family="sans-serif" font-size="13" lengthAdjust="spacing" textLength="203" x="26" y="578.1113">-2.721322872839895843 OETH</text><text fill="#000000" font-family="sans-serif" font-size="13" lengthAdjust="spacing" textLength="221" x="26" y="593.4219">-139.881548310805216648 mETH</text><text fill="#000000" font-family="sans-serif" font-size="13" lengthAdjust="spacing" textLength="213" x="26" y="608.7324">-14.380120308640823961 stETH</text><text fill="#000000" font-family="sans-serif" font-size="13" lengthAdjust="spacing" textLength="190" x="26" y="624.043">-8.15361289232211388 rETH</text><path d="M321,560.543 L321,600.543 L547,600.543 L547,570.543 L537,560.543 L321,560.543 " fill="#00FFFF" style="stroke:#181818;stroke-width:0.5;"/><path d="M537,560.543 L537,570.543 L547,570.543 L537,560.543 " fill="#00FFFF" style="stroke:#181818;stroke-width:0.5;"/><text fill="#000000" font-family="sans-serif" font-size="13" lengthAdjust="spacing" textLength="205" x="327" y="578.1113">-0.042730324230009105 mETH</text><text fill="#000000" font-family="sans-serif" font-size="13" lengthAdjust="spacing" textLength="198" x="327" y="593.4219">-0.002289719580760784 rETH</text><path d="M596,560.543 L596,585.543 L822,585.543 L822,570.543 L812,560.543 L596,560.543 " fill="#00FFFF" style="stroke:#181818;stroke-width:0.5;"/><path d="M812,560.543 L812,570.543 L822,570.543 L812,560.543 " fill="#00FFFF" style="stroke:#181818;stroke-width:0.5;"/><text fill="#000000" font-family="sans-serif" font-size="13" lengthAdjust="spacing" textLength="205" x="602" y="578.1113">+2.721322872839895843 OETH</text><path d="M832,560.543 L832,585.543 L1076,585.543 L1076,570.543 L1066,560.543 L832,560.543 " fill="#00FFFF" style="stroke:#181818;stroke-width:0.5;"/><path d="M1066,560.543 L1066,570.543 L1076,570.543 L1066,560.543 " fill="#00FFFF" style="stroke:#181818;stroke-width:0.5;"/><text fill="#000000" font-family="sans-serif" font-size="13" lengthAdjust="spacing" textLength="223" x="838" y="578.1113">+139.924278635035225753 mETH</text><path d="M1086,560.543 L1086,585.543 L1322,585.543 L1322,570.543 L1312,560.543 L1086,560.543 " fill="#00FFFF" style="stroke:#181818;stroke-width:0.5;"/><path d="M1312,560.543 L1312,570.543 L1322,570.543 L1312,560.543 " fill="#00FFFF" style="stroke:#181818;stroke-width:0.5;"/><text fill="#000000" font-family="sans-serif" font-size="13" lengthAdjust="spacing" textLength="215" x="1092" y="578.1113">+14.380120308640823961 stETH</text><path d="M1332,560.543 L1332,585.543 L1553,585.543 L1553,570.543 L1543,560.543 L1332,560.543 " fill="#00FFFF" style="stroke:#181818;stroke-width:0.5;"/><path d="M1543,560.543 L1543,570.543 L1553,570.543 L1543,560.543 " fill="#00FFFF" style="stroke:#181818;stroke-width:0.5;"/><text fill="#000000" font-family="sans-serif" font-size="13" lengthAdjust="spacing" textLength="200" x="1338" y="578.1113">+8.155902611902874664 rETH</text><text fill="#888888" font-family="sans-serif" font-size="10" lengthAdjust="spacing" textLength="282" x="645" y="647.4531">mainnet, block 19180791, Thu, 08 Feb 2024 03:32:47 GMT</text><text fill="#888888" font-family="sans-serif" font-size="10" lengthAdjust="spacing" textLength="282" x="645" y="659.2305">mainnet, block 19180792, Thu, 08 Feb 2024 03:32:59 GMT</text><text fill="#888888" font-family="sans-serif" font-size="10" lengthAdjust="spacing" textLength="3" x="784.5" y="671.0078">&#160;</text><!--SRC=[xLHDJzj04BtxLwpefHN4dTdFMHH5Qe2sXxH59UfzxLs31ObJnrJmxxicYK7aasEbNcoFxVVspSoRkIbzO4LLDLdraBJtK2SJLqwdeJbXsLsLtpAqI60idh3npVq90sAVGyOuSCb0d0f-AWtxycsy1SQtmfHzWYLXwfS7prpTb7avSzE67S739sbicf8N_8YvENCnR0FMxr_MvIImgyRT1ZyOzFkZd-FpCAlcPNDPLNU3mMicoeR3D9NkOi54MPP95pOnVQzyE0ztuTerLRrEvEIPJbCFoYubvReD8j55UHsc8_SOwfRc_O-ByTSFxTDLKxicN3yEtJoCVur6vQHivkl4t99BK-tzGc4Rji4wyUIDn5RaCasLbkTFn6qO0xzEF6_Uo8p3S15hSNQ-a8nP23xV9BdUHvnSrzNzZC63yHYaLUIvo46xGgAsMd4m1ibAhf1BxmGtETSUIHJnRPvvhGmNNY1XqdcaD-YwVCh6jPlEYr0pdXgEWdCod8IbU98Kh6tLFY0AcnAXaYGG21H7hIMnoI5GcGe2v220j0JYmcfaJzNU1wKKbT38oV8e6b4GiRQOIP9Cuy2mwa_ygUDuvtxVkwItFSVUhYnwktJsjYg9myjQBKdoaJrhwWPieUbukwRZNPgETsawFa1JV7hsbaIFsZZm2hGAHHwiqwWvUeqX6CoCfuo2aLGG5WJ2Mv0MGfRBmXGwIxgaOhDMWt-Gjru2LuFzobkMIsv82mL2SQwC4eiAl8IkHlT0Rxs4hcRpbRUK1QuHuvMCZ6LVDzUhHkuprxOqzfjhivJDxkgsxbvtRSPtotM9twLyCqEtHLSCEzBRpD1jooN38JLetVnl3NuFKeXr5I1YUGK0M0IrF3P-WYZM6enAmMWmzB_hwrt_2m00]--></g></svg>