<?xml version="1.0" encoding="us-ascii" standalone="no"?><svg xmlns="http://www.w3.org/2000/svg" xmlns:xlink="http://www.w3.org/1999/xlink" contentStyleType="text/css" height="1518px" preserveAspectRatio="none" style="width:1622px;height:1518px;background:#FFFFFF;" version="1.1" viewBox="0 0 1622 1518" width="1622px" zoomAndPan="magnify"><defs/><g><text fill="#000000" font-family="sans-serif" font-size="14" font-weight="bold" lengthAdjust="spacing" textLength="571" x="524.5" y="28.5352">0xfa778085646ab15552a91df4d22bd86a730e9f37dda5f1b5760e7ec28b305002</text><text fill="#000000" font-family="sans-serif" font-size="14" lengthAdjust="spacing" textLength="406" x="607" y="1506.252">mainnet, block 18923412, Wed, 03 Jan 2024 00:57:59 GMT</text><rect fill="#FFFFFF" height="917.7324" style="stroke:#181818;stroke-width:1.0;" width="10" x="386.5" y="343.168"/><rect fill="#809ECB" height="762.5586" style="stroke:#181818;stroke-width:1.0;" width="10" x="671.5" y="433.7207"/><rect fill="#FFFFFF" height="133.8633" style="stroke:#181818;stroke-width:1.0;" width="10" x="868.5" y="508.9629"/><rect fill="#FFFFFF" height="118.5527" style="stroke:#181818;stroke-width:1.0;" width="10" x="868.5" y="753.3789"/><rect fill="#809ECB" height="29.3105" style="stroke:#181818;stroke-width:1.0;" width="10" x="1086.5" y="584.2051"/><rect fill="#809ECB" height="29.3105" style="stroke:#181818;stroke-width:1.0;" width="10" x="1086.5" y="813.3105"/><rect fill="#FFFFFF" height="133.8633" style="stroke:#181818;stroke-width:1.0;" width="10" x="1271" y="997.7949"/><rect fill="#809ECB" height="29.3105" style="stroke:#181818;stroke-width:1.0;" width="10" x="1556" y="1073.0371"/><line style="stroke:#181818;stroke-width:0.5;stroke-dasharray:5.0,5.0;" x1="111" x2="111" y1="123.4414" y2="1410.7637"/><line style="stroke:#181818;stroke-width:0.5;stroke-dasharray:5.0,5.0;" x1="391" x2="391" y1="123.4414" y2="1410.7637"/><line style="stroke:#181818;stroke-width:0.5;stroke-dasharray:5.0,5.0;" x1="676" x2="676" y1="123.4414" y2="1410.7637"/><line style="stroke:#181818;stroke-width:0.5;stroke-dasharray:5.0,5.0;" x1="873" x2="873" y1="123.4414" y2="1410.7637"/><line style="stroke:#181818;stroke-width:0.5;stroke-dasharray:5.0,5.0;" x1="1091.5" x2="1091.5" y1="123.4414" y2="1410.7637"/><line style="stroke:#181818;stroke-width:0.5;stroke-dasharray:5.0,5.0;" x1="1275.5" x2="1275.5" y1="123.4414" y2="1410.7637"/><line style="stroke:#181818;stroke-width:0.5;stroke-dasharray:5.0,5.0;" x1="1561" x2="1561" y1="123.4414" y2="1410.7637"/><text fill="#000000" font-family="sans-serif" font-size="14" lengthAdjust="spacing" textLength="91" x="63" y="120.4883">0x7aad..af47</text><ellipse cx="111.5" cy="55.4531" fill="#E2E2F0" rx="8" ry="8" style="stroke:#181818;stroke-width:0.5;"/><path d="M111.5,63.4531 L111.5,90.4531 M98.5,71.4531 L124.5,71.4531 M111.5,90.4531 L98.5,105.4531 M111.5,90.4531 L124.5,105.4531 " fill="none" style="stroke:#181818;stroke-width:0.5;"/><text fill="#000000" font-family="sans-serif" font-size="14" lengthAdjust="spacing" textLength="91" x="63" y="1423.2988">0x7aad..af47</text><ellipse cx="111.5" cy="1434.752" fill="#E2E2F0" rx="8" ry="8" style="stroke:#181818;stroke-width:0.5;"/><path d="M111.5,1442.752 L111.5,1469.752 M98.5,1450.752 L124.5,1450.752 M111.5,1469.752 L98.5,1484.752 M111.5,1469.752 L124.5,1484.752 " fill="none" style="stroke:#181818;stroke-width:0.5;"/><rect fill="#E2E2F0" height="46.9766" rx="2.5" ry="2.5" style="stroke:#181818;stroke-width:0.5;" width="239" x="272" y="75.4648"/><text fill="#000000" font-family="sans-serif" font-size="14" font-style="italic" lengthAdjust="spacing" textLength="225" x="279" y="96">&#171;TransparentUpgradeableProxy&#187;</text><text fill="#000000" font-family="sans-serif" font-size="14" lengthAdjust="spacing" textLength="98" x="342.5" y="112.4883">0x0366..375d</text><rect fill="#E2E2F0" height="46.9766" rx="2.5" ry="2.5" style="stroke:#181818;stroke-width:0.5;" width="239" x="272" y="1409.7637"/><text fill="#000000" font-family="sans-serif" font-size="14" font-style="italic" lengthAdjust="spacing" textLength="225" x="279" y="1430.2988">&#171;TransparentUpgradeableProxy&#187;</text><text fill="#000000" font-family="sans-serif" font-size="14" lengthAdjust="spacing" textLength="98" x="342.5" y="1446.7871">0x0366..375d</text><rect fill="#E2E2F0" height="46.9766" rx="2.5" ry="2.5" style="stroke:#181818;stroke-width:0.5;" width="135" x="609" y="75.4648"/><text fill="#000000" font-family="sans-serif" font-size="14" font-style="italic" lengthAdjust="spacing" textLength="121" x="616" y="96">&#171;LRTDepositPool&#187;</text><text fill="#000000" font-family="sans-serif" font-size="14" lengthAdjust="spacing" textLength="93" x="630" y="112.4883">0x2ad4..b3f7</text><rect fill="#E2E2F0" height="46.9766" rx="2.5" ry="2.5" style="stroke:#181818;stroke-width:0.5;" width="135" x="609" y="1409.7637"/><text fill="#000000" font-family="sans-serif" font-size="14" font-style="italic" lengthAdjust="spacing" textLength="121" x="616" y="1430.2988">&#171;LRTDepositPool&#187;</text><text fill="#000000" font-family="sans-serif" font-size="14" lengthAdjust="spacing" textLength="93" x="630" y="1446.7871">0x2ad4..b3f7</text><rect fill="#E2E2F0" height="46.9766" rx="2.5" ry="2.5" style="stroke:#181818;stroke-width:0.5;" width="239" x="754" y="75.4648"/><text fill="#000000" font-family="sans-serif" font-size="14" font-style="italic" lengthAdjust="spacing" textLength="225" x="761" y="96">&#171;TransparentUpgradeableProxy&#187;</text><text fill="#000000" font-family="sans-serif" font-size="14" lengthAdjust="spacing" textLength="93" x="827" y="112.4883">0x947c..5ec7</text><rect fill="#E2E2F0" height="46.9766" rx="2.5" ry="2.5" style="stroke:#181818;stroke-width:0.5;" width="239" x="754" y="1409.7637"/><text fill="#000000" font-family="sans-serif" font-size="14" font-style="italic" lengthAdjust="spacing" textLength="225" x="761" y="1430.2988">&#171;TransparentUpgradeableProxy&#187;</text><text fill="#000000" font-family="sans-serif" font-size="14" lengthAdjust="spacing" textLength="93" x="827" y="1446.7871">0x947c..5ec7</text><rect fill="#E2E2F0" height="46.9766" rx="2.5" ry="2.5" style="stroke:#181818;stroke-width:0.5;" width="110" x="1036.5" y="75.4648"/><text fill="#000000" font-family="sans-serif" font-size="14" font-style="italic" lengthAdjust="spacing" textLength="85" x="1049" y="96">&#171;LRTConfig&#187;</text><text fill="#000000" font-family="sans-serif" font-size="14" lengthAdjust="spacing" textLength="96" x="1043.5" y="112.4883">0x8d9c..6594</text><rect fill="#E2E2F0" height="46.9766" rx="2.5" ry="2.5" style="stroke:#181818;stroke-width:0.5;" width="110" x="1036.5" y="1409.7637"/><text fill="#000000" font-family="sans-serif" font-size="14" font-style="italic" lengthAdjust="spacing" textLength="85" x="1049" y="1430.2988">&#171;LRTConfig&#187;</text><text fill="#000000" font-family="sans-serif" font-size="14" lengthAdjust="spacing" textLength="96" x="1043.5" y="1446.7871">0x8d9c..6594</text><rect fill="#E2E2F0" height="79.9531" rx="2.5" ry="2.5" style="stroke:#181818;stroke-width:0.5;" width="239" x="1156.5" y="42.4883"/><text fill="#000000" font-family="sans-serif" font-size="14" font-style="italic" lengthAdjust="spacing" textLength="50" x="1251" y="63.0234">&#171;ETHx&#187;</text><text fill="#000000" font-family="sans-serif" font-size="14" font-style="italic" lengthAdjust="spacing" textLength="60" x="1246" y="79.5117">&#171;(ETHx)&#187;</text><text fill="#000000" font-family="sans-serif" font-size="14" font-style="italic" lengthAdjust="spacing" textLength="225" x="1163.5" y="96">&#171;TransparentUpgradeableProxy&#187;</text><text fill="#000000" font-family="sans-serif" font-size="14" lengthAdjust="spacing" textLength="96" x="1228" y="112.4883">0xa35b..a15b</text><rect fill="#E2E2F0" height="79.9531" rx="2.5" ry="2.5" style="stroke:#181818;stroke-width:0.5;" width="239" x="1156.5" y="1409.7637"/><text fill="#000000" font-family="sans-serif" font-size="14" font-style="italic" lengthAdjust="spacing" textLength="50" x="1251" y="1430.2988">&#171;ETHx&#187;</text><text fill="#000000" font-family="sans-serif" font-size="14" font-style="italic" lengthAdjust="spacing" textLength="60" x="1246" y="1446.7871">&#171;(ETHx)&#187;</text><text fill="#000000" font-family="sans-serif" font-size="14" font-style="italic" lengthAdjust="spacing" textLength="225" x="1163.5" y="1463.2754">&#171;TransparentUpgradeableProxy&#187;</text><text fill="#000000" font-family="sans-serif" font-size="14" lengthAdjust="spacing" textLength="96" x="1228" y="1479.7637">0xa35b..a15b</text><rect fill="#E2E2F0" height="46.9766" rx="2.5" ry="2.5" style="stroke:#181818;stroke-width:0.5;" width="110" x="1506" y="75.4648"/><text fill="#000000" font-family="sans-serif" font-size="14" font-style="italic" lengthAdjust="spacing" textLength="50" x="1536" y="96">&#171;ETHx&#187;</text><text fill="#000000" font-family="sans-serif" font-size="14" lengthAdjust="spacing" textLength="96" x="1513" y="112.4883">0x4c22..3358</text><rect fill="#E2E2F0" height="46.9766" rx="2.5" ry="2.5" style="stroke:#181818;stroke-width:0.5;" width="110" x="1506" y="1409.7637"/><text fill="#000000" font-family="sans-serif" font-size="14" font-style="italic" lengthAdjust="spacing" textLength="50" x="1536" y="1430.2988">&#171;ETHx&#187;</text><text fill="#000000" font-family="sans-serif" font-size="14" lengthAdjust="spacing" textLength="96" x="1513" y="1446.7871">0x4c22..3358</text><rect fill="#FFFFFF" height="917.7324" style="stroke:#181818;stroke-width:1.0;" width="10" x="386.5" y="343.168"/><rect fill="#809ECB" height="762.5586" style="stroke:#181818;stroke-width:1.0;" width="10" x="671.5" y="433.7207"/><rect fill="#FFFFFF" height="133.8633" style="stroke:#181818;stroke-width:1.0;" width="10" x="868.5" y="508.9629"/><rect fill="#FFFFFF" height="118.5527" style="stroke:#181818;stroke-width:1.0;" width="10" x="868.5" y="753.3789"/><rect fill="#809ECB" height="29.3105" style="stroke:#181818;stroke-width:1.0;" width="10" x="1086.5" y="584.2051"/><rect fill="#809ECB" height="29.3105" style="stroke:#181818;stroke-width:1.0;" width="10" x="1086.5" y="813.3105"/><rect fill="#FFFFFF" height="133.8633" style="stroke:#181818;stroke-width:1.0;" width="10" x="1271" y="997.7949"/><rect fill="#809ECB" height="29.3105" style="stroke:#181818;stroke-width:1.0;" width="10" x="1556" y="1073.0371"/><path d="M5,138.4414 L5,255.4414 L219,255.4414 L219,148.4414 L209,138.4414 L5,138.4414 " fill="#FEFFDD" style="stroke:#181818;stroke-width:0.5;"/><path d="M209,138.4414 L209,148.4414 L219,148.4414 L209,138.4414 " fill="#FEFFDD" style="stroke:#181818;stroke-width:0.5;"/><text fill="#000000" font-family="sans-serif" font-size="13" lengthAdjust="spacing" textLength="72" x="11" y="156.0098">Nonce: 244</text><text fill="#000000" font-family="sans-serif" font-size="13" lengthAdjust="spacing" textLength="191" x="11" y="171.3203">Gas Price: 15.615200581 Gwei</text><text fill="#000000" font-family="sans-serif" font-size="13" lengthAdjust="spacing" textLength="193" x="11" y="186.6309">Max Fee: 132.427659493 Gwei</text><text fill="#000000" font-family="sans-serif" font-size="13" lengthAdjust="spacing" textLength="137" x="11" y="201.9414">Max Priority: 2.0 Gwei</text><text fill="#000000" font-family="sans-serif" font-size="13" lengthAdjust="spacing" textLength="119" x="11" y="217.252">Gas Limit: 153,879</text><text fill="#000000" font-family="sans-serif" font-size="13" lengthAdjust="spacing" textLength="110" x="11" y="232.5625">Gas Used: 96,493</text><text fill="#000000" font-family="sans-serif" font-size="13" lengthAdjust="spacing" textLength="114" x="11" y="247.873">Tx Fee: 0.002 ETH</text><polygon fill="#181818" points="374.5,339.168,384.5,343.168,374.5,347.168,378.5,343.168" style="stroke:#181818;stroke-width:1.0;"/><line style="stroke:#181818;stroke-width:1.0;stroke-dasharray:2.0,2.0;" x1="111.5" x2="380.5" y1="343.168" y2="343.168"/><text fill="#000000" font-family="sans-serif" font-size="13" lengthAdjust="spacing" textLength="198" x="118.5" y="277.1836">transferAssetToNodeDelegator(</text><text fill="#000000" font-family="sans-serif" font-size="13" lengthAdjust="spacing" textLength="78" x="126.5" y="292.4941">ndcIndex: 2,</text><text fill="#000000" font-family="sans-serif" font-size="13" lengthAdjust="spacing" textLength="135" x="126.5" y="307.8047">asset: 0xA35b..A15b,</text><text fill="#000000" font-family="sans-serif" font-size="13" lengthAdjust="spacing" textLength="248" x="126.5" y="323.1152">amount: 11,,058,100,000,000,000,000)</text><text fill="#000000" font-family="sans-serif" font-size="13" lengthAdjust="spacing" textLength="70" x="118.5" y="338.4258">96,493 gas</text><line style="stroke:#181818;stroke-width:1.0;" x1="669.5" x2="659.5" y1="433.7207" y2="429.7207"/><line style="stroke:#181818;stroke-width:1.0;" x1="669.5" x2="659.5" y1="433.7207" y2="437.7207"/><line style="stroke:#181818;stroke-width:1.0;" x1="396.5" x2="670.5" y1="433.7207" y2="433.7207"/><text fill="#000000" font-family="sans-serif" font-size="13" lengthAdjust="spacing" textLength="198" x="403.5" y="367.7363">transferAssetToNodeDelegator(</text><text fill="#000000" font-family="sans-serif" font-size="13" lengthAdjust="spacing" textLength="78" x="411.5" y="383.0469">ndcIndex: 2,</text><text fill="#000000" font-family="sans-serif" font-size="13" lengthAdjust="spacing" textLength="135" x="411.5" y="398.3574">asset: 0xA35b..A15b,</text><text fill="#000000" font-family="sans-serif" font-size="13" lengthAdjust="spacing" textLength="248" x="411.5" y="413.668">amount: 11,,058,100,000,000,000,000)</text><text fill="#000000" font-family="sans-serif" font-size="13" lengthAdjust="spacing" textLength="70" x="403.5" y="428.9785">70,432 gas</text><polygon fill="#3471CD" points="856.5,504.9629,866.5,508.9629,856.5,512.9629,860.5,508.9629" style="stroke:#3471CD;stroke-width:1.0;"/><line style="stroke:#3471CD;stroke-width:1.0;stroke-dasharray:2.0,2.0;" x1="396.5" x2="862.5" y1="508.9629" y2="508.9629"/><text fill="#000000" font-family="sans-serif" font-size="13" lengthAdjust="spacing" textLength="53" x="403.5" y="458.2891">hasRole(</text><text fill="#000000" font-family="sans-serif" font-size="13" lengthAdjust="spacing" textLength="181" x="411.5" y="473.5996">role: 0xaf290d86..30c3a02c,</text><text fill="#000000" font-family="sans-serif" font-size="13" lengthAdjust="spacing" textLength="148" x="411.5" y="488.9102">account: 0x7AAd..af47)</text><text fill="#000000" font-family="sans-serif" font-size="13" lengthAdjust="spacing" textLength="62" x="403.5" y="504.2207">9,770 gas</text><line style="stroke:#181818;stroke-width:1.0;" x1="1084.5" x2="1074.5" y1="584.2051" y2="580.2051"/><line style="stroke:#181818;stroke-width:1.0;" x1="1084.5" x2="1074.5" y1="584.2051" y2="588.2051"/><line style="stroke:#181818;stroke-width:1.0;" x1="878.5" x2="1085.5" y1="584.2051" y2="584.2051"/><text fill="#000000" font-family="sans-serif" font-size="13" lengthAdjust="spacing" textLength="53" x="885.5" y="533.5313">hasRole(</text><text fill="#000000" font-family="sans-serif" font-size="13" lengthAdjust="spacing" textLength="181" x="893.5" y="548.8418">role: 0xaf290d86..30c3a02c,</text><text fill="#000000" font-family="sans-serif" font-size="13" lengthAdjust="spacing" textLength="148" x="893.5" y="564.1523">account: 0x7AAd..af47)</text><text fill="#000000" font-family="sans-serif" font-size="13" lengthAdjust="spacing" textLength="62" x="885.5" y="579.4629">2,672 gas</text><line style="stroke:#181818;stroke-width:1.0;" x1="879.5" x2="889.5" y1="613.5156" y2="609.5156"/><line style="stroke:#181818;stroke-width:1.0;" x1="879.5" x2="889.5" y1="613.5156" y2="617.5156"/><line style="stroke:#181818;stroke-width:1.0;stroke-dasharray:2.0,2.0;" x1="878.5" x2="1090.5" y1="613.5156" y2="613.5156"/><text fill="#000000" font-family="sans-serif" font-size="13" lengthAdjust="spacing" textLength="25" x="895.5" y="608.7734">true</text><polygon fill="#3471CD" points="407.5,638.8262,397.5,642.8262,407.5,646.8262,403.5,642.8262" style="stroke:#3471CD;stroke-width:1.0;"/><line style="stroke:#3471CD;stroke-width:1.0;stroke-dasharray:2.0,2.0;" x1="401.5" x2="872.5" y1="642.8262" y2="642.8262"/><text fill="#000000" font-family="sans-serif" font-size="13" lengthAdjust="spacing" textLength="25" x="413.5" y="638.084">true</text><path d="M878,655.8262 L878,695.8262 L961,695.8262 L961,665.8262 L951,655.8262 L878,655.8262 " fill="#FEFFDD" style="stroke:#181818;stroke-width:0.5;"/><path d="M951,655.8262 L951,665.8262 L961,665.8262 L951,655.8262 " fill="#FEFFDD" style="stroke:#181818;stroke-width:0.5;"/><text fill="#000000" font-family="sans-serif" font-size="13" lengthAdjust="spacing" textLength="4" x="884" y="673.3945">&#160;</text><text fill="#000000" font-family="sans-serif" font-size="13" lengthAdjust="spacing" textLength="62" x="884" y="688.7051">7,098 gas</text><polygon fill="#3471CD" points="856.5,749.3789,866.5,753.3789,856.5,757.3789,860.5,753.3789" style="stroke:#3471CD;stroke-width:1.0;"/><line style="stroke:#3471CD;stroke-width:1.0;stroke-dasharray:2.0,2.0;" x1="396.5" x2="862.5" y1="753.3789" y2="753.3789"/><text fill="#000000" font-family="sans-serif" font-size="13" lengthAdjust="spacing" textLength="114" x="403.5" y="718.0156">isSupportedAsset(</text><text fill="#000000" font-family="sans-serif" font-size="13" lengthAdjust="spacing" textLength="138" x="411.5" y="733.3262">token: 0xA35b..A15b)</text><text fill="#000000" font-family="sans-serif" font-size="13" lengthAdjust="spacing" textLength="62" x="403.5" y="748.6367">3,201 gas</text><line style="stroke:#181818;stroke-width:1.0;" x1="1084.5" x2="1074.5" y1="813.3105" y2="809.3105"/><line style="stroke:#181818;stroke-width:1.0;" x1="1084.5" x2="1074.5" y1="813.3105" y2="817.3105"/><line style="stroke:#181818;stroke-width:1.0;" x1="878.5" x2="1085.5" y1="813.3105" y2="813.3105"/><text fill="#000000" font-family="sans-serif" font-size="13" lengthAdjust="spacing" textLength="114" x="885.5" y="777.9473">isSupportedAsset(</text><text fill="#000000" font-family="sans-serif" font-size="13" lengthAdjust="spacing" textLength="138" x="893.5" y="793.2578">token: 0xA35b..A15b)</text><text fill="#000000" font-family="sans-serif" font-size="13" lengthAdjust="spacing" textLength="62" x="885.5" y="808.5684">2,606 gas</text><line style="stroke:#181818;stroke-width:1.0;" x1="879.5" x2="889.5" y1="842.6211" y2="838.6211"/><line style="stroke:#181818;stroke-width:1.0;" x1="879.5" x2="889.5" y1="842.6211" y2="846.6211"/><line style="stroke:#181818;stroke-width:1.0;stroke-dasharray:2.0,2.0;" x1="878.5" x2="1090.5" y1="842.6211" y2="842.6211"/><text fill="#000000" font-family="sans-serif" font-size="13" lengthAdjust="spacing" textLength="108" x="895.5" y="837.8789">isSupported: true</text><polygon fill="#3471CD" points="407.5,867.9316,397.5,871.9316,407.5,875.9316,403.5,871.9316" style="stroke:#3471CD;stroke-width:1.0;"/><line style="stroke:#3471CD;stroke-width:1.0;stroke-dasharray:2.0,2.0;" x1="401.5" x2="872.5" y1="871.9316" y2="871.9316"/><text fill="#000000" font-family="sans-serif" font-size="13" lengthAdjust="spacing" textLength="108" x="413.5" y="867.1895">isSupported: true</text><path d="M878,884.9316 L878,924.9316 L949,924.9316 L949,894.9316 L939,884.9316 L878,884.9316 " fill="#FEFFDD" style="stroke:#181818;stroke-width:0.5;"/><path d="M939,884.9316 L939,894.9316 L949,894.9316 L939,884.9316 " fill="#FEFFDD" style="stroke:#181818;stroke-width:0.5;"/><text fill="#000000" font-family="sans-serif" font-size="13" lengthAdjust="spacing" textLength="4" x="884" y="902.5">&#160;</text><text fill="#000000" font-family="sans-serif" font-size="13" lengthAdjust="spacing" textLength="50" x="884" y="917.8105">595 gas</text><polygon fill="#3471CD" points="1259,993.7949,1269,997.7949,1259,1001.7949,1263,997.7949" style="stroke:#3471CD;stroke-width:1.0;"/><line style="stroke:#3471CD;stroke-width:1.0;stroke-dasharray:2.0,2.0;" x1="396.5" x2="1265" y1="997.7949" y2="997.7949"/><text fill="#000000" font-family="sans-serif" font-size="13" lengthAdjust="spacing" textLength="53" x="403.5" y="947.1211">transfer(</text><text fill="#000000" font-family="sans-serif" font-size="13" lengthAdjust="spacing" textLength="111" x="411.5" y="962.4316">to: 0x92B4..e388,</text><text fill="#000000" font-family="sans-serif" font-size="13" lengthAdjust="spacing" textLength="248" x="411.5" y="977.7422">amount: 11,,058,100,000,000,000,000)</text><text fill="#000000" font-family="sans-serif" font-size="13" lengthAdjust="spacing" textLength="70" x="403.5" y="993.0527">39,140 gas</text><line style="stroke:#181818;stroke-width:1.0;" x1="1554" x2="1544" y1="1073.0371" y2="1069.0371"/><line style="stroke:#181818;stroke-width:1.0;" x1="1554" x2="1544" y1="1073.0371" y2="1077.0371"/><line style="stroke:#181818;stroke-width:1.0;" x1="1281" x2="1555" y1="1073.0371" y2="1073.0371"/><text fill="#000000" font-family="sans-serif" font-size="13" lengthAdjust="spacing" textLength="53" x="1288" y="1022.3633">transfer(</text><text fill="#000000" font-family="sans-serif" font-size="13" lengthAdjust="spacing" textLength="111" x="1296" y="1037.6738">to: 0x92B4..e388,</text><text fill="#000000" font-family="sans-serif" font-size="13" lengthAdjust="spacing" textLength="248" x="1296" y="1052.9844">amount: 11,,058,100,000,000,000,000)</text><text fill="#000000" font-family="sans-serif" font-size="13" lengthAdjust="spacing" textLength="70" x="1288" y="1068.2949">31,977 gas</text><line style="stroke:#181818;stroke-width:1.0;" x1="1282" x2="1292" y1="1102.3477" y2="1098.3477"/><line style="stroke:#181818;stroke-width:1.0;" x1="1282" x2="1292" y1="1102.3477" y2="1106.3477"/><line style="stroke:#181818;stroke-width:1.0;stroke-dasharray:2.0,2.0;" x1="1281" x2="1560" y1="1102.3477" y2="1102.3477"/><text fill="#000000" font-family="sans-serif" font-size="13" lengthAdjust="spacing" textLength="25" x="1298" y="1097.6055">true</text><polygon fill="#3471CD" points="407.5,1127.6582,397.5,1131.6582,407.5,1135.6582,403.5,1131.6582" style="stroke:#3471CD;stroke-width:1.0;"/><line style="stroke:#3471CD;stroke-width:1.0;stroke-dasharray:2.0,2.0;" x1="401.5" x2="1275" y1="1131.6582" y2="1131.6582"/><text fill="#000000" font-family="sans-serif" font-size="13" lengthAdjust="spacing" textLength="25" x="413.5" y="1126.916">true</text><path d="M1281,1144.6582 L1281,1184.6582 L1364,1184.6582 L1364,1154.6582 L1354,1144.6582 L1281,1144.6582 " fill="#FEFFDD" style="stroke:#181818;stroke-width:0.5;"/><path d="M1354,1144.6582 L1354,1154.6582 L1364,1154.6582 L1354,1144.6582 " fill="#FEFFDD" style="stroke:#181818;stroke-width:0.5;"/><text fill="#000000" font-family="sans-serif" font-size="13" lengthAdjust="spacing" textLength="4" x="1287" y="1162.2266">&#160;</text><text fill="#000000" font-family="sans-serif" font-size="13" lengthAdjust="spacing" textLength="62" x="1287" y="1177.5371">7,163 gas</text><line style="stroke:#181818;stroke-width:1.0;" x1="397.5" x2="407.5" y1="1196.2793" y2="1192.2793"/><line style="stroke:#181818;stroke-width:1.0;" x1="397.5" x2="407.5" y1="1196.2793" y2="1200.2793"/><line style="stroke:#181818;stroke-width:1.0;stroke-dasharray:2.0,2.0;" x1="396.5" x2="675.5" y1="1196.2793" y2="1196.2793"/><path d="M681,1209.2793 L681,1249.2793 L772,1249.2793 L772,1219.2793 L762,1209.2793 L681,1209.2793 " fill="#FEFFDD" style="stroke:#181818;stroke-width:0.5;"/><path d="M762,1209.2793 L762,1219.2793 L772,1219.2793 L762,1209.2793 " fill="#FEFFDD" style="stroke:#181818;stroke-width:0.5;"/><text fill="#000000" font-family="sans-serif" font-size="13" lengthAdjust="spacing" textLength="4" x="687" y="1226.8477">&#160;</text><text fill="#000000" font-family="sans-serif" font-size="13" lengthAdjust="spacing" textLength="70" x="687" y="1242.1582">18,321 gas</text><polygon fill="#181818" points="122.5,1256.9004,112.5,1260.9004,122.5,1264.9004,118.5,1260.9004" style="stroke:#181818;stroke-width:1.0;"/><line style="stroke:#181818;stroke-width:1.0;stroke-dasharray:2.0,2.0;" x1="116.5" x2="390.5" y1="1260.9004" y2="1260.9004"/><path d="M396,1273.9004 L396,1313.9004 L487,1313.9004 L487,1283.9004 L477,1273.9004 L396,1273.9004 " fill="#FEFFDD" style="stroke:#181818;stroke-width:0.5;"/><path d="M477,1273.9004 L477,1283.9004 L487,1283.9004 L477,1273.9004 " fill="#FEFFDD" style="stroke:#181818;stroke-width:0.5;"/><text fill="#000000" font-family="sans-serif" font-size="13" lengthAdjust="spacing" textLength="4" x="402" y="1291.4688">&#160;</text><text fill="#000000" font-family="sans-serif" font-size="13" lengthAdjust="spacing" textLength="70" x="402" y="1306.7793">26,061 gas</text><path d="M1147,1324.5215 L1147,1395.5215 L1405,1395.5215 L1405,1334.5215 L1395,1324.5215 L1147,1324.5215 " fill="#00FFFF" style="stroke:#181818;stroke-width:0.5;"/><path d="M1395,1324.5215 L1395,1334.5215 L1405,1334.5215 L1395,1324.5215 " fill="#00FFFF" style="stroke:#181818;stroke-width:0.5;"/><text fill="#000000" font-family="sans-serif" font-size="13" lengthAdjust="spacing" textLength="56" x="1153" y="1342.0898">Transfer:</text><text fill="#000000" font-family="sans-serif" font-size="13" lengthAdjust="spacing" textLength="132" x="1161" y="1357.4004">from: 0x0366..375D,</text><text fill="#000000" font-family="sans-serif" font-size="13" lengthAdjust="spacing" textLength="111" x="1161" y="1372.7109">to: 0x92B4..e388,</text><text fill="#000000" font-family="sans-serif" font-size="13" lengthAdjust="spacing" textLength="229" x="1161" y="1388.0215">value: 11,,058,100,000,000,000,000</text><!--SRC=[lLNVRzCw57xtNs6n5v2yo3_YEAwcIcM30G8qSOjuO3muYLCYEhiaxYZ__VL9sdJTxXrKGZnKykUSS_pvytTEGnEM5jDDRPJAQIwpD3C5ar9oerbLfnNdHPLdHWbgTIrKLHbPiqAgZ5fbIvuNWafAEKAbMON6EtnZ6kTi8BXO-l8RPhdc8cMSu4-s8fWA_COup2bFCQKJgIPIuyjtSsJAu5lyX6wKCLMIc3fLJx3fC4006ArC6vgoMHaN88wAB4iIeMJLnm44WC_EvgrnNOosBdnSBLfJMLCixLNhDp-dq_jbkAdI92b4FHm7440iy_R3_CAkVDU4A- -N3pDrgieaaROSCW42E9P0NkbO9fCwxSi0130GEFUkRXOFauoGHHI9oQ9F0WWW9hsOlzfCfsTdJs7n35P7iKbBpgEgGkPzOO00ni88EHyizhUs7Py6lVUkj1FCqnHTngIhjW78P98noIcLESENFso3tfaDVcdXa-19oXNSKulzjvZesoRyZAKIEcn3lRVDJHEWdY2vqltMnyvM4wmp4lFHV5kL9j68EF94rbKOU28qskVqT3fwP883Q5BRTjPrDipzUr_P2xkq2nDD-FJQOUogyhMhx2PI8O0D1COZDhDU-LaKUzY_yMi7v1WXyQA4KKheuU_PjHk8ueNfmEVDhOaIxiYWqRcdq-delxzEKL6I2dv8SMo6avpg5-VFxr0z_NmYKiNEBxvCH-TFy5VJVV1BszDhumBOc9fh6aT8T1KjXQ6y75YLvK0hTlnijkrua8eeHGzfxEgZiSL0gLsZ_95JESdKlSkFZRYxV6l3kdNnNTRsODqtHDiilWRiwpjYH4q9rNbVzLV2DTq_wzNAjy5M_NltTmd-ctM73ngf2i8fEqwW8wf78MZsUqBSgJevKENXX_-NI6hvY42xkRRlXYrruAtvypYvhSZp8smkD67fFN_jJa7Z60NvTgFl3vxDY5RgyEnnm1xdihqmu3AM3RDb6tylTZzIhXtBYU3iaU3zY8nUo0ZDXk0xKtyKwSHyNniqtuepGHZNhRy1TSQ_vWk2_aEnk7Thbclxg5xx6Vul]--></g></svg>