<?xml version="1.0" encoding="UTF-8" standalone="no"?>
<!DOCTYPE svg PUBLIC "-//W3C//DTD SVG 1.1//EN"
 "http://www.w3.org/Graphics/SVG/1.1/DTD/svg11.dtd">
<!-- Generated by graphviz version 5.0.0 (20220707.1540)
 -->
<!-- Title: StorageDiagram Pages: 1 -->
<svg width="3086pt" height="607pt"
 viewBox="0.00 0.00 3085.67 607.20" xmlns="http://www.w3.org/2000/svg" xmlns:xlink="http://www.w3.org/1999/xlink">
<g id="graph0" class="graph" transform="scale(1 1) rotate(0) translate(4 603.2)">
<title>StorageDiagram</title>
<polygon fill="white" stroke="transparent" points="-4,4 -4,-603.2 3081.67,-603.2 3081.67,4 -4,4"/>
<!-- 2 -->
<g id="node1" class="node">
<title>2</title>
<polygon fill="#f2f2f2" stroke="black" points="0,-166.7 0,-598.7 1868.69,-598.7 1868.69,-166.7 0,-166.7"/>
<text text-anchor="middle" x="934.34" y="-582.1" font-family="Courier New" font-size="14.00">LRTDepositPool &lt;&lt;Contract&gt;&gt;</text>
<text text-anchor="middle" x="934.34" y="-565.3" font-family="Courier New" font-size="14.00">0x2Ad42D71f65F76860FCE2C39032dEf101422b3f7</text>
<polyline fill="none" stroke="black" points="0,-557.1 1868.69,-557.1 "/>
<text text-anchor="middle" x="41.61" y="-540.5" font-family="Courier New" font-size="14.00">slot</text>
<text text-anchor="middle" x="41.61" y="-523.7" font-family="Courier New" font-size="14.00"> &#160;</text>
<polyline fill="none" stroke="black" points="0,-515.5 83.21,-515.5 "/>
<text text-anchor="middle" x="41.61" y="-498.9" font-family="Courier New" font-size="14.00">0</text>
<text text-anchor="middle" x="41.61" y="-482.1" font-family="Courier New" font-size="14.00"> &#160;</text>
<polyline fill="none" stroke="black" points="0,-473.9 83.21,-473.9 "/>
<text text-anchor="middle" x="41.61" y="-457.3" font-family="Courier New" font-size="14.00">1&#45;50 </text>
<polyline fill="none" stroke="black" points="0,-449.1 83.21,-449.1 "/>
<text text-anchor="middle" x="41.61" y="-432.5" font-family="Courier New" font-size="14.00">51</text>
<text text-anchor="middle" x="41.61" y="-415.7" font-family="Courier New" font-size="14.00"> &#160;</text>
<polyline fill="none" stroke="black" points="0,-407.5 83.21,-407.5 "/>
<text text-anchor="middle" x="41.61" y="-390.9" font-family="Courier New" font-size="14.00">52&#45;100 </text>
<polyline fill="none" stroke="black" points="0,-382.7 83.21,-382.7 "/>
<text text-anchor="middle" x="41.61" y="-366.1" font-family="Courier New" font-size="14.00">101</text>
<text text-anchor="middle" x="41.61" y="-349.3" font-family="Courier New" font-size="14.00"> &#160;</text>
<polyline fill="none" stroke="black" points="0,-341.1 83.21,-341.1 "/>
<text text-anchor="middle" x="41.61" y="-324.5" font-family="Courier New" font-size="14.00">102&#45;150 </text>
<polyline fill="none" stroke="black" points="0,-316.3 83.21,-316.3 "/>
<text text-anchor="middle" x="41.61" y="-299.7" font-family="Courier New" font-size="14.00">151</text>
<text text-anchor="middle" x="41.61" y="-282.9" font-family="Courier New" font-size="14.00"> &#160;</text>
<polyline fill="none" stroke="black" points="0,-274.7 83.21,-274.7 "/>
<text text-anchor="middle" x="41.61" y="-258.1" font-family="Courier New" font-size="14.00">152</text>
<text text-anchor="middle" x="41.61" y="-241.3" font-family="Courier New" font-size="14.00"> &#160;</text>
<polyline fill="none" stroke="black" points="0,-233.1 83.21,-233.1 "/>
<text text-anchor="middle" x="41.61" y="-216.5" font-family="Courier New" font-size="14.00">153 </text>
<polyline fill="none" stroke="black" points="0,-208.3 83.21,-208.3 "/>
<text text-anchor="middle" x="41.61" y="-191.7" font-family="Courier New" font-size="14.00">154</text>
<text text-anchor="middle" x="41.61" y="-174.9" font-family="Courier New" font-size="14.00"> </text>
<polyline fill="none" stroke="black" points="83.21,-166.7 83.21,-557.1 "/>
<text text-anchor="middle" x="368.46" y="-540.5" font-family="Courier New" font-size="14.00">value</text>
<text text-anchor="middle" x="368.46" y="-523.7" font-family="Courier New" font-size="14.00"> &#160;</text>
<polyline fill="none" stroke="black" points="83.21,-515.5 653.7,-515.5 "/>
<text text-anchor="middle" x="368.46" y="-498.9" font-family="Courier New" font-size="14.00">0x000000000000000000000001947CB49334E6571CCBFEF1F1F1178D8469D65EC7</text>
<text text-anchor="middle" x="368.46" y="-482.1" font-family="Courier New" font-size="14.00"> &#160;</text>
<polyline fill="none" stroke="black" points="83.21,-473.9 653.7,-473.9 "/>
<text text-anchor="middle" x="368.46" y="-457.3" font-family="Courier New" font-size="14.00"> </text>
<polyline fill="none" stroke="black" points="83.21,-449.1 653.7,-449.1 "/>
<text text-anchor="middle" x="368.46" y="-432.5" font-family="Courier New" font-size="14.00">0x0000000000000000000000000000000000000000000000000000000000000000</text>
<text text-anchor="middle" x="368.46" y="-415.7" font-family="Courier New" font-size="14.00"> &#160;</text>
<polyline fill="none" stroke="black" points="83.21,-407.5 653.7,-407.5 "/>
<text text-anchor="middle" x="368.46" y="-390.9" font-family="Courier New" font-size="14.00"> </text>
<polyline fill="none" stroke="black" points="83.21,-382.7 653.7,-382.7 "/>
<text text-anchor="middle" x="368.46" y="-366.1" font-family="Courier New" font-size="14.00">0x0000000000000000000000000000000000000000000000000000000000000001</text>
<text text-anchor="middle" x="368.46" y="-349.3" font-family="Courier New" font-size="14.00"> &#160;</text>
<polyline fill="none" stroke="black" points="83.21,-341.1 653.7,-341.1 "/>
<text text-anchor="middle" x="368.46" y="-324.5" font-family="Courier New" font-size="14.00"> </text>
<polyline fill="none" stroke="black" points="83.21,-316.3 653.7,-316.3 "/>
<text text-anchor="middle" x="368.46" y="-299.7" font-family="Courier New" font-size="14.00">0x000000000000000000000000000000000000000000000000000000000000000A</text>
<text text-anchor="middle" x="368.46" y="-282.9" font-family="Courier New" font-size="14.00"> &#160;</text>
<polyline fill="none" stroke="black" points="83.21,-274.7 653.7,-274.7 "/>
<text text-anchor="middle" x="368.46" y="-258.1" font-family="Courier New" font-size="14.00">0x00000000000000000000000000000000000000000000000000005AF3107A4000</text>
<text text-anchor="middle" x="368.46" y="-241.3" font-family="Courier New" font-size="14.00"> &#160;</text>
<polyline fill="none" stroke="black" points="83.21,-233.1 653.7,-233.1 "/>
<text text-anchor="middle" x="368.46" y="-216.5" font-family="Courier New" font-size="14.00"> </text>
<polyline fill="none" stroke="black" points="83.21,-208.3 653.7,-208.3 "/>
<text text-anchor="middle" x="368.46" y="-191.7" font-family="Courier New" font-size="14.00">0x0000000000000000000000000000000000000000000000000000000000000007</text>
<text text-anchor="middle" x="368.46" y="-174.9" font-family="Courier New" font-size="14.00"> </text>
<polyline fill="none" stroke="black" points="653.7,-166.7 653.7,-557.1 "/>
<text text-anchor="middle" x="1261.19" y="-540.5" font-family="Courier New" font-size="14.00">type: &lt;inherited contract&gt;.variable (bytes)</text>
<text text-anchor="middle" x="1261.19" y="-523.7" font-family="Courier New" font-size="14.00">decoded data</text>
<polyline fill="none" stroke="black" points="653.7,-515.5 1868.69,-515.5 "/>
<text text-anchor="middle" x="728.91" y="-490.5" font-family="Courier New" font-size="14.00">unallocated (10)</text>
<polyline fill="none" stroke="black" points="804.12,-473.9 804.12,-515.5 "/>
<text text-anchor="middle" x="967.55" y="-498.9" font-family="Courier New" font-size="14.00">bool: Initializable._initializing (1)</text>
<text text-anchor="middle" x="967.55" y="-482.1" font-family="Courier New" font-size="14.00"> false &#160;</text>
<polyline fill="none" stroke="black" points="1130.97,-473.9 1130.97,-515.5 "/>
<text text-anchor="middle" x="1294.4" y="-498.9" font-family="Courier New" font-size="14.00">uint8: Initializable._initialized (1)</text>
<text text-anchor="middle" x="1294.4" y="-482.1" font-family="Courier New" font-size="14.00"> 1 &#160;</text>
<polyline fill="none" stroke="black" points="1457.82,-473.9 1457.82,-515.5 "/>
<text text-anchor="middle" x="1663.26" y="-498.9" font-family="Courier New" font-size="14.00">ILRTConfig: LRTConfigRoleChecker.lrtConfig (20)</text>
<text text-anchor="middle" x="1663.26" y="-482.1" font-family="Courier New" font-size="14.00"> 0x947Cb49334e6571ccBFEF1f1f1178d8469D65ec7 </text>
<polyline fill="none" stroke="black" points="653.7,-473.9 1868.69,-473.9 "/>
<text text-anchor="middle" x="1261.03" y="-457.3" font-family="Courier New" font-size="14.00">uint256[50]: ContextUpgradeable.__gap (1600)</text>
<polyline fill="none" stroke="black" points="653.7,-449.1 1868.69,-449.1 "/>
<text text-anchor="middle" x="912.91" y="-424.1" font-family="Courier New" font-size="14.00">unallocated (31)</text>
<polyline fill="none" stroke="black" points="1172.12,-407.5 1172.12,-449.1 "/>
<text text-anchor="middle" x="1520.05" y="-432.5" font-family="Courier New" font-size="14.00">bool: PausableUpgradeable._paused (1)</text>
<text text-anchor="middle" x="1520.05" y="-415.7" font-family="Courier New" font-size="14.00"> false </text>
<polyline fill="none" stroke="black" points="653.7,-407.5 1868.69,-407.5 "/>
<text text-anchor="middle" x="1260.73" y="-390.9" font-family="Courier New" font-size="14.00">uint256[49]: PausableUpgradeable.__gap (1568)</text>
<polyline fill="none" stroke="black" points="653.7,-382.7 1868.69,-382.7 "/>
<text text-anchor="middle" x="1260.83" y="-366.1" font-family="Courier New" font-size="14.00">uint256: ReentrancyGuardUpgradeable._status (32)</text>
<text text-anchor="middle" x="1260.83" y="-349.3" font-family="Courier New" font-size="14.00"> 1 </text>
<polyline fill="none" stroke="black" points="653.7,-341.1 1868.69,-341.1 "/>
<text text-anchor="middle" x="1261.14" y="-324.5" font-family="Courier New" font-size="14.00">uint256[49]: ReentrancyGuardUpgradeable.__gap (1568)</text>
<polyline fill="none" stroke="black" points="653.7,-316.3 1868.69,-316.3 "/>
<text text-anchor="middle" x="1260.73" y="-299.7" font-family="Courier New" font-size="14.00">uint256: maxNodeDelegatorLimit (32)</text>
<text text-anchor="middle" x="1260.73" y="-282.9" font-family="Courier New" font-size="14.00"> 10 </text>
<polyline fill="none" stroke="black" points="653.7,-274.7 1868.69,-274.7 "/>
<text text-anchor="middle" x="1261.12" y="-258.1" font-family="Courier New" font-size="14.00">uint256: minAmountToDeposit (32)</text>
<text text-anchor="middle" x="1261.12" y="-241.3" font-family="Courier New" font-size="14.00"> 100,000,000,000,000 </text>
<polyline fill="none" stroke="black" points="653.7,-233.1 1868.69,-233.1 "/>
<text text-anchor="middle" x="1261.13" y="-216.5" font-family="Courier New" font-size="14.00">mapping(address=&gt;uint256): isNodeDelegator (32)</text>
<polyline fill="none" stroke="black" points="653.7,-208.3 1868.69,-208.3 "/>
<text text-anchor="middle" x="1261.02" y="-191.7" font-family="Courier New" font-size="14.00">address[]: nodeDelegatorQueue (32)</text>
<text text-anchor="middle" x="1261.02" y="-174.9" font-family="Courier New" font-size="14.00"> 7 </text>
</g>
<!-- 1 -->
<g id="node2" class="node">
<title>1</title>
<polygon fill="#f2f2f2" stroke="black" points="1904.69,-0.5 1904.69,-374.9 3077.67,-374.9 3077.67,-0.5 1904.69,-0.5"/>
<text text-anchor="middle" x="2491.18" y="-358.3" font-family="Courier New" font-size="14.00">address[]: nodeDelegatorQueue &lt;&lt;Array&gt;&gt;</text>
<text text-anchor="middle" x="2491.18" y="-341.5" font-family="Courier New" font-size="14.00">0x44da158ba27f9252712a74ff6a55c5d531f69609f1f6e7f17c4443a8e2089be4</text>
<polyline fill="none" stroke="black" points="1904.69,-333.3 3077.67,-333.3 "/>
<text text-anchor="middle" x="1937.89" y="-316.7" font-family="Courier New" font-size="14.00">offset</text>
<text text-anchor="middle" x="1937.89" y="-299.9" font-family="Courier New" font-size="14.00"> &#160;</text>
<polyline fill="none" stroke="black" points="1904.69,-291.7 1971.1,-291.7 "/>
<text text-anchor="middle" x="1937.89" y="-275.1" font-family="Courier New" font-size="14.00">0</text>
<text text-anchor="middle" x="1937.89" y="-258.3" font-family="Courier New" font-size="14.00"> &#160;</text>
<polyline fill="none" stroke="black" points="1904.69,-250.1 1971.1,-250.1 "/>
<text text-anchor="middle" x="1937.89" y="-233.5" font-family="Courier New" font-size="14.00">1</text>
<text text-anchor="middle" x="1937.89" y="-216.7" font-family="Courier New" font-size="14.00"> &#160;</text>
<polyline fill="none" stroke="black" points="1904.69,-208.5 1971.1,-208.5 "/>
<text text-anchor="middle" x="1937.89" y="-191.9" font-family="Courier New" font-size="14.00">2</text>
<text text-anchor="middle" x="1937.89" y="-175.1" font-family="Courier New" font-size="14.00"> &#160;</text>
<polyline fill="none" stroke="black" points="1904.69,-166.9 1971.1,-166.9 "/>
<text text-anchor="middle" x="1937.89" y="-150.3" font-family="Courier New" font-size="14.00">3</text>
<text text-anchor="middle" x="1937.89" y="-133.5" font-family="Courier New" font-size="14.00"> &#160;</text>
<polyline fill="none" stroke="black" points="1904.69,-125.3 1971.1,-125.3 "/>
<text text-anchor="middle" x="1937.89" y="-108.7" font-family="Courier New" font-size="14.00">4</text>
<text text-anchor="middle" x="1937.89" y="-91.9" font-family="Courier New" font-size="14.00"> &#160;</text>
<polyline fill="none" stroke="black" points="1904.69,-83.7 1971.1,-83.7 "/>
<text text-anchor="middle" x="1937.89" y="-67.1" font-family="Courier New" font-size="14.00">5</text>
<text text-anchor="middle" x="1937.89" y="-50.3" font-family="Courier New" font-size="14.00"> &#160;</text>
<polyline fill="none" stroke="black" points="1904.69,-42.1 1971.1,-42.1 "/>
<text text-anchor="middle" x="1937.89" y="-25.5" font-family="Courier New" font-size="14.00">6</text>
<text text-anchor="middle" x="1937.89" y="-8.7" font-family="Courier New" font-size="14.00"> </text>
<polyline fill="none" stroke="black" points="1971.1,-0.5 1971.1,-333.3 "/>
<text text-anchor="middle" x="2256.34" y="-316.7" font-family="Courier New" font-size="14.00">value</text>
<text text-anchor="middle" x="2256.34" y="-299.9" font-family="Courier New" font-size="14.00"> &#160;</text>
<polyline fill="none" stroke="black" points="1971.1,-291.7 2541.59,-291.7 "/>
<text text-anchor="middle" x="2256.34" y="-275.1" font-family="Courier New" font-size="14.00">0x00000000000000000000000007B96CF1183C9BFF2E43ACF0E547A8C4E4429473</text>
<text text-anchor="middle" x="2256.34" y="-258.3" font-family="Courier New" font-size="14.00"> &#160;</text>
<polyline fill="none" stroke="black" points="1971.1,-250.1 2541.59,-250.1 "/>
<text text-anchor="middle" x="2256.34" y="-233.5" font-family="Courier New" font-size="14.00">0x000000000000000000000000429554411C8F0ACEEC899100D3AACCF2707748B3</text>
<text text-anchor="middle" x="2256.34" y="-216.7" font-family="Courier New" font-size="14.00"> &#160;</text>
<polyline fill="none" stroke="black" points="1971.1,-208.5 2541.59,-208.5 "/>
<text text-anchor="middle" x="2256.34" y="-191.9" font-family="Courier New" font-size="14.00">0x00000000000000000000000092B4F5B9FFA1B5DB3B976E89A75E87B332E6E388</text>
<text text-anchor="middle" x="2256.34" y="-175.1" font-family="Courier New" font-size="14.00"> &#160;</text>
<polyline fill="none" stroke="black" points="1971.1,-166.9 2541.59,-166.9 "/>
<text text-anchor="middle" x="2256.34" y="-150.3" font-family="Courier New" font-size="14.00">0x0000000000000000000000009D2FC9287E1C3A1A814382B40AAB13873031C4AD</text>
<text text-anchor="middle" x="2256.34" y="-133.5" font-family="Courier New" font-size="14.00"> &#160;</text>
<polyline fill="none" stroke="black" points="1971.1,-125.3 2541.59,-125.3 "/>
<text text-anchor="middle" x="2256.34" y="-108.7" font-family="Courier New" font-size="14.00">0x000000000000000000000000E8038228FF1AEFD007D7A22C9F08DDAADF8374E4</text>
<text text-anchor="middle" x="2256.34" y="-91.9" font-family="Courier New" font-size="14.00"> &#160;</text>
<polyline fill="none" stroke="black" points="1971.1,-83.7 2541.59,-83.7 "/>
<text text-anchor="middle" x="2256.34" y="-67.1" font-family="Courier New" font-size="14.00">0x000000000000000000000000AB96EB807C9DFE59E9D52F7F428A6D35F12728C6</text>
<text text-anchor="middle" x="2256.34" y="-50.3" font-family="Courier New" font-size="14.00"> &#160;</text>
<polyline fill="none" stroke="black" points="1971.1,-42.1 2541.59,-42.1 "/>
<text text-anchor="middle" x="2256.34" y="-25.5" font-family="Courier New" font-size="14.00">0x0000000000000000000000002107EA068FD85E125BE422AFC86D2E57A6D085D8</text>
<text text-anchor="middle" x="2256.34" y="-8.7" font-family="Courier New" font-size="14.00"> </text>
<polyline fill="none" stroke="black" points="2541.59,-0.5 2541.59,-333.3 "/>
<text text-anchor="middle" x="2809.63" y="-316.7" font-family="Courier New" font-size="14.00">type: variable (bytes)</text>
<text text-anchor="middle" x="2809.63" y="-299.9" font-family="Courier New" font-size="14.00">decoded data</text>
<polyline fill="none" stroke="black" points="2541.59,-291.7 3077.67,-291.7 "/>
<text text-anchor="middle" x="2616.8" y="-266.7" font-family="Courier New" font-size="14.00">unallocated (12)</text>
<polyline fill="none" stroke="black" points="2692.01,-250.1 2692.01,-291.7 "/>
<text text-anchor="middle" x="2884.84" y="-275.1" font-family="Courier New" font-size="14.00">address (20)</text>
<text text-anchor="middle" x="2884.84" y="-258.3" font-family="Courier New" font-size="14.00"> 0x07b96Cf1183C9BFf2E43Acf0E547a8c4E4429473 </text>
<polyline fill="none" stroke="black" points="2541.59,-250.1 3077.67,-250.1 "/>
<text text-anchor="middle" x="2616.8" y="-225.1" font-family="Courier New" font-size="14.00">unallocated (12)</text>
<polyline fill="none" stroke="black" points="2692.01,-208.5 2692.01,-250.1 "/>
<text text-anchor="middle" x="2884.84" y="-233.5" font-family="Courier New" font-size="14.00">address (20)</text>
<text text-anchor="middle" x="2884.84" y="-216.7" font-family="Courier New" font-size="14.00"> 0x429554411C8f0ACEEC899100D3aacCF2707748b3 </text>
<polyline fill="none" stroke="black" points="2541.59,-208.5 3077.67,-208.5 "/>
<text text-anchor="middle" x="2616.8" y="-183.5" font-family="Courier New" font-size="14.00">unallocated (12)</text>
<polyline fill="none" stroke="black" points="2692.01,-166.9 2692.01,-208.5 "/>
<text text-anchor="middle" x="2884.84" y="-191.9" font-family="Courier New" font-size="14.00">address (20)</text>
<text text-anchor="middle" x="2884.84" y="-175.1" font-family="Courier New" font-size="14.00"> 0x92B4f5b9ffa1b5DB3b976E89A75E87B332E6e388 </text>
<polyline fill="none" stroke="black" points="2541.59,-166.9 3077.67,-166.9 "/>
<text text-anchor="middle" x="2616.8" y="-141.9" font-family="Courier New" font-size="14.00">unallocated (12)</text>
<polyline fill="none" stroke="black" points="2692.01,-125.3 2692.01,-166.9 "/>
<text text-anchor="middle" x="2884.84" y="-150.3" font-family="Courier New" font-size="14.00">address (20)</text>
<text text-anchor="middle" x="2884.84" y="-133.5" font-family="Courier New" font-size="14.00"> 0x9d2Fc9287e1c3A1A814382B40AAB13873031C4ad </text>
<polyline fill="none" stroke="black" points="2541.59,-125.3 3077.67,-125.3 "/>
<text text-anchor="middle" x="2616.8" y="-100.3" font-family="Courier New" font-size="14.00">unallocated (12)</text>
<polyline fill="none" stroke="black" points="2692.01,-83.7 2692.01,-125.3 "/>
<text text-anchor="middle" x="2884.84" y="-108.7" font-family="Courier New" font-size="14.00">address (20)</text>
<text text-anchor="middle" x="2884.84" y="-91.9" font-family="Courier New" font-size="14.00"> 0xe8038228ff1aEfD007D7A22C9f08DDaadF8374E4 </text>
<polyline fill="none" stroke="black" points="2541.59,-83.7 3077.67,-83.7 "/>
<text text-anchor="middle" x="2616.8" y="-58.7" font-family="Courier New" font-size="14.00">unallocated (12)</text>
<polyline fill="none" stroke="black" points="2692.01,-42.1 2692.01,-83.7 "/>
<text text-anchor="middle" x="2884.84" y="-67.1" font-family="Courier New" font-size="14.00">address (20)</text>
<text text-anchor="middle" x="2884.84" y="-50.3" font-family="Courier New" font-size="14.00"> 0xAb96EB807c9dFE59E9d52f7F428A6D35f12728c6 </text>
<polyline fill="none" stroke="black" points="2541.59,-42.1 3077.67,-42.1 "/>
<text text-anchor="middle" x="2616.8" y="-17.1" font-family="Courier New" font-size="14.00">unallocated (12)</text>
<polyline fill="none" stroke="black" points="2692.01,-0.5 2692.01,-42.1 "/>
<text text-anchor="middle" x="2884.84" y="-25.5" font-family="Courier New" font-size="14.00">address (20)</text>
<text text-anchor="middle" x="2884.84" y="-8.7" font-family="Courier New" font-size="14.00"> 0x2107EA068FD85E125Be422AFC86d2E57A6d085d8 </text>
</g>
<!-- 2&#45;&gt;1 -->
<g id="edge1" class="edge">
<title>2:13&#45;&gt;1</title>
<path fill="none" stroke="black" d="M1868.69,-187.7C1877.22,-187.7 1885.82,-187.7 1894.47,-187.7"/>
<polygon fill="black" stroke="black" points="1894.64,-191.2 1904.64,-187.7 1894.64,-184.2 1894.64,-191.2"/>
</g>
</g>
</svg>
