<?xml version="1.0" encoding="UTF-8" standalone="no"?>
<!DOCTYPE svg PUBLIC "-//W3C//DTD SVG 1.1//EN"
 "http://www.w3.org/Graphics/SVG/1.1/DTD/svg11.dtd">
<!-- Generated by graphviz version 5.0.0 (20220707.1540)
 -->
<!-- Title: StorageDiagram Pages: 1 -->
<svg width="1843pt" height="200pt"
 viewBox="0.00 0.00 1843.08 200.20" xmlns="http://www.w3.org/2000/svg" xmlns:xlink="http://www.w3.org/1999/xlink">
<g id="graph0" class="graph" transform="scale(1 1) rotate(0) translate(4 196.2)">
<title>StorageDiagram</title>
<polygon fill="white" stroke="transparent" points="-4,4 -4,-196.2 1839.08,-196.2 1839.08,4 -4,4"/>
<!-- 1 -->
<g id="node1" class="node">
<title>1</title>
<polygon fill="#f2f2f2" stroke="black" points="0,-0.5 0,-191.7 1835.08,-191.7 1835.08,-0.5 0,-0.5"/>
<text text-anchor="middle" x="917.54" y="-175.1" font-family="Courier New" font-size="14.00">LRTOracle &lt;&lt;Contract&gt;&gt;</text>
<text text-anchor="middle" x="917.54" y="-158.3" font-family="Courier New" font-size="14.00">0xf1bed40dbee8fc0f324fa06322f2bbd62d11c97d</text>
<polyline fill="none" stroke="black" points="0,-150.1 1835.08,-150.1 "/>
<text text-anchor="middle" x="24.8" y="-133.5" font-family="Courier New" font-size="14.00">slot</text>
<text text-anchor="middle" x="24.8" y="-116.7" font-family="Courier New" font-size="14.00"> &#160;</text>
<polyline fill="none" stroke="black" points="0,-108.5 49.61,-108.5 "/>
<text text-anchor="middle" x="24.8" y="-91.9" font-family="Courier New" font-size="14.00">0</text>
<text text-anchor="middle" x="24.8" y="-75.1" font-family="Courier New" font-size="14.00"> &#160;</text>
<polyline fill="none" stroke="black" points="0,-66.9 49.61,-66.9 "/>
<text text-anchor="middle" x="24.8" y="-50.3" font-family="Courier New" font-size="14.00">1 </text>
<polyline fill="none" stroke="black" points="0,-42.1 49.61,-42.1 "/>
<text text-anchor="middle" x="24.8" y="-25.5" font-family="Courier New" font-size="14.00">2</text>
<text text-anchor="middle" x="24.8" y="-8.7" font-family="Courier New" font-size="14.00"> </text>
<polyline fill="none" stroke="black" points="49.61,-0.5 49.61,-150.1 "/>
<text text-anchor="middle" x="334.85" y="-133.5" font-family="Courier New" font-size="14.00">value</text>
<text text-anchor="middle" x="334.85" y="-116.7" font-family="Courier New" font-size="14.00"> &#160;</text>
<polyline fill="none" stroke="black" points="49.61,-108.5 620.1,-108.5 "/>
<text text-anchor="middle" x="334.85" y="-91.9" font-family="Courier New" font-size="14.00">0x000000000000000000000001947CB49334E6571CCBFEF1F1F1178D8469D65EC7</text>
<text text-anchor="middle" x="334.85" y="-75.1" font-family="Courier New" font-size="14.00"> &#160;</text>
<polyline fill="none" stroke="black" points="49.61,-66.9 620.1,-66.9 "/>
<text text-anchor="middle" x="334.85" y="-50.3" font-family="Courier New" font-size="14.00"> </text>
<polyline fill="none" stroke="black" points="49.61,-42.1 620.1,-42.1 "/>
<text text-anchor="middle" x="334.85" y="-25.5" font-family="Courier New" font-size="14.00">0x0000000000000000000000000000000000000000000000000DF235E555337315</text>
<text text-anchor="middle" x="334.85" y="-8.7" font-family="Courier New" font-size="14.00"> </text>
<polyline fill="none" stroke="black" points="620.1,-0.5 620.1,-150.1 "/>
<text text-anchor="middle" x="1227.59" y="-133.5" font-family="Courier New" font-size="14.00">type: &lt;inherited contract&gt;.variable (bytes)</text>
<text text-anchor="middle" x="1227.59" y="-116.7" font-family="Courier New" font-size="14.00">decoded data</text>
<polyline fill="none" stroke="black" points="620.1,-108.5 1835.08,-108.5 "/>
<text text-anchor="middle" x="695.31" y="-83.5" font-family="Courier New" font-size="14.00">unallocated (10)</text>
<polyline fill="none" stroke="black" points="770.52,-66.9 770.52,-108.5 "/>
<text text-anchor="middle" x="933.94" y="-91.9" font-family="Courier New" font-size="14.00">bool: Initializable._initializing (1)</text>
<text text-anchor="middle" x="933.94" y="-75.1" font-family="Courier New" font-size="14.00"> false &#160;</text>
<polyline fill="none" stroke="black" points="1097.37,-66.9 1097.37,-108.5 "/>
<text text-anchor="middle" x="1260.79" y="-91.9" font-family="Courier New" font-size="14.00">uint8: Initializable._initialized (1)</text>
<text text-anchor="middle" x="1260.79" y="-75.1" font-family="Courier New" font-size="14.00"> 1 &#160;</text>
<polyline fill="none" stroke="black" points="1424.22,-66.9 1424.22,-108.5 "/>
<text text-anchor="middle" x="1629.65" y="-91.9" font-family="Courier New" font-size="14.00">ILRTConfig: LRTConfigRoleChecker.lrtConfig (20)</text>
<text text-anchor="middle" x="1629.65" y="-75.1" font-family="Courier New" font-size="14.00"> 0x947Cb49334e6571ccBFEF1f1f1178d8469D65ec7 </text>
<polyline fill="none" stroke="black" points="620.1,-66.9 1835.08,-66.9 "/>
<text text-anchor="middle" x="1227.23" y="-50.3" font-family="Courier New" font-size="14.00">mapping(address=&gt;address): assetPriceOracle (32)</text>
<polyline fill="none" stroke="black" points="620.1,-42.1 1835.08,-42.1 "/>
<text text-anchor="middle" x="1227.51" y="-25.5" font-family="Courier New" font-size="14.00">uint256: rsETHPrice (32)</text>
<text text-anchor="middle" x="1227.51" y="-8.7" font-family="Courier New" font-size="14.00"> 1,004,924,925,950,259,989 </text>
</g>
</g>
</svg>
