<?xml version="1.0" encoding="UTF-8" standalone="no"?>
<!DOCTYPE svg PUBLIC "-//W3C//DTD SVG 1.1//EN"
 "http://www.w3.org/Graphics/SVG/1.1/DTD/svg11.dtd">
<!-- Generated by graphviz version 5.0.0 (20220707.1540)
 -->
<!-- Title: UmlClassDiagram Pages: 1 -->
<svg width="730pt" height="146pt"
 viewBox="0.00 0.00 729.90 146.00" xmlns="http://www.w3.org/2000/svg" xmlns:xlink="http://www.w3.org/1999/xlink">
<g id="graph0" class="graph" transform="scale(1 1) rotate(0) translate(4 142)">
<title>UmlClassDiagram</title>
<polygon fill="white" stroke="transparent" points="-4,4 -4,-142 725.9,-142 725.9,4 -4,4"/>
<!-- 0 -->
<g id="node1" class="node">
<title>0</title>
<polygon fill="#f2f2f2" stroke="black" points="236.34,-0.5 236.34,-42.1 390.34,-42.1 390.34,-0.5 236.34,-0.5"/>
<text text-anchor="middle" x="313.34" y="-25.5" font-family="Times,serif" font-size="14.00">LRTOracle</text>
<text text-anchor="middle" x="313.34" y="-8.7" font-family="Times,serif" font-size="14.00">contracts/LRTOracle.sol</text>
</g>
<!-- 3 -->
<g id="node2" class="node">
<title>3</title>
<polygon fill="#f2f2f2" stroke="black" points="0,-79.1 0,-137.5 256.68,-137.5 256.68,-79.1 0,-79.1"/>
<text text-anchor="middle" x="128.34" y="-120.9" font-family="Times,serif" font-size="14.00">&lt;&lt;Abstract&gt;&gt;</text>
<text text-anchor="middle" x="128.34" y="-104.1" font-family="Times,serif" font-size="14.00">LRTConfigRoleChecker</text>
<text text-anchor="middle" x="128.34" y="-87.3" font-family="Times,serif" font-size="14.00">contracts/utils/LRTConfigRoleChecker.sol</text>
</g>
<!-- 0&#45;&gt;3 -->
<g id="edge1" class="edge">
<title>0&#45;&gt;3</title>
<path fill="none" stroke="black" d="M269.97,-42.23C254.15,-49.5 235.64,-58 217.31,-66.42"/>
<polygon fill="none" stroke="black" points="212.88,-56.9 190.01,-78.97 221.65,-75.98 212.88,-56.9"/>
</g>
<!-- 10 -->
<g id="node3" class="node">
<title>10</title>
<polygon fill="#f2f2f2" stroke="black" points="274.78,-79.1 274.78,-137.5 721.9,-137.5 721.9,-79.1 274.78,-79.1"/>
<text text-anchor="middle" x="498.34" y="-120.9" font-family="Times,serif" font-size="14.00">&lt;&lt;Abstract&gt;&gt;</text>
<text text-anchor="middle" x="498.34" y="-104.1" font-family="Times,serif" font-size="14.00">Initializable</text>
<text text-anchor="middle" x="498.34" y="-87.3" font-family="Times,serif" font-size="14.00">lib/openzeppelin&#45;contracts&#45;upgradeable/contracts/proxy/utils/Initializable.sol</text>
</g>
<!-- 0&#45;&gt;10 -->
<g id="edge2" class="edge">
<title>0&#45;&gt;10</title>
<path fill="none" stroke="black" d="M356.71,-42.23C372.53,-49.5 391.04,-58 409.37,-66.42"/>
<polygon fill="none" stroke="black" points="405.03,-75.98 436.67,-78.97 413.8,-56.9 405.03,-75.98"/>
</g>
</g>
</svg>
