<?xml version="1.0" encoding="UTF-8" standalone="no"?>
<!DOCTYPE svg PUBLIC "-//W3C//DTD SVG 1.1//EN"
 "http://www.w3.org/Graphics/SVG/1.1/DTD/svg11.dtd">
<!-- Generated by graphviz version 5.0.0 (20220707.1540)
 -->
<!-- Title: StorageDiagram Pages: 1 -->
<svg width="1868pt" height="291pt"
 viewBox="0.00 0.00 1868.29 291.40" xmlns="http://www.w3.org/2000/svg" xmlns:xlink="http://www.w3.org/1999/xlink">
<g id="graph0" class="graph" transform="scale(1 1) rotate(0) translate(4 287.4)">
<title>StorageDiagram</title>
<polygon fill="white" stroke="transparent" points="-4,4 -4,-287.4 1864.29,-287.4 1864.29,4 -4,4"/>
<!-- 1 -->
<g id="node1" class="node">
<title>1</title>
<polygon fill="#f2f2f2" stroke="black" points="0,-0.5 0,-282.9 1860.29,-282.9 1860.29,-0.5 0,-0.5"/>
<text text-anchor="middle" x="930.14" y="-266.3" font-family="Courier New" font-size="14.00">NodeDelegator &lt;&lt;Contract&gt;&gt;</text>
<text text-anchor="middle" x="930.14" y="-249.5" font-family="Courier New" font-size="14.00">0xed510dea149d14c1eb5f973004e0111afdb3b179</text>
<polyline fill="none" stroke="black" points="0,-241.3 1860.29,-241.3 "/>
<text text-anchor="middle" x="37.4" y="-224.7" font-family="Courier New" font-size="14.00">slot</text>
<text text-anchor="middle" x="37.4" y="-207.9" font-family="Courier New" font-size="14.00"> &#160;</text>
<polyline fill="none" stroke="black" points="0,-199.7 74.81,-199.7 "/>
<text text-anchor="middle" x="37.4" y="-183.1" font-family="Courier New" font-size="14.00">0</text>
<text text-anchor="middle" x="37.4" y="-166.3" font-family="Courier New" font-size="14.00"> &#160;</text>
<polyline fill="none" stroke="black" points="0,-158.1 74.81,-158.1 "/>
<text text-anchor="middle" x="37.4" y="-141.5" font-family="Courier New" font-size="14.00">1&#45;50 </text>
<polyline fill="none" stroke="black" points="0,-133.3 74.81,-133.3 "/>
<text text-anchor="middle" x="37.4" y="-116.7" font-family="Courier New" font-size="14.00">51</text>
<text text-anchor="middle" x="37.4" y="-99.9" font-family="Courier New" font-size="14.00"> &#160;</text>
<polyline fill="none" stroke="black" points="0,-91.7 74.81,-91.7 "/>
<text text-anchor="middle" x="37.4" y="-75.1" font-family="Courier New" font-size="14.00">52&#45;100 </text>
<polyline fill="none" stroke="black" points="0,-66.9 74.81,-66.9 "/>
<text text-anchor="middle" x="37.4" y="-50.3" font-family="Courier New" font-size="14.00">101</text>
<text text-anchor="middle" x="37.4" y="-33.5" font-family="Courier New" font-size="14.00"> &#160;</text>
<polyline fill="none" stroke="black" points="0,-25.3 74.81,-25.3 "/>
<text text-anchor="middle" x="37.4" y="-8.7" font-family="Courier New" font-size="14.00">102&#45;150</text>
<polyline fill="none" stroke="black" points="74.81,-0.5 74.81,-241.3 "/>
<text text-anchor="middle" x="360.05" y="-224.7" font-family="Courier New" font-size="14.00">value</text>
<text text-anchor="middle" x="360.05" y="-207.9" font-family="Courier New" font-size="14.00"> &#160;</text>
<polyline fill="none" stroke="black" points="74.81,-199.7 645.3,-199.7 "/>
<text text-anchor="middle" x="360.05" y="-183.1" font-family="Courier New" font-size="14.00">0x000000000000000000000001947CB49334E6571CCBFEF1F1F1178D8469D65EC7</text>
<text text-anchor="middle" x="360.05" y="-166.3" font-family="Courier New" font-size="14.00"> &#160;</text>
<polyline fill="none" stroke="black" points="74.81,-158.1 645.3,-158.1 "/>
<text text-anchor="middle" x="360.05" y="-141.5" font-family="Courier New" font-size="14.00"> </text>
<polyline fill="none" stroke="black" points="74.81,-133.3 645.3,-133.3 "/>
<text text-anchor="middle" x="360.05" y="-116.7" font-family="Courier New" font-size="14.00">0x0000000000000000000000000000000000000000000000000000000000000000</text>
<text text-anchor="middle" x="360.05" y="-99.9" font-family="Courier New" font-size="14.00"> &#160;</text>
<polyline fill="none" stroke="black" points="74.81,-91.7 645.3,-91.7 "/>
<text text-anchor="middle" x="360.05" y="-75.1" font-family="Courier New" font-size="14.00"> </text>
<polyline fill="none" stroke="black" points="74.81,-66.9 645.3,-66.9 "/>
<text text-anchor="middle" x="360.05" y="-50.3" font-family="Courier New" font-size="14.00">0x0000000000000000000000000000000000000000000000000000000000000001</text>
<text text-anchor="middle" x="360.05" y="-33.5" font-family="Courier New" font-size="14.00"> &#160;</text>
<polyline fill="none" stroke="black" points="74.81,-25.3 645.3,-25.3 "/>
<text text-anchor="middle" x="360.05" y="-8.7" font-family="Courier New" font-size="14.00"> </text>
<polyline fill="none" stroke="black" points="645.3,-0.5 645.3,-241.3 "/>
<text text-anchor="middle" x="1252.79" y="-224.7" font-family="Courier New" font-size="14.00">type: &lt;inherited contract&gt;.variable (bytes)</text>
<text text-anchor="middle" x="1252.79" y="-207.9" font-family="Courier New" font-size="14.00">decoded data</text>
<polyline fill="none" stroke="black" points="645.3,-199.7 1860.29,-199.7 "/>
<text text-anchor="middle" x="720.51" y="-174.7" font-family="Courier New" font-size="14.00">unallocated (10)</text>
<polyline fill="none" stroke="black" points="795.72,-158.1 795.72,-199.7 "/>
<text text-anchor="middle" x="959.15" y="-183.1" font-family="Courier New" font-size="14.00">bool: Initializable._initializing (1)</text>
<text text-anchor="middle" x="959.15" y="-166.3" font-family="Courier New" font-size="14.00"> false &#160;</text>
<polyline fill="none" stroke="black" points="1122.57,-158.1 1122.57,-199.7 "/>
<text text-anchor="middle" x="1286" y="-183.1" font-family="Courier New" font-size="14.00">uint8: Initializable._initialized (1)</text>
<text text-anchor="middle" x="1286" y="-166.3" font-family="Courier New" font-size="14.00"> 1 &#160;</text>
<polyline fill="none" stroke="black" points="1449.42,-158.1 1449.42,-199.7 "/>
<text text-anchor="middle" x="1654.85" y="-183.1" font-family="Courier New" font-size="14.00">ILRTConfig: LRTConfigRoleChecker.lrtConfig (20)</text>
<text text-anchor="middle" x="1654.85" y="-166.3" font-family="Courier New" font-size="14.00"> 0x947Cb49334e6571ccBFEF1f1f1178d8469D65ec7 </text>
<polyline fill="none" stroke="black" points="645.3,-158.1 1860.29,-158.1 "/>
<text text-anchor="middle" x="1252.63" y="-141.5" font-family="Courier New" font-size="14.00">uint256[50]: ContextUpgradeable.__gap (1600)</text>
<polyline fill="none" stroke="black" points="645.3,-133.3 1860.29,-133.3 "/>
<text text-anchor="middle" x="904.51" y="-108.3" font-family="Courier New" font-size="14.00">unallocated (31)</text>
<polyline fill="none" stroke="black" points="1163.72,-91.7 1163.72,-133.3 "/>
<text text-anchor="middle" x="1511.65" y="-116.7" font-family="Courier New" font-size="14.00">bool: PausableUpgradeable._paused (1)</text>
<text text-anchor="middle" x="1511.65" y="-99.9" font-family="Courier New" font-size="14.00"> false </text>
<polyline fill="none" stroke="black" points="645.3,-91.7 1860.29,-91.7 "/>
<text text-anchor="middle" x="1252.33" y="-75.1" font-family="Courier New" font-size="14.00">uint256[49]: PausableUpgradeable.__gap (1568)</text>
<polyline fill="none" stroke="black" points="645.3,-66.9 1860.29,-66.9 "/>
<text text-anchor="middle" x="1252.43" y="-50.3" font-family="Courier New" font-size="14.00">uint256: ReentrancyGuardUpgradeable._status (32)</text>
<text text-anchor="middle" x="1252.43" y="-33.5" font-family="Courier New" font-size="14.00"> 1 </text>
<polyline fill="none" stroke="black" points="645.3,-25.3 1860.29,-25.3 "/>
<text text-anchor="middle" x="1252.74" y="-8.7" font-family="Courier New" font-size="14.00">uint256[49]: ReentrancyGuardUpgradeable.__gap (1568)</text>
</g>
</g>
</svg>
