<?xml version="1.0" encoding="UTF-8" standalone="no"?>
<!DOCTYPE svg PUBLIC "-//W3C//DTD SVG 1.1//EN"
 "http://www.w3.org/Graphics/SVG/1.1/DTD/svg11.dtd">
<!-- Generated by graphviz version 5.0.0 (20220707.1540)
 -->
<!-- Title: UmlClassDiagram Pages: 1 -->
<svg width="2256pt" height="1337pt"
 viewBox="0.00 0.00 2255.68 1337.00" xmlns="http://www.w3.org/2000/svg" xmlns:xlink="http://www.w3.org/1999/xlink">
<g id="graph0" class="graph" transform="scale(1 1) rotate(0) translate(4 1333)">
<title>UmlClassDiagram</title>
<polygon fill="white" stroke="transparent" points="-4,4 -4,-1333 2251.68,-1333 2251.68,4 -4,4"/>
<!-- 6 -->
<g id="node1" class="node">
<title>6</title>
<polygon fill="#f2f2f2" stroke="black" points="1380.46,-982.3 1380.46,-1115.9 1828.91,-1115.9 1828.91,-982.3 1380.46,-982.3"/>
<text text-anchor="middle" x="1604.69" y="-1099.3" font-family="Times,serif" font-size="14.00">&lt;&lt;Interface&gt;&gt;</text>
<text text-anchor="middle" x="1604.69" y="-1082.5" font-family="Times,serif" font-size="14.00">IERC1967</text>
<text text-anchor="middle" x="1604.69" y="-1065.7" font-family="Times,serif" font-size="14.00">lib/openzeppelin&#45;contracts/contracts/interfaces/IERC1967.sol</text>
<polyline fill="none" stroke="black" points="1380.46,-1057.5 1828.91,-1057.5 "/>
<text text-anchor="start" x="1388.46" y="-1040.9" font-family="Times,serif" font-size="14.00">Public:</text>
<text text-anchor="start" x="1388.46" y="-1024.1" font-family="Times,serif" font-size="14.00"> &#160;&#160;&#160;&lt;&lt;event&gt;&gt; Upgraded(implementation: address)</text>
<text text-anchor="start" x="1388.46" y="-1007.3" font-family="Times,serif" font-size="14.00"> &#160;&#160;&#160;&lt;&lt;event&gt;&gt; AdminChanged(previousAdmin: address, newAdmin: address)</text>
<text text-anchor="start" x="1388.46" y="-990.5" font-family="Times,serif" font-size="14.00"> &#160;&#160;&#160;&lt;&lt;event&gt;&gt; BeaconUpgraded(beacon: address)</text>
</g>
<!-- 7 -->
<g id="node2" class="node">
<title>7</title>
<polygon fill="#f2f2f2" stroke="black" points="1448.72,-84.5 1448.72,-184.5 1840.65,-184.5 1840.65,-84.5 1448.72,-84.5"/>
<text text-anchor="middle" x="1644.69" y="-167.9" font-family="Times,serif" font-size="14.00">&lt;&lt;Interface&gt;&gt;</text>
<text text-anchor="middle" x="1644.69" y="-151.1" font-family="Times,serif" font-size="14.00">IERC1822Proxiable</text>
<text text-anchor="middle" x="1644.69" y="-134.3" font-family="Times,serif" font-size="14.00">lib/openzeppelin&#45;contracts/contracts/interfaces/draft&#45;IERC1822.sol</text>
<polyline fill="none" stroke="black" points="1448.72,-126.1 1840.65,-126.1 "/>
<text text-anchor="start" x="1456.72" y="-109.5" font-family="Times,serif" font-size="14.00">External:</text>
<text text-anchor="start" x="1456.72" y="-92.7" font-family="Times,serif" font-size="14.00"> &#160;&#160;&#160;&#160;proxiableUUID(): bytes32</text>
</g>
<!-- 2 -->
<g id="node3" class="node">
<title>2</title>
<polygon fill="#f2f2f2" stroke="black" points="958.19,-305.5 958.19,-422.3 1385.18,-422.3 1385.18,-305.5 958.19,-305.5"/>
<text text-anchor="middle" x="1171.69" y="-405.7" font-family="Times,serif" font-size="14.00">ERC1967Proxy</text>
<text text-anchor="middle" x="1171.69" y="-388.9" font-family="Times,serif" font-size="14.00">lib/openzeppelin&#45;contracts/contracts/proxy/ERC1967/ERC1967Proxy.sol</text>
<polyline fill="none" stroke="black" points="958.19,-380.7 1385.18,-380.7 "/>
<text text-anchor="start" x="966.19" y="-364.1" font-family="Times,serif" font-size="14.00">Internal:</text>
<text text-anchor="start" x="966.19" y="-347.3" font-family="Times,serif" font-size="14.00"> &#160;&#160;&#160;_implementation(): (impl: address)</text>
<text text-anchor="start" x="966.19" y="-330.5" font-family="Times,serif" font-size="14.00">Public:</text>
<text text-anchor="start" x="966.19" y="-313.7" font-family="Times,serif" font-size="14.00"> &#160;&#160;&#160;constructor(_logic: address, _data: bytes)</text>
</g>
<!-- 4 -->
<g id="node4" class="node">
<title>4</title>
<polygon fill="#f2f2f2" stroke="black" points="487.6,-459.3 487.6,-852.9 997.77,-852.9 997.77,-459.3 487.6,-459.3"/>
<text text-anchor="middle" x="742.69" y="-836.3" font-family="Times,serif" font-size="14.00">&lt;&lt;Abstract&gt;&gt;</text>
<text text-anchor="middle" x="742.69" y="-819.5" font-family="Times,serif" font-size="14.00">ERC1967Upgrade</text>
<text text-anchor="middle" x="742.69" y="-802.7" font-family="Times,serif" font-size="14.00">lib/openzeppelin&#45;contracts/contracts/proxy/ERC1967/ERC1967Upgrade.sol</text>
<polyline fill="none" stroke="black" points="487.6,-794.5 997.77,-794.5 "/>
<text text-anchor="start" x="495.6" y="-777.9" font-family="Times,serif" font-size="14.00">Private:</text>
<text text-anchor="start" x="495.6" y="-761.1" font-family="Times,serif" font-size="14.00"> &#160;&#160;_ROLLBACK_SLOT: bytes32</text>
<text text-anchor="start" x="495.6" y="-744.3" font-family="Times,serif" font-size="14.00">Internal:</text>
<text text-anchor="start" x="495.6" y="-727.5" font-family="Times,serif" font-size="14.00"> &#160;&#160;_IMPLEMENTATION_SLOT: bytes32</text>
<text text-anchor="start" x="495.6" y="-710.7" font-family="Times,serif" font-size="14.00"> &#160;&#160;_ADMIN_SLOT: bytes32</text>
<text text-anchor="start" x="495.6" y="-693.9" font-family="Times,serif" font-size="14.00"> &#160;&#160;_BEACON_SLOT: bytes32</text>
<polyline fill="none" stroke="black" points="487.6,-685.7 997.77,-685.7 "/>
<text text-anchor="start" x="495.6" y="-669.1" font-family="Times,serif" font-size="14.00">Private:</text>
<text text-anchor="start" x="495.6" y="-652.3" font-family="Times,serif" font-size="14.00"> &#160;&#160;&#160;_setImplementation(newImplementation: address)</text>
<text text-anchor="start" x="495.6" y="-635.5" font-family="Times,serif" font-size="14.00"> &#160;&#160;&#160;_setAdmin(newAdmin: address)</text>
<text text-anchor="start" x="495.6" y="-618.7" font-family="Times,serif" font-size="14.00"> &#160;&#160;&#160;_setBeacon(newBeacon: address)</text>
<text text-anchor="start" x="495.6" y="-601.9" font-family="Times,serif" font-size="14.00">Internal:</text>
<text text-anchor="start" x="495.6" y="-585.1" font-family="Times,serif" font-size="14.00"> &#160;&#160;&#160;_getImplementation(): address</text>
<text text-anchor="start" x="495.6" y="-568.3" font-family="Times,serif" font-size="14.00"> &#160;&#160;&#160;_upgradeTo(newImplementation: address)</text>
<text text-anchor="start" x="495.6" y="-551.5" font-family="Times,serif" font-size="14.00"> &#160;&#160;&#160;_upgradeToAndCall(newImplementation: address, data: bytes, forceCall: bool)</text>
<text text-anchor="start" x="495.6" y="-534.7" font-family="Times,serif" font-size="14.00"> &#160;&#160;&#160;_upgradeToAndCallUUPS(newImplementation: address, data: bytes, forceCall: bool)</text>
<text text-anchor="start" x="495.6" y="-517.9" font-family="Times,serif" font-size="14.00"> &#160;&#160;&#160;_getAdmin(): address</text>
<text text-anchor="start" x="495.6" y="-501.1" font-family="Times,serif" font-size="14.00"> &#160;&#160;&#160;_changeAdmin(newAdmin: address)</text>
<text text-anchor="start" x="495.6" y="-484.3" font-family="Times,serif" font-size="14.00"> &#160;&#160;&#160;_getBeacon(): address</text>
<text text-anchor="start" x="495.6" y="-467.5" font-family="Times,serif" font-size="14.00"> &#160;&#160;&#160;_upgradeBeaconToAndCall(newBeacon: address, data: bytes, forceCall: bool)</text>
</g>
<!-- 2&#45;&gt;4 -->
<g id="edge2" class="edge">
<title>2&#45;&gt;4</title>
<path fill="none" stroke="black" d="M1066.23,-422.37C1052.84,-430.14 1039.21,-438.27 1023.42,-448.19"/>
<polygon fill="none" stroke="black" points="1017.62,-439.44 998.05,-464.48 1028.97,-457.11 1017.62,-439.44"/>
</g>
<!-- 3 -->
<g id="node5" class="node">
<title>3</title>
<polygon fill="#f2f2f2" stroke="black" points="1015.36,-555.7 1015.36,-756.5 1328.01,-756.5 1328.01,-555.7 1015.36,-555.7"/>
<text text-anchor="middle" x="1171.69" y="-739.9" font-family="Times,serif" font-size="14.00">&lt;&lt;Abstract&gt;&gt;</text>
<text text-anchor="middle" x="1171.69" y="-723.1" font-family="Times,serif" font-size="14.00">Proxy</text>
<text text-anchor="middle" x="1171.69" y="-706.3" font-family="Times,serif" font-size="14.00">lib/openzeppelin&#45;contracts/contracts/proxy/Proxy.sol</text>
<polyline fill="none" stroke="black" points="1015.36,-698.1 1328.01,-698.1 "/>
<text text-anchor="start" x="1023.36" y="-681.5" font-family="Times,serif" font-size="14.00">Internal:</text>
<text text-anchor="start" x="1023.36" y="-664.7" font-family="Times,serif" font-size="14.00"> &#160;&#160;&#160;&lt;&lt;abstract&gt;&gt; _implementation(): address</text>
<text text-anchor="start" x="1023.36" y="-647.9" font-family="Times,serif" font-size="14.00"> &#160;&#160;&#160;_delegate(implementation: address)</text>
<text text-anchor="start" x="1023.36" y="-631.1" font-family="Times,serif" font-size="14.00"> &#160;&#160;&#160;_fallback()</text>
<text text-anchor="start" x="1023.36" y="-614.3" font-family="Times,serif" font-size="14.00"> &#160;&#160;&#160;_beforeFallback()</text>
<text text-anchor="start" x="1023.36" y="-597.5" font-family="Times,serif" font-size="14.00">External:</text>
<text text-anchor="start" x="1023.36" y="-580.7" font-family="Times,serif" font-size="14.00"> &#160;&#160;&#160;&lt;&lt;payable&gt;&gt; null()</text>
<text text-anchor="start" x="1023.36" y="-563.9" font-family="Times,serif" font-size="14.00"> &#160;&#160;&#160;&lt;&lt;payable&gt;&gt; null()</text>
</g>
<!-- 2&#45;&gt;3 -->
<g id="edge1" class="edge">
<title>2&#45;&gt;3</title>
<path fill="none" stroke="black" d="M1171.69,-422.58C1171.69,-452.14 1171.69,-489.43 1171.69,-525.43"/>
<polygon fill="none" stroke="black" points="1161.19,-525.5 1171.69,-555.5 1182.19,-525.5 1161.19,-525.5"/>
</g>
<!-- 4&#45;&gt;6 -->
<g id="edge3" class="edge">
<title>4&#45;&gt;6</title>
<path fill="none" stroke="black" stroke-dasharray="5,2" d="M997.91,-849.88C1000.83,-851.09 1003.75,-852.27 1006.69,-853.4 1158.73,-912.17 1218.45,-833.79 1371.69,-889.4 1418.99,-906.57 1465.88,-935.55 1505.06,-964.08"/>
<polygon fill="none" stroke="black" points="1498.74,-972.46 1529.01,-982.15 1511.39,-955.7 1498.74,-972.46"/>
</g>
<!-- 5 -->
<g id="node6" class="node">
<title>5</title>
<polygon fill="#f2f2f2" stroke="black" points="0,-999.1 0,-1099.1 369.37,-1099.1 369.37,-999.1 0,-999.1"/>
<text text-anchor="middle" x="184.69" y="-1082.5" font-family="Times,serif" font-size="14.00">&lt;&lt;Interface&gt;&gt;</text>
<text text-anchor="middle" x="184.69" y="-1065.7" font-family="Times,serif" font-size="14.00">IBeacon</text>
<text text-anchor="middle" x="184.69" y="-1048.9" font-family="Times,serif" font-size="14.00">lib/openzeppelin&#45;contracts/contracts/proxy/beacon/IBeacon.sol</text>
<polyline fill="none" stroke="black" points="0,-1040.7 369.37,-1040.7 "/>
<text text-anchor="start" x="8" y="-1024.1" font-family="Times,serif" font-size="14.00">External:</text>
<text text-anchor="start" x="8" y="-1007.3" font-family="Times,serif" font-size="14.00"> &#160;&#160;&#160;&#160;implementation(): address</text>
</g>
<!-- 4&#45;&gt;5 -->
<g id="edge6" class="edge">
<title>4&#45;&gt;5</title>
<path fill="none" stroke="black" stroke-dasharray="5,2" d="M487.23,-814.09C449.99,-838.58 412.5,-864.15 377.69,-889.4 333.1,-921.74 285.26,-961.04 248.37,-992.44"/>
<polygon fill="black" stroke="black" points="246,-989.86 240.67,-999.01 250.55,-995.18 246,-989.86"/>
</g>
<!-- 8 -->
<g id="node9" class="node">
<title>8</title>
<polygon fill="#f2f2f2" stroke="black" points="387.02,-889.9 387.02,-1208.3 1008.35,-1208.3 1008.35,-889.9 387.02,-889.9"/>
<text text-anchor="middle" x="697.69" y="-1191.7" font-family="Times,serif" font-size="14.00">&lt;&lt;Library&gt;&gt;</text>
<text text-anchor="middle" x="697.69" y="-1174.9" font-family="Times,serif" font-size="14.00">Address</text>
<text text-anchor="middle" x="697.69" y="-1158.1" font-family="Times,serif" font-size="14.00">lib/openzeppelin&#45;contracts/contracts/utils/Address.sol</text>
<polyline fill="none" stroke="black" points="387.02,-1149.9 1008.35,-1149.9 "/>
<text text-anchor="start" x="395.02" y="-1133.3" font-family="Times,serif" font-size="14.00">Private:</text>
<text text-anchor="start" x="395.02" y="-1116.5" font-family="Times,serif" font-size="14.00"> &#160;&#160;&#160;_revert(returndata: bytes, errorMessage: string)</text>
<text text-anchor="start" x="395.02" y="-1099.7" font-family="Times,serif" font-size="14.00">Internal:</text>
<text text-anchor="start" x="395.02" y="-1082.9" font-family="Times,serif" font-size="14.00"> &#160;&#160;&#160;isContract(account: address): bool</text>
<text text-anchor="start" x="395.02" y="-1066.1" font-family="Times,serif" font-size="14.00"> &#160;&#160;&#160;sendValue(recipient: address, amount: uint256)</text>
<text text-anchor="start" x="395.02" y="-1049.3" font-family="Times,serif" font-size="14.00"> &#160;&#160;&#160;functionCall(target: address, data: bytes): bytes</text>
<text text-anchor="start" x="395.02" y="-1032.5" font-family="Times,serif" font-size="14.00"> &#160;&#160;&#160;functionCall(target: address, data: bytes, errorMessage: string): bytes</text>
<text text-anchor="start" x="395.02" y="-1015.7" font-family="Times,serif" font-size="14.00"> &#160;&#160;&#160;functionCallWithValue(target: address, data: bytes, value: uint256): bytes</text>
<text text-anchor="start" x="395.02" y="-998.9" font-family="Times,serif" font-size="14.00"> &#160;&#160;&#160;functionCallWithValue(target: address, data: bytes, value: uint256, errorMessage: string): bytes</text>
<text text-anchor="start" x="395.02" y="-982.1" font-family="Times,serif" font-size="14.00"> &#160;&#160;&#160;functionStaticCall(target: address, data: bytes): bytes</text>
<text text-anchor="start" x="395.02" y="-965.3" font-family="Times,serif" font-size="14.00"> &#160;&#160;&#160;functionStaticCall(target: address, data: bytes, errorMessage: string): bytes</text>
<text text-anchor="start" x="395.02" y="-948.5" font-family="Times,serif" font-size="14.00"> &#160;&#160;&#160;functionDelegateCall(target: address, data: bytes): bytes</text>
<text text-anchor="start" x="395.02" y="-931.7" font-family="Times,serif" font-size="14.00"> &#160;&#160;&#160;functionDelegateCall(target: address, data: bytes, errorMessage: string): bytes</text>
<text text-anchor="start" x="395.02" y="-914.9" font-family="Times,serif" font-size="14.00"> &#160;&#160;&#160;verifyCallResultFromTarget(target: address, success: bool, returndata: bytes, errorMessage: string): bytes</text>
<text text-anchor="start" x="395.02" y="-898.1" font-family="Times,serif" font-size="14.00"> &#160;&#160;&#160;verifyCallResult(success: bool, returndata: bytes, errorMessage: string): bytes</text>
</g>
<!-- 4&#45;&gt;8 -->
<g id="edge5" class="edge">
<title>4&#45;&gt;8</title>
<path fill="none" stroke="black" stroke-dasharray="5,2" d="M720.12,-853.17C719.09,-862.1 718.06,-871.03 717.05,-879.88"/>
<polygon fill="black" stroke="black" points="713.57,-879.51 715.9,-889.84 720.52,-880.31 713.57,-879.51"/>
</g>
<!-- 9 -->
<g id="node10" class="node">
<title>9</title>
<polygon fill="#f2f2f2" stroke="black" points="1026.69,-940.3 1026.69,-1157.9 1362.68,-1157.9 1362.68,-940.3 1026.69,-940.3"/>
<text text-anchor="middle" x="1194.69" y="-1141.3" font-family="Times,serif" font-size="14.00">&lt;&lt;Library&gt;&gt;</text>
<text text-anchor="middle" x="1194.69" y="-1124.5" font-family="Times,serif" font-size="14.00">StorageSlot</text>
<text text-anchor="middle" x="1194.69" y="-1107.7" font-family="Times,serif" font-size="14.00">lib/openzeppelin&#45;contracts/contracts/utils/StorageSlot.sol</text>
<polyline fill="none" stroke="black" points="1026.69,-1099.5 1362.68,-1099.5 "/>
<text text-anchor="start" x="1034.69" y="-1082.9" font-family="Times,serif" font-size="14.00">Internal:</text>
<text text-anchor="start" x="1034.69" y="-1066.1" font-family="Times,serif" font-size="14.00"> &#160;&#160;&#160;getAddressSlot(slot: bytes32): (r: AddressSlot)</text>
<text text-anchor="start" x="1034.69" y="-1049.3" font-family="Times,serif" font-size="14.00"> &#160;&#160;&#160;getBooleanSlot(slot: bytes32): (r: BooleanSlot)</text>
<text text-anchor="start" x="1034.69" y="-1032.5" font-family="Times,serif" font-size="14.00"> &#160;&#160;&#160;getBytes32Slot(slot: bytes32): (r: Bytes32Slot)</text>
<text text-anchor="start" x="1034.69" y="-1015.7" font-family="Times,serif" font-size="14.00"> &#160;&#160;&#160;getUint256Slot(slot: bytes32): (r: Uint256Slot)</text>
<text text-anchor="start" x="1034.69" y="-998.9" font-family="Times,serif" font-size="14.00"> &#160;&#160;&#160;getStringSlot(slot: bytes32): (r: StringSlot)</text>
<text text-anchor="start" x="1034.69" y="-982.1" font-family="Times,serif" font-size="14.00"> &#160;&#160;&#160;getStringSlot(store: string): (r: StringSlot)</text>
<text text-anchor="start" x="1034.69" y="-965.3" font-family="Times,serif" font-size="14.00"> &#160;&#160;&#160;getBytesSlot(slot: bytes32): (r: BytesSlot)</text>
<text text-anchor="start" x="1034.69" y="-948.5" font-family="Times,serif" font-size="14.00"> &#160;&#160;&#160;getBytesSlot(store: bytes): (r: BytesSlot)</text>
</g>
<!-- 4&#45;&gt;9 -->
<g id="edge4" class="edge">
<title>4&#45;&gt;9</title>
<path fill="none" stroke="black" stroke-dasharray="5,2" d="M975.65,-853.07C989.91,-865.32 1004.01,-877.5 1017.69,-889.4 1033.88,-903.5 1050.81,-918.42 1067.5,-933.25"/>
<polygon fill="black" stroke="black" points="1065.35,-936.02 1075.14,-940.06 1070,-930.79 1065.35,-936.02"/>
</g>
<!-- 0 -->
<g id="node7" class="node">
<title>0</title>
<polygon fill="#f2f2f2" stroke="black" points="1346.13,-572.5 1346.13,-739.7 1863.24,-739.7 1863.24,-572.5 1346.13,-572.5"/>
<text text-anchor="middle" x="1604.69" y="-723.1" font-family="Times,serif" font-size="14.00">&lt;&lt;Interface&gt;&gt;</text>
<text text-anchor="middle" x="1604.69" y="-706.3" font-family="Times,serif" font-size="14.00">ITransparentUpgradeableProxy</text>
<text text-anchor="middle" x="1604.69" y="-689.5" font-family="Times,serif" font-size="14.00">lib/openzeppelin&#45;contracts/contracts/proxy/transparent/TransparentUpgradeableProxy.sol</text>
<polyline fill="none" stroke="black" points="1346.13,-681.3 1863.24,-681.3 "/>
<text text-anchor="start" x="1354.13" y="-664.7" font-family="Times,serif" font-size="14.00">External:</text>
<text text-anchor="start" x="1354.13" y="-647.9" font-family="Times,serif" font-size="14.00"> &#160;&#160;&#160;&#160;admin(): address</text>
<text text-anchor="start" x="1354.13" y="-631.1" font-family="Times,serif" font-size="14.00"> &#160;&#160;&#160;&#160;implementation(): address</text>
<text text-anchor="start" x="1354.13" y="-614.3" font-family="Times,serif" font-size="14.00"> &#160;&#160;&#160;&#160;changeAdmin(address)</text>
<text text-anchor="start" x="1354.13" y="-597.5" font-family="Times,serif" font-size="14.00"> &#160;&#160;&#160;&#160;upgradeTo(address)</text>
<text text-anchor="start" x="1354.13" y="-580.7" font-family="Times,serif" font-size="14.00"> &#160;&#160;&#160;&#160;upgradeToAndCall(address, bytes)</text>
</g>
<!-- 0&#45;&gt;6 -->
<g id="edge7" class="edge">
<title>0&#45;&gt;6</title>
<path fill="none" stroke="black" stroke-dasharray="5,2" d="M1604.69,-740.02C1604.69,-802.05 1604.69,-887.02 1604.69,-952.02"/>
<polygon fill="none" stroke="black" points="1594.19,-952.13 1604.69,-982.13 1615.19,-952.13 1594.19,-952.13"/>
</g>
<!-- 1 -->
<g id="node8" class="node">
<title>1</title>
<polygon fill="#f2f2f2" stroke="black" points="913.13,-0.5 913.13,-268.5 1430.24,-268.5 1430.24,-0.5 913.13,-0.5"/>
<text text-anchor="middle" x="1171.69" y="-251.9" font-family="Times,serif" font-size="14.00">TransparentUpgradeableProxy</text>
<text text-anchor="middle" x="1171.69" y="-235.1" font-family="Times,serif" font-size="14.00">lib/openzeppelin&#45;contracts/contracts/proxy/transparent/TransparentUpgradeableProxy.sol</text>
<polyline fill="none" stroke="black" points="913.13,-226.9 1430.24,-226.9 "/>
<text text-anchor="start" x="921.13" y="-210.3" font-family="Times,serif" font-size="14.00">Private:</text>
<text text-anchor="start" x="921.13" y="-193.5" font-family="Times,serif" font-size="14.00"> &#160;&#160;&#160;_dispatchAdmin(): bytes</text>
<text text-anchor="start" x="921.13" y="-176.7" font-family="Times,serif" font-size="14.00"> &#160;&#160;&#160;_dispatchImplementation(): bytes</text>
<text text-anchor="start" x="921.13" y="-159.9" font-family="Times,serif" font-size="14.00"> &#160;&#160;&#160;_dispatchChangeAdmin(): bytes</text>
<text text-anchor="start" x="921.13" y="-143.1" font-family="Times,serif" font-size="14.00"> &#160;&#160;&#160;_dispatchUpgradeTo(): bytes</text>
<text text-anchor="start" x="921.13" y="-126.3" font-family="Times,serif" font-size="14.00"> &#160;&#160;&#160;_dispatchUpgradeToAndCall(): bytes</text>
<text text-anchor="start" x="921.13" y="-109.5" font-family="Times,serif" font-size="14.00"> &#160;&#160;&#160;_requireZeroValue()</text>
<text text-anchor="start" x="921.13" y="-92.7" font-family="Times,serif" font-size="14.00">Internal:</text>
<text text-anchor="start" x="921.13" y="-75.9" font-family="Times,serif" font-size="14.00"> &#160;&#160;&#160;_fallback()</text>
<text text-anchor="start" x="921.13" y="-59.1" font-family="Times,serif" font-size="14.00"> &#160;&#160;&#160;_admin(): address</text>
<text text-anchor="start" x="921.13" y="-42.3" font-family="Times,serif" font-size="14.00">Public:</text>
<text text-anchor="start" x="921.13" y="-25.5" font-family="Times,serif" font-size="14.00"> &#160;&#160;&#160;&lt;&lt;modifier&gt;&gt; ifAdmin()</text>
<text text-anchor="start" x="921.13" y="-8.7" font-family="Times,serif" font-size="14.00"> &#160;&#160;&#160;constructor(_logic: address, admin_: address, _data: bytes)</text>
</g>
<!-- 1&#45;&gt;2 -->
<g id="edge8" class="edge">
<title>1&#45;&gt;2</title>
<path fill="none" stroke="black" d="M1171.69,-268.77C1171.69,-270.97 1171.69,-273.15 1171.69,-275.33"/>
<polygon fill="none" stroke="black" points="1161.19,-275.46 1171.69,-305.46 1182.19,-275.46 1161.19,-275.46"/>
</g>
<!-- 1&#45;&gt;0 -->
<g id="edge9" class="edge">
<title>1&#45;&gt;0</title>
<path fill="none" stroke="black" stroke-dasharray="5,2" d="M1357.6,-268.61C1370.34,-280.36 1382.52,-292.54 1393.69,-305 1463.99,-383.47 1523.72,-488.68 1561.49,-563.21"/>
<polygon fill="black" stroke="black" points="1558.36,-564.79 1565.98,-572.15 1564.61,-561.64 1558.36,-564.79"/>
</g>
<!-- 10 -->
<g id="node11" class="node">
<title>10</title>
<polygon fill="#f2f2f2" stroke="black" points="141.69,-1245.3 141.69,-1328.5 477.68,-1328.5 477.68,-1245.3 141.69,-1245.3"/>
<text text-anchor="middle" x="309.69" y="-1311.9" font-family="Times,serif" font-size="14.00">&lt;&lt;Struct&gt;&gt;</text>
<text text-anchor="middle" x="309.69" y="-1295.1" font-family="Times,serif" font-size="14.00">AddressSlot</text>
<text text-anchor="middle" x="309.69" y="-1278.3" font-family="Times,serif" font-size="14.00">lib/openzeppelin&#45;contracts/contracts/utils/StorageSlot.sol</text>
<polyline fill="none" stroke="black" points="141.69,-1270.1 477.68,-1270.1 "/>
<text text-anchor="start" x="149.69" y="-1253.5" font-family="Times,serif" font-size="14.00">value: address</text>
</g>
<!-- 9&#45;&gt;10 -->
<g id="edge16" class="edge">
<title>9&#45;&gt;10</title>
<path fill="none" stroke="black" stroke-dasharray="5,2" d="M1087.87,-1158.27C1063.84,-1178.41 1037.01,-1196.85 1008.69,-1208.8 902.7,-1253.53 611.2,-1228.81 484.67,-1243.93"/>
<polygon fill="black" stroke="black" points="483.85,-1240.51 474.4,-1245.3 484.77,-1247.44 483.85,-1240.51"/>
</g>
<!-- 11 -->
<g id="node12" class="node">
<title>11</title>
<polygon fill="#f2f2f2" stroke="black" points="495.69,-1245.3 495.69,-1328.5 831.68,-1328.5 831.68,-1245.3 495.69,-1245.3"/>
<text text-anchor="middle" x="663.69" y="-1311.9" font-family="Times,serif" font-size="14.00">&lt;&lt;Struct&gt;&gt;</text>
<text text-anchor="middle" x="663.69" y="-1295.1" font-family="Times,serif" font-size="14.00">BooleanSlot</text>
<text text-anchor="middle" x="663.69" y="-1278.3" font-family="Times,serif" font-size="14.00">lib/openzeppelin&#45;contracts/contracts/utils/StorageSlot.sol</text>
<polyline fill="none" stroke="black" points="495.69,-1270.1 831.68,-1270.1 "/>
<text text-anchor="start" x="503.69" y="-1253.5" font-family="Times,serif" font-size="14.00">value: bool</text>
</g>
<!-- 9&#45;&gt;11 -->
<g id="edge17" class="edge">
<title>9&#45;&gt;11</title>
<path fill="none" stroke="black" stroke-dasharray="5,2" d="M1083.67,-1157.92C1060.5,-1177.32 1035.05,-1195.55 1008.69,-1208.8 940.04,-1243.31 912.51,-1229.09 839.89,-1243.13"/>
<polygon fill="black" stroke="black" points="838.92,-1239.76 829.83,-1245.2 840.33,-1246.62 838.92,-1239.76"/>
</g>
<!-- 12 -->
<g id="node13" class="node">
<title>12</title>
<polygon fill="#f2f2f2" stroke="black" points="849.69,-1245.3 849.69,-1328.5 1185.68,-1328.5 1185.68,-1245.3 849.69,-1245.3"/>
<text text-anchor="middle" x="1017.69" y="-1311.9" font-family="Times,serif" font-size="14.00">&lt;&lt;Struct&gt;&gt;</text>
<text text-anchor="middle" x="1017.69" y="-1295.1" font-family="Times,serif" font-size="14.00">Bytes32Slot</text>
<text text-anchor="middle" x="1017.69" y="-1278.3" font-family="Times,serif" font-size="14.00">lib/openzeppelin&#45;contracts/contracts/utils/StorageSlot.sol</text>
<polyline fill="none" stroke="black" points="849.69,-1270.1 1185.68,-1270.1 "/>
<text text-anchor="start" x="857.69" y="-1253.5" font-family="Times,serif" font-size="14.00">value: bytes32</text>
</g>
<!-- 9&#45;&gt;12 -->
<g id="edge18" class="edge">
<title>9&#45;&gt;12</title>
<path fill="none" stroke="black" stroke-dasharray="5,2" d="M1106.97,-1157.99C1086.09,-1185.64 1065.16,-1214.03 1048.78,-1237.02"/>
<polygon fill="black" stroke="black" points="1045.89,-1235.05 1042.96,-1245.23 1051.6,-1239.09 1045.89,-1235.05"/>
</g>
<!-- 13 -->
<g id="node14" class="node">
<title>13</title>
<polygon fill="#f2f2f2" stroke="black" points="1203.69,-1245.3 1203.69,-1328.5 1539.68,-1328.5 1539.68,-1245.3 1203.69,-1245.3"/>
<text text-anchor="middle" x="1371.69" y="-1311.9" font-family="Times,serif" font-size="14.00">&lt;&lt;Struct&gt;&gt;</text>
<text text-anchor="middle" x="1371.69" y="-1295.1" font-family="Times,serif" font-size="14.00">Uint256Slot</text>
<text text-anchor="middle" x="1371.69" y="-1278.3" font-family="Times,serif" font-size="14.00">lib/openzeppelin&#45;contracts/contracts/utils/StorageSlot.sol</text>
<polyline fill="none" stroke="black" points="1203.69,-1270.1 1539.68,-1270.1 "/>
<text text-anchor="start" x="1211.69" y="-1253.5" font-family="Times,serif" font-size="14.00">value: uint256</text>
</g>
<!-- 9&#45;&gt;13 -->
<g id="edge19" class="edge">
<title>9&#45;&gt;13</title>
<path fill="none" stroke="black" stroke-dasharray="5,2" d="M1268.95,-1157.99C1289.67,-1185.76 1311.46,-1214.28 1329.64,-1237.32"/>
<polygon fill="black" stroke="black" points="1326.95,-1239.57 1335.91,-1245.23 1332.44,-1235.22 1326.95,-1239.57"/>
</g>
<!-- 14 -->
<g id="node15" class="node">
<title>14</title>
<polygon fill="#f2f2f2" stroke="black" points="1557.69,-1245.3 1557.69,-1328.5 1893.68,-1328.5 1893.68,-1245.3 1557.69,-1245.3"/>
<text text-anchor="middle" x="1725.69" y="-1311.9" font-family="Times,serif" font-size="14.00">&lt;&lt;Struct&gt;&gt;</text>
<text text-anchor="middle" x="1725.69" y="-1295.1" font-family="Times,serif" font-size="14.00">StringSlot</text>
<text text-anchor="middle" x="1725.69" y="-1278.3" font-family="Times,serif" font-size="14.00">lib/openzeppelin&#45;contracts/contracts/utils/StorageSlot.sol</text>
<polyline fill="none" stroke="black" points="1557.69,-1270.1 1893.68,-1270.1 "/>
<text text-anchor="start" x="1565.69" y="-1253.5" font-family="Times,serif" font-size="14.00">value: string</text>
</g>
<!-- 9&#45;&gt;14 -->
<g id="edge20" class="edge">
<title>9&#45;&gt;14</title>
<path fill="none" stroke="black" stroke-dasharray="5,2" d="M1288.09,-1157.92C1310.87,-1177.32 1336.32,-1195.55 1362.69,-1208.8 1434.41,-1244.86 1461.25,-1227.72 1539.69,-1244.8 1542.34,-1245.38 1545.01,-1245.96 1547.71,-1246.56"/>
<polygon fill="black" stroke="black" points="1547.01,-1249.99 1557.53,-1248.72 1548.52,-1243.15 1547.01,-1249.99"/>
</g>
<!-- 15 -->
<g id="node16" class="node">
<title>15</title>
<polygon fill="#f2f2f2" stroke="black" points="1911.69,-1245.3 1911.69,-1328.5 2247.68,-1328.5 2247.68,-1245.3 1911.69,-1245.3"/>
<text text-anchor="middle" x="2079.69" y="-1311.9" font-family="Times,serif" font-size="14.00">&lt;&lt;Struct&gt;&gt;</text>
<text text-anchor="middle" x="2079.69" y="-1295.1" font-family="Times,serif" font-size="14.00">BytesSlot</text>
<text text-anchor="middle" x="2079.69" y="-1278.3" font-family="Times,serif" font-size="14.00">lib/openzeppelin&#45;contracts/contracts/utils/StorageSlot.sol</text>
<polyline fill="none" stroke="black" points="1911.69,-1270.1 2247.68,-1270.1 "/>
<text text-anchor="start" x="1919.69" y="-1253.5" font-family="Times,serif" font-size="14.00">value: bytes</text>
</g>
<!-- 9&#45;&gt;15 -->
<g id="edge21" class="edge">
<title>9&#45;&gt;15</title>
<path fill="none" stroke="black" stroke-dasharray="5,2" d="M1283.94,-1158.27C1307.53,-1178.41 1334.36,-1196.85 1362.69,-1208.8 1471.65,-1254.78 1776.71,-1227.37 1893.69,-1244.8 1896.21,-1245.18 1898.75,-1245.57 1901.31,-1245.98"/>
<polygon fill="black" stroke="black" points="1900.79,-1249.44 1911.23,-1247.63 1901.94,-1242.54 1900.79,-1249.44"/>
</g>
<!-- 10&#45;&gt;9 -->
<g id="edge10" class="edge">
<title>10&#45;&gt;9</title>
<path fill="none" stroke="black" d="M478.14,-1247.63C484.05,-1246.61 489.91,-1245.66 495.69,-1244.8 612.66,-1227.37 917.72,-1254.78 1026.69,-1208.8 1051.36,-1198.39 1074.9,-1183.05 1096.15,-1165.97"/>
<polygon fill="black" stroke="black" points="1096.19,-1165.93 1098.26,-1159.02 1105.43,-1158.27 1103.36,-1165.18 1096.19,-1165.93"/>
</g>
<!-- 11&#45;&gt;9 -->
<g id="edge11" class="edge">
<title>11&#45;&gt;9</title>
<path fill="none" stroke="black" d="M831.84,-1248.72C837.87,-1247.39 843.83,-1246.08 849.69,-1244.8 928.12,-1227.72 954.96,-1244.86 1026.69,-1208.8 1049.45,-1197.36 1071.52,-1182.21 1091.79,-1165.8"/>
<polygon fill="black" stroke="black" points="1092.05,-1165.59 1094.11,-1158.68 1101.28,-1157.92 1099.22,-1164.83 1092.05,-1165.59"/>
</g>
<!-- 12&#45;&gt;9 -->
<g id="edge12" class="edge">
<title>12&#45;&gt;9</title>
<path fill="none" stroke="black" d="M1053.46,-1245.23C1070.72,-1223.57 1092.15,-1195.7 1113.06,-1167.84"/>
<polygon fill="black" stroke="black" points="1113.23,-1167.6 1113.63,-1160.4 1120.42,-1157.99 1120.03,-1165.19 1113.23,-1167.6"/>
</g>
<!-- 13&#45;&gt;9 -->
<g id="edge13" class="edge">
<title>13&#45;&gt;9</title>
<path fill="none" stroke="black" d="M1346.41,-1245.23C1331.15,-1223.57 1310.73,-1195.7 1289.81,-1167.84"/>
<polygon fill="black" stroke="black" points="1289.62,-1167.58 1282.82,-1165.19 1282.4,-1157.99 1289.21,-1160.38 1289.62,-1167.58"/>
</g>
<!-- 14&#45;&gt;9 -->
<g id="edge14" class="edge">
<title>14&#45;&gt;9</title>
<path fill="none" stroke="black" d="M1559.54,-1245.2C1558.92,-1245.07 1558.3,-1244.93 1557.69,-1244.8 1479.25,-1227.72 1452.41,-1244.86 1380.69,-1208.8 1357.82,-1197.31 1335.65,-1182.07 1315.05,-1165.58"/>
<polygon fill="black" stroke="black" points="1314.98,-1165.53 1307.8,-1164.82 1305.7,-1157.92 1312.87,-1158.63 1314.98,-1165.53"/>
</g>
<!-- 15&#45;&gt;9 -->
<g id="edge15" class="edge">
<title>15&#45;&gt;9</title>
<path fill="none" stroke="black" d="M1914.97,-1245.3C1913.87,-1245.13 1912.78,-1244.96 1911.69,-1244.8 1794.71,-1227.37 1489.65,-1254.78 1380.69,-1208.8 1356.01,-1198.39 1332.47,-1183.05 1310.93,-1165.97"/>
<polygon fill="black" stroke="black" points="1310.8,-1165.86 1303.62,-1165.17 1301.5,-1158.27 1308.68,-1158.97 1310.8,-1165.86"/>
</g>
</g>
</svg>
