<?xml version="1.0" encoding="UTF-8" standalone="no"?>
<!DOCTYPE svg PUBLIC "-//W3C//DTD SVG 1.1//EN"
 "http://www.w3.org/Graphics/SVG/1.1/DTD/svg11.dtd">
<!-- Generated by graphviz version 5.0.0 (20220707.1540)
 -->
<!-- Title: StorageDiagram Pages: 1 -->
<svg width="1868pt" height="424pt"
 viewBox="0.00 0.00 1868.29 424.20" xmlns="http://www.w3.org/2000/svg" xmlns:xlink="http://www.w3.org/1999/xlink">
<g id="graph0" class="graph" transform="scale(1 1) rotate(0) translate(4 420.2)">
<title>StorageDiagram</title>
<polygon fill="white" stroke="transparent" points="-4,4 -4,-420.2 1864.29,-420.2 1864.29,4 -4,4"/>
<!-- 1 -->
<g id="node1" class="node">
<title>1</title>
<polygon fill="#f2f2f2" stroke="black" points="0,-0.5 0,-415.7 1860.29,-415.7 1860.29,-0.5 0,-0.5"/>
<text text-anchor="middle" x="930.14" y="-399.1" font-family="Courier New" font-size="14.00">RSETH &lt;&lt;Contract&gt;&gt;</text>
<text text-anchor="middle" x="930.14" y="-382.3" font-family="Courier New" font-size="14.00">0x8e2fe2f55f295f3f141213789796fa79e709ef23</text>
<polyline fill="none" stroke="black" points="0,-374.1 1860.29,-374.1 "/>
<text text-anchor="middle" x="37.4" y="-357.5" font-family="Courier New" font-size="14.00">slot</text>
<text text-anchor="middle" x="37.4" y="-340.7" font-family="Courier New" font-size="14.00"> &#160;</text>
<polyline fill="none" stroke="black" points="0,-332.5 74.81,-332.5 "/>
<text text-anchor="middle" x="37.4" y="-315.9" font-family="Courier New" font-size="14.00">0</text>
<text text-anchor="middle" x="37.4" y="-299.1" font-family="Courier New" font-size="14.00"> &#160;</text>
<polyline fill="none" stroke="black" points="0,-290.9 74.81,-290.9 "/>
<text text-anchor="middle" x="37.4" y="-274.3" font-family="Courier New" font-size="14.00">1&#45;50 </text>
<polyline fill="none" stroke="black" points="0,-266.1 74.81,-266.1 "/>
<text text-anchor="middle" x="37.4" y="-249.5" font-family="Courier New" font-size="14.00">51 </text>
<polyline fill="none" stroke="black" points="0,-241.3 74.81,-241.3 "/>
<text text-anchor="middle" x="37.4" y="-224.7" font-family="Courier New" font-size="14.00">52 </text>
<polyline fill="none" stroke="black" points="0,-216.5 74.81,-216.5 "/>
<text text-anchor="middle" x="37.4" y="-199.9" font-family="Courier New" font-size="14.00">53</text>
<text text-anchor="middle" x="37.4" y="-183.1" font-family="Courier New" font-size="14.00"> &#160;</text>
<polyline fill="none" stroke="black" points="0,-174.9 74.81,-174.9 "/>
<text text-anchor="middle" x="37.4" y="-158.3" font-family="Courier New" font-size="14.00">54</text>
<text text-anchor="middle" x="37.4" y="-141.5" font-family="Courier New" font-size="14.00"> &#160;</text>
<polyline fill="none" stroke="black" points="0,-133.3 74.81,-133.3 "/>
<text text-anchor="middle" x="37.4" y="-116.7" font-family="Courier New" font-size="14.00">55</text>
<text text-anchor="middle" x="37.4" y="-99.9" font-family="Courier New" font-size="14.00"> &#160;</text>
<polyline fill="none" stroke="black" points="0,-91.7 74.81,-91.7 "/>
<text text-anchor="middle" x="37.4" y="-75.1" font-family="Courier New" font-size="14.00">56&#45;100 </text>
<polyline fill="none" stroke="black" points="0,-66.9 74.81,-66.9 "/>
<text text-anchor="middle" x="37.4" y="-50.3" font-family="Courier New" font-size="14.00">101</text>
<text text-anchor="middle" x="37.4" y="-33.5" font-family="Courier New" font-size="14.00"> &#160;</text>
<polyline fill="none" stroke="black" points="0,-25.3 74.81,-25.3 "/>
<text text-anchor="middle" x="37.4" y="-8.7" font-family="Courier New" font-size="14.00">102&#45;150</text>
<polyline fill="none" stroke="black" points="74.81,-0.5 74.81,-374.1 "/>
<text text-anchor="middle" x="360.05" y="-357.5" font-family="Courier New" font-size="14.00">value</text>
<text text-anchor="middle" x="360.05" y="-340.7" font-family="Courier New" font-size="14.00"> &#160;</text>
<polyline fill="none" stroke="black" points="74.81,-332.5 645.3,-332.5 "/>
<text text-anchor="middle" x="360.05" y="-315.9" font-family="Courier New" font-size="14.00">0x00000000000000000000947CB49334E6571CCBFEF1F1F1178D8469D65EC70001</text>
<text text-anchor="middle" x="360.05" y="-299.1" font-family="Courier New" font-size="14.00"> &#160;</text>
<polyline fill="none" stroke="black" points="74.81,-290.9 645.3,-290.9 "/>
<text text-anchor="middle" x="360.05" y="-274.3" font-family="Courier New" font-size="14.00"> </text>
<polyline fill="none" stroke="black" points="74.81,-266.1 645.3,-266.1 "/>
<text text-anchor="middle" x="360.05" y="-249.5" font-family="Courier New" font-size="14.00"> </text>
<polyline fill="none" stroke="black" points="74.81,-241.3 645.3,-241.3 "/>
<text text-anchor="middle" x="360.05" y="-224.7" font-family="Courier New" font-size="14.00"> </text>
<polyline fill="none" stroke="black" points="74.81,-216.5 645.3,-216.5 "/>
<text text-anchor="middle" x="360.05" y="-199.9" font-family="Courier New" font-size="14.00">0x0000000000000000000000000000000000000000000017C7F6F2DC6293D8527E</text>
<text text-anchor="middle" x="360.05" y="-183.1" font-family="Courier New" font-size="14.00"> &#160;</text>
<polyline fill="none" stroke="black" points="74.81,-174.9 645.3,-174.9 "/>
<text text-anchor="middle" x="360.05" y="-158.3" font-family="Courier New" font-size="14.00">0x727345544800000000000000000000000000000000000000000000000000000A</text>
<text text-anchor="middle" x="360.05" y="-141.5" font-family="Courier New" font-size="14.00"> &#160;</text>
<polyline fill="none" stroke="black" points="74.81,-133.3 645.3,-133.3 "/>
<text text-anchor="middle" x="360.05" y="-116.7" font-family="Courier New" font-size="14.00">0x727345544800000000000000000000000000000000000000000000000000000A</text>
<text text-anchor="middle" x="360.05" y="-99.9" font-family="Courier New" font-size="14.00"> &#160;</text>
<polyline fill="none" stroke="black" points="74.81,-91.7 645.3,-91.7 "/>
<text text-anchor="middle" x="360.05" y="-75.1" font-family="Courier New" font-size="14.00"> </text>
<polyline fill="none" stroke="black" points="74.81,-66.9 645.3,-66.9 "/>
<text text-anchor="middle" x="360.05" y="-50.3" font-family="Courier New" font-size="14.00">0x0000000000000000000000000000000000000000000000000000000000000000</text>
<text text-anchor="middle" x="360.05" y="-33.5" font-family="Courier New" font-size="14.00"> &#160;</text>
<polyline fill="none" stroke="black" points="74.81,-25.3 645.3,-25.3 "/>
<text text-anchor="middle" x="360.05" y="-8.7" font-family="Courier New" font-size="14.00"> </text>
<polyline fill="none" stroke="black" points="645.3,-0.5 645.3,-374.1 "/>
<text text-anchor="middle" x="1252.79" y="-357.5" font-family="Courier New" font-size="14.00">type: &lt;inherited contract&gt;.variable (bytes)</text>
<text text-anchor="middle" x="1252.79" y="-340.7" font-family="Courier New" font-size="14.00">decoded data</text>
<polyline fill="none" stroke="black" points="645.3,-332.5 1860.29,-332.5 "/>
<text text-anchor="middle" x="720.51" y="-307.5" font-family="Courier New" font-size="14.00">unallocated (10)</text>
<polyline fill="none" stroke="black" points="795.72,-290.9 795.72,-332.5 "/>
<text text-anchor="middle" x="1001.15" y="-315.9" font-family="Courier New" font-size="14.00">ILRTConfig: LRTConfigRoleChecker.lrtConfig (20)</text>
<text text-anchor="middle" x="1001.15" y="-299.1" font-family="Courier New" font-size="14.00"> 0x947Cb49334e6571ccBFEF1f1f1178d8469D65ec7 &#160;</text>
<polyline fill="none" stroke="black" points="1206.59,-290.9 1206.59,-332.5 "/>
<text text-anchor="middle" x="1370.01" y="-315.9" font-family="Courier New" font-size="14.00">bool: Initializable._initializing (1)</text>
<text text-anchor="middle" x="1370.01" y="-299.1" font-family="Courier New" font-size="14.00"> false &#160;</text>
<polyline fill="none" stroke="black" points="1533.44,-290.9 1533.44,-332.5 "/>
<text text-anchor="middle" x="1696.86" y="-315.9" font-family="Courier New" font-size="14.00">uint8: Initializable._initialized (1)</text>
<text text-anchor="middle" x="1696.86" y="-299.1" font-family="Courier New" font-size="14.00"> 1 </text>
<polyline fill="none" stroke="black" points="645.3,-290.9 1860.29,-290.9 "/>
<text text-anchor="middle" x="1252.63" y="-274.3" font-family="Courier New" font-size="14.00">uint256[50]: ContextUpgradeable.__gap (1600)</text>
<polyline fill="none" stroke="black" points="645.3,-266.1 1860.29,-266.1 "/>
<text text-anchor="middle" x="1252.44" y="-249.5" font-family="Courier New" font-size="14.00">mapping(address=&gt;uint256): ERC20Upgradeable._balances (32)</text>
<polyline fill="none" stroke="black" points="645.3,-241.3 1860.29,-241.3 "/>
<text text-anchor="middle" x="1252.45" y="-224.7" font-family="Courier New" font-size="14.00">mapping(address=&gt;mapping(address=&gt;uint256)): ERC20Upgradeable._allowances (32)</text>
<polyline fill="none" stroke="black" points="645.3,-216.5 1860.29,-216.5 "/>
<text text-anchor="middle" x="1252.43" y="-199.9" font-family="Courier New" font-size="14.00">uint256: ERC20Upgradeable._totalSupply (32)</text>
<text text-anchor="middle" x="1252.43" y="-183.1" font-family="Courier New" font-size="14.00"> 112,303,125,704,063,680,270,974 </text>
<polyline fill="none" stroke="black" points="645.3,-174.9 1860.29,-174.9 "/>
<text text-anchor="middle" x="1252.32" y="-158.3" font-family="Courier New" font-size="14.00">string: ERC20Upgradeable._name (32)</text>
<text text-anchor="middle" x="1252.32" y="-141.5" font-family="Courier New" font-size="14.00"> &quot;rsETH&quot; </text>
<polyline fill="none" stroke="black" points="645.3,-133.3 1860.29,-133.3 "/>
<text text-anchor="middle" x="1252.73" y="-116.7" font-family="Courier New" font-size="14.00">string: ERC20Upgradeable._symbol (32)</text>
<text text-anchor="middle" x="1252.73" y="-99.9" font-family="Courier New" font-size="14.00"> &quot;rsETH&quot; </text>
<polyline fill="none" stroke="black" points="645.3,-91.7 1860.29,-91.7 "/>
<text text-anchor="middle" x="1252.73" y="-75.1" font-family="Courier New" font-size="14.00">uint256[45]: ERC20Upgradeable.__gap (1440)</text>
<polyline fill="none" stroke="black" points="645.3,-66.9 1860.29,-66.9 "/>
<text text-anchor="middle" x="904.51" y="-41.9" font-family="Courier New" font-size="14.00">unallocated (31)</text>
<polyline fill="none" stroke="black" points="1163.72,-25.3 1163.72,-66.9 "/>
<text text-anchor="middle" x="1511.65" y="-50.3" font-family="Courier New" font-size="14.00">bool: PausableUpgradeable._paused (1)</text>
<text text-anchor="middle" x="1511.65" y="-33.5" font-family="Courier New" font-size="14.00"> false </text>
<polyline fill="none" stroke="black" points="645.3,-25.3 1860.29,-25.3 "/>
<text text-anchor="middle" x="1252.33" y="-8.7" font-family="Courier New" font-size="14.00">uint256[49]: PausableUpgradeable.__gap (1568)</text>
</g>
</g>
</svg>
