<?xml version="1.0" encoding="us-ascii" standalone="no"?><svg xmlns="http://www.w3.org/2000/svg" xmlns:xlink="http://www.w3.org/1999/xlink" contentStyleType="text/css" height="384px" preserveAspectRatio="none" style="width:600px;height:384px;background:#FFFFFF;" version="1.1" viewBox="0 0 600 384" width="600px" zoomAndPan="magnify"><defs/><g><text fill="#000000" font-family="sans-serif" font-size="14" font-weight="bold" lengthAdjust="spacing" textLength="572" x="10" y="28.5352">0xe55da86992e590385490bcf45e444d205d6b757036eac284759416f7c2e46c8b</text><text fill="#000000" font-family="sans-serif" font-size="14" lengthAdjust="spacing" textLength="406" x="93" y="372.2188">mainnet, block 19129343, Wed, 31 Jan 2024 22:09:35 GMT</text><line style="stroke:#181818;stroke-width:0.5;stroke-dasharray:5.0,5.0;" x1="172.75" x2="172.75" y1="135.4648" y2="264.707"/><line style="stroke:#181818;stroke-width:0.5;stroke-dasharray:5.0,5.0;" x1="342.75" x2="342.75" y1="135.4648" y2="264.707"/><line style="stroke:#181818;stroke-width:0.5;stroke-dasharray:5.0,5.0;" x1="476.75" x2="476.75" y1="135.4648" y2="264.707"/><text fill="#000000" font-family="sans-serif" font-size="14" font-style="italic" lengthAdjust="spacing" textLength="125" x="107.75" y="116.0234">&#171;(angryhawk.eth)&#187;</text><text fill="#000000" font-family="sans-serif" font-size="14" lengthAdjust="spacing" textLength="93" x="123.75" y="132.5117">0x7bc0..Af7d</text><ellipse cx="173.25" cy="50.9883" fill="#E2E2F0" rx="8" ry="8" style="stroke:#181818;stroke-width:0.5;"/><path d="M173.25,58.9883 L173.25,85.9883 M160.25,66.9883 L186.25,66.9883 M173.25,85.9883 L160.25,100.9883 M173.25,85.9883 L186.25,100.9883 " fill="none" style="stroke:#181818;stroke-width:0.5;"/><text fill="#000000" font-family="sans-serif" font-size="14" font-style="italic" lengthAdjust="spacing" textLength="125" x="107.75" y="277.2422">&#171;(angryhawk.eth)&#187;</text><text fill="#000000" font-family="sans-serif" font-size="14" lengthAdjust="spacing" textLength="93" x="123.75" y="293.7305">0x7bc0..Af7d</text><ellipse cx="173.25" cy="305.1836" fill="#E2E2F0" rx="8" ry="8" style="stroke:#181818;stroke-width:0.5;"/><path d="M173.25,313.1836 L173.25,340.1836 M160.25,321.1836 L186.25,321.1836 M173.25,340.1836 L160.25,355.1836 M173.25,340.1836 L186.25,355.1836 " fill="none" style="stroke:#181818;stroke-width:0.5;"/><rect fill="#E2E2F0" height="46.9766" rx="2.5" ry="2.5" style="stroke:#181818;stroke-width:0.5;" width="135" x="275.75" y="87.4883"/><text fill="#000000" font-family="sans-serif" font-size="14" font-style="italic" lengthAdjust="spacing" textLength="121" x="282.75" y="108.0234">&#171;LRTDepositPool&#187;</text><text fill="#000000" font-family="sans-serif" font-size="14" lengthAdjust="spacing" textLength="99" x="293.75" y="124.5117">0x0366..375D</text><rect fill="#E2E2F0" height="46.9766" rx="2.5" ry="2.5" style="stroke:#181818;stroke-width:0.5;" width="135" x="275.75" y="263.707"/><text fill="#000000" font-family="sans-serif" font-size="14" font-style="italic" lengthAdjust="spacing" textLength="121" x="282.75" y="284.2422">&#171;LRTDepositPool&#187;</text><text fill="#000000" font-family="sans-serif" font-size="14" lengthAdjust="spacing" textLength="99" x="293.75" y="300.7305">0x0366..375D</text><rect fill="#E2E2F0" height="79.9531" rx="2.5" ry="2.5" style="stroke:#181818;stroke-width:0.5;" width="113" x="420.75" y="54.5117"/><text fill="#000000" font-family="sans-serif" font-size="14" font-style="italic" lengthAdjust="spacing" textLength="54" x="450.25" y="75.0469">&#171;rsETH&#187;</text><text fill="#000000" font-family="sans-serif" font-size="14" font-style="italic" lengthAdjust="spacing" textLength="64" x="445.25" y="91.5352">&#171;(rsETH)&#187;</text><text fill="#000000" font-family="sans-serif" font-size="14" font-style="italic" lengthAdjust="spacing" textLength="58" x="448.25" y="108.0234">&#171;RSETH&#187;</text><text fill="#000000" font-family="sans-serif" font-size="14" lengthAdjust="spacing" textLength="99" x="427.75" y="124.5117">0xA129..e5A7</text><rect fill="#E2E2F0" height="79.9531" rx="2.5" ry="2.5" style="stroke:#181818;stroke-width:0.5;" width="113" x="420.75" y="263.707"/><text fill="#000000" font-family="sans-serif" font-size="14" font-style="italic" lengthAdjust="spacing" textLength="54" x="450.25" y="284.2422">&#171;rsETH&#187;</text><text fill="#000000" font-family="sans-serif" font-size="14" font-style="italic" lengthAdjust="spacing" textLength="64" x="445.25" y="300.7305">&#171;(rsETH)&#187;</text><text fill="#000000" font-family="sans-serif" font-size="14" font-style="italic" lengthAdjust="spacing" textLength="58" x="448.25" y="317.2188">&#171;RSETH&#187;</text><text fill="#000000" font-family="sans-serif" font-size="14" lengthAdjust="spacing" textLength="99" x="427.75" y="333.707">0xA129..e5A7</text><polygon fill="#181818" points="331.25,162.7754,341.25,166.7754,331.25,170.7754,335.25,166.7754" style="stroke:#181818;stroke-width:1.0;"/><line style="stroke:#181818;stroke-width:1.0;" x1="173.25" x2="337.25" y1="166.7754" y2="166.7754"/><text fill="#000000" font-family="sans-serif" font-size="13" lengthAdjust="spacing" textLength="117" x="180.25" y="162.0332">Transfer 0.1 stETH</text><polygon fill="#181818" points="184.25,192.0859,174.25,196.0859,184.25,200.0859,180.25,196.0859" style="stroke:#181818;stroke-width:1.0;"/><ellipse cx="476.75" cy="195.3359" fill="none" rx="4" ry="4" style="stroke:#181818;stroke-width:1.5;"/><line style="stroke:#181818;stroke-width:1.0;" x1="178.25" x2="472.25" y1="196.0859" y2="196.0859"/><text fill="#000000" font-family="sans-serif" font-size="13" lengthAdjust="spacing" textLength="253" x="190.25" y="191.3438">Transfer 0.099509921007720754 rsETH</text><path d="M59.25,209.0859 L59.25,249.0859 L287.25,249.0859 L287.25,219.0859 L277.25,209.0859 L59.25,209.0859 " fill="#00FFFF" style="stroke:#181818;stroke-width:0.5;"/><path d="M277.25,209.0859 L277.25,219.0859 L287.25,219.0859 L277.25,209.0859 " fill="#00FFFF" style="stroke:#181818;stroke-width:0.5;"/><text fill="#000000" font-family="sans-serif" font-size="13" lengthAdjust="spacing" textLength="69" x="65.25" y="226.6543">-0.1 stETH</text><text fill="#000000" font-family="sans-serif" font-size="13" lengthAdjust="spacing" textLength="207" x="65.25" y="241.9648">+0.099509921007720754 rsETH</text><path d="M297.25,209.0859 L297.25,234.0859 L389.25,234.0859 L389.25,219.0859 L379.25,209.0859 L297.25,209.0859 " fill="#00FFFF" style="stroke:#181818;stroke-width:0.5;"/><path d="M379.25,209.0859 L379.25,219.0859 L389.25,219.0859 L379.25,209.0859 " fill="#00FFFF" style="stroke:#181818;stroke-width:0.5;"/><text fill="#000000" font-family="sans-serif" font-size="13" lengthAdjust="spacing" textLength="71" x="303.25" y="226.6543">+0.1 stETH</text><!--SRC=[VP1VIyCm5CNVyoakyyMnhQPfqYnZ50OJHHHa5do-JJDNDfFQnd_VthJ33b5y2DmJVkUSc_ZA7moCw8SHeiHvgXGpGj5aBhYYXTvoOJZd9QEYJ0if94rIWvhDkHIAn-bMQcPugkV5Y12DjQ-SXMUih3L-2iN1wJt4AcOguSaK7aqvXII66xJ0AEF0s8AgHIBWwYudgBrhkbLaeMaKhRQo706sq4aC0fRBSxHFpUSEt_UHyRjnbf4Q6r_fgaRhEsjOBusYH8frR-ra49trTfElJUtQojyxT_ZjN8KbeyY8bUoT6AGHA8EpQI_pwomBxVqqxiRDGtz7oB3SB1lQ5f0tQDkjQO16CRG-i6G8T87yTlqWgL8Y71PJAYMZKd3e2maXrda3xYrWGzyPlhmYcPqA9lya65j2bq781PooXjyvParEMN_pmnEE_01z0G00]--></g></svg>