<?xml version="1.0" encoding="UTF-8" standalone="no"?>
<!DOCTYPE svg PUBLIC "-//W3C//DTD SVG 1.1//EN"
 "http://www.w3.org/Graphics/SVG/1.1/DTD/svg11.dtd">
<!-- Generated by graphviz version 5.0.0 (20220707.1540)
 -->
<!-- Title: StorageDiagram Pages: 1 -->
<svg width="887pt" height="398pt"
 viewBox="0.00 0.00 886.93 397.80" xmlns="http://www.w3.org/2000/svg" xmlns:xlink="http://www.w3.org/1999/xlink">
<g id="graph0" class="graph" transform="scale(1 1) rotate(0) translate(4 393.8)">
<title>StorageDiagram</title>
<polygon fill="white" stroke="transparent" points="-4,4 -4,-393.8 882.93,-393.8 882.93,4 -4,4"/>
<!-- 1 -->
<g id="node1" class="node">
<title>1</title>
<polygon fill="#f2f2f2" stroke="black" points="0,-0.5 0,-389.3 878.93,-389.3 878.93,-0.5 0,-0.5"/>
<text text-anchor="middle" x="439.47" y="-372.7" font-family="Courier New" font-size="14.00">DelegationManager &lt;&lt;Contract&gt;&gt;</text>
<text text-anchor="middle" x="439.47" y="-355.9" font-family="Courier New" font-size="14.00">0xf97e97649da958d290e84e6d571c32f4b7f475e4</text>
<polyline fill="none" stroke="black" points="0,-347.7 878.93,-347.7 "/>
<text text-anchor="middle" x="37.4" y="-331.1" font-family="Courier New" font-size="14.00">slot</text>
<polyline fill="none" stroke="black" points="0,-322.9 74.81,-322.9 "/>
<text text-anchor="middle" x="37.4" y="-306.3" font-family="Courier New" font-size="14.00">0</text>
<polyline fill="none" stroke="black" points="0,-298.1 74.81,-298.1 "/>
<text text-anchor="middle" x="37.4" y="-281.5" font-family="Courier New" font-size="14.00">1&#45;50</text>
<polyline fill="none" stroke="black" points="0,-273.3 74.81,-273.3 "/>
<text text-anchor="middle" x="37.4" y="-256.7" font-family="Courier New" font-size="14.00">51</text>
<polyline fill="none" stroke="black" points="0,-248.5 74.81,-248.5 "/>
<text text-anchor="middle" x="37.4" y="-231.9" font-family="Courier New" font-size="14.00">52&#45;100</text>
<polyline fill="none" stroke="black" points="0,-223.7 74.81,-223.7 "/>
<text text-anchor="middle" x="37.4" y="-207.1" font-family="Courier New" font-size="14.00">101</text>
<polyline fill="none" stroke="black" points="0,-198.9 74.81,-198.9 "/>
<text text-anchor="middle" x="37.4" y="-182.3" font-family="Courier New" font-size="14.00">102</text>
<polyline fill="none" stroke="black" points="0,-174.1 74.81,-174.1 "/>
<text text-anchor="middle" x="37.4" y="-157.5" font-family="Courier New" font-size="14.00">103&#45;150</text>
<polyline fill="none" stroke="black" points="0,-149.3 74.81,-149.3 "/>
<text text-anchor="middle" x="37.4" y="-132.7" font-family="Courier New" font-size="14.00">151</text>
<polyline fill="none" stroke="black" points="0,-124.5 74.81,-124.5 "/>
<text text-anchor="middle" x="37.4" y="-107.9" font-family="Courier New" font-size="14.00">152</text>
<polyline fill="none" stroke="black" points="0,-99.7 74.81,-99.7 "/>
<text text-anchor="middle" x="37.4" y="-83.1" font-family="Courier New" font-size="14.00">153</text>
<polyline fill="none" stroke="black" points="0,-74.9 74.81,-74.9 "/>
<text text-anchor="middle" x="37.4" y="-58.3" font-family="Courier New" font-size="14.00">154</text>
<polyline fill="none" stroke="black" points="0,-50.1 74.81,-50.1 "/>
<text text-anchor="middle" x="37.4" y="-33.5" font-family="Courier New" font-size="14.00">155</text>
<polyline fill="none" stroke="black" points="0,-25.3 74.81,-25.3 "/>
<text text-anchor="middle" x="37.4" y="-8.7" font-family="Courier New" font-size="14.00">156&#45;201</text>
<polyline fill="none" stroke="black" points="74.81,-0.5 74.81,-347.7 "/>
<text text-anchor="middle" x="476.87" y="-331.1" font-family="Courier New" font-size="14.00">type: &lt;inherited contract&gt;.variable (bytes)</text>
<polyline fill="none" stroke="black" points="74.81,-322.9 878.93,-322.9 "/>
<text text-anchor="middle" x="150.02" y="-306.3" font-family="Courier New" font-size="14.00">unallocated (30)</text>
<polyline fill="none" stroke="black" points="225.23,-298.1 225.23,-322.9 "/>
<text text-anchor="middle" x="388.66" y="-306.3" font-family="Courier New" font-size="14.00">bool: Initializable._initializing (1)</text>
<polyline fill="none" stroke="black" points="552.08,-298.1 552.08,-322.9 "/>
<text text-anchor="middle" x="715.51" y="-306.3" font-family="Courier New" font-size="14.00">uint8: Initializable._initialized (1)</text>
<polyline fill="none" stroke="black" points="74.81,-298.1 878.93,-298.1 "/>
<text text-anchor="middle" x="476.64" y="-281.5" font-family="Courier New" font-size="14.00">uint256[50]: ContextUpgradeable.__gap (1600)</text>
<polyline fill="none" stroke="black" points="74.81,-273.3 878.93,-273.3 "/>
<text text-anchor="middle" x="227.52" y="-256.7" font-family="Courier New" font-size="14.00">unallocated (12)</text>
<polyline fill="none" stroke="black" points="380.23,-248.5 380.23,-273.3 "/>
<text text-anchor="middle" x="629.56" y="-256.7" font-family="Courier New" font-size="14.00">address: OwnableUpgradeable._owner (20)</text>
<polyline fill="none" stroke="black" points="74.81,-248.5 878.93,-248.5 "/>
<text text-anchor="middle" x="476.64" y="-231.9" font-family="Courier New" font-size="14.00">uint256[49]: OwnableUpgradeable.__gap (1568)</text>
<polyline fill="none" stroke="black" points="74.81,-223.7 878.93,-223.7 "/>
<text text-anchor="middle" x="214.52" y="-207.1" font-family="Courier New" font-size="14.00">unallocated (12)</text>
<polyline fill="none" stroke="black" points="354.23,-198.9 354.23,-223.7 "/>
<text text-anchor="middle" x="616.26" y="-207.1" font-family="Courier New" font-size="14.00">IPauserRegistry: Pausable.pauserRegistry (20)</text>
<polyline fill="none" stroke="black" points="74.81,-198.9 878.93,-198.9 "/>
<text text-anchor="middle" x="476.83" y="-182.3" font-family="Courier New" font-size="14.00">uint256: Pausable._paused (32)</text>
<polyline fill="none" stroke="black" points="74.81,-174.1 878.93,-174.1 "/>
<text text-anchor="middle" x="476.63" y="-157.5" font-family="Courier New" font-size="14.00">uint256[48]: Pausable.__gap (1536)</text>
<polyline fill="none" stroke="black" points="74.81,-149.3 878.93,-149.3 "/>
<text text-anchor="middle" x="476.85" y="-132.7" font-family="Courier New" font-size="14.00">bytes32: DelegationManagerStorage.DOMAIN_SEPARATOR (32)</text>
<polyline fill="none" stroke="black" points="74.81,-124.5 878.93,-124.5 "/>
<text text-anchor="middle" x="476.57" y="-107.9" font-family="Courier New" font-size="14.00">mapping(address=&gt;mapping(IStrategy=&gt;uint256)): DelegationManagerStorage.operatorShares (32)</text>
<polyline fill="none" stroke="black" points="74.81,-99.7 878.93,-99.7 "/>
<text text-anchor="middle" x="476.56" y="-83.1" font-family="Courier New" font-size="14.00">mapping(address=&gt;IDelegationTerms): DelegationManagerStorage.delegationTerms (32)</text>
<polyline fill="none" stroke="black" points="74.81,-74.9 878.93,-74.9 "/>
<text text-anchor="middle" x="476.46" y="-58.3" font-family="Courier New" font-size="14.00">mapping(address=&gt;address): DelegationManagerStorage.delegatedTo (32)</text>
<polyline fill="none" stroke="black" points="74.81,-50.1 878.93,-50.1 "/>
<text text-anchor="middle" x="476.45" y="-33.5" font-family="Courier New" font-size="14.00">mapping(address=&gt;uint256): DelegationManagerStorage.nonces (32)</text>
<polyline fill="none" stroke="black" points="74.81,-25.3 878.93,-25.3 "/>
<text text-anchor="middle" x="476.84" y="-8.7" font-family="Courier New" font-size="14.00">uint256[46]: DelegationManagerStorage.__gap (1472)</text>
</g>
</g>
</svg>
