<?xml version="1.0" encoding="UTF-8" standalone="no"?>
<!DOCTYPE svg PUBLIC "-//W3C//DTD SVG 1.1//EN"
 "http://www.w3.org/Graphics/SVG/1.1/DTD/svg11.dtd">
<!-- Generated by graphviz version 5.0.0 (20220707.1540)
 -->
<!-- Title: StorageDiagram Pages: 1 -->
<svg width="2675pt" height="531pt"
 viewBox="0.00 0.00 2674.80 530.80" xmlns="http://www.w3.org/2000/svg" xmlns:xlink="http://www.w3.org/1999/xlink">
<g id="graph0" class="graph" transform="scale(1 1) rotate(0) translate(4 526.8)">
<title>StorageDiagram</title>
<polygon fill="white" stroke="transparent" points="-4,4 -4,-526.8 2670.8,-526.8 2670.8,4 -4,4"/>
<!-- 3 -->
<g id="node1" class="node">
<title>3</title>
<polygon fill="#f2f2f2" stroke="black" points="0,-91.1 0,-522.3 1457.82,-522.3 1457.82,-91.1 0,-91.1"/>
<text text-anchor="middle" x="728.91" y="-505.7" font-family="Courier New" font-size="14.00">LRTConfig &lt;&lt;Contract&gt;&gt;</text>
<text text-anchor="middle" x="728.91" y="-488.9" font-family="Courier New" font-size="14.00">0xcdfD989e689872506E2897316b10e29c84AB087F</text>
<polyline fill="none" stroke="black" points="0,-480.7 1457.82,-480.7 "/>
<text text-anchor="middle" x="41.61" y="-464.1" font-family="Courier New" font-size="14.00">slot</text>
<text text-anchor="middle" x="41.61" y="-447.3" font-family="Courier New" font-size="14.00"> &#160;</text>
<polyline fill="none" stroke="black" points="0,-439.1 83.21,-439.1 "/>
<text text-anchor="middle" x="41.61" y="-422.5" font-family="Courier New" font-size="14.00">0</text>
<text text-anchor="middle" x="41.61" y="-405.7" font-family="Courier New" font-size="14.00"> &#160;</text>
<polyline fill="none" stroke="black" points="0,-397.5 83.21,-397.5 "/>
<text text-anchor="middle" x="41.61" y="-380.9" font-family="Courier New" font-size="14.00">1&#45;50 </text>
<polyline fill="none" stroke="black" points="0,-372.7 83.21,-372.7 "/>
<text text-anchor="middle" x="41.61" y="-356.1" font-family="Courier New" font-size="14.00">51&#45;100 </text>
<polyline fill="none" stroke="black" points="0,-347.9 83.21,-347.9 "/>
<text text-anchor="middle" x="41.61" y="-331.3" font-family="Courier New" font-size="14.00">101 </text>
<polyline fill="none" stroke="black" points="0,-323.1 83.21,-323.1 "/>
<text text-anchor="middle" x="41.61" y="-306.5" font-family="Courier New" font-size="14.00">102&#45;150 </text>
<polyline fill="none" stroke="black" points="0,-298.3 83.21,-298.3 "/>
<text text-anchor="middle" x="41.61" y="-281.7" font-family="Courier New" font-size="14.00">151 </text>
<polyline fill="none" stroke="black" points="0,-273.5 83.21,-273.5 "/>
<text text-anchor="middle" x="41.61" y="-256.9" font-family="Courier New" font-size="14.00">152 </text>
<polyline fill="none" stroke="black" points="0,-248.7 83.21,-248.7 "/>
<text text-anchor="middle" x="41.61" y="-232.1" font-family="Courier New" font-size="14.00">153 </text>
<polyline fill="none" stroke="black" points="0,-223.9 83.21,-223.9 "/>
<text text-anchor="middle" x="41.61" y="-207.3" font-family="Courier New" font-size="14.00">154 </text>
<polyline fill="none" stroke="black" points="0,-199.1 83.21,-199.1 "/>
<text text-anchor="middle" x="41.61" y="-182.5" font-family="Courier New" font-size="14.00">155 </text>
<polyline fill="none" stroke="black" points="0,-174.3 83.21,-174.3 "/>
<text text-anchor="middle" x="41.61" y="-157.7" font-family="Courier New" font-size="14.00">156</text>
<text text-anchor="middle" x="41.61" y="-140.9" font-family="Courier New" font-size="14.00"> &#160;</text>
<polyline fill="none" stroke="black" points="0,-132.7 83.21,-132.7 "/>
<text text-anchor="middle" x="41.61" y="-116.1" font-family="Courier New" font-size="14.00">157</text>
<text text-anchor="middle" x="41.61" y="-99.3" font-family="Courier New" font-size="14.00"> </text>
<polyline fill="none" stroke="black" points="83.21,-91.1 83.21,-480.7 "/>
<text text-anchor="middle" x="368.46" y="-464.1" font-family="Courier New" font-size="14.00">value</text>
<text text-anchor="middle" x="368.46" y="-447.3" font-family="Courier New" font-size="14.00"> &#160;</text>
<polyline fill="none" stroke="black" points="83.21,-439.1 653.7,-439.1 "/>
<text text-anchor="middle" x="368.46" y="-422.5" font-family="Courier New" font-size="14.00">0x0000000000000000000000000000000000000000000000000000000000000001</text>
<text text-anchor="middle" x="368.46" y="-405.7" font-family="Courier New" font-size="14.00"> &#160;</text>
<polyline fill="none" stroke="black" points="83.21,-397.5 653.7,-397.5 "/>
<text text-anchor="middle" x="368.46" y="-380.9" font-family="Courier New" font-size="14.00"> </text>
<polyline fill="none" stroke="black" points="83.21,-372.7 653.7,-372.7 "/>
<text text-anchor="middle" x="368.46" y="-356.1" font-family="Courier New" font-size="14.00"> </text>
<polyline fill="none" stroke="black" points="83.21,-347.9 653.7,-347.9 "/>
<text text-anchor="middle" x="368.46" y="-331.3" font-family="Courier New" font-size="14.00"> </text>
<polyline fill="none" stroke="black" points="83.21,-323.1 653.7,-323.1 "/>
<text text-anchor="middle" x="368.46" y="-306.5" font-family="Courier New" font-size="14.00"> </text>
<polyline fill="none" stroke="black" points="83.21,-298.3 653.7,-298.3 "/>
<text text-anchor="middle" x="368.46" y="-281.7" font-family="Courier New" font-size="14.00"> </text>
<polyline fill="none" stroke="black" points="83.21,-273.5 653.7,-273.5 "/>
<text text-anchor="middle" x="368.46" y="-256.9" font-family="Courier New" font-size="14.00"> </text>
<polyline fill="none" stroke="black" points="83.21,-248.7 653.7,-248.7 "/>
<text text-anchor="middle" x="368.46" y="-232.1" font-family="Courier New" font-size="14.00"> </text>
<polyline fill="none" stroke="black" points="83.21,-223.9 653.7,-223.9 "/>
<text text-anchor="middle" x="368.46" y="-207.3" font-family="Courier New" font-size="14.00"> </text>
<polyline fill="none" stroke="black" points="83.21,-199.1 653.7,-199.1 "/>
<text text-anchor="middle" x="368.46" y="-182.5" font-family="Courier New" font-size="14.00"> </text>
<polyline fill="none" stroke="black" points="83.21,-174.3 653.7,-174.3 "/>
<text text-anchor="middle" x="368.46" y="-157.7" font-family="Courier New" font-size="14.00">0x0000000000000000000000000000000000000000000000000000000000000007</text>
<text text-anchor="middle" x="368.46" y="-140.9" font-family="Courier New" font-size="14.00"> &#160;</text>
<polyline fill="none" stroke="black" points="83.21,-132.7 653.7,-132.7 "/>
<text text-anchor="middle" x="368.46" y="-116.1" font-family="Courier New" font-size="14.00">0x0000000000000000000000006EF3D766DFE02DC4BF04AAE9122EB9A0DED25615</text>
<text text-anchor="middle" x="368.46" y="-99.3" font-family="Courier New" font-size="14.00"> </text>
<polyline fill="none" stroke="black" points="653.7,-91.1 653.7,-480.7 "/>
<text text-anchor="middle" x="1055.76" y="-464.1" font-family="Courier New" font-size="14.00">type: &lt;inherited contract&gt;.variable (bytes)</text>
<text text-anchor="middle" x="1055.76" y="-447.3" font-family="Courier New" font-size="14.00">decoded data</text>
<polyline fill="none" stroke="black" points="653.7,-439.1 1457.82,-439.1 "/>
<text text-anchor="middle" x="728.91" y="-414.1" font-family="Courier New" font-size="14.00">unallocated (30)</text>
<polyline fill="none" stroke="black" points="804.12,-397.5 804.12,-439.1 "/>
<text text-anchor="middle" x="967.55" y="-422.5" font-family="Courier New" font-size="14.00">bool: Initializable._initializing (1)</text>
<text text-anchor="middle" x="967.55" y="-405.7" font-family="Courier New" font-size="14.00"> false &#160;</text>
<polyline fill="none" stroke="black" points="1130.97,-397.5 1130.97,-439.1 "/>
<text text-anchor="middle" x="1294.4" y="-422.5" font-family="Courier New" font-size="14.00">uint8: Initializable._initialized (1)</text>
<text text-anchor="middle" x="1294.4" y="-405.7" font-family="Courier New" font-size="14.00"> 1 </text>
<polyline fill="none" stroke="black" points="653.7,-397.5 1457.82,-397.5 "/>
<text text-anchor="middle" x="1055.53" y="-380.9" font-family="Courier New" font-size="14.00">uint256[50]: ContextUpgradeable.__gap (1600)</text>
<polyline fill="none" stroke="black" points="653.7,-372.7 1457.82,-372.7 "/>
<text text-anchor="middle" x="1055.33" y="-356.1" font-family="Courier New" font-size="14.00">uint256[50]: ERC165Upgradeable.__gap (1600)</text>
<polyline fill="none" stroke="black" points="653.7,-347.9 1457.82,-347.9 "/>
<text text-anchor="middle" x="1055.54" y="-331.3" font-family="Courier New" font-size="14.00">mapping(bytes32=&gt;RoleData): AccessControlUpgradeable._roles (32)</text>
<polyline fill="none" stroke="black" points="653.7,-323.1 1457.82,-323.1 "/>
<text text-anchor="middle" x="1055.74" y="-306.5" font-family="Courier New" font-size="14.00">uint256[49]: AccessControlUpgradeable.__gap (1568)</text>
<polyline fill="none" stroke="black" points="653.7,-298.3 1457.82,-298.3 "/>
<text text-anchor="middle" x="1055.73" y="-281.7" font-family="Courier New" font-size="14.00">mapping(bytes32=&gt;address): tokenMap (32)</text>
<polyline fill="none" stroke="black" points="653.7,-273.5 1457.82,-273.5 "/>
<text text-anchor="middle" x="1055.33" y="-256.9" font-family="Courier New" font-size="14.00">mapping(bytes32=&gt;address): contractMap (32)</text>
<polyline fill="none" stroke="black" points="653.7,-248.7 1457.82,-248.7 "/>
<text text-anchor="middle" x="1055.73" y="-232.1" font-family="Courier New" font-size="14.00">mapping(address=&gt;bool): isSupportedAsset (32)</text>
<polyline fill="none" stroke="black" points="653.7,-223.9 1457.82,-223.9 "/>
<text text-anchor="middle" x="1055.44" y="-207.3" font-family="Courier New" font-size="14.00">mapping(address=&gt;uint256): depositLimitByAsset (32)</text>
<polyline fill="none" stroke="black" points="653.7,-199.1 1457.82,-199.1 "/>
<text text-anchor="middle" x="1055.73" y="-182.5" font-family="Courier New" font-size="14.00">mapping(address=&gt;address): assetStrategy (32)</text>
<polyline fill="none" stroke="black" points="653.7,-174.3 1457.82,-174.3 "/>
<text text-anchor="middle" x="1055.52" y="-157.7" font-family="Courier New" font-size="14.00">address[]: supportedAssetList (32)</text>
<text text-anchor="middle" x="1055.52" y="-140.9" font-family="Courier New" font-size="14.00"> 7 </text>
<polyline fill="none" stroke="black" points="653.7,-132.7 1457.82,-132.7 "/>
<text text-anchor="middle" x="795.91" y="-107.7" font-family="Courier New" font-size="14.00">unallocated (12)</text>
<polyline fill="none" stroke="black" points="938.12,-91.1 938.12,-132.7 "/>
<text text-anchor="middle" x="1197.95" y="-116.1" font-family="Courier New" font-size="14.00">address: primeETH (20)</text>
<text text-anchor="middle" x="1197.95" y="-99.3" font-family="Courier New" font-size="14.00"> 0x6ef3D766Dfe02Dc4bF04aAe9122EB9A0Ded25615 </text>
</g>
<!-- 1 -->
<g id="node2" class="node">
<title>1</title>
<polygon fill="#f2f2f2" stroke="black" points="1858.88,-293.7 1858.88,-409.7 2301.75,-409.7 2301.75,-293.7 1858.88,-293.7"/>
<text text-anchor="middle" x="2080.31" y="-393.1" font-family="Courier New" font-size="14.00">RoleData &lt;&lt;Struct&gt;&gt;</text>
<polyline fill="none" stroke="black" points="1858.88,-384.9 2301.75,-384.9 "/>
<text text-anchor="middle" x="1892.09" y="-368.3" font-family="Courier New" font-size="14.00">offset</text>
<text text-anchor="middle" x="1892.09" y="-351.5" font-family="Courier New" font-size="14.00"> &#160;</text>
<polyline fill="none" stroke="black" points="1858.88,-343.3 1925.29,-343.3 "/>
<text text-anchor="middle" x="1892.09" y="-326.7" font-family="Courier New" font-size="14.00">0 </text>
<polyline fill="none" stroke="black" points="1858.88,-318.5 1925.29,-318.5 "/>
<text text-anchor="middle" x="1892.09" y="-301.9" font-family="Courier New" font-size="14.00">1</text>
<polyline fill="none" stroke="black" points="1925.29,-293.7 1925.29,-384.9 "/>
<text text-anchor="middle" x="1954.29" y="-368.3" font-family="Courier New" font-size="14.00">value</text>
<text text-anchor="middle" x="1954.29" y="-351.5" font-family="Courier New" font-size="14.00"> &#160;</text>
<polyline fill="none" stroke="black" points="1925.29,-343.3 1983.3,-343.3 "/>
<text text-anchor="middle" x="1954.29" y="-326.7" font-family="Courier New" font-size="14.00"> </text>
<polyline fill="none" stroke="black" points="1925.29,-318.5 1983.3,-318.5 "/>
<text text-anchor="middle" x="1954.29" y="-301.9" font-family="Courier New" font-size="14.00"> </text>
<polyline fill="none" stroke="black" points="1983.3,-293.7 1983.3,-384.9 "/>
<text text-anchor="middle" x="2142.52" y="-368.3" font-family="Courier New" font-size="14.00">type: variable (bytes)</text>
<text text-anchor="middle" x="2142.52" y="-351.5" font-family="Courier New" font-size="14.00">decoded data</text>
<polyline fill="none" stroke="black" points="1983.3,-343.3 2301.75,-343.3 "/>
<text text-anchor="middle" x="2142.52" y="-326.7" font-family="Courier New" font-size="14.00">mapping(address=&gt;bool): members (32)</text>
<polyline fill="none" stroke="black" points="1983.3,-318.5 2301.75,-318.5 "/>
<text text-anchor="middle" x="2142.41" y="-301.9" font-family="Courier New" font-size="14.00">bytes32: adminRole (32)</text>
</g>
<!-- 3&#45;&gt;1 -->
<g id="edge1" class="edge">
<title>3:7&#45;&gt;1</title>
<path fill="none" stroke="black" d="M1457.82,-335.7C1587.08,-335.7 1731.42,-339.2 1848.43,-342.93"/>
<polygon fill="black" stroke="black" points="1848.49,-346.43 1858.59,-343.25 1848.71,-339.44 1848.49,-346.43"/>
</g>
<!-- 2 -->
<g id="node3" class="node">
<title>2</title>
<polygon fill="#f2f2f2" stroke="black" points="1493.82,-0.5 1493.82,-274.9 2666.8,-274.9 2666.8,-0.5 1493.82,-0.5"/>
<text text-anchor="middle" x="2080.31" y="-258.3" font-family="Courier New" font-size="14.00">address[]: supportedAssetList &lt;&lt;Array&gt;&gt;</text>
<text text-anchor="middle" x="2080.31" y="-241.5" font-family="Courier New" font-size="14.00">0xaf85b9071dfafeac1409d3f1d19bafc9bc7c37974cde8df0ee6168f0086e539c</text>
<polyline fill="none" stroke="black" points="1493.82,-233.3 2666.8,-233.3 "/>
<text text-anchor="middle" x="1527.03" y="-216.7" font-family="Courier New" font-size="14.00">offset</text>
<text text-anchor="middle" x="1527.03" y="-199.9" font-family="Courier New" font-size="14.00"> &#160;</text>
<polyline fill="none" stroke="black" points="1493.82,-191.7 1560.23,-191.7 "/>
<text text-anchor="middle" x="1527.03" y="-175.1" font-family="Courier New" font-size="14.00">0</text>
<text text-anchor="middle" x="1527.03" y="-158.3" font-family="Courier New" font-size="14.00"> &#160;</text>
<polyline fill="none" stroke="black" points="1493.82,-150.1 1560.23,-150.1 "/>
<text text-anchor="middle" x="1527.03" y="-133.5" font-family="Courier New" font-size="14.00">1</text>
<text text-anchor="middle" x="1527.03" y="-116.7" font-family="Courier New" font-size="14.00"> &#160;</text>
<polyline fill="none" stroke="black" points="1493.82,-108.5 1560.23,-108.5 "/>
<text text-anchor="middle" x="1527.03" y="-91.9" font-family="Courier New" font-size="14.00">2&#45;4 </text>
<polyline fill="none" stroke="black" points="1493.82,-83.7 1560.23,-83.7 "/>
<text text-anchor="middle" x="1527.03" y="-67.1" font-family="Courier New" font-size="14.00">5</text>
<text text-anchor="middle" x="1527.03" y="-50.3" font-family="Courier New" font-size="14.00"> &#160;</text>
<polyline fill="none" stroke="black" points="1493.82,-42.1 1560.23,-42.1 "/>
<text text-anchor="middle" x="1527.03" y="-25.5" font-family="Courier New" font-size="14.00">6</text>
<text text-anchor="middle" x="1527.03" y="-8.7" font-family="Courier New" font-size="14.00"> </text>
<polyline fill="none" stroke="black" points="1560.23,-0.5 1560.23,-233.3 "/>
<text text-anchor="middle" x="1845.48" y="-216.7" font-family="Courier New" font-size="14.00">value</text>
<text text-anchor="middle" x="1845.48" y="-199.9" font-family="Courier New" font-size="14.00"> &#160;</text>
<polyline fill="none" stroke="black" points="1560.23,-191.7 2130.72,-191.7 "/>
<text text-anchor="middle" x="1845.48" y="-175.1" font-family="Courier New" font-size="14.00">0x000000000000000000000000AE7AB96520DE3A18E5E111B5EAAB095312D7FE84</text>
<text text-anchor="middle" x="1845.48" y="-158.3" font-family="Courier New" font-size="14.00"> &#160;</text>
<polyline fill="none" stroke="black" points="1560.23,-150.1 2130.72,-150.1 "/>
<text text-anchor="middle" x="1845.48" y="-133.5" font-family="Courier New" font-size="14.00">0x000000000000000000000000A35B1B31CE002FBF2058D22F30F95D405200A15B</text>
<text text-anchor="middle" x="1845.48" y="-116.7" font-family="Courier New" font-size="14.00"> &#160;</text>
<polyline fill="none" stroke="black" points="1560.23,-108.5 2130.72,-108.5 "/>
<text text-anchor="middle" x="1845.48" y="-91.9" font-family="Courier New" font-size="14.00"> </text>
<polyline fill="none" stroke="black" points="1560.23,-83.7 2130.72,-83.7 "/>
<text text-anchor="middle" x="1845.48" y="-67.1" font-family="Courier New" font-size="14.00">0x000000000000000000000000AE78736CD615F374D3085123A210448E74FC6393</text>
<text text-anchor="middle" x="1845.48" y="-50.3" font-family="Courier New" font-size="14.00"> &#160;</text>
<polyline fill="none" stroke="black" points="1560.23,-42.1 2130.72,-42.1 "/>
<text text-anchor="middle" x="1845.48" y="-25.5" font-family="Courier New" font-size="14.00">0x000000000000000000000000F951E335AFB289353DC249E82926178EAC7DED78</text>
<text text-anchor="middle" x="1845.48" y="-8.7" font-family="Courier New" font-size="14.00"> </text>
<polyline fill="none" stroke="black" points="2130.72,-0.5 2130.72,-233.3 "/>
<text text-anchor="middle" x="2398.76" y="-216.7" font-family="Courier New" font-size="14.00">type: variable (bytes)</text>
<text text-anchor="middle" x="2398.76" y="-199.9" font-family="Courier New" font-size="14.00">decoded data</text>
<polyline fill="none" stroke="black" points="2130.72,-191.7 2666.8,-191.7 "/>
<text text-anchor="middle" x="2205.93" y="-166.7" font-family="Courier New" font-size="14.00">unallocated (12)</text>
<polyline fill="none" stroke="black" points="2281.14,-150.1 2281.14,-191.7 "/>
<text text-anchor="middle" x="2473.97" y="-175.1" font-family="Courier New" font-size="14.00">address (20)</text>
<text text-anchor="middle" x="2473.97" y="-158.3" font-family="Courier New" font-size="14.00"> 0xae7ab96520DE3A18E5e111B5EaAb095312D7fE84 </text>
<polyline fill="none" stroke="black" points="2130.72,-150.1 2666.8,-150.1 "/>
<text text-anchor="middle" x="2205.93" y="-125.1" font-family="Courier New" font-size="14.00">unallocated (12)</text>
<polyline fill="none" stroke="black" points="2281.14,-108.5 2281.14,-150.1 "/>
<text text-anchor="middle" x="2473.97" y="-133.5" font-family="Courier New" font-size="14.00">address (20)</text>
<text text-anchor="middle" x="2473.97" y="-116.7" font-family="Courier New" font-size="14.00"> 0xA35b1B31Ce002FBF2058D22F30f95D405200A15b </text>
<polyline fill="none" stroke="black" points="2130.72,-108.5 2666.8,-108.5 "/>
<text text-anchor="middle" x="2398.53" y="-91.9" font-family="Courier New" font-size="14.00">&#45;&#45;&#45;&#45; (96)</text>
<polyline fill="none" stroke="black" points="2130.72,-83.7 2666.8,-83.7 "/>
<text text-anchor="middle" x="2205.93" y="-58.7" font-family="Courier New" font-size="14.00">unallocated (12)</text>
<polyline fill="none" stroke="black" points="2281.14,-42.1 2281.14,-83.7 "/>
<text text-anchor="middle" x="2473.97" y="-67.1" font-family="Courier New" font-size="14.00">address (20)</text>
<text text-anchor="middle" x="2473.97" y="-50.3" font-family="Courier New" font-size="14.00"> 0xae78736Cd615f374D3085123A210448E74Fc6393 </text>
<polyline fill="none" stroke="black" points="2130.72,-42.1 2666.8,-42.1 "/>
<text text-anchor="middle" x="2205.93" y="-17.1" font-family="Courier New" font-size="14.00">unallocated (12)</text>
<polyline fill="none" stroke="black" points="2281.14,-0.5 2281.14,-42.1 "/>
<text text-anchor="middle" x="2473.97" y="-25.5" font-family="Courier New" font-size="14.00">address (20)</text>
<text text-anchor="middle" x="2473.97" y="-8.7" font-family="Courier New" font-size="14.00"> 0xf951E335afb289353dc249e82926178EaC7DEd78 </text>
</g>
<!-- 3&#45;&gt;2 -->
<g id="edge2" class="edge">
<title>3:15&#45;&gt;2</title>
<path fill="none" stroke="black" d="M1457.82,-153.7C1466.36,-153.7 1474.96,-153.68 1483.61,-153.66"/>
<polygon fill="black" stroke="black" points="1483.81,-157.15 1493.79,-153.61 1483.78,-150.15 1483.81,-157.15"/>
</g>
</g>
</svg>
