<?xml version="1.0" encoding="UTF-8" standalone="no"?>
<!DOCTYPE svg PUBLIC "-//W3C//DTD SVG 1.1//EN"
 "http://www.w3.org/Graphics/SVG/1.1/DTD/svg11.dtd">
<!-- Generated by graphviz version 5.0.0 (20220707.1540)
 -->
<!-- Title: UmlClassDiagram Pages: 1 -->
<svg width="1051pt" height="337pt"
 viewBox="0.00 0.00 1050.88 336.80" xmlns="http://www.w3.org/2000/svg" xmlns:xlink="http://www.w3.org/1999/xlink">
<g id="graph0" class="graph" transform="scale(1 1) rotate(0) translate(4 332.8)">
<title>UmlClassDiagram</title>
<polygon fill="white" stroke="transparent" points="-4,4 -4,-332.8 1046.88,-332.8 1046.88,4 -4,4"/>
<!-- 0 -->
<g id="node1" class="node">
<title>0</title>
<polygon fill="#f2f2f2" stroke="black" points="176.86,-0.5 176.86,-42.1 332.45,-42.1 332.45,-0.5 176.86,-0.5"/>
<text text-anchor="middle" x="254.65" y="-25.5" font-family="Times,serif" font-size="14.00">LRTConfig</text>
<text text-anchor="middle" x="254.65" y="-8.7" font-family="Times,serif" font-size="14.00">contracts/LRTConfig.sol</text>
</g>
<!-- 6 -->
<g id="node2" class="node">
<title>6</title>
<polygon fill="#f2f2f2" stroke="black" points="0,-79.1 0,-137.5 509.3,-137.5 509.3,-79.1 0,-79.1"/>
<text text-anchor="middle" x="254.65" y="-120.9" font-family="Times,serif" font-size="14.00">&lt;&lt;Abstract&gt;&gt;</text>
<text text-anchor="middle" x="254.65" y="-104.1" font-family="Times,serif" font-size="14.00">AccessControlUpgradeable</text>
<text text-anchor="middle" x="254.65" y="-87.3" font-family="Times,serif" font-size="14.00">lib/openzeppelin&#45;contracts&#45;upgradeable/contracts/access/AccessControlUpgradeable.sol</text>
</g>
<!-- 0&#45;&gt;6 -->
<g id="edge1" class="edge">
<title>0&#45;&gt;6</title>
<path fill="none" stroke="black" d="M254.65,-42.44C254.65,-44.49 254.65,-46.63 254.65,-48.83"/>
<polygon fill="none" stroke="black" points="244.15,-48.94 254.65,-78.94 265.15,-48.94 244.15,-48.94"/>
</g>
<!-- 13 -->
<g id="node3" class="node">
<title>13</title>
<polygon fill="#f2f2f2" stroke="black" points="31.09,-269.9 31.09,-328.3 478.22,-328.3 478.22,-269.9 31.09,-269.9"/>
<text text-anchor="middle" x="254.65" y="-311.7" font-family="Times,serif" font-size="14.00">&lt;&lt;Abstract&gt;&gt;</text>
<text text-anchor="middle" x="254.65" y="-294.9" font-family="Times,serif" font-size="14.00">Initializable</text>
<text text-anchor="middle" x="254.65" y="-278.1" font-family="Times,serif" font-size="14.00">lib/openzeppelin&#45;contracts&#45;upgradeable/contracts/proxy/utils/Initializable.sol</text>
</g>
<!-- 6&#45;&gt;13 -->
<g id="edge2" class="edge">
<title>6&#45;&gt;13</title>
<path fill="none" stroke="black" d="M93.31,-137.58C57.54,-147.2 26.88,-159.32 15.65,-174 -0.39,-194.97 -0.39,-212.43 15.65,-233.4 23.68,-243.89 41.64,-253.08 64.29,-260.98"/>
<polygon fill="none" stroke="black" points="61.55,-271.12 93.31,-269.82 67.67,-251.03 61.55,-271.12"/>
</g>
<!-- 10 -->
<g id="node4" class="node">
<title>10</title>
<polygon fill="#f2f2f2" stroke="black" points="24.87,-174.5 24.87,-232.9 484.44,-232.9 484.44,-174.5 24.87,-174.5"/>
<text text-anchor="middle" x="254.65" y="-216.3" font-family="Times,serif" font-size="14.00">&lt;&lt;Abstract&gt;&gt;</text>
<text text-anchor="middle" x="254.65" y="-199.5" font-family="Times,serif" font-size="14.00">ContextUpgradeable</text>
<text text-anchor="middle" x="254.65" y="-182.7" font-family="Times,serif" font-size="14.00">lib/openzeppelin&#45;contracts&#45;upgradeable/contracts/utils/ContextUpgradeable.sol</text>
</g>
<!-- 6&#45;&gt;10 -->
<g id="edge3" class="edge">
<title>6&#45;&gt;10</title>
<path fill="none" stroke="black" d="M254.65,-137.58C254.65,-139.66 254.65,-141.8 254.65,-143.98"/>
<polygon fill="none" stroke="black" points="244.15,-144.2 254.65,-174.2 265.15,-144.2 244.15,-144.2"/>
</g>
<!-- 12 -->
<g id="node5" class="node">
<title>12</title>
<polygon fill="#f2f2f2" stroke="black" points="502.42,-174.5 502.42,-232.9 1042.88,-232.9 1042.88,-174.5 502.42,-174.5"/>
<text text-anchor="middle" x="772.65" y="-216.3" font-family="Times,serif" font-size="14.00">&lt;&lt;Abstract&gt;&gt;</text>
<text text-anchor="middle" x="772.65" y="-199.5" font-family="Times,serif" font-size="14.00">ERC165Upgradeable</text>
<text text-anchor="middle" x="772.65" y="-182.7" font-family="Times,serif" font-size="14.00">lib/openzeppelin&#45;contracts&#45;upgradeable/contracts/utils/introspection/ERC165Upgradeable.sol</text>
</g>
<!-- 6&#45;&gt;12 -->
<g id="edge4" class="edge">
<title>6&#45;&gt;12</title>
<path fill="none" stroke="black" d="M411.12,-137.51C466.41,-147.48 529.14,-158.79 586.63,-169.16"/>
<polygon fill="none" stroke="black" points="584.77,-179.49 616.16,-174.48 588.5,-158.83 584.77,-179.49"/>
</g>
<!-- 10&#45;&gt;13 -->
<g id="edge5" class="edge">
<title>10&#45;&gt;13</title>
<path fill="none" stroke="black" d="M254.65,-232.98C254.65,-235.06 254.65,-237.2 254.65,-239.38"/>
<polygon fill="none" stroke="black" points="244.15,-239.6 254.65,-269.6 265.15,-239.6 244.15,-239.6"/>
</g>
<!-- 12&#45;&gt;13 -->
<g id="edge6" class="edge">
<title>12&#45;&gt;13</title>
<path fill="none" stroke="black" d="M616.18,-232.91C560.89,-242.88 498.17,-254.19 440.67,-264.56"/>
<polygon fill="none" stroke="black" points="438.8,-254.23 411.14,-269.88 442.53,-274.89 438.8,-254.23"/>
</g>
</g>
</svg>
