<?xml version="1.0" encoding="UTF-8" standalone="no"?>
<!DOCTYPE svg PUBLIC "-//W3C//DTD SVG 1.1//EN"
 "http://www.w3.org/Graphics/SVG/1.1/DTD/svg11.dtd">
<!-- Generated by graphviz version 5.0.0 (20220707.1540)
 -->
<!-- Title: UmlClassDiagram Pages: 1 -->
<svg width="1599pt" height="337pt"
 viewBox="0.00 0.00 1598.54 336.80" xmlns="http://www.w3.org/2000/svg" xmlns:xlink="http://www.w3.org/1999/xlink">
<g id="graph0" class="graph" transform="scale(1 1) rotate(0) translate(4 332.8)">
<title>UmlClassDiagram</title>
<polygon fill="white" stroke="transparent" points="-4,4 -4,-332.8 1594.54,-332.8 1594.54,4 -4,4"/>
<!-- 0 -->
<g id="node1" class="node">
<title>0</title>
<polygon fill="#f2f2f2" stroke="black" points="402.19,-0.5 402.19,-42.1 557.78,-42.1 557.78,-0.5 402.19,-0.5"/>
<text text-anchor="middle" x="479.98" y="-25.5" font-family="Times,serif" font-size="14.00">LRTConfig</text>
<text text-anchor="middle" x="479.98" y="-8.7" font-family="Times,serif" font-size="14.00">contracts/LRTConfig.sol</text>
</g>
<!-- 3 -->
<g id="node2" class="node">
<title>3</title>
<polygon fill="#f2f2f2" stroke="black" points="179.71,-79.1 179.71,-137.5 398.26,-137.5 398.26,-79.1 179.71,-79.1"/>
<text text-anchor="middle" x="288.98" y="-120.9" font-family="Times,serif" font-size="14.00">&lt;&lt;Interface&gt;&gt;</text>
<text text-anchor="middle" x="288.98" y="-104.1" font-family="Times,serif" font-size="14.00">ILRTConfig</text>
<text text-anchor="middle" x="288.98" y="-87.3" font-family="Times,serif" font-size="14.00">contracts/interfaces/ILRTConfig.sol</text>
</g>
<!-- 0&#45;&gt;3 -->
<g id="edge1" class="edge">
<title>0&#45;&gt;3</title>
<path fill="none" stroke="black" stroke-dasharray="5,2" d="M435.2,-42.23C418.68,-49.58 399.31,-58.2 380.17,-66.72"/>
<polygon fill="none" stroke="black" points="375.79,-57.18 352.65,-78.97 384.33,-76.36 375.79,-57.18"/>
</g>
<!-- 4 -->
<g id="node3" class="node">
<title>4</title>
<polygon fill="#f2f2f2" stroke="black" points="416.33,-79.1 416.33,-137.5 925.63,-137.5 925.63,-79.1 416.33,-79.1"/>
<text text-anchor="middle" x="670.98" y="-120.9" font-family="Times,serif" font-size="14.00">&lt;&lt;Abstract&gt;&gt;</text>
<text text-anchor="middle" x="670.98" y="-104.1" font-family="Times,serif" font-size="14.00">AccessControlUpgradeable</text>
<text text-anchor="middle" x="670.98" y="-87.3" font-family="Times,serif" font-size="14.00">lib/openzeppelin&#45;contracts&#45;upgradeable/contracts/access/AccessControlUpgradeable.sol</text>
</g>
<!-- 0&#45;&gt;4 -->
<g id="edge2" class="edge">
<title>0&#45;&gt;4</title>
<path fill="none" stroke="black" d="M524.76,-42.23C541.28,-49.58 560.66,-58.2 579.8,-66.72"/>
<polygon fill="none" stroke="black" points="575.64,-76.36 607.32,-78.97 584.18,-57.18 575.64,-76.36"/>
</g>
<!-- 6 -->
<g id="node4" class="node">
<title>6</title>
<polygon fill="#f2f2f2" stroke="black" points="0,-174.5 0,-232.9 513.96,-232.9 513.96,-174.5 0,-174.5"/>
<text text-anchor="middle" x="256.98" y="-216.3" font-family="Times,serif" font-size="14.00">&lt;&lt;Interface&gt;&gt;</text>
<text text-anchor="middle" x="256.98" y="-199.5" font-family="Times,serif" font-size="14.00">IAccessControlUpgradeable</text>
<text text-anchor="middle" x="256.98" y="-182.7" font-family="Times,serif" font-size="14.00">lib/openzeppelin&#45;contracts&#45;upgradeable/contracts/access/IAccessControlUpgradeable.sol</text>
</g>
<!-- 4&#45;&gt;6 -->
<g id="edge5" class="edge">
<title>4&#45;&gt;6</title>
<path fill="none" stroke="black" stroke-dasharray="5,2" d="M545.93,-137.51C503.56,-147.07 455.73,-157.86 411.36,-167.87"/>
<polygon fill="none" stroke="black" points="409.01,-157.64 382.05,-174.48 413.63,-178.12 409.01,-157.64"/>
</g>
<!-- 10 -->
<g id="node5" class="node">
<title>10</title>
<polygon fill="#f2f2f2" stroke="black" points="576.42,-269.9 576.42,-328.3 1023.55,-328.3 1023.55,-269.9 576.42,-269.9"/>
<text text-anchor="middle" x="799.98" y="-311.7" font-family="Times,serif" font-size="14.00">&lt;&lt;Abstract&gt;&gt;</text>
<text text-anchor="middle" x="799.98" y="-294.9" font-family="Times,serif" font-size="14.00">Initializable</text>
<text text-anchor="middle" x="799.98" y="-278.1" font-family="Times,serif" font-size="14.00">lib/openzeppelin&#45;contracts&#45;upgradeable/contracts/proxy/utils/Initializable.sol</text>
</g>
<!-- 4&#45;&gt;10 -->
<g id="edge3" class="edge">
<title>4&#45;&gt;10</title>
<path fill="none" stroke="black" d="M598.41,-137.53C583.47,-146.83 569.67,-158.81 560.98,-174 547.87,-196.92 544.94,-212.43 560.98,-233.4 569.01,-243.89 586.97,-253.08 609.62,-260.98"/>
<polygon fill="none" stroke="black" points="606.88,-271.12 638.64,-269.82 613,-251.03 606.88,-271.12"/>
</g>
<!-- 7 -->
<g id="node6" class="node">
<title>7</title>
<polygon fill="#f2f2f2" stroke="black" points="570.2,-174.5 570.2,-232.9 1029.77,-232.9 1029.77,-174.5 570.2,-174.5"/>
<text text-anchor="middle" x="799.98" y="-216.3" font-family="Times,serif" font-size="14.00">&lt;&lt;Abstract&gt;&gt;</text>
<text text-anchor="middle" x="799.98" y="-199.5" font-family="Times,serif" font-size="14.00">ContextUpgradeable</text>
<text text-anchor="middle" x="799.98" y="-182.7" font-family="Times,serif" font-size="14.00">lib/openzeppelin&#45;contracts&#45;upgradeable/contracts/utils/ContextUpgradeable.sol</text>
</g>
<!-- 4&#45;&gt;7 -->
<g id="edge4" class="edge">
<title>4&#45;&gt;7</title>
<path fill="none" stroke="black" d="M710.04,-137.58C718.3,-143.56 727.22,-150.02 736.12,-156.46"/>
<polygon fill="none" stroke="black" points="730.16,-165.11 760.62,-174.2 742.47,-148.1 730.16,-165.11"/>
</g>
<!-- 9 -->
<g id="node7" class="node">
<title>9</title>
<polygon fill="#f2f2f2" stroke="black" points="1047.76,-174.5 1047.76,-232.9 1588.21,-232.9 1588.21,-174.5 1047.76,-174.5"/>
<text text-anchor="middle" x="1317.98" y="-216.3" font-family="Times,serif" font-size="14.00">&lt;&lt;Abstract&gt;&gt;</text>
<text text-anchor="middle" x="1317.98" y="-199.5" font-family="Times,serif" font-size="14.00">ERC165Upgradeable</text>
<text text-anchor="middle" x="1317.98" y="-182.7" font-family="Times,serif" font-size="14.00">lib/openzeppelin&#45;contracts&#45;upgradeable/contracts/utils/introspection/ERC165Upgradeable.sol</text>
</g>
<!-- 4&#45;&gt;9 -->
<g id="edge6" class="edge">
<title>4&#45;&gt;9</title>
<path fill="none" stroke="black" d="M866.42,-137.51C937.7,-147.8 1018.86,-159.52 1092.54,-170.16"/>
<polygon fill="none" stroke="black" points="1091.33,-180.59 1122.52,-174.48 1094.33,-159.8 1091.33,-180.59"/>
</g>
<!-- 7&#45;&gt;10 -->
<g id="edge7" class="edge">
<title>7&#45;&gt;10</title>
<path fill="none" stroke="black" d="M799.98,-232.98C799.98,-235.06 799.98,-237.2 799.98,-239.38"/>
<polygon fill="none" stroke="black" points="789.48,-239.6 799.98,-269.6 810.48,-239.6 789.48,-239.6"/>
</g>
<!-- 9&#45;&gt;10 -->
<g id="edge8" class="edge">
<title>9&#45;&gt;10</title>
<path fill="none" stroke="black" d="M1161.51,-232.91C1106.22,-242.88 1043.5,-254.19 986,-264.56"/>
<polygon fill="none" stroke="black" points="984.13,-254.23 956.47,-269.88 987.86,-274.89 984.13,-254.23"/>
</g>
<!-- 14 -->
<g id="node8" class="node">
<title>14</title>
<polygon fill="#f2f2f2" stroke="black" points="1045.42,-269.9 1045.42,-328.3 1590.54,-328.3 1590.54,-269.9 1045.42,-269.9"/>
<text text-anchor="middle" x="1317.98" y="-311.7" font-family="Times,serif" font-size="14.00">&lt;&lt;Interface&gt;&gt;</text>
<text text-anchor="middle" x="1317.98" y="-294.9" font-family="Times,serif" font-size="14.00">IERC165Upgradeable</text>
<text text-anchor="middle" x="1317.98" y="-278.1" font-family="Times,serif" font-size="14.00">lib/openzeppelin&#45;contracts&#45;upgradeable/contracts/utils/introspection/IERC165Upgradeable.sol</text>
</g>
<!-- 9&#45;&gt;14 -->
<g id="edge9" class="edge">
<title>9&#45;&gt;14</title>
<path fill="none" stroke="black" stroke-dasharray="5,2" d="M1317.98,-232.98C1317.98,-235.06 1317.98,-237.2 1317.98,-239.38"/>
<polygon fill="none" stroke="black" points="1307.48,-239.6 1317.98,-269.6 1328.48,-239.6 1307.48,-239.6"/>
</g>
</g>
</svg>
