<?xml version="1.0" encoding="UTF-8" standalone="no"?>
<!DOCTYPE svg PUBLIC "-//W3C//DTD SVG 1.1//EN"
 "http://www.w3.org/Graphics/SVG/1.1/DTD/svg11.dtd">
<!-- Generated by graphviz version 5.0.0 (20220707.1540)
 -->
<!-- Title: StorageDiagram Pages: 1 -->
<svg width="1493pt" height="382pt"
 viewBox="0.00 0.00 1493.42 381.60" xmlns="http://www.w3.org/2000/svg" xmlns:xlink="http://www.w3.org/1999/xlink">
<g id="graph0" class="graph" transform="scale(1 1) rotate(0) translate(4 377.6)">
<title>StorageDiagram</title>
<polygon fill="white" stroke="transparent" points="-4,4 -4,-377.6 1489.42,-377.6 1489.42,4 -4,4"/>
<!-- 3 -->
<g id="node1" class="node">
<title>3</title>
<polygon fill="#f2f2f2" stroke="black" points="0,-9.1 0,-373.1 878.93,-373.1 878.93,-9.1 0,-9.1"/>
<text text-anchor="middle" x="439.47" y="-356.5" font-family="Courier New" font-size="14.00">LRTConfig &lt;&lt;Contract&gt;&gt;</text>
<text text-anchor="middle" x="439.47" y="-339.7" font-family="Courier New" font-size="14.00">0x8D9CD771c51b7F6217E0000c1C735F05aDbE6594</text>
<polyline fill="none" stroke="black" points="0,-331.5 878.93,-331.5 "/>
<text text-anchor="middle" x="37.4" y="-314.9" font-family="Courier New" font-size="14.00">slot</text>
<polyline fill="none" stroke="black" points="0,-306.7 74.81,-306.7 "/>
<text text-anchor="middle" x="37.4" y="-290.1" font-family="Courier New" font-size="14.00">0</text>
<polyline fill="none" stroke="black" points="0,-281.9 74.81,-281.9 "/>
<text text-anchor="middle" x="37.4" y="-265.3" font-family="Courier New" font-size="14.00">1&#45;50</text>
<polyline fill="none" stroke="black" points="0,-257.1 74.81,-257.1 "/>
<text text-anchor="middle" x="37.4" y="-240.5" font-family="Courier New" font-size="14.00">51&#45;100</text>
<polyline fill="none" stroke="black" points="0,-232.3 74.81,-232.3 "/>
<text text-anchor="middle" x="37.4" y="-215.7" font-family="Courier New" font-size="14.00">101</text>
<polyline fill="none" stroke="black" points="0,-207.5 74.81,-207.5 "/>
<text text-anchor="middle" x="37.4" y="-190.9" font-family="Courier New" font-size="14.00">102&#45;150</text>
<polyline fill="none" stroke="black" points="0,-182.7 74.81,-182.7 "/>
<text text-anchor="middle" x="37.4" y="-166.1" font-family="Courier New" font-size="14.00">151</text>
<polyline fill="none" stroke="black" points="0,-157.9 74.81,-157.9 "/>
<text text-anchor="middle" x="37.4" y="-141.3" font-family="Courier New" font-size="14.00">152</text>
<polyline fill="none" stroke="black" points="0,-133.1 74.81,-133.1 "/>
<text text-anchor="middle" x="37.4" y="-116.5" font-family="Courier New" font-size="14.00">153</text>
<polyline fill="none" stroke="black" points="0,-108.3 74.81,-108.3 "/>
<text text-anchor="middle" x="37.4" y="-91.7" font-family="Courier New" font-size="14.00">154</text>
<polyline fill="none" stroke="black" points="0,-83.5 74.81,-83.5 "/>
<text text-anchor="middle" x="37.4" y="-66.9" font-family="Courier New" font-size="14.00">155</text>
<polyline fill="none" stroke="black" points="0,-58.7 74.81,-58.7 "/>
<text text-anchor="middle" x="37.4" y="-42.1" font-family="Courier New" font-size="14.00">156</text>
<polyline fill="none" stroke="black" points="0,-33.9 74.81,-33.9 "/>
<text text-anchor="middle" x="37.4" y="-17.3" font-family="Courier New" font-size="14.00">157</text>
<polyline fill="none" stroke="black" points="74.81,-9.1 74.81,-331.5 "/>
<text text-anchor="middle" x="476.87" y="-314.9" font-family="Courier New" font-size="14.00">type: &lt;inherited contract&gt;.variable (bytes)</text>
<polyline fill="none" stroke="black" points="74.81,-306.7 878.93,-306.7 "/>
<text text-anchor="middle" x="150.02" y="-290.1" font-family="Courier New" font-size="14.00">unallocated (30)</text>
<polyline fill="none" stroke="black" points="225.23,-281.9 225.23,-306.7 "/>
<text text-anchor="middle" x="388.66" y="-290.1" font-family="Courier New" font-size="14.00">bool: Initializable._initializing (1)</text>
<polyline fill="none" stroke="black" points="552.08,-281.9 552.08,-306.7 "/>
<text text-anchor="middle" x="715.51" y="-290.1" font-family="Courier New" font-size="14.00">uint8: Initializable._initialized (1)</text>
<polyline fill="none" stroke="black" points="74.81,-281.9 878.93,-281.9 "/>
<text text-anchor="middle" x="476.64" y="-265.3" font-family="Courier New" font-size="14.00">uint256[50]: ContextUpgradeable.__gap (1600)</text>
<polyline fill="none" stroke="black" points="74.81,-257.1 878.93,-257.1 "/>
<text text-anchor="middle" x="476.44" y="-240.5" font-family="Courier New" font-size="14.00">uint256[50]: ERC165Upgradeable.__gap (1600)</text>
<polyline fill="none" stroke="black" points="74.81,-232.3 878.93,-232.3 "/>
<text text-anchor="middle" x="476.65" y="-215.7" font-family="Courier New" font-size="14.00">mapping(bytes32=&gt;RoleData): AccessControlUpgradeable._roles (32)</text>
<polyline fill="none" stroke="black" points="74.81,-207.5 878.93,-207.5 "/>
<text text-anchor="middle" x="476.84" y="-190.9" font-family="Courier New" font-size="14.00">uint256[49]: AccessControlUpgradeable.__gap (1568)</text>
<polyline fill="none" stroke="black" points="74.81,-182.7 878.93,-182.7 "/>
<text text-anchor="middle" x="476.84" y="-166.1" font-family="Courier New" font-size="14.00">mapping(bytes32=&gt;address): tokenMap (32)</text>
<polyline fill="none" stroke="black" points="74.81,-157.9 878.93,-157.9 "/>
<text text-anchor="middle" x="476.44" y="-141.3" font-family="Courier New" font-size="14.00">mapping(bytes32=&gt;address): contractMap (32)</text>
<polyline fill="none" stroke="black" points="74.81,-133.1 878.93,-133.1 "/>
<text text-anchor="middle" x="476.84" y="-116.5" font-family="Courier New" font-size="14.00">mapping(address=&gt;bool): isSupportedAsset (32)</text>
<polyline fill="none" stroke="black" points="74.81,-108.3 878.93,-108.3 "/>
<text text-anchor="middle" x="476.54" y="-91.7" font-family="Courier New" font-size="14.00">mapping(address=&gt;uint256): depositLimitByAsset (32)</text>
<polyline fill="none" stroke="black" points="74.81,-83.5 878.93,-83.5 "/>
<text text-anchor="middle" x="476.84" y="-66.9" font-family="Courier New" font-size="14.00">mapping(address=&gt;address): assetStrategy (32)</text>
<polyline fill="none" stroke="black" points="74.81,-58.7 878.93,-58.7 "/>
<text text-anchor="middle" x="476.63" y="-42.1" font-family="Courier New" font-size="14.00">address[]: supportedAssetList (32)</text>
<polyline fill="none" stroke="black" points="74.81,-33.9 878.93,-33.9 "/>
<text text-anchor="middle" x="269.52" y="-17.3" font-family="Courier New" font-size="14.00">unallocated (12)</text>
<polyline fill="none" stroke="black" points="464.23,-9.1 464.23,-33.9 "/>
<text text-anchor="middle" x="671.54" y="-17.3" font-family="Courier New" font-size="14.00">address: rsETH (20)</text>
</g>
<!-- 1 -->
<g id="node2" class="node">
<title>1</title>
<polygon fill="#f2f2f2" stroke="black" points="1007.75,-170.5 1007.75,-269.7 1392.61,-269.7 1392.61,-170.5 1007.75,-170.5"/>
<text text-anchor="middle" x="1200.18" y="-253.1" font-family="Courier New" font-size="14.00">RoleData &lt;&lt;Struct&gt;&gt;</text>
<polyline fill="none" stroke="black" points="1007.75,-244.9 1392.61,-244.9 "/>
<text text-anchor="middle" x="1040.95" y="-228.3" font-family="Courier New" font-size="14.00">offset</text>
<polyline fill="none" stroke="black" points="1007.75,-220.1 1074.16,-220.1 "/>
<text text-anchor="middle" x="1040.95" y="-203.5" font-family="Courier New" font-size="14.00">0</text>
<polyline fill="none" stroke="black" points="1007.75,-195.3 1074.16,-195.3 "/>
<text text-anchor="middle" x="1040.95" y="-178.7" font-family="Courier New" font-size="14.00">1</text>
<polyline fill="none" stroke="black" points="1074.16,-170.5 1074.16,-244.9 "/>
<text text-anchor="middle" x="1233.38" y="-228.3" font-family="Courier New" font-size="14.00">type: variable (bytes)</text>
<polyline fill="none" stroke="black" points="1074.16,-220.1 1392.61,-220.1 "/>
<text text-anchor="middle" x="1233.38" y="-203.5" font-family="Courier New" font-size="14.00">mapping(address=&gt;bool): members (32)</text>
<polyline fill="none" stroke="black" points="1074.16,-195.3 1392.61,-195.3 "/>
<text text-anchor="middle" x="1233.27" y="-178.7" font-family="Courier New" font-size="14.00">bytes32: adminRole (32)</text>
</g>
<!-- 3&#45;&gt;1 -->
<g id="edge1" class="edge">
<title>3:7&#45;&gt;1</title>
<path fill="none" stroke="black" d="M878.93,-220.1C917.08,-220.1 957.79,-220.1 996.94,-220.1"/>
<polygon fill="black" stroke="black" points="997.4,-223.6 1007.4,-220.1 997.4,-216.6 997.4,-223.6"/>
</g>
<!-- 2 -->
<g id="node3" class="node">
<title>2</title>
<polygon fill="#f2f2f2" stroke="black" points="914.93,-0.5 914.93,-91.7 1485.42,-91.7 1485.42,-0.5 914.93,-0.5"/>
<text text-anchor="middle" x="1200.18" y="-75.1" font-family="Courier New" font-size="14.00">address[]: supportedAssetList &lt;&lt;Array&gt;&gt;</text>
<text text-anchor="middle" x="1200.18" y="-58.3" font-family="Courier New" font-size="14.00">0xaf85b9071dfafeac1409d3f1d19bafc9bc7c37974cde8df0ee6168f0086e539c</text>
<polyline fill="none" stroke="black" points="914.93,-50.1 1485.42,-50.1 "/>
<text text-anchor="middle" x="1007.14" y="-33.5" font-family="Courier New" font-size="14.00">offset</text>
<polyline fill="none" stroke="black" points="914.93,-25.3 1099.34,-25.3 "/>
<text text-anchor="middle" x="1007.14" y="-8.7" font-family="Courier New" font-size="14.00">0</text>
<polyline fill="none" stroke="black" points="1099.34,-0.5 1099.34,-50.1 "/>
<text text-anchor="middle" x="1291.96" y="-33.5" font-family="Courier New" font-size="14.00">type: variable (bytes)</text>
<polyline fill="none" stroke="black" points="1099.34,-25.3 1484.58,-25.3 "/>
<text text-anchor="middle" x="1204.05" y="-8.7" font-family="Courier New" font-size="14.00">unallocated (12)</text>
<polyline fill="none" stroke="black" points="1308.76,-0.5 1308.76,-25.3 "/>
<text text-anchor="middle" x="1396.67" y="-8.7" font-family="Courier New" font-size="14.00">address (20)</text>
</g>
<!-- 3&#45;&gt;2 -->
<g id="edge2" class="edge">
<title>3:15&#45;&gt;2</title>
<path fill="none" stroke="black" d="M878.93,-46.1C887.32,-46.1 895.84,-46.1 904.44,-46.1"/>
<polygon fill="black" stroke="black" points="904.56,-49.6 914.56,-46.1 904.56,-42.6 904.56,-49.6"/>
</g>
</g>
</svg>
