<?xml version="1.0" encoding="UTF-8" standalone="no"?>
<!DOCTYPE svg PUBLIC "-//W3C//DTD SVG 1.1//EN"
 "http://www.w3.org/Graphics/SVG/1.1/DTD/svg11.dtd">
<!-- Generated by graphviz version 5.0.0 (20220707.1540)
 -->
<!-- Title: StorageDiagram Pages: 1 -->
<svg width="2675pt" height="482pt"
 viewBox="0.00 0.00 2674.80 481.60" xmlns="http://www.w3.org/2000/svg" xmlns:xlink="http://www.w3.org/1999/xlink">
<g id="graph0" class="graph" transform="scale(1 1) rotate(0) translate(4 477.6)">
<title>StorageDiagram</title>
<polygon fill="white" stroke="transparent" points="-4,4 -4,-477.6 2670.8,-477.6 2670.8,4 -4,4"/>
<!-- 3 -->
<g id="node1" class="node">
<title>3</title>
<polygon fill="#f2f2f2" stroke="black" points="0,-41.9 0,-473.1 1457.82,-473.1 1457.82,-41.9 0,-41.9"/>
<text text-anchor="middle" x="728.91" y="-456.5" font-family="Courier New" font-size="14.00">LRTConfig &lt;&lt;Contract&gt;&gt;</text>
<text text-anchor="middle" x="728.91" y="-439.7" font-family="Courier New" font-size="14.00">0x8D9CD771c51b7F6217E0000c1C735F05aDbE6594</text>
<polyline fill="none" stroke="black" points="0,-431.5 1457.82,-431.5 "/>
<text text-anchor="middle" x="41.61" y="-414.9" font-family="Courier New" font-size="14.00">slot</text>
<text text-anchor="middle" x="41.61" y="-398.1" font-family="Courier New" font-size="14.00"> &#160;</text>
<polyline fill="none" stroke="black" points="0,-389.9 83.21,-389.9 "/>
<text text-anchor="middle" x="41.61" y="-373.3" font-family="Courier New" font-size="14.00">0</text>
<text text-anchor="middle" x="41.61" y="-356.5" font-family="Courier New" font-size="14.00"> &#160;</text>
<polyline fill="none" stroke="black" points="0,-348.3 83.21,-348.3 "/>
<text text-anchor="middle" x="41.61" y="-331.7" font-family="Courier New" font-size="14.00">1&#45;50 </text>
<polyline fill="none" stroke="black" points="0,-323.5 83.21,-323.5 "/>
<text text-anchor="middle" x="41.61" y="-306.9" font-family="Courier New" font-size="14.00">51&#45;100 </text>
<polyline fill="none" stroke="black" points="0,-298.7 83.21,-298.7 "/>
<text text-anchor="middle" x="41.61" y="-282.1" font-family="Courier New" font-size="14.00">101 </text>
<polyline fill="none" stroke="black" points="0,-273.9 83.21,-273.9 "/>
<text text-anchor="middle" x="41.61" y="-257.3" font-family="Courier New" font-size="14.00">102&#45;150 </text>
<polyline fill="none" stroke="black" points="0,-249.1 83.21,-249.1 "/>
<text text-anchor="middle" x="41.61" y="-232.5" font-family="Courier New" font-size="14.00">151 </text>
<polyline fill="none" stroke="black" points="0,-224.3 83.21,-224.3 "/>
<text text-anchor="middle" x="41.61" y="-207.7" font-family="Courier New" font-size="14.00">152 </text>
<polyline fill="none" stroke="black" points="0,-199.5 83.21,-199.5 "/>
<text text-anchor="middle" x="41.61" y="-182.9" font-family="Courier New" font-size="14.00">153 </text>
<polyline fill="none" stroke="black" points="0,-174.7 83.21,-174.7 "/>
<text text-anchor="middle" x="41.61" y="-158.1" font-family="Courier New" font-size="14.00">154 </text>
<polyline fill="none" stroke="black" points="0,-149.9 83.21,-149.9 "/>
<text text-anchor="middle" x="41.61" y="-133.3" font-family="Courier New" font-size="14.00">155 </text>
<polyline fill="none" stroke="black" points="0,-125.1 83.21,-125.1 "/>
<text text-anchor="middle" x="41.61" y="-108.5" font-family="Courier New" font-size="14.00">156</text>
<text text-anchor="middle" x="41.61" y="-91.7" font-family="Courier New" font-size="14.00"> &#160;</text>
<polyline fill="none" stroke="black" points="0,-83.5 83.21,-83.5 "/>
<text text-anchor="middle" x="41.61" y="-66.9" font-family="Courier New" font-size="14.00">157</text>
<text text-anchor="middle" x="41.61" y="-50.1" font-family="Courier New" font-size="14.00"> </text>
<polyline fill="none" stroke="black" points="83.21,-41.9 83.21,-431.5 "/>
<text text-anchor="middle" x="368.46" y="-414.9" font-family="Courier New" font-size="14.00">value</text>
<text text-anchor="middle" x="368.46" y="-398.1" font-family="Courier New" font-size="14.00"> &#160;</text>
<polyline fill="none" stroke="black" points="83.21,-389.9 653.7,-389.9 "/>
<text text-anchor="middle" x="368.46" y="-373.3" font-family="Courier New" font-size="14.00">0x0000000000000000000000000000000000000000000000000000000000000001</text>
<text text-anchor="middle" x="368.46" y="-356.5" font-family="Courier New" font-size="14.00"> &#160;</text>
<polyline fill="none" stroke="black" points="83.21,-348.3 653.7,-348.3 "/>
<text text-anchor="middle" x="368.46" y="-331.7" font-family="Courier New" font-size="14.00"> </text>
<polyline fill="none" stroke="black" points="83.21,-323.5 653.7,-323.5 "/>
<text text-anchor="middle" x="368.46" y="-306.9" font-family="Courier New" font-size="14.00"> </text>
<polyline fill="none" stroke="black" points="83.21,-298.7 653.7,-298.7 "/>
<text text-anchor="middle" x="368.46" y="-282.1" font-family="Courier New" font-size="14.00"> </text>
<polyline fill="none" stroke="black" points="83.21,-273.9 653.7,-273.9 "/>
<text text-anchor="middle" x="368.46" y="-257.3" font-family="Courier New" font-size="14.00"> </text>
<polyline fill="none" stroke="black" points="83.21,-249.1 653.7,-249.1 "/>
<text text-anchor="middle" x="368.46" y="-232.5" font-family="Courier New" font-size="14.00"> </text>
<polyline fill="none" stroke="black" points="83.21,-224.3 653.7,-224.3 "/>
<text text-anchor="middle" x="368.46" y="-207.7" font-family="Courier New" font-size="14.00"> </text>
<polyline fill="none" stroke="black" points="83.21,-199.5 653.7,-199.5 "/>
<text text-anchor="middle" x="368.46" y="-182.9" font-family="Courier New" font-size="14.00"> </text>
<polyline fill="none" stroke="black" points="83.21,-174.7 653.7,-174.7 "/>
<text text-anchor="middle" x="368.46" y="-158.1" font-family="Courier New" font-size="14.00"> </text>
<polyline fill="none" stroke="black" points="83.21,-149.9 653.7,-149.9 "/>
<text text-anchor="middle" x="368.46" y="-133.3" font-family="Courier New" font-size="14.00"> </text>
<polyline fill="none" stroke="black" points="83.21,-125.1 653.7,-125.1 "/>
<text text-anchor="middle" x="368.46" y="-108.5" font-family="Courier New" font-size="14.00">0x0000000000000000000000000000000000000000000000000000000000000003</text>
<text text-anchor="middle" x="368.46" y="-91.7" font-family="Courier New" font-size="14.00"> &#160;</text>
<polyline fill="none" stroke="black" points="83.21,-83.5 653.7,-83.5 "/>
<text text-anchor="middle" x="368.46" y="-66.9" font-family="Courier New" font-size="14.00">0x000000000000000000000000A1290D69C65A6FE4DF752F95823FAE25CB99E5A7</text>
<text text-anchor="middle" x="368.46" y="-50.1" font-family="Courier New" font-size="14.00"> </text>
<polyline fill="none" stroke="black" points="653.7,-41.9 653.7,-431.5 "/>
<text text-anchor="middle" x="1055.76" y="-414.9" font-family="Courier New" font-size="14.00">type: &lt;inherited contract&gt;.variable (bytes)</text>
<text text-anchor="middle" x="1055.76" y="-398.1" font-family="Courier New" font-size="14.00">decoded data</text>
<polyline fill="none" stroke="black" points="653.7,-389.9 1457.82,-389.9 "/>
<text text-anchor="middle" x="728.91" y="-364.9" font-family="Courier New" font-size="14.00">unallocated (30)</text>
<polyline fill="none" stroke="black" points="804.12,-348.3 804.12,-389.9 "/>
<text text-anchor="middle" x="967.55" y="-373.3" font-family="Courier New" font-size="14.00">bool: Initializable._initializing (1)</text>
<text text-anchor="middle" x="967.55" y="-356.5" font-family="Courier New" font-size="14.00"> false &#160;</text>
<polyline fill="none" stroke="black" points="1130.97,-348.3 1130.97,-389.9 "/>
<text text-anchor="middle" x="1294.4" y="-373.3" font-family="Courier New" font-size="14.00">uint8: Initializable._initialized (1)</text>
<text text-anchor="middle" x="1294.4" y="-356.5" font-family="Courier New" font-size="14.00"> 1 </text>
<polyline fill="none" stroke="black" points="653.7,-348.3 1457.82,-348.3 "/>
<text text-anchor="middle" x="1055.53" y="-331.7" font-family="Courier New" font-size="14.00">uint256[50]: ContextUpgradeable.__gap (1600)</text>
<polyline fill="none" stroke="black" points="653.7,-323.5 1457.82,-323.5 "/>
<text text-anchor="middle" x="1055.33" y="-306.9" font-family="Courier New" font-size="14.00">uint256[50]: ERC165Upgradeable.__gap (1600)</text>
<polyline fill="none" stroke="black" points="653.7,-298.7 1457.82,-298.7 "/>
<text text-anchor="middle" x="1055.54" y="-282.1" font-family="Courier New" font-size="14.00">mapping(bytes32=&gt;RoleData): AccessControlUpgradeable._roles (32)</text>
<polyline fill="none" stroke="black" points="653.7,-273.9 1457.82,-273.9 "/>
<text text-anchor="middle" x="1055.74" y="-257.3" font-family="Courier New" font-size="14.00">uint256[49]: AccessControlUpgradeable.__gap (1568)</text>
<polyline fill="none" stroke="black" points="653.7,-249.1 1457.82,-249.1 "/>
<text text-anchor="middle" x="1055.73" y="-232.5" font-family="Courier New" font-size="14.00">mapping(bytes32=&gt;address): tokenMap (32)</text>
<polyline fill="none" stroke="black" points="653.7,-224.3 1457.82,-224.3 "/>
<text text-anchor="middle" x="1055.33" y="-207.7" font-family="Courier New" font-size="14.00">mapping(bytes32=&gt;address): contractMap (32)</text>
<polyline fill="none" stroke="black" points="653.7,-199.5 1457.82,-199.5 "/>
<text text-anchor="middle" x="1055.73" y="-182.9" font-family="Courier New" font-size="14.00">mapping(address=&gt;bool): isSupportedAsset (32)</text>
<polyline fill="none" stroke="black" points="653.7,-174.7 1457.82,-174.7 "/>
<text text-anchor="middle" x="1055.44" y="-158.1" font-family="Courier New" font-size="14.00">mapping(address=&gt;uint256): depositLimitByAsset (32)</text>
<polyline fill="none" stroke="black" points="653.7,-149.9 1457.82,-149.9 "/>
<text text-anchor="middle" x="1055.73" y="-133.3" font-family="Courier New" font-size="14.00">mapping(address=&gt;address): assetStrategy (32)</text>
<polyline fill="none" stroke="black" points="653.7,-125.1 1457.82,-125.1 "/>
<text text-anchor="middle" x="1055.52" y="-108.5" font-family="Courier New" font-size="14.00">address[]: supportedAssetList (32)</text>
<text text-anchor="middle" x="1055.52" y="-91.7" font-family="Courier New" font-size="14.00"> 3 </text>
<polyline fill="none" stroke="black" points="653.7,-83.5 1457.82,-83.5 "/>
<text text-anchor="middle" x="795.91" y="-58.5" font-family="Courier New" font-size="14.00">unallocated (12)</text>
<polyline fill="none" stroke="black" points="938.12,-41.9 938.12,-83.5 "/>
<text text-anchor="middle" x="1197.95" y="-66.9" font-family="Courier New" font-size="14.00">address: rsETH (20)</text>
<text text-anchor="middle" x="1197.95" y="-50.1" font-family="Courier New" font-size="14.00"> 0xA1290d69c65A6Fe4DF752f95823fae25cB99e5A7 </text>
</g>
<!-- 1 -->
<g id="node2" class="node">
<title>1</title>
<polygon fill="#f2f2f2" stroke="black" points="1858.88,-228.5 1858.88,-344.5 2301.75,-344.5 2301.75,-228.5 1858.88,-228.5"/>
<text text-anchor="middle" x="2080.31" y="-327.9" font-family="Courier New" font-size="14.00">RoleData &lt;&lt;Struct&gt;&gt;</text>
<polyline fill="none" stroke="black" points="1858.88,-319.7 2301.75,-319.7 "/>
<text text-anchor="middle" x="1892.09" y="-303.1" font-family="Courier New" font-size="14.00">offset</text>
<text text-anchor="middle" x="1892.09" y="-286.3" font-family="Courier New" font-size="14.00"> &#160;</text>
<polyline fill="none" stroke="black" points="1858.88,-278.1 1925.29,-278.1 "/>
<text text-anchor="middle" x="1892.09" y="-261.5" font-family="Courier New" font-size="14.00">0 </text>
<polyline fill="none" stroke="black" points="1858.88,-253.3 1925.29,-253.3 "/>
<text text-anchor="middle" x="1892.09" y="-236.7" font-family="Courier New" font-size="14.00">1</text>
<polyline fill="none" stroke="black" points="1925.29,-228.5 1925.29,-319.7 "/>
<text text-anchor="middle" x="1954.29" y="-303.1" font-family="Courier New" font-size="14.00">value</text>
<text text-anchor="middle" x="1954.29" y="-286.3" font-family="Courier New" font-size="14.00"> &#160;</text>
<polyline fill="none" stroke="black" points="1925.29,-278.1 1983.3,-278.1 "/>
<text text-anchor="middle" x="1954.29" y="-261.5" font-family="Courier New" font-size="14.00"> </text>
<polyline fill="none" stroke="black" points="1925.29,-253.3 1983.3,-253.3 "/>
<text text-anchor="middle" x="1954.29" y="-236.7" font-family="Courier New" font-size="14.00"> </text>
<polyline fill="none" stroke="black" points="1983.3,-228.5 1983.3,-319.7 "/>
<text text-anchor="middle" x="2142.52" y="-303.1" font-family="Courier New" font-size="14.00">type: variable (bytes)</text>
<text text-anchor="middle" x="2142.52" y="-286.3" font-family="Courier New" font-size="14.00">decoded data</text>
<polyline fill="none" stroke="black" points="1983.3,-278.1 2301.75,-278.1 "/>
<text text-anchor="middle" x="2142.52" y="-261.5" font-family="Courier New" font-size="14.00">mapping(address=&gt;bool): members (32)</text>
<polyline fill="none" stroke="black" points="1983.3,-253.3 2301.75,-253.3 "/>
<text text-anchor="middle" x="2142.41" y="-236.7" font-family="Courier New" font-size="14.00">bytes32: adminRole (32)</text>
</g>
<!-- 3&#45;&gt;1 -->
<g id="edge1" class="edge">
<title>3:7&#45;&gt;1</title>
<path fill="none" stroke="black" d="M1457.82,-286.5C1587.04,-286.5 1731.37,-286.5 1848.4,-286.5"/>
<polygon fill="black" stroke="black" points="1848.56,-290 1858.56,-286.5 1848.56,-283 1848.56,-290"/>
</g>
<!-- 2 -->
<g id="node3" class="node">
<title>2</title>
<polygon fill="#f2f2f2" stroke="black" points="1493.82,-0.5 1493.82,-208.5 2666.8,-208.5 2666.8,-0.5 1493.82,-0.5"/>
<text text-anchor="middle" x="2080.31" y="-191.9" font-family="Courier New" font-size="14.00">address[]: supportedAssetList &lt;&lt;Array&gt;&gt;</text>
<text text-anchor="middle" x="2080.31" y="-175.1" font-family="Courier New" font-size="14.00">0xaf85b9071dfafeac1409d3f1d19bafc9bc7c37974cde8df0ee6168f0086e539c</text>
<polyline fill="none" stroke="black" points="1493.82,-166.9 2666.8,-166.9 "/>
<text text-anchor="middle" x="1527.03" y="-150.3" font-family="Courier New" font-size="14.00">offset</text>
<text text-anchor="middle" x="1527.03" y="-133.5" font-family="Courier New" font-size="14.00"> &#160;</text>
<polyline fill="none" stroke="black" points="1493.82,-125.3 1560.23,-125.3 "/>
<text text-anchor="middle" x="1527.03" y="-108.7" font-family="Courier New" font-size="14.00">0</text>
<text text-anchor="middle" x="1527.03" y="-91.9" font-family="Courier New" font-size="14.00"> &#160;</text>
<polyline fill="none" stroke="black" points="1493.82,-83.7 1560.23,-83.7 "/>
<text text-anchor="middle" x="1527.03" y="-67.1" font-family="Courier New" font-size="14.00">1</text>
<text text-anchor="middle" x="1527.03" y="-50.3" font-family="Courier New" font-size="14.00"> &#160;</text>
<polyline fill="none" stroke="black" points="1493.82,-42.1 1560.23,-42.1 "/>
<text text-anchor="middle" x="1527.03" y="-25.5" font-family="Courier New" font-size="14.00">2</text>
<text text-anchor="middle" x="1527.03" y="-8.7" font-family="Courier New" font-size="14.00"> </text>
<polyline fill="none" stroke="black" points="1560.23,-0.5 1560.23,-166.9 "/>
<text text-anchor="middle" x="1845.48" y="-150.3" font-family="Courier New" font-size="14.00">value</text>
<text text-anchor="middle" x="1845.48" y="-133.5" font-family="Courier New" font-size="14.00"> &#160;</text>
<polyline fill="none" stroke="black" points="1560.23,-125.3 2130.72,-125.3 "/>
<text text-anchor="middle" x="1845.48" y="-108.7" font-family="Courier New" font-size="14.00">0x000000000000000000000000AE7AB96520DE3A18E5E111B5EAAB095312D7FE84</text>
<text text-anchor="middle" x="1845.48" y="-91.9" font-family="Courier New" font-size="14.00"> &#160;</text>
<polyline fill="none" stroke="black" points="1560.23,-83.7 2130.72,-83.7 "/>
<text text-anchor="middle" x="1845.48" y="-67.1" font-family="Courier New" font-size="14.00">0x000000000000000000000000A35B1B31CE002FBF2058D22F30F95D405200A15B</text>
<text text-anchor="middle" x="1845.48" y="-50.3" font-family="Courier New" font-size="14.00"> &#160;</text>
<polyline fill="none" stroke="black" points="1560.23,-42.1 2130.72,-42.1 "/>
<text text-anchor="middle" x="1845.48" y="-25.5" font-family="Courier New" font-size="14.00">0x000000000000000000000000AC3E018457B222D93114458476F3E3416ABBE38F</text>
<text text-anchor="middle" x="1845.48" y="-8.7" font-family="Courier New" font-size="14.00"> </text>
<polyline fill="none" stroke="black" points="2130.72,-0.5 2130.72,-166.9 "/>
<text text-anchor="middle" x="2398.76" y="-150.3" font-family="Courier New" font-size="14.00">type: variable (bytes)</text>
<text text-anchor="middle" x="2398.76" y="-133.5" font-family="Courier New" font-size="14.00">decoded data</text>
<polyline fill="none" stroke="black" points="2130.72,-125.3 2666.8,-125.3 "/>
<text text-anchor="middle" x="2205.93" y="-100.3" font-family="Courier New" font-size="14.00">unallocated (12)</text>
<polyline fill="none" stroke="black" points="2281.14,-83.7 2281.14,-125.3 "/>
<text text-anchor="middle" x="2473.97" y="-108.7" font-family="Courier New" font-size="14.00">address (20)</text>
<text text-anchor="middle" x="2473.97" y="-91.9" font-family="Courier New" font-size="14.00"> 0xae7ab96520DE3A18E5e111B5EaAb095312D7fE84 </text>
<polyline fill="none" stroke="black" points="2130.72,-83.7 2666.8,-83.7 "/>
<text text-anchor="middle" x="2205.93" y="-58.7" font-family="Courier New" font-size="14.00">unallocated (12)</text>
<polyline fill="none" stroke="black" points="2281.14,-42.1 2281.14,-83.7 "/>
<text text-anchor="middle" x="2473.97" y="-67.1" font-family="Courier New" font-size="14.00">address (20)</text>
<text text-anchor="middle" x="2473.97" y="-50.3" font-family="Courier New" font-size="14.00"> 0xA35b1B31Ce002FBF2058D22F30f95D405200A15b </text>
<polyline fill="none" stroke="black" points="2130.72,-42.1 2666.8,-42.1 "/>
<text text-anchor="middle" x="2205.93" y="-17.1" font-family="Courier New" font-size="14.00">unallocated (12)</text>
<polyline fill="none" stroke="black" points="2281.14,-0.5 2281.14,-42.1 "/>
<text text-anchor="middle" x="2473.97" y="-25.5" font-family="Courier New" font-size="14.00">address (20)</text>
<text text-anchor="middle" x="2473.97" y="-8.7" font-family="Courier New" font-size="14.00"> 0xac3E018457B222d93114458476f3E3416Abbe38F </text>
</g>
<!-- 3&#45;&gt;2 -->
<g id="edge2" class="edge">
<title>3:15&#45;&gt;2</title>
<path fill="none" stroke="black" d="M1457.82,-104.5C1466.35,-104.5 1474.95,-104.5 1483.6,-104.5"/>
<polygon fill="black" stroke="black" points="1483.78,-108 1493.78,-104.5 1483.78,-101 1483.78,-108"/>
</g>
</g>
</svg>
