<?xml version="1.0" encoding="UTF-8" standalone="no"?>
<!DOCTYPE svg PUBLIC "-//W3C//DTD SVG 1.1//EN"
 "http://www.w3.org/Graphics/SVG/1.1/DTD/svg11.dtd">
<!-- Generated by graphviz version 5.0.0 (20220707.1540)
 -->
<!-- Title: UmlClassDiagram Pages: 1 -->
<svg width="2308pt" height="354pt"
 viewBox="0.00 0.00 2308.13 353.60" xmlns="http://www.w3.org/2000/svg" xmlns:xlink="http://www.w3.org/1999/xlink">
<g id="graph0" class="graph" transform="scale(1 1) rotate(0) translate(4 349.6)">
<title>UmlClassDiagram</title>
<polygon fill="white" stroke="transparent" points="-4,4 -4,-349.6 2304.13,-349.6 2304.13,4 -4,4"/>
<!-- 0 -->
<g id="node1" class="node">
<title>0</title>
<polygon fill="#f2f2f2" stroke="black" points="1036.08,-8.9 1036.08,-50.5 1222.01,-50.5 1222.01,-8.9 1036.08,-8.9"/>
<text text-anchor="middle" x="1129.05" y="-33.9" font-family="Times,serif" font-size="14.00">LRTDepositPool</text>
<text text-anchor="middle" x="1129.05" y="-17.1" font-family="Times,serif" font-size="14.00">contracts/LRTDepositPool.sol</text>
</g>
<!-- 11 -->
<g id="node2" class="node">
<title>11</title>
<polygon fill="#f2f2f2" stroke="black" points="257.77,-191.3 257.77,-249.7 476.32,-249.7 476.32,-191.3 257.77,-191.3"/>
<text text-anchor="middle" x="367.05" y="-233.1" font-family="Times,serif" font-size="14.00">&lt;&lt;Interface&gt;&gt;</text>
<text text-anchor="middle" x="367.05" y="-216.3" font-family="Times,serif" font-size="14.00">ILRTConfig</text>
<text text-anchor="middle" x="367.05" y="-199.5" font-family="Times,serif" font-size="14.00">contracts/interfaces/ILRTConfig.sol</text>
</g>
<!-- 0&#45;&gt;11 -->
<g id="edge5" class="edge">
<title>0&#45;&gt;11</title>
<path fill="none" stroke="black" stroke-dasharray="5,2" d="M1035.83,-32.69C774.71,-38.7 52.77,-58.6 18.05,-95.4 -56.45,-174.36 119.04,-203.15 247.23,-213.6"/>
<polygon fill="black" stroke="black" points="247.29,-217.11 257.54,-214.41 247.84,-210.13 247.29,-217.11"/>
</g>
<!-- 7 -->
<g id="node3" class="node">
<title>7</title>
<polygon fill="#f2f2f2" stroke="black" points="26.6,-95.9 26.6,-154.3 275.49,-154.3 275.49,-95.9 26.6,-95.9"/>
<text text-anchor="middle" x="151.05" y="-137.7" font-family="Times,serif" font-size="14.00">&lt;&lt;Interface&gt;&gt;</text>
<text text-anchor="middle" x="151.05" y="-120.9" font-family="Times,serif" font-size="14.00">ILRTDepositPool</text>
<text text-anchor="middle" x="151.05" y="-104.1" font-family="Times,serif" font-size="14.00">contracts/interfaces/ILRTDepositPool.sol</text>
</g>
<!-- 0&#45;&gt;7 -->
<g id="edge1" class="edge">
<title>0&#45;&gt;7</title>
<path fill="none" stroke="black" stroke-dasharray="5,2" d="M1035.87,-33.75C885.32,-39.55 578.67,-55.02 305.49,-92.61"/>
<polygon fill="none" stroke="black" points="304.01,-82.22 275.77,-96.81 306.94,-103.01 304.01,-82.22"/>
</g>
<!-- 5 -->
<g id="node4" class="node">
<title>5</title>
<polygon fill="#f2f2f2" stroke="black" points="293.57,-95.9 293.57,-154.3 510.53,-154.3 510.53,-95.9 293.57,-95.9"/>
<text text-anchor="middle" x="402.05" y="-137.7" font-family="Times,serif" font-size="14.00">&lt;&lt;Interface&gt;&gt;</text>
<text text-anchor="middle" x="402.05" y="-120.9" font-family="Times,serif" font-size="14.00">ILRTOracle</text>
<text text-anchor="middle" x="402.05" y="-104.1" font-family="Times,serif" font-size="14.00">contracts/interfaces/ILRTOracle.sol</text>
</g>
<!-- 0&#45;&gt;5 -->
<g id="edge8" class="edge">
<title>0&#45;&gt;5</title>
<path fill="none" stroke="black" stroke-dasharray="5,2" d="M1035.92,-36.73C918.09,-45.23 708.91,-63.21 520.68,-95.38"/>
<polygon fill="black" stroke="black" points="519.85,-91.97 510.59,-97.12 521.04,-98.87 519.85,-91.97"/>
</g>
<!-- 6 -->
<g id="node5" class="node">
<title>6</title>
<polygon fill="#f2f2f2" stroke="black" points="528.68,-95.9 528.68,-154.3 767.41,-154.3 767.41,-95.9 528.68,-95.9"/>
<text text-anchor="middle" x="648.05" y="-137.7" font-family="Times,serif" font-size="14.00">&lt;&lt;Interface&gt;&gt;</text>
<text text-anchor="middle" x="648.05" y="-120.9" font-family="Times,serif" font-size="14.00">INodeDelegator</text>
<text text-anchor="middle" x="648.05" y="-104.1" font-family="Times,serif" font-size="14.00">contracts/interfaces/INodeDelegator.sol</text>
</g>
<!-- 0&#45;&gt;6 -->
<g id="edge7" class="edge">
<title>0&#45;&gt;6</title>
<path fill="none" stroke="black" stroke-dasharray="5,2" d="M1035.95,-46.73C967.1,-58.83 870.81,-76.25 777.49,-95.13"/>
<polygon fill="black" stroke="black" points="776.69,-91.72 767.59,-97.14 778.09,-98.58 776.69,-91.72"/>
</g>
<!-- 4 -->
<g id="node6" class="node">
<title>4</title>
<polygon fill="#f2f2f2" stroke="black" points="785.27,-95.9 785.27,-154.3 982.82,-154.3 982.82,-95.9 785.27,-95.9"/>
<text text-anchor="middle" x="884.05" y="-137.7" font-family="Times,serif" font-size="14.00">&lt;&lt;Interface&gt;&gt;</text>
<text text-anchor="middle" x="884.05" y="-120.9" font-family="Times,serif" font-size="14.00">IRSETH</text>
<text text-anchor="middle" x="884.05" y="-104.1" font-family="Times,serif" font-size="14.00">contracts/interfaces/IRSETH.sol</text>
</g>
<!-- 0&#45;&gt;4 -->
<g id="edge9" class="edge">
<title>0&#45;&gt;4</title>
<path fill="none" stroke="black" stroke-dasharray="5,2" d="M1077.09,-50.51C1045.37,-62.6 1004.08,-78.34 967.83,-92.16"/>
<polygon fill="black" stroke="black" points="966.34,-88.98 958.24,-95.82 968.83,-95.52 966.34,-88.98"/>
</g>
<!-- 3 -->
<g id="node8" class="node">
<title>3</title>
<polygon fill="#f2f2f2" stroke="black" points="1000.71,-95.9 1000.71,-154.3 1257.39,-154.3 1257.39,-95.9 1000.71,-95.9"/>
<text text-anchor="middle" x="1129.05" y="-137.7" font-family="Times,serif" font-size="14.00">&lt;&lt;Abstract&gt;&gt;</text>
<text text-anchor="middle" x="1129.05" y="-120.9" font-family="Times,serif" font-size="14.00">LRTConfigRoleChecker</text>
<text text-anchor="middle" x="1129.05" y="-104.1" font-family="Times,serif" font-size="14.00">contracts/utils/LRTConfigRoleChecker.sol</text>
</g>
<!-- 0&#45;&gt;3 -->
<g id="edge2" class="edge">
<title>0&#45;&gt;3</title>
<path fill="none" stroke="black" d="M1129.05,-50.51C1129.05,-55.14 1129.05,-60.31 1129.05,-65.69"/>
<polygon fill="none" stroke="black" points="1118.55,-65.82 1129.05,-95.82 1139.55,-65.82 1118.55,-65.82"/>
</g>
<!-- 9 -->
<g id="node10" class="node">
<title>9</title>
<polygon fill="#f2f2f2" stroke="black" points="1275.44,-95.9 1275.44,-154.3 1760.65,-154.3 1760.65,-95.9 1275.44,-95.9"/>
<text text-anchor="middle" x="1518.05" y="-137.7" font-family="Times,serif" font-size="14.00">&lt;&lt;Abstract&gt;&gt;</text>
<text text-anchor="middle" x="1518.05" y="-120.9" font-family="Times,serif" font-size="14.00">PausableUpgradeable</text>
<text text-anchor="middle" x="1518.05" y="-104.1" font-family="Times,serif" font-size="14.00">lib/openzeppelin&#45;contracts&#45;upgradeable/contracts/security/PausableUpgradeable.sol</text>
</g>
<!-- 0&#45;&gt;9 -->
<g id="edge3" class="edge">
<title>0&#45;&gt;9</title>
<path fill="none" stroke="black" d="M1211.54,-50.51C1257.83,-61.62 1316.97,-75.82 1370.92,-88.77"/>
<polygon fill="none" stroke="black" points="1368.62,-99.02 1400.25,-95.82 1373.53,-78.6 1368.62,-99.02"/>
</g>
<!-- 10 -->
<g id="node11" class="node">
<title>10</title>
<polygon fill="#f2f2f2" stroke="black" points="1765.96,-191.3 1765.96,-249.7 2300.13,-249.7 2300.13,-191.3 1765.96,-191.3"/>
<text text-anchor="middle" x="2033.05" y="-233.1" font-family="Times,serif" font-size="14.00">&lt;&lt;Abstract&gt;&gt;</text>
<text text-anchor="middle" x="2033.05" y="-216.3" font-family="Times,serif" font-size="14.00">ReentrancyGuardUpgradeable</text>
<text text-anchor="middle" x="2033.05" y="-199.5" font-family="Times,serif" font-size="14.00">lib/openzeppelin&#45;contracts&#45;upgradeable/contracts/security/ReentrancyGuardUpgradeable.sol</text>
</g>
<!-- 0&#45;&gt;10 -->
<g id="edge4" class="edge">
<title>0&#45;&gt;10</title>
<path fill="none" stroke="black" d="M1222.05,-30.32C1377.17,-31.27 1680.53,-40.38 1770.05,-95.4 1796.75,-111.81 1782.92,-136.06 1808.05,-154.8 1821.13,-164.56 1835.65,-172.85 1850.82,-179.89"/>
<polygon fill="none" stroke="black" points="1846.94,-189.64 1878.68,-191.26 1854.88,-170.2 1846.94,-189.64"/>
</g>
<!-- 8 -->
<g id="node14" class="node">
<title>8</title>
<polygon fill="#f2f2f2" stroke="black" points="1816.72,-95.9 1816.72,-154.3 2185.37,-154.3 2185.37,-95.9 1816.72,-95.9"/>
<text text-anchor="middle" x="2001.05" y="-137.7" font-family="Times,serif" font-size="14.00">&lt;&lt;Interface&gt;&gt;</text>
<text text-anchor="middle" x="2001.05" y="-120.9" font-family="Times,serif" font-size="14.00">IERC20</text>
<text text-anchor="middle" x="2001.05" y="-104.1" font-family="Times,serif" font-size="14.00">lib/openzeppelin&#45;contracts/contracts/token/ERC20/IERC20.sol</text>
</g>
<!-- 0&#45;&gt;8 -->
<g id="edge6" class="edge">
<title>0&#45;&gt;8</title>
<path fill="none" stroke="black" stroke-dasharray="5,2" d="M1222.14,-38.21C1352.32,-49.03 1596.03,-70.48 1803.05,-95.4 1804.17,-95.53 1805.29,-95.67 1806.42,-95.81"/>
<polygon fill="black" stroke="black" points="1806.29,-99.32 1816.64,-97.07 1807.15,-92.37 1806.29,-99.32"/>
</g>
<!-- 14 -->
<g id="node7" class="node">
<title>14</title>
<polygon fill="#f2f2f2" stroke="black" points="1901.11,-0.5 1901.11,-58.9 2100.98,-58.9 2100.98,-0.5 1901.11,-0.5"/>
<text text-anchor="middle" x="2001.05" y="-42.3" font-family="Times,serif" font-size="14.00">&lt;&lt;Interface&gt;&gt;</text>
<text text-anchor="middle" x="2001.05" y="-25.5" font-family="Times,serif" font-size="14.00">IStrategy</text>
<text text-anchor="middle" x="2001.05" y="-8.7" font-family="Times,serif" font-size="14.00">contracts/interfaces/IStrategy.sol</text>
</g>
<!-- 14&#45;&gt;8 -->
<g id="edge10" class="edge">
<title>14&#45;&gt;8</title>
<path fill="none" stroke="black" stroke-dasharray="5,2" d="M2001.05,-58.98C2001.05,-67.31 2001.05,-76.58 2001.05,-85.45"/>
<polygon fill="black" stroke="black" points="1997.55,-85.6 2001.05,-95.6 2004.55,-85.6 1997.55,-85.6"/>
</g>
<!-- 3&#45;&gt;11 -->
<g id="edge11" class="edge">
<title>3&#45;&gt;11</title>
<path fill="none" stroke="black" d="M1000.41,-153.45C997.6,-153.92 994.81,-154.37 992.05,-154.8 817.06,-182.11 612.65,-200.8 486.51,-210.82"/>
<polygon fill="black" stroke="black" points="486.13,-207.34 476.44,-211.62 486.69,-214.32 486.13,-207.34"/>
</g>
<!-- 12 -->
<g id="node13" class="node">
<title>12</title>
<polygon fill="#f2f2f2" stroke="black" points="862.36,-191.3 862.36,-249.7 1231.74,-249.7 1231.74,-191.3 862.36,-191.3"/>
<text text-anchor="middle" x="1047.05" y="-233.1" font-family="Times,serif" font-size="14.00">&lt;&lt;Interface&gt;&gt;</text>
<text text-anchor="middle" x="1047.05" y="-216.3" font-family="Times,serif" font-size="14.00">IAccessControl</text>
<text text-anchor="middle" x="1047.05" y="-199.5" font-family="Times,serif" font-size="14.00">lib/openzeppelin&#45;contracts/contracts/access/IAccessControl.sol</text>
</g>
<!-- 3&#45;&gt;12 -->
<g id="edge12" class="edge">
<title>3&#45;&gt;12</title>
<path fill="none" stroke="black" stroke-dasharray="5,2" d="M1104.22,-154.38C1096.19,-163.53 1087.17,-173.8 1078.71,-183.44"/>
<polygon fill="black" stroke="black" points="1076.04,-181.17 1072.07,-191 1081.3,-185.79 1076.04,-181.17"/>
</g>
<!-- 16 -->
<g id="node9" class="node">
<title>16</title>
<polygon fill="#f2f2f2" stroke="black" points="1294.48,-286.7 1294.48,-345.1 1741.61,-345.1 1741.61,-286.7 1294.48,-286.7"/>
<text text-anchor="middle" x="1518.05" y="-328.5" font-family="Times,serif" font-size="14.00">&lt;&lt;Abstract&gt;&gt;</text>
<text text-anchor="middle" x="1518.05" y="-311.7" font-family="Times,serif" font-size="14.00">Initializable</text>
<text text-anchor="middle" x="1518.05" y="-294.9" font-family="Times,serif" font-size="14.00">lib/openzeppelin&#45;contracts&#45;upgradeable/contracts/proxy/utils/Initializable.sol</text>
</g>
<!-- 9&#45;&gt;16 -->
<g id="edge13" class="edge">
<title>9&#45;&gt;16</title>
<path fill="none" stroke="black" d="M1356.7,-154.38C1320.94,-164 1290.28,-176.12 1279.05,-190.8 1263,-211.77 1263,-229.23 1279.05,-250.2 1287.08,-260.69 1305.03,-269.88 1327.68,-277.78"/>
<polygon fill="none" stroke="black" points="1324.94,-287.92 1356.7,-286.62 1331.07,-267.83 1324.94,-287.92"/>
</g>
<!-- 15 -->
<g id="node12" class="node">
<title>15</title>
<polygon fill="#f2f2f2" stroke="black" points="1288.26,-191.3 1288.26,-249.7 1747.83,-249.7 1747.83,-191.3 1288.26,-191.3"/>
<text text-anchor="middle" x="1518.05" y="-233.1" font-family="Times,serif" font-size="14.00">&lt;&lt;Abstract&gt;&gt;</text>
<text text-anchor="middle" x="1518.05" y="-216.3" font-family="Times,serif" font-size="14.00">ContextUpgradeable</text>
<text text-anchor="middle" x="1518.05" y="-199.5" font-family="Times,serif" font-size="14.00">lib/openzeppelin&#45;contracts&#45;upgradeable/contracts/utils/ContextUpgradeable.sol</text>
</g>
<!-- 9&#45;&gt;15 -->
<g id="edge14" class="edge">
<title>9&#45;&gt;15</title>
<path fill="none" stroke="black" d="M1518.05,-154.38C1518.05,-156.46 1518.05,-158.6 1518.05,-160.78"/>
<polygon fill="none" stroke="black" points="1507.55,-161 1518.05,-191 1528.55,-161 1507.55,-161"/>
</g>
<!-- 10&#45;&gt;16 -->
<g id="edge15" class="edge">
<title>10&#45;&gt;16</title>
<path fill="none" stroke="black" d="M1877.48,-249.71C1822.64,-259.66 1760.44,-270.94 1703.38,-281.29"/>
<polygon fill="none" stroke="black" points="1701.28,-271 1673.63,-286.68 1705.02,-291.66 1701.28,-271"/>
</g>
<!-- 15&#45;&gt;16 -->
<g id="edge16" class="edge">
<title>15&#45;&gt;16</title>
<path fill="none" stroke="black" d="M1518.05,-249.78C1518.05,-251.86 1518.05,-254 1518.05,-256.18"/>
<polygon fill="none" stroke="black" points="1507.55,-256.4 1518.05,-286.4 1528.55,-256.4 1507.55,-256.4"/>
</g>
</g>
</svg>
