<?xml version="1.0" encoding="UTF-8" standalone="no"?>
<!DOCTYPE svg PUBLIC "-//W3C//DTD SVG 1.1//EN"
 "http://www.w3.org/Graphics/SVG/1.1/DTD/svg11.dtd">
<!-- Generated by graphviz version 5.0.0 (20220707.1540)
 -->
<!-- Title: StorageDiagram Pages: 1 -->
<svg width="3086pt" height="482pt"
 viewBox="0.00 0.00 3085.67 482.40" xmlns="http://www.w3.org/2000/svg" xmlns:xlink="http://www.w3.org/1999/xlink">
<g id="graph0" class="graph" transform="scale(1 1) rotate(0) translate(4 478.4)">
<title>StorageDiagram</title>
<polygon fill="white" stroke="transparent" points="-4,4 -4,-478.4 3081.67,-478.4 3081.67,4 -4,4"/>
<!-- 2 -->
<g id="node1" class="node">
<title>2</title>
<polygon fill="#f2f2f2" stroke="black" points="0,-41.9 0,-473.9 1868.69,-473.9 1868.69,-41.9 0,-41.9"/>
<text text-anchor="middle" x="934.34" y="-457.3" font-family="Courier New" font-size="14.00">LRTDepositPool &lt;&lt;Contract&gt;&gt;</text>
<text text-anchor="middle" x="934.34" y="-440.5" font-family="Courier New" font-size="14.00">0x51ADD57dC33A3CB5FFf28Fe149198BD38753975D</text>
<polyline fill="none" stroke="black" points="0,-432.3 1868.69,-432.3 "/>
<text text-anchor="middle" x="41.61" y="-415.7" font-family="Courier New" font-size="14.00">slot</text>
<text text-anchor="middle" x="41.61" y="-398.9" font-family="Courier New" font-size="14.00"> &#160;</text>
<polyline fill="none" stroke="black" points="0,-390.7 83.21,-390.7 "/>
<text text-anchor="middle" x="41.61" y="-374.1" font-family="Courier New" font-size="14.00">0</text>
<text text-anchor="middle" x="41.61" y="-357.3" font-family="Courier New" font-size="14.00"> &#160;</text>
<polyline fill="none" stroke="black" points="0,-349.1 83.21,-349.1 "/>
<text text-anchor="middle" x="41.61" y="-332.5" font-family="Courier New" font-size="14.00">1&#45;50 </text>
<polyline fill="none" stroke="black" points="0,-324.3 83.21,-324.3 "/>
<text text-anchor="middle" x="41.61" y="-307.7" font-family="Courier New" font-size="14.00">51</text>
<text text-anchor="middle" x="41.61" y="-290.9" font-family="Courier New" font-size="14.00"> &#160;</text>
<polyline fill="none" stroke="black" points="0,-282.7 83.21,-282.7 "/>
<text text-anchor="middle" x="41.61" y="-266.1" font-family="Courier New" font-size="14.00">52&#45;100 </text>
<polyline fill="none" stroke="black" points="0,-257.9 83.21,-257.9 "/>
<text text-anchor="middle" x="41.61" y="-241.3" font-family="Courier New" font-size="14.00">101</text>
<text text-anchor="middle" x="41.61" y="-224.5" font-family="Courier New" font-size="14.00"> &#160;</text>
<polyline fill="none" stroke="black" points="0,-216.3 83.21,-216.3 "/>
<text text-anchor="middle" x="41.61" y="-199.7" font-family="Courier New" font-size="14.00">102&#45;150 </text>
<polyline fill="none" stroke="black" points="0,-191.5 83.21,-191.5 "/>
<text text-anchor="middle" x="41.61" y="-174.9" font-family="Courier New" font-size="14.00">151</text>
<text text-anchor="middle" x="41.61" y="-158.1" font-family="Courier New" font-size="14.00"> &#160;</text>
<polyline fill="none" stroke="black" points="0,-149.9 83.21,-149.9 "/>
<text text-anchor="middle" x="41.61" y="-133.3" font-family="Courier New" font-size="14.00">152</text>
<text text-anchor="middle" x="41.61" y="-116.5" font-family="Courier New" font-size="14.00"> &#160;</text>
<polyline fill="none" stroke="black" points="0,-108.3 83.21,-108.3 "/>
<text text-anchor="middle" x="41.61" y="-91.7" font-family="Courier New" font-size="14.00">153 </text>
<polyline fill="none" stroke="black" points="0,-83.5 83.21,-83.5 "/>
<text text-anchor="middle" x="41.61" y="-66.9" font-family="Courier New" font-size="14.00">154</text>
<text text-anchor="middle" x="41.61" y="-50.1" font-family="Courier New" font-size="14.00"> </text>
<polyline fill="none" stroke="black" points="83.21,-41.9 83.21,-432.3 "/>
<text text-anchor="middle" x="368.46" y="-415.7" font-family="Courier New" font-size="14.00">value</text>
<text text-anchor="middle" x="368.46" y="-398.9" font-family="Courier New" font-size="14.00"> &#160;</text>
<polyline fill="none" stroke="black" points="83.21,-390.7 653.7,-390.7 "/>
<text text-anchor="middle" x="368.46" y="-374.1" font-family="Courier New" font-size="14.00">0x000000000000000000000001F879C7859B6DE6FADAFB74224FF05B16871646BF</text>
<text text-anchor="middle" x="368.46" y="-357.3" font-family="Courier New" font-size="14.00"> &#160;</text>
<polyline fill="none" stroke="black" points="83.21,-349.1 653.7,-349.1 "/>
<text text-anchor="middle" x="368.46" y="-332.5" font-family="Courier New" font-size="14.00"> </text>
<polyline fill="none" stroke="black" points="83.21,-324.3 653.7,-324.3 "/>
<text text-anchor="middle" x="368.46" y="-307.7" font-family="Courier New" font-size="14.00">0x0000000000000000000000000000000000000000000000000000000000000000</text>
<text text-anchor="middle" x="368.46" y="-290.9" font-family="Courier New" font-size="14.00"> &#160;</text>
<polyline fill="none" stroke="black" points="83.21,-282.7 653.7,-282.7 "/>
<text text-anchor="middle" x="368.46" y="-266.1" font-family="Courier New" font-size="14.00"> </text>
<polyline fill="none" stroke="black" points="83.21,-257.9 653.7,-257.9 "/>
<text text-anchor="middle" x="368.46" y="-241.3" font-family="Courier New" font-size="14.00">0x0000000000000000000000000000000000000000000000000000000000000001</text>
<text text-anchor="middle" x="368.46" y="-224.5" font-family="Courier New" font-size="14.00"> &#160;</text>
<polyline fill="none" stroke="black" points="83.21,-216.3 653.7,-216.3 "/>
<text text-anchor="middle" x="368.46" y="-199.7" font-family="Courier New" font-size="14.00"> </text>
<polyline fill="none" stroke="black" points="83.21,-191.5 653.7,-191.5 "/>
<text text-anchor="middle" x="368.46" y="-174.9" font-family="Courier New" font-size="14.00">0x000000000000000000000000000000000000000000000000000000000000000A</text>
<text text-anchor="middle" x="368.46" y="-158.1" font-family="Courier New" font-size="14.00"> &#160;</text>
<polyline fill="none" stroke="black" points="83.21,-149.9 653.7,-149.9 "/>
<text text-anchor="middle" x="368.46" y="-133.3" font-family="Courier New" font-size="14.00">0x000000000000000000000000000000000000000000000000000000000000000A</text>
<text text-anchor="middle" x="368.46" y="-116.5" font-family="Courier New" font-size="14.00"> &#160;</text>
<polyline fill="none" stroke="black" points="83.21,-108.3 653.7,-108.3 "/>
<text text-anchor="middle" x="368.46" y="-91.7" font-family="Courier New" font-size="14.00"> </text>
<polyline fill="none" stroke="black" points="83.21,-83.5 653.7,-83.5 "/>
<text text-anchor="middle" x="368.46" y="-66.9" font-family="Courier New" font-size="14.00">0x0000000000000000000000000000000000000000000000000000000000000001</text>
<text text-anchor="middle" x="368.46" y="-50.1" font-family="Courier New" font-size="14.00"> </text>
<polyline fill="none" stroke="black" points="653.7,-41.9 653.7,-432.3 "/>
<text text-anchor="middle" x="1261.19" y="-415.7" font-family="Courier New" font-size="14.00">type: &lt;inherited contract&gt;.variable (bytes)</text>
<text text-anchor="middle" x="1261.19" y="-398.9" font-family="Courier New" font-size="14.00">decoded data</text>
<polyline fill="none" stroke="black" points="653.7,-390.7 1868.69,-390.7 "/>
<text text-anchor="middle" x="728.91" y="-365.7" font-family="Courier New" font-size="14.00">unallocated (10)</text>
<polyline fill="none" stroke="black" points="804.12,-349.1 804.12,-390.7 "/>
<text text-anchor="middle" x="967.55" y="-374.1" font-family="Courier New" font-size="14.00">bool: Initializable._initializing (1)</text>
<text text-anchor="middle" x="967.55" y="-357.3" font-family="Courier New" font-size="14.00"> false &#160;</text>
<polyline fill="none" stroke="black" points="1130.97,-349.1 1130.97,-390.7 "/>
<text text-anchor="middle" x="1294.4" y="-374.1" font-family="Courier New" font-size="14.00">uint8: Initializable._initialized (1)</text>
<text text-anchor="middle" x="1294.4" y="-357.3" font-family="Courier New" font-size="14.00"> 1 &#160;</text>
<polyline fill="none" stroke="black" points="1457.82,-349.1 1457.82,-390.7 "/>
<text text-anchor="middle" x="1663.26" y="-374.1" font-family="Courier New" font-size="14.00">ILRTConfig: LRTConfigRoleChecker.lrtConfig (20)</text>
<text text-anchor="middle" x="1663.26" y="-357.3" font-family="Courier New" font-size="14.00"> 0xF879c7859b6DE6FAdaFB74224Ff05b16871646bF </text>
<polyline fill="none" stroke="black" points="653.7,-349.1 1868.69,-349.1 "/>
<text text-anchor="middle" x="1261.03" y="-332.5" font-family="Courier New" font-size="14.00">uint256[50]: ContextUpgradeable.__gap (1600)</text>
<polyline fill="none" stroke="black" points="653.7,-324.3 1868.69,-324.3 "/>
<text text-anchor="middle" x="912.91" y="-299.3" font-family="Courier New" font-size="14.00">unallocated (31)</text>
<polyline fill="none" stroke="black" points="1172.12,-282.7 1172.12,-324.3 "/>
<text text-anchor="middle" x="1520.05" y="-307.7" font-family="Courier New" font-size="14.00">bool: PausableUpgradeable._paused (1)</text>
<text text-anchor="middle" x="1520.05" y="-290.9" font-family="Courier New" font-size="14.00"> false </text>
<polyline fill="none" stroke="black" points="653.7,-282.7 1868.69,-282.7 "/>
<text text-anchor="middle" x="1260.73" y="-266.1" font-family="Courier New" font-size="14.00">uint256[49]: PausableUpgradeable.__gap (1568)</text>
<polyline fill="none" stroke="black" points="653.7,-257.9 1868.69,-257.9 "/>
<text text-anchor="middle" x="1260.83" y="-241.3" font-family="Courier New" font-size="14.00">uint256: ReentrancyGuardUpgradeable._status (32)</text>
<text text-anchor="middle" x="1260.83" y="-224.5" font-family="Courier New" font-size="14.00"> 1 </text>
<polyline fill="none" stroke="black" points="653.7,-216.3 1868.69,-216.3 "/>
<text text-anchor="middle" x="1261.14" y="-199.7" font-family="Courier New" font-size="14.00">uint256[49]: ReentrancyGuardUpgradeable.__gap (1568)</text>
<polyline fill="none" stroke="black" points="653.7,-191.5 1868.69,-191.5 "/>
<text text-anchor="middle" x="1260.73" y="-174.9" font-family="Courier New" font-size="14.00">uint256: maxNodeDelegatorLimit (32)</text>
<text text-anchor="middle" x="1260.73" y="-158.1" font-family="Courier New" font-size="14.00"> 10 </text>
<polyline fill="none" stroke="black" points="653.7,-149.9 1868.69,-149.9 "/>
<text text-anchor="middle" x="1261.12" y="-133.3" font-family="Courier New" font-size="14.00">uint256: minAmountToDeposit (32)</text>
<text text-anchor="middle" x="1261.12" y="-116.5" font-family="Courier New" font-size="14.00"> 10 </text>
<polyline fill="none" stroke="black" points="653.7,-108.3 1868.69,-108.3 "/>
<text text-anchor="middle" x="1261.13" y="-91.7" font-family="Courier New" font-size="14.00">mapping(address=&gt;uint256): isNodeDelegator (32)</text>
<polyline fill="none" stroke="black" points="653.7,-83.5 1868.69,-83.5 "/>
<text text-anchor="middle" x="1261.02" y="-66.9" font-family="Courier New" font-size="14.00">address[]: nodeDelegatorQueue (32)</text>
<text text-anchor="middle" x="1261.02" y="-50.1" font-family="Courier New" font-size="14.00"> 1 </text>
</g>
<!-- 1 -->
<g id="node2" class="node">
<title>1</title>
<polygon fill="#f2f2f2" stroke="black" points="1904.69,-0.5 1904.69,-125.3 3077.67,-125.3 3077.67,-0.5 1904.69,-0.5"/>
<text text-anchor="middle" x="2491.18" y="-108.7" font-family="Courier New" font-size="14.00">address[]: nodeDelegatorQueue &lt;&lt;Array&gt;&gt;</text>
<text text-anchor="middle" x="2491.18" y="-91.9" font-family="Courier New" font-size="14.00">0x44da158ba27f9252712a74ff6a55c5d531f69609f1f6e7f17c4443a8e2089be4</text>
<polyline fill="none" stroke="black" points="1904.69,-83.7 3077.67,-83.7 "/>
<text text-anchor="middle" x="1937.89" y="-67.1" font-family="Courier New" font-size="14.00">offset</text>
<text text-anchor="middle" x="1937.89" y="-50.3" font-family="Courier New" font-size="14.00"> &#160;</text>
<polyline fill="none" stroke="black" points="1904.69,-42.1 1971.1,-42.1 "/>
<text text-anchor="middle" x="1937.89" y="-25.5" font-family="Courier New" font-size="14.00">0</text>
<text text-anchor="middle" x="1937.89" y="-8.7" font-family="Courier New" font-size="14.00"> </text>
<polyline fill="none" stroke="black" points="1971.1,-0.5 1971.1,-83.7 "/>
<text text-anchor="middle" x="2256.34" y="-67.1" font-family="Courier New" font-size="14.00">value</text>
<text text-anchor="middle" x="2256.34" y="-50.3" font-family="Courier New" font-size="14.00"> &#160;</text>
<polyline fill="none" stroke="black" points="1971.1,-42.1 2541.59,-42.1 "/>
<text text-anchor="middle" x="2256.34" y="-25.5" font-family="Courier New" font-size="14.00">0x0000000000000000000000008BBBCB5F4D31A6DB3201D40F478F30DC4F704AE2</text>
<text text-anchor="middle" x="2256.34" y="-8.7" font-family="Courier New" font-size="14.00"> </text>
<polyline fill="none" stroke="black" points="2541.59,-0.5 2541.59,-83.7 "/>
<text text-anchor="middle" x="2809.63" y="-67.1" font-family="Courier New" font-size="14.00">type: variable (bytes)</text>
<text text-anchor="middle" x="2809.63" y="-50.3" font-family="Courier New" font-size="14.00">decoded data</text>
<polyline fill="none" stroke="black" points="2541.59,-42.1 3077.67,-42.1 "/>
<text text-anchor="middle" x="2616.8" y="-17.1" font-family="Courier New" font-size="14.00">unallocated (12)</text>
<polyline fill="none" stroke="black" points="2692.01,-0.5 2692.01,-42.1 "/>
<text text-anchor="middle" x="2884.84" y="-25.5" font-family="Courier New" font-size="14.00">address (20)</text>
<text text-anchor="middle" x="2884.84" y="-8.7" font-family="Courier New" font-size="14.00"> 0x8bBBCB5F4D31a6db3201D40F478f30Dc4F704aE2 </text>
</g>
<!-- 2&#45;&gt;1 -->
<g id="edge1" class="edge">
<title>2:13&#45;&gt;1</title>
<path fill="none" stroke="black" d="M1868.69,-62.9C1877.22,-62.9 1885.82,-62.9 1894.47,-62.9"/>
<polygon fill="black" stroke="black" points="1894.64,-66.4 1904.64,-62.9 1894.64,-59.4 1894.64,-66.4"/>
</g>
</g>
</svg>
