<?xml version="1.0" encoding="UTF-8" standalone="no"?>
<!DOCTYPE svg PUBLIC "-//W3C//DTD SVG 1.1//EN"
 "http://www.w3.org/Graphics/SVG/1.1/DTD/svg11.dtd">
<!-- Generated by graphviz version 5.0.0 (20220707.1540)
 -->
<!-- Title: StorageDiagram Pages: 1 -->
<svg width="1904pt" height="357pt"
 viewBox="0.00 0.00 1904.29 356.80" xmlns="http://www.w3.org/2000/svg" xmlns:xlink="http://www.w3.org/1999/xlink">
<g id="graph0" class="graph" transform="scale(1 1) rotate(0) translate(4 352.8)">
<title>StorageDiagram</title>
<polygon fill="white" stroke="transparent" points="-4,4 -4,-352.8 1900.29,-352.8 1900.29,4 -4,4"/>
<!-- 2 -->
<g id="node1" class="node">
<title>2</title>
<polygon fill="#f2f2f2" stroke="black" points="0,-33.9 0,-348.3 1289.8,-348.3 1289.8,-33.9 0,-33.9"/>
<text text-anchor="middle" x="644.9" y="-331.7" font-family="Courier New" font-size="14.00">LRTDepositPool &lt;&lt;Contract&gt;&gt;</text>
<text text-anchor="middle" x="644.9" y="-314.9" font-family="Courier New" font-size="14.00">0xC059Ce5a024f25Dc90f2f5C852b4dcc00f316262</text>
<polyline fill="none" stroke="black" points="0,-306.7 1289.8,-306.7 "/>
<text text-anchor="middle" x="37.4" y="-290.1" font-family="Courier New" font-size="14.00">slot</text>
<polyline fill="none" stroke="black" points="0,-281.9 74.81,-281.9 "/>
<text text-anchor="middle" x="37.4" y="-265.3" font-family="Courier New" font-size="14.00">0</text>
<polyline fill="none" stroke="black" points="0,-257.1 74.81,-257.1 "/>
<text text-anchor="middle" x="37.4" y="-240.5" font-family="Courier New" font-size="14.00">1&#45;50</text>
<polyline fill="none" stroke="black" points="0,-232.3 74.81,-232.3 "/>
<text text-anchor="middle" x="37.4" y="-215.7" font-family="Courier New" font-size="14.00">51</text>
<polyline fill="none" stroke="black" points="0,-207.5 74.81,-207.5 "/>
<text text-anchor="middle" x="37.4" y="-190.9" font-family="Courier New" font-size="14.00">52&#45;100</text>
<polyline fill="none" stroke="black" points="0,-182.7 74.81,-182.7 "/>
<text text-anchor="middle" x="37.4" y="-166.1" font-family="Courier New" font-size="14.00">101</text>
<polyline fill="none" stroke="black" points="0,-157.9 74.81,-157.9 "/>
<text text-anchor="middle" x="37.4" y="-141.3" font-family="Courier New" font-size="14.00">102&#45;150</text>
<polyline fill="none" stroke="black" points="0,-133.1 74.81,-133.1 "/>
<text text-anchor="middle" x="37.4" y="-116.5" font-family="Courier New" font-size="14.00">151</text>
<polyline fill="none" stroke="black" points="0,-108.3 74.81,-108.3 "/>
<text text-anchor="middle" x="37.4" y="-91.7" font-family="Courier New" font-size="14.00">152</text>
<polyline fill="none" stroke="black" points="0,-83.5 74.81,-83.5 "/>
<text text-anchor="middle" x="37.4" y="-66.9" font-family="Courier New" font-size="14.00">153</text>
<polyline fill="none" stroke="black" points="0,-58.7 74.81,-58.7 "/>
<text text-anchor="middle" x="37.4" y="-42.1" font-family="Courier New" font-size="14.00">154</text>
<polyline fill="none" stroke="black" points="74.81,-33.9 74.81,-306.7 "/>
<text text-anchor="middle" x="682.3" y="-290.1" font-family="Courier New" font-size="14.00">type: &lt;inherited contract&gt;.variable (bytes)</text>
<polyline fill="none" stroke="black" points="74.81,-281.9 1289.8,-281.9 "/>
<text text-anchor="middle" x="150.02" y="-265.3" font-family="Courier New" font-size="14.00">unallocated (10)</text>
<polyline fill="none" stroke="black" points="225.23,-257.1 225.23,-281.9 "/>
<text text-anchor="middle" x="388.66" y="-265.3" font-family="Courier New" font-size="14.00">bool: Initializable._initializing (1)</text>
<polyline fill="none" stroke="black" points="552.08,-257.1 552.08,-281.9 "/>
<text text-anchor="middle" x="715.51" y="-265.3" font-family="Courier New" font-size="14.00">uint8: Initializable._initialized (1)</text>
<polyline fill="none" stroke="black" points="878.93,-257.1 878.93,-281.9 "/>
<text text-anchor="middle" x="1084.36" y="-265.3" font-family="Courier New" font-size="14.00">ILRTConfig: LRTConfigRoleChecker.lrtConfig (20)</text>
<polyline fill="none" stroke="black" points="74.81,-257.1 1289.8,-257.1 "/>
<text text-anchor="middle" x="682.14" y="-240.5" font-family="Courier New" font-size="14.00">uint256[50]: ContextUpgradeable.__gap (1600)</text>
<polyline fill="none" stroke="black" points="74.81,-232.3 1289.8,-232.3 "/>
<text text-anchor="middle" x="334.02" y="-215.7" font-family="Courier New" font-size="14.00">unallocated (31)</text>
<polyline fill="none" stroke="black" points="593.23,-207.5 593.23,-232.3 "/>
<text text-anchor="middle" x="941.16" y="-215.7" font-family="Courier New" font-size="14.00">bool: PausableUpgradeable._paused (1)</text>
<polyline fill="none" stroke="black" points="74.81,-207.5 1289.8,-207.5 "/>
<text text-anchor="middle" x="681.84" y="-190.9" font-family="Courier New" font-size="14.00">uint256[49]: PausableUpgradeable.__gap (1568)</text>
<polyline fill="none" stroke="black" points="74.81,-182.7 1289.8,-182.7 "/>
<text text-anchor="middle" x="681.94" y="-166.1" font-family="Courier New" font-size="14.00">uint256: ReentrancyGuardUpgradeable._status (32)</text>
<polyline fill="none" stroke="black" points="74.81,-157.9 1289.8,-157.9 "/>
<text text-anchor="middle" x="682.25" y="-141.3" font-family="Courier New" font-size="14.00">uint256[49]: ReentrancyGuardUpgradeable.__gap (1568)</text>
<polyline fill="none" stroke="black" points="74.81,-133.1 1289.8,-133.1 "/>
<text text-anchor="middle" x="681.83" y="-116.5" font-family="Courier New" font-size="14.00">uint256: maxNodeDelegatorLimit (32)</text>
<polyline fill="none" stroke="black" points="74.81,-108.3 1289.8,-108.3 "/>
<text text-anchor="middle" x="682.23" y="-91.7" font-family="Courier New" font-size="14.00">uint256: minAmountToDeposit (32)</text>
<polyline fill="none" stroke="black" points="74.81,-83.5 1289.8,-83.5 "/>
<text text-anchor="middle" x="682.24" y="-66.9" font-family="Courier New" font-size="14.00">mapping(address=&gt;uint256): isNodeDelegator (32)</text>
<polyline fill="none" stroke="black" points="74.81,-58.7 1289.8,-58.7 "/>
<text text-anchor="middle" x="682.13" y="-42.1" font-family="Courier New" font-size="14.00">address[]: nodeDelegatorQueue (32)</text>
</g>
<!-- 1 -->
<g id="node2" class="node">
<title>1</title>
<polygon fill="#f2f2f2" stroke="black" points="1325.8,-0.5 1325.8,-91.7 1896.29,-91.7 1896.29,-0.5 1325.8,-0.5"/>
<text text-anchor="middle" x="1611.04" y="-75.1" font-family="Courier New" font-size="14.00">address[]: nodeDelegatorQueue &lt;&lt;Array&gt;&gt;</text>
<text text-anchor="middle" x="1611.04" y="-58.3" font-family="Courier New" font-size="14.00">0x44da158ba27f9252712a74ff6a55c5d531f69609f1f6e7f17c4443a8e2089be4</text>
<polyline fill="none" stroke="black" points="1325.8,-50.1 1896.29,-50.1 "/>
<text text-anchor="middle" x="1418" y="-33.5" font-family="Courier New" font-size="14.00">offset</text>
<polyline fill="none" stroke="black" points="1325.8,-25.3 1510.21,-25.3 "/>
<text text-anchor="middle" x="1418" y="-8.7" font-family="Courier New" font-size="14.00">0</text>
<polyline fill="none" stroke="black" points="1510.21,-0.5 1510.21,-50.1 "/>
<text text-anchor="middle" x="1702.82" y="-33.5" font-family="Courier New" font-size="14.00">type: variable (bytes)</text>
<polyline fill="none" stroke="black" points="1510.21,-25.3 1895.44,-25.3 "/>
<text text-anchor="middle" x="1614.92" y="-8.7" font-family="Courier New" font-size="14.00">unallocated (12)</text>
<polyline fill="none" stroke="black" points="1719.63,-0.5 1719.63,-25.3 "/>
<text text-anchor="middle" x="1807.54" y="-8.7" font-family="Courier New" font-size="14.00">address (20)</text>
</g>
<!-- 2&#45;&gt;1 -->
<g id="edge1" class="edge">
<title>2:13&#45;&gt;1</title>
<path fill="none" stroke="black" d="M1289.8,-46.1C1298.19,-46.1 1306.7,-46.1 1315.3,-46.1"/>
<polygon fill="black" stroke="black" points="1315.42,-49.6 1325.42,-46.1 1315.42,-42.6 1315.42,-49.6"/>
</g>
</g>
</svg>
