<?xml version="1.0" encoding="UTF-8" standalone="no"?>
<!DOCTYPE svg PUBLIC "-//W3C//DTD SVG 1.1//EN"
 "http://www.w3.org/Graphics/SVG/1.1/DTD/svg11.dtd">
<!-- Generated by graphviz version 5.0.0 (20220707.1540)
 -->
<!-- Title: UmlClassDiagram Pages: 1 -->
<svg width="2876pt" height="337pt"
 viewBox="0.00 0.00 2875.53 336.80" xmlns="http://www.w3.org/2000/svg" xmlns:xlink="http://www.w3.org/1999/xlink">
<g id="graph0" class="graph" transform="scale(1 1) rotate(0) translate(4 332.8)">
<title>UmlClassDiagram</title>
<polygon fill="white" stroke="transparent" points="-4,4 -4,-332.8 2871.53,-332.8 2871.53,4 -4,4"/>
<!-- 0 -->
<g id="node1" class="node">
<title>0</title>
<polygon fill="#f2f2f2" stroke="black" points="1495.48,-0.5 1495.48,-42.1 1681.41,-42.1 1681.41,-0.5 1495.48,-0.5"/>
<text text-anchor="middle" x="1588.44" y="-25.5" font-family="Times,serif" font-size="14.00">LRTDepositPool</text>
<text text-anchor="middle" x="1588.44" y="-8.7" font-family="Times,serif" font-size="14.00">contracts/LRTDepositPool.sol</text>
</g>
<!-- 12 -->
<g id="node2" class="node">
<title>12</title>
<polygon fill="#f2f2f2" stroke="black" points="2097.17,-174.5 2097.17,-232.9 2315.72,-232.9 2315.72,-174.5 2097.17,-174.5"/>
<text text-anchor="middle" x="2206.44" y="-216.3" font-family="Times,serif" font-size="14.00">&lt;&lt;Interface&gt;&gt;</text>
<text text-anchor="middle" x="2206.44" y="-199.5" font-family="Times,serif" font-size="14.00">ILRTConfig</text>
<text text-anchor="middle" x="2206.44" y="-182.7" font-family="Times,serif" font-size="14.00">contracts/interfaces/ILRTConfig.sol</text>
</g>
<!-- 0&#45;&gt;12 -->
<g id="edge5" class="edge">
<title>0&#45;&gt;12</title>
<path fill="none" stroke="black" stroke-dasharray="5,2" d="M1681.59,-23.76C1849.21,-27.37 2187.62,-39.46 2223.44,-78.6 2244.46,-101.56 2236.66,-137.64 2225.7,-164.99"/>
<polygon fill="black" stroke="black" points="2222.45,-163.69 2221.73,-174.26 2228.88,-166.44 2222.45,-163.69"/>
</g>
<!-- 7 -->
<g id="node3" class="node">
<title>7</title>
<polygon fill="#f2f2f2" stroke="black" points="0,-79.1 0,-137.5 248.89,-137.5 248.89,-79.1 0,-79.1"/>
<text text-anchor="middle" x="124.44" y="-120.9" font-family="Times,serif" font-size="14.00">&lt;&lt;Interface&gt;&gt;</text>
<text text-anchor="middle" x="124.44" y="-104.1" font-family="Times,serif" font-size="14.00">ILRTDepositPool</text>
<text text-anchor="middle" x="124.44" y="-87.3" font-family="Times,serif" font-size="14.00">contracts/interfaces/ILRTDepositPool.sol</text>
</g>
<!-- 0&#45;&gt;7 -->
<g id="edge1" class="edge">
<title>0&#45;&gt;7</title>
<path fill="none" stroke="black" stroke-dasharray="5,2" d="M1495.11,-24.2C1243.59,-29.64 552.81,-46.72 279.25,-76.34"/>
<polygon fill="none" stroke="black" points="277.72,-65.95 249.15,-79.87 280.17,-86.81 277.72,-65.95"/>
</g>
<!-- 5 -->
<g id="node4" class="node">
<title>5</title>
<polygon fill="#f2f2f2" stroke="black" points="266.96,-79.1 266.96,-137.5 483.92,-137.5 483.92,-79.1 266.96,-79.1"/>
<text text-anchor="middle" x="375.44" y="-120.9" font-family="Times,serif" font-size="14.00">&lt;&lt;Interface&gt;&gt;</text>
<text text-anchor="middle" x="375.44" y="-104.1" font-family="Times,serif" font-size="14.00">ILRTOracle</text>
<text text-anchor="middle" x="375.44" y="-87.3" font-family="Times,serif" font-size="14.00">contracts/interfaces/ILRTOracle.sol</text>
</g>
<!-- 0&#45;&gt;5 -->
<g id="edge8" class="edge">
<title>0&#45;&gt;5</title>
<path fill="none" stroke="black" stroke-dasharray="5,2" d="M1495.46,-24.84C1271.21,-31.32 704.35,-49.92 494,-78.68"/>
<polygon fill="black" stroke="black" points="493.37,-75.23 483.96,-80.1 494.35,-82.16 493.37,-75.23"/>
</g>
<!-- 6 -->
<g id="node5" class="node">
<title>6</title>
<polygon fill="#f2f2f2" stroke="black" points="502.08,-79.1 502.08,-137.5 740.81,-137.5 740.81,-79.1 502.08,-79.1"/>
<text text-anchor="middle" x="621.44" y="-120.9" font-family="Times,serif" font-size="14.00">&lt;&lt;Interface&gt;&gt;</text>
<text text-anchor="middle" x="621.44" y="-104.1" font-family="Times,serif" font-size="14.00">INodeDelegator</text>
<text text-anchor="middle" x="621.44" y="-87.3" font-family="Times,serif" font-size="14.00">contracts/interfaces/INodeDelegator.sol</text>
</g>
<!-- 0&#45;&gt;6 -->
<g id="edge7" class="edge">
<title>0&#45;&gt;6</title>
<path fill="none" stroke="black" stroke-dasharray="5,2" d="M1495.46,-23.88C1342.07,-27.52 1026.37,-39.35 751.1,-78.44"/>
<polygon fill="black" stroke="black" points="750.31,-75.02 740.91,-79.91 751.31,-81.95 750.31,-75.02"/>
</g>
<!-- 8 -->
<g id="node6" class="node">
<title>8</title>
<polygon fill="#f2f2f2" stroke="black" points="1712.17,-79.1 1712.17,-137.5 1902.71,-137.5 1902.71,-79.1 1712.17,-79.1"/>
<text text-anchor="middle" x="1807.44" y="-120.9" font-family="Times,serif" font-size="14.00">&lt;&lt;Interface&gt;&gt;</text>
<text text-anchor="middle" x="1807.44" y="-104.1" font-family="Times,serif" font-size="14.00">IOETH</text>
<text text-anchor="middle" x="1807.44" y="-87.3" font-family="Times,serif" font-size="14.00">contracts/interfaces/IOETH.sol</text>
</g>
<!-- 0&#45;&gt;8 -->
<g id="edge10" class="edge">
<title>0&#45;&gt;8</title>
<path fill="none" stroke="black" stroke-dasharray="5,2" d="M1639.51,-42.12C1664.95,-51.99 1696.33,-64.18 1725.06,-75.33"/>
<polygon fill="black" stroke="black" points="1724.1,-78.71 1734.69,-79.06 1726.63,-72.18 1724.1,-78.71"/>
</g>
<!-- 4 -->
<g id="node7" class="node">
<title>4</title>
<polygon fill="#f2f2f2" stroke="black" points="1262.51,-79.1 1262.51,-137.5 1476.38,-137.5 1476.38,-79.1 1262.51,-79.1"/>
<text text-anchor="middle" x="1369.44" y="-120.9" font-family="Times,serif" font-size="14.00">&lt;&lt;Interface&gt;&gt;</text>
<text text-anchor="middle" x="1369.44" y="-104.1" font-family="Times,serif" font-size="14.00">IPrimeETH</text>
<text text-anchor="middle" x="1369.44" y="-87.3" font-family="Times,serif" font-size="14.00">contracts/interfaces/IPrimeETH.sol</text>
</g>
<!-- 0&#45;&gt;4 -->
<g id="edge9" class="edge">
<title>0&#45;&gt;4</title>
<path fill="none" stroke="black" stroke-dasharray="5,2" d="M1537.37,-42.12C1511.94,-51.99 1480.55,-64.18 1451.82,-75.33"/>
<polygon fill="black" stroke="black" points="1450.25,-72.18 1442.2,-79.06 1452.78,-78.71 1450.25,-72.18"/>
</g>
<!-- 3 -->
<g id="node9" class="node">
<title>3</title>
<polygon fill="#f2f2f2" stroke="black" points="1958.1,-79.1 1958.1,-137.5 2214.78,-137.5 2214.78,-79.1 1958.1,-79.1"/>
<text text-anchor="middle" x="2086.44" y="-120.9" font-family="Times,serif" font-size="14.00">&lt;&lt;Abstract&gt;&gt;</text>
<text text-anchor="middle" x="2086.44" y="-104.1" font-family="Times,serif" font-size="14.00">LRTConfigRoleChecker</text>
<text text-anchor="middle" x="2086.44" y="-87.3" font-family="Times,serif" font-size="14.00">contracts/utils/LRTConfigRoleChecker.sol</text>
</g>
<!-- 0&#45;&gt;3 -->
<g id="edge2" class="edge">
<title>0&#45;&gt;3</title>
<path fill="none" stroke="black" d="M1681.57,-35.92C1746.55,-45.66 1836.02,-59.56 1928.3,-75.79"/>
<polygon fill="none" stroke="black" points="1926.63,-86.16 1958,-81.09 1930.31,-65.49 1926.63,-86.16"/>
</g>
<!-- 10 -->
<g id="node11" class="node">
<title>10</title>
<polygon fill="#f2f2f2" stroke="black" points="758.84,-79.1 758.84,-137.5 1244.05,-137.5 1244.05,-79.1 758.84,-79.1"/>
<text text-anchor="middle" x="1001.44" y="-120.9" font-family="Times,serif" font-size="14.00">&lt;&lt;Abstract&gt;&gt;</text>
<text text-anchor="middle" x="1001.44" y="-104.1" font-family="Times,serif" font-size="14.00">PausableUpgradeable</text>
<text text-anchor="middle" x="1001.44" y="-87.3" font-family="Times,serif" font-size="14.00">lib/openzeppelin&#45;contracts&#45;upgradeable/contracts/security/PausableUpgradeable.sol</text>
</g>
<!-- 0&#45;&gt;10 -->
<g id="edge3" class="edge">
<title>0&#45;&gt;10</title>
<path fill="none" stroke="black" d="M1495.43,-35.77C1423.16,-46.23 1319.82,-61.2 1226.33,-74.74"/>
<polygon fill="none" stroke="black" points="1224.56,-64.38 1196.37,-79.07 1227.57,-85.17 1224.56,-64.38"/>
</g>
<!-- 11 -->
<g id="node12" class="node">
<title>11</title>
<polygon fill="#f2f2f2" stroke="black" points="2333.36,-174.5 2333.36,-232.9 2867.53,-232.9 2867.53,-174.5 2333.36,-174.5"/>
<text text-anchor="middle" x="2600.44" y="-216.3" font-family="Times,serif" font-size="14.00">&lt;&lt;Abstract&gt;&gt;</text>
<text text-anchor="middle" x="2600.44" y="-199.5" font-family="Times,serif" font-size="14.00">ReentrancyGuardUpgradeable</text>
<text text-anchor="middle" x="2600.44" y="-182.7" font-family="Times,serif" font-size="14.00">lib/openzeppelin&#45;contracts&#45;upgradeable/contracts/security/ReentrancyGuardUpgradeable.sol</text>
</g>
<!-- 0&#45;&gt;11 -->
<g id="edge4" class="edge">
<title>0&#45;&gt;11</title>
<path fill="none" stroke="black" d="M1681.59,-23.01C1809.74,-25.64 2047,-36.41 2244.44,-78.6 2336.08,-98.18 2436.56,-134.67 2507.33,-163.04"/>
<polygon fill="none" stroke="black" points="2503.52,-172.82 2535.26,-174.43 2511.45,-153.38 2503.52,-172.82"/>
</g>
<!-- 9 -->
<g id="node15" class="node">
<title>9</title>
<polygon fill="#f2f2f2" stroke="black" points="1323.12,-174.5 1323.12,-232.9 1691.77,-232.9 1691.77,-174.5 1323.12,-174.5"/>
<text text-anchor="middle" x="1507.44" y="-216.3" font-family="Times,serif" font-size="14.00">&lt;&lt;Interface&gt;&gt;</text>
<text text-anchor="middle" x="1507.44" y="-199.5" font-family="Times,serif" font-size="14.00">IERC20</text>
<text text-anchor="middle" x="1507.44" y="-182.7" font-family="Times,serif" font-size="14.00">lib/openzeppelin&#45;contracts/contracts/token/ERC20/IERC20.sol</text>
</g>
<!-- 0&#45;&gt;9 -->
<g id="edge6" class="edge">
<title>0&#45;&gt;9</title>
<path fill="none" stroke="black" stroke-dasharray="5,2" d="M1681.53,-25.65C1799.51,-33.21 1979.8,-57.83 1911.44,-138 1909.56,-140.21 1804.36,-157.02 1701.79,-172.95"/>
<polygon fill="black" stroke="black" points="1701.23,-169.49 1691.88,-174.48 1702.3,-176.41 1701.23,-169.49"/>
</g>
<!-- 8&#45;&gt;9 -->
<g id="edge11" class="edge">
<title>8&#45;&gt;9</title>
<path fill="none" stroke="black" stroke-dasharray="5,2" d="M1716.62,-137.58C1688.49,-146.33 1657.05,-156.12 1627.26,-165.4"/>
<polygon fill="none" stroke="black" points="1623.74,-155.5 1598.22,-174.44 1629.98,-175.55 1623.74,-155.5"/>
</g>
<!-- 15 -->
<g id="node8" class="node">
<title>15</title>
<polygon fill="#f2f2f2" stroke="black" points="1494.51,-79.1 1494.51,-137.5 1694.38,-137.5 1694.38,-79.1 1494.51,-79.1"/>
<text text-anchor="middle" x="1594.44" y="-120.9" font-family="Times,serif" font-size="14.00">&lt;&lt;Interface&gt;&gt;</text>
<text text-anchor="middle" x="1594.44" y="-104.1" font-family="Times,serif" font-size="14.00">IStrategy</text>
<text text-anchor="middle" x="1594.44" y="-87.3" font-family="Times,serif" font-size="14.00">contracts/interfaces/IStrategy.sol</text>
</g>
<!-- 15&#45;&gt;9 -->
<g id="edge12" class="edge">
<title>15&#45;&gt;9</title>
<path fill="none" stroke="black" stroke-dasharray="5,2" d="M1568.1,-137.58C1559.58,-146.73 1550.01,-157 1541.03,-166.64"/>
<polygon fill="black" stroke="black" points="1538.25,-164.49 1533.99,-174.2 1543.37,-169.27 1538.25,-164.49"/>
</g>
<!-- 3&#45;&gt;12 -->
<g id="edge13" class="edge">
<title>3&#45;&gt;12</title>
<path fill="none" stroke="black" d="M2122.77,-137.58C2135,-147.09 2148.78,-157.82 2161.58,-167.78"/>
<polygon fill="black" stroke="black" points="2159.78,-170.82 2169.82,-174.2 2164.08,-165.29 2159.78,-170.82"/>
</g>
<!-- 13 -->
<g id="node14" class="node">
<title>13</title>
<polygon fill="#f2f2f2" stroke="black" points="1709.75,-174.5 1709.75,-232.9 2079.13,-232.9 2079.13,-174.5 1709.75,-174.5"/>
<text text-anchor="middle" x="1894.44" y="-216.3" font-family="Times,serif" font-size="14.00">&lt;&lt;Interface&gt;&gt;</text>
<text text-anchor="middle" x="1894.44" y="-199.5" font-family="Times,serif" font-size="14.00">IAccessControl</text>
<text text-anchor="middle" x="1894.44" y="-182.7" font-family="Times,serif" font-size="14.00">lib/openzeppelin&#45;contracts/contracts/access/IAccessControl.sol</text>
</g>
<!-- 3&#45;&gt;13 -->
<g id="edge14" class="edge">
<title>3&#45;&gt;13</title>
<path fill="none" stroke="black" stroke-dasharray="5,2" d="M2028.32,-137.58C2007.36,-147.77 1983.53,-159.36 1961.85,-169.91"/>
<polygon fill="black" stroke="black" points="1960.17,-166.84 1952.7,-174.36 1963.23,-173.13 1960.17,-166.84"/>
</g>
<!-- 17 -->
<g id="node10" class="node">
<title>17</title>
<polygon fill="#f2f2f2" stroke="black" points="1035.88,-269.9 1035.88,-328.3 1483.01,-328.3 1483.01,-269.9 1035.88,-269.9"/>
<text text-anchor="middle" x="1259.44" y="-311.7" font-family="Times,serif" font-size="14.00">&lt;&lt;Abstract&gt;&gt;</text>
<text text-anchor="middle" x="1259.44" y="-294.9" font-family="Times,serif" font-size="14.00">Initializable</text>
<text text-anchor="middle" x="1259.44" y="-278.1" font-family="Times,serif" font-size="14.00">lib/openzeppelin&#45;contracts&#45;upgradeable/contracts/proxy/utils/Initializable.sol</text>
</g>
<!-- 10&#45;&gt;17 -->
<g id="edge15" class="edge">
<title>10&#45;&gt;17</title>
<path fill="none" stroke="black" d="M1156.65,-137.52C1194.38,-147.36 1227.59,-159.61 1240.44,-174 1256.24,-191.68 1262.04,-216.73 1263.49,-239.7"/>
<polygon fill="none" stroke="black" points="1252.99,-239.72 1263.23,-269.81 1273.99,-239.9 1252.99,-239.72"/>
</g>
<!-- 16 -->
<g id="node13" class="node">
<title>16</title>
<polygon fill="#f2f2f2" stroke="black" points="771.66,-174.5 771.66,-232.9 1231.23,-232.9 1231.23,-174.5 771.66,-174.5"/>
<text text-anchor="middle" x="1001.44" y="-216.3" font-family="Times,serif" font-size="14.00">&lt;&lt;Abstract&gt;&gt;</text>
<text text-anchor="middle" x="1001.44" y="-199.5" font-family="Times,serif" font-size="14.00">ContextUpgradeable</text>
<text text-anchor="middle" x="1001.44" y="-182.7" font-family="Times,serif" font-size="14.00">lib/openzeppelin&#45;contracts&#45;upgradeable/contracts/utils/ContextUpgradeable.sol</text>
</g>
<!-- 10&#45;&gt;16 -->
<g id="edge16" class="edge">
<title>10&#45;&gt;16</title>
<path fill="none" stroke="black" d="M1001.44,-137.58C1001.44,-139.66 1001.44,-141.8 1001.44,-143.98"/>
<polygon fill="none" stroke="black" points="990.94,-144.2 1001.44,-174.2 1011.94,-144.2 990.94,-144.2"/>
</g>
<!-- 11&#45;&gt;17 -->
<g id="edge17" class="edge">
<title>11&#45;&gt;17</title>
<path fill="none" stroke="black" d="M2333.13,-232.67C2330.22,-232.92 2327.32,-233.16 2324.44,-233.4 2047.43,-256.21 1729.27,-274.51 1513.36,-285.75"/>
<polygon fill="none" stroke="black" points="1512.68,-275.27 1483.26,-287.3 1513.76,-296.24 1512.68,-275.27"/>
</g>
<!-- 16&#45;&gt;17 -->
<g id="edge18" class="edge">
<title>16&#45;&gt;17</title>
<path fill="none" stroke="black" d="M1079.55,-232.98C1102.56,-241.31 1128.14,-250.56 1152.62,-259.43"/>
<polygon fill="none" stroke="black" points="1149.37,-269.42 1181.16,-269.76 1156.52,-249.67 1149.37,-269.42"/>
</g>
</g>
</svg>
