<?xml version="1.0" encoding="UTF-8" standalone="no"?>
<!DOCTYPE svg PUBLIC "-//W3C//DTD SVG 1.1//EN"
 "http://www.w3.org/Graphics/SVG/1.1/DTD/svg11.dtd">
<!-- Generated by graphviz version 5.0.0 (20220707.1540)
 -->
<!-- Title: StorageDiagram Pages: 1 -->
<svg width="3086pt" height="503pt"
 viewBox="0.00 0.00 3085.67 503.20" xmlns="http://www.w3.org/2000/svg" xmlns:xlink="http://www.w3.org/1999/xlink">
<g id="graph0" class="graph" transform="scale(1 1) rotate(0) translate(4 499.2)">
<title>StorageDiagram</title>
<polygon fill="white" stroke="transparent" points="-4,4 -4,-499.2 3081.67,-499.2 3081.67,4 -4,4"/>
<!-- 2 -->
<g id="node1" class="node">
<title>2</title>
<polygon fill="#f2f2f2" stroke="black" points="0,-62.7 0,-494.7 1868.69,-494.7 1868.69,-62.7 0,-62.7"/>
<text text-anchor="middle" x="934.34" y="-478.1" font-family="Courier New" font-size="14.00">LRTDepositPool &lt;&lt;Contract&gt;&gt;</text>
<text text-anchor="middle" x="934.34" y="-461.3" font-family="Courier New" font-size="14.00">0xC059Ce5a024f25Dc90f2f5C852b4dcc00f316262</text>
<polyline fill="none" stroke="black" points="0,-453.1 1868.69,-453.1 "/>
<text text-anchor="middle" x="41.61" y="-436.5" font-family="Courier New" font-size="14.00">slot</text>
<text text-anchor="middle" x="41.61" y="-419.7" font-family="Courier New" font-size="14.00"> &#160;</text>
<polyline fill="none" stroke="black" points="0,-411.5 83.21,-411.5 "/>
<text text-anchor="middle" x="41.61" y="-394.9" font-family="Courier New" font-size="14.00">0</text>
<text text-anchor="middle" x="41.61" y="-378.1" font-family="Courier New" font-size="14.00"> &#160;</text>
<polyline fill="none" stroke="black" points="0,-369.9 83.21,-369.9 "/>
<text text-anchor="middle" x="41.61" y="-353.3" font-family="Courier New" font-size="14.00">1&#45;50 </text>
<polyline fill="none" stroke="black" points="0,-345.1 83.21,-345.1 "/>
<text text-anchor="middle" x="41.61" y="-328.5" font-family="Courier New" font-size="14.00">51</text>
<text text-anchor="middle" x="41.61" y="-311.7" font-family="Courier New" font-size="14.00"> &#160;</text>
<polyline fill="none" stroke="black" points="0,-303.5 83.21,-303.5 "/>
<text text-anchor="middle" x="41.61" y="-286.9" font-family="Courier New" font-size="14.00">52&#45;100 </text>
<polyline fill="none" stroke="black" points="0,-278.7 83.21,-278.7 "/>
<text text-anchor="middle" x="41.61" y="-262.1" font-family="Courier New" font-size="14.00">101</text>
<text text-anchor="middle" x="41.61" y="-245.3" font-family="Courier New" font-size="14.00"> &#160;</text>
<polyline fill="none" stroke="black" points="0,-237.1 83.21,-237.1 "/>
<text text-anchor="middle" x="41.61" y="-220.5" font-family="Courier New" font-size="14.00">102&#45;150 </text>
<polyline fill="none" stroke="black" points="0,-212.3 83.21,-212.3 "/>
<text text-anchor="middle" x="41.61" y="-195.7" font-family="Courier New" font-size="14.00">151</text>
<text text-anchor="middle" x="41.61" y="-178.9" font-family="Courier New" font-size="14.00"> &#160;</text>
<polyline fill="none" stroke="black" points="0,-170.7 83.21,-170.7 "/>
<text text-anchor="middle" x="41.61" y="-154.1" font-family="Courier New" font-size="14.00">152</text>
<text text-anchor="middle" x="41.61" y="-137.3" font-family="Courier New" font-size="14.00"> &#160;</text>
<polyline fill="none" stroke="black" points="0,-129.1 83.21,-129.1 "/>
<text text-anchor="middle" x="41.61" y="-112.5" font-family="Courier New" font-size="14.00">153 </text>
<polyline fill="none" stroke="black" points="0,-104.3 83.21,-104.3 "/>
<text text-anchor="middle" x="41.61" y="-87.7" font-family="Courier New" font-size="14.00">154</text>
<text text-anchor="middle" x="41.61" y="-70.9" font-family="Courier New" font-size="14.00"> </text>
<polyline fill="none" stroke="black" points="83.21,-62.7 83.21,-453.1 "/>
<text text-anchor="middle" x="368.46" y="-436.5" font-family="Courier New" font-size="14.00">value</text>
<text text-anchor="middle" x="368.46" y="-419.7" font-family="Courier New" font-size="14.00"> &#160;</text>
<polyline fill="none" stroke="black" points="83.21,-411.5 653.7,-411.5 "/>
<text text-anchor="middle" x="368.46" y="-394.9" font-family="Courier New" font-size="14.00">0x000000000000000000000001F879C7859B6DE6FADAFB74224FF05B16871646BF</text>
<text text-anchor="middle" x="368.46" y="-378.1" font-family="Courier New" font-size="14.00"> &#160;</text>
<polyline fill="none" stroke="black" points="83.21,-369.9 653.7,-369.9 "/>
<text text-anchor="middle" x="368.46" y="-353.3" font-family="Courier New" font-size="14.00"> </text>
<polyline fill="none" stroke="black" points="83.21,-345.1 653.7,-345.1 "/>
<text text-anchor="middle" x="368.46" y="-328.5" font-family="Courier New" font-size="14.00">0x0000000000000000000000000000000000000000000000000000000000000001</text>
<text text-anchor="middle" x="368.46" y="-311.7" font-family="Courier New" font-size="14.00"> &#160;</text>
<polyline fill="none" stroke="black" points="83.21,-303.5 653.7,-303.5 "/>
<text text-anchor="middle" x="368.46" y="-286.9" font-family="Courier New" font-size="14.00"> </text>
<polyline fill="none" stroke="black" points="83.21,-278.7 653.7,-278.7 "/>
<text text-anchor="middle" x="368.46" y="-262.1" font-family="Courier New" font-size="14.00">0x0000000000000000000000000000000000000000000000000000000000000001</text>
<text text-anchor="middle" x="368.46" y="-245.3" font-family="Courier New" font-size="14.00"> &#160;</text>
<polyline fill="none" stroke="black" points="83.21,-237.1 653.7,-237.1 "/>
<text text-anchor="middle" x="368.46" y="-220.5" font-family="Courier New" font-size="14.00"> </text>
<polyline fill="none" stroke="black" points="83.21,-212.3 653.7,-212.3 "/>
<text text-anchor="middle" x="368.46" y="-195.7" font-family="Courier New" font-size="14.00">0x000000000000000000000000000000000000000000000000000000000000000A</text>
<text text-anchor="middle" x="368.46" y="-178.9" font-family="Courier New" font-size="14.00"> &#160;</text>
<polyline fill="none" stroke="black" points="83.21,-170.7 653.7,-170.7 "/>
<text text-anchor="middle" x="368.46" y="-154.1" font-family="Courier New" font-size="14.00">0x000000000000000000000000000000000000000000000000000000000000000A</text>
<text text-anchor="middle" x="368.46" y="-137.3" font-family="Courier New" font-size="14.00"> &#160;</text>
<polyline fill="none" stroke="black" points="83.21,-129.1 653.7,-129.1 "/>
<text text-anchor="middle" x="368.46" y="-112.5" font-family="Courier New" font-size="14.00"> </text>
<polyline fill="none" stroke="black" points="83.21,-104.3 653.7,-104.3 "/>
<text text-anchor="middle" x="368.46" y="-87.7" font-family="Courier New" font-size="14.00">0x0000000000000000000000000000000000000000000000000000000000000002</text>
<text text-anchor="middle" x="368.46" y="-70.9" font-family="Courier New" font-size="14.00"> </text>
<polyline fill="none" stroke="black" points="653.7,-62.7 653.7,-453.1 "/>
<text text-anchor="middle" x="1261.19" y="-436.5" font-family="Courier New" font-size="14.00">type: &lt;inherited contract&gt;.variable (bytes)</text>
<text text-anchor="middle" x="1261.19" y="-419.7" font-family="Courier New" font-size="14.00">decoded data</text>
<polyline fill="none" stroke="black" points="653.7,-411.5 1868.69,-411.5 "/>
<text text-anchor="middle" x="728.91" y="-386.5" font-family="Courier New" font-size="14.00">unallocated (10)</text>
<polyline fill="none" stroke="black" points="804.12,-369.9 804.12,-411.5 "/>
<text text-anchor="middle" x="967.55" y="-394.9" font-family="Courier New" font-size="14.00">bool: Initializable._initializing (1)</text>
<text text-anchor="middle" x="967.55" y="-378.1" font-family="Courier New" font-size="14.00"> false &#160;</text>
<polyline fill="none" stroke="black" points="1130.97,-369.9 1130.97,-411.5 "/>
<text text-anchor="middle" x="1294.4" y="-394.9" font-family="Courier New" font-size="14.00">uint8: Initializable._initialized (1)</text>
<text text-anchor="middle" x="1294.4" y="-378.1" font-family="Courier New" font-size="14.00"> 1 &#160;</text>
<polyline fill="none" stroke="black" points="1457.82,-369.9 1457.82,-411.5 "/>
<text text-anchor="middle" x="1663.26" y="-394.9" font-family="Courier New" font-size="14.00">ILRTConfig: LRTConfigRoleChecker.lrtConfig (20)</text>
<text text-anchor="middle" x="1663.26" y="-378.1" font-family="Courier New" font-size="14.00"> 0xF879c7859b6DE6FAdaFB74224Ff05b16871646bF </text>
<polyline fill="none" stroke="black" points="653.7,-369.9 1868.69,-369.9 "/>
<text text-anchor="middle" x="1261.03" y="-353.3" font-family="Courier New" font-size="14.00">uint256[50]: ContextUpgradeable.__gap (1600)</text>
<polyline fill="none" stroke="black" points="653.7,-345.1 1868.69,-345.1 "/>
<text text-anchor="middle" x="912.91" y="-320.1" font-family="Courier New" font-size="14.00">unallocated (31)</text>
<polyline fill="none" stroke="black" points="1172.12,-303.5 1172.12,-345.1 "/>
<text text-anchor="middle" x="1520.05" y="-328.5" font-family="Courier New" font-size="14.00">bool: PausableUpgradeable._paused (1)</text>
<text text-anchor="middle" x="1520.05" y="-311.7" font-family="Courier New" font-size="14.00"> true </text>
<polyline fill="none" stroke="black" points="653.7,-303.5 1868.69,-303.5 "/>
<text text-anchor="middle" x="1260.73" y="-286.9" font-family="Courier New" font-size="14.00">uint256[49]: PausableUpgradeable.__gap (1568)</text>
<polyline fill="none" stroke="black" points="653.7,-278.7 1868.69,-278.7 "/>
<text text-anchor="middle" x="1260.83" y="-262.1" font-family="Courier New" font-size="14.00">uint256: ReentrancyGuardUpgradeable._status (32)</text>
<text text-anchor="middle" x="1260.83" y="-245.3" font-family="Courier New" font-size="14.00"> 1 </text>
<polyline fill="none" stroke="black" points="653.7,-237.1 1868.69,-237.1 "/>
<text text-anchor="middle" x="1261.14" y="-220.5" font-family="Courier New" font-size="14.00">uint256[49]: ReentrancyGuardUpgradeable.__gap (1568)</text>
<polyline fill="none" stroke="black" points="653.7,-212.3 1868.69,-212.3 "/>
<text text-anchor="middle" x="1260.73" y="-195.7" font-family="Courier New" font-size="14.00">uint256: maxNodeDelegatorLimit (32)</text>
<text text-anchor="middle" x="1260.73" y="-178.9" font-family="Courier New" font-size="14.00"> 10 </text>
<polyline fill="none" stroke="black" points="653.7,-170.7 1868.69,-170.7 "/>
<text text-anchor="middle" x="1261.12" y="-154.1" font-family="Courier New" font-size="14.00">uint256: minAmountToDeposit (32)</text>
<text text-anchor="middle" x="1261.12" y="-137.3" font-family="Courier New" font-size="14.00"> 10 </text>
<polyline fill="none" stroke="black" points="653.7,-129.1 1868.69,-129.1 "/>
<text text-anchor="middle" x="1261.13" y="-112.5" font-family="Courier New" font-size="14.00">mapping(address=&gt;uint256): isNodeDelegator (32)</text>
<polyline fill="none" stroke="black" points="653.7,-104.3 1868.69,-104.3 "/>
<text text-anchor="middle" x="1261.02" y="-87.7" font-family="Courier New" font-size="14.00">address[]: nodeDelegatorQueue (32)</text>
<text text-anchor="middle" x="1261.02" y="-70.9" font-family="Courier New" font-size="14.00"> 2 </text>
</g>
<!-- 1 -->
<g id="node2" class="node">
<title>1</title>
<polygon fill="#f2f2f2" stroke="black" points="1904.69,-0.5 1904.69,-166.9 3077.67,-166.9 3077.67,-0.5 1904.69,-0.5"/>
<text text-anchor="middle" x="2491.18" y="-150.3" font-family="Courier New" font-size="14.00">address[]: nodeDelegatorQueue &lt;&lt;Array&gt;&gt;</text>
<text text-anchor="middle" x="2491.18" y="-133.5" font-family="Courier New" font-size="14.00">0x44da158ba27f9252712a74ff6a55c5d531f69609f1f6e7f17c4443a8e2089be4</text>
<polyline fill="none" stroke="black" points="1904.69,-125.3 3077.67,-125.3 "/>
<text text-anchor="middle" x="1937.89" y="-108.7" font-family="Courier New" font-size="14.00">offset</text>
<text text-anchor="middle" x="1937.89" y="-91.9" font-family="Courier New" font-size="14.00"> &#160;</text>
<polyline fill="none" stroke="black" points="1904.69,-83.7 1971.1,-83.7 "/>
<text text-anchor="middle" x="1937.89" y="-67.1" font-family="Courier New" font-size="14.00">0</text>
<text text-anchor="middle" x="1937.89" y="-50.3" font-family="Courier New" font-size="14.00"> &#160;</text>
<polyline fill="none" stroke="black" points="1904.69,-42.1 1971.1,-42.1 "/>
<text text-anchor="middle" x="1937.89" y="-25.5" font-family="Courier New" font-size="14.00">1</text>
<text text-anchor="middle" x="1937.89" y="-8.7" font-family="Courier New" font-size="14.00"> </text>
<polyline fill="none" stroke="black" points="1971.1,-0.5 1971.1,-125.3 "/>
<text text-anchor="middle" x="2256.34" y="-108.7" font-family="Courier New" font-size="14.00">value</text>
<text text-anchor="middle" x="2256.34" y="-91.9" font-family="Courier New" font-size="14.00"> &#160;</text>
<polyline fill="none" stroke="black" points="1971.1,-83.7 2541.59,-83.7 "/>
<text text-anchor="middle" x="2256.34" y="-67.1" font-family="Courier New" font-size="14.00">0x0000000000000000000000008BBBCB5F4D31A6DB3201D40F478F30DC4F704AE2</text>
<text text-anchor="middle" x="2256.34" y="-50.3" font-family="Courier New" font-size="14.00"> &#160;</text>
<polyline fill="none" stroke="black" points="1971.1,-42.1 2541.59,-42.1 "/>
<text text-anchor="middle" x="2256.34" y="-25.5" font-family="Courier New" font-size="14.00">0x00000000000000000000000018169EE0CED9AA744F3CD01ADC6E2EB2E8FB0087</text>
<text text-anchor="middle" x="2256.34" y="-8.7" font-family="Courier New" font-size="14.00"> </text>
<polyline fill="none" stroke="black" points="2541.59,-0.5 2541.59,-125.3 "/>
<text text-anchor="middle" x="2809.63" y="-108.7" font-family="Courier New" font-size="14.00">type: variable (bytes)</text>
<text text-anchor="middle" x="2809.63" y="-91.9" font-family="Courier New" font-size="14.00">decoded data</text>
<polyline fill="none" stroke="black" points="2541.59,-83.7 3077.67,-83.7 "/>
<text text-anchor="middle" x="2616.8" y="-58.7" font-family="Courier New" font-size="14.00">unallocated (12)</text>
<polyline fill="none" stroke="black" points="2692.01,-42.1 2692.01,-83.7 "/>
<text text-anchor="middle" x="2884.84" y="-67.1" font-family="Courier New" font-size="14.00">address (20)</text>
<text text-anchor="middle" x="2884.84" y="-50.3" font-family="Courier New" font-size="14.00"> 0x8bBBCB5F4D31a6db3201D40F478f30Dc4F704aE2 </text>
<polyline fill="none" stroke="black" points="2541.59,-42.1 3077.67,-42.1 "/>
<text text-anchor="middle" x="2616.8" y="-17.1" font-family="Courier New" font-size="14.00">unallocated (12)</text>
<polyline fill="none" stroke="black" points="2692.01,-0.5 2692.01,-42.1 "/>
<text text-anchor="middle" x="2884.84" y="-25.5" font-family="Courier New" font-size="14.00">address (20)</text>
<text text-anchor="middle" x="2884.84" y="-8.7" font-family="Courier New" font-size="14.00"> 0x18169Ee0CED9AA744F3CD01Adc6E2EB2E8FB0087 </text>
</g>
<!-- 2&#45;&gt;1 -->
<g id="edge1" class="edge">
<title>2:13&#45;&gt;1</title>
<path fill="none" stroke="black" d="M1868.69,-83.7C1877.22,-83.7 1885.82,-83.7 1894.47,-83.7"/>
<polygon fill="black" stroke="black" points="1894.64,-87.2 1904.64,-83.7 1894.64,-80.2 1894.64,-87.2"/>
</g>
</g>
</svg>
