<?xml version="1.0" encoding="UTF-8" standalone="no"?>
<!DOCTYPE svg PUBLIC "-//W3C//DTD SVG 1.1//EN"
 "http://www.w3.org/Graphics/SVG/1.1/DTD/svg11.dtd">
<!-- Generated by graphviz version 5.0.0 (20220707.1540)
 -->
<!-- Title: UmlClassDiagram Pages: 1 -->
<svg width="2324pt" height="354pt"
 viewBox="0.00 0.00 2324.48 353.60" xmlns="http://www.w3.org/2000/svg" xmlns:xlink="http://www.w3.org/1999/xlink">
<g id="graph0" class="graph" transform="scale(1 1) rotate(0) translate(4 349.6)">
<title>UmlClassDiagram</title>
<polygon fill="white" stroke="transparent" points="-4,4 -4,-349.6 2320.48,-349.6 2320.48,4 -4,4"/>
<!-- 0 -->
<g id="node1" class="node">
<title>0</title>
<polygon fill="#f2f2f2" stroke="black" points="1052.43,-8.9 1052.43,-50.5 1238.36,-50.5 1238.36,-8.9 1052.43,-8.9"/>
<text text-anchor="middle" x="1145.4" y="-33.9" font-family="Times,serif" font-size="14.00">LRTDepositPool</text>
<text text-anchor="middle" x="1145.4" y="-17.1" font-family="Times,serif" font-size="14.00">contracts/LRTDepositPool.sol</text>
</g>
<!-- 11 -->
<g id="node2" class="node">
<title>11</title>
<polygon fill="#f2f2f2" stroke="black" points="266.12,-191.3 266.12,-249.7 484.67,-249.7 484.67,-191.3 266.12,-191.3"/>
<text text-anchor="middle" x="375.4" y="-233.1" font-family="Times,serif" font-size="14.00">&lt;&lt;Interface&gt;&gt;</text>
<text text-anchor="middle" x="375.4" y="-216.3" font-family="Times,serif" font-size="14.00">ILRTConfig</text>
<text text-anchor="middle" x="375.4" y="-199.5" font-family="Times,serif" font-size="14.00">contracts/interfaces/ILRTConfig.sol</text>
</g>
<!-- 0&#45;&gt;11 -->
<g id="edge5" class="edge">
<title>0&#45;&gt;11</title>
<path fill="none" stroke="black" stroke-dasharray="5,2" d="M1052.26,-32.6C788.59,-38.44 53.7,-58.02 18.4,-95.4 -58.22,-176.54 124.52,-204.64 255.83,-214.37"/>
<polygon fill="black" stroke="black" points="255.76,-217.87 265.99,-215.09 256.26,-210.89 255.76,-217.87"/>
</g>
<!-- 7 -->
<g id="node3" class="node">
<title>7</title>
<polygon fill="#f2f2f2" stroke="black" points="26.95,-95.9 26.95,-154.3 275.84,-154.3 275.84,-95.9 26.95,-95.9"/>
<text text-anchor="middle" x="151.4" y="-137.7" font-family="Times,serif" font-size="14.00">&lt;&lt;Interface&gt;&gt;</text>
<text text-anchor="middle" x="151.4" y="-120.9" font-family="Times,serif" font-size="14.00">ILRTDepositPool</text>
<text text-anchor="middle" x="151.4" y="-104.1" font-family="Times,serif" font-size="14.00">contracts/interfaces/ILRTDepositPool.sol</text>
</g>
<!-- 0&#45;&gt;7 -->
<g id="edge1" class="edge">
<title>0&#45;&gt;7</title>
<path fill="none" stroke="black" stroke-dasharray="5,2" d="M1052.36,-33.56C899.6,-39.14 585.48,-54.35 306.08,-92.6"/>
<polygon fill="none" stroke="black" points="304.37,-82.23 276.12,-96.81 307.29,-103.03 304.37,-82.23"/>
</g>
<!-- 5 -->
<g id="node4" class="node">
<title>5</title>
<polygon fill="#f2f2f2" stroke="black" points="293.92,-95.9 293.92,-154.3 510.88,-154.3 510.88,-95.9 293.92,-95.9"/>
<text text-anchor="middle" x="402.4" y="-137.7" font-family="Times,serif" font-size="14.00">&lt;&lt;Interface&gt;&gt;</text>
<text text-anchor="middle" x="402.4" y="-120.9" font-family="Times,serif" font-size="14.00">ILRTOracle</text>
<text text-anchor="middle" x="402.4" y="-104.1" font-family="Times,serif" font-size="14.00">contracts/interfaces/ILRTOracle.sol</text>
</g>
<!-- 0&#45;&gt;5 -->
<g id="edge8" class="edge">
<title>0&#45;&gt;5</title>
<path fill="none" stroke="black" stroke-dasharray="5,2" d="M1052.2,-36.39C931.69,-44.64 715.27,-62.46 521.05,-95.38"/>
<polygon fill="black" stroke="black" points="520.21,-91.98 510.94,-97.11 521.39,-98.88 520.21,-91.98"/>
</g>
<!-- 6 -->
<g id="node5" class="node">
<title>6</title>
<polygon fill="#f2f2f2" stroke="black" points="529.03,-95.9 529.03,-154.3 767.77,-154.3 767.77,-95.9 529.03,-95.9"/>
<text text-anchor="middle" x="648.4" y="-137.7" font-family="Times,serif" font-size="14.00">&lt;&lt;Interface&gt;&gt;</text>
<text text-anchor="middle" x="648.4" y="-120.9" font-family="Times,serif" font-size="14.00">INodeDelegator</text>
<text text-anchor="middle" x="648.4" y="-104.1" font-family="Times,serif" font-size="14.00">contracts/interfaces/INodeDelegator.sol</text>
</g>
<!-- 0&#45;&gt;6 -->
<g id="edge7" class="edge">
<title>0&#45;&gt;6</title>
<path fill="none" stroke="black" stroke-dasharray="5,2" d="M1052.29,-45.78C979.95,-57.79 876.89,-75.52 777.82,-95.15"/>
<polygon fill="black" stroke="black" points="777.06,-91.73 767.94,-97.11 778.43,-98.59 777.06,-91.73"/>
</g>
<!-- 4 -->
<g id="node6" class="node">
<title>4</title>
<polygon fill="#f2f2f2" stroke="black" points="785.46,-95.9 785.46,-154.3 999.33,-154.3 999.33,-95.9 785.46,-95.9"/>
<text text-anchor="middle" x="892.4" y="-137.7" font-family="Times,serif" font-size="14.00">&lt;&lt;Interface&gt;&gt;</text>
<text text-anchor="middle" x="892.4" y="-120.9" font-family="Times,serif" font-size="14.00">IPrimeETH</text>
<text text-anchor="middle" x="892.4" y="-104.1" font-family="Times,serif" font-size="14.00">contracts/interfaces/IPrimeETH.sol</text>
</g>
<!-- 0&#45;&gt;4 -->
<g id="edge9" class="edge">
<title>0&#45;&gt;4</title>
<path fill="none" stroke="black" stroke-dasharray="5,2" d="M1091.74,-50.51C1058.85,-62.65 1015.98,-78.48 978.44,-92.34"/>
<polygon fill="black" stroke="black" points="977.18,-89.07 969.01,-95.82 979.61,-95.64 977.18,-89.07"/>
</g>
<!-- 3 -->
<g id="node8" class="node">
<title>3</title>
<polygon fill="#f2f2f2" stroke="black" points="1017.06,-95.9 1017.06,-154.3 1273.74,-154.3 1273.74,-95.9 1017.06,-95.9"/>
<text text-anchor="middle" x="1145.4" y="-137.7" font-family="Times,serif" font-size="14.00">&lt;&lt;Abstract&gt;&gt;</text>
<text text-anchor="middle" x="1145.4" y="-120.9" font-family="Times,serif" font-size="14.00">LRTConfigRoleChecker</text>
<text text-anchor="middle" x="1145.4" y="-104.1" font-family="Times,serif" font-size="14.00">contracts/utils/LRTConfigRoleChecker.sol</text>
</g>
<!-- 0&#45;&gt;3 -->
<g id="edge2" class="edge">
<title>0&#45;&gt;3</title>
<path fill="none" stroke="black" d="M1145.4,-50.51C1145.4,-55.14 1145.4,-60.31 1145.4,-65.69"/>
<polygon fill="none" stroke="black" points="1134.9,-65.82 1145.4,-95.82 1155.9,-65.82 1134.9,-65.82"/>
</g>
<!-- 9 -->
<g id="node10" class="node">
<title>9</title>
<polygon fill="#f2f2f2" stroke="black" points="1291.8,-95.9 1291.8,-154.3 1777,-154.3 1777,-95.9 1291.8,-95.9"/>
<text text-anchor="middle" x="1534.4" y="-137.7" font-family="Times,serif" font-size="14.00">&lt;&lt;Abstract&gt;&gt;</text>
<text text-anchor="middle" x="1534.4" y="-120.9" font-family="Times,serif" font-size="14.00">PausableUpgradeable</text>
<text text-anchor="middle" x="1534.4" y="-104.1" font-family="Times,serif" font-size="14.00">lib/openzeppelin&#45;contracts&#45;upgradeable/contracts/security/PausableUpgradeable.sol</text>
</g>
<!-- 0&#45;&gt;9 -->
<g id="edge3" class="edge">
<title>0&#45;&gt;9</title>
<path fill="none" stroke="black" d="M1227.89,-50.51C1274.19,-61.62 1333.32,-75.82 1387.27,-88.77"/>
<polygon fill="none" stroke="black" points="1384.97,-99.02 1416.6,-95.82 1389.88,-78.6 1384.97,-99.02"/>
</g>
<!-- 10 -->
<g id="node11" class="node">
<title>10</title>
<polygon fill="#f2f2f2" stroke="black" points="1782.31,-191.3 1782.31,-249.7 2316.48,-249.7 2316.48,-191.3 1782.31,-191.3"/>
<text text-anchor="middle" x="2049.4" y="-233.1" font-family="Times,serif" font-size="14.00">&lt;&lt;Abstract&gt;&gt;</text>
<text text-anchor="middle" x="2049.4" y="-216.3" font-family="Times,serif" font-size="14.00">ReentrancyGuardUpgradeable</text>
<text text-anchor="middle" x="2049.4" y="-199.5" font-family="Times,serif" font-size="14.00">lib/openzeppelin&#45;contracts&#45;upgradeable/contracts/security/ReentrancyGuardUpgradeable.sol</text>
</g>
<!-- 0&#45;&gt;10 -->
<g id="edge4" class="edge">
<title>0&#45;&gt;10</title>
<path fill="none" stroke="black" d="M1238.4,-30.32C1393.52,-31.27 1696.89,-40.38 1786.4,-95.4 1813.1,-111.81 1799.28,-136.06 1824.4,-154.8 1837.48,-164.56 1852,-172.85 1867.17,-179.89"/>
<polygon fill="none" stroke="black" points="1863.29,-189.64 1895.03,-191.26 1871.23,-170.2 1863.29,-189.64"/>
</g>
<!-- 8 -->
<g id="node14" class="node">
<title>8</title>
<polygon fill="#f2f2f2" stroke="black" points="1833.08,-95.9 1833.08,-154.3 2201.72,-154.3 2201.72,-95.9 1833.08,-95.9"/>
<text text-anchor="middle" x="2017.4" y="-137.7" font-family="Times,serif" font-size="14.00">&lt;&lt;Interface&gt;&gt;</text>
<text text-anchor="middle" x="2017.4" y="-120.9" font-family="Times,serif" font-size="14.00">IERC20</text>
<text text-anchor="middle" x="2017.4" y="-104.1" font-family="Times,serif" font-size="14.00">lib/openzeppelin&#45;contracts/contracts/token/ERC20/IERC20.sol</text>
</g>
<!-- 0&#45;&gt;8 -->
<g id="edge6" class="edge">
<title>0&#45;&gt;8</title>
<path fill="none" stroke="black" stroke-dasharray="5,2" d="M1238.5,-38.21C1368.67,-49.03 1612.39,-70.48 1819.4,-95.4 1820.52,-95.53 1821.64,-95.67 1822.77,-95.81"/>
<polygon fill="black" stroke="black" points="1822.64,-99.32 1833,-97.07 1823.5,-92.37 1822.64,-99.32"/>
</g>
<!-- 14 -->
<g id="node7" class="node">
<title>14</title>
<polygon fill="#f2f2f2" stroke="black" points="1917.46,-0.5 1917.46,-58.9 2117.33,-58.9 2117.33,-0.5 1917.46,-0.5"/>
<text text-anchor="middle" x="2017.4" y="-42.3" font-family="Times,serif" font-size="14.00">&lt;&lt;Interface&gt;&gt;</text>
<text text-anchor="middle" x="2017.4" y="-25.5" font-family="Times,serif" font-size="14.00">IStrategy</text>
<text text-anchor="middle" x="2017.4" y="-8.7" font-family="Times,serif" font-size="14.00">contracts/interfaces/IStrategy.sol</text>
</g>
<!-- 14&#45;&gt;8 -->
<g id="edge10" class="edge">
<title>14&#45;&gt;8</title>
<path fill="none" stroke="black" stroke-dasharray="5,2" d="M2017.4,-58.98C2017.4,-67.31 2017.4,-76.58 2017.4,-85.45"/>
<polygon fill="black" stroke="black" points="2013.9,-85.6 2017.4,-95.6 2020.9,-85.6 2013.9,-85.6"/>
</g>
<!-- 3&#45;&gt;11 -->
<g id="edge11" class="edge">
<title>3&#45;&gt;11</title>
<path fill="none" stroke="black" d="M1016.76,-153.46C1013.95,-153.92 1011.16,-154.37 1008.4,-154.8 830.51,-182.45 622.59,-201.11 494.96,-211.03"/>
<polygon fill="black" stroke="black" points="494.47,-207.56 484.77,-211.82 495.01,-214.54 494.47,-207.56"/>
</g>
<!-- 12 -->
<g id="node13" class="node">
<title>12</title>
<polygon fill="#f2f2f2" stroke="black" points="878.71,-191.3 878.71,-249.7 1248.09,-249.7 1248.09,-191.3 878.71,-191.3"/>
<text text-anchor="middle" x="1063.4" y="-233.1" font-family="Times,serif" font-size="14.00">&lt;&lt;Interface&gt;&gt;</text>
<text text-anchor="middle" x="1063.4" y="-216.3" font-family="Times,serif" font-size="14.00">IAccessControl</text>
<text text-anchor="middle" x="1063.4" y="-199.5" font-family="Times,serif" font-size="14.00">lib/openzeppelin&#45;contracts/contracts/access/IAccessControl.sol</text>
</g>
<!-- 3&#45;&gt;12 -->
<g id="edge12" class="edge">
<title>3&#45;&gt;12</title>
<path fill="none" stroke="black" stroke-dasharray="5,2" d="M1120.57,-154.38C1112.54,-163.53 1103.52,-173.8 1095.06,-183.44"/>
<polygon fill="black" stroke="black" points="1092.39,-181.17 1088.42,-191 1097.65,-185.79 1092.39,-181.17"/>
</g>
<!-- 16 -->
<g id="node9" class="node">
<title>16</title>
<polygon fill="#f2f2f2" stroke="black" points="1310.83,-286.7 1310.83,-345.1 1757.96,-345.1 1757.96,-286.7 1310.83,-286.7"/>
<text text-anchor="middle" x="1534.4" y="-328.5" font-family="Times,serif" font-size="14.00">&lt;&lt;Abstract&gt;&gt;</text>
<text text-anchor="middle" x="1534.4" y="-311.7" font-family="Times,serif" font-size="14.00">Initializable</text>
<text text-anchor="middle" x="1534.4" y="-294.9" font-family="Times,serif" font-size="14.00">lib/openzeppelin&#45;contracts&#45;upgradeable/contracts/proxy/utils/Initializable.sol</text>
</g>
<!-- 9&#45;&gt;16 -->
<g id="edge13" class="edge">
<title>9&#45;&gt;16</title>
<path fill="none" stroke="black" d="M1373.05,-154.38C1337.29,-164 1306.63,-176.12 1295.4,-190.8 1279.35,-211.77 1279.35,-229.23 1295.4,-250.2 1303.43,-260.69 1321.38,-269.88 1344.04,-277.78"/>
<polygon fill="none" stroke="black" points="1341.3,-287.92 1373.05,-286.62 1347.42,-267.83 1341.3,-287.92"/>
</g>
<!-- 15 -->
<g id="node12" class="node">
<title>15</title>
<polygon fill="#f2f2f2" stroke="black" points="1304.61,-191.3 1304.61,-249.7 1764.18,-249.7 1764.18,-191.3 1304.61,-191.3"/>
<text text-anchor="middle" x="1534.4" y="-233.1" font-family="Times,serif" font-size="14.00">&lt;&lt;Abstract&gt;&gt;</text>
<text text-anchor="middle" x="1534.4" y="-216.3" font-family="Times,serif" font-size="14.00">ContextUpgradeable</text>
<text text-anchor="middle" x="1534.4" y="-199.5" font-family="Times,serif" font-size="14.00">lib/openzeppelin&#45;contracts&#45;upgradeable/contracts/utils/ContextUpgradeable.sol</text>
</g>
<!-- 9&#45;&gt;15 -->
<g id="edge14" class="edge">
<title>9&#45;&gt;15</title>
<path fill="none" stroke="black" d="M1534.4,-154.38C1534.4,-156.46 1534.4,-158.6 1534.4,-160.78"/>
<polygon fill="none" stroke="black" points="1523.9,-161 1534.4,-191 1544.9,-161 1523.9,-161"/>
</g>
<!-- 10&#45;&gt;16 -->
<g id="edge15" class="edge">
<title>10&#45;&gt;16</title>
<path fill="none" stroke="black" d="M1893.83,-249.71C1838.99,-259.66 1776.79,-270.94 1719.73,-281.29"/>
<polygon fill="none" stroke="black" points="1717.63,-271 1689.98,-286.68 1721.38,-291.66 1717.63,-271"/>
</g>
<!-- 15&#45;&gt;16 -->
<g id="edge16" class="edge">
<title>15&#45;&gt;16</title>
<path fill="none" stroke="black" d="M1534.4,-249.78C1534.4,-251.86 1534.4,-254 1534.4,-256.18"/>
<polygon fill="none" stroke="black" points="1523.9,-256.4 1534.4,-286.4 1544.9,-256.4 1523.9,-256.4"/>
</g>
</g>
</svg>
