<?xml version="1.0" encoding="UTF-8" standalone="no"?>
<!DOCTYPE svg PUBLIC "-//W3C//DTD SVG 1.1//EN"
 "http://www.w3.org/Graphics/SVG/1.1/DTD/svg11.dtd">
<!-- Generated by graphviz version 5.0.0 (20220707.1540)
 -->
<!-- Title: StorageDiagram Pages: 1 -->
<svg width="1273pt" height="150pt"
 viewBox="0.00 0.00 1272.59 149.80" xmlns="http://www.w3.org/2000/svg" xmlns:xlink="http://www.w3.org/1999/xlink">
<g id="graph0" class="graph" transform="scale(1 1) rotate(0) translate(4 145.8)">
<title>StorageDiagram</title>
<polygon fill="white" stroke="transparent" points="-4,4 -4,-145.8 1268.59,-145.8 1268.59,4 -4,4"/>
<!-- 1 -->
<g id="node1" class="node">
<title>1</title>
<polygon fill="#f2f2f2" stroke="black" points="0,-0.5 0,-141.3 1264.59,-141.3 1264.59,-0.5 0,-0.5"/>
<text text-anchor="middle" x="632.3" y="-124.7" font-family="Courier New" font-size="14.00">LRTOracle &lt;&lt;Contract&gt;&gt;</text>
<text text-anchor="middle" x="632.3" y="-107.9" font-family="Courier New" font-size="14.00">0xf1bed40dbee8fc0f324fa06322f2bbd62d11c97d</text>
<polyline fill="none" stroke="black" points="0,-99.7 1264.59,-99.7 "/>
<text text-anchor="middle" x="24.8" y="-83.1" font-family="Courier New" font-size="14.00">slot</text>
<polyline fill="none" stroke="black" points="0,-74.9 49.61,-74.9 "/>
<text text-anchor="middle" x="24.8" y="-58.3" font-family="Courier New" font-size="14.00">0</text>
<polyline fill="none" stroke="black" points="0,-50.1 49.61,-50.1 "/>
<text text-anchor="middle" x="24.8" y="-33.5" font-family="Courier New" font-size="14.00">1</text>
<polyline fill="none" stroke="black" points="0,-25.3 49.61,-25.3 "/>
<text text-anchor="middle" x="24.8" y="-8.7" font-family="Courier New" font-size="14.00">2</text>
<polyline fill="none" stroke="black" points="49.61,-0.5 49.61,-99.7 "/>
<text text-anchor="middle" x="657.1" y="-83.1" font-family="Courier New" font-size="14.00">type: &lt;inherited contract&gt;.variable (bytes)</text>
<polyline fill="none" stroke="black" points="49.61,-74.9 1264.59,-74.9 "/>
<text text-anchor="middle" x="124.82" y="-58.3" font-family="Courier New" font-size="14.00">unallocated (10)</text>
<polyline fill="none" stroke="black" points="200.03,-50.1 200.03,-74.9 "/>
<text text-anchor="middle" x="363.45" y="-58.3" font-family="Courier New" font-size="14.00">bool: Initializable._initializing (1)</text>
<polyline fill="none" stroke="black" points="526.88,-50.1 526.88,-74.9 "/>
<text text-anchor="middle" x="690.3" y="-58.3" font-family="Courier New" font-size="14.00">uint8: Initializable._initialized (1)</text>
<polyline fill="none" stroke="black" points="853.73,-50.1 853.73,-74.9 "/>
<text text-anchor="middle" x="1059.16" y="-58.3" font-family="Courier New" font-size="14.00">ILRTConfig: LRTConfigRoleChecker.lrtConfig (20)</text>
<polyline fill="none" stroke="black" points="49.61,-50.1 1264.59,-50.1 "/>
<text text-anchor="middle" x="656.74" y="-33.5" font-family="Courier New" font-size="14.00">mapping(address=&gt;address): assetPriceOracle (32)</text>
<polyline fill="none" stroke="black" points="49.61,-25.3 1264.59,-25.3 "/>
<text text-anchor="middle" x="656.92" y="-8.7" font-family="Courier New" font-size="14.00">uint256: rsETHPrice (32)</text>
</g>
</g>
</svg>
