<?xml version="1.0" encoding="UTF-8" standalone="no"?>
<!DOCTYPE svg PUBLIC "-//W3C//DTD SVG 1.1//EN"
 "http://www.w3.org/Graphics/SVG/1.1/DTD/svg11.dtd">
<!-- Generated by graphviz version 5.0.0 (20220707.1540)
 -->
<!-- Title: StorageDiagram Pages: 1 -->
<svg width="1298pt" height="299pt"
 viewBox="0.00 0.00 1297.80 298.60" xmlns="http://www.w3.org/2000/svg" xmlns:xlink="http://www.w3.org/1999/xlink">
<g id="graph0" class="graph" transform="scale(1 1) rotate(0) translate(4 294.6)">
<title>StorageDiagram</title>
<polygon fill="white" stroke="transparent" points="-4,4 -4,-294.6 1293.8,-294.6 1293.8,4 -4,4"/>
<!-- 1 -->
<g id="node1" class="node">
<title>1</title>
<polygon fill="#f2f2f2" stroke="black" points="0,-0.5 0,-290.1 1289.8,-290.1 1289.8,-0.5 0,-0.5"/>
<text text-anchor="middle" x="644.9" y="-273.5" font-family="Courier New" font-size="14.00">NodeDelegator &lt;&lt;Contract&gt;&gt;</text>
<text text-anchor="middle" x="644.9" y="-256.7" font-family="Courier New" font-size="14.00">0xAC49836f90E37B8Ab7db5de0e5Bec0b1621451F3</text>
<polyline fill="none" stroke="black" points="0,-248.5 1289.8,-248.5 "/>
<text text-anchor="middle" x="37.4" y="-231.9" font-family="Courier New" font-size="14.00">slot</text>
<polyline fill="none" stroke="black" points="0,-223.7 74.81,-223.7 "/>
<text text-anchor="middle" x="37.4" y="-207.1" font-family="Courier New" font-size="14.00">0</text>
<polyline fill="none" stroke="black" points="0,-198.9 74.81,-198.9 "/>
<text text-anchor="middle" x="37.4" y="-182.3" font-family="Courier New" font-size="14.00">1&#45;50</text>
<polyline fill="none" stroke="black" points="0,-174.1 74.81,-174.1 "/>
<text text-anchor="middle" x="37.4" y="-157.5" font-family="Courier New" font-size="14.00">51</text>
<polyline fill="none" stroke="black" points="0,-149.3 74.81,-149.3 "/>
<text text-anchor="middle" x="37.4" y="-132.7" font-family="Courier New" font-size="14.00">52&#45;100</text>
<polyline fill="none" stroke="black" points="0,-124.5 74.81,-124.5 "/>
<text text-anchor="middle" x="37.4" y="-107.9" font-family="Courier New" font-size="14.00">101</text>
<polyline fill="none" stroke="black" points="0,-99.7 74.81,-99.7 "/>
<text text-anchor="middle" x="37.4" y="-83.1" font-family="Courier New" font-size="14.00">102&#45;150</text>
<polyline fill="none" stroke="black" points="0,-74.9 74.81,-74.9 "/>
<text text-anchor="middle" x="37.4" y="-58.3" font-family="Courier New" font-size="14.00">151</text>
<polyline fill="none" stroke="black" points="0,-50.1 74.81,-50.1 "/>
<text text-anchor="middle" x="37.4" y="-33.5" font-family="Courier New" font-size="14.00">152</text>
<polyline fill="none" stroke="black" points="0,-25.3 74.81,-25.3 "/>
<text text-anchor="middle" x="37.4" y="-8.7" font-family="Courier New" font-size="14.00">153</text>
<polyline fill="none" stroke="black" points="74.81,-0.5 74.81,-248.5 "/>
<text text-anchor="middle" x="682.3" y="-231.9" font-family="Courier New" font-size="14.00">type: &lt;inherited contract&gt;.variable (bytes)</text>
<polyline fill="none" stroke="black" points="74.81,-223.7 1289.8,-223.7 "/>
<text text-anchor="middle" x="150.02" y="-207.1" font-family="Courier New" font-size="14.00">unallocated (10)</text>
<polyline fill="none" stroke="black" points="225.23,-198.9 225.23,-223.7 "/>
<text text-anchor="middle" x="388.66" y="-207.1" font-family="Courier New" font-size="14.00">bool: Initializable._initializing (1)</text>
<polyline fill="none" stroke="black" points="552.08,-198.9 552.08,-223.7 "/>
<text text-anchor="middle" x="715.51" y="-207.1" font-family="Courier New" font-size="14.00">uint8: Initializable._initialized (1)</text>
<polyline fill="none" stroke="black" points="878.93,-198.9 878.93,-223.7 "/>
<text text-anchor="middle" x="1084.36" y="-207.1" font-family="Courier New" font-size="14.00">ILRTConfig: LRTConfigRoleChecker.lrtConfig (20)</text>
<polyline fill="none" stroke="black" points="74.81,-198.9 1289.8,-198.9 "/>
<text text-anchor="middle" x="682.14" y="-182.3" font-family="Courier New" font-size="14.00">uint256[50]: ContextUpgradeable.__gap (1600)</text>
<polyline fill="none" stroke="black" points="74.81,-174.1 1289.8,-174.1 "/>
<text text-anchor="middle" x="334.02" y="-157.5" font-family="Courier New" font-size="14.00">unallocated (31)</text>
<polyline fill="none" stroke="black" points="593.23,-149.3 593.23,-174.1 "/>
<text text-anchor="middle" x="941.16" y="-157.5" font-family="Courier New" font-size="14.00">bool: PausableUpgradeable._paused (1)</text>
<polyline fill="none" stroke="black" points="74.81,-149.3 1289.8,-149.3 "/>
<text text-anchor="middle" x="681.84" y="-132.7" font-family="Courier New" font-size="14.00">uint256[49]: PausableUpgradeable.__gap (1568)</text>
<polyline fill="none" stroke="black" points="74.81,-124.5 1289.8,-124.5 "/>
<text text-anchor="middle" x="681.94" y="-107.9" font-family="Courier New" font-size="14.00">uint256: ReentrancyGuardUpgradeable._status (32)</text>
<polyline fill="none" stroke="black" points="74.81,-99.7 1289.8,-99.7 "/>
<text text-anchor="middle" x="682.25" y="-83.1" font-family="Courier New" font-size="14.00">uint256[49]: ReentrancyGuardUpgradeable.__gap (1568)</text>
<polyline fill="none" stroke="black" points="74.81,-74.9 1289.8,-74.9 "/>
<text text-anchor="middle" x="361.52" y="-58.3" font-family="Courier New" font-size="14.00">unallocated (12)</text>
<polyline fill="none" stroke="black" points="648.23,-50.1 648.23,-74.9 "/>
<text text-anchor="middle" x="968.55" y="-58.3" font-family="Courier New" font-size="14.00">IEigenPod: eigenPod (20)</text>
<polyline fill="none" stroke="black" points="74.81,-50.1 1289.8,-50.1 "/>
<text text-anchor="middle" x="682.23" y="-33.5" font-family="Courier New" font-size="14.00">uint256: stakedButNotVerifiedEth (32)</text>
<polyline fill="none" stroke="black" points="74.81,-25.3 1289.8,-25.3 "/>
<text text-anchor="middle" x="681.84" y="-8.7" font-family="Courier New" font-size="14.00">mapping(bytes32=&gt;bool): validatorsStaked (32)</text>
</g>
</g>
</svg>
