<?xml version="1.0" encoding="UTF-8" standalone="no"?>
<!DOCTYPE svg PUBLIC "-//W3C//DTD SVG 1.1//EN"
 "http://www.w3.org/Graphics/SVG/1.1/DTD/svg11.dtd">
<!-- Generated by graphviz version 5.0.0 (20220707.1540)
 -->
<!-- Title: UmlClassDiagram Pages: 1 -->
<svg width="3204pt" height="1664pt"
 viewBox="0.00 0.00 3203.61 1664.20" xmlns="http://www.w3.org/2000/svg" xmlns:xlink="http://www.w3.org/1999/xlink">
<g id="graph0" class="graph" transform="scale(1 1) rotate(0) translate(4 1660.2)">
<title>UmlClassDiagram</title>
<polygon fill="white" stroke="transparent" points="-4,4 -4,-1660.2 3199.61,-1660.2 3199.61,4 -4,4"/>
<!-- 0 -->
<g id="node1" class="node">
<title>0</title>
<polygon fill="#f2f2f2" stroke="black" points="1438.06,-0.5 1438.06,-234.9 2272.99,-234.9 2272.99,-0.5 1438.06,-0.5"/>
<text text-anchor="middle" x="1855.52" y="-218.3" font-family="Times,serif" font-size="14.00">NodeDelegator</text>
<text text-anchor="middle" x="1855.52" y="-201.5" font-family="Times,serif" font-size="14.00">contracts/NodeDelegator.sol</text>
<polyline fill="none" stroke="black" points="1438.06,-193.3 2272.99,-193.3 "/>
<text text-anchor="start" x="1446.06" y="-176.7" font-family="Times,serif" font-size="14.00">External:</text>
<text text-anchor="start" x="1446.06" y="-159.9" font-family="Times,serif" font-size="14.00"> &#160;&#160;&#160;initialize(lrtConfigAddr: address) &lt;&lt;initializer&gt;&gt;</text>
<text text-anchor="start" x="1446.06" y="-143.1" font-family="Times,serif" font-size="14.00"> &#160;&#160;&#160;maxApproveToEigenStrategyManager(asset: address) &lt;&lt;onlySupportedAsset, onlyLRTManager&gt;&gt;</text>
<text text-anchor="start" x="1446.06" y="-126.3" font-family="Times,serif" font-size="14.00"> &#160;&#160;&#160;depositAssetIntoStrategy(asset: address) &lt;&lt;whenNotPaused, nonReentrant, onlySupportedAsset, onlyLRTManager&gt;&gt;</text>
<text text-anchor="start" x="1446.06" y="-109.5" font-family="Times,serif" font-size="14.00"> &#160;&#160;&#160;transferBackToLRTDepositPool(asset: address, amount: uint256) &lt;&lt;whenNotPaused, nonReentrant, onlySupportedAsset, onlyLRTManager&gt;&gt;</text>
<text text-anchor="start" x="1446.06" y="-92.7" font-family="Times,serif" font-size="14.00"> &#160;&#160;&#160;getAssetBalances(): (assets: address[], assetBalances: uint256[])</text>
<text text-anchor="start" x="1446.06" y="-75.9" font-family="Times,serif" font-size="14.00"> &#160;&#160;&#160;getAssetBalance(asset: address): uint256</text>
<text text-anchor="start" x="1446.06" y="-59.1" font-family="Times,serif" font-size="14.00"> &#160;&#160;&#160;pause() &lt;&lt;onlyLRTManager&gt;&gt;</text>
<text text-anchor="start" x="1446.06" y="-42.3" font-family="Times,serif" font-size="14.00"> &#160;&#160;&#160;unpause() &lt;&lt;onlyLRTAdmin&gt;&gt;</text>
<text text-anchor="start" x="1446.06" y="-25.5" font-family="Times,serif" font-size="14.00">Public:</text>
<text text-anchor="start" x="1446.06" y="-8.7" font-family="Times,serif" font-size="14.00"> &#160;&#160;&#160;constructor()</text>
</g>
<!-- 6 -->
<g id="node2" class="node">
<title>6</title>
<polygon fill="#f2f2f2" stroke="black" points="240.57,-385.1 240.57,-501.9 788.48,-501.9 788.48,-385.1 240.57,-385.1"/>
<text text-anchor="middle" x="514.52" y="-485.3" font-family="Times,serif" font-size="14.00">&lt;&lt;Interface&gt;&gt;</text>
<text text-anchor="middle" x="514.52" y="-468.5" font-family="Times,serif" font-size="14.00">IEigenStrategyManager</text>
<text text-anchor="middle" x="514.52" y="-451.7" font-family="Times,serif" font-size="14.00">contracts/interfaces/IEigenStrategyManager.sol</text>
<polyline fill="none" stroke="black" points="240.57,-443.5 788.48,-443.5 "/>
<text text-anchor="start" x="248.57" y="-426.9" font-family="Times,serif" font-size="14.00">External:</text>
<text text-anchor="start" x="248.57" y="-410.1" font-family="Times,serif" font-size="14.00"> &#160;&#160;&#160;&#160;depositIntoStrategy(strategy: IStrategy, token: IERC20, amount: uint256): (shares: uint256)</text>
<text text-anchor="start" x="248.57" y="-393.3" font-family="Times,serif" font-size="14.00"> &#160;&#160;&#160;&#160;getDeposits(depositor: address): (IStrategy[], uint256[])</text>
</g>
<!-- 0&#45;&gt;6 -->
<g id="edge8" class="edge">
<title>0&#45;&gt;6</title>
<path fill="none" stroke="black" stroke-dasharray="5,2" d="M1438.05,-165.32C1274.71,-189.13 1086.98,-223.47 920.52,-271.4 823.58,-299.31 718.77,-343.88 639.92,-380.53"/>
<polygon fill="black" stroke="black" points="638.02,-377.56 630.44,-384.96 640.98,-383.9 638.02,-377.56"/>
</g>
<!-- 10 -->
<g id="node3" class="node">
<title>10</title>
<polygon fill="#f2f2f2" stroke="black" points="481.3,-652.1 481.3,-987.3 943.75,-987.3 943.75,-652.1 481.3,-652.1"/>
<text text-anchor="middle" x="712.52" y="-970.7" font-family="Times,serif" font-size="14.00">&lt;&lt;Interface&gt;&gt;</text>
<text text-anchor="middle" x="712.52" y="-953.9" font-family="Times,serif" font-size="14.00">ILRTConfig</text>
<text text-anchor="middle" x="712.52" y="-937.1" font-family="Times,serif" font-size="14.00">contracts/interfaces/ILRTConfig.sol</text>
<polyline fill="none" stroke="black" points="481.3,-928.9 943.75,-928.9 "/>
<text text-anchor="start" x="489.3" y="-912.3" font-family="Times,serif" font-size="14.00">External:</text>
<text text-anchor="start" x="489.3" y="-895.5" font-family="Times,serif" font-size="14.00"> &#160;&#160;&#160;&#160;rsETH(): address</text>
<text text-anchor="start" x="489.3" y="-878.7" font-family="Times,serif" font-size="14.00"> &#160;&#160;&#160;&#160;assetStrategy(asset: address): address</text>
<text text-anchor="start" x="489.3" y="-861.9" font-family="Times,serif" font-size="14.00"> &#160;&#160;&#160;&#160;isSupportedAsset(asset: address): bool</text>
<text text-anchor="start" x="489.3" y="-845.1" font-family="Times,serif" font-size="14.00"> &#160;&#160;&#160;&#160;getLSTToken(tokenId: bytes32): address</text>
<text text-anchor="start" x="489.3" y="-828.3" font-family="Times,serif" font-size="14.00"> &#160;&#160;&#160;&#160;getContract(contractId: bytes32): address</text>
<text text-anchor="start" x="489.3" y="-811.5" font-family="Times,serif" font-size="14.00"> &#160;&#160;&#160;&#160;getSupportedAssetList(): address[]</text>
<text text-anchor="start" x="489.3" y="-794.7" font-family="Times,serif" font-size="14.00"> &#160;&#160;&#160;&#160;depositLimitByAsset(asset: address): uint256</text>
<text text-anchor="start" x="489.3" y="-777.9" font-family="Times,serif" font-size="14.00">Public:</text>
<text text-anchor="start" x="489.3" y="-761.1" font-family="Times,serif" font-size="14.00"> &#160;&#160;&#160;&lt;&lt;event&gt;&gt; SetToken(key: bytes32, tokenAddr: address)</text>
<text text-anchor="start" x="489.3" y="-744.3" font-family="Times,serif" font-size="14.00"> &#160;&#160;&#160;&lt;&lt;event&gt;&gt; SetContract(key: bytes32, contractAddr: address)</text>
<text text-anchor="start" x="489.3" y="-727.5" font-family="Times,serif" font-size="14.00"> &#160;&#160;&#160;&lt;&lt;event&gt;&gt; AddedNewSupportedAsset(asset: address, depositLimit: uint256)</text>
<text text-anchor="start" x="489.3" y="-710.7" font-family="Times,serif" font-size="14.00"> &#160;&#160;&#160;&lt;&lt;event&gt;&gt; RemovedSupportedAsset(asset: address)</text>
<text text-anchor="start" x="489.3" y="-693.9" font-family="Times,serif" font-size="14.00"> &#160;&#160;&#160;&lt;&lt;event&gt;&gt; AssetDepositLimitUpdate(asset: address, depositLimit: uint256)</text>
<text text-anchor="start" x="489.3" y="-677.1" font-family="Times,serif" font-size="14.00"> &#160;&#160;&#160;&lt;&lt;event&gt;&gt; AssetStrategyUpdate(asset: address, strategy: address)</text>
<text text-anchor="start" x="489.3" y="-660.3" font-family="Times,serif" font-size="14.00"> &#160;&#160;&#160;&lt;&lt;event&gt;&gt; SetRSETH(rsETH: address)</text>
</g>
<!-- 0&#45;&gt;10 -->
<g id="edge6" class="edge">
<title>0&#45;&gt;10</title>
<path fill="none" stroke="black" stroke-dasharray="5,2" d="M1437.92,-164.11C1270.72,-188.84 1101.86,-224.2 1034.52,-271.4 966.29,-319.24 866.35,-501.44 795.95,-642.63"/>
<polygon fill="black" stroke="black" points="792.67,-641.36 791.35,-651.87 798.94,-644.48 792.67,-641.36"/>
</g>
<!-- 4 -->
<g id="node4" class="node">
<title>4</title>
<polygon fill="#f2f2f2" stroke="black" points="1570.84,-351.5 1570.84,-535.5 2140.21,-535.5 2140.21,-351.5 1570.84,-351.5"/>
<text text-anchor="middle" x="1855.52" y="-518.9" font-family="Times,serif" font-size="14.00">&lt;&lt;Interface&gt;&gt;</text>
<text text-anchor="middle" x="1855.52" y="-502.1" font-family="Times,serif" font-size="14.00">INodeDelegator</text>
<text text-anchor="middle" x="1855.52" y="-485.3" font-family="Times,serif" font-size="14.00">contracts/interfaces/INodeDelegator.sol</text>
<polyline fill="none" stroke="black" points="1570.84,-477.1 2140.21,-477.1 "/>
<text text-anchor="start" x="1578.84" y="-460.5" font-family="Times,serif" font-size="14.00">External:</text>
<text text-anchor="start" x="1578.84" y="-443.7" font-family="Times,serif" font-size="14.00"> &#160;&#160;&#160;&#160;depositAssetIntoStrategy(asset: address)</text>
<text text-anchor="start" x="1578.84" y="-426.9" font-family="Times,serif" font-size="14.00"> &#160;&#160;&#160;&#160;maxApproveToEigenStrategyManager(asset: address)</text>
<text text-anchor="start" x="1578.84" y="-410.1" font-family="Times,serif" font-size="14.00"> &#160;&#160;&#160;&#160;getAssetBalances(): (address[], uint256[])</text>
<text text-anchor="start" x="1578.84" y="-393.3" font-family="Times,serif" font-size="14.00"> &#160;&#160;&#160;&#160;getAssetBalance(asset: address): uint256</text>
<text text-anchor="start" x="1578.84" y="-376.5" font-family="Times,serif" font-size="14.00">Public:</text>
<text text-anchor="start" x="1578.84" y="-359.7" font-family="Times,serif" font-size="14.00"> &#160;&#160;&#160;&lt;&lt;event&gt;&gt; AssetDepositIntoStrategy(asset: address, strategy: address, depositAmount: uint256)</text>
</g>
<!-- 0&#45;&gt;4 -->
<g id="edge1" class="edge">
<title>0&#45;&gt;4</title>
<path fill="none" stroke="black" stroke-dasharray="5,2" d="M1855.52,-235.14C1855.52,-263.09 1855.52,-293 1855.52,-321.16"/>
<polygon fill="none" stroke="black" points="1845.02,-321.43 1855.52,-351.43 1866.02,-321.43 1845.02,-321.43"/>
</g>
<!-- 5 -->
<g id="node5" class="node">
<title>5</title>
<polygon fill="#f2f2f2" stroke="black" points="0,-685.7 0,-953.7 425.05,-953.7 425.05,-685.7 0,-685.7"/>
<text text-anchor="middle" x="212.52" y="-937.1" font-family="Times,serif" font-size="14.00">&lt;&lt;Interface&gt;&gt;</text>
<text text-anchor="middle" x="212.52" y="-920.3" font-family="Times,serif" font-size="14.00">IStrategy</text>
<text text-anchor="middle" x="212.52" y="-903.5" font-family="Times,serif" font-size="14.00">contracts/interfaces/IStrategy.sol</text>
<polyline fill="none" stroke="black" points="0,-895.3 425.05,-895.3 "/>
<text text-anchor="start" x="8" y="-878.7" font-family="Times,serif" font-size="14.00">External:</text>
<text text-anchor="start" x="8" y="-861.9" font-family="Times,serif" font-size="14.00"> &#160;&#160;&#160;&#160;deposit(token: IERC20, amount: uint256): uint256</text>
<text text-anchor="start" x="8" y="-845.1" font-family="Times,serif" font-size="14.00"> &#160;&#160;&#160;&#160;withdraw(depositor: address, token: IERC20, amountShares: uint256)</text>
<text text-anchor="start" x="8" y="-828.3" font-family="Times,serif" font-size="14.00"> &#160;&#160;&#160;&#160;sharesToUnderlying(amountShares: uint256): uint256</text>
<text text-anchor="start" x="8" y="-811.5" font-family="Times,serif" font-size="14.00"> &#160;&#160;&#160;&#160;underlyingToShares(amountUnderlying: uint256): uint256</text>
<text text-anchor="start" x="8" y="-794.7" font-family="Times,serif" font-size="14.00"> &#160;&#160;&#160;&#160;userUnderlying(user: address): uint256</text>
<text text-anchor="start" x="8" y="-777.9" font-family="Times,serif" font-size="14.00"> &#160;&#160;&#160;&#160;sharesToUnderlyingView(amountShares: uint256): uint256</text>
<text text-anchor="start" x="8" y="-761.1" font-family="Times,serif" font-size="14.00"> &#160;&#160;&#160;&#160;underlyingToSharesView(amountUnderlying: uint256): uint256</text>
<text text-anchor="start" x="8" y="-744.3" font-family="Times,serif" font-size="14.00"> &#160;&#160;&#160;&#160;userUnderlyingView(user: address): uint256</text>
<text text-anchor="start" x="8" y="-727.5" font-family="Times,serif" font-size="14.00"> &#160;&#160;&#160;&#160;underlyingToken(): IERC20</text>
<text text-anchor="start" x="8" y="-710.7" font-family="Times,serif" font-size="14.00"> &#160;&#160;&#160;&#160;totalShares(): uint256</text>
<text text-anchor="start" x="8" y="-693.9" font-family="Times,serif" font-size="14.00"> &#160;&#160;&#160;&#160;explanation(): string</text>
</g>
<!-- 0&#45;&gt;5 -->
<g id="edge9" class="edge">
<title>0&#45;&gt;5</title>
<path fill="none" stroke="black" stroke-dasharray="5,2" d="M1437.89,-129.85C984.26,-146.29 312.94,-185.03 231.52,-271.4 131.76,-377.24 144.45,-552.03 170.81,-675.56"/>
<polygon fill="black" stroke="black" points="167.43,-676.46 172.98,-685.48 174.26,-674.97 167.43,-676.46"/>
</g>
<!-- 3 -->
<g id="node6" class="node">
<title>3</title>
<polygon fill="#f2f2f2" stroke="black" points="1118.15,-322.3 1118.15,-564.7 1514.9,-564.7 1514.9,-322.3 1118.15,-322.3"/>
<text text-anchor="middle" x="1316.52" y="-548.1" font-family="Times,serif" font-size="14.00">&lt;&lt;Abstract&gt;&gt;</text>
<text text-anchor="middle" x="1316.52" y="-531.3" font-family="Times,serif" font-size="14.00">LRTConfigRoleChecker</text>
<text text-anchor="middle" x="1316.52" y="-514.5" font-family="Times,serif" font-size="14.00">contracts/utils/LRTConfigRoleChecker.sol</text>
<polyline fill="none" stroke="black" points="1118.15,-506.3 1514.9,-506.3 "/>
<text text-anchor="start" x="1126.15" y="-489.7" font-family="Times,serif" font-size="14.00">Public:</text>
<text text-anchor="start" x="1126.15" y="-472.9" font-family="Times,serif" font-size="14.00"> &#160;&#160;lrtConfig: ILRTConfig</text>
<polyline fill="none" stroke="black" points="1118.15,-464.7 1514.9,-464.7 "/>
<text text-anchor="start" x="1126.15" y="-448.1" font-family="Times,serif" font-size="14.00">External:</text>
<text text-anchor="start" x="1126.15" y="-431.3" font-family="Times,serif" font-size="14.00"> &#160;&#160;&#160;updateLRTConfig(lrtConfigAddr: address) &lt;&lt;onlyLRTAdmin&gt;&gt;</text>
<text text-anchor="start" x="1126.15" y="-414.5" font-family="Times,serif" font-size="14.00">Public:</text>
<text text-anchor="start" x="1126.15" y="-397.7" font-family="Times,serif" font-size="14.00"> &#160;&#160;&#160;&lt;&lt;event&gt;&gt; UpdatedLRTConfig(lrtConfig: address)</text>
<text text-anchor="start" x="1126.15" y="-380.9" font-family="Times,serif" font-size="14.00"> &#160;&#160;&#160;&lt;&lt;modifier&gt;&gt; onlyRole(role: bytes32)</text>
<text text-anchor="start" x="1126.15" y="-364.1" font-family="Times,serif" font-size="14.00"> &#160;&#160;&#160;&lt;&lt;modifier&gt;&gt; onlyLRTManager()</text>
<text text-anchor="start" x="1126.15" y="-347.3" font-family="Times,serif" font-size="14.00"> &#160;&#160;&#160;&lt;&lt;modifier&gt;&gt; onlyLRTAdmin()</text>
<text text-anchor="start" x="1126.15" y="-330.5" font-family="Times,serif" font-size="14.00"> &#160;&#160;&#160;&lt;&lt;modifier&gt;&gt; onlySupportedAsset(asset: address)</text>
</g>
<!-- 0&#45;&gt;3 -->
<g id="edge2" class="edge">
<title>0&#45;&gt;3</title>
<path fill="none" stroke="black" d="M1591.51,-235.11C1569.85,-246.73 1548.59,-258.88 1528.52,-271.4 1512.34,-281.5 1495.99,-292.67 1479.93,-304.32"/>
<polygon fill="none" stroke="black" points="1473.61,-295.93 1455.84,-322.28 1486.16,-312.76 1473.61,-295.93"/>
</g>
<!-- 2 -->
<g id="node7" class="node">
<title>2</title>
<polygon fill="#f2f2f2" stroke="black" points="961.87,-685.7 961.87,-953.7 1239.18,-953.7 1239.18,-685.7 961.87,-685.7"/>
<text text-anchor="middle" x="1100.52" y="-937.1" font-family="Times,serif" font-size="14.00">&lt;&lt;Library&gt;&gt;</text>
<text text-anchor="middle" x="1100.52" y="-920.3" font-family="Times,serif" font-size="14.00">LRTConstants</text>
<text text-anchor="middle" x="1100.52" y="-903.5" font-family="Times,serif" font-size="14.00">contracts/utils/LRTConstants.sol</text>
<polyline fill="none" stroke="black" points="961.87,-895.3 1239.18,-895.3 "/>
<text text-anchor="start" x="969.87" y="-878.7" font-family="Times,serif" font-size="14.00">Public:</text>
<text text-anchor="start" x="969.87" y="-861.9" font-family="Times,serif" font-size="14.00"> &#160;&#160;R_ETH_TOKEN: bytes32</text>
<text text-anchor="start" x="969.87" y="-845.1" font-family="Times,serif" font-size="14.00"> &#160;&#160;ST_ETH_TOKEN: bytes32</text>
<text text-anchor="start" x="969.87" y="-828.3" font-family="Times,serif" font-size="14.00"> &#160;&#160;CB_ETH_TOKEN: bytes32</text>
<text text-anchor="start" x="969.87" y="-811.5" font-family="Times,serif" font-size="14.00"> &#160;&#160;ETHX_TOKEN: bytes32</text>
<text text-anchor="start" x="969.87" y="-794.7" font-family="Times,serif" font-size="14.00"> &#160;&#160;LRT_ORACLE: bytes32</text>
<text text-anchor="start" x="969.87" y="-777.9" font-family="Times,serif" font-size="14.00"> &#160;&#160;LRT_DEPOSIT_POOL: bytes32</text>
<text text-anchor="start" x="969.87" y="-761.1" font-family="Times,serif" font-size="14.00"> &#160;&#160;EIGEN_STRATEGY_MANAGER: bytes32</text>
<text text-anchor="start" x="969.87" y="-744.3" font-family="Times,serif" font-size="14.00"> &#160;&#160;DEFAULT_ADMIN_ROLE: bytes32</text>
<text text-anchor="start" x="969.87" y="-727.5" font-family="Times,serif" font-size="14.00"> &#160;&#160;MANAGER: bytes32</text>
<text text-anchor="start" x="969.87" y="-710.7" font-family="Times,serif" font-size="14.00"> &#160;&#160;MINTER_ROLE: bytes32</text>
<text text-anchor="start" x="969.87" y="-693.9" font-family="Times,serif" font-size="14.00"> &#160;&#160;BURNER_ROLE: bytes32</text>
</g>
<!-- 0&#45;&gt;2 -->
<g id="edge7" class="edge">
<title>0&#45;&gt;2</title>
<path fill="none" stroke="black" stroke-dasharray="5,2" d="M1437.96,-158.28C1292.75,-181.28 1154.74,-216.91 1109.52,-271.4 1017.44,-382.36 1031.36,-554.06 1057.96,-675.51"/>
<polygon fill="black" stroke="black" points="1054.63,-676.64 1060.24,-685.63 1061.46,-675.11 1054.63,-676.64"/>
</g>
<!-- 1 -->
<g id="node8" class="node">
<title>1</title>
<polygon fill="#f2f2f2" stroke="black" points="1886.15,-769.7 1886.15,-869.7 2152.9,-869.7 2152.9,-769.7 1886.15,-769.7"/>
<text text-anchor="middle" x="2019.52" y="-853.1" font-family="Times,serif" font-size="14.00">&lt;&lt;Library&gt;&gt;</text>
<text text-anchor="middle" x="2019.52" y="-836.3" font-family="Times,serif" font-size="14.00">UtilLib</text>
<text text-anchor="middle" x="2019.52" y="-819.5" font-family="Times,serif" font-size="14.00">contracts/utils/UtilLib.sol</text>
<polyline fill="none" stroke="black" points="1886.15,-811.3 2152.9,-811.3 "/>
<text text-anchor="start" x="1894.15" y="-794.7" font-family="Times,serif" font-size="14.00">Internal:</text>
<text text-anchor="start" x="1894.15" y="-777.9" font-family="Times,serif" font-size="14.00"> &#160;&#160;&#160;checkNonZeroAddress(address_: address)</text>
</g>
<!-- 0&#45;&gt;1 -->
<g id="edge5" class="edge">
<title>0&#45;&gt;1</title>
<path fill="none" stroke="black" stroke-dasharray="5,2" d="M1589.7,-235.11C1579.04,-246.18 1569.51,-258.25 1561.52,-271.4 1521.81,-336.77 1510.6,-558.53 1561.52,-615.6 1608.43,-668.17 1814.31,-618.54 1876.52,-651.6 1923.23,-676.42 1961.26,-723.3 1986.33,-761.11"/>
<polygon fill="black" stroke="black" points="1983.41,-763.04 1991.79,-769.52 1989.28,-759.22 1983.41,-763.04"/>
</g>
<!-- 8 -->
<g id="node10" class="node">
<title>8</title>
<polygon fill="#f2f2f2" stroke="black" points="2157.92,-271.9 2157.92,-615.1 2643.13,-615.1 2643.13,-271.9 2157.92,-271.9"/>
<text text-anchor="middle" x="2400.52" y="-598.5" font-family="Times,serif" font-size="14.00">&lt;&lt;Abstract&gt;&gt;</text>
<text text-anchor="middle" x="2400.52" y="-581.7" font-family="Times,serif" font-size="14.00">PausableUpgradeable</text>
<text text-anchor="middle" x="2400.52" y="-564.9" font-family="Times,serif" font-size="14.00">lib/openzeppelin&#45;contracts&#45;upgradeable/contracts/security/PausableUpgradeable.sol</text>
<polyline fill="none" stroke="black" points="2157.92,-556.7 2643.13,-556.7 "/>
<text text-anchor="start" x="2165.92" y="-540.1" font-family="Times,serif" font-size="14.00">Private:</text>
<text text-anchor="start" x="2165.92" y="-523.3" font-family="Times,serif" font-size="14.00"> &#160;&#160;_paused: bool</text>
<text text-anchor="start" x="2165.92" y="-506.5" font-family="Times,serif" font-size="14.00"> &#160;&#160;__gap: uint256[49]</text>
<polyline fill="none" stroke="black" points="2157.92,-498.3 2643.13,-498.3 "/>
<text text-anchor="start" x="2165.92" y="-481.7" font-family="Times,serif" font-size="14.00">Internal:</text>
<text text-anchor="start" x="2165.92" y="-464.9" font-family="Times,serif" font-size="14.00"> &#160;&#160;&#160;__Pausable_init() &lt;&lt;onlyInitializing&gt;&gt;</text>
<text text-anchor="start" x="2165.92" y="-448.1" font-family="Times,serif" font-size="14.00"> &#160;&#160;&#160;__Pausable_init_unchained() &lt;&lt;onlyInitializing&gt;&gt;</text>
<text text-anchor="start" x="2165.92" y="-431.3" font-family="Times,serif" font-size="14.00"> &#160;&#160;&#160;_requireNotPaused()</text>
<text text-anchor="start" x="2165.92" y="-414.5" font-family="Times,serif" font-size="14.00"> &#160;&#160;&#160;_requirePaused()</text>
<text text-anchor="start" x="2165.92" y="-397.7" font-family="Times,serif" font-size="14.00"> &#160;&#160;&#160;_pause() &lt;&lt;whenNotPaused&gt;&gt;</text>
<text text-anchor="start" x="2165.92" y="-380.9" font-family="Times,serif" font-size="14.00"> &#160;&#160;&#160;_unpause() &lt;&lt;whenPaused&gt;&gt;</text>
<text text-anchor="start" x="2165.92" y="-364.1" font-family="Times,serif" font-size="14.00">Public:</text>
<text text-anchor="start" x="2165.92" y="-347.3" font-family="Times,serif" font-size="14.00"> &#160;&#160;&#160;&lt;&lt;event&gt;&gt; Paused(account: address)</text>
<text text-anchor="start" x="2165.92" y="-330.5" font-family="Times,serif" font-size="14.00"> &#160;&#160;&#160;&lt;&lt;event&gt;&gt; Unpaused(account: address)</text>
<text text-anchor="start" x="2165.92" y="-313.7" font-family="Times,serif" font-size="14.00"> &#160;&#160;&#160;&lt;&lt;modifier&gt;&gt; whenNotPaused()</text>
<text text-anchor="start" x="2165.92" y="-296.9" font-family="Times,serif" font-size="14.00"> &#160;&#160;&#160;&lt;&lt;modifier&gt;&gt; whenPaused()</text>
<text text-anchor="start" x="2165.92" y="-280.1" font-family="Times,serif" font-size="14.00"> &#160;&#160;&#160;paused(): bool</text>
</g>
<!-- 0&#45;&gt;8 -->
<g id="edge3" class="edge">
<title>0&#45;&gt;8</title>
<path fill="none" stroke="black" d="M2086.09,-235.09C2100.63,-243.1 2115.07,-251.24 2131.64,-260.91"/>
<polygon fill="none" stroke="black" points="2126.54,-270.09 2157.7,-276.32 2137.23,-252.01 2126.54,-270.09"/>
</g>
<!-- 9 -->
<g id="node11" class="node">
<title>9</title>
<polygon fill="#f2f2f2" stroke="black" points="2661.44,-288.7 2661.44,-598.3 3195.61,-598.3 3195.61,-288.7 2661.44,-288.7"/>
<text text-anchor="middle" x="2928.52" y="-581.7" font-family="Times,serif" font-size="14.00">&lt;&lt;Abstract&gt;&gt;</text>
<text text-anchor="middle" x="2928.52" y="-564.9" font-family="Times,serif" font-size="14.00">ReentrancyGuardUpgradeable</text>
<text text-anchor="middle" x="2928.52" y="-548.1" font-family="Times,serif" font-size="14.00">lib/openzeppelin&#45;contracts&#45;upgradeable/contracts/security/ReentrancyGuardUpgradeable.sol</text>
<polyline fill="none" stroke="black" points="2661.44,-539.9 3195.61,-539.9 "/>
<text text-anchor="start" x="2669.44" y="-523.3" font-family="Times,serif" font-size="14.00">Private:</text>
<text text-anchor="start" x="2669.44" y="-506.5" font-family="Times,serif" font-size="14.00"> &#160;&#160;_NOT_ENTERED: uint256</text>
<text text-anchor="start" x="2669.44" y="-489.7" font-family="Times,serif" font-size="14.00"> &#160;&#160;_ENTERED: uint256</text>
<text text-anchor="start" x="2669.44" y="-472.9" font-family="Times,serif" font-size="14.00"> &#160;&#160;_status: uint256</text>
<text text-anchor="start" x="2669.44" y="-456.1" font-family="Times,serif" font-size="14.00"> &#160;&#160;__gap: uint256[49]</text>
<polyline fill="none" stroke="black" points="2661.44,-447.9 3195.61,-447.9 "/>
<text text-anchor="start" x="2669.44" y="-431.3" font-family="Times,serif" font-size="14.00">Private:</text>
<text text-anchor="start" x="2669.44" y="-414.5" font-family="Times,serif" font-size="14.00"> &#160;&#160;&#160;_nonReentrantBefore()</text>
<text text-anchor="start" x="2669.44" y="-397.7" font-family="Times,serif" font-size="14.00"> &#160;&#160;&#160;_nonReentrantAfter()</text>
<text text-anchor="start" x="2669.44" y="-380.9" font-family="Times,serif" font-size="14.00">Internal:</text>
<text text-anchor="start" x="2669.44" y="-364.1" font-family="Times,serif" font-size="14.00"> &#160;&#160;&#160;__ReentrancyGuard_init() &lt;&lt;onlyInitializing&gt;&gt;</text>
<text text-anchor="start" x="2669.44" y="-347.3" font-family="Times,serif" font-size="14.00"> &#160;&#160;&#160;__ReentrancyGuard_init_unchained() &lt;&lt;onlyInitializing&gt;&gt;</text>
<text text-anchor="start" x="2669.44" y="-330.5" font-family="Times,serif" font-size="14.00"> &#160;&#160;&#160;_reentrancyGuardEntered(): bool</text>
<text text-anchor="start" x="2669.44" y="-313.7" font-family="Times,serif" font-size="14.00">Public:</text>
<text text-anchor="start" x="2669.44" y="-296.9" font-family="Times,serif" font-size="14.00"> &#160;&#160;&#160;&lt;&lt;modifier&gt;&gt; nonReentrant()</text>
</g>
<!-- 0&#45;&gt;9 -->
<g id="edge4" class="edge">
<title>0&#45;&gt;9</title>
<path fill="none" stroke="black" d="M2273.16,-169.14C2397.86,-192.02 2533.09,-224.79 2652.52,-271.4 2656.67,-273.02 2660.82,-274.7 2664.97,-276.44"/>
<polygon fill="none" stroke="black" points="2660.7,-286.03 2692.37,-288.68 2669.27,-266.85 2660.7,-286.03"/>
</g>
<!-- 6&#45;&gt;5 -->
<g id="edge10" class="edge">
<title>6&#45;&gt;5</title>
<path fill="none" stroke="black" stroke-dasharray="5,2" d="M468,-502.15C430.24,-548.94 375.37,-616.92 326.16,-677.9"/>
<polygon fill="black" stroke="black" points="323.44,-675.7 319.88,-685.68 328.88,-680.1 323.44,-675.7"/>
</g>
<!-- 12 -->
<g id="node15" class="node">
<title>12</title>
<polygon fill="#f2f2f2" stroke="black" points="118.84,-1045.1 118.84,-1279.5 548.21,-1279.5 548.21,-1045.1 118.84,-1045.1"/>
<text text-anchor="middle" x="333.52" y="-1262.9" font-family="Times,serif" font-size="14.00">&lt;&lt;Interface&gt;&gt;</text>
<text text-anchor="middle" x="333.52" y="-1246.1" font-family="Times,serif" font-size="14.00">IERC20</text>
<text text-anchor="middle" x="333.52" y="-1229.3" font-family="Times,serif" font-size="14.00">lib/openzeppelin&#45;contracts/contracts/token/ERC20/IERC20.sol</text>
<polyline fill="none" stroke="black" points="118.84,-1221.1 548.21,-1221.1 "/>
<text text-anchor="start" x="126.84" y="-1204.5" font-family="Times,serif" font-size="14.00">External:</text>
<text text-anchor="start" x="126.84" y="-1187.7" font-family="Times,serif" font-size="14.00"> &#160;&#160;&#160;&#160;totalSupply(): uint256</text>
<text text-anchor="start" x="126.84" y="-1170.9" font-family="Times,serif" font-size="14.00"> &#160;&#160;&#160;&#160;balanceOf(account: address): uint256</text>
<text text-anchor="start" x="126.84" y="-1154.1" font-family="Times,serif" font-size="14.00"> &#160;&#160;&#160;&#160;transfer(to: address, amount: uint256): bool</text>
<text text-anchor="start" x="126.84" y="-1137.3" font-family="Times,serif" font-size="14.00"> &#160;&#160;&#160;&#160;allowance(owner: address, spender: address): uint256</text>
<text text-anchor="start" x="126.84" y="-1120.5" font-family="Times,serif" font-size="14.00"> &#160;&#160;&#160;&#160;approve(spender: address, amount: uint256): bool</text>
<text text-anchor="start" x="126.84" y="-1103.7" font-family="Times,serif" font-size="14.00"> &#160;&#160;&#160;&#160;transferFrom(from: address, to: address, amount: uint256): bool</text>
<text text-anchor="start" x="126.84" y="-1086.9" font-family="Times,serif" font-size="14.00">Public:</text>
<text text-anchor="start" x="126.84" y="-1070.1" font-family="Times,serif" font-size="14.00"> &#160;&#160;&#160;&lt;&lt;event&gt;&gt; Transfer(from: address, to: address, value: uint256)</text>
<text text-anchor="start" x="126.84" y="-1053.3" font-family="Times,serif" font-size="14.00"> &#160;&#160;&#160;&lt;&lt;event&gt;&gt; Approval(owner: address, spender: address, value: uint256)</text>
</g>
<!-- 6&#45;&gt;12 -->
<g id="edge11" class="edge">
<title>6&#45;&gt;12</title>
<path fill="none" stroke="black" stroke-dasharray="5,2" d="M501.39,-502.28C492.33,-543.68 480.52,-600.86 472.52,-651.6 449.11,-800.14 481.81,-845.05 434.52,-987.8 429.21,-1003.84 422.29,-1020.03 414.55,-1035.73"/>
<polygon fill="black" stroke="black" points="411.3,-1034.42 409.91,-1044.92 417.55,-1037.57 411.3,-1034.42"/>
</g>
<!-- 5&#45;&gt;12 -->
<g id="edge12" class="edge">
<title>5&#45;&gt;12</title>
<path fill="none" stroke="black" stroke-dasharray="5,2" d="M259.83,-953.85C269.33,-980.6 279.29,-1008.64 288.71,-1035.15"/>
<polygon fill="black" stroke="black" points="285.51,-1036.59 292.15,-1044.84 292.1,-1034.24 285.51,-1036.59"/>
</g>
<!-- 3&#45;&gt;10 -->
<g id="edge13" class="edge">
<title>3&#45;&gt;10</title>
<path fill="none" stroke="black" d="M1118.13,-553.05C1063.84,-583.92 1005.41,-618.24 952.52,-651.6 952.43,-651.66 952.34,-651.71 952.25,-651.77"/>
<polygon fill="black" stroke="black" points="950.36,-648.83 943.79,-657.14 954.11,-654.74 950.36,-648.83"/>
</g>
<!-- 3&#45;&gt;2 -->
<g id="edge15" class="edge">
<title>3&#45;&gt;2</title>
<path fill="none" stroke="black" stroke-dasharray="5,2" d="M1247.14,-564.7C1226.53,-600.41 1203.75,-639.87 1182.42,-676.82"/>
<polygon fill="black" stroke="black" points="1179.29,-675.25 1177.32,-685.66 1185.35,-678.75 1179.29,-675.25"/>
</g>
<!-- 3&#45;&gt;1 -->
<g id="edge16" class="edge">
<title>3&#45;&gt;1</title>
<path fill="none" stroke="black" stroke-dasharray="5,2" d="M1442.04,-564.88C1468.83,-584.87 1498.24,-603.12 1528.52,-615.6 1672.28,-674.87 1738.82,-579.38 1876.52,-651.6 1923.37,-676.17 1961.38,-723.07 1986.41,-760.95"/>
<polygon fill="black" stroke="black" points="1983.5,-762.88 1991.87,-769.38 1989.37,-759.08 1983.5,-762.88"/>
</g>
<!-- 11 -->
<g id="node14" class="node">
<title>11</title>
<polygon fill="#f2f2f2" stroke="black" points="1257.22,-702.5 1257.22,-936.9 1867.83,-936.9 1867.83,-702.5 1257.22,-702.5"/>
<text text-anchor="middle" x="1562.52" y="-920.3" font-family="Times,serif" font-size="14.00">&lt;&lt;Interface&gt;&gt;</text>
<text text-anchor="middle" x="1562.52" y="-903.5" font-family="Times,serif" font-size="14.00">IAccessControl</text>
<text text-anchor="middle" x="1562.52" y="-886.7" font-family="Times,serif" font-size="14.00">lib/openzeppelin&#45;contracts/contracts/access/IAccessControl.sol</text>
<polyline fill="none" stroke="black" points="1257.22,-878.5 1867.83,-878.5 "/>
<text text-anchor="start" x="1265.22" y="-861.9" font-family="Times,serif" font-size="14.00">External:</text>
<text text-anchor="start" x="1265.22" y="-845.1" font-family="Times,serif" font-size="14.00"> &#160;&#160;&#160;&#160;hasRole(role: bytes32, account: address): bool</text>
<text text-anchor="start" x="1265.22" y="-828.3" font-family="Times,serif" font-size="14.00"> &#160;&#160;&#160;&#160;getRoleAdmin(role: bytes32): bytes32</text>
<text text-anchor="start" x="1265.22" y="-811.5" font-family="Times,serif" font-size="14.00"> &#160;&#160;&#160;&#160;grantRole(role: bytes32, account: address)</text>
<text text-anchor="start" x="1265.22" y="-794.7" font-family="Times,serif" font-size="14.00"> &#160;&#160;&#160;&#160;revokeRole(role: bytes32, account: address)</text>
<text text-anchor="start" x="1265.22" y="-777.9" font-family="Times,serif" font-size="14.00"> &#160;&#160;&#160;&#160;renounceRole(role: bytes32, account: address)</text>
<text text-anchor="start" x="1265.22" y="-761.1" font-family="Times,serif" font-size="14.00">Public:</text>
<text text-anchor="start" x="1265.22" y="-744.3" font-family="Times,serif" font-size="14.00"> &#160;&#160;&#160;&lt;&lt;event&gt;&gt; RoleAdminChanged(role: bytes32, previousAdminRole: bytes32, newAdminRole: bytes32)</text>
<text text-anchor="start" x="1265.22" y="-727.5" font-family="Times,serif" font-size="14.00"> &#160;&#160;&#160;&lt;&lt;event&gt;&gt; RoleGranted(role: bytes32, account: address, sender: address)</text>
<text text-anchor="start" x="1265.22" y="-710.7" font-family="Times,serif" font-size="14.00"> &#160;&#160;&#160;&lt;&lt;event&gt;&gt; RoleRevoked(role: bytes32, account: address, sender: address)</text>
</g>
<!-- 3&#45;&gt;11 -->
<g id="edge14" class="edge">
<title>3&#45;&gt;11</title>
<path fill="none" stroke="black" stroke-dasharray="5,2" d="M1395.54,-564.7C1422.69,-605.99 1453.12,-652.28 1480.5,-693.92"/>
<polygon fill="black" stroke="black" points="1477.69,-696.03 1486.11,-702.46 1483.54,-692.18 1477.69,-696.03"/>
</g>
<!-- 14 -->
<g id="node9" class="node">
<title>14</title>
<polygon fill="#f2f2f2" stroke="black" points="2434.96,-1024.3 2434.96,-1300.3 2882.09,-1300.3 2882.09,-1024.3 2434.96,-1024.3"/>
<text text-anchor="middle" x="2658.52" y="-1283.7" font-family="Times,serif" font-size="14.00">&lt;&lt;Abstract&gt;&gt;</text>
<text text-anchor="middle" x="2658.52" y="-1266.9" font-family="Times,serif" font-size="14.00">Initializable</text>
<text text-anchor="middle" x="2658.52" y="-1250.1" font-family="Times,serif" font-size="14.00">lib/openzeppelin&#45;contracts&#45;upgradeable/contracts/proxy/utils/Initializable.sol</text>
<polyline fill="none" stroke="black" points="2434.96,-1241.9 2882.09,-1241.9 "/>
<text text-anchor="start" x="2442.96" y="-1225.3" font-family="Times,serif" font-size="14.00">Private:</text>
<text text-anchor="start" x="2442.96" y="-1208.5" font-family="Times,serif" font-size="14.00"> &#160;&#160;_initialized: uint8</text>
<text text-anchor="start" x="2442.96" y="-1191.7" font-family="Times,serif" font-size="14.00"> &#160;&#160;_initializing: bool</text>
<polyline fill="none" stroke="black" points="2434.96,-1183.5 2882.09,-1183.5 "/>
<text text-anchor="start" x="2442.96" y="-1166.9" font-family="Times,serif" font-size="14.00">Internal:</text>
<text text-anchor="start" x="2442.96" y="-1150.1" font-family="Times,serif" font-size="14.00"> &#160;&#160;&#160;_disableInitializers()</text>
<text text-anchor="start" x="2442.96" y="-1133.3" font-family="Times,serif" font-size="14.00"> &#160;&#160;&#160;_getInitializedVersion(): uint8</text>
<text text-anchor="start" x="2442.96" y="-1116.5" font-family="Times,serif" font-size="14.00"> &#160;&#160;&#160;_isInitializing(): bool</text>
<text text-anchor="start" x="2442.96" y="-1099.7" font-family="Times,serif" font-size="14.00">Public:</text>
<text text-anchor="start" x="2442.96" y="-1082.9" font-family="Times,serif" font-size="14.00"> &#160;&#160;&#160;&lt;&lt;event&gt;&gt; Initialized(version: uint8)</text>
<text text-anchor="start" x="2442.96" y="-1066.1" font-family="Times,serif" font-size="14.00"> &#160;&#160;&#160;&lt;&lt;modifier&gt;&gt; initializer()</text>
<text text-anchor="start" x="2442.96" y="-1049.3" font-family="Times,serif" font-size="14.00"> &#160;&#160;&#160;&lt;&lt;modifier&gt;&gt; reinitializer(version: uint8)</text>
<text text-anchor="start" x="2442.96" y="-1032.5" font-family="Times,serif" font-size="14.00"> &#160;&#160;&#160;&lt;&lt;modifier&gt;&gt; onlyInitializing()</text>
</g>
<!-- 15 -->
<g id="node12" class="node">
<title>15</title>
<polygon fill="#f2f2f2" stroke="black" points="2347.86,-1337.3 2347.86,-1655.7 2969.19,-1655.7 2969.19,-1337.3 2347.86,-1337.3"/>
<text text-anchor="middle" x="2658.52" y="-1639.1" font-family="Times,serif" font-size="14.00">&lt;&lt;Library&gt;&gt;</text>
<text text-anchor="middle" x="2658.52" y="-1622.3" font-family="Times,serif" font-size="14.00">AddressUpgradeable</text>
<text text-anchor="middle" x="2658.52" y="-1605.5" font-family="Times,serif" font-size="14.00">lib/openzeppelin&#45;contracts&#45;upgradeable/contracts/utils/AddressUpgradeable.sol</text>
<polyline fill="none" stroke="black" points="2347.86,-1597.3 2969.19,-1597.3 "/>
<text text-anchor="start" x="2355.86" y="-1580.7" font-family="Times,serif" font-size="14.00">Private:</text>
<text text-anchor="start" x="2355.86" y="-1563.9" font-family="Times,serif" font-size="14.00"> &#160;&#160;&#160;_revert(returndata: bytes, errorMessage: string)</text>
<text text-anchor="start" x="2355.86" y="-1547.1" font-family="Times,serif" font-size="14.00">Internal:</text>
<text text-anchor="start" x="2355.86" y="-1530.3" font-family="Times,serif" font-size="14.00"> &#160;&#160;&#160;isContract(account: address): bool</text>
<text text-anchor="start" x="2355.86" y="-1513.5" font-family="Times,serif" font-size="14.00"> &#160;&#160;&#160;sendValue(recipient: address, amount: uint256)</text>
<text text-anchor="start" x="2355.86" y="-1496.7" font-family="Times,serif" font-size="14.00"> &#160;&#160;&#160;functionCall(target: address, data: bytes): bytes</text>
<text text-anchor="start" x="2355.86" y="-1479.9" font-family="Times,serif" font-size="14.00"> &#160;&#160;&#160;functionCall(target: address, data: bytes, errorMessage: string): bytes</text>
<text text-anchor="start" x="2355.86" y="-1463.1" font-family="Times,serif" font-size="14.00"> &#160;&#160;&#160;functionCallWithValue(target: address, data: bytes, value: uint256): bytes</text>
<text text-anchor="start" x="2355.86" y="-1446.3" font-family="Times,serif" font-size="14.00"> &#160;&#160;&#160;functionCallWithValue(target: address, data: bytes, value: uint256, errorMessage: string): bytes</text>
<text text-anchor="start" x="2355.86" y="-1429.5" font-family="Times,serif" font-size="14.00"> &#160;&#160;&#160;functionStaticCall(target: address, data: bytes): bytes</text>
<text text-anchor="start" x="2355.86" y="-1412.7" font-family="Times,serif" font-size="14.00"> &#160;&#160;&#160;functionStaticCall(target: address, data: bytes, errorMessage: string): bytes</text>
<text text-anchor="start" x="2355.86" y="-1395.9" font-family="Times,serif" font-size="14.00"> &#160;&#160;&#160;functionDelegateCall(target: address, data: bytes): bytes</text>
<text text-anchor="start" x="2355.86" y="-1379.1" font-family="Times,serif" font-size="14.00"> &#160;&#160;&#160;functionDelegateCall(target: address, data: bytes, errorMessage: string): bytes</text>
<text text-anchor="start" x="2355.86" y="-1362.3" font-family="Times,serif" font-size="14.00"> &#160;&#160;&#160;verifyCallResultFromTarget(target: address, success: bool, returndata: bytes, errorMessage: string): bytes</text>
<text text-anchor="start" x="2355.86" y="-1345.5" font-family="Times,serif" font-size="14.00"> &#160;&#160;&#160;verifyCallResult(success: bool, returndata: bytes, errorMessage: string): bytes</text>
</g>
<!-- 14&#45;&gt;15 -->
<g id="edge17" class="edge">
<title>14&#45;&gt;15</title>
<path fill="none" stroke="black" stroke-dasharray="5,2" d="M2658.52,-1300.34C2658.52,-1309.17 2658.52,-1318.11 2658.52,-1327.06"/>
<polygon fill="black" stroke="black" points="2655.02,-1327.17 2658.52,-1337.17 2662.02,-1327.17 2655.02,-1327.17"/>
</g>
<!-- 8&#45;&gt;14 -->
<g id="edge18" class="edge">
<title>8&#45;&gt;14</title>
<path fill="none" stroke="black" d="M2618.16,-615.14C2626.25,-626.81 2633.47,-638.98 2639.52,-651.6 2690.29,-757.5 2693.56,-890.48 2684.91,-994.05"/>
<polygon fill="none" stroke="black" points="2674.44,-993.28 2682,-1024.15 2695.34,-995.3 2674.44,-993.28"/>
</g>
<!-- 13 -->
<g id="node13" class="node">
<title>13</title>
<polygon fill="#f2f2f2" stroke="black" points="2170.74,-723.7 2170.74,-915.7 2630.31,-915.7 2630.31,-723.7 2170.74,-723.7"/>
<text text-anchor="middle" x="2400.52" y="-899.1" font-family="Times,serif" font-size="14.00">&lt;&lt;Abstract&gt;&gt;</text>
<text text-anchor="middle" x="2400.52" y="-882.3" font-family="Times,serif" font-size="14.00">ContextUpgradeable</text>
<text text-anchor="middle" x="2400.52" y="-865.5" font-family="Times,serif" font-size="14.00">lib/openzeppelin&#45;contracts&#45;upgradeable/contracts/utils/ContextUpgradeable.sol</text>
<polyline fill="none" stroke="black" points="2170.74,-857.3 2630.31,-857.3 "/>
<text text-anchor="start" x="2178.74" y="-840.7" font-family="Times,serif" font-size="14.00">Private:</text>
<text text-anchor="start" x="2178.74" y="-823.9" font-family="Times,serif" font-size="14.00"> &#160;&#160;__gap: uint256[50]</text>
<polyline fill="none" stroke="black" points="2170.74,-815.7 2630.31,-815.7 "/>
<text text-anchor="start" x="2178.74" y="-799.1" font-family="Times,serif" font-size="14.00">Internal:</text>
<text text-anchor="start" x="2178.74" y="-782.3" font-family="Times,serif" font-size="14.00"> &#160;&#160;&#160;__Context_init() &lt;&lt;onlyInitializing&gt;&gt;</text>
<text text-anchor="start" x="2178.74" y="-765.5" font-family="Times,serif" font-size="14.00"> &#160;&#160;&#160;__Context_init_unchained() &lt;&lt;onlyInitializing&gt;&gt;</text>
<text text-anchor="start" x="2178.74" y="-748.7" font-family="Times,serif" font-size="14.00"> &#160;&#160;&#160;_msgSender(): address</text>
<text text-anchor="start" x="2178.74" y="-731.9" font-family="Times,serif" font-size="14.00"> &#160;&#160;&#160;_msgData(): bytes</text>
</g>
<!-- 8&#45;&gt;13 -->
<g id="edge19" class="edge">
<title>8&#45;&gt;13</title>
<path fill="none" stroke="black" d="M2400.52,-615.17C2400.52,-641.48 2400.52,-668.22 2400.52,-693.29"/>
<polygon fill="none" stroke="black" points="2390.02,-693.45 2400.52,-723.45 2411.02,-693.45 2390.02,-693.45"/>
</g>
<!-- 9&#45;&gt;14 -->
<g id="edge20" class="edge">
<title>9&#45;&gt;14</title>
<path fill="none" stroke="black" d="M2870.44,-598.71C2826.36,-715.72 2765.87,-876.31 2720.8,-995.97"/>
<polygon fill="none" stroke="black" points="2710.88,-992.52 2710.13,-1024.3 2730.53,-999.92 2710.88,-992.52"/>
</g>
<!-- 13&#45;&gt;14 -->
<g id="edge21" class="edge">
<title>13&#45;&gt;14</title>
<path fill="none" stroke="black" d="M2472.73,-916.03C2492.59,-942.24 2514.69,-971.42 2536.52,-1000.24"/>
<polygon fill="none" stroke="black" points="2528.26,-1006.72 2554.74,-1024.29 2545,-994.04 2528.26,-1006.72"/>
</g>
</g>
</svg>
