<?xml version="1.0" encoding="UTF-8" standalone="no"?>
<!DOCTYPE svg PUBLIC "-//W3C//DTD SVG 1.1//EN"
 "http://www.w3.org/Graphics/SVG/1.1/DTD/svg11.dtd">
<!-- Generated by graphviz version 5.0.0 (20220707.1540)
 -->
<!-- Title: StorageDiagram Pages: 1 -->
<svg width="1877pt" height="375pt"
 viewBox="0.00 0.00 1876.69 374.60" xmlns="http://www.w3.org/2000/svg" xmlns:xlink="http://www.w3.org/1999/xlink">
<g id="graph0" class="graph" transform="scale(1 1) rotate(0) translate(4 370.6)">
<title>StorageDiagram</title>
<polygon fill="white" stroke="transparent" points="-4,4 -4,-370.6 1872.69,-370.6 1872.69,4 -4,4"/>
<!-- 1 -->
<g id="node1" class="node">
<title>1</title>
<polygon fill="#f2f2f2" stroke="black" points="0,-0.5 0,-366.1 1868.69,-366.1 1868.69,-0.5 0,-0.5"/>
<text text-anchor="middle" x="934.34" y="-349.5" font-family="Courier New" font-size="14.00">NodeDelegator &lt;&lt;Contract&gt;&gt;</text>
<text text-anchor="middle" x="934.34" y="-332.7" font-family="Courier New" font-size="14.00">0xEBd48593C5463efa51a9971ce6bdB8A8761F0676</text>
<polyline fill="none" stroke="black" points="0,-324.5 1868.69,-324.5 "/>
<text text-anchor="middle" x="41.61" y="-307.9" font-family="Courier New" font-size="14.00">slot</text>
<text text-anchor="middle" x="41.61" y="-291.1" font-family="Courier New" font-size="14.00"> &#160;</text>
<polyline fill="none" stroke="black" points="0,-282.9 83.21,-282.9 "/>
<text text-anchor="middle" x="41.61" y="-266.3" font-family="Courier New" font-size="14.00">0</text>
<text text-anchor="middle" x="41.61" y="-249.5" font-family="Courier New" font-size="14.00"> &#160;</text>
<polyline fill="none" stroke="black" points="0,-241.3 83.21,-241.3 "/>
<text text-anchor="middle" x="41.61" y="-224.7" font-family="Courier New" font-size="14.00">1&#45;50 </text>
<polyline fill="none" stroke="black" points="0,-216.5 83.21,-216.5 "/>
<text text-anchor="middle" x="41.61" y="-199.9" font-family="Courier New" font-size="14.00">51</text>
<text text-anchor="middle" x="41.61" y="-183.1" font-family="Courier New" font-size="14.00"> &#160;</text>
<polyline fill="none" stroke="black" points="0,-174.9 83.21,-174.9 "/>
<text text-anchor="middle" x="41.61" y="-158.3" font-family="Courier New" font-size="14.00">52&#45;100 </text>
<polyline fill="none" stroke="black" points="0,-150.1 83.21,-150.1 "/>
<text text-anchor="middle" x="41.61" y="-133.5" font-family="Courier New" font-size="14.00">101</text>
<text text-anchor="middle" x="41.61" y="-116.7" font-family="Courier New" font-size="14.00"> &#160;</text>
<polyline fill="none" stroke="black" points="0,-108.5 83.21,-108.5 "/>
<text text-anchor="middle" x="41.61" y="-91.9" font-family="Courier New" font-size="14.00">102&#45;150 </text>
<polyline fill="none" stroke="black" points="0,-83.7 83.21,-83.7 "/>
<text text-anchor="middle" x="41.61" y="-67.1" font-family="Courier New" font-size="14.00">151</text>
<text text-anchor="middle" x="41.61" y="-50.3" font-family="Courier New" font-size="14.00"> &#160;</text>
<polyline fill="none" stroke="black" points="0,-42.1 83.21,-42.1 "/>
<text text-anchor="middle" x="41.61" y="-25.5" font-family="Courier New" font-size="14.00">152</text>
<text text-anchor="middle" x="41.61" y="-8.7" font-family="Courier New" font-size="14.00"> </text>
<polyline fill="none" stroke="black" points="83.21,-0.5 83.21,-324.5 "/>
<text text-anchor="middle" x="368.46" y="-307.9" font-family="Courier New" font-size="14.00">value</text>
<text text-anchor="middle" x="368.46" y="-291.1" font-family="Courier New" font-size="14.00"> &#160;</text>
<polyline fill="none" stroke="black" points="83.21,-282.9 653.7,-282.9 "/>
<text text-anchor="middle" x="368.46" y="-266.3" font-family="Courier New" font-size="14.00">0x000000000000000000000001F879C7859B6DE6FADAFB74224FF05B16871646BF</text>
<text text-anchor="middle" x="368.46" y="-249.5" font-family="Courier New" font-size="14.00"> &#160;</text>
<polyline fill="none" stroke="black" points="83.21,-241.3 653.7,-241.3 "/>
<text text-anchor="middle" x="368.46" y="-224.7" font-family="Courier New" font-size="14.00"> </text>
<polyline fill="none" stroke="black" points="83.21,-216.5 653.7,-216.5 "/>
<text text-anchor="middle" x="368.46" y="-199.9" font-family="Courier New" font-size="14.00">0x0000000000000000000000000000000000000000000000000000000000000000</text>
<text text-anchor="middle" x="368.46" y="-183.1" font-family="Courier New" font-size="14.00"> &#160;</text>
<polyline fill="none" stroke="black" points="83.21,-174.9 653.7,-174.9 "/>
<text text-anchor="middle" x="368.46" y="-158.3" font-family="Courier New" font-size="14.00"> </text>
<polyline fill="none" stroke="black" points="83.21,-150.1 653.7,-150.1 "/>
<text text-anchor="middle" x="368.46" y="-133.5" font-family="Courier New" font-size="14.00">0x0000000000000000000000000000000000000000000000000000000000000001</text>
<text text-anchor="middle" x="368.46" y="-116.7" font-family="Courier New" font-size="14.00"> &#160;</text>
<polyline fill="none" stroke="black" points="83.21,-108.5 653.7,-108.5 "/>
<text text-anchor="middle" x="368.46" y="-91.9" font-family="Courier New" font-size="14.00"> </text>
<polyline fill="none" stroke="black" points="83.21,-83.7 653.7,-83.7 "/>
<text text-anchor="middle" x="368.46" y="-67.1" font-family="Courier New" font-size="14.00">0x0000000000000000000000000000000000000000000000000000000000000000</text>
<text text-anchor="middle" x="368.46" y="-50.3" font-family="Courier New" font-size="14.00"> &#160;</text>
<polyline fill="none" stroke="black" points="83.21,-42.1 653.7,-42.1 "/>
<text text-anchor="middle" x="368.46" y="-25.5" font-family="Courier New" font-size="14.00">0x0000000000000000000000000000000000000000000000000000000000000000</text>
<text text-anchor="middle" x="368.46" y="-8.7" font-family="Courier New" font-size="14.00"> </text>
<polyline fill="none" stroke="black" points="653.7,-0.5 653.7,-324.5 "/>
<text text-anchor="middle" x="1261.19" y="-307.9" font-family="Courier New" font-size="14.00">type: &lt;inherited contract&gt;.variable (bytes)</text>
<text text-anchor="middle" x="1261.19" y="-291.1" font-family="Courier New" font-size="14.00">decoded data</text>
<polyline fill="none" stroke="black" points="653.7,-282.9 1868.69,-282.9 "/>
<text text-anchor="middle" x="728.91" y="-257.9" font-family="Courier New" font-size="14.00">unallocated (10)</text>
<polyline fill="none" stroke="black" points="804.12,-241.3 804.12,-282.9 "/>
<text text-anchor="middle" x="967.55" y="-266.3" font-family="Courier New" font-size="14.00">bool: Initializable._initializing (1)</text>
<text text-anchor="middle" x="967.55" y="-249.5" font-family="Courier New" font-size="14.00"> false &#160;</text>
<polyline fill="none" stroke="black" points="1130.97,-241.3 1130.97,-282.9 "/>
<text text-anchor="middle" x="1294.4" y="-266.3" font-family="Courier New" font-size="14.00">uint8: Initializable._initialized (1)</text>
<text text-anchor="middle" x="1294.4" y="-249.5" font-family="Courier New" font-size="14.00"> 1 &#160;</text>
<polyline fill="none" stroke="black" points="1457.82,-241.3 1457.82,-282.9 "/>
<text text-anchor="middle" x="1663.26" y="-266.3" font-family="Courier New" font-size="14.00">ILRTConfig: LRTConfigRoleChecker.lrtConfig (20)</text>
<text text-anchor="middle" x="1663.26" y="-249.5" font-family="Courier New" font-size="14.00"> 0xF879c7859b6DE6FAdaFB74224Ff05b16871646bF </text>
<polyline fill="none" stroke="black" points="653.7,-241.3 1868.69,-241.3 "/>
<text text-anchor="middle" x="1261.03" y="-224.7" font-family="Courier New" font-size="14.00">uint256[50]: ContextUpgradeable.__gap (1600)</text>
<polyline fill="none" stroke="black" points="653.7,-216.5 1868.69,-216.5 "/>
<text text-anchor="middle" x="912.91" y="-191.5" font-family="Courier New" font-size="14.00">unallocated (31)</text>
<polyline fill="none" stroke="black" points="1172.12,-174.9 1172.12,-216.5 "/>
<text text-anchor="middle" x="1520.05" y="-199.9" font-family="Courier New" font-size="14.00">bool: PausableUpgradeable._paused (1)</text>
<text text-anchor="middle" x="1520.05" y="-183.1" font-family="Courier New" font-size="14.00"> false </text>
<polyline fill="none" stroke="black" points="653.7,-174.9 1868.69,-174.9 "/>
<text text-anchor="middle" x="1260.73" y="-158.3" font-family="Courier New" font-size="14.00">uint256[49]: PausableUpgradeable.__gap (1568)</text>
<polyline fill="none" stroke="black" points="653.7,-150.1 1868.69,-150.1 "/>
<text text-anchor="middle" x="1260.83" y="-133.5" font-family="Courier New" font-size="14.00">uint256: ReentrancyGuardUpgradeable._status (32)</text>
<text text-anchor="middle" x="1260.83" y="-116.7" font-family="Courier New" font-size="14.00"> 1 </text>
<polyline fill="none" stroke="black" points="653.7,-108.5 1868.69,-108.5 "/>
<text text-anchor="middle" x="1261.14" y="-91.9" font-family="Courier New" font-size="14.00">uint256[49]: ReentrancyGuardUpgradeable.__gap (1568)</text>
<polyline fill="none" stroke="black" points="653.7,-83.7 1868.69,-83.7 "/>
<text text-anchor="middle" x="898.41" y="-58.7" font-family="Courier New" font-size="14.00">unallocated (12)</text>
<polyline fill="none" stroke="black" points="1143.12,-42.1 1143.12,-83.7 "/>
<text text-anchor="middle" x="1505.45" y="-67.1" font-family="Courier New" font-size="14.00">IEigenPod: eigenPod (20)</text>
<text text-anchor="middle" x="1505.45" y="-50.3" font-family="Courier New" font-size="14.00"> 0x0000000000000000000000000000000000000000 </text>
<polyline fill="none" stroke="black" points="653.7,-42.1 1868.69,-42.1 "/>
<text text-anchor="middle" x="1261.13" y="-25.5" font-family="Courier New" font-size="14.00">uint256: stakedButNotVerifiedEth (32)</text>
<text text-anchor="middle" x="1261.13" y="-8.7" font-family="Courier New" font-size="14.00"> 0 </text>
</g>
</g>
</svg>
