<?xml version="1.0" encoding="UTF-8" standalone="no"?>
<!DOCTYPE svg PUBLIC "-//W3C//DTD SVG 1.1//EN"
 "http://www.w3.org/Graphics/SVG/1.1/DTD/svg11.dtd">
<!-- Generated by graphviz version 5.0.0 (20220707.1540)
 -->
<!-- Title: StorageDiagram Pages: 1 -->
<svg width="1877pt" height="449pt"
 viewBox="0.00 0.00 1876.69 449.00" xmlns="http://www.w3.org/2000/svg" xmlns:xlink="http://www.w3.org/1999/xlink">
<g id="graph0" class="graph" transform="scale(1 1) rotate(0) translate(4 445)">
<title>StorageDiagram</title>
<polygon fill="white" stroke="transparent" points="-4,4 -4,-445 1872.69,-445 1872.69,4 -4,4"/>
<!-- 1 -->
<g id="node1" class="node">
<title>1</title>
<polygon fill="#f2f2f2" stroke="black" points="0,-0.5 0,-440.5 1868.69,-440.5 1868.69,-0.5 0,-0.5"/>
<text text-anchor="middle" x="934.34" y="-423.9" font-family="Courier New" font-size="14.00">NodeDelegator &lt;&lt;Contract&gt;&gt;</text>
<text text-anchor="middle" x="934.34" y="-407.1" font-family="Courier New" font-size="14.00">0x86307220139b6f7AE20be6Ef58c8d4188E31959d</text>
<polyline fill="none" stroke="black" points="0,-398.9 1868.69,-398.9 "/>
<text text-anchor="middle" x="41.61" y="-382.3" font-family="Courier New" font-size="14.00">slot</text>
<text text-anchor="middle" x="41.61" y="-365.5" font-family="Courier New" font-size="14.00"> &#160;</text>
<polyline fill="none" stroke="black" points="0,-357.3 83.21,-357.3 "/>
<text text-anchor="middle" x="41.61" y="-340.7" font-family="Courier New" font-size="14.00">0</text>
<text text-anchor="middle" x="41.61" y="-323.9" font-family="Courier New" font-size="14.00"> &#160;</text>
<polyline fill="none" stroke="black" points="0,-315.7 83.21,-315.7 "/>
<text text-anchor="middle" x="41.61" y="-299.1" font-family="Courier New" font-size="14.00">1&#45;50 </text>
<polyline fill="none" stroke="black" points="0,-290.9 83.21,-290.9 "/>
<text text-anchor="middle" x="41.61" y="-274.3" font-family="Courier New" font-size="14.00">51</text>
<text text-anchor="middle" x="41.61" y="-257.5" font-family="Courier New" font-size="14.00"> &#160;</text>
<polyline fill="none" stroke="black" points="0,-249.3 83.21,-249.3 "/>
<text text-anchor="middle" x="41.61" y="-232.7" font-family="Courier New" font-size="14.00">52&#45;100 </text>
<polyline fill="none" stroke="black" points="0,-224.5 83.21,-224.5 "/>
<text text-anchor="middle" x="41.61" y="-207.9" font-family="Courier New" font-size="14.00">101</text>
<text text-anchor="middle" x="41.61" y="-191.1" font-family="Courier New" font-size="14.00"> &#160;</text>
<polyline fill="none" stroke="black" points="0,-182.9 83.21,-182.9 "/>
<text text-anchor="middle" x="41.61" y="-166.3" font-family="Courier New" font-size="14.00">102&#45;150 </text>
<polyline fill="none" stroke="black" points="0,-158.1 83.21,-158.1 "/>
<text text-anchor="middle" x="41.61" y="-141.5" font-family="Courier New" font-size="14.00">151</text>
<text text-anchor="middle" x="41.61" y="-124.7" font-family="Courier New" font-size="14.00"> &#160;</text>
<polyline fill="none" stroke="black" points="0,-116.5 83.21,-116.5 "/>
<text text-anchor="middle" x="41.61" y="-99.9" font-family="Courier New" font-size="14.00">152</text>
<text text-anchor="middle" x="41.61" y="-83.1" font-family="Courier New" font-size="14.00"> &#160;</text>
<polyline fill="none" stroke="black" points="0,-74.9 83.21,-74.9 "/>
<text text-anchor="middle" x="41.61" y="-58.3" font-family="Courier New" font-size="14.00">153 </text>
<polyline fill="none" stroke="black" points="0,-50.1 83.21,-50.1 "/>
<text text-anchor="middle" x="41.61" y="-33.5" font-family="Courier New" font-size="14.00">154 </text>
<polyline fill="none" stroke="black" points="0,-25.3 83.21,-25.3 "/>
<text text-anchor="middle" x="41.61" y="-8.7" font-family="Courier New" font-size="14.00">155</text>
<polyline fill="none" stroke="black" points="83.21,-0.5 83.21,-398.9 "/>
<text text-anchor="middle" x="368.46" y="-382.3" font-family="Courier New" font-size="14.00">value</text>
<text text-anchor="middle" x="368.46" y="-365.5" font-family="Courier New" font-size="14.00"> &#160;</text>
<polyline fill="none" stroke="black" points="83.21,-357.3 653.7,-357.3 "/>
<text text-anchor="middle" x="368.46" y="-340.7" font-family="Courier New" font-size="14.00">0x000000000000000000000001C1B4F3B373C7A766C5F8587940180396593ACFE7</text>
<text text-anchor="middle" x="368.46" y="-323.9" font-family="Courier New" font-size="14.00"> &#160;</text>
<polyline fill="none" stroke="black" points="83.21,-315.7 653.7,-315.7 "/>
<text text-anchor="middle" x="368.46" y="-299.1" font-family="Courier New" font-size="14.00"> </text>
<polyline fill="none" stroke="black" points="83.21,-290.9 653.7,-290.9 "/>
<text text-anchor="middle" x="368.46" y="-274.3" font-family="Courier New" font-size="14.00">0x0000000000000000000000000000000000000000000000000000000000000000</text>
<text text-anchor="middle" x="368.46" y="-257.5" font-family="Courier New" font-size="14.00"> &#160;</text>
<polyline fill="none" stroke="black" points="83.21,-249.3 653.7,-249.3 "/>
<text text-anchor="middle" x="368.46" y="-232.7" font-family="Courier New" font-size="14.00"> </text>
<polyline fill="none" stroke="black" points="83.21,-224.5 653.7,-224.5 "/>
<text text-anchor="middle" x="368.46" y="-207.9" font-family="Courier New" font-size="14.00">0x0000000000000000000000000000000000000000000000000000000000000001</text>
<text text-anchor="middle" x="368.46" y="-191.1" font-family="Courier New" font-size="14.00"> &#160;</text>
<polyline fill="none" stroke="black" points="83.21,-182.9 653.7,-182.9 "/>
<text text-anchor="middle" x="368.46" y="-166.3" font-family="Courier New" font-size="14.00"> </text>
<polyline fill="none" stroke="black" points="83.21,-158.1 653.7,-158.1 "/>
<text text-anchor="middle" x="368.46" y="-141.5" font-family="Courier New" font-size="14.00">0x0000000000000000000000000000000000000000000000000000000000000000</text>
<text text-anchor="middle" x="368.46" y="-124.7" font-family="Courier New" font-size="14.00"> &#160;</text>
<polyline fill="none" stroke="black" points="83.21,-116.5 653.7,-116.5 "/>
<text text-anchor="middle" x="368.46" y="-99.9" font-family="Courier New" font-size="14.00">0x0000000000000000000000000000000000000000000000000000000000000000</text>
<text text-anchor="middle" x="368.46" y="-83.1" font-family="Courier New" font-size="14.00"> &#160;</text>
<polyline fill="none" stroke="black" points="83.21,-74.9 653.7,-74.9 "/>
<text text-anchor="middle" x="368.46" y="-58.3" font-family="Courier New" font-size="14.00"> </text>
<polyline fill="none" stroke="black" points="83.21,-50.1 653.7,-50.1 "/>
<text text-anchor="middle" x="368.46" y="-33.5" font-family="Courier New" font-size="14.00"> </text>
<polyline fill="none" stroke="black" points="83.21,-25.3 653.7,-25.3 "/>
<text text-anchor="middle" x="368.46" y="-8.7" font-family="Courier New" font-size="14.00"> </text>
<polyline fill="none" stroke="black" points="653.7,-0.5 653.7,-398.9 "/>
<text text-anchor="middle" x="1261.19" y="-382.3" font-family="Courier New" font-size="14.00">type: &lt;inherited contract&gt;.variable (bytes)</text>
<text text-anchor="middle" x="1261.19" y="-365.5" font-family="Courier New" font-size="14.00">decoded data</text>
<polyline fill="none" stroke="black" points="653.7,-357.3 1868.69,-357.3 "/>
<text text-anchor="middle" x="728.91" y="-332.3" font-family="Courier New" font-size="14.00">unallocated (10)</text>
<polyline fill="none" stroke="black" points="804.12,-315.7 804.12,-357.3 "/>
<text text-anchor="middle" x="967.55" y="-340.7" font-family="Courier New" font-size="14.00">bool: Initializable._initializing (1)</text>
<text text-anchor="middle" x="967.55" y="-323.9" font-family="Courier New" font-size="14.00"> false &#160;</text>
<polyline fill="none" stroke="black" points="1130.97,-315.7 1130.97,-357.3 "/>
<text text-anchor="middle" x="1294.4" y="-340.7" font-family="Courier New" font-size="14.00">uint8: Initializable._initialized (1)</text>
<text text-anchor="middle" x="1294.4" y="-323.9" font-family="Courier New" font-size="14.00"> 1 &#160;</text>
<polyline fill="none" stroke="black" points="1457.82,-315.7 1457.82,-357.3 "/>
<text text-anchor="middle" x="1663.26" y="-340.7" font-family="Courier New" font-size="14.00">ILRTConfig: LRTConfigRoleChecker.lrtConfig (20)</text>
<text text-anchor="middle" x="1663.26" y="-323.9" font-family="Courier New" font-size="14.00"> 0xC1b4F3B373c7a766C5f8587940180396593Acfe7 </text>
<polyline fill="none" stroke="black" points="653.7,-315.7 1868.69,-315.7 "/>
<text text-anchor="middle" x="1261.03" y="-299.1" font-family="Courier New" font-size="14.00">uint256[50]: ContextUpgradeable.__gap (1600)</text>
<polyline fill="none" stroke="black" points="653.7,-290.9 1868.69,-290.9 "/>
<text text-anchor="middle" x="912.91" y="-265.9" font-family="Courier New" font-size="14.00">unallocated (31)</text>
<polyline fill="none" stroke="black" points="1172.12,-249.3 1172.12,-290.9 "/>
<text text-anchor="middle" x="1520.05" y="-274.3" font-family="Courier New" font-size="14.00">bool: PausableUpgradeable._paused (1)</text>
<text text-anchor="middle" x="1520.05" y="-257.5" font-family="Courier New" font-size="14.00"> false </text>
<polyline fill="none" stroke="black" points="653.7,-249.3 1868.69,-249.3 "/>
<text text-anchor="middle" x="1260.73" y="-232.7" font-family="Courier New" font-size="14.00">uint256[49]: PausableUpgradeable.__gap (1568)</text>
<polyline fill="none" stroke="black" points="653.7,-224.5 1868.69,-224.5 "/>
<text text-anchor="middle" x="1260.83" y="-207.9" font-family="Courier New" font-size="14.00">uint256: ReentrancyGuardUpgradeable._status (32)</text>
<text text-anchor="middle" x="1260.83" y="-191.1" font-family="Courier New" font-size="14.00"> 1 </text>
<polyline fill="none" stroke="black" points="653.7,-182.9 1868.69,-182.9 "/>
<text text-anchor="middle" x="1261.14" y="-166.3" font-family="Courier New" font-size="14.00">uint256[49]: ReentrancyGuardUpgradeable.__gap (1568)</text>
<polyline fill="none" stroke="black" points="653.7,-158.1 1868.69,-158.1 "/>
<text text-anchor="middle" x="898.41" y="-133.1" font-family="Courier New" font-size="14.00">unallocated (12)</text>
<polyline fill="none" stroke="black" points="1143.12,-116.5 1143.12,-158.1 "/>
<text text-anchor="middle" x="1505.45" y="-141.5" font-family="Courier New" font-size="14.00">address: eigenPod (20)</text>
<text text-anchor="middle" x="1505.45" y="-124.7" font-family="Courier New" font-size="14.00"> 0x0000000000000000000000000000000000000000 </text>
<polyline fill="none" stroke="black" points="653.7,-116.5 1868.69,-116.5 "/>
<text text-anchor="middle" x="1261.13" y="-99.9" font-family="Courier New" font-size="14.00">uint256: stakedButNotVerifiedEth (32)</text>
<text text-anchor="middle" x="1261.13" y="-83.1" font-family="Courier New" font-size="14.00"> 0 </text>
<polyline fill="none" stroke="black" points="653.7,-74.9 1868.69,-74.9 "/>
<text text-anchor="middle" x="1260.74" y="-58.3" font-family="Courier New" font-size="14.00">mapping(bytes32=&gt;address): withdrawalRequests (32)</text>
<polyline fill="none" stroke="black" points="653.7,-50.1 1868.69,-50.1 "/>
<text text-anchor="middle" x="1260.84" y="-33.5" font-family="Courier New" font-size="14.00">mapping(address=&gt;uint256): pendingInternalShareWithdrawals (32)</text>
<polyline fill="none" stroke="black" points="653.7,-25.3 1868.69,-25.3 "/>
<text text-anchor="middle" x="1260.73" y="-8.7" font-family="Courier New" font-size="14.00">mapping(bytes32=&gt;bool): validatorsStaked (32)</text>
</g>
</g>
</svg>
