<?xml version="1.0" encoding="UTF-8" standalone="no"?>
<!DOCTYPE svg PUBLIC "-//W3C//DTD SVG 1.1//EN"
 "http://www.w3.org/Graphics/SVG/1.1/DTD/svg11.dtd">
<!-- Generated by graphviz version 5.0.0 (20220707.1540)
 -->
<!-- Title: UmlClassDiagram Pages: 1 -->
<svg width="1307pt" height="337pt"
 viewBox="0.00 0.00 1307.43 336.80" xmlns="http://www.w3.org/2000/svg" xmlns:xlink="http://www.w3.org/1999/xlink">
<g id="graph0" class="graph" transform="scale(1 1) rotate(0) translate(4 332.8)">
<title>UmlClassDiagram</title>
<polygon fill="white" stroke="transparent" points="-4,4 -4,-332.8 1303.43,-332.8 1303.43,4 -4,4"/>
<!-- 1 -->
<g id="node1" class="node">
<title>1</title>
<polygon fill="#f2f2f2" stroke="black" points="429.45,-0.5 429.45,-42.1 605.23,-42.1 605.23,-0.5 429.45,-0.5"/>
<text text-anchor="middle" x="517.34" y="-25.5" font-family="Times,serif" font-size="14.00">NodeDelegator</text>
<text text-anchor="middle" x="517.34" y="-8.7" font-family="Times,serif" font-size="14.00">contracts/NodeDelegator.sol</text>
</g>
<!-- 4 -->
<g id="node2" class="node">
<title>4</title>
<polygon fill="#f2f2f2" stroke="black" points="0,-79.1 0,-137.5 256.68,-137.5 256.68,-79.1 0,-79.1"/>
<text text-anchor="middle" x="128.34" y="-120.9" font-family="Times,serif" font-size="14.00">&lt;&lt;Abstract&gt;&gt;</text>
<text text-anchor="middle" x="128.34" y="-104.1" font-family="Times,serif" font-size="14.00">LRTConfigRoleChecker</text>
<text text-anchor="middle" x="128.34" y="-87.3" font-family="Times,serif" font-size="14.00">contracts/utils/LRTConfigRoleChecker.sol</text>
</g>
<!-- 1&#45;&gt;4 -->
<g id="edge1" class="edge">
<title>1&#45;&gt;4</title>
<path fill="none" stroke="black" d="M429.07,-41.59C386.83,-50.82 334.95,-62.15 286.25,-72.8"/>
<polygon fill="none" stroke="black" points="283.91,-62.56 256.85,-79.22 288.4,-83.07 283.91,-62.56"/>
</g>
<!-- 13 -->
<g id="node4" class="node">
<title>13</title>
<polygon fill="#f2f2f2" stroke="black" points="274.74,-79.1 274.74,-137.5 759.94,-137.5 759.94,-79.1 274.74,-79.1"/>
<text text-anchor="middle" x="517.34" y="-120.9" font-family="Times,serif" font-size="14.00">&lt;&lt;Abstract&gt;&gt;</text>
<text text-anchor="middle" x="517.34" y="-104.1" font-family="Times,serif" font-size="14.00">PausableUpgradeable</text>
<text text-anchor="middle" x="517.34" y="-87.3" font-family="Times,serif" font-size="14.00">lib/openzeppelin&#45;contracts&#45;upgradeable/contracts/security/PausableUpgradeable.sol</text>
</g>
<!-- 1&#45;&gt;13 -->
<g id="edge2" class="edge">
<title>1&#45;&gt;13</title>
<path fill="none" stroke="black" d="M517.34,-42.44C517.34,-44.49 517.34,-46.63 517.34,-48.83"/>
<polygon fill="none" stroke="black" points="506.84,-48.94 517.34,-78.94 527.84,-48.94 506.84,-48.94"/>
</g>
<!-- 14 -->
<g id="node5" class="node">
<title>14</title>
<polygon fill="#f2f2f2" stroke="black" points="765.25,-174.5 765.25,-232.9 1299.43,-232.9 1299.43,-174.5 765.25,-174.5"/>
<text text-anchor="middle" x="1032.34" y="-216.3" font-family="Times,serif" font-size="14.00">&lt;&lt;Abstract&gt;&gt;</text>
<text text-anchor="middle" x="1032.34" y="-199.5" font-family="Times,serif" font-size="14.00">ReentrancyGuardUpgradeable</text>
<text text-anchor="middle" x="1032.34" y="-182.7" font-family="Times,serif" font-size="14.00">lib/openzeppelin&#45;contracts&#45;upgradeable/contracts/security/ReentrancyGuardUpgradeable.sol</text>
</g>
<!-- 1&#45;&gt;14 -->
<g id="edge3" class="edge">
<title>1&#45;&gt;14</title>
<path fill="none" stroke="black" d="M605.25,-36.99C654.27,-46.41 716.02,-60.31 769.34,-78.6 833.66,-100.66 903.1,-133.86 954.47,-160.37"/>
<polygon fill="none" stroke="black" points="949.92,-169.84 981.36,-174.49 959.68,-151.25 949.92,-169.84"/>
</g>
<!-- 25 -->
<g id="node3" class="node">
<title>25</title>
<polygon fill="#f2f2f2" stroke="black" points="293.78,-269.9 293.78,-328.3 740.9,-328.3 740.9,-269.9 293.78,-269.9"/>
<text text-anchor="middle" x="517.34" y="-311.7" font-family="Times,serif" font-size="14.00">&lt;&lt;Abstract&gt;&gt;</text>
<text text-anchor="middle" x="517.34" y="-294.9" font-family="Times,serif" font-size="14.00">Initializable</text>
<text text-anchor="middle" x="517.34" y="-278.1" font-family="Times,serif" font-size="14.00">lib/openzeppelin&#45;contracts&#45;upgradeable/contracts/proxy/utils/Initializable.sol</text>
</g>
<!-- 13&#45;&gt;25 -->
<g id="edge4" class="edge">
<title>13&#45;&gt;25</title>
<path fill="none" stroke="black" d="M356,-137.58C320.23,-147.2 289.57,-159.32 278.34,-174 262.3,-194.97 262.3,-212.43 278.34,-233.4 286.37,-243.89 304.33,-253.08 326.98,-260.98"/>
<polygon fill="none" stroke="black" points="324.24,-271.12 356,-269.82 330.36,-251.03 324.24,-271.12"/>
</g>
<!-- 24 -->
<g id="node6" class="node">
<title>24</title>
<polygon fill="#f2f2f2" stroke="black" points="287.55,-174.5 287.55,-232.9 747.12,-232.9 747.12,-174.5 287.55,-174.5"/>
<text text-anchor="middle" x="517.34" y="-216.3" font-family="Times,serif" font-size="14.00">&lt;&lt;Abstract&gt;&gt;</text>
<text text-anchor="middle" x="517.34" y="-199.5" font-family="Times,serif" font-size="14.00">ContextUpgradeable</text>
<text text-anchor="middle" x="517.34" y="-182.7" font-family="Times,serif" font-size="14.00">lib/openzeppelin&#45;contracts&#45;upgradeable/contracts/utils/ContextUpgradeable.sol</text>
</g>
<!-- 13&#45;&gt;24 -->
<g id="edge5" class="edge">
<title>13&#45;&gt;24</title>
<path fill="none" stroke="black" d="M517.34,-137.58C517.34,-139.66 517.34,-141.8 517.34,-143.98"/>
<polygon fill="none" stroke="black" points="506.84,-144.2 517.34,-174.2 527.84,-144.2 506.84,-144.2"/>
</g>
<!-- 14&#45;&gt;25 -->
<g id="edge6" class="edge">
<title>14&#45;&gt;25</title>
<path fill="none" stroke="black" d="M876.77,-232.91C821.93,-242.86 759.73,-254.14 702.67,-264.49"/>
<polygon fill="none" stroke="black" points="700.57,-254.2 672.93,-269.88 704.32,-274.86 700.57,-254.2"/>
</g>
<!-- 24&#45;&gt;25 -->
<g id="edge7" class="edge">
<title>24&#45;&gt;25</title>
<path fill="none" stroke="black" d="M517.34,-232.98C517.34,-235.06 517.34,-237.2 517.34,-239.38"/>
<polygon fill="none" stroke="black" points="506.84,-239.6 517.34,-269.6 527.84,-239.6 506.84,-239.6"/>
</g>
</g>
</svg>
