<?xml version="1.0" encoding="UTF-8" standalone="no"?>
<!DOCTYPE svg PUBLIC "-//W3C//DTD SVG 1.1//EN"
 "http://www.w3.org/Graphics/SVG/1.1/DTD/svg11.dtd">
<!-- Generated by graphviz version 5.0.0 (20220707.1540)
 -->
<!-- Title: UmlClassDiagram Pages: 1 -->
<svg width="1333pt" height="337pt"
 viewBox="0.00 0.00 1332.62 336.80" xmlns="http://www.w3.org/2000/svg" xmlns:xlink="http://www.w3.org/1999/xlink">
<g id="graph0" class="graph" transform="scale(1 1) rotate(0) translate(4 332.8)">
<title>UmlClassDiagram</title>
<polygon fill="white" stroke="transparent" points="-4,4 -4,-332.8 1328.62,-332.8 1328.62,4 -4,4"/>
<!-- 0 -->
<g id="node1" class="node">
<title>0</title>
<polygon fill="#f2f2f2" stroke="black" points="324.83,-0.5 324.83,-42.1 513.85,-42.1 513.85,-0.5 324.83,-0.5"/>
<text text-anchor="middle" x="419.34" y="-25.5" font-family="Times,serif" font-size="14.00">PrimeStakedETH</text>
<text text-anchor="middle" x="419.34" y="-8.7" font-family="Times,serif" font-size="14.00">contracts/PrimeStakedETH.sol</text>
</g>
<!-- 2 -->
<g id="node2" class="node">
<title>2</title>
<polygon fill="#f2f2f2" stroke="black" points="0,-79.1 0,-137.5 256.68,-137.5 256.68,-79.1 0,-79.1"/>
<text text-anchor="middle" x="128.34" y="-120.9" font-family="Times,serif" font-size="14.00">&lt;&lt;Abstract&gt;&gt;</text>
<text text-anchor="middle" x="128.34" y="-104.1" font-family="Times,serif" font-size="14.00">LRTConfigRoleChecker</text>
<text text-anchor="middle" x="128.34" y="-87.3" font-family="Times,serif" font-size="14.00">contracts/utils/LRTConfigRoleChecker.sol</text>
</g>
<!-- 0&#45;&gt;2 -->
<g id="edge2" class="edge">
<title>0&#45;&gt;2</title>
<path fill="none" stroke="black" d="M351.48,-42.12C322.38,-50.62 287.43,-60.83 253.91,-70.62"/>
<polygon fill="none" stroke="black" points="250.86,-60.57 225.01,-79.06 256.75,-80.73 250.86,-60.57"/>
</g>
<!-- 11 -->
<g id="node3" class="node">
<title>11</title>
<polygon fill="#f2f2f2" stroke="black" points="459.78,-269.9 459.78,-328.3 906.9,-328.3 906.9,-269.9 459.78,-269.9"/>
<text text-anchor="middle" x="683.34" y="-311.7" font-family="Times,serif" font-size="14.00">&lt;&lt;Abstract&gt;&gt;</text>
<text text-anchor="middle" x="683.34" y="-294.9" font-family="Times,serif" font-size="14.00">Initializable</text>
<text text-anchor="middle" x="683.34" y="-278.1" font-family="Times,serif" font-size="14.00">lib/openzeppelin&#45;contracts&#45;upgradeable/contracts/proxy/utils/Initializable.sol</text>
</g>
<!-- 0&#45;&gt;11 -->
<g id="edge1" class="edge">
<title>0&#45;&gt;11</title>
<path fill="none" stroke="black" d="M347.33,-42.22C330,-50.58 313.56,-62.28 303.34,-78.6 289.33,-100.97 288.74,-116 303.34,-138 344.14,-199.46 413.66,-237.38 482.17,-260.75"/>
<polygon fill="none" stroke="black" points="479.1,-270.8 510.86,-269.76 485.38,-250.76 479.1,-270.8"/>
</g>
<!-- 4 -->
<g id="node4" class="node">
<title>4</title>
<polygon fill="#f2f2f2" stroke="black" points="312.74,-79.1 312.74,-137.5 797.94,-137.5 797.94,-79.1 312.74,-79.1"/>
<text text-anchor="middle" x="555.34" y="-120.9" font-family="Times,serif" font-size="14.00">&lt;&lt;Abstract&gt;&gt;</text>
<text text-anchor="middle" x="555.34" y="-104.1" font-family="Times,serif" font-size="14.00">PausableUpgradeable</text>
<text text-anchor="middle" x="555.34" y="-87.3" font-family="Times,serif" font-size="14.00">lib/openzeppelin&#45;contracts&#45;upgradeable/contracts/security/PausableUpgradeable.sol</text>
</g>
<!-- 0&#45;&gt;4 -->
<g id="edge4" class="edge">
<title>0&#45;&gt;4</title>
<path fill="none" stroke="black" d="M451.23,-42.23C461.21,-48.47 472.66,-55.62 484.23,-62.86"/>
<polygon fill="none" stroke="black" points="479,-71.97 510.01,-78.97 490.13,-54.16 479,-71.97"/>
</g>
<!-- 3 -->
<g id="node5" class="node">
<title>3</title>
<polygon fill="#f2f2f2" stroke="black" points="816.05,-87.5 816.05,-129.1 1324.62,-129.1 1324.62,-87.5 816.05,-87.5"/>
<text text-anchor="middle" x="1070.34" y="-112.5" font-family="Times,serif" font-size="14.00">ERC20Upgradeable</text>
<text text-anchor="middle" x="1070.34" y="-95.7" font-family="Times,serif" font-size="14.00">lib/openzeppelin&#45;contracts&#45;upgradeable/contracts/token/ERC20/ERC20Upgradeable.sol</text>
</g>
<!-- 0&#45;&gt;3 -->
<g id="edge3" class="edge">
<title>0&#45;&gt;3</title>
<path fill="none" stroke="black" d="M514,-34.66C611.88,-47.44 767.12,-67.71 888.78,-83.59"/>
<polygon fill="none" stroke="black" points="887.42,-94.01 918.53,-87.48 890.14,-73.18 887.42,-94.01"/>
</g>
<!-- 4&#45;&gt;11 -->
<g id="edge5" class="edge">
<title>4&#45;&gt;11</title>
<path fill="none" stroke="black" d="M552.79,-137.64C551.81,-164.52 554.22,-204.94 573.34,-233.4 577.9,-240.19 583.44,-246.37 589.57,-251.97"/>
<polygon fill="none" stroke="black" points="583.35,-260.43 613.72,-269.79 595.82,-243.53 583.35,-260.43"/>
</g>
<!-- 10 -->
<g id="node6" class="node">
<title>10</title>
<polygon fill="#f2f2f2" stroke="black" points="582.55,-174.5 582.55,-232.9 1042.12,-232.9 1042.12,-174.5 582.55,-174.5"/>
<text text-anchor="middle" x="812.34" y="-216.3" font-family="Times,serif" font-size="14.00">&lt;&lt;Abstract&gt;&gt;</text>
<text text-anchor="middle" x="812.34" y="-199.5" font-family="Times,serif" font-size="14.00">ContextUpgradeable</text>
<text text-anchor="middle" x="812.34" y="-182.7" font-family="Times,serif" font-size="14.00">lib/openzeppelin&#45;contracts&#45;upgradeable/contracts/utils/ContextUpgradeable.sol</text>
</g>
<!-- 4&#45;&gt;10 -->
<g id="edge6" class="edge">
<title>4&#45;&gt;10</title>
<path fill="none" stroke="black" d="M633.15,-137.58C656.06,-145.91 681.54,-155.16 705.93,-164.03"/>
<polygon fill="none" stroke="black" points="702.57,-173.98 734.36,-174.36 709.75,-154.24 702.57,-173.98"/>
</g>
<!-- 3&#45;&gt;11 -->
<g id="edge7" class="edge">
<title>3&#45;&gt;11</title>
<path fill="none" stroke="black" d="M1073.68,-129.12C1077.06,-156.5 1078.47,-205.66 1051.34,-233.4 1032.77,-252.38 988.45,-265.84 936.74,-275.37"/>
<polygon fill="none" stroke="black" points="934.79,-265.05 906.92,-280.33 938.24,-285.76 934.79,-265.05"/>
</g>
<!-- 3&#45;&gt;10 -->
<g id="edge8" class="edge">
<title>3&#45;&gt;10</title>
<path fill="none" stroke="black" d="M1015.62,-129.11C987.41,-139.32 952,-152.14 918.68,-164.2"/>
<polygon fill="none" stroke="black" points="915.1,-154.33 890.47,-174.42 922.25,-174.08 915.1,-154.33"/>
</g>
<!-- 10&#45;&gt;11 -->
<g id="edge9" class="edge">
<title>10&#45;&gt;11</title>
<path fill="none" stroke="black" d="M773.29,-232.98C765.03,-238.96 756.1,-245.42 747.2,-251.86"/>
<polygon fill="none" stroke="black" points="740.85,-243.5 722.71,-269.6 753.16,-260.51 740.85,-243.5"/>
</g>
</g>
</svg>
