<?xml version="1.0" encoding="UTF-8" standalone="no"?>
<!DOCTYPE svg PUBLIC "-//W3C//DTD SVG 1.1//EN"
 "http://www.w3.org/Graphics/SVG/1.1/DTD/svg11.dtd">
<!-- Generated by graphviz version 5.0.0 (20220707.1540)
 -->
<!-- Title: UmlClassDiagram Pages: 1 -->
<svg width="502pt" height="281pt"
 viewBox="0.00 0.00 501.85 280.80" xmlns="http://www.w3.org/2000/svg" xmlns:xlink="http://www.w3.org/1999/xlink">
<g id="graph0" class="graph" transform="scale(1 1) rotate(0) translate(4 276.8)">
<title>UmlClassDiagram</title>
<polygon fill="white" stroke="transparent" points="-4,4 -4,-276.8 497.85,-276.8 497.85,4 -4,4"/>
<!-- 4 -->
<g id="node1" class="node">
<title>4</title>
<polygon fill="#f2f2f2" stroke="black" points="0,-73.5 0,-115.1 154.41,-115.1 154.41,-73.5 0,-73.5"/>
<text text-anchor="middle" x="77.21" y="-98.5" font-family="Times,serif" font-size="14.00">&lt;&lt;Abstract&gt;&gt;</text>
<text text-anchor="middle" x="77.21" y="-81.7" font-family="Times,serif" font-size="14.00">LRTConfigRoleChecker</text>
</g>
<!-- 8 -->
<g id="node2" class="node">
<title>8</title>
<polygon fill="#f2f2f2" stroke="black" points="236.7,-230.7 236.7,-272.3 331.71,-272.3 331.71,-230.7 236.7,-230.7"/>
<text text-anchor="middle" x="284.21" y="-255.7" font-family="Times,serif" font-size="14.00">&lt;&lt;Abstract&gt;&gt;</text>
<text text-anchor="middle" x="284.21" y="-238.9" font-family="Times,serif" font-size="14.00">Initializable</text>
</g>
<!-- 9 -->
<g id="node3" class="node">
<title>9</title>
<polygon fill="#f2f2f2" stroke="black" points="265.28,-152.1 265.28,-193.7 397.13,-193.7 397.13,-152.1 265.28,-152.1"/>
<text text-anchor="middle" x="331.21" y="-177.1" font-family="Times,serif" font-size="14.00">&lt;&lt;Abstract&gt;&gt;</text>
<text text-anchor="middle" x="331.21" y="-160.3" font-family="Times,serif" font-size="14.00">ContextUpgradeable</text>
</g>
<!-- 9&#45;&gt;8 -->
<g id="edge1" class="edge">
<title>9&#45;&gt;8</title>
<path fill="none" stroke="black" d="M318.86,-194.03C316.75,-197.46 314.49,-201.14 312.17,-204.92"/>
<polygon fill="none" stroke="black" points="303.21,-199.45 296.47,-230.51 321.11,-210.43 303.21,-199.45"/>
</g>
<!-- 10 -->
<g id="node4" class="node">
<title>10</title>
<polygon fill="#f2f2f2" stroke="black" points="209.83,-76.3 209.83,-112.3 338.58,-112.3 338.58,-76.3 209.83,-76.3"/>
<text text-anchor="middle" x="274.21" y="-90.2" font-family="Times,serif" font-size="14.00">ERC20Upgradeable</text>
</g>
<!-- 10&#45;&gt;8 -->
<g id="edge2" class="edge">
<title>10&#45;&gt;8</title>
<path fill="none" stroke="black" d="M266.78,-112.56C259.23,-132.39 249.54,-165.83 256.21,-194.2 256.91,-197.19 257.8,-200.2 258.82,-203.19"/>
<polygon fill="none" stroke="black" points="249.32,-207.68 271.43,-230.51 268.39,-198.87 249.32,-207.68"/>
</g>
<!-- 10&#45;&gt;9 -->
<g id="edge3" class="edge">
<title>10&#45;&gt;9</title>
<path fill="none" stroke="black" d="M286.86,-112.3C290.33,-116.97 294.27,-122.26 298.33,-127.72"/>
<polygon fill="none" stroke="black" points="290.04,-134.17 316.37,-151.96 306.89,-121.63 290.04,-134.17"/>
</g>
<!-- 11 -->
<g id="node5" class="node">
<title>11</title>
<polygon fill="#f2f2f2" stroke="black" points="356.57,-73.5 356.57,-115.1 493.85,-115.1 493.85,-73.5 356.57,-73.5"/>
<text text-anchor="middle" x="425.21" y="-98.5" font-family="Times,serif" font-size="14.00">&lt;&lt;Abstract&gt;&gt;</text>
<text text-anchor="middle" x="425.21" y="-81.7" font-family="Times,serif" font-size="14.00">PausableUpgradeable</text>
</g>
<!-- 11&#45;&gt;8 -->
<g id="edge4" class="edge">
<title>11&#45;&gt;8</title>
<path fill="none" stroke="black" d="M426.45,-115.29C426.74,-136.96 423.99,-171.48 406.21,-194.2 394.37,-209.33 377.52,-220.55 360.11,-228.81"/>
<polygon fill="none" stroke="black" points="356.13,-219.09 332.01,-239.79 363.78,-238.65 356.13,-219.09"/>
</g>
<!-- 11&#45;&gt;9 -->
<g id="edge5" class="edge">
<title>11&#45;&gt;9</title>
<path fill="none" stroke="black" d="M400.51,-115.43C393.93,-120.79 386.58,-126.78 379.2,-132.79"/>
<polygon fill="none" stroke="black" points="372.36,-124.82 355.74,-151.91 385.63,-141.1 372.36,-124.82"/>
</g>
<!-- 12 -->
<g id="node6" class="node">
<title>12</title>
<polygon fill="#f2f2f2" stroke="black" points="198.04,-0.5 198.04,-36.5 258.38,-36.5 258.38,-0.5 198.04,-0.5"/>
<text text-anchor="middle" x="228.21" y="-14.4" font-family="Times,serif" font-size="14.00">RSETH</text>
</g>
<!-- 12&#45;&gt;4 -->
<g id="edge7" class="edge">
<title>12&#45;&gt;4</title>
<path fill="none" stroke="black" d="M198.01,-34.26C182.75,-41.72 163.57,-51.09 145.02,-60.16"/>
<polygon fill="none" stroke="black" points="140.28,-50.79 117.93,-73.4 149.5,-69.66 140.28,-50.79"/>
</g>
<!-- 12&#45;&gt;8 -->
<g id="edge6" class="edge">
<title>12&#45;&gt;8</title>
<path fill="none" stroke="black" d="M217.02,-36.53C211.04,-46.67 204.29,-60.04 201.21,-73 196.82,-91.42 196.05,-97.38 201.21,-115.6 210.51,-148.46 230.31,-181.18 248.25,-206.17"/>
<polygon fill="none" stroke="black" points="240.14,-212.85 266.71,-230.29 256.81,-200.08 240.14,-212.85"/>
</g>
<!-- 12&#45;&gt;10 -->
<g id="edge8" class="edge">
<title>12&#45;&gt;10</title>
<path fill="none" stroke="black" d="M238.88,-36.62C241.55,-40.9 244.53,-45.69 247.61,-50.62"/>
<polygon fill="none" stroke="black" points="238.82,-56.37 263.6,-76.28 256.64,-45.26 238.82,-56.37"/>
</g>
<!-- 12&#45;&gt;11 -->
<g id="edge9" class="edge">
<title>12&#45;&gt;11</title>
<path fill="none" stroke="black" d="M258.56,-30.87C281.34,-39.4 313.66,-51.51 343.79,-62.8"/>
<polygon fill="none" stroke="black" points="340.4,-72.74 372.18,-73.43 347.77,-53.08 340.4,-72.74"/>
</g>
</g>
</svg>
