<?xml version="1.0" encoding="UTF-8" standalone="no"?>
<!DOCTYPE svg PUBLIC "-//W3C//DTD SVG 1.1//EN"
 "http://www.w3.org/Graphics/SVG/1.1/DTD/svg11.dtd">
<!-- Generated by graphviz version 5.0.0 (20220707.1540)
 -->
<!-- Title: StorageDiagram Pages: 1 -->
<svg width="1802pt" height="454pt"
 viewBox="0.00 0.00 1801.87 454.20" xmlns="http://www.w3.org/2000/svg" xmlns:xlink="http://www.w3.org/1999/xlink">
<g id="graph0" class="graph" transform="scale(1 1) rotate(0) translate(4 450.2)">
<title>StorageDiagram</title>
<polygon fill="white" stroke="transparent" points="-4,4 -4,-450.2 1797.87,-450.2 1797.87,4 -4,4"/>
<!-- 4 -->
<g id="node1" class="node">
<title>4</title>
<polygon fill="#f2f2f2" stroke="black" points="0,-81.7 0,-445.7 878.93,-445.7 878.93,-81.7 0,-81.7"/>
<text text-anchor="middle" x="439.47" y="-429.1" font-family="Courier New" font-size="14.00">Slasher &lt;&lt;Contract&gt;&gt;</text>
<text text-anchor="middle" x="439.47" y="-412.3" font-family="Courier New" font-size="14.00">0xef31c292801f24f16479DD83197F1E6AeBb8d6d8</text>
<polyline fill="none" stroke="black" points="0,-404.1 878.93,-404.1 "/>
<text text-anchor="middle" x="37.4" y="-387.5" font-family="Courier New" font-size="14.00">slot</text>
<polyline fill="none" stroke="black" points="0,-379.3 74.81,-379.3 "/>
<text text-anchor="middle" x="37.4" y="-362.7" font-family="Courier New" font-size="14.00">0</text>
<polyline fill="none" stroke="black" points="0,-354.5 74.81,-354.5 "/>
<text text-anchor="middle" x="37.4" y="-337.9" font-family="Courier New" font-size="14.00">1&#45;50</text>
<polyline fill="none" stroke="black" points="0,-329.7 74.81,-329.7 "/>
<text text-anchor="middle" x="37.4" y="-313.1" font-family="Courier New" font-size="14.00">51</text>
<polyline fill="none" stroke="black" points="0,-304.9 74.81,-304.9 "/>
<text text-anchor="middle" x="37.4" y="-288.3" font-family="Courier New" font-size="14.00">52&#45;100</text>
<polyline fill="none" stroke="black" points="0,-280.1 74.81,-280.1 "/>
<text text-anchor="middle" x="37.4" y="-263.5" font-family="Courier New" font-size="14.00">101</text>
<polyline fill="none" stroke="black" points="0,-255.3 74.81,-255.3 "/>
<text text-anchor="middle" x="37.4" y="-238.7" font-family="Courier New" font-size="14.00">102</text>
<polyline fill="none" stroke="black" points="0,-230.5 74.81,-230.5 "/>
<text text-anchor="middle" x="37.4" y="-213.9" font-family="Courier New" font-size="14.00">103&#45;150</text>
<polyline fill="none" stroke="black" points="0,-205.7 74.81,-205.7 "/>
<text text-anchor="middle" x="37.4" y="-189.1" font-family="Courier New" font-size="14.00">151</text>
<polyline fill="none" stroke="black" points="0,-180.9 74.81,-180.9 "/>
<text text-anchor="middle" x="37.4" y="-164.3" font-family="Courier New" font-size="14.00">152</text>
<polyline fill="none" stroke="black" points="0,-156.1 74.81,-156.1 "/>
<text text-anchor="middle" x="37.4" y="-139.5" font-family="Courier New" font-size="14.00">153</text>
<polyline fill="none" stroke="black" points="0,-131.3 74.81,-131.3 "/>
<text text-anchor="middle" x="37.4" y="-114.7" font-family="Courier New" font-size="14.00">154</text>
<polyline fill="none" stroke="black" points="0,-106.5 74.81,-106.5 "/>
<text text-anchor="middle" x="37.4" y="-89.9" font-family="Courier New" font-size="14.00">155&#45;200</text>
<polyline fill="none" stroke="black" points="74.81,-81.7 74.81,-404.1 "/>
<text text-anchor="middle" x="476.87" y="-387.5" font-family="Courier New" font-size="14.00">type: &lt;inherited contract&gt;.variable (bytes)</text>
<polyline fill="none" stroke="black" points="74.81,-379.3 878.93,-379.3 "/>
<text text-anchor="middle" x="150.02" y="-362.7" font-family="Courier New" font-size="14.00">unallocated (30)</text>
<polyline fill="none" stroke="black" points="225.23,-354.5 225.23,-379.3 "/>
<text text-anchor="middle" x="388.66" y="-362.7" font-family="Courier New" font-size="14.00">bool: Initializable._initializing (1)</text>
<polyline fill="none" stroke="black" points="552.08,-354.5 552.08,-379.3 "/>
<text text-anchor="middle" x="715.51" y="-362.7" font-family="Courier New" font-size="14.00">uint8: Initializable._initialized (1)</text>
<polyline fill="none" stroke="black" points="74.81,-354.5 878.93,-354.5 "/>
<text text-anchor="middle" x="476.64" y="-337.9" font-family="Courier New" font-size="14.00">uint256[50]: ContextUpgradeable.__gap (1600)</text>
<polyline fill="none" stroke="black" points="74.81,-329.7 878.93,-329.7 "/>
<text text-anchor="middle" x="227.52" y="-313.1" font-family="Courier New" font-size="14.00">unallocated (12)</text>
<polyline fill="none" stroke="black" points="380.23,-304.9 380.23,-329.7 "/>
<text text-anchor="middle" x="629.56" y="-313.1" font-family="Courier New" font-size="14.00">address: OwnableUpgradeable._owner (20)</text>
<polyline fill="none" stroke="black" points="74.81,-304.9 878.93,-304.9 "/>
<text text-anchor="middle" x="476.64" y="-288.3" font-family="Courier New" font-size="14.00">uint256[49]: OwnableUpgradeable.__gap (1568)</text>
<polyline fill="none" stroke="black" points="74.81,-280.1 878.93,-280.1 "/>
<text text-anchor="middle" x="214.52" y="-263.5" font-family="Courier New" font-size="14.00">unallocated (12)</text>
<polyline fill="none" stroke="black" points="354.23,-255.3 354.23,-280.1 "/>
<text text-anchor="middle" x="616.26" y="-263.5" font-family="Courier New" font-size="14.00">IPauserRegistry: Pausable.pauserRegistry (20)</text>
<polyline fill="none" stroke="black" points="74.81,-255.3 878.93,-255.3 "/>
<text text-anchor="middle" x="476.83" y="-238.7" font-family="Courier New" font-size="14.00">uint256: Pausable._paused (32)</text>
<polyline fill="none" stroke="black" points="74.81,-230.5 878.93,-230.5 "/>
<text text-anchor="middle" x="476.63" y="-213.9" font-family="Courier New" font-size="14.00">uint256[48]: Pausable.__gap (1536)</text>
<polyline fill="none" stroke="black" points="74.81,-205.7 878.93,-205.7 "/>
<text text-anchor="middle" x="476.77" y="-189.1" font-family="Courier New" font-size="14.00">mapping(address=&gt;mapping(address=&gt;MiddlewareDetails)): _whitelistedContractDetails (32)</text>
<polyline fill="none" stroke="black" points="74.81,-180.9 878.93,-180.9 "/>
<text text-anchor="middle" x="476.54" y="-164.3" font-family="Courier New" font-size="14.00">mapping(address=&gt;bool): frozenStatus (32)</text>
<polyline fill="none" stroke="black" points="74.81,-156.1 878.93,-156.1 "/>
<text text-anchor="middle" x="476.67" y="-139.5" font-family="Courier New" font-size="14.00">mapping(address=&gt;StructuredLinkedList.List): _operatorToWhitelistedContractsByUpdate (32)</text>
<polyline fill="none" stroke="black" points="74.81,-131.3 878.93,-131.3 "/>
<text text-anchor="middle" x="476.46" y="-114.7" font-family="Courier New" font-size="14.00">mapping(address=&gt;MiddlewareTimes[]): _operatorToMiddlewareTimes (32)</text>
<polyline fill="none" stroke="black" points="74.81,-106.5 878.93,-106.5 "/>
<text text-anchor="middle" x="476.83" y="-89.9" font-family="Courier New" font-size="14.00">uint256[46]: __gap (1472)</text>
</g>
<!-- 1 -->
<g id="node2" class="node">
<title>1</title>
<polygon fill="#f2f2f2" stroke="black" points="914.93,-212.5 914.93,-286.9 1793.87,-286.9 1793.87,-212.5 914.93,-212.5"/>
<text text-anchor="middle" x="1354.4" y="-270.3" font-family="Courier New" font-size="14.00">MiddlewareDetails &lt;&lt;Struct&gt;&gt;</text>
<polyline fill="none" stroke="black" points="914.93,-262.1 1793.87,-262.1 "/>
<text text-anchor="middle" x="948.14" y="-245.5" font-family="Courier New" font-size="14.00">offset</text>
<polyline fill="none" stroke="black" points="914.93,-237.3 981.34,-237.3 "/>
<text text-anchor="middle" x="948.14" y="-220.7" font-family="Courier New" font-size="14.00">0</text>
<polyline fill="none" stroke="black" points="981.34,-212.5 981.34,-262.1 "/>
<text text-anchor="middle" x="1387.6" y="-245.5" font-family="Courier New" font-size="14.00">type: variable (bytes)</text>
<polyline fill="none" stroke="black" points="981.34,-237.3 1793.87,-237.3 "/>
<text text-anchor="middle" x="1056.55" y="-220.7" font-family="Courier New" font-size="14.00">unallocated (24)</text>
<polyline fill="none" stroke="black" points="1131.76,-212.5 1131.76,-237.3 "/>
<text text-anchor="middle" x="1261.58" y="-220.7" font-family="Courier New" font-size="14.00">uint32: latestUpdateBlock (4)</text>
<polyline fill="none" stroke="black" points="1391.4,-212.5 1391.4,-237.3 "/>
<text text-anchor="middle" x="1592.63" y="-220.7" font-family="Courier New" font-size="14.00">uint32: contractCanSlashOperatorUntilBlock (4)</text>
</g>
<!-- 4&#45;&gt;1 -->
<g id="edge1" class="edge">
<title>4:11&#45;&gt;1</title>
<path fill="none" stroke="black" d="M878.93,-193.7C895.43,-193.7 898.69,-199.81 914.93,-202.7 931.32,-205.61 948.08,-208.37 965.03,-210.97"/>
<polygon fill="black" stroke="black" points="964.63,-214.45 975.04,-212.49 965.68,-207.53 964.63,-214.45"/>
</g>
<!-- 2 -->
<g id="node3" class="node">
<title>2</title>
<polygon fill="#f2f2f2" stroke="black" points="1098.96,-94.1 1098.96,-193.3 1609.84,-193.3 1609.84,-94.1 1098.96,-94.1"/>
<text text-anchor="middle" x="1354.4" y="-176.7" font-family="Courier New" font-size="14.00">List &lt;&lt;Struct&gt;&gt;</text>
<polyline fill="none" stroke="black" points="1098.96,-168.5 1609.84,-168.5 "/>
<text text-anchor="middle" x="1132.16" y="-151.9" font-family="Courier New" font-size="14.00">offset</text>
<polyline fill="none" stroke="black" points="1098.96,-143.7 1165.37,-143.7 "/>
<text text-anchor="middle" x="1132.16" y="-127.1" font-family="Courier New" font-size="14.00">0</text>
<polyline fill="none" stroke="black" points="1098.96,-118.9 1165.37,-118.9 "/>
<text text-anchor="middle" x="1132.16" y="-102.3" font-family="Courier New" font-size="14.00">1</text>
<polyline fill="none" stroke="black" points="1165.37,-94.1 1165.37,-168.5 "/>
<text text-anchor="middle" x="1387.6" y="-151.9" font-family="Courier New" font-size="14.00">type: variable (bytes)</text>
<polyline fill="none" stroke="black" points="1165.37,-143.7 1609.84,-143.7 "/>
<text text-anchor="middle" x="1387.48" y="-127.1" font-family="Courier New" font-size="14.00">uint256: size (32)</text>
<polyline fill="none" stroke="black" points="1165.37,-118.9 1609.84,-118.9 "/>
<text text-anchor="middle" x="1387.6" y="-102.3" font-family="Courier New" font-size="14.00">mapping(uint256=&gt;mapping(bool=&gt;uint256)): list (32)</text>
</g>
<!-- 4&#45;&gt;2 -->
<g id="edge2" class="edge">
<title>4:15&#45;&gt;2</title>
<path fill="none" stroke="black" d="M878.93,-143.7C946.94,-143.7 1020.44,-143.7 1088.8,-143.7"/>
<polygon fill="black" stroke="black" points="1088.85,-147.2 1098.85,-143.7 1088.85,-140.2 1088.85,-147.2"/>
</g>
<!-- 3 -->
<g id="node4" class="node">
<title>3</title>
<polygon fill="#f2f2f2" stroke="black" points="965.34,-0.5 965.34,-74.9 1743.46,-74.9 1743.46,-0.5 965.34,-0.5"/>
<text text-anchor="middle" x="1354.4" y="-58.3" font-family="Courier New" font-size="14.00">MiddlewareTimes &lt;&lt;Struct&gt;&gt;</text>
<polyline fill="none" stroke="black" points="965.34,-50.1 1743.46,-50.1 "/>
<text text-anchor="middle" x="998.54" y="-33.5" font-family="Courier New" font-size="14.00">offset</text>
<polyline fill="none" stroke="black" points="965.34,-25.3 1031.75,-25.3 "/>
<text text-anchor="middle" x="998.54" y="-8.7" font-family="Courier New" font-size="14.00">0</text>
<polyline fill="none" stroke="black" points="1031.75,-0.5 1031.75,-50.1 "/>
<text text-anchor="middle" x="1387.6" y="-33.5" font-family="Courier New" font-size="14.00">type: variable (bytes)</text>
<polyline fill="none" stroke="black" points="1031.75,-25.3 1743.46,-25.3 "/>
<text text-anchor="middle" x="1106.96" y="-8.7" font-family="Courier New" font-size="14.00">unallocated (24)</text>
<polyline fill="none" stroke="black" points="1182.17,-0.5 1182.17,-25.3 "/>
<text text-anchor="middle" x="1328.79" y="-8.7" font-family="Courier New" font-size="14.00">uint32: latestServeUntilBlock (4)</text>
<polyline fill="none" stroke="black" points="1475.42,-0.5 1475.42,-25.3 "/>
<text text-anchor="middle" x="1609.44" y="-8.7" font-family="Courier New" font-size="14.00">uint32: stalestUpdateBlock (4)</text>
</g>
<!-- 4&#45;&gt;3 -->
<g id="edge3" class="edge">
<title>4:18&#45;&gt;3</title>
<path fill="none" stroke="black" d="M878.93,-118.7C900.94,-118.7 894.94,-93.91 914.93,-84.7 928.07,-78.65 941.65,-73.23 955.55,-68.39"/>
<polygon fill="black" stroke="black" points="956.86,-71.64 965.21,-65.13 954.62,-65.01 956.86,-71.64"/>
</g>
</g>
</svg>
