<?xml version="1.0" encoding="UTF-8" standalone="no"?>
<!DOCTYPE svg PUBLIC "-//W3C//DTD SVG 1.1//EN"
 "http://www.w3.org/Graphics/SVG/1.1/DTD/svg11.dtd">
<!-- Generated by graphviz version 5.0.0 (20220707.1540)
 -->
<!-- Title: StorageDiagram Pages: 1 -->
<svg width="2533pt" height="564pt"
 viewBox="0.00 0.00 2532.78 563.60" xmlns="http://www.w3.org/2000/svg" xmlns:xlink="http://www.w3.org/1999/xlink">
<g id="graph0" class="graph" transform="scale(1 1) rotate(0) translate(4 559.6)">
<title>StorageDiagram</title>
<polygon fill="white" stroke="transparent" points="-4,4 -4,-559.6 2528.78,-559.6 2528.78,4 -4,4"/>
<!-- 4 -->
<g id="node1" class="node">
<title>4</title>
<polygon fill="#f2f2f2" stroke="black" points="0,-107.1 0,-555.1 1551.84,-555.1 1551.84,-107.1 0,-107.1"/>
<text text-anchor="middle" x="775.92" y="-538.5" font-family="Courier New" font-size="14.00">Slasher &lt;&lt;Contract&gt;&gt;</text>
<text text-anchor="middle" x="775.92" y="-521.7" font-family="Courier New" font-size="14.00">0xef31c292801f24f16479DD83197F1E6AeBb8d6d8</text>
<polyline fill="none" stroke="black" points="0,-513.5 1551.84,-513.5 "/>
<text text-anchor="middle" x="41.61" y="-496.9" font-family="Courier New" font-size="14.00">slot</text>
<text text-anchor="middle" x="41.61" y="-480.1" font-family="Courier New" font-size="14.00"> &#160;</text>
<polyline fill="none" stroke="black" points="0,-471.9 83.21,-471.9 "/>
<text text-anchor="middle" x="41.61" y="-455.3" font-family="Courier New" font-size="14.00">0</text>
<text text-anchor="middle" x="41.61" y="-438.5" font-family="Courier New" font-size="14.00"> &#160;</text>
<polyline fill="none" stroke="black" points="0,-430.3 83.21,-430.3 "/>
<text text-anchor="middle" x="41.61" y="-413.7" font-family="Courier New" font-size="14.00">1&#45;50 </text>
<polyline fill="none" stroke="black" points="0,-405.5 83.21,-405.5 "/>
<text text-anchor="middle" x="41.61" y="-388.9" font-family="Courier New" font-size="14.00">51</text>
<text text-anchor="middle" x="41.61" y="-372.1" font-family="Courier New" font-size="14.00"> &#160;</text>
<polyline fill="none" stroke="black" points="0,-363.9 83.21,-363.9 "/>
<text text-anchor="middle" x="41.61" y="-347.3" font-family="Courier New" font-size="14.00">52&#45;100 </text>
<polyline fill="none" stroke="black" points="0,-339.1 83.21,-339.1 "/>
<text text-anchor="middle" x="41.61" y="-322.5" font-family="Courier New" font-size="14.00">101</text>
<text text-anchor="middle" x="41.61" y="-305.7" font-family="Courier New" font-size="14.00"> &#160;</text>
<polyline fill="none" stroke="black" points="0,-297.5 83.21,-297.5 "/>
<text text-anchor="middle" x="41.61" y="-280.9" font-family="Courier New" font-size="14.00">102</text>
<text text-anchor="middle" x="41.61" y="-264.1" font-family="Courier New" font-size="14.00"> &#160;</text>
<polyline fill="none" stroke="black" points="0,-255.9 83.21,-255.9 "/>
<text text-anchor="middle" x="41.61" y="-239.3" font-family="Courier New" font-size="14.00">103&#45;150 </text>
<polyline fill="none" stroke="black" points="0,-231.1 83.21,-231.1 "/>
<text text-anchor="middle" x="41.61" y="-214.5" font-family="Courier New" font-size="14.00">151 </text>
<polyline fill="none" stroke="black" points="0,-206.3 83.21,-206.3 "/>
<text text-anchor="middle" x="41.61" y="-189.7" font-family="Courier New" font-size="14.00">152 </text>
<polyline fill="none" stroke="black" points="0,-181.5 83.21,-181.5 "/>
<text text-anchor="middle" x="41.61" y="-164.9" font-family="Courier New" font-size="14.00">153 </text>
<polyline fill="none" stroke="black" points="0,-156.7 83.21,-156.7 "/>
<text text-anchor="middle" x="41.61" y="-140.1" font-family="Courier New" font-size="14.00">154 </text>
<polyline fill="none" stroke="black" points="0,-131.9 83.21,-131.9 "/>
<text text-anchor="middle" x="41.61" y="-115.3" font-family="Courier New" font-size="14.00">155&#45;200</text>
<polyline fill="none" stroke="black" points="83.21,-107.1 83.21,-513.5 "/>
<text text-anchor="middle" x="368.46" y="-496.9" font-family="Courier New" font-size="14.00">value</text>
<text text-anchor="middle" x="368.46" y="-480.1" font-family="Courier New" font-size="14.00"> &#160;</text>
<polyline fill="none" stroke="black" points="83.21,-471.9 653.7,-471.9 "/>
<text text-anchor="middle" x="368.46" y="-455.3" font-family="Courier New" font-size="14.00">0x0000000000000000000000000000000000000000000000000000000000000001</text>
<text text-anchor="middle" x="368.46" y="-438.5" font-family="Courier New" font-size="14.00"> &#160;</text>
<polyline fill="none" stroke="black" points="83.21,-430.3 653.7,-430.3 "/>
<text text-anchor="middle" x="368.46" y="-413.7" font-family="Courier New" font-size="14.00"> </text>
<polyline fill="none" stroke="black" points="83.21,-405.5 653.7,-405.5 "/>
<text text-anchor="middle" x="368.46" y="-388.9" font-family="Courier New" font-size="14.00">0x000000000000000000000000369E6F597E22EAB55FFB173C6D9CD234BD699111</text>
<text text-anchor="middle" x="368.46" y="-372.1" font-family="Courier New" font-size="14.00"> &#160;</text>
<polyline fill="none" stroke="black" points="83.21,-363.9 653.7,-363.9 "/>
<text text-anchor="middle" x="368.46" y="-347.3" font-family="Courier New" font-size="14.00"> </text>
<polyline fill="none" stroke="black" points="83.21,-339.1 653.7,-339.1 "/>
<text text-anchor="middle" x="368.46" y="-322.5" font-family="Courier New" font-size="14.00">0x0000000000000000000000000C431C66F4DE941D089625E5B423D00707977060</text>
<text text-anchor="middle" x="368.46" y="-305.7" font-family="Courier New" font-size="14.00"> &#160;</text>
<polyline fill="none" stroke="black" points="83.21,-297.5 653.7,-297.5 "/>
<text text-anchor="middle" x="368.46" y="-280.9" font-family="Courier New" font-size="14.00">0xFFFFFFFFFFFFFFFFFFFFFFFFFFFFFFFFFFFFFFFFFFFFFFFFFFFFFFFFFFFFFFFF</text>
<text text-anchor="middle" x="368.46" y="-264.1" font-family="Courier New" font-size="14.00"> &#160;</text>
<polyline fill="none" stroke="black" points="83.21,-255.9 653.7,-255.9 "/>
<text text-anchor="middle" x="368.46" y="-239.3" font-family="Courier New" font-size="14.00"> </text>
<polyline fill="none" stroke="black" points="83.21,-231.1 653.7,-231.1 "/>
<text text-anchor="middle" x="368.46" y="-214.5" font-family="Courier New" font-size="14.00"> </text>
<polyline fill="none" stroke="black" points="83.21,-206.3 653.7,-206.3 "/>
<text text-anchor="middle" x="368.46" y="-189.7" font-family="Courier New" font-size="14.00"> </text>
<polyline fill="none" stroke="black" points="83.21,-181.5 653.7,-181.5 "/>
<text text-anchor="middle" x="368.46" y="-164.9" font-family="Courier New" font-size="14.00"> </text>
<polyline fill="none" stroke="black" points="83.21,-156.7 653.7,-156.7 "/>
<text text-anchor="middle" x="368.46" y="-140.1" font-family="Courier New" font-size="14.00"> </text>
<polyline fill="none" stroke="black" points="83.21,-131.9 653.7,-131.9 "/>
<text text-anchor="middle" x="368.46" y="-115.3" font-family="Courier New" font-size="14.00"> </text>
<polyline fill="none" stroke="black" points="653.7,-107.1 653.7,-513.5 "/>
<text text-anchor="middle" x="1102.77" y="-496.9" font-family="Courier New" font-size="14.00">type: &lt;inherited contract&gt;.variable (bytes)</text>
<text text-anchor="middle" x="1102.77" y="-480.1" font-family="Courier New" font-size="14.00">decoded data</text>
<polyline fill="none" stroke="black" points="653.7,-471.9 1551.84,-471.9 "/>
<text text-anchor="middle" x="744.41" y="-446.9" font-family="Courier New" font-size="14.00">unallocated (30)</text>
<polyline fill="none" stroke="black" points="835.12,-430.3 835.12,-471.9 "/>
<text text-anchor="middle" x="1014.05" y="-455.3" font-family="Courier New" font-size="14.00">bool: Initializable._initializing (1)</text>
<text text-anchor="middle" x="1014.05" y="-438.5" font-family="Courier New" font-size="14.00"> false &#160;</text>
<polyline fill="none" stroke="black" points="1192.97,-430.3 1192.97,-471.9 "/>
<text text-anchor="middle" x="1372.4" y="-455.3" font-family="Courier New" font-size="14.00">uint8: Initializable._initialized (1)</text>
<text text-anchor="middle" x="1372.4" y="-438.5" font-family="Courier New" font-size="14.00"> 1 </text>
<polyline fill="none" stroke="black" points="653.7,-430.3 1551.84,-430.3 "/>
<text text-anchor="middle" x="1102.53" y="-413.7" font-family="Courier New" font-size="14.00">uint256[50]: ContextUpgradeable.__gap (1600)</text>
<polyline fill="none" stroke="black" points="653.7,-405.5 1551.84,-405.5 "/>
<text text-anchor="middle" x="819.41" y="-380.5" font-family="Courier New" font-size="14.00">unallocated (12)</text>
<polyline fill="none" stroke="black" points="985.12,-363.9 985.12,-405.5 "/>
<text text-anchor="middle" x="1268.45" y="-388.9" font-family="Courier New" font-size="14.00">address: OwnableUpgradeable._owner (20)</text>
<text text-anchor="middle" x="1268.45" y="-372.1" font-family="Courier New" font-size="14.00"> 0x369e6F597e22EaB55fFb173C6d9cD234BD699111 </text>
<polyline fill="none" stroke="black" points="653.7,-363.9 1551.84,-363.9 "/>
<text text-anchor="middle" x="1102.53" y="-347.3" font-family="Courier New" font-size="14.00">uint256[49]: OwnableUpgradeable.__gap (1568)</text>
<polyline fill="none" stroke="black" points="653.7,-339.1 1551.84,-339.1 "/>
<text text-anchor="middle" x="816.91" y="-314.1" font-family="Courier New" font-size="14.00">unallocated (12)</text>
<polyline fill="none" stroke="black" points="980.12,-297.5 980.12,-339.1 "/>
<text text-anchor="middle" x="1265.65" y="-322.5" font-family="Courier New" font-size="14.00">IPauserRegistry: Pausable.pauserRegistry (20)</text>
<text text-anchor="middle" x="1265.65" y="-305.7" font-family="Courier New" font-size="14.00"> 0x0c431C66F4dE941d089625E5B423D00707977060 </text>
<polyline fill="none" stroke="black" points="653.7,-297.5 1551.84,-297.5 "/>
<text text-anchor="middle" x="1102.77" y="-280.9" font-family="Courier New" font-size="14.00">uint256: Pausable._paused (32)</text>
<text text-anchor="middle" x="1102.77" y="-264.1" font-family="Courier New" font-size="14.00"> 115,792,089,237,316,195,423,570,985,008,687,907,853,269,984,665,640,564,039,457,584,007,913,129,639,935 </text>
<polyline fill="none" stroke="black" points="653.7,-255.9 1551.84,-255.9 "/>
<text text-anchor="middle" x="1102.52" y="-239.3" font-family="Courier New" font-size="14.00">uint256[48]: Pausable.__gap (1536)</text>
<polyline fill="none" stroke="black" points="653.7,-231.1 1551.84,-231.1 "/>
<text text-anchor="middle" x="1102.66" y="-214.5" font-family="Courier New" font-size="14.00">mapping(address=&gt;mapping(address=&gt;MiddlewareDetails)): _whitelistedContractDetails (32)</text>
<polyline fill="none" stroke="black" points="653.7,-206.3 1551.84,-206.3 "/>
<text text-anchor="middle" x="1102.43" y="-189.7" font-family="Courier New" font-size="14.00">mapping(address=&gt;bool): frozenStatus (32)</text>
<polyline fill="none" stroke="black" points="653.7,-181.5 1551.84,-181.5 "/>
<text text-anchor="middle" x="1102.56" y="-164.9" font-family="Courier New" font-size="14.00">mapping(address=&gt;StructuredLinkedList.List): _operatorToWhitelistedContractsByUpdate (32)</text>
<polyline fill="none" stroke="black" points="653.7,-156.7 1551.84,-156.7 "/>
<text text-anchor="middle" x="1102.35" y="-140.1" font-family="Courier New" font-size="14.00">mapping(address=&gt;MiddlewareTimes[]): _operatorToMiddlewareTimes (32)</text>
<polyline fill="none" stroke="black" points="653.7,-131.9 1551.84,-131.9 "/>
<text text-anchor="middle" x="1102.72" y="-115.3" font-family="Courier New" font-size="14.00">uint256[46]: __gap (1472)</text>
</g>
<!-- 1 -->
<g id="node2" class="node">
<title>1</title>
<polygon fill="#f2f2f2" stroke="black" points="1587.84,-246.5 1587.84,-337.7 2524.78,-337.7 2524.78,-246.5 1587.84,-246.5"/>
<text text-anchor="middle" x="2056.31" y="-321.1" font-family="Courier New" font-size="14.00">MiddlewareDetails &lt;&lt;Struct&gt;&gt;</text>
<polyline fill="none" stroke="black" points="1587.84,-312.9 2524.78,-312.9 "/>
<text text-anchor="middle" x="1621.05" y="-296.3" font-family="Courier New" font-size="14.00">offset</text>
<text text-anchor="middle" x="1621.05" y="-279.5" font-family="Courier New" font-size="14.00"> &#160;</text>
<polyline fill="none" stroke="black" points="1587.84,-271.3 1654.25,-271.3 "/>
<text text-anchor="middle" x="1621.05" y="-254.7" font-family="Courier New" font-size="14.00">0</text>
<polyline fill="none" stroke="black" points="1654.25,-246.5 1654.25,-312.9 "/>
<text text-anchor="middle" x="1683.26" y="-296.3" font-family="Courier New" font-size="14.00">value</text>
<text text-anchor="middle" x="1683.26" y="-279.5" font-family="Courier New" font-size="14.00"> &#160;</text>
<polyline fill="none" stroke="black" points="1654.25,-271.3 1712.26,-271.3 "/>
<text text-anchor="middle" x="1683.26" y="-254.7" font-family="Courier New" font-size="14.00"> </text>
<polyline fill="none" stroke="black" points="1712.26,-246.5 1712.26,-312.9 "/>
<text text-anchor="middle" x="2118.52" y="-296.3" font-family="Courier New" font-size="14.00">type: variable (bytes)</text>
<text text-anchor="middle" x="2118.52" y="-279.5" font-family="Courier New" font-size="14.00">decoded data</text>
<polyline fill="none" stroke="black" points="1712.26,-271.3 2524.78,-271.3 "/>
<text text-anchor="middle" x="1787.47" y="-254.7" font-family="Courier New" font-size="14.00">unallocated (24)</text>
<polyline fill="none" stroke="black" points="1862.68,-246.5 1862.68,-271.3 "/>
<text text-anchor="middle" x="1992.5" y="-254.7" font-family="Courier New" font-size="14.00">uint32: latestUpdateBlock (4)</text>
<polyline fill="none" stroke="black" points="2122.32,-246.5 2122.32,-271.3 "/>
<text text-anchor="middle" x="2323.55" y="-254.7" font-family="Courier New" font-size="14.00">uint32: contractCanSlashOperatorUntilBlock (4)</text>
</g>
<!-- 4&#45;&gt;1 -->
<g id="edge1" class="edge">
<title>4:11&#45;&gt;1</title>
<path fill="none" stroke="black" d="M1551.84,-219.1C1569.73,-219.1 1570.71,-231.98 1587.84,-237.1 1595.71,-239.45 1603.67,-241.7 1611.72,-243.85"/>
<polygon fill="black" stroke="black" points="1611.01,-247.29 1621.58,-246.43 1612.79,-240.52 1611.01,-247.29"/>
</g>
<!-- 2 -->
<g id="node3" class="node">
<title>2</title>
<polygon fill="#f2f2f2" stroke="black" points="1771.87,-111.1 1771.87,-227.1 2340.76,-227.1 2340.76,-111.1 1771.87,-111.1"/>
<text text-anchor="middle" x="2056.31" y="-210.5" font-family="Courier New" font-size="14.00">List &lt;&lt;Struct&gt;&gt;</text>
<polyline fill="none" stroke="black" points="1771.87,-202.3 2340.76,-202.3 "/>
<text text-anchor="middle" x="1805.08" y="-185.7" font-family="Courier New" font-size="14.00">offset</text>
<text text-anchor="middle" x="1805.08" y="-168.9" font-family="Courier New" font-size="14.00"> &#160;</text>
<polyline fill="none" stroke="black" points="1771.87,-160.7 1838.28,-160.7 "/>
<text text-anchor="middle" x="1805.08" y="-144.1" font-family="Courier New" font-size="14.00">0 </text>
<polyline fill="none" stroke="black" points="1771.87,-135.9 1838.28,-135.9 "/>
<text text-anchor="middle" x="1805.08" y="-119.3" font-family="Courier New" font-size="14.00">1</text>
<polyline fill="none" stroke="black" points="1838.28,-111.1 1838.28,-202.3 "/>
<text text-anchor="middle" x="1867.28" y="-185.7" font-family="Courier New" font-size="14.00">value</text>
<text text-anchor="middle" x="1867.28" y="-168.9" font-family="Courier New" font-size="14.00"> &#160;</text>
<polyline fill="none" stroke="black" points="1838.28,-160.7 1896.29,-160.7 "/>
<text text-anchor="middle" x="1867.28" y="-144.1" font-family="Courier New" font-size="14.00"> </text>
<polyline fill="none" stroke="black" points="1838.28,-135.9 1896.29,-135.9 "/>
<text text-anchor="middle" x="1867.28" y="-119.3" font-family="Courier New" font-size="14.00"> </text>
<polyline fill="none" stroke="black" points="1896.29,-111.1 1896.29,-202.3 "/>
<text text-anchor="middle" x="2118.52" y="-185.7" font-family="Courier New" font-size="14.00">type: variable (bytes)</text>
<text text-anchor="middle" x="2118.52" y="-168.9" font-family="Courier New" font-size="14.00">decoded data</text>
<polyline fill="none" stroke="black" points="1896.29,-160.7 2340.76,-160.7 "/>
<text text-anchor="middle" x="2118.4" y="-144.1" font-family="Courier New" font-size="14.00">uint256: size (32)</text>
<polyline fill="none" stroke="black" points="1896.29,-135.9 2340.76,-135.9 "/>
<text text-anchor="middle" x="2118.52" y="-119.3" font-family="Courier New" font-size="14.00">mapping(uint256=&gt;mapping(bool=&gt;uint256)): list (32)</text>
</g>
<!-- 4&#45;&gt;2 -->
<g id="edge2" class="edge">
<title>4:15&#45;&gt;2</title>
<path fill="none" stroke="black" d="M1551.84,-169.1C1619.74,-169.1 1692.79,-169.1 1761.61,-169.1"/>
<polygon fill="black" stroke="black" points="1761.74,-172.6 1771.74,-169.1 1761.74,-165.6 1761.74,-172.6"/>
</g>
<!-- 3 -->
<g id="node4" class="node">
<title>3</title>
<polygon fill="#f2f2f2" stroke="black" points="1638.25,-0.5 1638.25,-91.7 2474.38,-91.7 2474.38,-0.5 1638.25,-0.5"/>
<text text-anchor="middle" x="2056.31" y="-75.1" font-family="Courier New" font-size="14.00">MiddlewareTimes &lt;&lt;Struct&gt;&gt;</text>
<polyline fill="none" stroke="black" points="1638.25,-66.9 2474.38,-66.9 "/>
<text text-anchor="middle" x="1671.46" y="-50.3" font-family="Courier New" font-size="14.00">offset</text>
<text text-anchor="middle" x="1671.46" y="-33.5" font-family="Courier New" font-size="14.00"> &#160;</text>
<polyline fill="none" stroke="black" points="1638.25,-25.3 1704.66,-25.3 "/>
<text text-anchor="middle" x="1671.46" y="-8.7" font-family="Courier New" font-size="14.00">0</text>
<polyline fill="none" stroke="black" points="1704.66,-0.5 1704.66,-66.9 "/>
<text text-anchor="middle" x="1733.66" y="-50.3" font-family="Courier New" font-size="14.00">value</text>
<text text-anchor="middle" x="1733.66" y="-33.5" font-family="Courier New" font-size="14.00"> &#160;</text>
<polyline fill="none" stroke="black" points="1704.66,-25.3 1762.67,-25.3 "/>
<text text-anchor="middle" x="1733.66" y="-8.7" font-family="Courier New" font-size="14.00"> </text>
<polyline fill="none" stroke="black" points="1762.67,-0.5 1762.67,-66.9 "/>
<text text-anchor="middle" x="2118.52" y="-50.3" font-family="Courier New" font-size="14.00">type: variable (bytes)</text>
<text text-anchor="middle" x="2118.52" y="-33.5" font-family="Courier New" font-size="14.00">decoded data</text>
<polyline fill="none" stroke="black" points="1762.67,-25.3 2474.38,-25.3 "/>
<text text-anchor="middle" x="1837.88" y="-8.7" font-family="Courier New" font-size="14.00">unallocated (24)</text>
<polyline fill="none" stroke="black" points="1913.09,-0.5 1913.09,-25.3 "/>
<text text-anchor="middle" x="2059.71" y="-8.7" font-family="Courier New" font-size="14.00">uint32: latestServeUntilBlock (4)</text>
<polyline fill="none" stroke="black" points="2206.33,-0.5 2206.33,-25.3 "/>
<text text-anchor="middle" x="2340.36" y="-8.7" font-family="Courier New" font-size="14.00">uint32: stalestUpdateBlock (4)</text>
</g>
<!-- 4&#45;&gt;3 -->
<g id="edge3" class="edge">
<title>4:18&#45;&gt;3</title>
<path fill="none" stroke="black" d="M1551.84,-144.1C1576.43,-144.1 1566.16,-113.69 1587.84,-102.1 1601.08,-95.03 1614.82,-88.69 1628.92,-83"/>
<polygon fill="black" stroke="black" points="1630.2,-86.26 1638.24,-79.36 1627.65,-79.74 1630.2,-86.26"/>
</g>
</g>
</svg>
