<?xml version="1.0" encoding="UTF-8" standalone="no"?>
<!DOCTYPE svg PUBLIC "-//W3C//DTD SVG 1.1//EN"
 "http://www.w3.org/Graphics/SVG/1.1/DTD/svg11.dtd">
<!-- Generated by graphviz version 5.0.0 (20220707.1540)
 -->
<!-- Title: UmlClassDiagram Pages: 1 -->
<svg width="1110pt" height="337pt"
 viewBox="0.00 0.00 1109.92 336.80" xmlns="http://www.w3.org/2000/svg" xmlns:xlink="http://www.w3.org/1999/xlink">
<g id="graph0" class="graph" transform="scale(1 1) rotate(0) translate(4 332.8)">
<title>UmlClassDiagram</title>
<polygon fill="white" stroke="transparent" points="-4,4 -4,-332.8 1105.92,-332.8 1105.92,4 -4,4"/>
<!-- 4 -->
<g id="node1" class="node">
<title>4</title>
<polygon fill="#f2f2f2" stroke="black" points="3.7,-79.1 3.7,-137.5 481.11,-137.5 481.11,-79.1 3.7,-79.1"/>
<text text-anchor="middle" x="242.41" y="-120.9" font-family="Times,serif" font-size="14.00">&lt;&lt;Abstract&gt;&gt;</text>
<text text-anchor="middle" x="242.41" y="-104.1" font-family="Times,serif" font-size="14.00">OwnableUpgradeable</text>
<text text-anchor="middle" x="242.41" y="-87.3" font-family="Times,serif" font-size="14.00">lib/openzeppelin&#45;contracts&#45;upgradeable/contracts/access/OwnableUpgradeable.sol</text>
</g>
<!-- 3 -->
<g id="node2" class="node">
<title>3</title>
<polygon fill="#f2f2f2" stroke="black" points="156.84,-269.9 156.84,-328.3 603.97,-328.3 603.97,-269.9 156.84,-269.9"/>
<text text-anchor="middle" x="380.41" y="-311.7" font-family="Times,serif" font-size="14.00">&lt;&lt;Abstract&gt;&gt;</text>
<text text-anchor="middle" x="380.41" y="-294.9" font-family="Times,serif" font-size="14.00">Initializable</text>
<text text-anchor="middle" x="380.41" y="-278.1" font-family="Times,serif" font-size="14.00">lib/openzeppelin&#45;contracts&#45;upgradeable/contracts/proxy/utils/Initializable.sol</text>
</g>
<!-- 4&#45;&gt;3 -->
<g id="edge1" class="edge">
<title>4&#45;&gt;3</title>
<path fill="none" stroke="black" d="M89.49,-137.52C54.05,-147.26 23.43,-159.45 12.41,-174 -3.53,-195.04 -4.57,-213.18 12.41,-233.4 29.7,-253.99 74.38,-268.03 126.9,-277.61"/>
<polygon fill="none" stroke="black" points="125.46,-288.01 156.76,-282.48 128.84,-267.28 125.46,-288.01"/>
</g>
<!-- 13 -->
<g id="node4" class="node">
<title>13</title>
<polygon fill="#f2f2f2" stroke="black" points="21.62,-174.5 21.62,-232.9 481.19,-232.9 481.19,-174.5 21.62,-174.5"/>
<text text-anchor="middle" x="251.41" y="-216.3" font-family="Times,serif" font-size="14.00">&lt;&lt;Abstract&gt;&gt;</text>
<text text-anchor="middle" x="251.41" y="-199.5" font-family="Times,serif" font-size="14.00">ContextUpgradeable</text>
<text text-anchor="middle" x="251.41" y="-182.7" font-family="Times,serif" font-size="14.00">lib/openzeppelin&#45;contracts&#45;upgradeable/contracts/utils/ContextUpgradeable.sol</text>
</g>
<!-- 4&#45;&gt;13 -->
<g id="edge2" class="edge">
<title>4&#45;&gt;13</title>
<path fill="none" stroke="black" d="M245.13,-137.58C245.34,-139.75 245.56,-141.99 245.78,-144.27"/>
<polygon fill="none" stroke="black" points="235.33,-145.34 248.66,-174.2 256.24,-143.33 235.33,-145.34"/>
</g>
<!-- 5 -->
<g id="node3" class="node">
<title>5</title>
<polygon fill="#f2f2f2" stroke="black" points="537.32,-174.5 537.32,-232.9 1071.49,-232.9 1071.49,-174.5 537.32,-174.5"/>
<text text-anchor="middle" x="804.41" y="-216.3" font-family="Times,serif" font-size="14.00">&lt;&lt;Abstract&gt;&gt;</text>
<text text-anchor="middle" x="804.41" y="-199.5" font-family="Times,serif" font-size="14.00">ReentrancyGuardUpgradeable</text>
<text text-anchor="middle" x="804.41" y="-182.7" font-family="Times,serif" font-size="14.00">lib/openzeppelin&#45;contracts&#45;upgradeable/contracts/security/ReentrancyGuardUpgradeable.sol</text>
</g>
<!-- 5&#45;&gt;3 -->
<g id="edge3" class="edge">
<title>5&#45;&gt;3</title>
<path fill="none" stroke="black" d="M676.33,-232.91C632.74,-242.52 583.49,-253.36 537.87,-263.41"/>
<polygon fill="none" stroke="black" points="535.54,-253.18 508.5,-269.88 540.06,-273.68 535.54,-253.18"/>
</g>
<!-- 13&#45;&gt;3 -->
<g id="edge4" class="edge">
<title>13&#45;&gt;3</title>
<path fill="none" stroke="black" d="M290.46,-232.98C298.72,-238.96 307.64,-245.42 316.55,-251.86"/>
<polygon fill="none" stroke="black" points="310.58,-260.51 341.04,-269.6 322.9,-243.5 310.58,-260.51"/>
</g>
<!-- 0 -->
<g id="node5" class="node">
<title>0</title>
<polygon fill="#f2f2f2" stroke="black" points="429.98,-0.5 429.98,-42.1 664.84,-42.1 664.84,-0.5 429.98,-0.5"/>
<text text-anchor="middle" x="547.41" y="-25.5" font-family="Times,serif" font-size="14.00">StrategyManager</text>
<text text-anchor="middle" x="547.41" y="-8.7" font-family="Times,serif" font-size="14.00">src/contracts/core/StrategyManager.sol</text>
</g>
<!-- 0&#45;&gt;4 -->
<g id="edge6" class="edge">
<title>0&#45;&gt;4</title>
<path fill="none" stroke="black" d="M476.28,-42.12C445.4,-50.73 408.22,-61.09 372.69,-70.99"/>
<polygon fill="none" stroke="black" points="369.81,-60.89 343.73,-79.06 375.45,-81.12 369.81,-60.89"/>
</g>
<!-- 0&#45;&gt;3 -->
<g id="edge5" class="edge">
<title>0&#45;&gt;3</title>
<path fill="none" stroke="black" d="M544.03,-42.1C535.81,-88.54 513.71,-202.83 490.41,-233.4 485.12,-240.34 478.85,-246.67 472.04,-252.42"/>
<polygon fill="none" stroke="black" points="465.87,-243.92 447.37,-269.77 477.95,-261.1 465.87,-243.92"/>
</g>
<!-- 0&#45;&gt;5 -->
<g id="edge7" class="edge">
<title>0&#45;&gt;5</title>
<path fill="none" stroke="black" d="M544.7,-42.21C542.43,-67.7 542.68,-111.7 566.41,-138 575.91,-148.54 596.45,-157.95 621.67,-166.12"/>
<polygon fill="none" stroke="black" points="618.83,-176.23 650.57,-174.5 624.68,-156.06 618.83,-176.23"/>
</g>
<!-- 11 -->
<g id="node6" class="node">
<title>11</title>
<polygon fill="#f2f2f2" stroke="black" points="575.6,-79.1 575.6,-137.5 853.22,-137.5 853.22,-79.1 575.6,-79.1"/>
<text text-anchor="middle" x="714.41" y="-120.9" font-family="Times,serif" font-size="14.00">&lt;&lt;Abstract&gt;&gt;</text>
<text text-anchor="middle" x="714.41" y="-104.1" font-family="Times,serif" font-size="14.00">StrategyManagerStorage</text>
<text text-anchor="middle" x="714.41" y="-87.3" font-family="Times,serif" font-size="14.00">src/contracts/core/StrategyManagerStorage.sol</text>
</g>
<!-- 0&#45;&gt;11 -->
<g id="edge9" class="edge">
<title>0&#45;&gt;11</title>
<path fill="none" stroke="black" d="M586.56,-42.23C600.17,-49.15 615.98,-57.2 631.76,-65.23"/>
<polygon fill="none" stroke="black" points="627.24,-74.72 658.74,-78.97 636.77,-56 627.24,-74.72"/>
</g>
<!-- 10 -->
<g id="node7" class="node">
<title>10</title>
<polygon fill="#f2f2f2" stroke="black" points="870.9,-87.5 870.9,-129.1 1101.92,-129.1 1101.92,-87.5 870.9,-87.5"/>
<text text-anchor="middle" x="986.41" y="-112.5" font-family="Times,serif" font-size="14.00">Pausable</text>
<text text-anchor="middle" x="986.41" y="-95.7" font-family="Times,serif" font-size="14.00">src/contracts/permissions/Pausable.sol</text>
</g>
<!-- 0&#45;&gt;10 -->
<g id="edge8" class="edge">
<title>0&#45;&gt;10</title>
<path fill="none" stroke="black" d="M665.1,-41.88C724.42,-52.12 797.37,-65.27 862.41,-78.6 866.26,-79.39 870.17,-80.21 874.12,-81.04"/>
<polygon fill="none" stroke="black" points="871.94,-91.32 903.49,-87.5 876.44,-70.81 871.94,-91.32"/>
</g>
</g>
</svg>
