<?xml version="1.0" encoding="UTF-8" standalone="no"?>
<!DOCTYPE svg PUBLIC "-//W3C//DTD SVG 1.1//EN"
 "http://www.w3.org/Graphics/SVG/1.1/DTD/svg11.dtd">
<!-- Generated by graphviz version 5.0.0 (20220707.1540)
 -->
<!-- Title: StorageDiagram Pages: 1 -->
<svg width="1851pt" height="416pt"
 viewBox="0.00 0.00 1851.48 416.20" xmlns="http://www.w3.org/2000/svg" xmlns:xlink="http://www.w3.org/1999/xlink">
<g id="graph0" class="graph" transform="scale(1 1) rotate(0) translate(4 412.2)">
<title>StorageDiagram</title>
<polygon fill="white" stroke="transparent" points="-4,4 -4,-412.2 1847.48,-412.2 1847.48,4 -4,4"/>
<!-- 1 -->
<g id="node1" class="node">
<title>1</title>
<polygon fill="#f2f2f2" stroke="black" points="0,-0.5 0,-407.7 1843.48,-407.7 1843.48,-0.5 0,-0.5"/>
<text text-anchor="middle" x="921.74" y="-391.1" font-family="Courier New" font-size="14.00">StrategyBaseTVLLimits &lt;&lt;Contract&gt;&gt;</text>
<text text-anchor="middle" x="921.74" y="-374.3" font-family="Courier New" font-size="14.00">0xdfdA04f980bE6A64E3607c95Ca26012Ab9aA46d3</text>
<polyline fill="none" stroke="black" points="0,-366.1 1843.48,-366.1 "/>
<text text-anchor="middle" x="37.4" y="-349.5" font-family="Courier New" font-size="14.00">slot</text>
<text text-anchor="middle" x="37.4" y="-332.7" font-family="Courier New" font-size="14.00"> &#160;</text>
<polyline fill="none" stroke="black" points="0,-324.5 74.81,-324.5 "/>
<text text-anchor="middle" x="37.4" y="-307.9" font-family="Courier New" font-size="14.00">0</text>
<text text-anchor="middle" x="37.4" y="-291.1" font-family="Courier New" font-size="14.00"> &#160;</text>
<polyline fill="none" stroke="black" points="0,-282.9 74.81,-282.9 "/>
<text text-anchor="middle" x="37.4" y="-266.3" font-family="Courier New" font-size="14.00">1</text>
<text text-anchor="middle" x="37.4" y="-249.5" font-family="Courier New" font-size="14.00"> &#160;</text>
<polyline fill="none" stroke="black" points="0,-241.3 74.81,-241.3 "/>
<text text-anchor="middle" x="37.4" y="-224.7" font-family="Courier New" font-size="14.00">2&#45;49 </text>
<polyline fill="none" stroke="black" points="0,-216.5 74.81,-216.5 "/>
<text text-anchor="middle" x="37.4" y="-199.9" font-family="Courier New" font-size="14.00">50</text>
<text text-anchor="middle" x="37.4" y="-183.1" font-family="Courier New" font-size="14.00"> &#160;</text>
<polyline fill="none" stroke="black" points="0,-174.9 74.81,-174.9 "/>
<text text-anchor="middle" x="37.4" y="-158.3" font-family="Courier New" font-size="14.00">51</text>
<text text-anchor="middle" x="37.4" y="-141.5" font-family="Courier New" font-size="14.00"> &#160;</text>
<polyline fill="none" stroke="black" points="0,-133.3 74.81,-133.3 "/>
<text text-anchor="middle" x="37.4" y="-116.7" font-family="Courier New" font-size="14.00">52&#45;99 </text>
<polyline fill="none" stroke="black" points="0,-108.5 74.81,-108.5 "/>
<text text-anchor="middle" x="37.4" y="-91.9" font-family="Courier New" font-size="14.00">100</text>
<text text-anchor="middle" x="37.4" y="-75.1" font-family="Courier New" font-size="14.00"> &#160;</text>
<polyline fill="none" stroke="black" points="0,-66.9 74.81,-66.9 "/>
<text text-anchor="middle" x="37.4" y="-50.3" font-family="Courier New" font-size="14.00">101</text>
<text text-anchor="middle" x="37.4" y="-33.5" font-family="Courier New" font-size="14.00"> &#160;</text>
<polyline fill="none" stroke="black" points="0,-25.3 74.81,-25.3 "/>
<text text-anchor="middle" x="37.4" y="-8.7" font-family="Courier New" font-size="14.00">102&#45;149</text>
<polyline fill="none" stroke="black" points="74.81,-0.5 74.81,-366.1 "/>
<text text-anchor="middle" x="360.05" y="-349.5" font-family="Courier New" font-size="14.00">value</text>
<text text-anchor="middle" x="360.05" y="-332.7" font-family="Courier New" font-size="14.00"> &#160;</text>
<polyline fill="none" stroke="black" points="74.81,-324.5 645.3,-324.5 "/>
<text text-anchor="middle" x="360.05" y="-307.9" font-family="Courier New" font-size="14.00">0x000000000000000000000C431C66F4DE941D089625E5B423D007079770600001</text>
<text text-anchor="middle" x="360.05" y="-291.1" font-family="Courier New" font-size="14.00"> &#160;</text>
<polyline fill="none" stroke="black" points="74.81,-282.9 645.3,-282.9 "/>
<text text-anchor="middle" x="360.05" y="-266.3" font-family="Courier New" font-size="14.00">0x0000000000000000000000000000000000000000000000000000000000000000</text>
<text text-anchor="middle" x="360.05" y="-249.5" font-family="Courier New" font-size="14.00"> &#160;</text>
<polyline fill="none" stroke="black" points="74.81,-241.3 645.3,-241.3 "/>
<text text-anchor="middle" x="360.05" y="-224.7" font-family="Courier New" font-size="14.00"> </text>
<polyline fill="none" stroke="black" points="74.81,-216.5 645.3,-216.5 "/>
<text text-anchor="middle" x="360.05" y="-199.9" font-family="Courier New" font-size="14.00">0x000000000000000000000000AE7AB96520DE3A18E5E111B5EAAB095312D7FE84</text>
<text text-anchor="middle" x="360.05" y="-183.1" font-family="Courier New" font-size="14.00"> &#160;</text>
<polyline fill="none" stroke="black" points="74.81,-174.9 645.3,-174.9 "/>
<text text-anchor="middle" x="360.05" y="-158.3" font-family="Courier New" font-size="14.00">0x0000000000000000000000000000000000000000000028AEEC2817D16900208D</text>
<text text-anchor="middle" x="360.05" y="-141.5" font-family="Courier New" font-size="14.00"> &#160;</text>
<polyline fill="none" stroke="black" points="74.81,-133.3 645.3,-133.3 "/>
<text text-anchor="middle" x="360.05" y="-116.7" font-family="Courier New" font-size="14.00"> </text>
<polyline fill="none" stroke="black" points="74.81,-108.5 645.3,-108.5 "/>
<text text-anchor="middle" x="360.05" y="-91.9" font-family="Courier New" font-size="14.00">0x000000000000000000000000000000000000000000002A5A058FC295ED000000</text>
<text text-anchor="middle" x="360.05" y="-75.1" font-family="Courier New" font-size="14.00"> &#160;</text>
<polyline fill="none" stroke="black" points="74.81,-66.9 645.3,-66.9 "/>
<text text-anchor="middle" x="360.05" y="-50.3" font-family="Courier New" font-size="14.00">0x000000000000000000000000000000000000000000002A5A058FC295ED000000</text>
<text text-anchor="middle" x="360.05" y="-33.5" font-family="Courier New" font-size="14.00"> &#160;</text>
<polyline fill="none" stroke="black" points="74.81,-25.3 645.3,-25.3 "/>
<text text-anchor="middle" x="360.05" y="-8.7" font-family="Courier New" font-size="14.00"> </text>
<polyline fill="none" stroke="black" points="645.3,-0.5 645.3,-366.1 "/>
<text text-anchor="middle" x="1244.39" y="-349.5" font-family="Courier New" font-size="14.00">type: &lt;inherited contract&gt;.variable (bytes)</text>
<text text-anchor="middle" x="1244.39" y="-332.7" font-family="Courier New" font-size="14.00">decoded data</text>
<polyline fill="none" stroke="black" points="645.3,-324.5 1843.48,-324.5 "/>
<text text-anchor="middle" x="720.51" y="-299.5" font-family="Courier New" font-size="14.00">unallocated (10)</text>
<polyline fill="none" stroke="black" points="795.72,-282.9 795.72,-324.5 "/>
<text text-anchor="middle" x="992.75" y="-307.9" font-family="Courier New" font-size="14.00">IPauserRegistry: Pausable.pauserRegistry (20)</text>
<text text-anchor="middle" x="992.75" y="-291.1" font-family="Courier New" font-size="14.00"> 0x0c431C66F4dE941d089625E5B423D00707977060 &#160;</text>
<polyline fill="none" stroke="black" points="1189.78,-282.9 1189.78,-324.5 "/>
<text text-anchor="middle" x="1353.21" y="-307.9" font-family="Courier New" font-size="14.00">bool: Initializable._initializing (1)</text>
<text text-anchor="middle" x="1353.21" y="-291.1" font-family="Courier New" font-size="14.00"> false &#160;</text>
<polyline fill="none" stroke="black" points="1516.63,-282.9 1516.63,-324.5 "/>
<text text-anchor="middle" x="1680.06" y="-307.9" font-family="Courier New" font-size="14.00">uint8: Initializable._initialized (1)</text>
<text text-anchor="middle" x="1680.06" y="-291.1" font-family="Courier New" font-size="14.00"> 1 </text>
<polyline fill="none" stroke="black" points="645.3,-282.9 1843.48,-282.9 "/>
<text text-anchor="middle" x="1244.32" y="-266.3" font-family="Courier New" font-size="14.00">uint256: Pausable._paused (32)</text>
<text text-anchor="middle" x="1244.32" y="-249.5" font-family="Courier New" font-size="14.00"> 0 </text>
<polyline fill="none" stroke="black" points="645.3,-241.3 1843.48,-241.3 "/>
<text text-anchor="middle" x="1244.12" y="-224.7" font-family="Courier New" font-size="14.00">uint256[48]: Pausable.__gap (1536)</text>
<polyline fill="none" stroke="black" points="645.3,-216.5 1843.48,-216.5 "/>
<text text-anchor="middle" x="886.01" y="-191.5" font-family="Courier New" font-size="14.00">unallocated (12)</text>
<polyline fill="none" stroke="black" points="1126.72,-174.9 1126.72,-216.5 "/>
<text text-anchor="middle" x="1485.05" y="-199.9" font-family="Courier New" font-size="14.00">IERC20: StrategyBase.underlyingToken (20)</text>
<text text-anchor="middle" x="1485.05" y="-183.1" font-family="Courier New" font-size="14.00"> 0xae7ab96520DE3A18E5e111B5EaAb095312D7fE84 </text>
<polyline fill="none" stroke="black" points="645.3,-174.9 1843.48,-174.9 "/>
<text text-anchor="middle" x="1243.93" y="-158.3" font-family="Courier New" font-size="14.00">uint256: StrategyBase.totalShares (32)</text>
<text text-anchor="middle" x="1243.93" y="-141.5" font-family="Courier New" font-size="14.00"> 192,121,409,660,991,467,167,885 </text>
<polyline fill="none" stroke="black" points="645.3,-133.3 1843.48,-133.3 "/>
<text text-anchor="middle" x="1243.93" y="-116.7" font-family="Courier New" font-size="14.00">uint256[48]: StrategyBase.__gap (1536)</text>
<polyline fill="none" stroke="black" points="645.3,-108.5 1843.48,-108.5 "/>
<text text-anchor="middle" x="1243.92" y="-91.9" font-family="Courier New" font-size="14.00">uint256: maxPerDeposit (32)</text>
<text text-anchor="middle" x="1243.92" y="-75.1" font-family="Courier New" font-size="14.00"> 200,000,000,000,000,000,000,000 </text>
<polyline fill="none" stroke="black" points="645.3,-66.9 1843.48,-66.9 "/>
<text text-anchor="middle" x="1243.92" y="-50.3" font-family="Courier New" font-size="14.00">uint256: maxTotalDeposits (32)</text>
<text text-anchor="middle" x="1243.92" y="-33.5" font-family="Courier New" font-size="14.00"> 200,000,000,000,000,000,000,000 </text>
<polyline fill="none" stroke="black" points="645.3,-25.3 1843.48,-25.3 "/>
<text text-anchor="middle" x="1244.32" y="-8.7" font-family="Courier New" font-size="14.00">uint256[48]: __gap (1536)</text>
</g>
</g>
</svg>
