<?xml version="1.0" encoding="UTF-8" standalone="no"?>
<!DOCTYPE svg PUBLIC "-//W3C//DTD SVG 1.1//EN"
 "http://www.w3.org/Graphics/SVG/1.1/DTD/svg11.dtd">
<!-- Generated by graphviz version 5.0.0 (20220707.1540)
 -->
<!-- Title: StorageDiagram Pages: 1 -->
<svg width="1281pt" height="299pt"
 viewBox="0.00 0.00 1280.99 298.60" xmlns="http://www.w3.org/2000/svg" xmlns:xlink="http://www.w3.org/1999/xlink">
<g id="graph0" class="graph" transform="scale(1 1) rotate(0) translate(4 294.6)">
<title>StorageDiagram</title>
<polygon fill="white" stroke="transparent" points="-4,4 -4,-294.6 1276.99,-294.6 1276.99,4 -4,4"/>
<!-- 1 -->
<g id="node1" class="node">
<title>1</title>
<polygon fill="#f2f2f2" stroke="black" points="0,-0.5 0,-290.1 1272.99,-290.1 1272.99,-0.5 0,-0.5"/>
<text text-anchor="middle" x="636.5" y="-273.5" font-family="Courier New" font-size="14.00">StrategyBaseTVLLimits &lt;&lt;Contract&gt;&gt;</text>
<text text-anchor="middle" x="636.5" y="-256.7" font-family="Courier New" font-size="14.00">0xdfdA04f980bE6A64E3607c95Ca26012Ab9aA46d3</text>
<polyline fill="none" stroke="black" points="0,-248.5 1272.99,-248.5 "/>
<text text-anchor="middle" x="37.4" y="-231.9" font-family="Courier New" font-size="14.00">slot</text>
<polyline fill="none" stroke="black" points="0,-223.7 74.81,-223.7 "/>
<text text-anchor="middle" x="37.4" y="-207.1" font-family="Courier New" font-size="14.00">0</text>
<polyline fill="none" stroke="black" points="0,-198.9 74.81,-198.9 "/>
<text text-anchor="middle" x="37.4" y="-182.3" font-family="Courier New" font-size="14.00">1</text>
<polyline fill="none" stroke="black" points="0,-174.1 74.81,-174.1 "/>
<text text-anchor="middle" x="37.4" y="-157.5" font-family="Courier New" font-size="14.00">2&#45;49</text>
<polyline fill="none" stroke="black" points="0,-149.3 74.81,-149.3 "/>
<text text-anchor="middle" x="37.4" y="-132.7" font-family="Courier New" font-size="14.00">50</text>
<polyline fill="none" stroke="black" points="0,-124.5 74.81,-124.5 "/>
<text text-anchor="middle" x="37.4" y="-107.9" font-family="Courier New" font-size="14.00">51</text>
<polyline fill="none" stroke="black" points="0,-99.7 74.81,-99.7 "/>
<text text-anchor="middle" x="37.4" y="-83.1" font-family="Courier New" font-size="14.00">52&#45;99</text>
<polyline fill="none" stroke="black" points="0,-74.9 74.81,-74.9 "/>
<text text-anchor="middle" x="37.4" y="-58.3" font-family="Courier New" font-size="14.00">100</text>
<polyline fill="none" stroke="black" points="0,-50.1 74.81,-50.1 "/>
<text text-anchor="middle" x="37.4" y="-33.5" font-family="Courier New" font-size="14.00">101</text>
<polyline fill="none" stroke="black" points="0,-25.3 74.81,-25.3 "/>
<text text-anchor="middle" x="37.4" y="-8.7" font-family="Courier New" font-size="14.00">102&#45;149</text>
<polyline fill="none" stroke="black" points="74.81,-0.5 74.81,-248.5 "/>
<text text-anchor="middle" x="673.9" y="-231.9" font-family="Courier New" font-size="14.00">type: &lt;inherited contract&gt;.variable (bytes)</text>
<polyline fill="none" stroke="black" points="74.81,-223.7 1272.99,-223.7 "/>
<text text-anchor="middle" x="150.02" y="-207.1" font-family="Courier New" font-size="14.00">unallocated (10)</text>
<polyline fill="none" stroke="black" points="225.23,-198.9 225.23,-223.7 "/>
<text text-anchor="middle" x="422.26" y="-207.1" font-family="Courier New" font-size="14.00">IPauserRegistry: Pausable.pauserRegistry (20)</text>
<polyline fill="none" stroke="black" points="619.29,-198.9 619.29,-223.7 "/>
<text text-anchor="middle" x="782.72" y="-207.1" font-family="Courier New" font-size="14.00">bool: Initializable._initializing (1)</text>
<polyline fill="none" stroke="black" points="946.14,-198.9 946.14,-223.7 "/>
<text text-anchor="middle" x="1109.57" y="-207.1" font-family="Courier New" font-size="14.00">uint8: Initializable._initialized (1)</text>
<polyline fill="none" stroke="black" points="74.81,-198.9 1272.99,-198.9 "/>
<text text-anchor="middle" x="673.83" y="-182.3" font-family="Courier New" font-size="14.00">uint256: Pausable._paused (32)</text>
<polyline fill="none" stroke="black" points="74.81,-174.1 1272.99,-174.1 "/>
<text text-anchor="middle" x="673.63" y="-157.5" font-family="Courier New" font-size="14.00">uint256[48]: Pausable.__gap (1536)</text>
<polyline fill="none" stroke="black" points="74.81,-149.3 1272.99,-149.3 "/>
<text text-anchor="middle" x="321.52" y="-132.7" font-family="Courier New" font-size="14.00">unallocated (12)</text>
<polyline fill="none" stroke="black" points="568.23,-124.5 568.23,-149.3 "/>
<text text-anchor="middle" x="920.46" y="-132.7" font-family="Courier New" font-size="14.00">IERC20: StrategyBase.underlyingToken (20)</text>
<polyline fill="none" stroke="black" points="74.81,-124.5 1272.99,-124.5 "/>
<text text-anchor="middle" x="673.44" y="-107.9" font-family="Courier New" font-size="14.00">uint256: StrategyBase.totalShares (32)</text>
<polyline fill="none" stroke="black" points="74.81,-99.7 1272.99,-99.7 "/>
<text text-anchor="middle" x="673.44" y="-83.1" font-family="Courier New" font-size="14.00">uint256[48]: StrategyBase.__gap (1536)</text>
<polyline fill="none" stroke="black" points="74.81,-74.9 1272.99,-74.9 "/>
<text text-anchor="middle" x="673.73" y="-58.3" font-family="Courier New" font-size="14.00">uint256: maxPerDeposit (32)</text>
<polyline fill="none" stroke="black" points="74.81,-50.1 1272.99,-50.1 "/>
<text text-anchor="middle" x="673.83" y="-33.5" font-family="Courier New" font-size="14.00">uint256: maxTotalDeposits (32)</text>
<polyline fill="none" stroke="black" points="74.81,-25.3 1272.99,-25.3 "/>
<text text-anchor="middle" x="673.83" y="-8.7" font-family="Courier New" font-size="14.00">uint256[48]: __gap (1536)</text>
</g>
</g>
</svg>
