<?xml version="1.0" encoding="us-ascii" standalone="no"?><svg xmlns="http://www.w3.org/2000/svg" xmlns:xlink="http://www.w3.org/1999/xlink" contentStyleType="text/css" height="360px" preserveAspectRatio="none" style="width:590px;height:360px;background:#FFFFFF;" version="1.1" viewBox="0 0 590 360" width="590px" zoomAndPan="magnify"><defs/><g><text fill="#000000" font-family="sans-serif" font-size="14" font-weight="bold" lengthAdjust="spacing" textLength="562" x="10" y="28.5352">0xaa22ff76569729693357b29ca92f24bb4abc0b9fad6f929dbc556101cf0d90d6</text><text fill="#000000" font-family="sans-serif" font-size="14" lengthAdjust="spacing" textLength="406" x="88" y="348.1719">mainnet, block 19129652, Wed, 31 Jan 2024 23:11:47 GMT</text><line style="stroke:#181818;stroke-width:0.5;stroke-dasharray:5.0,5.0;" x1="163.25" x2="163.25" y1="123.4414" y2="252.6836"/><line style="stroke:#181818;stroke-width:0.5;stroke-dasharray:5.0,5.0;" x1="342.75" x2="342.75" y1="123.4414" y2="252.6836"/><line style="stroke:#181818;stroke-width:0.5;stroke-dasharray:5.0,5.0;" x1="476.75" x2="476.75" y1="123.4414" y2="252.6836"/><text fill="#000000" font-family="sans-serif" font-size="14" lengthAdjust="spacing" textLength="96" x="112.25" y="120.4883">0xF9E2..2445</text><ellipse cx="163.25" cy="55.4531" fill="#E2E2F0" rx="8" ry="8" style="stroke:#181818;stroke-width:0.5;"/><path d="M163.25,63.4531 L163.25,90.4531 M150.25,71.4531 L176.25,71.4531 M163.25,90.4531 L150.25,105.4531 M163.25,90.4531 L176.25,105.4531 " fill="none" style="stroke:#181818;stroke-width:0.5;"/><text fill="#000000" font-family="sans-serif" font-size="14" lengthAdjust="spacing" textLength="96" x="112.25" y="265.2188">0xF9E2..2445</text><ellipse cx="163.25" cy="276.6719" fill="#E2E2F0" rx="8" ry="8" style="stroke:#181818;stroke-width:0.5;"/><path d="M163.25,284.6719 L163.25,311.6719 M150.25,292.6719 L176.25,292.6719 M163.25,311.6719 L150.25,326.6719 M163.25,311.6719 L176.25,326.6719 " fill="none" style="stroke:#181818;stroke-width:0.5;"/><rect fill="#E2E2F0" height="46.9766" rx="2.5" ry="2.5" style="stroke:#181818;stroke-width:0.5;" width="135" x="275.75" y="75.4648"/><text fill="#000000" font-family="sans-serif" font-size="14" font-style="italic" lengthAdjust="spacing" textLength="121" x="282.75" y="96">&#171;LRTDepositPool&#187;</text><text fill="#000000" font-family="sans-serif" font-size="14" lengthAdjust="spacing" textLength="99" x="293.75" y="112.4883">0x0366..375D</text><rect fill="#E2E2F0" height="46.9766" rx="2.5" ry="2.5" style="stroke:#181818;stroke-width:0.5;" width="135" x="275.75" y="251.6836"/><text fill="#000000" font-family="sans-serif" font-size="14" font-style="italic" lengthAdjust="spacing" textLength="121" x="282.75" y="272.2188">&#171;LRTDepositPool&#187;</text><text fill="#000000" font-family="sans-serif" font-size="14" lengthAdjust="spacing" textLength="99" x="293.75" y="288.707">0x0366..375D</text><rect fill="#E2E2F0" height="79.9531" rx="2.5" ry="2.5" style="stroke:#181818;stroke-width:0.5;" width="113" x="420.75" y="42.4883"/><text fill="#000000" font-family="sans-serif" font-size="14" font-style="italic" lengthAdjust="spacing" textLength="54" x="450.25" y="63.0234">&#171;rsETH&#187;</text><text fill="#000000" font-family="sans-serif" font-size="14" font-style="italic" lengthAdjust="spacing" textLength="64" x="445.25" y="79.5117">&#171;(rsETH)&#187;</text><text fill="#000000" font-family="sans-serif" font-size="14" font-style="italic" lengthAdjust="spacing" textLength="58" x="448.25" y="96">&#171;RSETH&#187;</text><text fill="#000000" font-family="sans-serif" font-size="14" lengthAdjust="spacing" textLength="99" x="427.75" y="112.4883">0xA129..e5A7</text><rect fill="#E2E2F0" height="79.9531" rx="2.5" ry="2.5" style="stroke:#181818;stroke-width:0.5;" width="113" x="420.75" y="251.6836"/><text fill="#000000" font-family="sans-serif" font-size="14" font-style="italic" lengthAdjust="spacing" textLength="54" x="450.25" y="272.2188">&#171;rsETH&#187;</text><text fill="#000000" font-family="sans-serif" font-size="14" font-style="italic" lengthAdjust="spacing" textLength="64" x="445.25" y="288.707">&#171;(rsETH)&#187;</text><text fill="#000000" font-family="sans-serif" font-size="14" font-style="italic" lengthAdjust="spacing" textLength="58" x="448.25" y="305.1953">&#171;RSETH&#187;</text><text fill="#000000" font-family="sans-serif" font-size="14" lengthAdjust="spacing" textLength="99" x="427.75" y="321.6836">0xA129..e5A7</text><polygon fill="#181818" points="331.25,150.752,341.25,154.752,331.25,158.752,335.25,154.752" style="stroke:#181818;stroke-width:1.0;"/><line style="stroke:#181818;stroke-width:1.0;" x1="163.25" x2="337.25" y1="154.752" y2="154.752"/><text fill="#000000" font-family="sans-serif" font-size="13" lengthAdjust="spacing" textLength="137" x="170.25" y="150.0098">Transfer 0.1029 ETHx</text><polygon fill="#181818" points="174.25,180.0625,164.25,184.0625,174.25,188.0625,170.25,184.0625" style="stroke:#181818;stroke-width:1.0;"/><ellipse cx="476.75" cy="183.3125" fill="none" rx="4" ry="4" style="stroke:#181818;stroke-width:1.5;"/><line style="stroke:#181818;stroke-width:1.0;" x1="168.25" x2="472.25" y1="184.0625" y2="184.0625"/><text fill="#000000" font-family="sans-serif" font-size="13" lengthAdjust="spacing" textLength="253" x="180.25" y="179.3203">Transfer 0.104480352987836767 rsETH</text><path d="M49.25,197.0625 L49.25,237.0625 L277.25,237.0625 L277.25,207.0625 L267.25,197.0625 L49.25,197.0625 " fill="#00FFFF" style="stroke:#181818;stroke-width:0.5;"/><path d="M267.25,197.0625 L267.25,207.0625 L277.25,207.0625 L267.25,197.0625 " fill="#00FFFF" style="stroke:#181818;stroke-width:0.5;"/><text fill="#000000" font-family="sans-serif" font-size="13" lengthAdjust="spacing" textLength="89" x="55.25" y="214.6309">-0.1029 ETHx</text><text fill="#000000" font-family="sans-serif" font-size="13" lengthAdjust="spacing" textLength="207" x="55.25" y="229.9414">+0.104480352987836767 rsETH</text><path d="M287.25,197.0625 L287.25,222.0625 L399.25,222.0625 L399.25,207.0625 L389.25,197.0625 L287.25,197.0625 " fill="#00FFFF" style="stroke:#181818;stroke-width:0.5;"/><path d="M389.25,197.0625 L389.25,207.0625 L399.25,207.0625 L389.25,197.0625 " fill="#00FFFF" style="stroke:#181818;stroke-width:0.5;"/><text fill="#000000" font-family="sans-serif" font-size="13" lengthAdjust="spacing" textLength="91" x="293.25" y="214.6309">+0.1029 ETHx</text><!--SRC=[VP3TIiD048Nlzoc6UgEqZVk_tH82XLP55AG6l9ua6mZMR4nMwUERf1YBY7TpbdE-CxEX2WS7Ctf4vBmiZLRQ6cwr5KAPZDiSBI-vp3A9MKupMsAXIyjjaULAQKPPNjB2qaBF2Ccn2PMluGshkdPX0Td1vw_0BEk1YY_WnHKB40pkiGPEkGGkreojfO7RnvHW7dmxh79ZTpoAk9Hg1jX1QHqV1906sr3bLODr67nKQ1r5mgZjw1jaBmg8uuTzkdMDxwhmvFqXINudD_r6KUJKnen9xALJQFfas-tIkoI9uyjnkXh6_VFuHiYqoJAPsjQGjbXtfMk1Heno2xtvI2QaxxtVkLzUALTKA6vNPYMqqGR6Ia98xOC3_zdRfiOBVFz0iZolcF_3S7K10uMGQ_YXJJzqeitFQNydfZDEYSdq1G00]--></g></svg>